<?xml version="1.0" encoding="UTF-8" standalone="no"?>
<!DOCTYPE svg PUBLIC "-//W3C//DTD SVG 1.1//EN"
 "http://www.w3.org/Graphics/SVG/1.1/DTD/svg11.dtd">
<!-- Generated by graphviz version 2.43.0 (0)
 -->
<!-- Title: com.teragrep.pth_06.planner.MockMeteredArchiveQueryProcessor Pages: 1 -->
<svg width="205pt" height="115pt"
 viewBox="0.00 0.00 205.00 115.00" xmlns="http://www.w3.org/2000/svg" xmlns:xlink="http://www.w3.org/1999/xlink">
<g id="graph0" class="graph" transform="scale(1 1) rotate(0) translate(4 111)">
<title>com.teragrep.pth_06.planner.MockMeteredArchiveQueryProcessor</title>
<!-- Node1 -->
<g id="Node000001" class="node">
<title>Node1</title>
<g id="a_Node000001"><a xlink:title=" ">
<polygon fill="#999999" stroke="#666666" points="197,-30 0,-30 0,0 197,0 197,-30"/>
<text text-anchor="start" x="8" y="-18" font-family="Helvetica,sans-Serif" font-size="10.00">com.teragrep.pth_06.planner.</text>
<text text-anchor="middle" x="98.5" y="-7" font-family="Helvetica,sans-Serif" font-size="10.00">MockMeteredArchiveQueryProcessor</text>
</a>
</g>
</g>
<!-- Node2 -->
<g id="Node000002" class="node">
<title>Node2</title>
<g id="a_Node000002"><a xlink:href="interfacecom_1_1teragrep_1_1pth__06_1_1planner_1_1ArchiveQuery.html" target="_top" xlink:title=" ">
<polygon fill="white" stroke="#666666" points="178.5,-107 18.5,-107 18.5,-77 178.5,-77 178.5,-107"/>
<text text-anchor="start" x="26.5" y="-95" font-family="Helvetica,sans-Serif" font-size="10.00">com.teragrep.pth_06.planner.</text>
<text text-anchor="middle" x="98.5" y="-84" font-family="Helvetica,sans-Serif" font-size="10.00">ArchiveQuery</text>
</a>
</g>
</g>
<!-- Node2&#45;&gt;Node1 -->
<g id="edge1_Node000001_Node000002" class="edge">
<title>Node2&#45;&gt;Node1</title>
<g id="a_edge1_Node000001_Node000002"><a xlink:title=" ">
<path fill="none" stroke="#63b8ff" d="M96.7,-66.45C96.44,-60.42 96.31,-53.98 96.5,-48 96.68,-42.1 97.06,-35.6 97.43,-30.01"/>
<polygon fill="#63b8ff" stroke="#63b8ff" points="93.22,-66.88 97.28,-76.67 100.21,-66.49 93.22,-66.88"/>
</a>
</g>
</g>
<!-- Node2&#45;&gt;Node1 -->
<g id="edge2_Node000001_Node000002" class="edge">
<title>Node2&#45;&gt;Node1</title>
<g id="a_edge2_Node000001_Node000002"><a xlink:title=" ">
<path fill="none" stroke="#9a32cd" stroke-dasharray="5,2" d="M98.5,-66.54C98.5,-54.45 98.5,-40.29 98.5,-30.04"/>
<polygon fill="#9a32cd" stroke="#9a32cd" points="95,-66.89 98.5,-76.89 102,-66.89 95,-66.89"/>
</a>
</g>
<text text-anchor="middle" x="133" y="-51" font-family="Helvetica,sans-Serif" font-size="10.00" fill="grey"> archiveQuery</text>
</g>
</g>
</svg>
