<?xml version="1.0" encoding="UTF-8" standalone="no"?>
<!DOCTYPE svg PUBLIC "-//W3C//DTD SVG 1.1//EN"
 "http://www.w3.org/Graphics/SVG/1.1/DTD/svg11.dtd">
<!-- Generated by graphviz version 2.43.0 (0)
 -->
<!-- Title: com.teragrep.pth_06.planner.walker.conditions.IndexStatementCondition.requiredTables Pages: 1 -->
<svg width="564pt" height="182pt"
 viewBox="0.00 0.00 564.00 182.00" xmlns="http://www.w3.org/2000/svg" xmlns:xlink="http://www.w3.org/1999/xlink">
<g id="graph0" class="graph" transform="scale(1 1) rotate(0) translate(4 178)">
<title>com.teragrep.pth_06.planner.walker.conditions.IndexStatementCondition.requiredTables</title>
<!-- Node1 -->
<g id="Node000001" class="node">
<title>Node1</title>
<g id="a_Node000001"><a xlink:title=" ">
<polygon fill="#999999" stroke="#666666" points="556,-102 308,-102 308,-72 556,-72 556,-102"/>
<text text-anchor="start" x="316" y="-90" font-family="Helvetica,sans-Serif" font-size="10.00">com.teragrep.pth_06.planner.walker.conditions.</text>
<text text-anchor="middle" x="432" y="-79" font-family="Helvetica,sans-Serif" font-size="10.00">IndexStatementCondition.requiredTables</text>
</a>
</g>
</g>
<!-- Node2 -->
<g id="Node000002" class="node">
<title>Node2</title>
<g id="a_Node000002"><a xlink:href="classcom_1_1teragrep_1_1pth__06_1_1planner_1_1walker_1_1conditions_1_1IndexStatementConditionTest.html#aee8f642495a3c26dce06361c3e44056b" target="_top" xlink:title=" ">
<polygon fill="white" stroke="#666666" points="260,-174 12,-174 12,-144 260,-144 260,-174"/>
<text text-anchor="start" x="20" y="-162" font-family="Helvetica,sans-Serif" font-size="10.00">com.teragrep.pth_06.planner.walker.conditions.</text>
<text text-anchor="middle" x="136" y="-151" font-family="Helvetica,sans-Serif" font-size="10.00">IndexStatementConditionTest.noMatchesTest</text>
</a>
</g>
</g>
<!-- Node1&#45;&gt;Node2 -->
<g id="edge1_Node000001_Node000002" class="edge">
<title>Node1&#45;&gt;Node2</title>
<g id="a_edge1_Node000001_Node000002"><a xlink:title=" ">
<path fill="none" stroke="#63b8ff" d="M376.56,-105.16C346.05,-114.9 307.18,-126.59 272,-135 258.46,-138.24 244.05,-141.25 229.89,-143.97"/>
<polygon fill="#63b8ff" stroke="#63b8ff" points="377.7,-108.47 386.15,-102.08 375.56,-101.81 377.7,-108.47"/>
</a>
</g>
</g>
<!-- Node3 -->
<g id="Node000003" class="node">
<title>Node3</title>
<g id="a_Node000003"><a xlink:href="classcom_1_1teragrep_1_1pth__06_1_1planner_1_1walker_1_1conditions_1_1IndexStatementConditionTest.html#a69de61f785b7a9fafee36855f7394932" target="_top" xlink:title=" ">
<polygon fill="white" stroke="#666666" points="272,-126 0,-126 0,-96 272,-96 272,-126"/>
<text text-anchor="start" x="8" y="-114" font-family="Helvetica,sans-Serif" font-size="10.00">com.teragrep.pth_06.planner.walker.conditions.</text>
<text text-anchor="middle" x="136" y="-103" font-family="Helvetica,sans-Serif" font-size="10.00">IndexStatementConditionTest.oneMatchingTableTest</text>
</a>
</g>
</g>
<!-- Node1&#45;&gt;Node3 -->
<g id="edge2_Node000001_Node000003" class="edge">
<title>Node1&#45;&gt;Node3</title>
<g id="a_edge2_Node000001_Node000003"><a xlink:title=" ">
<path fill="none" stroke="#63b8ff" d="M297.47,-97.9C289.14,-98.58 280.75,-99.27 272.4,-99.95"/>
<polygon fill="#63b8ff" stroke="#63b8ff" points="297.91,-101.38 307.6,-97.07 297.34,-94.4 297.91,-101.38"/>
</a>
</g>
</g>
<!-- Node4 -->
<g id="Node000004" class="node">
<title>Node4</title>
<g id="a_Node000004"><a xlink:href="classcom_1_1teragrep_1_1pth__06_1_1planner_1_1walker_1_1conditions_1_1ElementCondition.html#a39e39896a78174cc458ec2266e6f1ddc" target="_top" xlink:title="A set of tables needed to be joined to the query to use this condition.">
<polygon fill="white" stroke="#666666" points="260,-78 12,-78 12,-48 260,-48 260,-78"/>
<text text-anchor="start" x="20" y="-66" font-family="Helvetica,sans-Serif" font-size="10.00">com.teragrep.pth_06.planner.walker.conditions.</text>
<text text-anchor="middle" x="136" y="-55" font-family="Helvetica,sans-Serif" font-size="10.00">ElementCondition.requiredTables</text>
</a>
</g>
</g>
<!-- Node1&#45;&gt;Node4 -->
<g id="edge3_Node000001_Node000004" class="edge">
<title>Node1&#45;&gt;Node4</title>
<g id="a_edge3_Node000001_Node000004"><a xlink:title=" ">
<path fill="none" stroke="#63b8ff" d="M297.61,-76.11C285.11,-75.09 272.48,-74.06 260.09,-73.05"/>
<polygon fill="#63b8ff" stroke="#63b8ff" points="297.34,-79.6 307.6,-76.93 297.91,-72.62 297.34,-79.6"/>
</a>
</g>
</g>
<!-- Node5 -->
<g id="Node000005" class="node">
<title>Node5</title>
<g id="a_Node000005"><a xlink:href="classcom_1_1teragrep_1_1pth__06_1_1planner_1_1walker_1_1conditions_1_1IndexStatementConditionTest.html#affd12bbea6998863dc96bc4bdd7ab74f" target="_top" xlink:title=" ">
<polygon fill="white" stroke="#666666" points="272,-30 0,-30 0,0 272,0 272,-30"/>
<text text-anchor="start" x="8" y="-18" font-family="Helvetica,sans-Serif" font-size="10.00">com.teragrep.pth_06.planner.walker.conditions.</text>
<text text-anchor="middle" x="136" y="-7" font-family="Helvetica,sans-Serif" font-size="10.00">IndexStatementConditionTest.twoMatchingTableTest</text>
</a>
</g>
</g>
<!-- Node1&#45;&gt;Node5 -->
<g id="edge4_Node000001_Node000005" class="edge">
<title>Node1&#45;&gt;Node5</title>
<g id="a_edge4_Node000001_Node000005"><a xlink:title=" ">
<path fill="none" stroke="#63b8ff" d="M376.56,-68.84C346.05,-59.1 307.18,-47.41 272,-39 258.46,-35.76 244.05,-32.75 229.89,-30.03"/>
<polygon fill="#63b8ff" stroke="#63b8ff" points="375.56,-72.19 386.15,-71.92 377.7,-65.53 375.56,-72.19"/>
</a>
</g>
</g>
</g>
</svg>
