<?xml version="1.0" encoding="UTF-8" standalone="no"?>
<!DOCTYPE svg PUBLIC "-//W3C//DTD SVG 1.1//EN"
 "http://www.w3.org/Graphics/SVG/1.1/DTD/svg11.dtd">
<!-- Generated by graphviz version 2.43.0 (0)
 -->
<!-- Title: com.teragrep.pth_06.jooq.generated.journaldb.tables.records.LogfileRecord Pages: 1 -->
<svg width="571pt" height="130pt"
 viewBox="0.00 0.00 571.00 130.00" xmlns="http://www.w3.org/2000/svg" xmlns:xlink="http://www.w3.org/1999/xlink">
<g id="graph0" class="graph" transform="scale(1 1) rotate(0) translate(4 126)">
<title>com.teragrep.pth_06.jooq.generated.journaldb.tables.records.LogfileRecord</title>
<!-- Node1 -->
<g id="Node000001" class="node">
<title>Node1</title>
<g id="a_Node000001"><a xlink:title="Contains information for log files that have been run through Log Archiver.">
<polygon fill="#999999" stroke="#666666" points="563,-87 245,-87 245,-57 563,-57 563,-87"/>
<text text-anchor="start" x="253" y="-75" font-family="Helvetica,sans-Serif" font-size="10.00">com.teragrep.pth_06.jooq.generated.journaldb.tables.records.</text>
<text text-anchor="middle" x="404" y="-64" font-family="Helvetica,sans-Serif" font-size="10.00">LogfileRecord</text>
</a>
</g>
</g>
<!-- Node2 -->
<g id="Node000002" class="node">
<title>Node2</title>
<g id="a_Node000002"><a xlink:title=" ">
<polygon fill="white" stroke="#666666" points="165.5,-122 43.5,-122 43.5,-92 165.5,-92 165.5,-122"/>
<text text-anchor="start" x="51.5" y="-110" font-family="Helvetica,sans-Serif" font-size="10.00">UpdatableRecordImpl</text>
<text text-anchor="middle" x="104.5" y="-99" font-family="Helvetica,sans-Serif" font-size="10.00">&lt; LogfileRecord &gt;</text>
</a>
</g>
</g>
<!-- Node2&#45;&gt;Node1 -->
<g id="edge1_Node000001_Node000002" class="edge">
<title>Node2&#45;&gt;Node1</title>
<g id="a_edge1_Node000001_Node000002"><a xlink:title=" ">
<path fill="none" stroke="#63b8ff" d="M175.96,-98.71C205.69,-95.21 241.25,-91.03 275.31,-87.02"/>
<polygon fill="#63b8ff" stroke="#63b8ff" points="175.23,-95.27 165.7,-99.92 176.04,-102.22 175.23,-95.27"/>
</a>
</g>
</g>
<!-- Node3 -->
<g id="Node000003" class="node">
<title>Node3</title>
<g id="a_Node000003"><a xlink:title=" ">
<polygon fill="white" stroke="#666666" points="209,-74 0,-74 0,0 209,0 209,-74"/>
<text text-anchor="start" x="8" y="-62" font-family="Helvetica,sans-Serif" font-size="10.00">Record20&lt; ULong, Date,</text>
<text text-anchor="start" x="8" y="-51" font-family="Helvetica,sans-Serif" font-size="10.00"> Date, UShort, String,</text>
<text text-anchor="start" x="8" y="-40" font-family="Helvetica,sans-Serif" font-size="10.00"> String, UShort, String,</text>
<text text-anchor="start" x="8" y="-29" font-family="Helvetica,sans-Serif" font-size="10.00"> Timestamp, ULong, String,</text>
<text text-anchor="start" x="8" y="-18" font-family="Helvetica,sans-Serif" font-size="10.00"> String, String, UShort, UShort,</text>
<text text-anchor="middle" x="104.5" y="-7" font-family="Helvetica,sans-Serif" font-size="10.00"> ULong, ULong, ULong, ULong, ULong &gt;</text>
</a>
</g>
</g>
<!-- Node3&#45;&gt;Node1 -->
<g id="edge2_Node000001_Node000003" class="edge">
<title>Node3&#45;&gt;Node1</title>
<g id="a_edge2_Node000001_Node000003"><a xlink:title=" ">
<path fill="none" stroke="#63b8ff" d="M219.25,-50.38C237.61,-52.54 256.72,-54.79 275.39,-56.99"/>
<polygon fill="#63b8ff" stroke="#63b8ff" points="219.47,-46.88 209.13,-49.19 218.66,-53.84 219.47,-46.88"/>
</a>
</g>
</g>
</g>
</svg>
