<?xml version="1.0" encoding="UTF-8" standalone="no"?>
<!DOCTYPE svg PUBLIC "-//W3C//DTD SVG 1.1//EN"
 "http://www.w3.org/Graphics/SVG/1.1/DTD/svg11.dtd">
<!-- Generated by graphviz version 2.43.0 (0)
 -->
<!-- Title: com.teragrep.pth_06.planner.ArchiveQueryProcessor.currentDatabaseMetrics Pages: 1 -->
<svg width="890pt" height="49pt"
 viewBox="0.00 0.00 890.00 49.00" xmlns="http://www.w3.org/2000/svg" xmlns:xlink="http://www.w3.org/1999/xlink">
<g id="graph0" class="graph" transform="scale(1 1) rotate(0) translate(4 45)">
<title>com.teragrep.pth_06.planner.ArchiveQueryProcessor.currentDatabaseMetrics</title>
<!-- Node1 -->
<g id="Node000001" class="node">
<title>Node1</title>
<g id="a_Node000001"><a xlink:title=" ">
<polygon fill="#999999" stroke="#666666" points="213,-41 0,-41 0,0 213,0 213,-41"/>
<text text-anchor="start" x="8" y="-29" font-family="Helvetica,sans-Serif" font-size="10.00">com.teragrep.pth_06.planner.</text>
<text text-anchor="start" x="8" y="-18" font-family="Helvetica,sans-Serif" font-size="10.00">ArchiveQueryProcessor.currentDatabase</text>
<text text-anchor="middle" x="106.5" y="-7" font-family="Helvetica,sans-Serif" font-size="10.00">Metrics</text>
</a>
</g>
</g>
<!-- Node2 -->
<g id="Node000002" class="node">
<title>Node2</title>
<g id="a_Node000002"><a xlink:href="classcom_1_1teragrep_1_1pth__06_1_1planner_1_1StreamDBClient.html#a94bfcc395eb96d3c4ed2363f7cea991d" target="_top" xlink:title=" ">
<polygon fill="white" stroke="#666666" points="464,-35.5 249,-35.5 249,-5.5 464,-5.5 464,-35.5"/>
<text text-anchor="start" x="257" y="-23.5" font-family="Helvetica,sans-Serif" font-size="10.00">com.teragrep.pth_06.planner.</text>
<text text-anchor="middle" x="356.5" y="-12.5" font-family="Helvetica,sans-Serif" font-size="10.00">StreamDBClient.currentDatabaseMetrics</text>
</a>
</g>
</g>
<!-- Node1&#45;&gt;Node2 -->
<g id="edge1_Node000001_Node000002" class="edge">
<title>Node1&#45;&gt;Node2</title>
<g id="a_edge1_Node000001_Node000002"><a xlink:title=" ">
<path fill="none" stroke="#63b8ff" d="M213.03,-20.5C221.56,-20.5 230.21,-20.5 238.81,-20.5"/>
<polygon fill="#63b8ff" stroke="#63b8ff" points="238.87,-24 248.87,-20.5 238.87,-17 238.87,-24"/>
</a>
</g>
</g>
<!-- Node3 -->
<g id="Node000003" class="node">
<title>Node3</title>
<g id="a_Node000003"><a xlink:href="classcom_1_1teragrep_1_1pth__06_1_1ConfiguredLogger.html#a432bade7d6310bed1e1b9a405fb53d56" target="_top" xlink:title=" ">
<polygon fill="white" stroke="#666666" points="673,-35.5 500,-35.5 500,-5.5 673,-5.5 673,-35.5"/>
<text text-anchor="start" x="508" y="-23.5" font-family="Helvetica,sans-Serif" font-size="10.00">com.teragrep.pth_06.Configured</text>
<text text-anchor="middle" x="586.5" y="-12.5" font-family="Helvetica,sans-Serif" font-size="10.00">Logger.debug</text>
</a>
</g>
</g>
<!-- Node2&#45;&gt;Node3 -->
<g id="edge2_Node000002_Node000003" class="edge">
<title>Node2&#45;&gt;Node3</title>
<g id="a_edge2_Node000002_Node000003"><a xlink:title=" ">
<path fill="none" stroke="#63b8ff" d="M464.16,-20.5C472.64,-20.5 481.18,-20.5 489.59,-20.5"/>
<polygon fill="#63b8ff" stroke="#63b8ff" points="489.77,-24 499.77,-20.5 489.77,-17 489.77,-24"/>
</a>
</g>
</g>
<!-- Node4 -->
<g id="Node000004" class="node">
<title>Node4</title>
<g id="a_Node000004"><a xlink:href="classcom_1_1teragrep_1_1pth__06_1_1ConfiguredLogger.html#adbd659cefc990abe9b2da58d3dae9970" target="_top" xlink:title=" ">
<polygon fill="white" stroke="#666666" points="882,-35.5 709,-35.5 709,-5.5 882,-5.5 882,-35.5"/>
<text text-anchor="start" x="717" y="-23.5" font-family="Helvetica,sans-Serif" font-size="10.00">com.teragrep.pth_06.Configured</text>
<text text-anchor="middle" x="795.5" y="-12.5" font-family="Helvetica,sans-Serif" font-size="10.00">Logger.info</text>
</a>
</g>
</g>
<!-- Node3&#45;&gt;Node4 -->
<g id="edge3_Node000003_Node000004" class="edge">
<title>Node3&#45;&gt;Node4</title>
<g id="a_edge3_Node000003_Node000004"><a xlink:title=" ">
<path fill="none" stroke="#63b8ff" d="M673.19,-20.5C681.66,-20.5 690.3,-20.5 698.87,-20.5"/>
<polygon fill="#63b8ff" stroke="#63b8ff" points="698.88,-24 708.88,-20.5 698.88,-17 698.88,-24"/>
</a>
</g>
</g>
</g>
</svg>
