<?xml version="1.0" encoding="UTF-8" standalone="no"?>
<!DOCTYPE svg PUBLIC "-//W3C//DTD SVG 1.1//EN"
 "http://www.w3.org/Graphics/SVG/1.1/DTD/svg11.dtd">
<!-- Generated by graphviz version 2.43.0 (0)
 -->
<!-- Title: com.teragrep.pth_06.planner.offset.DatasourceOffset Pages: 1 -->
<svg width="284pt" height="248pt"
 viewBox="0.00 0.00 283.57 248.00" xmlns="http://www.w3.org/2000/svg" xmlns:xlink="http://www.w3.org/1999/xlink">
<g id="graph0" class="graph" transform="scale(1 1) rotate(0) translate(4 244)">
<title>com.teragrep.pth_06.planner.offset.DatasourceOffset</title>
<!-- Node1 -->
<g id="Node000001" class="node">
<title>Node1</title>
<g id="a_Node000001"><a xlink:title=" ">
<polygon fill="#999999" stroke="#666666" points="213.2,-30 22.2,-30 22.2,0 213.2,0 213.2,-30"/>
<text text-anchor="start" x="30.2" y="-18" font-family="Helvetica,sans-Serif" font-size="10.00">com.teragrep.pth_06.planner.offset.</text>
<text text-anchor="middle" x="117.7" y="-7" font-family="Helvetica,sans-Serif" font-size="10.00">DatasourceOffset</text>
</a>
</g>
</g>
<!-- Node2 -->
<g id="Node000002" class="node">
<title>Node2</title>
<g id="a_Node000002"><a xlink:title=" ">
<polygon fill="white" stroke="#666666" points="70.7,-240 24.7,-240 24.7,-221 70.7,-221 70.7,-240"/>
<text text-anchor="middle" x="47.7" y="-228" font-family="Helvetica,sans-Serif" font-size="10.00">Offset</text>
</a>
</g>
</g>
<!-- Node2&#45;&gt;Node1 -->
<g id="edge1_Node000001_Node000002" class="edge">
<title>Node2&#45;&gt;Node1</title>
<g id="a_edge1_Node000001_Node000002"><a xlink:title=" ">
<path fill="none" stroke="#63b8ff" d="M27.8,-214.46C18.94,-206.5 9.44,-195.91 4.7,-184 -4.33,-161.28 1.43,-94.44 12.7,-77 27.07,-54.78 52.59,-39.69 74.87,-30.07"/>
<polygon fill="#63b8ff" stroke="#63b8ff" points="25.7,-217.26 35.61,-220.99 30.19,-211.89 25.7,-217.26"/>
</a>
</g>
</g>
<!-- Node5 -->
<g id="Node000005" class="node">
<title>Node5</title>
<g id="a_Node000005"><a xlink:href="classcom_1_1teragrep_1_1pth__06_1_1planner_1_1offset_1_1KafkaOffset.html" target="_top" xlink:title=" ">
<polygon fill="white" stroke="#666666" points="205.2,-184 14.2,-184 14.2,-154 205.2,-154 205.2,-184"/>
<text text-anchor="start" x="22.2" y="-172" font-family="Helvetica,sans-Serif" font-size="10.00">com.teragrep.pth_06.planner.offset.</text>
<text text-anchor="middle" x="109.7" y="-161" font-family="Helvetica,sans-Serif" font-size="10.00">KafkaOffset</text>
</a>
</g>
</g>
<!-- Node2&#45;&gt;Node5 -->
<g id="edge6_Node000005_Node000002" class="edge">
<title>Node2&#45;&gt;Node5</title>
<g id="a_edge6_Node000005_Node000002"><a xlink:title=" ">
<path fill="none" stroke="#63b8ff" d="M63.99,-213.87C73.64,-204.61 85.76,-192.98 95.09,-184.02"/>
<polygon fill="#63b8ff" stroke="#63b8ff" points="61.38,-211.53 56.59,-220.98 66.23,-216.58 61.38,-211.53"/>
</a>
</g>
</g>
<!-- Node3 -->
<g id="Node000003" class="node">
<title>Node3</title>
<g id="a_Node000003"><a xlink:title=" ">
<polygon fill="white" stroke="#666666" points="270.7,-240 196.7,-240 196.7,-221 270.7,-221 270.7,-240"/>
<text text-anchor="middle" x="233.7" y="-228" font-family="Helvetica,sans-Serif" font-size="10.00">Serializable</text>
</a>
</g>
</g>
<!-- Node3&#45;&gt;Node1 -->
<g id="edge2_Node000001_Node000003" class="edge">
<title>Node3&#45;&gt;Node1</title>
<g id="a_edge2_Node000001_Node000003"><a xlink:title=" ">
<path fill="none" stroke="#63b8ff" d="M243.79,-211.63C262.27,-176.22 296.3,-96.41 257.7,-48 251.18,-39.81 233.86,-33.55 213.54,-28.84"/>
<polygon fill="#63b8ff" stroke="#63b8ff" points="240.54,-210.28 238.85,-220.74 246.69,-213.61 240.54,-210.28"/>
</a>
</g>
</g>
<!-- Node4 -->
<g id="Node000004" class="node">
<title>Node4</title>
<g id="a_Node000004"><a xlink:href="classcom_1_1teragrep_1_1pth__06_1_1planner_1_1offset_1_1SerializedDatasourceOffset.html" target="_top" xlink:title=" ">
<polygon fill="white" stroke="#666666" points="213.2,-107 22.2,-107 22.2,-77 213.2,-77 213.2,-107"/>
<text text-anchor="start" x="30.2" y="-95" font-family="Helvetica,sans-Serif" font-size="10.00">com.teragrep.pth_06.planner.offset.</text>
<text text-anchor="middle" x="117.7" y="-84" font-family="Helvetica,sans-Serif" font-size="10.00">SerializedDatasourceOffset</text>
</a>
</g>
</g>
<!-- Node3&#45;&gt;Node4 -->
<g id="edge4_Node000004_Node000003" class="edge">
<title>Node3&#45;&gt;Node4</title>
<g id="a_edge4_Node000004_Node000003"><a xlink:title=" ">
<path fill="none" stroke="#63b8ff" d="M232.42,-210.51C230.54,-194.33 225.96,-171.07 214.7,-154 200.47,-132.41 175.68,-117.01 154.72,-107.09"/>
<polygon fill="#63b8ff" stroke="#63b8ff" points="228.96,-211.2 233.35,-220.84 235.94,-210.56 228.96,-211.2"/>
</a>
</g>
</g>
<!-- Node3&#45;&gt;Node5 -->
<g id="edge7_Node000005_Node000003" class="edge">
<title>Node3&#45;&gt;Node5</title>
<g id="a_edge7_Node000005_Node000003"><a xlink:title=" ">
<path fill="none" stroke="#63b8ff" d="M206.76,-216.57C186.74,-206.97 159.47,-193.88 138.93,-184.02"/>
<polygon fill="#63b8ff" stroke="#63b8ff" points="205.41,-219.8 215.94,-220.98 208.44,-213.49 205.41,-219.8"/>
</a>
</g>
</g>
<!-- Node4&#45;&gt;Node1 -->
<g id="edge3_Node000001_Node000004" class="edge">
<title>Node4&#45;&gt;Node1</title>
<g id="a_edge3_Node000001_Node000004"><a xlink:title=" ">
<path fill="none" stroke="#9a32cd" stroke-dasharray="5,2" d="M117.7,-66.54C117.7,-54.45 117.7,-40.29 117.7,-30.04"/>
<polygon fill="#9a32cd" stroke="#9a32cd" points="114.2,-66.89 117.7,-76.89 121.2,-66.89 114.2,-66.89"/>
</a>
</g>
<text text-anchor="middle" x="185.7" y="-51" font-family="Helvetica,sans-Serif" font-size="10.00" fill="grey"> serializedDatasourceOffset</text>
</g>
<!-- Node5&#45;&gt;Node4 -->
<g id="edge5_Node000004_Node000005" class="edge">
<title>Node5&#45;&gt;Node4</title>
<g id="a_edge5_Node000004_Node000005"><a xlink:title=" ">
<path fill="none" stroke="#9a32cd" stroke-dasharray="5,2" d="M112.27,-143.91C113.57,-131.74 115.1,-117.4 116.21,-107.04"/>
<polygon fill="#9a32cd" stroke="#9a32cd" points="108.79,-143.58 111.21,-153.89 115.75,-144.32 108.79,-143.58"/>
</a>
</g>
<text text-anchor="middle" x="143.2" y="-128" font-family="Helvetica,sans-Serif" font-size="10.00" fill="grey"> kafkaOffset</text>
</g>
</g>
</svg>
