<?xml version="1.0" encoding="UTF-8" standalone="no"?>
<!DOCTYPE svg PUBLIC "-//W3C//DTD SVG 1.1//EN"
 "http://www.w3.org/Graphics/SVG/1.1/DTD/svg11.dtd">
<!-- Generated by graphviz version 2.43.0 (0)
 -->
<!-- Title: com.teragrep.pth_06.planner.RecordableMockDBRow.asRecord Pages: 1 -->
<svg width="412pt" height="518pt"
 viewBox="0.00 0.00 412.00 518.00" xmlns="http://www.w3.org/2000/svg" xmlns:xlink="http://www.w3.org/1999/xlink">
<g id="graph0" class="graph" transform="scale(1 1) rotate(0) translate(4 514)">
<title>com.teragrep.pth_06.planner.RecordableMockDBRow.asRecord</title>
<!-- Node1 -->
<g id="Node000001" class="node">
<title>Node1</title>
<g id="a_Node000001"><a xlink:title=" ">
<polygon fill="#999999" stroke="#666666" points="180,-270 0,-270 0,-240 180,-240 180,-270"/>
<text text-anchor="start" x="8" y="-258" font-family="Helvetica,sans-Serif" font-size="10.00">com.teragrep.pth_06.planner.</text>
<text text-anchor="middle" x="90" y="-247" font-family="Helvetica,sans-Serif" font-size="10.00">RecordableMockDBRow.asRecord</text>
</a>
</g>
</g>
<!-- Node2 -->
<g id="Node000002" class="node">
<title>Node2</title>
<g id="a_Node000002"><a xlink:href="interfacecom_1_1teragrep_1_1pth__06_1_1planner_1_1MockDBRow.html#ad44471477954593511cbdb304a0ded76" target="_top" xlink:title=" ">
<polygon fill="white" stroke="#666666" points="390,-510 230,-510 230,-480 390,-480 390,-510"/>
<text text-anchor="start" x="238" y="-498" font-family="Helvetica,sans-Serif" font-size="10.00">com.teragrep.pth_06.planner.</text>
<text text-anchor="middle" x="310" y="-487" font-family="Helvetica,sans-Serif" font-size="10.00">MockDBRow.bucket</text>
</a>
</g>
</g>
<!-- Node1&#45;&gt;Node2 -->
<g id="edge1_Node000001_Node000002" class="edge">
<title>Node1&#45;&gt;Node2</title>
<g id="a_edge1_Node000001_Node000002"><a xlink:title=" ">
<path fill="none" stroke="#63b8ff" d="M95.22,-270.04C107.11,-309.53 144.74,-416.9 216,-471 217.83,-472.39 219.74,-473.71 221.71,-474.94"/>
<polygon fill="#63b8ff" stroke="#63b8ff" points="220.23,-478.12 230.67,-479.89 223.61,-471.99 220.23,-478.12"/>
</a>
</g>
</g>
<!-- Node3 -->
<g id="Node000003" class="node">
<title>Node3</title>
<g id="a_Node000003"><a xlink:href="interfacecom_1_1teragrep_1_1pth__06_1_1planner_1_1MockDBRow.html#a72b0def5bf253cb3babc246462187ead" target="_top" xlink:title=" ">
<polygon fill="white" stroke="#666666" points="390,-462 230,-462 230,-432 390,-432 390,-462"/>
<text text-anchor="start" x="238" y="-450" font-family="Helvetica,sans-Serif" font-size="10.00">com.teragrep.pth_06.planner.</text>
<text text-anchor="middle" x="310" y="-439" font-family="Helvetica,sans-Serif" font-size="10.00">MockDBRow.directory</text>
</a>
</g>
</g>
<!-- Node1&#45;&gt;Node3 -->
<g id="edge2_Node000001_Node000003" class="edge">
<title>Node1&#45;&gt;Node3</title>
<g id="a_edge2_Node000001_Node000003"><a xlink:title=" ">
<path fill="none" stroke="#63b8ff" d="M97.78,-270.02C113.52,-303.11 155.81,-382.54 216,-423 218.4,-424.61 220.9,-426.12 223.48,-427.52"/>
<polygon fill="#63b8ff" stroke="#63b8ff" points="221.98,-430.69 232.51,-431.92 225.05,-424.39 221.98,-430.69"/>
</a>
</g>
</g>
<!-- Node4 -->
<g id="Node000004" class="node">
<title>Node4</title>
<g id="a_Node000004"><a xlink:href="interfacecom_1_1teragrep_1_1pth__06_1_1planner_1_1MockDBRow.html#a74ca25ad9ccc26eca93b3a20d359bd4a" target="_top" xlink:title=" ">
<polygon fill="white" stroke="#666666" points="390,-414 230,-414 230,-384 390,-384 390,-414"/>
<text text-anchor="start" x="238" y="-402" font-family="Helvetica,sans-Serif" font-size="10.00">com.teragrep.pth_06.planner.</text>
<text text-anchor="middle" x="310" y="-391" font-family="Helvetica,sans-Serif" font-size="10.00">MockDBRow.filesize</text>
</a>
</g>
</g>
<!-- Node1&#45;&gt;Node4 -->
<g id="edge3_Node000001_Node000004" class="edge">
<title>Node1&#45;&gt;Node4</title>
<g id="a_edge3_Node000001_Node000004"><a xlink:title=" ">
<path fill="none" stroke="#63b8ff" d="M102.32,-270.07C122.35,-295.65 166.61,-347.45 216,-375 219.25,-376.81 222.64,-378.49 226.12,-380.05"/>
<polygon fill="#63b8ff" stroke="#63b8ff" points="224.93,-383.34 235.51,-383.88 227.57,-376.86 224.93,-383.34"/>
</a>
</g>
</g>
<!-- Node5 -->
<g id="Node000005" class="node">
<title>Node5</title>
<g id="a_Node000005"><a xlink:href="interfacecom_1_1teragrep_1_1pth__06_1_1planner_1_1MockDBRow.html#aa8ad21bb5a8f9b0594938f79c167ea8a" target="_top" xlink:title=" ">
<polygon fill="white" stroke="#666666" points="390,-366 230,-366 230,-336 390,-336 390,-366"/>
<text text-anchor="start" x="238" y="-354" font-family="Helvetica,sans-Serif" font-size="10.00">com.teragrep.pth_06.planner.</text>
<text text-anchor="middle" x="310" y="-343" font-family="Helvetica,sans-Serif" font-size="10.00">MockDBRow.host</text>
</a>
</g>
</g>
<!-- Node1&#45;&gt;Node5 -->
<g id="edge4_Node000001_Node000005" class="edge">
<title>Node1&#45;&gt;Node5</title>
<g id="a_edge4_Node000001_Node000005"><a xlink:title=" ">
<path fill="none" stroke="#63b8ff" d="M113.09,-270.2C137.37,-286.29 177.97,-311.48 216,-327 221.11,-329.09 226.46,-331.04 231.9,-332.85"/>
<polygon fill="#63b8ff" stroke="#63b8ff" points="231.15,-336.28 241.74,-335.96 233.26,-329.61 231.15,-336.28"/>
</a>
</g>
</g>
<!-- Node6 -->
<g id="Node000006" class="node">
<title>Node6</title>
<g id="a_Node000006"><a xlink:href="interfacecom_1_1teragrep_1_1pth__06_1_1planner_1_1MockDBRow.html#a0774864816bfa4ed24d7037daa10b3b2" target="_top" xlink:title=" ">
<polygon fill="white" stroke="#666666" points="390,-318 230,-318 230,-288 390,-288 390,-318"/>
<text text-anchor="start" x="238" y="-306" font-family="Helvetica,sans-Serif" font-size="10.00">com.teragrep.pth_06.planner.</text>
<text text-anchor="middle" x="310" y="-295" font-family="Helvetica,sans-Serif" font-size="10.00">MockDBRow.id</text>
</a>
</g>
</g>
<!-- Node1&#45;&gt;Node6 -->
<g id="edge5_Node000001_Node000006" class="edge">
<title>Node1&#45;&gt;Node6</title>
<g id="a_edge5_Node000001_Node000006"><a xlink:title=" ">
<path fill="none" stroke="#63b8ff" d="M159.38,-270.06C182.1,-275.06 207.58,-280.67 230.98,-285.82"/>
<polygon fill="#63b8ff" stroke="#63b8ff" points="230.35,-289.27 240.86,-288 231.85,-282.43 230.35,-289.27"/>
</a>
</g>
</g>
<!-- Node7 -->
<g id="Node000007" class="node">
<title>Node7</title>
<g id="a_Node000007"><a xlink:href="interfacecom_1_1teragrep_1_1pth__06_1_1planner_1_1MockDBRow.html#ad6525054bcae052f479a03b2e4ca3bf7" target="_top" xlink:title=" ">
<polygon fill="white" stroke="#666666" points="390,-270 230,-270 230,-240 390,-240 390,-270"/>
<text text-anchor="start" x="238" y="-258" font-family="Helvetica,sans-Serif" font-size="10.00">com.teragrep.pth_06.planner.</text>
<text text-anchor="middle" x="310" y="-247" font-family="Helvetica,sans-Serif" font-size="10.00">MockDBRow.logdate</text>
</a>
</g>
</g>
<!-- Node1&#45;&gt;Node7 -->
<g id="edge6_Node000001_Node000007" class="edge">
<title>Node1&#45;&gt;Node7</title>
<g id="a_edge6_Node000001_Node000007"><a xlink:title=" ">
<path fill="none" stroke="#63b8ff" d="M180.3,-255C193.29,-255 206.66,-255 219.65,-255"/>
<polygon fill="#63b8ff" stroke="#63b8ff" points="219.97,-258.5 229.97,-255 219.97,-251.5 219.97,-258.5"/>
</a>
</g>
</g>
<!-- Node8 -->
<g id="Node000008" class="node">
<title>Node8</title>
<g id="a_Node000008"><a xlink:href="interfacecom_1_1teragrep_1_1pth__06_1_1planner_1_1MockDBRow.html#afc6e92c8736a723c8e3c6673593b63c6" target="_top" xlink:title=" ">
<polygon fill="white" stroke="#666666" points="390,-222 230,-222 230,-192 390,-192 390,-222"/>
<text text-anchor="start" x="238" y="-210" font-family="Helvetica,sans-Serif" font-size="10.00">com.teragrep.pth_06.planner.</text>
<text text-anchor="middle" x="310" y="-199" font-family="Helvetica,sans-Serif" font-size="10.00">MockDBRow.logtag</text>
</a>
</g>
</g>
<!-- Node1&#45;&gt;Node8 -->
<g id="edge7_Node000001_Node000008" class="edge">
<title>Node1&#45;&gt;Node8</title>
<g id="a_edge7_Node000001_Node000008"><a xlink:title=" ">
<path fill="none" stroke="#63b8ff" d="M159.38,-239.94C182.1,-234.94 207.58,-229.33 230.98,-224.18"/>
<polygon fill="#63b8ff" stroke="#63b8ff" points="231.85,-227.57 240.86,-222 230.35,-220.73 231.85,-227.57"/>
</a>
</g>
</g>
<!-- Node9 -->
<g id="Node000009" class="node">
<title>Node9</title>
<g id="a_Node000009"><a xlink:href="interfacecom_1_1teragrep_1_1pth__06_1_1planner_1_1MockDBRow.html#abbdec5d031093faa980c5b0e86dbaa7e" target="_top" xlink:title=" ">
<polygon fill="white" stroke="#666666" points="390,-174 230,-174 230,-144 390,-144 390,-174"/>
<text text-anchor="start" x="238" y="-162" font-family="Helvetica,sans-Serif" font-size="10.00">com.teragrep.pth_06.planner.</text>
<text text-anchor="middle" x="310" y="-151" font-family="Helvetica,sans-Serif" font-size="10.00">MockDBRow.logtime</text>
</a>
</g>
</g>
<!-- Node1&#45;&gt;Node9 -->
<g id="edge8_Node000001_Node000009" class="edge">
<title>Node1&#45;&gt;Node9</title>
<g id="a_edge8_Node000001_Node000009"><a xlink:title=" ">
<path fill="none" stroke="#63b8ff" d="M113.09,-239.8C137.37,-223.71 177.97,-198.52 216,-183 221.11,-180.91 226.46,-178.96 231.9,-177.15"/>
<polygon fill="#63b8ff" stroke="#63b8ff" points="233.26,-180.39 241.74,-174.04 231.15,-173.72 233.26,-180.39"/>
</a>
</g>
</g>
<!-- Node10 -->
<g id="Node000010" class="node">
<title>Node10</title>
<g id="a_Node000010"><a xlink:href="interfacecom_1_1teragrep_1_1pth__06_1_1planner_1_1MockDBRow.html#ab614cd7a7083bbae02e6cb864d5aea64" target="_top" xlink:title=" ">
<polygon fill="white" stroke="#666666" points="390,-126 230,-126 230,-96 390,-96 390,-126"/>
<text text-anchor="start" x="238" y="-114" font-family="Helvetica,sans-Serif" font-size="10.00">com.teragrep.pth_06.planner.</text>
<text text-anchor="middle" x="310" y="-103" font-family="Helvetica,sans-Serif" font-size="10.00">MockDBRow.path</text>
</a>
</g>
</g>
<!-- Node1&#45;&gt;Node10 -->
<g id="edge9_Node000001_Node000010" class="edge">
<title>Node1&#45;&gt;Node10</title>
<g id="a_edge9_Node000001_Node000010"><a xlink:title=" ">
<path fill="none" stroke="#63b8ff" d="M102.32,-239.93C122.35,-214.35 166.61,-162.55 216,-135 219.25,-133.19 222.64,-131.51 226.12,-129.95"/>
<polygon fill="#63b8ff" stroke="#63b8ff" points="227.57,-133.14 235.51,-126.12 224.93,-126.66 227.57,-133.14"/>
</a>
</g>
</g>
<!-- Node11 -->
<g id="Node000011" class="node">
<title>Node11</title>
<g id="a_Node000011"><a xlink:href="interfacecom_1_1teragrep_1_1pth__06_1_1planner_1_1MockDBRow.html#a092b8e42025da6f3c6ad5ea92a1a273f" target="_top" xlink:title=" ">
<polygon fill="white" stroke="#666666" points="390,-78 230,-78 230,-48 390,-48 390,-78"/>
<text text-anchor="start" x="238" y="-66" font-family="Helvetica,sans-Serif" font-size="10.00">com.teragrep.pth_06.planner.</text>
<text text-anchor="middle" x="310" y="-55" font-family="Helvetica,sans-Serif" font-size="10.00">MockDBRow.stream</text>
</a>
</g>
</g>
<!-- Node1&#45;&gt;Node11 -->
<g id="edge10_Node000001_Node000011" class="edge">
<title>Node1&#45;&gt;Node11</title>
<g id="a_edge10_Node000001_Node000011"><a xlink:title=" ">
<path fill="none" stroke="#63b8ff" d="M97.78,-239.98C113.52,-206.89 155.81,-127.46 216,-87 218.4,-85.39 220.9,-83.88 223.48,-82.48"/>
<polygon fill="#63b8ff" stroke="#63b8ff" points="225.05,-85.61 232.51,-78.08 221.98,-79.31 225.05,-85.61"/>
</a>
</g>
</g>
<!-- Node12 -->
<g id="Node000012" class="node">
<title>Node12</title>
<g id="a_Node000012"><a xlink:href="interfacecom_1_1teragrep_1_1pth__06_1_1planner_1_1MockDBRow.html#a530a3c1472c332aacad872702a077e48" target="_top" xlink:title=" ">
<polygon fill="white" stroke="#666666" points="404,-30 216,-30 216,0 404,0 404,-30"/>
<text text-anchor="start" x="224" y="-18" font-family="Helvetica,sans-Serif" font-size="10.00">com.teragrep.pth_06.planner.</text>
<text text-anchor="middle" x="310" y="-7" font-family="Helvetica,sans-Serif" font-size="10.00">MockDBRow.uncompressedFilesize</text>
</a>
</g>
</g>
<!-- Node1&#45;&gt;Node12 -->
<g id="edge11_Node000001_Node000012" class="edge">
<title>Node1&#45;&gt;Node12</title>
<g id="a_edge11_Node000001_Node000012"><a xlink:title=" ">
<path fill="none" stroke="#63b8ff" d="M95.22,-239.96C107.11,-200.47 144.74,-93.1 216,-39 217.83,-37.61 219.74,-36.29 221.71,-35.06"/>
<polygon fill="#63b8ff" stroke="#63b8ff" points="223.61,-38.01 230.67,-30.11 220.23,-31.88 223.61,-38.01"/>
</a>
</g>
</g>
</g>
</svg>
