<?xml version="1.0" encoding="UTF-8" standalone="no"?>
<!DOCTYPE svg PUBLIC "-//W3C//DTD SVG 1.1//EN"
 "http://www.w3.org/Graphics/SVG/1.1/DTD/svg11.dtd">
<!-- Generated by graphviz version 2.43.0 (0)
 -->
<!-- Title: Graphical Class Hierarchy Pages: 1 -->
<svg width="507pt" height="518pt"
 viewBox="0.00 0.00 507.00 518.00" xmlns="http://www.w3.org/2000/svg" xmlns:xlink="http://www.w3.org/1999/xlink">
<g id="graph0" class="graph" transform="scale(1 1) rotate(0) translate(4 514)">
<title>Graphical Class Hierarchy</title>
<!-- Node0 -->
<g id="Node000000" class="node">
<title>Node0</title>
<g id="a_Node000000"><a xlink:title=" ">
<polygon fill="#e0e0e0" stroke="#999999" points="76,-360.5 0,-360.5 0,-341.5 76,-341.5 76,-360.5"/>
<text text-anchor="middle" x="38" y="-348.5" font-family="Helvetica,sans-Serif" font-size="10.00">Comparable</text>
</a>
</g>
</g>
<!-- Node1 -->
<g id="Node000001" class="node">
<title>Node1</title>
<g id="a_Node000001"><a xlink:href="interfacecom_1_1teragrep_1_1pth__06_1_1planner_1_1MockDBRow.html" target="_top" xlink:title=" ">
<polygon fill="white" stroke="#666666" points="287.5,-462 127.5,-462 127.5,-432 287.5,-432 287.5,-462"/>
<text text-anchor="start" x="135.5" y="-450" font-family="Helvetica,sans-Serif" font-size="10.00">com.teragrep.pth_06.planner.</text>
<text text-anchor="middle" x="207.5" y="-439" font-family="Helvetica,sans-Serif" font-size="10.00">MockDBRow</text>
</a>
</g>
</g>
<!-- Node0&#45;&gt;Node1 -->
<g id="edge44_Node000000_Node000001" class="edge">
<title>Node0&#45;&gt;Node1</title>
<g id="a_edge44_Node000000_Node000001"><a xlink:title=" ">
<path fill="none" stroke="#63b8ff" d="M52.4,-368.83C65.73,-385.32 87.67,-409.27 112,-423 118.04,-426.41 124.58,-429.34 131.29,-431.86"/>
<polygon fill="#63b8ff" stroke="#63b8ff" points="54.84,-366.27 45.92,-360.56 49.33,-370.59 54.84,-366.27"/>
</a>
</g>
</g>
<!-- Node6 -->
<g id="Node000006" class="node">
<title>Node6</title>
<g id="a_Node000006"><a xlink:href="classcom_1_1teragrep_1_1pth__06_1_1scheduler_1_1BatchTaskQueue.html" target="_top" xlink:title=" ">
<polygon fill="white" stroke="#666666" points="292.5,-366 122.5,-366 122.5,-336 292.5,-336 292.5,-366"/>
<text text-anchor="start" x="130.5" y="-354" font-family="Helvetica,sans-Serif" font-size="10.00">com.teragrep.pth_06.scheduler.</text>
<text text-anchor="middle" x="207.5" y="-343" font-family="Helvetica,sans-Serif" font-size="10.00">BatchTaskQueue</text>
</a>
</g>
</g>
<!-- Node0&#45;&gt;Node6 -->
<g id="edge48_Node000000_Node000006" class="edge">
<title>Node0&#45;&gt;Node6</title>
<g id="a_edge48_Node000000_Node000006"><a xlink:title=" ">
<path fill="none" stroke="#63b8ff" d="M86.24,-351C97.57,-351 110.02,-351 122.47,-351"/>
<polygon fill="#63b8ff" stroke="#63b8ff" points="86.17,-347.5 76.17,-351 86.17,-354.5 86.17,-347.5"/>
</a>
</g>
</g>
<!-- Node7 -->
<g id="Node000007" class="node">
<title>Node7</title>
<g id="a_Node000007"><a xlink:href="classcom_1_1teragrep_1_1pth__06_1_1scheduler_1_1BatchUnit.html" target="_top" xlink:title=" ">
<polygon fill="white" stroke="#666666" points="292.5,-318 122.5,-318 122.5,-288 292.5,-288 292.5,-318"/>
<text text-anchor="start" x="130.5" y="-306" font-family="Helvetica,sans-Serif" font-size="10.00">com.teragrep.pth_06.scheduler.</text>
<text text-anchor="middle" x="207.5" y="-295" font-family="Helvetica,sans-Serif" font-size="10.00">BatchUnit</text>
</a>
</g>
</g>
<!-- Node0&#45;&gt;Node7 -->
<g id="edge49_Node000000_Node000007" class="edge">
<title>Node0&#45;&gt;Node7</title>
<g id="a_edge49_Node000000_Node000007"><a xlink:title=" ">
<path fill="none" stroke="#63b8ff" d="M76.26,-338.2C87.68,-334.43 100.31,-330.4 112,-327 122.56,-323.93 133.86,-320.87 144.83,-318.01"/>
<polygon fill="#63b8ff" stroke="#63b8ff" points="74.97,-334.94 66.59,-341.43 77.19,-341.58 74.97,-334.94"/>
</a>
</g>
</g>
<!-- Node2 -->
<g id="Node000002" class="node">
<title>Node2</title>
<g id="a_Node000002"><a xlink:href="classcom_1_1teragrep_1_1pth__06_1_1planner_1_1MockDBNonSyslogRowImpl.html" target="_top" xlink:title="Wrapper around MockDBRow where isSyslog() returns false.">
<polygon fill="white" stroke="#666666" points="499,-462 339,-462 339,-432 499,-432 499,-462"/>
<text text-anchor="start" x="347" y="-450" font-family="Helvetica,sans-Serif" font-size="10.00">com.teragrep.pth_06.planner.</text>
<text text-anchor="middle" x="419" y="-439" font-family="Helvetica,sans-Serif" font-size="10.00">MockDBNonSyslogRowImpl</text>
</a>
</g>
</g>
<!-- Node1&#45;&gt;Node2 -->
<g id="edge45_Node000001_Node000002" class="edge">
<title>Node1&#45;&gt;Node2</title>
<g id="a_edge45_Node000001_Node000002"><a xlink:title=" ">
<path fill="none" stroke="#63b8ff" d="M297.97,-447C311.5,-447 325.39,-447 338.69,-447"/>
<polygon fill="#63b8ff" stroke="#63b8ff" points="297.7,-443.5 287.7,-447 297.7,-450.5 297.7,-443.5"/>
</a>
</g>
</g>
<!-- Node3 -->
<g id="Node000003" class="node">
<title>Node3</title>
<g id="a_Node000003"><a xlink:href="classcom_1_1teragrep_1_1pth__06_1_1planner_1_1MockDBRowImpl.html" target="_top" xlink:title=" ">
<polygon fill="white" stroke="#666666" points="499,-510 339,-510 339,-480 499,-480 499,-510"/>
<text text-anchor="start" x="347" y="-498" font-family="Helvetica,sans-Serif" font-size="10.00">com.teragrep.pth_06.planner.</text>
<text text-anchor="middle" x="419" y="-487" font-family="Helvetica,sans-Serif" font-size="10.00">MockDBRowImpl</text>
</a>
</g>
</g>
<!-- Node1&#45;&gt;Node3 -->
<g id="edge46_Node000001_Node000003" class="edge">
<title>Node1&#45;&gt;Node3</title>
<g id="a_edge46_Node000001_Node000003"><a xlink:title=" ">
<path fill="none" stroke="#63b8ff" d="M284.02,-464.3C306.44,-469.44 330.8,-475.02 352.52,-480"/>
<polygon fill="#63b8ff" stroke="#63b8ff" points="284.74,-460.88 274.21,-462.06 283.18,-467.7 284.74,-460.88"/>
</a>
</g>
</g>
<!-- Node4 -->
<g id="Node000004" class="node">
<title>Node4</title>
<g id="a_Node000004"><a xlink:href="classcom_1_1teragrep_1_1pth__06_1_1planner_1_1RecordableMockDBRow.html" target="_top" xlink:title=" ">
<polygon fill="white" stroke="#666666" points="499,-414 339,-414 339,-384 499,-384 499,-414"/>
<text text-anchor="start" x="347" y="-402" font-family="Helvetica,sans-Serif" font-size="10.00">com.teragrep.pth_06.planner.</text>
<text text-anchor="middle" x="419" y="-391" font-family="Helvetica,sans-Serif" font-size="10.00">RecordableMockDBRow</text>
</a>
</g>
</g>
<!-- Node1&#45;&gt;Node4 -->
<g id="edge47_Node000001_Node000004" class="edge">
<title>Node1&#45;&gt;Node4</title>
<g id="a_edge47_Node000001_Node000004"><a xlink:title=" ">
<path fill="none" stroke="#63b8ff" d="M284.02,-429.7C306.44,-424.56 330.8,-418.98 352.52,-414"/>
<polygon fill="#63b8ff" stroke="#63b8ff" points="283.18,-426.3 274.21,-431.94 284.74,-433.12 283.18,-426.3"/>
</a>
</g>
</g>
<!-- Node12 -->
<g id="Node000012" class="node">
<title>Node12</title>
<g id="a_Node000012"><a xlink:title=" ">
<polygon fill="#e0e0e0" stroke="#999999" points="61,-240.5 15,-240.5 15,-221.5 61,-221.5 61,-240.5"/>
<text text-anchor="middle" x="38" y="-228.5" font-family="Helvetica,sans-Serif" font-size="10.00">Offset</text>
</a>
</g>
</g>
<!-- Node11 -->
<g id="Node000011" class="node">
<title>Node11</title>
<g id="a_Node000011"><a xlink:href="classcom_1_1teragrep_1_1pth__06_1_1planner_1_1offset_1_1DatasourceOffset.html" target="_top" xlink:title=" ">
<polygon fill="white" stroke="#666666" points="303,-270 112,-270 112,-240 303,-240 303,-270"/>
<text text-anchor="start" x="120" y="-258" font-family="Helvetica,sans-Serif" font-size="10.00">com.teragrep.pth_06.planner.offset.</text>
<text text-anchor="middle" x="207.5" y="-247" font-family="Helvetica,sans-Serif" font-size="10.00">DatasourceOffset</text>
</a>
</g>
</g>
<!-- Node12&#45;&gt;Node11 -->
<g id="edge50_Node000012_Node000011" class="edge">
<title>Node12&#45;&gt;Node11</title>
<g id="a_edge50_Node000012_Node000011"><a xlink:title=" ">
<path fill="none" stroke="#63b8ff" d="M71.42,-235.64C83.23,-237.34 97.26,-239.35 111.73,-241.42"/>
<polygon fill="#63b8ff" stroke="#63b8ff" points="71.64,-232.14 61.24,-234.19 70.65,-239.07 71.64,-232.14"/>
</a>
</g>
</g>
<!-- Node13 -->
<g id="Node000013" class="node">
<title>Node13</title>
<g id="a_Node000013"><a xlink:href="classcom_1_1teragrep_1_1pth__06_1_1planner_1_1offset_1_1KafkaOffset.html" target="_top" xlink:title=" ">
<polygon fill="white" stroke="#666666" points="303,-222 112,-222 112,-192 303,-192 303,-222"/>
<text text-anchor="start" x="120" y="-210" font-family="Helvetica,sans-Serif" font-size="10.00">com.teragrep.pth_06.planner.offset.</text>
<text text-anchor="middle" x="207.5" y="-199" font-family="Helvetica,sans-Serif" font-size="10.00">KafkaOffset</text>
</a>
</g>
</g>
<!-- Node12&#45;&gt;Node13 -->
<g id="edge51_Node000012_Node000013" class="edge">
<title>Node12&#45;&gt;Node13</title>
<g id="a_edge51_Node000012_Node000013"><a xlink:title=" ">
<path fill="none" stroke="#63b8ff" d="M71.42,-226.36C83.23,-224.66 97.26,-222.65 111.73,-220.58"/>
<polygon fill="#63b8ff" stroke="#63b8ff" points="70.65,-222.93 61.24,-227.81 71.64,-229.86 70.65,-222.93"/>
</a>
</g>
</g>
<!-- Node5 -->
<g id="Node000005" class="node">
<title>Node5</title>
<g id="a_Node000005"><a xlink:href="interfacecom_1_1teragrep_1_1pth__06_1_1planner_1_1Recordable.html" target="_top" xlink:title=" ">
<polygon fill="white" stroke="#666666" points="287.5,-414 127.5,-414 127.5,-384 287.5,-384 287.5,-414"/>
<text text-anchor="start" x="135.5" y="-402" font-family="Helvetica,sans-Serif" font-size="10.00">com.teragrep.pth_06.planner.</text>
<text text-anchor="middle" x="207.5" y="-391" font-family="Helvetica,sans-Serif" font-size="10.00">Recordable</text>
</a>
</g>
</g>
<!-- Node5&#45;&gt;Node4 -->
<g id="edge52_Node000005_Node000004" class="edge">
<title>Node5&#45;&gt;Node4</title>
<g id="a_edge52_Node000005_Node000004"><a xlink:title=" ">
<path fill="none" stroke="#63b8ff" d="M297.97,-399C311.5,-399 325.39,-399 338.69,-399"/>
<polygon fill="#63b8ff" stroke="#63b8ff" points="297.7,-395.5 287.7,-399 297.7,-402.5 297.7,-395.5"/>
</a>
</g>
</g>
<!-- Node8 -->
<g id="Node000008" class="node">
<title>Node8</title>
<g id="a_Node000008"><a xlink:title=" ">
<polygon fill="#e0e0e0" stroke="#999999" points="75,-168.5 1,-168.5 1,-149.5 75,-149.5 75,-168.5"/>
<text text-anchor="middle" x="38" y="-156.5" font-family="Helvetica,sans-Serif" font-size="10.00">Serializable</text>
</a>
</g>
</g>
<!-- Node8&#45;&gt;Node7 -->
<g id="edge58_Node000008_Node000007" class="edge">
<title>Node8&#45;&gt;Node7</title>
<g id="a_edge58_Node000008_Node000007"><a xlink:title=" ">
<path fill="none" stroke="#63b8ff" d="M52.28,-176.91C59.58,-187.02 68.62,-200 76,-212 93.71,-240.8 85.36,-258.19 112,-279 116.4,-282.44 121.24,-285.39 126.33,-287.92"/>
<polygon fill="#63b8ff" stroke="#63b8ff" points="54.89,-174.55 46.17,-168.54 49.24,-178.68 54.89,-174.55"/>
</a>
</g>
</g>
<!-- Node8&#45;&gt;Node11 -->
<g id="edge55_Node000008_Node000011" class="edge">
<title>Node8&#45;&gt;Node11</title>
<g id="a_edge55_Node000008_Node000011"><a xlink:title=" ">
<path fill="none" stroke="#63b8ff" d="M52.4,-176.83C65.73,-193.32 87.67,-217.27 112,-231 118.04,-234.41 124.58,-237.34 131.29,-239.86"/>
<polygon fill="#63b8ff" stroke="#63b8ff" points="54.84,-174.27 45.92,-168.56 49.33,-178.59 54.84,-174.27"/>
</a>
</g>
</g>
<!-- Node8&#45;&gt;Node13 -->
<g id="edge56_Node000008_Node000013" class="edge">
<title>Node8&#45;&gt;Node13</title>
<g id="a_edge56_Node000008_Node000013"><a xlink:title=" ">
<path fill="none" stroke="#63b8ff" d="M76.26,-171.8C87.68,-175.57 100.31,-179.6 112,-183 122.56,-186.07 133.86,-189.13 144.83,-191.99"/>
<polygon fill="#63b8ff" stroke="#63b8ff" points="77.19,-168.42 66.59,-168.57 74.97,-175.06 77.19,-168.42"/>
</a>
</g>
</g>
<!-- Node9 -->
<g id="Node000009" class="node">
<title>Node9</title>
<g id="a_Node000009"><a xlink:href="classcom_1_1teragrep_1_1pth__06_1_1ArchiveS3ObjectMetadata.html" target="_top" xlink:title=" ">
<polygon fill="white" stroke="#666666" points="286.5,-78 128.5,-78 128.5,-48 286.5,-48 286.5,-78"/>
<text text-anchor="start" x="136.5" y="-66" font-family="Helvetica,sans-Serif" font-size="10.00">com.teragrep.pth_06.Archive</text>
<text text-anchor="middle" x="207.5" y="-55" font-family="Helvetica,sans-Serif" font-size="10.00">S3ObjectMetadata</text>
</a>
</g>
</g>
<!-- Node8&#45;&gt;Node9 -->
<g id="edge53_Node000008_Node000009" class="edge">
<title>Node8&#45;&gt;Node9</title>
<g id="a_edge53_Node000008_Node000009"><a xlink:title=" ">
<path fill="none" stroke="#63b8ff" d="M52.4,-141.17C65.73,-124.68 87.67,-100.73 112,-87 118.04,-83.59 124.58,-80.66 131.29,-78.14"/>
<polygon fill="#63b8ff" stroke="#63b8ff" points="49.33,-139.41 45.92,-149.44 54.84,-143.73 49.33,-139.41"/>
</a>
</g>
</g>
<!-- Node10 -->
<g id="Node000010" class="node">
<title>Node10</title>
<g id="a_Node000010"><a xlink:href="classcom_1_1teragrep_1_1pth__06_1_1KafkaTopicPartitionOffsetMetadata.html" target="_top" xlink:title=" ">
<polygon fill="white" stroke="#666666" points="286.5,-30 128.5,-30 128.5,0 286.5,0 286.5,-30"/>
<text text-anchor="start" x="136.5" y="-18" font-family="Helvetica,sans-Serif" font-size="10.00">com.teragrep.pth_06.Kafka</text>
<text text-anchor="middle" x="207.5" y="-7" font-family="Helvetica,sans-Serif" font-size="10.00">TopicPartitionOffsetMetadata</text>
</a>
</g>
</g>
<!-- Node8&#45;&gt;Node10 -->
<g id="edge54_Node000008_Node000010" class="edge">
<title>Node8&#45;&gt;Node10</title>
<g id="a_edge54_Node000008_Node000010"><a xlink:title=" ">
<path fill="none" stroke="#63b8ff" d="M45.41,-139.74C55.33,-112.96 77.01,-64.86 112,-39 117.04,-35.28 122.59,-32.13 128.41,-29.47"/>
<polygon fill="#63b8ff" stroke="#63b8ff" points="42,-138.89 41.97,-149.48 48.6,-141.22 42,-138.89"/>
</a>
</g>
</g>
<!-- Node14 -->
<g id="Node000014" class="node">
<title>Node14</title>
<g id="a_Node000014"><a xlink:href="classcom_1_1teragrep_1_1pth__06_1_1planner_1_1offset_1_1SerializedDatasourceOffset.html" target="_top" xlink:title=" ">
<polygon fill="white" stroke="#666666" points="303,-174 112,-174 112,-144 303,-144 303,-174"/>
<text text-anchor="start" x="120" y="-162" font-family="Helvetica,sans-Serif" font-size="10.00">com.teragrep.pth_06.planner.offset.</text>
<text text-anchor="middle" x="207.5" y="-151" font-family="Helvetica,sans-Serif" font-size="10.00">SerializedDatasourceOffset</text>
</a>
</g>
</g>
<!-- Node8&#45;&gt;Node14 -->
<g id="edge57_Node000008_Node000014" class="edge">
<title>Node8&#45;&gt;Node14</title>
<g id="a_edge57_Node000008_Node000014"><a xlink:title=" ">
<path fill="none" stroke="#63b8ff" d="M85.51,-159C93.82,-159 102.74,-159 111.84,-159"/>
<polygon fill="#63b8ff" stroke="#63b8ff" points="85.35,-155.5 75.35,-159 85.34,-162.5 85.35,-155.5"/>
</a>
</g>
</g>
<!-- Node15 -->
<g id="Node000015" class="node">
<title>Node15</title>
<g id="a_Node000015"><a xlink:href="classcom_1_1teragrep_1_1pth__06_1_1task_1_1Metadata.html" target="_top" xlink:title=" ">
<polygon fill="white" stroke="#666666" points="280,-126 135,-126 135,-96 280,-96 280,-126"/>
<text text-anchor="start" x="143" y="-114" font-family="Helvetica,sans-Serif" font-size="10.00">com.teragrep.pth_06.task.</text>
<text text-anchor="middle" x="207.5" y="-103" font-family="Helvetica,sans-Serif" font-size="10.00">Metadata</text>
</a>
</g>
</g>
<!-- Node8&#45;&gt;Node15 -->
<g id="edge59_Node000008_Node000015" class="edge">
<title>Node8&#45;&gt;Node15</title>
<g id="a_edge59_Node000008_Node000015"><a xlink:title=" ">
<path fill="none" stroke="#63b8ff" d="M76.26,-146.2C87.68,-142.43 100.31,-138.4 112,-135 122.56,-131.93 133.86,-128.87 144.83,-126.01"/>
<polygon fill="#63b8ff" stroke="#63b8ff" points="74.97,-142.94 66.59,-149.43 77.19,-149.58 74.97,-142.94"/>
</a>
</g>
</g>
</g>
</svg>
