<?xml version="1.0" encoding="UTF-8" standalone="no"?>
<!DOCTYPE svg PUBLIC "-//W3C//DTD SVG 1.1//EN"
 "http://www.w3.org/Graphics/SVG/1.1/DTD/svg11.dtd">
<!-- Generated by graphviz version 2.43.0 (0)
 -->
<!-- Title: com.teragrep.pth_06.task.s3.RowConverter.get Pages: 1 -->
<svg width="362pt" height="86pt"
 viewBox="0.00 0.00 362.00 86.00" xmlns="http://www.w3.org/2000/svg" xmlns:xlink="http://www.w3.org/1999/xlink">
<g id="graph0" class="graph" transform="scale(1 1) rotate(0) translate(4 82)">
<title>com.teragrep.pth_06.task.s3.RowConverter.get</title>
<!-- Node1 -->
<g id="Node000001" class="node">
<title>Node1</title>
<g id="a_Node000001"><a xlink:title=" ">
<polygon fill="#999999" stroke="#666666" points="159,-54 0,-54 0,-24 159,-24 159,-54"/>
<text text-anchor="start" x="8" y="-42" font-family="Helvetica,sans-Serif" font-size="10.00">com.teragrep.pth_06.task.s3.</text>
<text text-anchor="middle" x="79.5" y="-31" font-family="Helvetica,sans-Serif" font-size="10.00">RowConverter.get</text>
</a>
</g>
</g>
<!-- Node2 -->
<g id="Node000002" class="node">
<title>Node2</title>
<g id="a_Node000002"><a xlink:href="classcom_1_1teragrep_1_1pth__06_1_1task_1_1s3_1_1RowConverter.html#afb1359ab70ed6bd8ca1735ce6ea2e016" target="_top" xlink:title=" ">
<polygon fill="white" stroke="#666666" points="354,-78 195,-78 195,-48 354,-48 354,-78"/>
<text text-anchor="start" x="203" y="-66" font-family="Helvetica,sans-Serif" font-size="10.00">com.teragrep.pth_06.task.s3.</text>
<text text-anchor="middle" x="274.5" y="-55" font-family="Helvetica,sans-Serif" font-size="10.00">RowConverter.eventToOrigin</text>
</a>
</g>
</g>
<!-- Node1&#45;&gt;Node2 -->
<g id="edge1_Node000001_Node000002" class="edge">
<title>Node1&#45;&gt;Node2</title>
<g id="a_edge1_Node000001_Node000002"><a xlink:title=" ">
<path fill="none" stroke="#63b8ff" d="M159,-48.76C167.48,-49.82 176.14,-50.89 184.73,-51.96"/>
<polygon fill="#63b8ff" stroke="#63b8ff" points="184.4,-55.45 194.76,-53.21 185.26,-48.5 184.4,-55.45"/>
</a>
</g>
</g>
<!-- Node3 -->
<g id="Node000003" class="node">
<title>Node3</title>
<g id="a_Node000003"><a xlink:href="classcom_1_1teragrep_1_1pth__06_1_1task_1_1s3_1_1RowConverter.html#a54c9bb79923a505cbf7fb96f2fccf1a7" target="_top" xlink:title=" ">
<polygon fill="white" stroke="#666666" points="354,-30 195,-30 195,0 354,0 354,-30"/>
<text text-anchor="start" x="203" y="-18" font-family="Helvetica,sans-Serif" font-size="10.00">com.teragrep.pth_06.task.s3.</text>
<text text-anchor="middle" x="274.5" y="-7" font-family="Helvetica,sans-Serif" font-size="10.00">RowConverter.eventToSource</text>
</a>
</g>
</g>
<!-- Node1&#45;&gt;Node3 -->
<g id="edge2_Node000001_Node000003" class="edge">
<title>Node1&#45;&gt;Node3</title>
<g id="a_edge2_Node000001_Node000003"><a xlink:title=" ">
<path fill="none" stroke="#63b8ff" d="M159,-29.24C167.48,-28.18 176.14,-27.11 184.73,-26.04"/>
<polygon fill="#63b8ff" stroke="#63b8ff" points="185.26,-29.5 194.76,-24.79 184.4,-22.55 185.26,-29.5"/>
</a>
</g>
</g>
</g>
</svg>
