<?xml version="1.0" encoding="UTF-8" standalone="no"?>
<!DOCTYPE svg PUBLIC "-//W3C//DTD SVG 1.1//EN"
 "http://www.w3.org/Graphics/SVG/1.1/DTD/svg11.dtd">
<!-- Generated by graphviz version 2.43.0 (0)
 -->
<!-- Title: com.teragrep.pth_06.scheduler.BatchSlice Pages: 1 -->
<svg width="625pt" height="155pt"
 viewBox="0.00 0.00 625.00 155.40" xmlns="http://www.w3.org/2000/svg" xmlns:xlink="http://www.w3.org/1999/xlink">
<g id="graph0" class="graph" transform="scale(1 1) rotate(0) translate(4 151.4)">
<title>com.teragrep.pth_06.scheduler.BatchSlice</title>
<!-- Node1 -->
<g id="Node000001" class="node">
<title>Node1</title>
<g id="a_Node000001"><a xlink:title=" ">
<polygon fill="#999999" stroke="#666666" points="617,-103 447,-103 447,-73 617,-73 617,-103"/>
<text text-anchor="start" x="455" y="-91" font-family="Helvetica,sans-Serif" font-size="10.00">com.teragrep.pth_06.scheduler.</text>
<text text-anchor="middle" x="532" y="-80" font-family="Helvetica,sans-Serif" font-size="10.00">BatchSlice</text>
</a>
</g>
</g>
<!-- Node2 -->
<g id="Node000002" class="node">
<title>Node2</title>
<g id="a_Node000002"><a xlink:title=" ">
<polygon fill="white" stroke="#666666" points="74,-120.5 0,-120.5 0,-101.5 74,-101.5 74,-120.5"/>
<text text-anchor="middle" x="37" y="-108.5" font-family="Helvetica,sans-Serif" font-size="10.00">Serializable</text>
</a>
</g>
</g>
<!-- Node2&#45;&gt;Node1 -->
<g id="edge1_Node000001_Node000002" class="edge">
<title>Node2&#45;&gt;Node1</title>
<g id="a_edge1_Node000001_Node000002"><a xlink:title=" ">
<path fill="none" stroke="#63b8ff" d="M70.38,-124.1C82.86,-128.49 97.38,-132.82 111,-135 250.75,-157.38 290.29,-146.15 429,-118 447.9,-114.16 468.37,-108.46 485.97,-103.05"/>
<polygon fill="#63b8ff" stroke="#63b8ff" points="71.47,-120.76 60.87,-120.6 69.05,-127.34 71.47,-120.76"/>
</a>
</g>
</g>
<!-- Node4 -->
<g id="Node000004" class="node">
<title>Node4</title>
<g id="a_Node000004"><a xlink:href="classcom_1_1teragrep_1_1pth__06_1_1ArchiveS3ObjectMetadata.html" target="_top" xlink:title=" ">
<polygon fill="white" stroke="#666666" points="275,-126 117,-126 117,-96 275,-96 275,-126"/>
<text text-anchor="start" x="125" y="-114" font-family="Helvetica,sans-Serif" font-size="10.00">com.teragrep.pth_06.Archive</text>
<text text-anchor="middle" x="196" y="-103" font-family="Helvetica,sans-Serif" font-size="10.00">S3ObjectMetadata</text>
</a>
</g>
</g>
<!-- Node2&#45;&gt;Node4 -->
<g id="edge4_Node000004_Node000002" class="edge">
<title>Node2&#45;&gt;Node4</title>
<g id="a_edge4_Node000004_Node000002"><a xlink:title=" ">
<path fill="none" stroke="#63b8ff" d="M84.03,-111C94.39,-111 105.66,-111 116.92,-111"/>
<polygon fill="#63b8ff" stroke="#63b8ff" points="84.02,-107.5 74.02,-111 84.02,-114.5 84.02,-107.5"/>
</a>
</g>
</g>
<!-- Node5 -->
<g id="Node000005" class="node">
<title>Node5</title>
<g id="a_Node000005"><a xlink:href="classcom_1_1teragrep_1_1pth__06_1_1KafkaTopicPartitionOffsetMetadata.html" target="_top" xlink:title=" ">
<polygon fill="white" stroke="#666666" points="275,-78 117,-78 117,-48 275,-48 275,-78"/>
<text text-anchor="start" x="125" y="-66" font-family="Helvetica,sans-Serif" font-size="10.00">com.teragrep.pth_06.Kafka</text>
<text text-anchor="middle" x="196" y="-55" font-family="Helvetica,sans-Serif" font-size="10.00">TopicPartitionOffsetMetadata</text>
</a>
</g>
</g>
<!-- Node2&#45;&gt;Node5 -->
<g id="edge6_Node000005_Node000002" class="edge">
<title>Node2&#45;&gt;Node5</title>
<g id="a_edge6_Node000005_Node000002"><a xlink:title=" ">
<path fill="none" stroke="#63b8ff" d="M75.9,-98.22C87.17,-94.51 99.56,-90.51 111,-87 120.71,-84.02 131.1,-80.95 141.13,-78.05"/>
<polygon fill="#63b8ff" stroke="#63b8ff" points="74.74,-94.92 66.34,-101.39 76.94,-101.57 74.74,-94.92"/>
</a>
</g>
</g>
<!-- Node3 -->
<g id="Node000003" class="node">
<title>Node3</title>
<g id="a_Node000003"><a xlink:href="enumcom_1_1teragrep_1_1pth__06_1_1scheduler_1_1BatchSlice_1_1Type.html" target="_top" xlink:title=" ">
<polygon fill="white" stroke="#666666" points="281,-30 111,-30 111,0 281,0 281,-30"/>
<text text-anchor="start" x="119" y="-18" font-family="Helvetica,sans-Serif" font-size="10.00">com.teragrep.pth_06.scheduler.</text>
<text text-anchor="middle" x="196" y="-7" font-family="Helvetica,sans-Serif" font-size="10.00">BatchSlice.Type</text>
</a>
</g>
</g>
<!-- Node3&#45;&gt;Node1 -->
<g id="edge2_Node000001_Node000003" class="edge">
<title>Node3&#45;&gt;Node1</title>
<g id="a_edge2_Node000001_Node000003"><a xlink:title=" ">
<path fill="none" stroke="#9a32cd" stroke-dasharray="5,2" d="M291.22,-23.37C333.77,-28.43 384.38,-36.25 429,-48 452.73,-54.25 478.44,-64.36 498.12,-72.85"/>
<polygon fill="#9a32cd" stroke="#9a32cd" points="291.49,-19.88 281.15,-22.21 290.69,-26.83 291.49,-19.88"/>
</a>
</g>
<text text-anchor="middle" x="364" y="-51" font-family="Helvetica,sans-Serif" font-size="10.00" fill="grey"> type</text>
</g>
<!-- Node4&#45;&gt;Node1 -->
<g id="edge3_Node000001_Node000004" class="edge">
<title>Node4&#45;&gt;Node1</title>
<g id="a_edge3_Node000001_Node000004"><a xlink:title=" ">
<path fill="none" stroke="#9a32cd" stroke-dasharray="5,2" d="M285.45,-104.91C335.41,-101.47 397.5,-97.19 446.75,-93.8"/>
<polygon fill="#9a32cd" stroke="#9a32cd" points="285.04,-101.43 275.31,-105.61 285.53,-108.41 285.04,-101.43"/>
</a>
</g>
<text text-anchor="middle" x="364" y="-106" font-family="Helvetica,sans-Serif" font-size="10.00" fill="grey"> archiveS3ObjectMetadata</text>
</g>
<!-- Node5&#45;&gt;Node1 -->
<g id="edge5_Node000001_Node000005" class="edge">
<title>Node5&#45;&gt;Node1</title>
<g id="a_edge5_Node000001_Node000005"><a xlink:title=" ">
<path fill="none" stroke="#9a32cd" stroke-dasharray="5,2" d="M285.31,-62.01C328.7,-62.35 381.7,-64.02 429,-69 438.49,-70 448.43,-71.4 458.22,-72.99"/>
<polygon fill="#9a32cd" stroke="#9a32cd" points="285.08,-58.5 275.06,-61.95 285.04,-65.5 285.08,-58.5"/>
</a>
</g>
<text text-anchor="start" x="302" y="-83" font-family="Helvetica,sans-Serif" font-size="10.00" fill="grey"> kafkaTopicPartitionOffset</text>
<text text-anchor="middle" x="364" y="-72" font-family="Helvetica,sans-Serif" font-size="10.00" fill="grey">Metadata</text>
</g>
</g>
</svg>
