<?xml version="1.0" encoding="UTF-8" standalone="no"?>
<!DOCTYPE svg PUBLIC "-//W3C//DTD SVG 1.1//EN"
 "http://www.w3.org/Graphics/SVG/1.1/DTD/svg11.dtd">
<!-- Generated by graphviz version 2.43.0 (0)
 -->
<!-- Title: com.teragrep.pth_06.ConfiguredLogger.debug Pages: 1 -->
<svg width="1138pt" height="702pt"
 viewBox="0.00 0.00 1138.00 702.00" xmlns="http://www.w3.org/2000/svg" xmlns:xlink="http://www.w3.org/1999/xlink">
<g id="graph0" class="graph" transform="scale(1 1) rotate(0) translate(4 698)">
<title>com.teragrep.pth_06.ConfiguredLogger.debug</title>
<!-- Node1 -->
<g id="Node000001" class="node">
<title>Node1</title>
<g id="a_Node000001"><a xlink:title=" ">
<polygon fill="#999999" stroke="#666666" points="1130,-378 957,-378 957,-348 1130,-348 1130,-378"/>
<text text-anchor="start" x="965" y="-366" font-family="Helvetica,sans-Serif" font-size="10.00">com.teragrep.pth_06.Configured</text>
<text text-anchor="middle" x="1043.5" y="-355" font-family="Helvetica,sans-Serif" font-size="10.00">Logger.debug</text>
</a>
</g>
</g>
<!-- Node2 -->
<g id="Node000002" class="node">
<title>Node2</title>
<g id="a_Node000002"><a xlink:href="classcom_1_1teragrep_1_1pth__06_1_1ArchiveMicroStreamReader.html#a0ba49415b3c82882789a4c9e9f58f472" target="_top" xlink:title=" ">
<polygon fill="white" stroke="#666666" points="892,-694 734,-694 734,-664 892,-664 892,-694"/>
<text text-anchor="start" x="742" y="-682" font-family="Helvetica,sans-Serif" font-size="10.00">com.teragrep.pth_06.Archive</text>
<text text-anchor="middle" x="813" y="-671" font-family="Helvetica,sans-Serif" font-size="10.00">MicroStreamReader.commit</text>
</a>
</g>
</g>
<!-- Node1&#45;&gt;Node2 -->
<g id="edge1_Node000001_Node000002" class="edge">
<title>Node1&#45;&gt;Node2</title>
<g id="a_edge1_Node000001_Node000002"><a xlink:title=" ">
<path fill="none" stroke="#63b8ff" d="M1039.74,-388.18C1032.1,-445.08 1005.33,-584.17 921,-655 912.62,-662.04 902.6,-667.13 892.11,-670.79"/>
<polygon fill="#63b8ff" stroke="#63b8ff" points="1043.21,-388.6 1040.99,-378.24 1036.27,-387.72 1043.21,-388.6"/>
</a>
</g>
</g>
<!-- Node3 -->
<g id="Node000003" class="node">
<title>Node3</title>
<g id="a_Node000003"><a xlink:href="classcom_1_1teragrep_1_1pth__06_1_1planner_1_1SliceTable.html#a744def0dd9aab42426ac96e2cf62ca41" target="_top" xlink:title=" ">
<polygon fill="white" stroke="#666666" points="893,-646 733,-646 733,-616 893,-616 893,-646"/>
<text text-anchor="start" x="741" y="-634" font-family="Helvetica,sans-Serif" font-size="10.00">com.teragrep.pth_06.planner.</text>
<text text-anchor="middle" x="813" y="-623" font-family="Helvetica,sans-Serif" font-size="10.00">SliceTable.create</text>
</a>
</g>
</g>
<!-- Node1&#45;&gt;Node3 -->
<g id="edge2_Node000001_Node000003" class="edge">
<title>Node1&#45;&gt;Node3</title>
<g id="a_edge2_Node000001_Node000003"><a xlink:title=" ">
<path fill="none" stroke="#63b8ff" d="M1036.96,-388.01C1024.82,-436.82 991.18,-544.95 921,-602 912.79,-608.68 903.16,-613.82 893.11,-617.79"/>
<polygon fill="#63b8ff" stroke="#63b8ff" points="1040.43,-388.54 1039.35,-378 1033.62,-386.92 1040.43,-388.54"/>
</a>
</g>
</g>
<!-- Node4 -->
<g id="Node000004" class="node">
<title>Node4</title>
<g id="a_Node000004"><a xlink:href="classcom_1_1teragrep_1_1pth__06_1_1planner_1_1StreamDBClient.html#a8adc39a87d9dc4ab7c69817e8852d955" target="_top" xlink:title=" ">
<polygon fill="white" stroke="#666666" points="650.5,-603 474.5,-603 474.5,-573 650.5,-573 650.5,-603"/>
<text text-anchor="start" x="482.5" y="-591" font-family="Helvetica,sans-Serif" font-size="10.00">com.teragrep.pth_06.planner.</text>
<text text-anchor="middle" x="562.5" y="-580" font-family="Helvetica,sans-Serif" font-size="10.00">StreamDBClient.StreamDBClient</text>
</a>
</g>
</g>
<!-- Node1&#45;&gt;Node4 -->
<g id="edge24_Node000001_Node000004" class="edge">
<title>Node1&#45;&gt;Node4</title>
<g id="a_edge24_Node000001_Node000004"><a xlink:title=" ">
<path fill="none" stroke="#63b8ff" d="M1036.13,-388.02C1023.12,-433.26 988.86,-527.82 921,-569 877.23,-595.56 741.73,-595.81 650.7,-592.6"/>
<polygon fill="#63b8ff" stroke="#63b8ff" points="1039.57,-388.71 1038.85,-378.14 1032.82,-386.85 1039.57,-388.71"/>
</a>
</g>
</g>
<!-- Node5 -->
<g id="Node000005" class="node">
<title>Node5</title>
<g id="a_Node000005"><a xlink:href="classcom_1_1teragrep_1_1pth__06_1_1planner_1_1GetArchivedObjectsFilterTable.html#ac4c8643436fd6d8bdd98f772e17843d4" target="_top" xlink:title=" ">
<polygon fill="white" stroke="#666666" points="911.5,-560 714.5,-560 714.5,-530 911.5,-530 911.5,-560"/>
<text text-anchor="start" x="722.5" y="-548" font-family="Helvetica,sans-Serif" font-size="10.00">com.teragrep.pth_06.planner.</text>
<text text-anchor="middle" x="813" y="-537" font-family="Helvetica,sans-Serif" font-size="10.00">GetArchivedObjectsFilterTable.create</text>
</a>
</g>
</g>
<!-- Node1&#45;&gt;Node5 -->
<g id="edge4_Node000001_Node000005" class="edge">
<title>Node1&#45;&gt;Node5</title>
<g id="a_edge4_Node000001_Node000005"><a xlink:title=" ">
<path fill="none" stroke="#63b8ff" d="M1030.64,-387.61C1012.27,-422.94 973.53,-487.48 921,-521 915.62,-524.43 909.82,-527.37 903.8,-529.9"/>
<polygon fill="#63b8ff" stroke="#63b8ff" points="1033.87,-388.97 1035.27,-378.47 1027.63,-385.8 1033.87,-388.97"/>
</a>
</g>
</g>
<!-- Node6 -->
<g id="Node000006" class="node">
<title>Node6</title>
<g id="a_Node000006"><a xlink:href="classcom_1_1teragrep_1_1pth__06_1_1ArchiveMicroStreamReader.html#a62416fc430035444b01b4608b40546ac" target="_top" xlink:title=" ">
<polygon fill="white" stroke="#666666" points="921,-512 705,-512 705,-482 921,-482 921,-512"/>
<text text-anchor="start" x="713" y="-500" font-family="Helvetica,sans-Serif" font-size="10.00">com.teragrep.pth_06.Archive</text>
<text text-anchor="middle" x="813" y="-489" font-family="Helvetica,sans-Serif" font-size="10.00">MicroStreamReader.createReaderFactory</text>
</a>
</g>
</g>
<!-- Node1&#45;&gt;Node6 -->
<g id="edge6_Node000001_Node000006" class="edge">
<title>Node1&#45;&gt;Node6</title>
<g id="a_edge6_Node000001_Node000006"><a xlink:title=" ">
<path fill="none" stroke="#63b8ff" d="M1023.93,-385.74C1002.01,-411.02 963.17,-451.14 921,-473 914.32,-476.46 907.16,-479.42 899.82,-481.96"/>
<polygon fill="#63b8ff" stroke="#63b8ff" points="1026.61,-387.98 1030.43,-378.1 1021.28,-383.45 1026.61,-387.98"/>
</a>
</g>
</g>
<!-- Node7 -->
<g id="Node000007" class="node">
<title>Node7</title>
<g id="a_Node000007"><a xlink:href="classcom_1_1teragrep_1_1pth__06_1_1ArchiveMicroStreamReader.html#a411ca28ffc87898fce4bc8e77cdc0ee3" target="_top" xlink:title=" ">
<polygon fill="white" stroke="#666666" points="911.5,-137.5 714.5,-137.5 714.5,-96.5 911.5,-96.5 911.5,-137.5"/>
<text text-anchor="start" x="722.5" y="-125.5" font-family="Helvetica,sans-Serif" font-size="10.00">com.teragrep.pth_06.Archive</text>
<text text-anchor="start" x="722.5" y="-114.5" font-family="Helvetica,sans-Serif" font-size="10.00">MicroStreamReader.currentDatabase</text>
<text text-anchor="middle" x="813" y="-103.5" font-family="Helvetica,sans-Serif" font-size="10.00">Metrics</text>
</a>
</g>
</g>
<!-- Node1&#45;&gt;Node7 -->
<g id="edge7_Node000001_Node000007" class="edge">
<title>Node1&#45;&gt;Node7</title>
<g id="a_edge7_Node000001_Node000007"><a xlink:title=" ">
<path fill="none" stroke="#63b8ff" d="M1035.41,-337.91C1021.34,-292.73 985.53,-197.69 921,-147 916.45,-143.42 911.49,-140.28 906.29,-137.5"/>
<polygon fill="#63b8ff" stroke="#63b8ff" points="1032.15,-339.2 1038.38,-347.77 1038.85,-337.18 1032.15,-339.2"/>
</a>
</g>
</g>
<!-- Node9 -->
<g id="Node000009" class="node">
<title>Node9</title>
<g id="a_Node000009"><a xlink:href="classcom_1_1teragrep_1_1pth__06_1_1planner_1_1StreamDBClient.html#a94bfcc395eb96d3c4ed2363f7cea991d" target="_top" xlink:title=" ">
<polygon fill="white" stroke="#666666" points="920.5,-464 705.5,-464 705.5,-434 920.5,-434 920.5,-464"/>
<text text-anchor="start" x="713.5" y="-452" font-family="Helvetica,sans-Serif" font-size="10.00">com.teragrep.pth_06.planner.</text>
<text text-anchor="middle" x="813" y="-441" font-family="Helvetica,sans-Serif" font-size="10.00">StreamDBClient.currentDatabaseMetrics</text>
</a>
</g>
</g>
<!-- Node1&#45;&gt;Node9 -->
<g id="edge9_Node000001_Node000009" class="edge">
<title>Node1&#45;&gt;Node9</title>
<g id="a_edge9_Node000001_Node000009"><a xlink:title=" ">
<path fill="none" stroke="#63b8ff" d="M1005.15,-382.59C981.47,-394.49 949.97,-409.37 921,-420 906.91,-425.17 891.47,-429.88 876.81,-433.94"/>
<polygon fill="#63b8ff" stroke="#63b8ff" points="1006.8,-385.68 1014.13,-378.03 1003.63,-379.44 1006.8,-385.68"/>
</a>
</g>
</g>
<!-- Node11 -->
<g id="Node000011" class="node">
<title>Node11</title>
<g id="a_Node000011"><a xlink:href="classcom_1_1teragrep_1_1pth__06_1_1ArchiveMicroStreamReader.html#a642bbe56ee51994eb354fbf6b058aa07" target="_top" xlink:title=" ">
<polygon fill="white" stroke="#666666" points="912,-378 714,-378 714,-348 912,-348 912,-378"/>
<text text-anchor="start" x="722" y="-366" font-family="Helvetica,sans-Serif" font-size="10.00">com.teragrep.pth_06.Archive</text>
<text text-anchor="middle" x="813" y="-355" font-family="Helvetica,sans-Serif" font-size="10.00">MicroStreamReader.deserializeOffset</text>
</a>
</g>
</g>
<!-- Node1&#45;&gt;Node11 -->
<g id="edge11_Node000001_Node000011" class="edge">
<title>Node1&#45;&gt;Node11</title>
<g id="a_edge11_Node000001_Node000011"><a xlink:title=" ">
<path fill="none" stroke="#63b8ff" d="M946.43,-363C935.09,-363 923.5,-363 912.13,-363"/>
<polygon fill="#63b8ff" stroke="#63b8ff" points="946.76,-366.5 956.76,-363 946.76,-359.5 946.76,-366.5"/>
</a>
</g>
</g>
<!-- Node12 -->
<g id="Node000012" class="node">
<title>Node12</title>
<g id="a_Node000012"><a xlink:href="classcom_1_1teragrep_1_1pth__06_1_1planner_1_1NestedTopNQuery.html#ab9a75398ae4f26212f007ce95c24c26f" target="_top" xlink:title=" ">
<polygon fill="white" stroke="#666666" points="912,-330 714,-330 714,-300 912,-300 912,-330"/>
<text text-anchor="start" x="722" y="-318" font-family="Helvetica,sans-Serif" font-size="10.00">com.teragrep.pth_06.planner.</text>
<text text-anchor="middle" x="813" y="-307" font-family="Helvetica,sans-Serif" font-size="10.00">NestedTopNQuery.getTableStatement</text>
</a>
</g>
</g>
<!-- Node1&#45;&gt;Node12 -->
<g id="edge12_Node000001_Node000012" class="edge">
<title>Node1&#45;&gt;Node12</title>
<g id="a_edge12_Node000001_Node000012"><a xlink:title=" ">
<path fill="none" stroke="#63b8ff" d="M960.79,-345.83C936.16,-340.66 909.32,-335.02 885.42,-330"/>
<polygon fill="#63b8ff" stroke="#63b8ff" points="960.32,-349.31 970.83,-347.94 961.76,-342.46 960.32,-349.31"/>
</a>
</g>
</g>
<!-- Node13 -->
<g id="Node000013" class="node">
<title>Node13</title>
<g id="a_Node000013"><a xlink:href="classcom_1_1teragrep_1_1pth__06_1_1planner_1_1StreamDBClient.html#adbe4b13c48e67d8d82ae4ed9ee93f7df" target="_top" xlink:title=" ">
<polygon fill="white" stroke="#666666" points="650,-370 475,-370 475,-340 650,-340 650,-370"/>
<text text-anchor="start" x="483" y="-358" font-family="Helvetica,sans-Serif" font-size="10.00">com.teragrep.pth_06.planner.</text>
<text text-anchor="middle" x="562.5" y="-347" font-family="Helvetica,sans-Serif" font-size="10.00">StreamDBClient.pullToSliceTable</text>
</a>
</g>
</g>
<!-- Node1&#45;&gt;Node13 -->
<g id="edge22_Node000001_Node000013" class="edge">
<title>Node1&#45;&gt;Node13</title>
<g id="a_edge22_Node000001_Node000013"><a xlink:title=" ">
<path fill="none" stroke="#63b8ff" d="M968.43,-380.01C952.84,-382.92 936.45,-385.49 921,-387 825.46,-396.35 800.41,-397.65 705,-387 675.59,-383.72 643.37,-376.71 617.11,-370.08"/>
<polygon fill="#63b8ff" stroke="#63b8ff" points="969.38,-383.4 978.53,-378.06 968.05,-376.52 969.38,-383.4"/>
</a>
</g>
</g>
<!-- Node16 -->
<g id="Node000016" class="node">
<title>Node16</title>
<g id="a_Node000016"><a xlink:href="classcom_1_1teragrep_1_1pth__06_1_1ArchiveMicroStreamReader.html#ac732dee6220acab0c21d55c0ea40255b" target="_top" xlink:title="Used when Spark requests the initial offset when starting a new query.">
<polygon fill="white" stroke="#666666" points="899.5,-234 726.5,-234 726.5,-204 899.5,-204 899.5,-234"/>
<text text-anchor="start" x="734.5" y="-222" font-family="Helvetica,sans-Serif" font-size="10.00">com.teragrep.pth_06.Archive</text>
<text text-anchor="middle" x="813" y="-211" font-family="Helvetica,sans-Serif" font-size="10.00">MicroStreamReader.initialOffset</text>
</a>
</g>
</g>
<!-- Node1&#45;&gt;Node16 -->
<g id="edge17_Node000001_Node000016" class="edge">
<title>Node1&#45;&gt;Node16</title>
<g id="a_edge17_Node000001_Node000016"><a xlink:title=" ">
<path fill="none" stroke="#63b8ff" d="M1025.42,-339.48C1004.13,-311.96 965.14,-267.11 921,-243 914.32,-239.35 907.11,-236.25 899.71,-233.63"/>
<polygon fill="#63b8ff" stroke="#63b8ff" points="1022.86,-341.9 1031.69,-347.75 1028.44,-337.67 1022.86,-341.9"/>
</a>
</g>
</g>
<!-- Node17 -->
<g id="Node000017" class="node">
<title>Node17</title>
<g id="a_Node000017"><a xlink:href="classcom_1_1teragrep_1_1pth__06_1_1ArchiveMicroStreamReader.html#ae820a68e1ec38574202423e1b649e9cc" target="_top" xlink:title="Used when Spark progresses the query further to fetch more data.">
<polygon fill="white" stroke="#666666" points="899.5,-186 726.5,-186 726.5,-156 899.5,-156 899.5,-186"/>
<text text-anchor="start" x="734.5" y="-174" font-family="Helvetica,sans-Serif" font-size="10.00">com.teragrep.pth_06.Archive</text>
<text text-anchor="middle" x="813" y="-163" font-family="Helvetica,sans-Serif" font-size="10.00">MicroStreamReader.latestOffset</text>
</a>
</g>
</g>
<!-- Node1&#45;&gt;Node17 -->
<g id="edge18_Node000001_Node000017" class="edge">
<title>Node1&#45;&gt;Node17</title>
<g id="a_edge18_Node000001_Node000017"><a xlink:title=" ">
<path fill="none" stroke="#63b8ff" d="M1031.95,-338.73C1014.51,-301.62 976.04,-231.27 921,-195 914.4,-190.65 907.13,-187.08 899.58,-184.16"/>
<polygon fill="#63b8ff" stroke="#63b8ff" points="1028.77,-340.2 1036.12,-347.84 1035.14,-337.29 1028.77,-340.2"/>
</a>
</g>
</g>
<!-- Node18 -->
<g id="Node000018" class="node">
<title>Node18</title>
<g id="a_Node000018"><a xlink:href="classcom_1_1teragrep_1_1pth__06_1_1ArchiveMicroStreamReader.html#a36e4e32119c7727123f0afffcbb27780" target="_top" xlink:title=" ">
<polygon fill="white" stroke="#666666" points="914.5,-282 711.5,-282 711.5,-252 914.5,-252 914.5,-282"/>
<text text-anchor="start" x="719.5" y="-270" font-family="Helvetica,sans-Serif" font-size="10.00">com.teragrep.pth_06.Archive</text>
<text text-anchor="middle" x="813" y="-259" font-family="Helvetica,sans-Serif" font-size="10.00">MicroStreamReader.mostRecentOffset</text>
</a>
</g>
</g>
<!-- Node1&#45;&gt;Node18 -->
<g id="edge19_Node000001_Node000018" class="edge">
<title>Node1&#45;&gt;Node18</title>
<g id="a_edge19_Node000001_Node000018"><a xlink:title=" ">
<path fill="none" stroke="#63b8ff" d="M1013.06,-341.96C989.26,-325.86 954.34,-304.23 921,-291 912.42,-287.59 903.25,-284.62 894.02,-282.03"/>
<polygon fill="#63b8ff" stroke="#63b8ff" points="1011.39,-345.06 1021.61,-347.83 1015.35,-339.29 1011.39,-345.06"/>
</a>
</g>
</g>
<!-- Node19 -->
<g id="Node000019" class="node">
<title>Node19</title>
<g id="a_Node000019"><a xlink:href="classcom_1_1teragrep_1_1pth__06_1_1ArchiveMicroStreamReader.html#a38ac5d363a8989ca4a38286eed2d5a1d" target="_top" xlink:title="Forms the batch between start and end offsets and forms the input partitions from that batch.">
<polygon fill="white" stroke="#666666" points="916.5,-78 709.5,-78 709.5,-48 916.5,-48 916.5,-78"/>
<text text-anchor="start" x="717.5" y="-66" font-family="Helvetica,sans-Serif" font-size="10.00">com.teragrep.pth_06.Archive</text>
<text text-anchor="middle" x="813" y="-55" font-family="Helvetica,sans-Serif" font-size="10.00">MicroStreamReader.planInputPartitions</text>
</a>
</g>
</g>
<!-- Node1&#45;&gt;Node19 -->
<g id="edge21_Node000001_Node000019" class="edge">
<title>Node1&#45;&gt;Node19</title>
<g id="a_edge21_Node000001_Node000019"><a xlink:title=" ">
<path fill="none" stroke="#63b8ff" d="M1039.05,-337.73C1030.19,-282.99 1001.38,-153.12 921,-87 916.81,-83.55 912.23,-80.58 907.39,-78.01"/>
<polygon fill="#63b8ff" stroke="#63b8ff" points="1035.64,-338.57 1040.61,-347.92 1042.56,-337.51 1035.64,-338.57"/>
</a>
</g>
</g>
<!-- Node20 -->
<g id="Node000020" class="node">
<title>Node20</title>
<g id="a_Node000020"><a xlink:href="classcom_1_1teragrep_1_1pth__06_1_1ArchiveMicroStreamReader.html#ae37054d435fbdccc794afc19cd1a95da" target="_top" xlink:title=" ">
<polygon fill="white" stroke="#666666" points="892,-30 734,-30 734,0 892,0 892,-30"/>
<text text-anchor="start" x="742" y="-18" font-family="Helvetica,sans-Serif" font-size="10.00">com.teragrep.pth_06.Archive</text>
<text text-anchor="middle" x="813" y="-7" font-family="Helvetica,sans-Serif" font-size="10.00">MicroStreamReader.stop</text>
</a>
</g>
</g>
<!-- Node1&#45;&gt;Node20 -->
<g id="edge23_Node000001_Node000020" class="edge">
<title>Node1&#45;&gt;Node20</title>
<g id="a_edge23_Node000001_Node000020"><a xlink:title=" ">
<path fill="none" stroke="#63b8ff" d="M1040.89,-337.7C1035.56,-276.42 1013.13,-119.21 921,-39 912.67,-31.75 902.63,-26.55 892.07,-22.85"/>
<polygon fill="#63b8ff" stroke="#63b8ff" points="1037.42,-338.29 1041.7,-347.98 1044.4,-337.74 1037.42,-338.29"/>
</a>
</g>
</g>
<!-- Node3&#45;&gt;Node4 -->
<g id="edge3_Node000003_Node000004" class="edge">
<title>Node3&#45;&gt;Node4</title>
<g id="a_edge3_Node000003_Node000004"><a xlink:title=" ">
<path fill="none" stroke="#63b8ff" d="M722.7,-615.55C699.11,-611.47 673.68,-607.07 650.23,-603.01"/>
<polygon fill="#63b8ff" stroke="#63b8ff" points="722.24,-619.02 732.69,-617.28 723.43,-612.12 722.24,-619.02"/>
</a>
</g>
</g>
<!-- Node5&#45;&gt;Node4 -->
<g id="edge5_Node000005_Node000004" class="edge">
<title>Node5&#45;&gt;Node4</title>
<g id="a_edge5_Node000005_Node000004"><a xlink:title=" ">
<path fill="none" stroke="#63b8ff" d="M715.05,-561.78C693.72,-565.47 671.26,-569.35 650.36,-572.97"/>
<polygon fill="#63b8ff" stroke="#63b8ff" points="715.83,-565.19 725.09,-560.04 714.64,-558.3 715.83,-565.19"/>
</a>
</g>
</g>
<!-- Node8 -->
<g id="Node000008" class="node">
<title>Node8</title>
<g id="a_Node000008"><a xlink:href="classcom_1_1teragrep_1_1pth__06_1_1TeragrepScan.html#a602d40fbaa787d342efce68249ab6ea1" target="_top" xlink:title=" ">
<polygon fill="white" stroke="#666666" points="644,-207 481,-207 481,-177 644,-177 644,-207"/>
<text text-anchor="start" x="489" y="-195" font-family="Helvetica,sans-Serif" font-size="10.00">com.teragrep.pth_06.Teragrep</text>
<text text-anchor="middle" x="562.5" y="-184" font-family="Helvetica,sans-Serif" font-size="10.00">Scan.reportDriverMetrics</text>
</a>
</g>
</g>
<!-- Node7&#45;&gt;Node8 -->
<g id="edge8_Node000007_Node000008" class="edge">
<title>Node7&#45;&gt;Node8</title>
<g id="a_edge8_Node000007_Node000008"><a xlink:title=" ">
<path fill="none" stroke="#63b8ff" d="M727.65,-140.35C719.98,-142.57 712.34,-144.8 705,-147 673.02,-156.57 637.18,-167.97 609.58,-176.9"/>
<polygon fill="#63b8ff" stroke="#63b8ff" points="728.71,-143.69 737.36,-137.57 726.78,-136.96 728.71,-143.69"/>
</a>
</g>
</g>
<!-- Node10 -->
<g id="Node000010" class="node">
<title>Node10</title>
<g id="a_Node000010"><a xlink:href="classcom_1_1teragrep_1_1pth__06_1_1planner_1_1ArchiveQueryProcessor.html#aa8d90622d53c4fd90e5dadb0e6dec340" target="_top" xlink:title=" ">
<polygon fill="white" stroke="#666666" points="669,-469.5 456,-469.5 456,-428.5 669,-428.5 669,-469.5"/>
<text text-anchor="start" x="464" y="-457.5" font-family="Helvetica,sans-Serif" font-size="10.00">com.teragrep.pth_06.planner.</text>
<text text-anchor="start" x="464" y="-446.5" font-family="Helvetica,sans-Serif" font-size="10.00">ArchiveQueryProcessor.currentDatabase</text>
<text text-anchor="middle" x="562.5" y="-435.5" font-family="Helvetica,sans-Serif" font-size="10.00">Metrics</text>
</a>
</g>
</g>
<!-- Node9&#45;&gt;Node10 -->
<g id="edge10_Node000009_Node000010" class="edge">
<title>Node9&#45;&gt;Node10</title>
<g id="a_edge10_Node000009_Node000010"><a xlink:title=" ">
<path fill="none" stroke="#63b8ff" d="M695.03,-449C686.36,-449 677.65,-449 669.06,-449"/>
<polygon fill="#63b8ff" stroke="#63b8ff" points="695.17,-452.5 705.17,-449 695.17,-445.5 695.17,-452.5"/>
</a>
</g>
</g>
<!-- Node12&#45;&gt;Node13 -->
<g id="edge13_Node000012_Node000013" class="edge">
<title>Node12&#45;&gt;Node13</title>
<g id="a_edge13_Node000012_Node000013"><a xlink:title=" ">
<path fill="none" stroke="#63b8ff" d="M708.68,-331.63C689.26,-334.76 669.13,-338 650.28,-341.03"/>
<polygon fill="#63b8ff" stroke="#63b8ff" points="709.44,-335.05 718.76,-330.01 708.33,-328.14 709.44,-335.05"/>
</a>
</g>
</g>
<!-- Node14 -->
<g id="Node000014" class="node">
<title>Node14</title>
<g id="a_Node000014"><a xlink:href="classcom_1_1teragrep_1_1pth__06_1_1planner_1_1ArchiveQueryProcessor.html#a646c09c6ba9331c48df86960f4fa8bcb" target="_top" xlink:title="Increments the latest offset value and returns that incremented offset.">
<polygon fill="white" stroke="#666666" points="182,-374.5 0,-374.5 0,-333.5 182,-333.5 182,-374.5"/>
<text text-anchor="start" x="8" y="-362.5" font-family="Helvetica,sans-Serif" font-size="10.00">com.teragrep.pth_06.planner.</text>
<text text-anchor="start" x="8" y="-351.5" font-family="Helvetica,sans-Serif" font-size="10.00">ArchiveQueryProcessor.increment</text>
<text text-anchor="middle" x="91" y="-340.5" font-family="Helvetica,sans-Serif" font-size="10.00">AndGetLatestOffset</text>
</a>
</g>
</g>
<!-- Node13&#45;&gt;Node14 -->
<g id="edge14_Node000013_Node000014" class="edge">
<title>Node13&#45;&gt;Node14</title>
<g id="a_edge14_Node000013_Node000014"><a xlink:title=" ">
<path fill="none" stroke="#63b8ff" d="M464.45,-356.55C449.56,-356.74 434.37,-356.9 420,-357 330.22,-357.63 307.77,-358.07 218,-357 206.4,-356.86 194.21,-356.65 182.16,-356.41"/>
<polygon fill="#63b8ff" stroke="#63b8ff" points="464.74,-360.05 474.7,-356.42 464.65,-353.05 464.74,-360.05"/>
</a>
</g>
</g>
<!-- Node15 -->
<g id="Node000015" class="node">
<title>Node15</title>
<g id="a_Node000015"><a xlink:href="classcom_1_1teragrep_1_1pth__06_1_1planner_1_1ArchiveQueryProcessor.html#a3e2e817526f72a254cd6358389a5b7f2" target="_top" xlink:title="Increment the rolling day and pull data for that day into the sliceTable.">
<polygon fill="white" stroke="#666666" points="420,-348 218,-348 218,-318 420,-318 420,-348"/>
<text text-anchor="start" x="226" y="-336" font-family="Helvetica,sans-Serif" font-size="10.00">com.teragrep.pth_06.planner.</text>
<text text-anchor="middle" x="319" y="-325" font-family="Helvetica,sans-Serif" font-size="10.00">ArchiveQueryProcessor.seekToResults</text>
</a>
</g>
</g>
<!-- Node13&#45;&gt;Node15 -->
<g id="edge15_Node000013_Node000015" class="edge">
<title>Node13&#45;&gt;Node15</title>
<g id="a_edge15_Node000013_Node000015"><a xlink:title=" ">
<path fill="none" stroke="#63b8ff" d="M464.92,-346.2C450.24,-344.86 435.05,-343.48 420.29,-342.14"/>
<polygon fill="#63b8ff" stroke="#63b8ff" points="464.72,-349.7 475,-347.12 465.35,-342.73 464.72,-349.7"/>
</a>
</g>
</g>
<!-- Node15&#45;&gt;Node14 -->
<g id="edge16_Node000015_Node000014" class="edge">
<title>Node15&#45;&gt;Node14</title>
<g id="a_edge16_Node000015_Node000014"><a xlink:title=" ">
<path fill="none" stroke="#63b8ff" d="M207.79,-343.24C199.17,-344.04 190.53,-344.84 182.07,-345.63"/>
<polygon fill="#63b8ff" stroke="#63b8ff" points="208.25,-346.71 217.89,-342.3 207.61,-339.74 208.25,-346.71"/>
</a>
</g>
</g>
<!-- Node18&#45;&gt;Node8 -->
<g id="edge20_Node000018_Node000008" class="edge">
<title>Node18&#45;&gt;Node8</title>
<g id="a_edge20_Node000018_Node000008"><a xlink:title=" ">
<path fill="none" stroke="#63b8ff" d="M729.44,-249.57C721.15,-247.5 712.88,-245.29 705,-243 669.27,-232.6 629.48,-217.97 601.21,-207.05"/>
<polygon fill="#63b8ff" stroke="#63b8ff" points="728.62,-252.98 739.16,-251.95 730.28,-246.18 728.62,-252.98"/>
</a>
</g>
</g>
</g>
</svg>
