<?xml version="1.0" encoding="UTF-8" standalone="no"?>
<!DOCTYPE svg PUBLIC "-//W3C//DTD SVG 1.1//EN"
 "http://www.w3.org/Graphics/SVG/1.1/DTD/svg11.dtd">
<!-- Generated by graphviz version 2.43.0 (0)
 -->
<!-- Title: com.teragrep.pth_06.ConfiguredLogger.info Pages: 1 -->
<svg width="1347pt" height="772pt"
 viewBox="0.00 0.00 1347.00 771.66" xmlns="http://www.w3.org/2000/svg" xmlns:xlink="http://www.w3.org/1999/xlink">
<g id="graph0" class="graph" transform="scale(1 1) rotate(0) translate(4 767.66)">
<title>com.teragrep.pth_06.ConfiguredLogger.info</title>
<!-- Node1 -->
<g id="Node000001" class="node">
<title>Node1</title>
<g id="a_Node000001"><a xlink:title=" ">
<polygon fill="#999999" stroke="#666666" points="1339,-269.25 1166,-269.25 1166,-239.25 1339,-239.25 1339,-269.25"/>
<text text-anchor="start" x="1174" y="-257.25" font-family="Helvetica,sans-Serif" font-size="10.00">com.teragrep.pth_06.Configured</text>
<text text-anchor="middle" x="1252.5" y="-246.25" font-family="Helvetica,sans-Serif" font-size="10.00">Logger.info</text>
</a>
</g>
</g>
<!-- Node2 -->
<g id="Node000002" class="node">
<title>Node2</title>
<g id="a_Node000002"><a xlink:href="classcom_1_1teragrep_1_1pth__06_1_1ConfiguredLogger.html#a432bade7d6310bed1e1b9a405fb53d56" target="_top" xlink:title=" ">
<polygon fill="white" stroke="#666666" points="1130,-367.25 957,-367.25 957,-337.25 1130,-337.25 1130,-367.25"/>
<text text-anchor="start" x="965" y="-355.25" font-family="Helvetica,sans-Serif" font-size="10.00">com.teragrep.pth_06.Configured</text>
<text text-anchor="middle" x="1043.5" y="-344.25" font-family="Helvetica,sans-Serif" font-size="10.00">Logger.debug</text>
</a>
</g>
</g>
<!-- Node1&#45;&gt;Node2 -->
<g id="edge1_Node000001_Node000002" class="edge">
<title>Node1&#45;&gt;Node2</title>
<g id="a_edge1_Node000001_Node000002"><a xlink:title=" ">
<path fill="none" stroke="#63b8ff" d="M1210.53,-273.65C1171.15,-292.29 1112.45,-320.08 1076.43,-337.14"/>
<polygon fill="#63b8ff" stroke="#63b8ff" points="1212.07,-276.79 1219.61,-269.35 1209.07,-270.47 1212.07,-276.79"/>
</a>
</g>
</g>
<!-- Node5 -->
<g id="Node000005" class="node">
<title>Node5</title>
<g id="a_Node000005"><a xlink:href="classcom_1_1teragrep_1_1pth__06_1_1planner_1_1StreamDBClient.html#a8adc39a87d9dc4ab7c69817e8852d955" target="_top" xlink:title=" ">
<polygon fill="white" stroke="#666666" points="650.5,-511.25 474.5,-511.25 474.5,-481.25 650.5,-481.25 650.5,-511.25"/>
<text text-anchor="start" x="482.5" y="-499.25" font-family="Helvetica,sans-Serif" font-size="10.00">com.teragrep.pth_06.planner.</text>
<text text-anchor="middle" x="562.5" y="-488.25" font-family="Helvetica,sans-Serif" font-size="10.00">StreamDBClient.StreamDBClient</text>
</a>
</g>
</g>
<!-- Node1&#45;&gt;Node5 -->
<g id="edge28_Node000001_Node000005" class="edge">
<title>Node1&#45;&gt;Node5</title>
<g id="a_edge28_Node000001_Node000005"><a xlink:title=" ">
<path fill="none" stroke="#63b8ff" d="M1243.63,-278.87C1215.71,-361.45 1112.7,-629.1 921,-729.25 835.91,-773.71 788.67,-776.33 705,-729.25 618.38,-680.52 578.66,-554.95 567.17,-511.4"/>
<polygon fill="#63b8ff" stroke="#63b8ff" points="1246.97,-279.91 1246.8,-269.31 1240.33,-277.7 1246.97,-279.91"/>
</a>
</g>
</g>
<!-- Node13 -->
<g id="Node000013" class="node">
<title>Node13</title>
<g id="a_Node000013"><a xlink:href="classcom_1_1teragrep_1_1pth__06_1_1planner_1_1NestedTopNQuery.html#ab9a75398ae4f26212f007ce95c24c26f" target="_top" xlink:title=" ">
<polygon fill="white" stroke="#666666" points="912,-56.25 714,-56.25 714,-26.25 912,-26.25 912,-56.25"/>
<text text-anchor="start" x="722" y="-44.25" font-family="Helvetica,sans-Serif" font-size="10.00">com.teragrep.pth_06.planner.</text>
<text text-anchor="middle" x="813" y="-33.25" font-family="Helvetica,sans-Serif" font-size="10.00">NestedTopNQuery.getTableStatement</text>
</a>
</g>
</g>
<!-- Node1&#45;&gt;Node13 -->
<g id="edge26_Node000001_Node000013" class="edge">
<title>Node1&#45;&gt;Node13</title>
<g id="a_edge26_Node000001_Node000013"><a xlink:title=" ">
<path fill="none" stroke="#63b8ff" d="M1221.82,-233.17C1165.72,-194.29 1039.16,-111.09 921,-65.25 912.21,-61.84 902.83,-58.86 893.4,-56.25"/>
<polygon fill="#63b8ff" stroke="#63b8ff" points="1220,-236.17 1230.2,-239.02 1224,-230.43 1220,-236.17"/>
</a>
</g>
</g>
<!-- Node14 -->
<g id="Node000014" class="node">
<title>Node14</title>
<g id="a_Node000014"><a xlink:href="classcom_1_1teragrep_1_1pth__06_1_1planner_1_1StreamDBClient.html#adbe4b13c48e67d8d82ae4ed9ee93f7df" target="_top" xlink:title=" ">
<polygon fill="white" stroke="#666666" points="650,-56.25 475,-56.25 475,-26.25 650,-26.25 650,-56.25"/>
<text text-anchor="start" x="483" y="-44.25" font-family="Helvetica,sans-Serif" font-size="10.00">com.teragrep.pth_06.planner.</text>
<text text-anchor="middle" x="562.5" y="-33.25" font-family="Helvetica,sans-Serif" font-size="10.00">StreamDBClient.pullToSliceTable</text>
</a>
</g>
</g>
<!-- Node1&#45;&gt;Node14 -->
<g id="edge27_Node000001_Node000014" class="edge">
<title>Node1&#45;&gt;Node14</title>
<g id="a_edge27_Node000001_Node000014"><a xlink:title=" ">
<path fill="none" stroke="#63b8ff" d="M1241.48,-229.79C1224.42,-191.23 1186.05,-116.56 1130,-76.25 976,34.5 733.29,-1.52 622.35,-26.2"/>
<polygon fill="#63b8ff" stroke="#63b8ff" points="1238.37,-231.42 1245.54,-239.22 1244.8,-228.65 1238.37,-231.42"/>
</a>
</g>
</g>
<!-- Node3 -->
<g id="Node000003" class="node">
<title>Node3</title>
<g id="a_Node000003"><a xlink:href="classcom_1_1teragrep_1_1pth__06_1_1ArchiveMicroStreamReader.html#a0ba49415b3c82882789a4c9e9f58f472" target="_top" xlink:title=" ">
<polygon fill="white" stroke="#666666" points="892,-576.25 734,-576.25 734,-546.25 892,-546.25 892,-576.25"/>
<text text-anchor="start" x="742" y="-564.25" font-family="Helvetica,sans-Serif" font-size="10.00">com.teragrep.pth_06.Archive</text>
<text text-anchor="middle" x="813" y="-553.25" font-family="Helvetica,sans-Serif" font-size="10.00">MicroStreamReader.commit</text>
</a>
</g>
</g>
<!-- Node2&#45;&gt;Node3 -->
<g id="edge2_Node000002_Node000003" class="edge">
<title>Node2&#45;&gt;Node3</title>
<g id="a_edge2_Node000002_Node000003"><a xlink:title=" ">
<path fill="none" stroke="#63b8ff" d="M1032.71,-376.81C1015.88,-415.82 977.7,-491.7 921,-532.25 912.31,-538.47 902.36,-543.35 892.1,-547.19"/>
<polygon fill="#63b8ff" stroke="#63b8ff" points="1035.97,-378.08 1036.62,-367.5 1029.52,-375.37 1035.97,-378.08"/>
</a>
</g>
</g>
<!-- Node4 -->
<g id="Node000004" class="node">
<title>Node4</title>
<g id="a_Node000004"><a xlink:href="classcom_1_1teragrep_1_1pth__06_1_1planner_1_1SliceTable.html#a744def0dd9aab42426ac96e2cf62ca41" target="_top" xlink:title=" ">
<polygon fill="white" stroke="#666666" points="893,-490.25 733,-490.25 733,-460.25 893,-460.25 893,-490.25"/>
<text text-anchor="start" x="741" y="-478.25" font-family="Helvetica,sans-Serif" font-size="10.00">com.teragrep.pth_06.planner.</text>
<text text-anchor="middle" x="813" y="-467.25" font-family="Helvetica,sans-Serif" font-size="10.00">SliceTable.create</text>
</a>
</g>
</g>
<!-- Node2&#45;&gt;Node4 -->
<g id="edge3_Node000002_Node000004" class="edge">
<title>Node2&#45;&gt;Node4</title>
<g id="a_edge3_Node000002_Node000004"><a xlink:title=" ">
<path fill="none" stroke="#63b8ff" d="M1021.31,-374.82C998.64,-397.58 960.58,-432.03 921,-451.25 912.27,-455.49 902.77,-459 893.15,-461.89"/>
<polygon fill="#63b8ff" stroke="#63b8ff" points="1023.89,-377.19 1028.38,-367.59 1018.89,-372.29 1023.89,-377.19"/>
</a>
</g>
</g>
<!-- Node2&#45;&gt;Node5 -->
<g id="edge25_Node000002_Node000005" class="edge">
<title>Node2&#45;&gt;Node5</title>
<g id="a_edge25_Node000002_Node000005"><a xlink:title=" ">
<path fill="none" stroke="#63b8ff" d="M1031.01,-376.67C1013.11,-411.46 974.94,-473.86 921,-499.25 823.57,-545.13 694,-527.44 620.6,-511.28"/>
<polygon fill="#63b8ff" stroke="#63b8ff" points="1034.18,-378.16 1035.52,-367.65 1027.92,-375.03 1034.18,-378.16"/>
</a>
</g>
</g>
<!-- Node6 -->
<g id="Node000006" class="node">
<title>Node6</title>
<g id="a_Node000006"><a xlink:href="classcom_1_1teragrep_1_1pth__06_1_1planner_1_1GetArchivedObjectsFilterTable.html#ac4c8643436fd6d8bdd98f772e17843d4" target="_top" xlink:title=" ">
<polygon fill="white" stroke="#666666" points="911.5,-442.25 714.5,-442.25 714.5,-412.25 911.5,-412.25 911.5,-442.25"/>
<text text-anchor="start" x="722.5" y="-430.25" font-family="Helvetica,sans-Serif" font-size="10.00">com.teragrep.pth_06.planner.</text>
<text text-anchor="middle" x="813" y="-419.25" font-family="Helvetica,sans-Serif" font-size="10.00">GetArchivedObjectsFilterTable.create</text>
</a>
</g>
</g>
<!-- Node2&#45;&gt;Node6 -->
<g id="edge5_Node000002_Node000006" class="edge">
<title>Node2&#45;&gt;Node6</title>
<g id="a_edge5_Node000002_Node000006"><a xlink:title=" ">
<path fill="none" stroke="#63b8ff" d="M1001.64,-371.54C978.38,-381.97 948.49,-394.48 921,-403.25 910.75,-406.52 899.82,-409.52 889,-412.2"/>
<polygon fill="#63b8ff" stroke="#63b8ff" points="1003.19,-374.68 1010.85,-367.36 1000.3,-368.3 1003.19,-374.68"/>
</a>
</g>
</g>
<!-- Node7 -->
<g id="Node000007" class="node">
<title>Node7</title>
<g id="a_Node000007"><a xlink:href="classcom_1_1teragrep_1_1pth__06_1_1ArchiveMicroStreamReader.html#a62416fc430035444b01b4608b40546ac" target="_top" xlink:title=" ">
<polygon fill="white" stroke="#666666" points="921,-394.25 705,-394.25 705,-364.25 921,-364.25 921,-394.25"/>
<text text-anchor="start" x="713" y="-382.25" font-family="Helvetica,sans-Serif" font-size="10.00">com.teragrep.pth_06.Archive</text>
<text text-anchor="middle" x="813" y="-371.25" font-family="Helvetica,sans-Serif" font-size="10.00">MicroStreamReader.createReaderFactory</text>
</a>
</g>
</g>
<!-- Node2&#45;&gt;Node7 -->
<g id="edge7_Node000002_Node000007" class="edge">
<title>Node2&#45;&gt;Node7</title>
<g id="a_edge7_Node000002_Node000007"><a xlink:title=" ">
<path fill="none" stroke="#63b8ff" d="M946.57,-363.59C938.14,-364.58 929.58,-365.6 921.07,-366.6"/>
<polygon fill="#63b8ff" stroke="#63b8ff" points="947.24,-367.03 956.76,-362.38 946.42,-360.08 947.24,-367.03"/>
</a>
</g>
</g>
<!-- Node8 -->
<g id="Node000008" class="node">
<title>Node8</title>
<g id="a_Node000008"><a xlink:href="classcom_1_1teragrep_1_1pth__06_1_1ArchiveMicroStreamReader.html#a411ca28ffc87898fce4bc8e77cdc0ee3" target="_top" xlink:title=" ">
<polygon fill="white" stroke="#666666" points="911.5,-345.75 714.5,-345.75 714.5,-304.75 911.5,-304.75 911.5,-345.75"/>
<text text-anchor="start" x="722.5" y="-333.75" font-family="Helvetica,sans-Serif" font-size="10.00">com.teragrep.pth_06.Archive</text>
<text text-anchor="start" x="722.5" y="-322.75" font-family="Helvetica,sans-Serif" font-size="10.00">MicroStreamReader.currentDatabase</text>
<text text-anchor="middle" x="813" y="-311.75" font-family="Helvetica,sans-Serif" font-size="10.00">Metrics</text>
</a>
</g>
</g>
<!-- Node2&#45;&gt;Node8 -->
<g id="edge8_Node000002_Node000008" class="edge">
<title>Node2&#45;&gt;Node8</title>
<g id="a_edge8_Node000002_Node000008"><a xlink:title=" ">
<path fill="none" stroke="#63b8ff" d="M946.69,-340.93C935.13,-339.57 923.32,-338.17 911.74,-336.8"/>
<polygon fill="#63b8ff" stroke="#63b8ff" points="946.42,-344.42 956.76,-342.12 947.24,-337.47 946.42,-344.42"/>
</a>
</g>
</g>
<!-- Node10 -->
<g id="Node000010" class="node">
<title>Node10</title>
<g id="a_Node000010"><a xlink:href="classcom_1_1teragrep_1_1pth__06_1_1planner_1_1StreamDBClient.html#a94bfcc395eb96d3c4ed2363f7cea991d" target="_top" xlink:title=" ">
<polygon fill="white" stroke="#666666" points="920.5,-238.25 705.5,-238.25 705.5,-208.25 920.5,-208.25 920.5,-238.25"/>
<text text-anchor="start" x="713.5" y="-226.25" font-family="Helvetica,sans-Serif" font-size="10.00">com.teragrep.pth_06.planner.</text>
<text text-anchor="middle" x="813" y="-215.25" font-family="Helvetica,sans-Serif" font-size="10.00">StreamDBClient.currentDatabaseMetrics</text>
</a>
</g>
</g>
<!-- Node2&#45;&gt;Node10 -->
<g id="edge10_Node000002_Node000010" class="edge">
<title>Node2&#45;&gt;Node10</title>
<g id="a_edge10_Node000002_Node000010"><a xlink:title=" ">
<path fill="none" stroke="#63b8ff" d="M1022.69,-329.47C1000.41,-305.32 961.94,-267.88 921,-247.25 914.11,-243.78 906.73,-240.81 899.17,-238.27"/>
<polygon fill="#63b8ff" stroke="#63b8ff" points="1020.3,-332.05 1029.61,-337.11 1025.49,-327.35 1020.3,-332.05"/>
</a>
</g>
</g>
<!-- Node12 -->
<g id="Node000012" class="node">
<title>Node12</title>
<g id="a_Node000012"><a xlink:href="classcom_1_1teragrep_1_1pth__06_1_1ArchiveMicroStreamReader.html#a642bbe56ee51994eb354fbf6b058aa07" target="_top" xlink:title=" ">
<polygon fill="white" stroke="#666666" points="912,-190.25 714,-190.25 714,-160.25 912,-160.25 912,-190.25"/>
<text text-anchor="start" x="722" y="-178.25" font-family="Helvetica,sans-Serif" font-size="10.00">com.teragrep.pth_06.Archive</text>
<text text-anchor="middle" x="813" y="-167.25" font-family="Helvetica,sans-Serif" font-size="10.00">MicroStreamReader.deserializeOffset</text>
</a>
</g>
</g>
<!-- Node2&#45;&gt;Node12 -->
<g id="edge12_Node000002_Node000012" class="edge">
<title>Node2&#45;&gt;Node12</title>
<g id="a_edge12_Node000002_Node000012"><a xlink:title=" ">
<path fill="none" stroke="#63b8ff" d="M1030.15,-327.9C1011.41,-293.57 972.48,-231.54 921,-199.25 915.52,-195.81 909.6,-192.86 903.47,-190.34"/>
<polygon fill="#63b8ff" stroke="#63b8ff" points="1027.1,-329.62 1034.89,-336.8 1033.27,-326.33 1027.1,-329.62"/>
</a>
</g>
</g>
<!-- Node2&#45;&gt;Node13 -->
<g id="edge13_Node000002_Node000013" class="edge">
<title>Node2&#45;&gt;Node13</title>
<g id="a_edge13_Node000002_Node000013"><a xlink:title=" ">
<path fill="none" stroke="#63b8ff" d="M1033.52,-327.55C1009.23,-261.27 942.59,-83.27 921,-65.25 916.91,-61.84 912.43,-58.88 907.7,-56.33"/>
<polygon fill="#63b8ff" stroke="#63b8ff" points="1030.33,-329 1037.04,-337.19 1036.9,-326.6 1030.33,-329"/>
</a>
</g>
</g>
<!-- Node2&#45;&gt;Node14 -->
<g id="edge23_Node000002_Node000014" class="edge">
<title>Node2&#45;&gt;Node14</title>
<g id="a_edge23_Node000002_Node000014"><a xlink:title=" ">
<path fill="none" stroke="#63b8ff" d="M1035.04,-327.37C1020.65,-283.97 984.71,-194.9 921,-151.25 840.59,-96.16 797.45,-144.14 705,-113.25 661.6,-98.75 614.99,-72.78 587.58,-56.32"/>
<polygon fill="#63b8ff" stroke="#63b8ff" points="1031.78,-328.67 1038.17,-337.12 1038.45,-326.53 1031.78,-328.67"/>
</a>
</g>
</g>
<!-- Node17 -->
<g id="Node000017" class="node">
<title>Node17</title>
<g id="a_Node000017"><a xlink:href="classcom_1_1teragrep_1_1pth__06_1_1ArchiveMicroStreamReader.html#ac732dee6220acab0c21d55c0ea40255b" target="_top" xlink:title="Used when Spark requests the initial offset when starting a new query.">
<polygon fill="white" stroke="#666666" points="899.5,-104.25 726.5,-104.25 726.5,-74.25 899.5,-74.25 899.5,-104.25"/>
<text text-anchor="start" x="734.5" y="-92.25" font-family="Helvetica,sans-Serif" font-size="10.00">com.teragrep.pth_06.Archive</text>
<text text-anchor="middle" x="813" y="-81.25" font-family="Helvetica,sans-Serif" font-size="10.00">MicroStreamReader.initialOffset</text>
</a>
</g>
</g>
<!-- Node2&#45;&gt;Node17 -->
<g id="edge18_Node000002_Node000017" class="edge">
<title>Node2&#45;&gt;Node17</title>
<g id="a_edge18_Node000002_Node000017"><a xlink:title=" ">
<path fill="none" stroke="#63b8ff" d="M1036.62,-327.07C1024.05,-278.94 989.92,-173.79 921,-118.25 913.96,-112.58 905.89,-108.01 897.42,-104.33"/>
<polygon fill="#63b8ff" stroke="#63b8ff" points="1033.27,-328.11 1039.11,-336.96 1040.06,-326.41 1033.27,-328.11"/>
</a>
</g>
</g>
<!-- Node18 -->
<g id="Node000018" class="node">
<title>Node18</title>
<g id="a_Node000018"><a xlink:href="classcom_1_1teragrep_1_1pth__06_1_1ArchiveMicroStreamReader.html#ae820a68e1ec38574202423e1b649e9cc" target="_top" xlink:title="Used when Spark progresses the query further to fetch more data.">
<polygon fill="white" stroke="#666666" points="899.5,-720.25 726.5,-720.25 726.5,-690.25 899.5,-690.25 899.5,-720.25"/>
<text text-anchor="start" x="734.5" y="-708.25" font-family="Helvetica,sans-Serif" font-size="10.00">com.teragrep.pth_06.Archive</text>
<text text-anchor="middle" x="813" y="-697.25" font-family="Helvetica,sans-Serif" font-size="10.00">MicroStreamReader.latestOffset</text>
</a>
</g>
</g>
<!-- Node2&#45;&gt;Node18 -->
<g id="edge19_Node000002_Node000018" class="edge">
<title>Node2&#45;&gt;Node18</title>
<g id="a_edge19_Node000002_Node000018"><a xlink:title=" ">
<path fill="none" stroke="#63b8ff" d="M1041.05,-377.55C1036.08,-439.47 1014.37,-599.55 921,-681.25 914.7,-686.77 907.4,-691.1 899.63,-694.48"/>
<polygon fill="#63b8ff" stroke="#63b8ff" points="1044.55,-377.72 1041.78,-367.5 1037.57,-377.22 1044.55,-377.72"/>
</a>
</g>
</g>
<!-- Node19 -->
<g id="Node000019" class="node">
<title>Node19</title>
<g id="a_Node000019"><a xlink:href="classcom_1_1teragrep_1_1pth__06_1_1ArchiveMicroStreamReader.html#a36e4e32119c7727123f0afffcbb27780" target="_top" xlink:title=" ">
<polygon fill="white" stroke="#666666" points="914.5,-286.25 711.5,-286.25 711.5,-256.25 914.5,-256.25 914.5,-286.25"/>
<text text-anchor="start" x="719.5" y="-274.25" font-family="Helvetica,sans-Serif" font-size="10.00">com.teragrep.pth_06.Archive</text>
<text text-anchor="middle" x="813" y="-263.25" font-family="Helvetica,sans-Serif" font-size="10.00">MicroStreamReader.mostRecentOffset</text>
</a>
</g>
</g>
<!-- Node2&#45;&gt;Node19 -->
<g id="edge20_Node000002_Node000019" class="edge">
<title>Node2&#45;&gt;Node19</title>
<g id="a_edge20_Node000002_Node000019"><a xlink:title=" ">
<path fill="none" stroke="#63b8ff" d="M1005.23,-332.68C981.6,-320.88 950.09,-306.24 921,-296.25 910.26,-292.57 898.74,-289.24 887.37,-286.31"/>
<polygon fill="#63b8ff" stroke="#63b8ff" points="1003.7,-335.83 1014.21,-337.22 1006.86,-329.59 1003.7,-335.83"/>
</a>
</g>
</g>
<!-- Node20 -->
<g id="Node000020" class="node">
<title>Node20</title>
<g id="a_Node000020"><a xlink:href="classcom_1_1teragrep_1_1pth__06_1_1ArchiveMicroStreamReader.html#a38ac5d363a8989ca4a38286eed2d5a1d" target="_top" xlink:title="Forms the batch between start and end offsets and forms the input partitions from that batch.">
<polygon fill="white" stroke="#666666" points="916.5,-672.25 709.5,-672.25 709.5,-642.25 916.5,-642.25 916.5,-672.25"/>
<text text-anchor="start" x="717.5" y="-660.25" font-family="Helvetica,sans-Serif" font-size="10.00">com.teragrep.pth_06.Archive</text>
<text text-anchor="middle" x="813" y="-649.25" font-family="Helvetica,sans-Serif" font-size="10.00">MicroStreamReader.planInputPartitions</text>
</a>
</g>
</g>
<!-- Node2&#45;&gt;Node20 -->
<g id="edge22_Node000002_Node000020" class="edge">
<title>Node2&#45;&gt;Node20</title>
<g id="a_edge22_Node000002_Node000020"><a xlink:title=" ">
<path fill="none" stroke="#63b8ff" d="M1039.32,-377.23C1030.89,-432.5 1002.74,-565.56 921,-633.25 916.89,-636.65 912.41,-639.6 907.67,-642.14"/>
<polygon fill="#63b8ff" stroke="#63b8ff" points="1042.79,-377.66 1040.75,-367.26 1035.86,-376.66 1042.79,-377.66"/>
</a>
</g>
</g>
<!-- Node21 -->
<g id="Node000021" class="node">
<title>Node21</title>
<g id="a_Node000021"><a xlink:href="classcom_1_1teragrep_1_1pth__06_1_1ArchiveMicroStreamReader.html#ae37054d435fbdccc794afc19cd1a95da" target="_top" xlink:title=" ">
<polygon fill="white" stroke="#666666" points="892,-624.25 734,-624.25 734,-594.25 892,-594.25 892,-624.25"/>
<text text-anchor="start" x="742" y="-612.25" font-family="Helvetica,sans-Serif" font-size="10.00">com.teragrep.pth_06.Archive</text>
<text text-anchor="middle" x="813" y="-601.25" font-family="Helvetica,sans-Serif" font-size="10.00">MicroStreamReader.stop</text>
</a>
</g>
</g>
<!-- Node2&#45;&gt;Node21 -->
<g id="edge24_Node000002_Node000021" class="edge">
<title>Node2&#45;&gt;Node21</title>
<g id="a_edge24_Node000002_Node000021"><a xlink:title=" ">
<path fill="none" stroke="#63b8ff" d="M1036.89,-377.26C1024.71,-425.49 991.11,-531.36 921,-585.25 912.47,-591.81 902.5,-596.64 892.13,-600.19"/>
<polygon fill="#63b8ff" stroke="#63b8ff" points="1040.34,-377.9 1039.29,-367.35 1033.53,-376.25 1040.34,-377.9"/>
</a>
</g>
</g>
<!-- Node4&#45;&gt;Node5 -->
<g id="edge4_Node000004_Node000005" class="edge">
<title>Node4&#45;&gt;Node5</title>
<g id="a_edge4_Node000004_Node000005"><a xlink:title=" ">
<path fill="none" stroke="#63b8ff" d="M722.44,-482.82C699.07,-484.8 673.91,-486.92 650.66,-488.89"/>
<polygon fill="#63b8ff" stroke="#63b8ff" points="723.02,-486.28 732.69,-481.95 722.43,-479.31 723.02,-486.28"/>
</a>
</g>
</g>
<!-- Node6&#45;&gt;Node5 -->
<g id="edge6_Node000006_Node000005" class="edge">
<title>Node6&#45;&gt;Node5</title>
<g id="a_edge6_Node000006_Node000005"><a xlink:title=" ">
<path fill="none" stroke="#63b8ff" d="M731.06,-444.62C722.24,-446.75 713.41,-448.98 705,-451.25 672.03,-460.17 635.28,-471.92 607.5,-481.17"/>
<polygon fill="#63b8ff" stroke="#63b8ff" points="732.07,-447.98 740.99,-442.27 730.45,-441.17 732.07,-447.98"/>
</a>
</g>
</g>
<!-- Node9 -->
<g id="Node000009" class="node">
<title>Node9</title>
<g id="a_Node000009"><a xlink:href="classcom_1_1teragrep_1_1pth__06_1_1TeragrepScan.html#a602d40fbaa787d342efce68249ab6ea1" target="_top" xlink:title=" ">
<polygon fill="white" stroke="#666666" points="644,-316.25 481,-316.25 481,-286.25 644,-286.25 644,-316.25"/>
<text text-anchor="start" x="489" y="-304.25" font-family="Helvetica,sans-Serif" font-size="10.00">com.teragrep.pth_06.Teragrep</text>
<text text-anchor="middle" x="562.5" y="-293.25" font-family="Helvetica,sans-Serif" font-size="10.00">Scan.reportDriverMetrics</text>
</a>
</g>
</g>
<!-- Node8&#45;&gt;Node9 -->
<g id="edge9_Node000008_Node000009" class="edge">
<title>Node8&#45;&gt;Node9</title>
<g id="a_edge9_Node000008_Node000009"><a xlink:title=" ">
<path fill="none" stroke="#63b8ff" d="M704.35,-314.86C684.19,-312.91 663.45,-310.91 644.28,-309.05"/>
<polygon fill="#63b8ff" stroke="#63b8ff" points="704.21,-318.36 714.5,-315.84 704.88,-311.39 704.21,-318.36"/>
</a>
</g>
</g>
<!-- Node11 -->
<g id="Node000011" class="node">
<title>Node11</title>
<g id="a_Node000011"><a xlink:href="classcom_1_1teragrep_1_1pth__06_1_1planner_1_1ArchiveQueryProcessor.html#aa8d90622d53c4fd90e5dadb0e6dec340" target="_top" xlink:title=" ">
<polygon fill="white" stroke="#666666" points="669,-243.75 456,-243.75 456,-202.75 669,-202.75 669,-243.75"/>
<text text-anchor="start" x="464" y="-231.75" font-family="Helvetica,sans-Serif" font-size="10.00">com.teragrep.pth_06.planner.</text>
<text text-anchor="start" x="464" y="-220.75" font-family="Helvetica,sans-Serif" font-size="10.00">ArchiveQueryProcessor.currentDatabase</text>
<text text-anchor="middle" x="562.5" y="-209.75" font-family="Helvetica,sans-Serif" font-size="10.00">Metrics</text>
</a>
</g>
</g>
<!-- Node10&#45;&gt;Node11 -->
<g id="edge11_Node000010_Node000011" class="edge">
<title>Node10&#45;&gt;Node11</title>
<g id="a_edge11_Node000010_Node000011"><a xlink:title=" ">
<path fill="none" stroke="#63b8ff" d="M695.03,-223.25C686.36,-223.25 677.65,-223.25 669.06,-223.25"/>
<polygon fill="#63b8ff" stroke="#63b8ff" points="695.17,-226.75 705.17,-223.25 695.17,-219.75 695.17,-226.75"/>
</a>
</g>
</g>
<!-- Node13&#45;&gt;Node14 -->
<g id="edge14_Node000013_Node000014" class="edge">
<title>Node13&#45;&gt;Node14</title>
<g id="a_edge14_Node000013_Node000014"><a xlink:title=" ">
<path fill="none" stroke="#63b8ff" d="M703.36,-41.25C685.56,-41.25 667.32,-41.25 650.14,-41.25"/>
<polygon fill="#63b8ff" stroke="#63b8ff" points="703.79,-44.75 713.79,-41.25 703.79,-37.75 703.79,-44.75"/>
</a>
</g>
</g>
<!-- Node15 -->
<g id="Node000015" class="node">
<title>Node15</title>
<g id="a_Node000015"><a xlink:href="classcom_1_1teragrep_1_1pth__06_1_1planner_1_1ArchiveQueryProcessor.html#a646c09c6ba9331c48df86960f4fa8bcb" target="_top" xlink:title="Increments the latest offset value and returns that incremented offset.">
<polygon fill="white" stroke="#666666" points="182,-61.75 0,-61.75 0,-20.75 182,-20.75 182,-61.75"/>
<text text-anchor="start" x="8" y="-49.75" font-family="Helvetica,sans-Serif" font-size="10.00">com.teragrep.pth_06.planner.</text>
<text text-anchor="start" x="8" y="-38.75" font-family="Helvetica,sans-Serif" font-size="10.00">ArchiveQueryProcessor.increment</text>
<text text-anchor="middle" x="91" y="-27.75" font-family="Helvetica,sans-Serif" font-size="10.00">AndGetLatestOffset</text>
</a>
</g>
</g>
<!-- Node14&#45;&gt;Node15 -->
<g id="edge15_Node000014_Node000015" class="edge">
<title>Node14&#45;&gt;Node15</title>
<g id="a_edge15_Node000014_Node000015"><a xlink:title=" ">
<path fill="none" stroke="#63b8ff" d="M464.45,-43.58C449.57,-43.86 434.37,-44.1 420,-44.25 330.23,-45.2 307.77,-45.32 218,-44.25 206.4,-44.11 194.21,-43.91 182.16,-43.66"/>
<polygon fill="#63b8ff" stroke="#63b8ff" points="464.77,-47.08 474.7,-43.38 464.63,-40.08 464.77,-47.08"/>
</a>
</g>
</g>
<!-- Node16 -->
<g id="Node000016" class="node">
<title>Node16</title>
<g id="a_Node000016"><a xlink:href="classcom_1_1teragrep_1_1pth__06_1_1planner_1_1ArchiveQueryProcessor.html#a3e2e817526f72a254cd6358389a5b7f2" target="_top" xlink:title="Increment the rolling day and pull data for that day into the sliceTable.">
<polygon fill="white" stroke="#666666" points="420,-35.25 218,-35.25 218,-5.25 420,-5.25 420,-35.25"/>
<text text-anchor="start" x="226" y="-23.25" font-family="Helvetica,sans-Serif" font-size="10.00">com.teragrep.pth_06.planner.</text>
<text text-anchor="middle" x="319" y="-12.25" font-family="Helvetica,sans-Serif" font-size="10.00">ArchiveQueryProcessor.seekToResults</text>
</a>
</g>
</g>
<!-- Node14&#45;&gt;Node16 -->
<g id="edge16_Node000014_Node000016" class="edge">
<title>Node14&#45;&gt;Node16</title>
<g id="a_edge16_Node000014_Node000016"><a xlink:title=" ">
<path fill="none" stroke="#63b8ff" d="M464.92,-32.85C450.24,-31.58 435.05,-30.26 420.29,-28.97"/>
<polygon fill="#63b8ff" stroke="#63b8ff" points="464.73,-36.35 475,-33.73 465.34,-29.38 464.73,-36.35"/>
</a>
</g>
</g>
<!-- Node16&#45;&gt;Node15 -->
<g id="edge17_Node000016_Node000015" class="edge">
<title>Node16&#45;&gt;Node15</title>
<g id="a_edge17_Node000016_Node000015"><a xlink:title=" ">
<path fill="none" stroke="#63b8ff" d="M207.79,-30.49C199.17,-31.29 190.53,-32.1 182.07,-32.88"/>
<polygon fill="#63b8ff" stroke="#63b8ff" points="208.25,-33.97 217.89,-29.56 207.61,-27 208.25,-33.97"/>
</a>
</g>
</g>
<!-- Node19&#45;&gt;Node9 -->
<g id="edge21_Node000019_Node000009" class="edge">
<title>Node19&#45;&gt;Node9</title>
<g id="a_edge21_Node000019_Node000009"><a xlink:title=" ">
<path fill="none" stroke="#63b8ff" d="M701.28,-284.62C682.05,-286.94 662.39,-289.31 644.16,-291.52"/>
<polygon fill="#63b8ff" stroke="#63b8ff" points="701.78,-288.08 711.28,-283.41 700.94,-281.14 701.78,-288.08"/>
</a>
</g>
</g>
</g>
</svg>
