<?xml version="1.0" encoding="UTF-8" standalone="no"?>
<!DOCTYPE svg PUBLIC "-//W3C//DTD SVG 1.1//EN"
 "http://www.w3.org/Graphics/SVG/1.1/DTD/svg11.dtd">
<!-- Generated by graphviz version 2.43.0 (0)
 -->
<!-- Title: com.teragrep.pth_06.config.ArchiveConfigTest.options Pages: 1 -->
<svg width="394pt" height="442pt"
 viewBox="0.00 0.00 394.00 441.50" xmlns="http://www.w3.org/2000/svg" xmlns:xlink="http://www.w3.org/1999/xlink">
<g id="graph0" class="graph" transform="scale(1 1) rotate(0) translate(4 437.5)">
<title>com.teragrep.pth_06.config.ArchiveConfigTest.options</title>
<!-- Node1 -->
<g id="Node000001" class="node">
<title>Node1</title>
<g id="a_Node000001"><a xlink:title=" ">
<polygon fill="#999999" stroke="#666666" points="386,-234.5 233,-234.5 233,-204.5 386,-204.5 386,-234.5"/>
<text text-anchor="start" x="241" y="-222.5" font-family="Helvetica,sans-Serif" font-size="10.00">com.teragrep.pth_06.config.</text>
<text text-anchor="middle" x="309.5" y="-211.5" font-family="Helvetica,sans-Serif" font-size="10.00">ArchiveConfigTest.options</text>
</a>
</g>
</g>
<!-- Node2 -->
<g id="Node000002" class="node">
<title>Node2</title>
<g id="a_Node000002"><a xlink:href="classcom_1_1teragrep_1_1pth__06_1_1config_1_1ArchiveConfigTest.html#aea8a63280ecf3f9f9ae0a47b3a771a68" target="_top" xlink:title=" ">
<polygon fill="white" stroke="#666666" points="196.5,-433.5 0.5,-433.5 0.5,-403.5 196.5,-403.5 196.5,-433.5"/>
<text text-anchor="start" x="8.5" y="-421.5" font-family="Helvetica,sans-Serif" font-size="10.00">com.teragrep.pth_06.config.</text>
<text text-anchor="middle" x="98.5" y="-410.5" font-family="Helvetica,sans-Serif" font-size="10.00">ArchiveConfigTest.testBloomEnabled</text>
</a>
</g>
</g>
<!-- Node1&#45;&gt;Node2 -->
<g id="edge1_Node000001_Node000002" class="edge">
<title>Node1&#45;&gt;Node2</title>
<g id="a_edge1_Node000001_Node000002"><a xlink:title=" ">
<path fill="none" stroke="#63b8ff" d="M299.79,-244.04C284.91,-282.31 250.87,-355.84 197,-394.5 192.18,-397.96 186.93,-400.92 181.43,-403.45"/>
<polygon fill="#63b8ff" stroke="#63b8ff" points="303.07,-245.26 303.33,-234.67 296.52,-242.79 303.07,-245.26"/>
</a>
</g>
</g>
<!-- Node3 -->
<g id="Node000003" class="node">
<title>Node3</title>
<g id="a_Node000003"><a xlink:href="classcom_1_1teragrep_1_1pth__06_1_1config_1_1ArchiveConfigTest.html#aa8fe53254225e9dbab4f0528d5000100" target="_top" xlink:title=" ">
<polygon fill="white" stroke="#666666" points="196.5,-385 0.5,-385 0.5,-344 196.5,-344 196.5,-385"/>
<text text-anchor="start" x="8.5" y="-373" font-family="Helvetica,sans-Serif" font-size="10.00">com.teragrep.pth_06.config.</text>
<text text-anchor="start" x="8.5" y="-362" font-family="Helvetica,sans-Serif" font-size="10.00">ArchiveConfigTest.testBloomEnabled</text>
<text text-anchor="middle" x="98.5" y="-351" font-family="Helvetica,sans-Serif" font-size="10.00">DefaultOff</text>
</a>
</g>
</g>
<!-- Node1&#45;&gt;Node3 -->
<g id="edge2_Node000001_Node000003" class="edge">
<title>Node1&#45;&gt;Node3</title>
<g id="a_edge2_Node000001_Node000003"><a xlink:title=" ">
<path fill="none" stroke="#63b8ff" d="M291.93,-242.96C272.2,-269.21 236.87,-311.21 197,-335.5 191.87,-338.62 186.39,-341.43 180.73,-343.95"/>
<polygon fill="#63b8ff" stroke="#63b8ff" points="294.89,-244.84 298,-234.71 289.25,-240.69 294.89,-244.84"/>
</a>
</g>
</g>
<!-- Node4 -->
<g id="Node000004" class="node">
<title>Node4</title>
<g id="a_Node000004"><a xlink:href="classcom_1_1teragrep_1_1pth__06_1_1config_1_1ArchiveConfigTest.html#a3e7f021984b819fa6c575a3149b3a7c3" target="_top" xlink:title=" ">
<polygon fill="white" stroke="#666666" points="197,-326 0,-326 0,-285 197,-285 197,-326"/>
<text text-anchor="start" x="8" y="-314" font-family="Helvetica,sans-Serif" font-size="10.00">com.teragrep.pth_06.config.</text>
<text text-anchor="start" x="8" y="-303" font-family="Helvetica,sans-Serif" font-size="10.00">ArchiveConfigTest.testDefaultInclude</text>
<text text-anchor="middle" x="98.5" y="-292" font-family="Helvetica,sans-Serif" font-size="10.00">BeforeEpoch</text>
</a>
</g>
</g>
<!-- Node1&#45;&gt;Node4 -->
<g id="edge3_Node000001_Node000004" class="edge">
<title>Node1&#45;&gt;Node4</title>
<g id="a_edge3_Node000001_Node000004"><a xlink:title=" ">
<path fill="none" stroke="#63b8ff" d="M273.31,-239.6C251.74,-251.38 223.31,-265.96 197,-276.5 189.54,-279.49 181.65,-282.33 173.72,-284.98"/>
<polygon fill="#63b8ff" stroke="#63b8ff" points="275.04,-242.64 282.11,-234.74 271.66,-236.51 275.04,-242.64"/>
</a>
</g>
</g>
<!-- Node5 -->
<g id="Node000005" class="node">
<title>Node5</title>
<g id="a_Node000005"><a xlink:href="classcom_1_1teragrep_1_1pth__06_1_1config_1_1ArchiveConfigTest.html#a92f75899193781c12bdf567bc99744f0" target="_top" xlink:title=" ">
<polygon fill="white" stroke="#666666" points="190,-267 7,-267 7,-226 190,-226 190,-267"/>
<text text-anchor="start" x="15" y="-255" font-family="Helvetica,sans-Serif" font-size="10.00">com.teragrep.pth_06.config.</text>
<text text-anchor="start" x="15" y="-244" font-family="Helvetica,sans-Serif" font-size="10.00">ArchiveConfigTest.testWithInclude</text>
<text text-anchor="middle" x="98.5" y="-233" font-family="Helvetica,sans-Serif" font-size="10.00">BeforeEpoch</text>
</a>
</g>
</g>
<!-- Node1&#45;&gt;Node5 -->
<g id="edge4_Node000001_Node000005" class="edge">
<title>Node1&#45;&gt;Node5</title>
<g id="a_edge4_Node000001_Node000005"><a xlink:title=" ">
<path fill="none" stroke="#63b8ff" d="M222.62,-230.59C211.96,-231.97 201.03,-233.38 190.29,-234.77"/>
<polygon fill="#63b8ff" stroke="#63b8ff" points="223.28,-234.04 232.75,-229.29 222.38,-227.1 223.28,-234.04"/>
</a>
</g>
</g>
<!-- Node6 -->
<g id="Node000006" class="node">
<title>Node6</title>
<g id="a_Node000006"><a xlink:href="classcom_1_1teragrep_1_1pth__06_1_1config_1_1ArchiveConfigTest.html#a79e143e7b70c6569262158a7b8e36752" target="_top" xlink:title=" ">
<polygon fill="white" stroke="#666666" points="195.5,-207.5 1.5,-207.5 1.5,-177.5 195.5,-177.5 195.5,-207.5"/>
<text text-anchor="start" x="9.5" y="-195.5" font-family="Helvetica,sans-Serif" font-size="10.00">com.teragrep.pth_06.config.</text>
<text text-anchor="middle" x="98.5" y="-184.5" font-family="Helvetica,sans-Serif" font-size="10.00">ArchiveConfigTest.testWithoutFilters</text>
</a>
</g>
</g>
<!-- Node1&#45;&gt;Node6 -->
<g id="edge5_Node000001_Node000006" class="edge">
<title>Node1&#45;&gt;Node6</title>
<g id="a_edge5_Node000001_Node000006"><a xlink:title=" ">
<path fill="none" stroke="#63b8ff" d="M222.77,-208.42C213.85,-207.27 204.74,-206.1 195.71,-204.93"/>
<polygon fill="#63b8ff" stroke="#63b8ff" points="222.38,-211.9 232.75,-209.71 223.28,-204.96 222.38,-211.9"/>
</a>
</g>
</g>
<!-- Node7 -->
<g id="Node000007" class="node">
<title>Node7</title>
<g id="a_Node000007"><a xlink:href="classcom_1_1teragrep_1_1pth__06_1_1config_1_1ArchiveConfigTest.html#a3bf5c530b57009807fe8791b8e98b549" target="_top" xlink:title=" ">
<polygon fill="white" stroke="#666666" points="195.5,-159 1.5,-159 1.5,-118 195.5,-118 195.5,-159"/>
<text text-anchor="start" x="9.5" y="-147" font-family="Helvetica,sans-Serif" font-size="10.00">com.teragrep.pth_06.config.</text>
<text text-anchor="start" x="9.5" y="-136" font-family="Helvetica,sans-Serif" font-size="10.00">ArchiveConfigTest.testWithoutFilters</text>
<text text-anchor="middle" x="98.5" y="-125" font-family="Helvetica,sans-Serif" font-size="10.00">BloomEnabled</text>
</a>
</g>
</g>
<!-- Node1&#45;&gt;Node7 -->
<g id="edge6_Node000001_Node000007" class="edge">
<title>Node1&#45;&gt;Node7</title>
<g id="a_edge6_Node000001_Node000007"><a xlink:title=" ">
<path fill="none" stroke="#63b8ff" d="M268.92,-199.87C247.85,-189.81 221.32,-177.76 197,-168.5 188.39,-165.22 179.26,-162.04 170.17,-159.05"/>
<polygon fill="#63b8ff" stroke="#63b8ff" points="267.67,-203.15 278.2,-204.34 270.7,-196.84 267.67,-203.15"/>
</a>
</g>
</g>
<!-- Node8 -->
<g id="Node000008" class="node">
<title>Node8</title>
<g id="a_Node000008"><a xlink:href="classcom_1_1teragrep_1_1pth__06_1_1config_1_1ArchiveConfigTest.html#a0c3290ddd8dccd1998129525126522ab" target="_top" xlink:title=" ">
<polygon fill="white" stroke="#666666" points="195.5,-100 1.5,-100 1.5,-59 195.5,-59 195.5,-100"/>
<text text-anchor="start" x="9.5" y="-88" font-family="Helvetica,sans-Serif" font-size="10.00">com.teragrep.pth_06.config.</text>
<text text-anchor="start" x="9.5" y="-77" font-family="Helvetica,sans-Serif" font-size="10.00">ArchiveConfigTest.testWithoutFilters</text>
<text text-anchor="middle" x="98.5" y="-66" font-family="Helvetica,sans-Serif" font-size="10.00">DefaultBloomEnabled</text>
</a>
</g>
</g>
<!-- Node1&#45;&gt;Node8 -->
<g id="edge7_Node000001_Node000008" class="edge">
<title>Node1&#45;&gt;Node8</title>
<g id="a_edge7_Node000001_Node000008"><a xlink:title=" ">
<path fill="none" stroke="#63b8ff" d="M290.96,-196.55C270.84,-171.7 235.59,-132.56 197,-109.5 191.15,-106 184.85,-102.88 178.37,-100.1"/>
<polygon fill="#63b8ff" stroke="#63b8ff" points="288.23,-198.73 297.19,-204.38 293.71,-194.38 288.23,-198.73"/>
</a>
</g>
</g>
<!-- Node9 -->
<g id="Node000009" class="node">
<title>Node9</title>
<g id="a_Node000009"><a xlink:href="classcom_1_1teragrep_1_1pth__06_1_1config_1_1ArchiveConfigTest.html#a85df6af6cb5efe07cb76560c7f0c0874" target="_top" xlink:title=" ">
<polygon fill="white" stroke="#666666" points="195.5,-41 1.5,-41 1.5,0 195.5,0 195.5,-41"/>
<text text-anchor="start" x="9.5" y="-29" font-family="Helvetica,sans-Serif" font-size="10.00">com.teragrep.pth_06.config.</text>
<text text-anchor="start" x="9.5" y="-18" font-family="Helvetica,sans-Serif" font-size="10.00">ArchiveConfigTest.testWithoutFilters</text>
<text text-anchor="middle" x="98.5" y="-7" font-family="Helvetica,sans-Serif" font-size="10.00">DefaultOff</text>
</a>
</g>
</g>
<!-- Node1&#45;&gt;Node9 -->
<g id="edge8_Node000001_Node000009" class="edge">
<title>Node1&#45;&gt;Node9</title>
<g id="a_edge8_Node000001_Node000009"><a xlink:title=" ">
<path fill="none" stroke="#63b8ff" d="M298.74,-194.85C282.92,-158.02 248.17,-88.84 197,-50.5 192.32,-47 187.23,-43.9 181.91,-41.16"/>
<polygon fill="#63b8ff" stroke="#63b8ff" points="295.62,-196.46 302.7,-204.33 302.08,-193.76 295.62,-196.46"/>
</a>
</g>
</g>
</g>
</svg>
