<?xml version="1.0" encoding="UTF-8" standalone="no"?>
<!DOCTYPE svg PUBLIC "-//W3C//DTD SVG 1.1//EN"
 "http://www.w3.org/Graphics/SVG/1.1/DTD/svg11.dtd">
<!-- Generated by graphviz version 2.43.0 (0)
 -->
<!-- Title: Graphical Class Hierarchy Pages: 1 -->
<svg width="311pt" height="374pt"
 viewBox="0.00 0.00 311.00 374.00" xmlns="http://www.w3.org/2000/svg" xmlns:xlink="http://www.w3.org/1999/xlink">
<g id="graph0" class="graph" transform="scale(1 1) rotate(0) translate(4 370)">
<title>Graphical Class Hierarchy</title>
<!-- Node0 -->
<g id="Node000000" class="node">
<title>Node0</title>
<g id="a_Node000000"><a xlink:title=" ">
<polygon fill="#e0e0e0" stroke="#999999" points="76,-336.5 0,-336.5 0,-317.5 76,-317.5 76,-336.5"/>
<text text-anchor="middle" x="38" y="-324.5" font-family="Helvetica,sans-Serif" font-size="10.00">Comparable</text>
</a>
</g>
</g>
<!-- Node1 -->
<g id="Node000001" class="node">
<title>Node1</title>
<g id="a_Node000001"><a xlink:href="classcom_1_1teragrep_1_1pth__06_1_1scheduler_1_1BatchTaskQueue.html" target="_top" xlink:title=" ">
<polygon fill="white" stroke="#666666" points="292.5,-366 122.5,-366 122.5,-336 292.5,-336 292.5,-366"/>
<text text-anchor="start" x="130.5" y="-354" font-family="Helvetica,sans-Serif" font-size="10.00">com.teragrep.pth_06.scheduler.</text>
<text text-anchor="middle" x="207.5" y="-343" font-family="Helvetica,sans-Serif" font-size="10.00">BatchTaskQueue</text>
</a>
</g>
</g>
<!-- Node0&#45;&gt;Node1 -->
<g id="edge35_Node000000_Node000001" class="edge">
<title>Node0&#45;&gt;Node1</title>
<g id="a_edge35_Node000000_Node000001"><a xlink:title=" ">
<path fill="none" stroke="#63b8ff" d="M86.24,-333.77C97.57,-335.39 110.02,-337.18 122.47,-338.96"/>
<polygon fill="#63b8ff" stroke="#63b8ff" points="86.57,-330.28 76.17,-332.33 85.58,-337.21 86.57,-330.28"/>
</a>
</g>
</g>
<!-- Node2 -->
<g id="Node000002" class="node">
<title>Node2</title>
<g id="a_Node000002"><a xlink:href="classcom_1_1teragrep_1_1pth__06_1_1scheduler_1_1BatchUnit.html" target="_top" xlink:title=" ">
<polygon fill="white" stroke="#666666" points="292.5,-318 122.5,-318 122.5,-288 292.5,-288 292.5,-318"/>
<text text-anchor="start" x="130.5" y="-306" font-family="Helvetica,sans-Serif" font-size="10.00">com.teragrep.pth_06.scheduler.</text>
<text text-anchor="middle" x="207.5" y="-295" font-family="Helvetica,sans-Serif" font-size="10.00">BatchUnit</text>
</a>
</g>
</g>
<!-- Node0&#45;&gt;Node2 -->
<g id="edge36_Node000000_Node000002" class="edge">
<title>Node0&#45;&gt;Node2</title>
<g id="a_edge36_Node000000_Node000002"><a xlink:title=" ">
<path fill="none" stroke="#63b8ff" d="M86.24,-320.23C97.57,-318.61 110.02,-316.82 122.47,-315.04"/>
<polygon fill="#63b8ff" stroke="#63b8ff" points="85.58,-316.79 76.17,-321.67 86.57,-323.72 85.58,-316.79"/>
</a>
</g>
</g>
<!-- Node7 -->
<g id="Node000007" class="node">
<title>Node7</title>
<g id="a_Node000007"><a xlink:title=" ">
<polygon fill="#e0e0e0" stroke="#999999" points="61,-240.5 15,-240.5 15,-221.5 61,-221.5 61,-240.5"/>
<text text-anchor="middle" x="38" y="-228.5" font-family="Helvetica,sans-Serif" font-size="10.00">Offset</text>
</a>
</g>
</g>
<!-- Node6 -->
<g id="Node000006" class="node">
<title>Node6</title>
<g id="a_Node000006"><a xlink:href="classcom_1_1teragrep_1_1pth__06_1_1planner_1_1offset_1_1DatasourceOffset.html" target="_top" xlink:title=" ">
<polygon fill="white" stroke="#666666" points="303,-270 112,-270 112,-240 303,-240 303,-270"/>
<text text-anchor="start" x="120" y="-258" font-family="Helvetica,sans-Serif" font-size="10.00">com.teragrep.pth_06.planner.offset.</text>
<text text-anchor="middle" x="207.5" y="-247" font-family="Helvetica,sans-Serif" font-size="10.00">DatasourceOffset</text>
</a>
</g>
</g>
<!-- Node7&#45;&gt;Node6 -->
<g id="edge37_Node000007_Node000006" class="edge">
<title>Node7&#45;&gt;Node6</title>
<g id="a_edge37_Node000007_Node000006"><a xlink:title=" ">
<path fill="none" stroke="#63b8ff" d="M71.42,-235.64C83.23,-237.34 97.26,-239.35 111.73,-241.42"/>
<polygon fill="#63b8ff" stroke="#63b8ff" points="71.64,-232.14 61.24,-234.19 70.65,-239.07 71.64,-232.14"/>
</a>
</g>
</g>
<!-- Node8 -->
<g id="Node000008" class="node">
<title>Node8</title>
<g id="a_Node000008"><a xlink:href="classcom_1_1teragrep_1_1pth__06_1_1planner_1_1offset_1_1KafkaOffset.html" target="_top" xlink:title=" ">
<polygon fill="white" stroke="#666666" points="303,-222 112,-222 112,-192 303,-192 303,-222"/>
<text text-anchor="start" x="120" y="-210" font-family="Helvetica,sans-Serif" font-size="10.00">com.teragrep.pth_06.planner.offset.</text>
<text text-anchor="middle" x="207.5" y="-199" font-family="Helvetica,sans-Serif" font-size="10.00">KafkaOffset</text>
</a>
</g>
</g>
<!-- Node7&#45;&gt;Node8 -->
<g id="edge38_Node000007_Node000008" class="edge">
<title>Node7&#45;&gt;Node8</title>
<g id="a_edge38_Node000007_Node000008"><a xlink:title=" ">
<path fill="none" stroke="#63b8ff" d="M71.42,-226.36C83.23,-224.66 97.26,-222.65 111.73,-220.58"/>
<polygon fill="#63b8ff" stroke="#63b8ff" points="70.65,-222.93 61.24,-227.81 71.64,-229.86 70.65,-222.93"/>
</a>
</g>
</g>
<!-- Node3 -->
<g id="Node000003" class="node">
<title>Node3</title>
<g id="a_Node000003"><a xlink:title=" ">
<polygon fill="#e0e0e0" stroke="#999999" points="75,-168.5 1,-168.5 1,-149.5 75,-149.5 75,-168.5"/>
<text text-anchor="middle" x="38" y="-156.5" font-family="Helvetica,sans-Serif" font-size="10.00">Serializable</text>
</a>
</g>
</g>
<!-- Node3&#45;&gt;Node2 -->
<g id="edge44_Node000003_Node000002" class="edge">
<title>Node3&#45;&gt;Node2</title>
<g id="a_edge44_Node000003_Node000002"><a xlink:title=" ">
<path fill="none" stroke="#63b8ff" d="M52,-176.98C59.31,-187.34 68.46,-200.71 76,-213 93.47,-241.49 85.61,-258.51 112,-279 116.41,-282.43 121.26,-285.37 126.35,-287.89"/>
<polygon fill="#63b8ff" stroke="#63b8ff" points="54.78,-174.86 46.13,-168.75 49.09,-178.93 54.78,-174.86"/>
</a>
</g>
</g>
<!-- Node3&#45;&gt;Node6 -->
<g id="edge41_Node000003_Node000006" class="edge">
<title>Node3&#45;&gt;Node6</title>
<g id="a_edge41_Node000003_Node000006"><a xlink:title=" ">
<path fill="none" stroke="#63b8ff" d="M52.4,-176.83C65.73,-193.32 87.67,-217.27 112,-231 118.04,-234.41 124.58,-237.34 131.29,-239.86"/>
<polygon fill="#63b8ff" stroke="#63b8ff" points="54.84,-174.27 45.92,-168.56 49.33,-178.59 54.84,-174.27"/>
</a>
</g>
</g>
<!-- Node3&#45;&gt;Node8 -->
<g id="edge42_Node000003_Node000008" class="edge">
<title>Node3&#45;&gt;Node8</title>
<g id="a_edge42_Node000003_Node000008"><a xlink:title=" ">
<path fill="none" stroke="#63b8ff" d="M76.26,-171.8C87.68,-175.57 100.31,-179.6 112,-183 122.56,-186.07 133.86,-189.13 144.83,-191.99"/>
<polygon fill="#63b8ff" stroke="#63b8ff" points="77.19,-168.42 66.59,-168.57 74.97,-175.06 77.19,-168.42"/>
</a>
</g>
</g>
<!-- Node4 -->
<g id="Node000004" class="node">
<title>Node4</title>
<g id="a_Node000004"><a xlink:href="classcom_1_1teragrep_1_1pth__06_1_1ArchiveS3ObjectMetadata.html" target="_top" xlink:title=" ">
<polygon fill="white" stroke="#666666" points="286.5,-174 128.5,-174 128.5,-144 286.5,-144 286.5,-174"/>
<text text-anchor="start" x="136.5" y="-162" font-family="Helvetica,sans-Serif" font-size="10.00">com.teragrep.pth_06.Archive</text>
<text text-anchor="middle" x="207.5" y="-151" font-family="Helvetica,sans-Serif" font-size="10.00">S3ObjectMetadata</text>
</a>
</g>
</g>
<!-- Node3&#45;&gt;Node4 -->
<g id="edge39_Node000003_Node000004" class="edge">
<title>Node3&#45;&gt;Node4</title>
<g id="a_edge39_Node000003_Node000004"><a xlink:title=" ">
<path fill="none" stroke="#63b8ff" d="M85.61,-159C98.87,-159 113.69,-159 128.28,-159"/>
<polygon fill="#63b8ff" stroke="#63b8ff" points="85.35,-155.5 75.35,-159 85.34,-162.5 85.35,-155.5"/>
</a>
</g>
</g>
<!-- Node5 -->
<g id="Node000005" class="node">
<title>Node5</title>
<g id="a_Node000005"><a xlink:href="classcom_1_1teragrep_1_1pth__06_1_1KafkaTopicPartitionOffsetMetadata.html" target="_top" xlink:title=" ">
<polygon fill="white" stroke="#666666" points="286.5,-126 128.5,-126 128.5,-96 286.5,-96 286.5,-126"/>
<text text-anchor="start" x="136.5" y="-114" font-family="Helvetica,sans-Serif" font-size="10.00">com.teragrep.pth_06.Kafka</text>
<text text-anchor="middle" x="207.5" y="-103" font-family="Helvetica,sans-Serif" font-size="10.00">TopicPartitionOffsetMetadata</text>
</a>
</g>
</g>
<!-- Node3&#45;&gt;Node5 -->
<g id="edge40_Node000003_Node000005" class="edge">
<title>Node3&#45;&gt;Node5</title>
<g id="a_edge40_Node000003_Node000005"><a xlink:title=" ">
<path fill="none" stroke="#63b8ff" d="M76.26,-146.2C87.68,-142.43 100.31,-138.4 112,-135 122.56,-131.93 133.86,-128.87 144.83,-126.01"/>
<polygon fill="#63b8ff" stroke="#63b8ff" points="74.97,-142.94 66.59,-149.43 77.19,-149.58 74.97,-142.94"/>
</a>
</g>
</g>
<!-- Node9 -->
<g id="Node000009" class="node">
<title>Node9</title>
<g id="a_Node000009"><a xlink:href="classcom_1_1teragrep_1_1pth__06_1_1planner_1_1offset_1_1SerializedDatasourceOffset.html" target="_top" xlink:title=" ">
<polygon fill="white" stroke="#666666" points="303,-78 112,-78 112,-48 303,-48 303,-78"/>
<text text-anchor="start" x="120" y="-66" font-family="Helvetica,sans-Serif" font-size="10.00">com.teragrep.pth_06.planner.offset.</text>
<text text-anchor="middle" x="207.5" y="-55" font-family="Helvetica,sans-Serif" font-size="10.00">SerializedDatasourceOffset</text>
</a>
</g>
</g>
<!-- Node3&#45;&gt;Node9 -->
<g id="edge43_Node000003_Node000009" class="edge">
<title>Node3&#45;&gt;Node9</title>
<g id="a_edge43_Node000003_Node000009"><a xlink:title=" ">
<path fill="none" stroke="#63b8ff" d="M52.4,-141.17C65.73,-124.68 87.67,-100.73 112,-87 118.04,-83.59 124.58,-80.66 131.29,-78.14"/>
<polygon fill="#63b8ff" stroke="#63b8ff" points="49.33,-139.41 45.92,-149.44 54.84,-143.73 49.33,-139.41"/>
</a>
</g>
</g>
<!-- Node10 -->
<g id="Node000010" class="node">
<title>Node10</title>
<g id="a_Node000010"><a xlink:href="classcom_1_1teragrep_1_1pth__06_1_1task_1_1Metadata.html" target="_top" xlink:title=" ">
<polygon fill="white" stroke="#666666" points="280,-30 135,-30 135,0 280,0 280,-30"/>
<text text-anchor="start" x="143" y="-18" font-family="Helvetica,sans-Serif" font-size="10.00">com.teragrep.pth_06.task.</text>
<text text-anchor="middle" x="207.5" y="-7" font-family="Helvetica,sans-Serif" font-size="10.00">Metadata</text>
</a>
</g>
</g>
<!-- Node3&#45;&gt;Node10 -->
<g id="edge45_Node000003_Node000010" class="edge">
<title>Node3&#45;&gt;Node10</title>
<g id="a_edge45_Node000003_Node000010"><a xlink:title=" ">
<path fill="none" stroke="#63b8ff" d="M45.41,-139.74C55.33,-112.96 77.01,-64.86 112,-39 118.81,-33.97 126.56,-29.99 134.63,-26.84"/>
<polygon fill="#63b8ff" stroke="#63b8ff" points="42,-138.89 41.97,-149.48 48.6,-141.22 42,-138.89"/>
</a>
</g>
</g>
</g>
</svg>
