<?xml version="1.0" encoding="UTF-8" standalone="no"?>
<!DOCTYPE svg PUBLIC "-//W3C//DTD SVG 1.1//EN"
 "http://www.w3.org/Graphics/SVG/1.1/DTD/svg11.dtd">
<!-- Generated by graphviz version 2.43.0 (0)
 -->
<!-- Title: com.teragrep.pth_06.planner.bloomfilter.SearchTermBloomFilter.SearchTermBloomFilter Pages: 1 -->
<svg width="504pt" height="56pt"
 viewBox="0.00 0.00 504.00 56.00" xmlns="http://www.w3.org/2000/svg" xmlns:xlink="http://www.w3.org/1999/xlink">
<g id="graph0" class="graph" transform="scale(1 1) rotate(0) translate(4 52)">
<title>com.teragrep.pth_06.planner.bloomfilter.SearchTermBloomFilter.SearchTermBloomFilter</title>
<!-- Node1 -->
<g id="Node000001" class="node">
<title>Node1</title>
<g id="a_Node000001"><a xlink:title=" ">
<polygon fill="#999999" stroke="#666666" points="245,-30 0,-30 0,0 245,0 245,-30"/>
<text text-anchor="start" x="8" y="-18" font-family="Helvetica,sans-Serif" font-size="10.00">com.teragrep.pth_06.planner.bloomfilter.</text>
<text text-anchor="middle" x="122.5" y="-7" font-family="Helvetica,sans-Serif" font-size="10.00">SearchTermBloomFilter.SearchTermBloomFilter</text>
</a>
</g>
</g>
<!-- Node2 -->
<g id="Node000002" class="node">
<title>Node2</title>
<g id="a_Node000002"><a xlink:href="classcom_1_1teragrep_1_1pth__06_1_1planner_1_1bloomfilter_1_1RegexExtractedValue.html#a65ee79e9e68930a9a809f3d6a86dd500" target="_top" xlink:title=" ">
<polygon fill="white" stroke="#666666" points="496,-30 281,-30 281,0 496,0 496,-30"/>
<text text-anchor="start" x="289" y="-18" font-family="Helvetica,sans-Serif" font-size="10.00">com.teragrep.pth_06.planner.bloomfilter.</text>
<text text-anchor="middle" x="388.5" y="-7" font-family="Helvetica,sans-Serif" font-size="10.00">RegexExtractedValue.tokens</text>
</a>
</g>
</g>
<!-- Node1&#45;&gt;Node2 -->
<g id="edge1_Node000001_Node000002" class="edge">
<title>Node1&#45;&gt;Node2</title>
<g id="a_edge1_Node000001_Node000002"><a xlink:title=" ">
<path fill="none" stroke="#63b8ff" d="M245.07,-15C253.53,-15 262.06,-15 270.5,-15"/>
<polygon fill="#63b8ff" stroke="#63b8ff" points="270.75,-18.5 280.75,-15 270.75,-11.5 270.75,-18.5"/>
</a>
</g>
</g>
<!-- Node2&#45;&gt;Node2 -->
<g id="edge2_Node000002_Node000002" class="edge">
<title>Node2&#45;&gt;Node2</title>
<g id="a_edge2_Node000002_Node000002"><a xlink:title=" ">
<path fill="none" stroke="#63b8ff" d="M341.74,-30.28C331.35,-39.41 346.94,-48 388.5,-48 413.18,-48 428.7,-44.97 435.06,-40.6"/>
<polygon fill="#63b8ff" stroke="#63b8ff" points="438.57,-40.34 435.26,-30.28 431.57,-40.21 438.57,-40.34"/>
</a>
</g>
</g>
</g>
</svg>
