<?xml version="1.0" encoding="UTF-8" standalone="no"?>
<!DOCTYPE svg PUBLIC "-//W3C//DTD SVG 1.1//EN"
 "http://www.w3.org/Graphics/SVG/1.1/DTD/svg11.dtd">
<!-- Generated by graphviz version 2.43.0 (0)
 -->
<!-- Title: com.teragrep.pth_06.planner.MockArchiveQueryProcessor.getInitialOffset Pages: 1 -->
<svg width="419pt" height="86pt"
 viewBox="0.00 0.00 419.00 86.00" xmlns="http://www.w3.org/2000/svg" xmlns:xlink="http://www.w3.org/1999/xlink">
<g id="graph0" class="graph" transform="scale(1 1) rotate(0) translate(4 82)">
<title>com.teragrep.pth_06.planner.MockArchiveQueryProcessor.getInitialOffset</title>
<!-- Node1 -->
<g id="Node000001" class="node">
<title>Node1</title>
<g id="a_Node000001"><a xlink:title=" ">
<polygon fill="#999999" stroke="#666666" points="202,-59.5 0,-59.5 0,-18.5 202,-18.5 202,-59.5"/>
<text text-anchor="start" x="8" y="-47.5" font-family="Helvetica,sans-Serif" font-size="10.00">com.teragrep.pth_06.planner.</text>
<text text-anchor="start" x="8" y="-36.5" font-family="Helvetica,sans-Serif" font-size="10.00">MockArchiveQueryProcessor.getInitial</text>
<text text-anchor="middle" x="101" y="-25.5" font-family="Helvetica,sans-Serif" font-size="10.00">Offset</text>
</a>
</g>
</g>
<!-- Node2 -->
<g id="Node000002" class="node">
<title>Node2</title>
<g id="a_Node000002"><a xlink:href="interfacecom_1_1teragrep_1_1pth__06_1_1planner_1_1TestDataSource.html#a0451af2e47a9ebb3bc3de168cc710e02" target="_top" xlink:title=" ">
<polygon fill="white" stroke="#666666" points="411,-78 238,-78 238,-48 411,-48 411,-78"/>
<text text-anchor="start" x="246" y="-66" font-family="Helvetica,sans-Serif" font-size="10.00">com.teragrep.pth_06.planner.</text>
<text text-anchor="middle" x="324.5" y="-55" font-family="Helvetica,sans-Serif" font-size="10.00">TestDataSource.asPriorityQueue</text>
</a>
</g>
</g>
<!-- Node1&#45;&gt;Node2 -->
<g id="edge1_Node000001_Node000002" class="edge">
<title>Node1&#45;&gt;Node2</title>
<g id="a_edge1_Node000001_Node000002"><a xlink:title=" ">
<path fill="none" stroke="#63b8ff" d="M202.06,-49.84C210.63,-50.77 219.28,-51.71 227.82,-52.63"/>
<polygon fill="#63b8ff" stroke="#63b8ff" points="227.45,-56.11 237.77,-53.71 228.2,-49.15 227.45,-56.11"/>
</a>
</g>
</g>
<!-- Node3 -->
<g id="Node000003" class="node">
<title>Node3</title>
<g id="a_Node000003"><a xlink:href="interfacecom_1_1teragrep_1_1pth__06_1_1planner_1_1MockDBRow.html#abbdec5d031093faa980c5b0e86dbaa7e" target="_top" xlink:title=" ">
<polygon fill="white" stroke="#666666" points="404.5,-30 244.5,-30 244.5,0 404.5,0 404.5,-30"/>
<text text-anchor="start" x="252.5" y="-18" font-family="Helvetica,sans-Serif" font-size="10.00">com.teragrep.pth_06.planner.</text>
<text text-anchor="middle" x="324.5" y="-7" font-family="Helvetica,sans-Serif" font-size="10.00">MockDBRow.logtime</text>
</a>
</g>
</g>
<!-- Node1&#45;&gt;Node3 -->
<g id="edge2_Node000001_Node000003" class="edge">
<title>Node1&#45;&gt;Node3</title>
<g id="a_edge2_Node000001_Node000003"><a xlink:title=" ">
<path fill="none" stroke="#63b8ff" d="M202.06,-28.16C212.83,-26.99 223.74,-25.81 234.37,-24.66"/>
<polygon fill="#63b8ff" stroke="#63b8ff" points="234.9,-28.12 244.47,-23.56 234.15,-21.16 234.9,-28.12"/>
</a>
</g>
</g>
</g>
</svg>
