<?xml version="1.0" encoding="UTF-8" standalone="no"?>
<!DOCTYPE svg PUBLIC "-//W3C//DTD SVG 1.1//EN"
 "http://www.w3.org/Graphics/SVG/1.1/DTD/svg11.dtd">
<!-- Generated by graphviz version 2.43.0 (0)
 -->
<!-- Title: com.teragrep.pth_06.planner.MockArchiveQueryProcessor.processBetweenUnixEpochHours Pages: 1 -->
<svg width="644pt" height="518pt"
 viewBox="0.00 0.00 644.00 518.00" xmlns="http://www.w3.org/2000/svg" xmlns:xlink="http://www.w3.org/1999/xlink">
<g id="graph0" class="graph" transform="scale(1 1) rotate(0) translate(4 514)">
<title>com.teragrep.pth_06.planner.MockArchiveQueryProcessor.processBetweenUnixEpochHours</title>
<!-- Node1 -->
<g id="Node000001" class="node">
<title>Node1</title>
<g id="a_Node000001"><a xlink:title=" ">
<polygon fill="#999999" stroke="#666666" points="196,-251.5 0,-251.5 0,-210.5 196,-210.5 196,-251.5"/>
<text text-anchor="start" x="8" y="-239.5" font-family="Helvetica,sans-Serif" font-size="10.00">com.teragrep.pth_06.planner.</text>
<text text-anchor="start" x="8" y="-228.5" font-family="Helvetica,sans-Serif" font-size="10.00">MockArchiveQueryProcessor.process</text>
<text text-anchor="middle" x="98" y="-217.5" font-family="Helvetica,sans-Serif" font-size="10.00">BetweenUnixEpochHours</text>
</a>
</g>
</g>
<!-- Node2 -->
<g id="Node000002" class="node">
<title>Node2</title>
<g id="a_Node000002"><a xlink:href="classcom_1_1teragrep_1_1pth__06_1_1planner_1_1RecordableMockDBRow.html#a5d01e7e5a34afbe40f547160e6cfe0cb" target="_top" xlink:title=" ">
<polygon fill="white" stroke="#666666" points="412,-270 232,-270 232,-240 412,-240 412,-270"/>
<text text-anchor="start" x="240" y="-258" font-family="Helvetica,sans-Serif" font-size="10.00">com.teragrep.pth_06.planner.</text>
<text text-anchor="middle" x="322" y="-247" font-family="Helvetica,sans-Serif" font-size="10.00">RecordableMockDBRow.asRecord</text>
</a>
</g>
</g>
<!-- Node1&#45;&gt;Node2 -->
<g id="edge1_Node000001_Node000002" class="edge">
<title>Node1&#45;&gt;Node2</title>
<g id="a_edge1_Node000001_Node000002"><a xlink:title=" ">
<path fill="none" stroke="#63b8ff" d="M196.05,-241.49C204.6,-242.42 213.27,-243.35 221.84,-244.28"/>
<polygon fill="#63b8ff" stroke="#63b8ff" points="221.53,-247.77 231.84,-245.36 222.28,-240.81 221.53,-247.77"/>
</a>
</g>
</g>
<!-- Node14 -->
<g id="Node000014" class="node">
<title>Node14</title>
<g id="a_Node000014"><a xlink:href="interfacecom_1_1teragrep_1_1pth__06_1_1planner_1_1Sliceable.html#abd05bccf06880977e9be05d2b830d2fe" target="_top" xlink:title=" ">
<polygon fill="white" stroke="#666666" points="402,-222 242,-222 242,-192 402,-192 402,-222"/>
<text text-anchor="start" x="250" y="-210" font-family="Helvetica,sans-Serif" font-size="10.00">com.teragrep.pth_06.planner.</text>
<text text-anchor="middle" x="322" y="-199" font-family="Helvetica,sans-Serif" font-size="10.00">Sliceable.slice</text>
</a>
</g>
</g>
<!-- Node1&#45;&gt;Node14 -->
<g id="edge13_Node000001_Node000014" class="edge">
<title>Node1&#45;&gt;Node14</title>
<g id="a_edge13_Node000001_Node000014"><a xlink:title=" ">
<path fill="none" stroke="#63b8ff" d="M196.05,-220.51C207.87,-219.23 219.91,-217.93 231.61,-216.66"/>
<polygon fill="#63b8ff" stroke="#63b8ff" points="232.23,-220.12 241.79,-215.56 231.48,-213.16 232.23,-220.12"/>
</a>
</g>
</g>
<!-- Node3 -->
<g id="Node000003" class="node">
<title>Node3</title>
<g id="a_Node000003"><a xlink:href="interfacecom_1_1teragrep_1_1pth__06_1_1planner_1_1MockDBRow.html#ad44471477954593511cbdb304a0ded76" target="_top" xlink:title=" ">
<polygon fill="white" stroke="#666666" points="622,-510 462,-510 462,-480 622,-480 622,-510"/>
<text text-anchor="start" x="470" y="-498" font-family="Helvetica,sans-Serif" font-size="10.00">com.teragrep.pth_06.planner.</text>
<text text-anchor="middle" x="542" y="-487" font-family="Helvetica,sans-Serif" font-size="10.00">MockDBRow.bucket</text>
</a>
</g>
</g>
<!-- Node2&#45;&gt;Node3 -->
<g id="edge2_Node000002_Node000003" class="edge">
<title>Node2&#45;&gt;Node3</title>
<g id="a_edge2_Node000002_Node000003"><a xlink:title=" ">
<path fill="none" stroke="#63b8ff" d="M327.22,-270.04C339.11,-309.53 376.74,-416.9 448,-471 449.83,-472.39 451.74,-473.71 453.71,-474.94"/>
<polygon fill="#63b8ff" stroke="#63b8ff" points="452.23,-478.12 462.67,-479.89 455.61,-471.99 452.23,-478.12"/>
</a>
</g>
</g>
<!-- Node4 -->
<g id="Node000004" class="node">
<title>Node4</title>
<g id="a_Node000004"><a xlink:href="interfacecom_1_1teragrep_1_1pth__06_1_1planner_1_1MockDBRow.html#a72b0def5bf253cb3babc246462187ead" target="_top" xlink:title=" ">
<polygon fill="white" stroke="#666666" points="622,-462 462,-462 462,-432 622,-432 622,-462"/>
<text text-anchor="start" x="470" y="-450" font-family="Helvetica,sans-Serif" font-size="10.00">com.teragrep.pth_06.planner.</text>
<text text-anchor="middle" x="542" y="-439" font-family="Helvetica,sans-Serif" font-size="10.00">MockDBRow.directory</text>
</a>
</g>
</g>
<!-- Node2&#45;&gt;Node4 -->
<g id="edge3_Node000002_Node000004" class="edge">
<title>Node2&#45;&gt;Node4</title>
<g id="a_edge3_Node000002_Node000004"><a xlink:title=" ">
<path fill="none" stroke="#63b8ff" d="M329.78,-270.02C345.52,-303.11 387.81,-382.54 448,-423 450.4,-424.61 452.9,-426.12 455.48,-427.52"/>
<polygon fill="#63b8ff" stroke="#63b8ff" points="453.98,-430.69 464.51,-431.92 457.05,-424.39 453.98,-430.69"/>
</a>
</g>
</g>
<!-- Node5 -->
<g id="Node000005" class="node">
<title>Node5</title>
<g id="a_Node000005"><a xlink:href="interfacecom_1_1teragrep_1_1pth__06_1_1planner_1_1MockDBRow.html#a74ca25ad9ccc26eca93b3a20d359bd4a" target="_top" xlink:title=" ">
<polygon fill="white" stroke="#666666" points="622,-414 462,-414 462,-384 622,-384 622,-414"/>
<text text-anchor="start" x="470" y="-402" font-family="Helvetica,sans-Serif" font-size="10.00">com.teragrep.pth_06.planner.</text>
<text text-anchor="middle" x="542" y="-391" font-family="Helvetica,sans-Serif" font-size="10.00">MockDBRow.filesize</text>
</a>
</g>
</g>
<!-- Node2&#45;&gt;Node5 -->
<g id="edge4_Node000002_Node000005" class="edge">
<title>Node2&#45;&gt;Node5</title>
<g id="a_edge4_Node000002_Node000005"><a xlink:title=" ">
<path fill="none" stroke="#63b8ff" d="M334.32,-270.07C354.35,-295.65 398.61,-347.45 448,-375 451.25,-376.81 454.64,-378.49 458.12,-380.05"/>
<polygon fill="#63b8ff" stroke="#63b8ff" points="456.93,-383.34 467.51,-383.88 459.57,-376.86 456.93,-383.34"/>
</a>
</g>
</g>
<!-- Node6 -->
<g id="Node000006" class="node">
<title>Node6</title>
<g id="a_Node000006"><a xlink:href="interfacecom_1_1teragrep_1_1pth__06_1_1planner_1_1MockDBRow.html#aa8ad21bb5a8f9b0594938f79c167ea8a" target="_top" xlink:title=" ">
<polygon fill="white" stroke="#666666" points="622,-366 462,-366 462,-336 622,-336 622,-366"/>
<text text-anchor="start" x="470" y="-354" font-family="Helvetica,sans-Serif" font-size="10.00">com.teragrep.pth_06.planner.</text>
<text text-anchor="middle" x="542" y="-343" font-family="Helvetica,sans-Serif" font-size="10.00">MockDBRow.host</text>
</a>
</g>
</g>
<!-- Node2&#45;&gt;Node6 -->
<g id="edge5_Node000002_Node000006" class="edge">
<title>Node2&#45;&gt;Node6</title>
<g id="a_edge5_Node000002_Node000006"><a xlink:title=" ">
<path fill="none" stroke="#63b8ff" d="M345.09,-270.2C369.37,-286.29 409.97,-311.48 448,-327 453.11,-329.09 458.46,-331.04 463.9,-332.85"/>
<polygon fill="#63b8ff" stroke="#63b8ff" points="463.15,-336.28 473.74,-335.96 465.26,-329.61 463.15,-336.28"/>
</a>
</g>
</g>
<!-- Node7 -->
<g id="Node000007" class="node">
<title>Node7</title>
<g id="a_Node000007"><a xlink:href="interfacecom_1_1teragrep_1_1pth__06_1_1planner_1_1MockDBRow.html#a0774864816bfa4ed24d7037daa10b3b2" target="_top" xlink:title=" ">
<polygon fill="white" stroke="#666666" points="622,-318 462,-318 462,-288 622,-288 622,-318"/>
<text text-anchor="start" x="470" y="-306" font-family="Helvetica,sans-Serif" font-size="10.00">com.teragrep.pth_06.planner.</text>
<text text-anchor="middle" x="542" y="-295" font-family="Helvetica,sans-Serif" font-size="10.00">MockDBRow.id</text>
</a>
</g>
</g>
<!-- Node2&#45;&gt;Node7 -->
<g id="edge6_Node000002_Node000007" class="edge">
<title>Node2&#45;&gt;Node7</title>
<g id="a_edge6_Node000002_Node000007"><a xlink:title=" ">
<path fill="none" stroke="#63b8ff" d="M391.38,-270.06C414.1,-275.06 439.58,-280.67 462.98,-285.82"/>
<polygon fill="#63b8ff" stroke="#63b8ff" points="462.35,-289.27 472.86,-288 463.85,-282.43 462.35,-289.27"/>
</a>
</g>
</g>
<!-- Node8 -->
<g id="Node000008" class="node">
<title>Node8</title>
<g id="a_Node000008"><a xlink:href="interfacecom_1_1teragrep_1_1pth__06_1_1planner_1_1MockDBRow.html#ad6525054bcae052f479a03b2e4ca3bf7" target="_top" xlink:title=" ">
<polygon fill="white" stroke="#666666" points="622,-270 462,-270 462,-240 622,-240 622,-270"/>
<text text-anchor="start" x="470" y="-258" font-family="Helvetica,sans-Serif" font-size="10.00">com.teragrep.pth_06.planner.</text>
<text text-anchor="middle" x="542" y="-247" font-family="Helvetica,sans-Serif" font-size="10.00">MockDBRow.logdate</text>
</a>
</g>
</g>
<!-- Node2&#45;&gt;Node8 -->
<g id="edge7_Node000002_Node000008" class="edge">
<title>Node2&#45;&gt;Node8</title>
<g id="a_edge7_Node000002_Node000008"><a xlink:title=" ">
<path fill="none" stroke="#63b8ff" d="M412.3,-255C425.29,-255 438.66,-255 451.65,-255"/>
<polygon fill="#63b8ff" stroke="#63b8ff" points="451.97,-258.5 461.97,-255 451.97,-251.5 451.97,-258.5"/>
</a>
</g>
</g>
<!-- Node9 -->
<g id="Node000009" class="node">
<title>Node9</title>
<g id="a_Node000009"><a xlink:href="interfacecom_1_1teragrep_1_1pth__06_1_1planner_1_1MockDBRow.html#afc6e92c8736a723c8e3c6673593b63c6" target="_top" xlink:title=" ">
<polygon fill="white" stroke="#666666" points="622,-222 462,-222 462,-192 622,-192 622,-222"/>
<text text-anchor="start" x="470" y="-210" font-family="Helvetica,sans-Serif" font-size="10.00">com.teragrep.pth_06.planner.</text>
<text text-anchor="middle" x="542" y="-199" font-family="Helvetica,sans-Serif" font-size="10.00">MockDBRow.logtag</text>
</a>
</g>
</g>
<!-- Node2&#45;&gt;Node9 -->
<g id="edge8_Node000002_Node000009" class="edge">
<title>Node2&#45;&gt;Node9</title>
<g id="a_edge8_Node000002_Node000009"><a xlink:title=" ">
<path fill="none" stroke="#63b8ff" d="M391.38,-239.94C414.1,-234.94 439.58,-229.33 462.98,-224.18"/>
<polygon fill="#63b8ff" stroke="#63b8ff" points="463.85,-227.57 472.86,-222 462.35,-220.73 463.85,-227.57"/>
</a>
</g>
</g>
<!-- Node10 -->
<g id="Node000010" class="node">
<title>Node10</title>
<g id="a_Node000010"><a xlink:href="interfacecom_1_1teragrep_1_1pth__06_1_1planner_1_1MockDBRow.html#abbdec5d031093faa980c5b0e86dbaa7e" target="_top" xlink:title=" ">
<polygon fill="white" stroke="#666666" points="622,-174 462,-174 462,-144 622,-144 622,-174"/>
<text text-anchor="start" x="470" y="-162" font-family="Helvetica,sans-Serif" font-size="10.00">com.teragrep.pth_06.planner.</text>
<text text-anchor="middle" x="542" y="-151" font-family="Helvetica,sans-Serif" font-size="10.00">MockDBRow.logtime</text>
</a>
</g>
</g>
<!-- Node2&#45;&gt;Node10 -->
<g id="edge9_Node000002_Node000010" class="edge">
<title>Node2&#45;&gt;Node10</title>
<g id="a_edge9_Node000002_Node000010"><a xlink:title=" ">
<path fill="none" stroke="#63b8ff" d="M395.75,-239.85C401.46,-237.34 406.96,-234.41 412,-231 434.08,-216.05 425.84,-197.83 448,-183 450.4,-181.39 452.91,-179.89 455.49,-178.49"/>
<polygon fill="#63b8ff" stroke="#63b8ff" points="457.05,-181.62 464.52,-174.11 454,-175.32 457.05,-181.62"/>
</a>
</g>
</g>
<!-- Node11 -->
<g id="Node000011" class="node">
<title>Node11</title>
<g id="a_Node000011"><a xlink:href="interfacecom_1_1teragrep_1_1pth__06_1_1planner_1_1MockDBRow.html#ab614cd7a7083bbae02e6cb864d5aea64" target="_top" xlink:title=" ">
<polygon fill="white" stroke="#666666" points="622,-126 462,-126 462,-96 622,-96 622,-126"/>
<text text-anchor="start" x="470" y="-114" font-family="Helvetica,sans-Serif" font-size="10.00">com.teragrep.pth_06.planner.</text>
<text text-anchor="middle" x="542" y="-103" font-family="Helvetica,sans-Serif" font-size="10.00">MockDBRow.path</text>
</a>
</g>
</g>
<!-- Node2&#45;&gt;Node11 -->
<g id="edge10_Node000002_Node000011" class="edge">
<title>Node2&#45;&gt;Node11</title>
<g id="a_edge10_Node000002_Node000011"><a xlink:title=" ">
<path fill="none" stroke="#63b8ff" d="M399.47,-239.94C403.98,-237.4 408.21,-234.44 412,-231 445.72,-200.35 414.11,-165.47 448,-135 449.71,-133.46 451.51,-132.02 453.38,-130.66"/>
<polygon fill="#63b8ff" stroke="#63b8ff" points="455.36,-133.55 462,-125.29 451.66,-127.61 455.36,-133.55"/>
</a>
</g>
</g>
<!-- Node12 -->
<g id="Node000012" class="node">
<title>Node12</title>
<g id="a_Node000012"><a xlink:href="interfacecom_1_1teragrep_1_1pth__06_1_1planner_1_1MockDBRow.html#a092b8e42025da6f3c6ad5ea92a1a273f" target="_top" xlink:title=" ">
<polygon fill="white" stroke="#666666" points="622,-78 462,-78 462,-48 622,-48 622,-78"/>
<text text-anchor="start" x="470" y="-66" font-family="Helvetica,sans-Serif" font-size="10.00">com.teragrep.pth_06.planner.</text>
<text text-anchor="middle" x="542" y="-55" font-family="Helvetica,sans-Serif" font-size="10.00">MockDBRow.stream</text>
</a>
</g>
</g>
<!-- Node2&#45;&gt;Node12 -->
<g id="edge11_Node000002_Node000012" class="edge">
<title>Node2&#45;&gt;Node12</title>
<g id="a_edge11_Node000002_Node000012"><a xlink:title=" ">
<path fill="none" stroke="#63b8ff" d="M400.76,-239.92C404.84,-237.38 408.64,-234.43 412,-231 458.22,-183.92 401.53,-133.82 448,-87 449.67,-85.32 451.44,-83.75 453.3,-82.28"/>
<polygon fill="#63b8ff" stroke="#63b8ff" points="455.56,-84.98 461.93,-76.52 451.67,-79.16 455.56,-84.98"/>
</a>
</g>
</g>
<!-- Node13 -->
<g id="Node000013" class="node">
<title>Node13</title>
<g id="a_Node000013"><a xlink:href="interfacecom_1_1teragrep_1_1pth__06_1_1planner_1_1MockDBRow.html#a530a3c1472c332aacad872702a077e48" target="_top" xlink:title=" ">
<polygon fill="white" stroke="#666666" points="636,-30 448,-30 448,0 636,0 636,-30"/>
<text text-anchor="start" x="456" y="-18" font-family="Helvetica,sans-Serif" font-size="10.00">com.teragrep.pth_06.planner.</text>
<text text-anchor="middle" x="542" y="-7" font-family="Helvetica,sans-Serif" font-size="10.00">MockDBRow.uncompressedFilesize</text>
</a>
</g>
</g>
<!-- Node2&#45;&gt;Node13 -->
<g id="edge12_Node000002_Node000013" class="edge">
<title>Node2&#45;&gt;Node13</title>
<g id="a_edge12_Node000002_Node000013"><a xlink:title=" ">
<path fill="none" stroke="#63b8ff" d="M401.4,-239.89C405.27,-237.35 408.85,-234.41 412,-231 470.95,-167.26 388.71,-102.42 448,-39 448.9,-38.04 449.83,-37.12 450.79,-36.23"/>
<polygon fill="#63b8ff" stroke="#63b8ff" points="452.94,-38.99 458.68,-30.09 448.64,-33.46 452.94,-38.99"/>
</a>
</g>
</g>
</g>
</svg>
