<?xml version="1.0" encoding="UTF-8" standalone="no"?>
<!DOCTYPE svg PUBLIC "-//W3C//DTD SVG 1.1//EN"
 "http://www.w3.org/Graphics/SVG/1.1/DTD/svg11.dtd">
<!-- Generated by graphviz version 2.43.0 (0)
 -->
<!-- Title: com.teragrep.pth_06.planner.walker.conditions.ElementCondition Pages: 1 -->
<svg width="584pt" height="134pt"
 viewBox="0.00 0.00 584.00 134.00" xmlns="http://www.w3.org/2000/svg" xmlns:xlink="http://www.w3.org/1999/xlink">
<g id="graph0" class="graph" transform="scale(1 1) rotate(0) translate(4 130)">
<title>com.teragrep.pth_06.planner.walker.conditions.ElementCondition</title>
<!-- Node1 -->
<g id="Node000001" class="node">
<title>Node1</title>
<g id="a_Node000001"><a xlink:title="Creates a query condition from provided dom element.">
<polygon fill="#999999" stroke="#666666" points="576,-78 328,-78 328,-48 576,-48 576,-78"/>
<text text-anchor="start" x="336" y="-66" font-family="Helvetica,sans-Serif" font-size="10.00">com.teragrep.pth_06.planner.walker.conditions.</text>
<text text-anchor="middle" x="452" y="-55" font-family="Helvetica,sans-Serif" font-size="10.00">ElementCondition</text>
</a>
</g>
</g>
<!-- Node2 -->
<g id="Node000002" class="node">
<title>Node2</title>
<g id="a_Node000002"><a xlink:href="interfacecom_1_1teragrep_1_1pth__06_1_1planner_1_1walker_1_1conditions_1_1QueryCondition.html" target="_top" xlink:title=" ">
<polygon fill="white" stroke="#666666" points="248,-126 0,-126 0,-96 248,-96 248,-126"/>
<text text-anchor="start" x="8" y="-114" font-family="Helvetica,sans-Serif" font-size="10.00">com.teragrep.pth_06.planner.walker.conditions.</text>
<text text-anchor="middle" x="124" y="-103" font-family="Helvetica,sans-Serif" font-size="10.00">QueryCondition</text>
</a>
</g>
</g>
<!-- Node2&#45;&gt;Node1 -->
<g id="edge1_Node000001_Node000002" class="edge">
<title>Node2&#45;&gt;Node1</title>
<g id="a_edge1_Node000001_Node000002"><a xlink:title=" ">
<path fill="none" stroke="#63b8ff" d="M237.38,-94.45C273.65,-89.11 313.64,-83.23 349.11,-78"/>
<polygon fill="#63b8ff" stroke="#63b8ff" points="236.64,-91.02 227.25,-95.94 237.66,-97.95 236.64,-91.02"/>
</a>
</g>
</g>
<!-- Node3 -->
<g id="Node000003" class="node">
<title>Node3</title>
<g id="a_Node000003"><a xlink:href="interfacecom_1_1teragrep_1_1pth__06_1_1planner_1_1walker_1_1conditions_1_1BloomQueryCondition.html" target="_top" xlink:title=" ">
<polygon fill="white" stroke="#666666" points="248,-78 0,-78 0,-48 248,-48 248,-78"/>
<text text-anchor="start" x="8" y="-66" font-family="Helvetica,sans-Serif" font-size="10.00">com.teragrep.pth_06.planner.walker.conditions.</text>
<text text-anchor="middle" x="124" y="-55" font-family="Helvetica,sans-Serif" font-size="10.00">BloomQueryCondition</text>
</a>
</g>
</g>
<!-- Node3&#45;&gt;Node1 -->
<g id="edge2_Node000001_Node000003" class="edge">
<title>Node3&#45;&gt;Node1</title>
<g id="a_edge2_Node000001_Node000003"><a xlink:title=" ">
<path fill="none" stroke="#63b8ff" d="M258.39,-63C281.37,-63 305.16,-63 327.85,-63"/>
<polygon fill="#63b8ff" stroke="#63b8ff" points="258.25,-59.5 248.25,-63 258.25,-66.5 258.25,-59.5"/>
</a>
</g>
</g>
<!-- Node4 -->
<g id="Node000004" class="node">
<title>Node4</title>
<g id="a_Node000004"><a xlink:href="classcom_1_1teragrep_1_1pth__06_1_1planner_1_1walker_1_1conditions_1_1ValidElement.html" target="_top" xlink:title=" ">
<polygon fill="white" stroke="#666666" points="248,-30 0,-30 0,0 248,0 248,-30"/>
<text text-anchor="start" x="8" y="-18" font-family="Helvetica,sans-Serif" font-size="10.00">com.teragrep.pth_06.planner.walker.conditions.</text>
<text text-anchor="middle" x="124" y="-7" font-family="Helvetica,sans-Serif" font-size="10.00">ValidElement</text>
</a>
</g>
</g>
<!-- Node4&#45;&gt;Node1 -->
<g id="edge3_Node000001_Node000004" class="edge">
<title>Node4&#45;&gt;Node1</title>
<g id="a_edge3_Node000001_Node000004"><a xlink:title=" ">
<path fill="none" stroke="#9a32cd" stroke-dasharray="5,2" d="M237.38,-31.55C273.65,-36.89 313.64,-42.77 349.11,-48"/>
<polygon fill="#9a32cd" stroke="#9a32cd" points="237.66,-28.05 227.25,-30.06 236.64,-34.98 237.66,-28.05"/>
</a>
</g>
<text text-anchor="middle" x="288" y="-44" font-family="Helvetica,sans-Serif" font-size="10.00" fill="grey"> element</text>
</g>
</g>
</svg>
