<?xml version="1.0" encoding="UTF-8" standalone="no"?>
<!DOCTYPE svg PUBLIC "-//W3C//DTD SVG 1.1//EN"
 "http://www.w3.org/Graphics/SVG/1.1/DTD/svg11.dtd">
<!-- Generated by graphviz version 2.43.0 (0)
 -->
<!-- Title: com.teragrep.pth_06.planner.TestDataSource.asPriorityQueue Pages: 1 -->
<svg width="425pt" height="216pt"
 viewBox="0.00 0.00 425.00 215.50" xmlns="http://www.w3.org/2000/svg" xmlns:xlink="http://www.w3.org/1999/xlink">
<g id="graph0" class="graph" transform="scale(1 1) rotate(0) translate(4 211.5)">
<title>com.teragrep.pth_06.planner.TestDataSource.asPriorityQueue</title>
<!-- Node1 -->
<g id="Node000001" class="node">
<title>Node1</title>
<g id="a_Node000001"><a xlink:title=" ">
<polygon fill="#999999" stroke="#666666" points="417,-113 244,-113 244,-83 417,-83 417,-113"/>
<text text-anchor="start" x="252" y="-101" font-family="Helvetica,sans-Serif" font-size="10.00">com.teragrep.pth_06.planner.</text>
<text text-anchor="middle" x="330.5" y="-90" font-family="Helvetica,sans-Serif" font-size="10.00">TestDataSource.asPriorityQueue</text>
</a>
</g>
</g>
<!-- Node2 -->
<g id="Node000002" class="node">
<title>Node2</title>
<g id="a_Node000002"><a xlink:href="classcom_1_1teragrep_1_1pth__06_1_1planner_1_1SliceableMockDBRowSourceImpl.html#a0c79c65f585521b8dddcc72363d1d791" target="_top" xlink:title=" ">
<polygon fill="white" stroke="#666666" points="199.5,-207.5 8.5,-207.5 8.5,-166.5 199.5,-166.5 199.5,-207.5"/>
<text text-anchor="start" x="16.5" y="-195.5" font-family="Helvetica,sans-Serif" font-size="10.00">com.teragrep.pth_06.planner.</text>
<text text-anchor="start" x="16.5" y="-184.5" font-family="Helvetica,sans-Serif" font-size="10.00">SliceableMockDBRowSourceImpl.as</text>
<text text-anchor="middle" x="104" y="-173.5" font-family="Helvetica,sans-Serif" font-size="10.00">PriorityQueue</text>
</a>
</g>
</g>
<!-- Node1&#45;&gt;Node2 -->
<g id="edge1_Node000001_Node000002" class="edge">
<title>Node1&#45;&gt;Node2</title>
<g id="a_edge1_Node000001_Node000002"><a xlink:title=" ">
<path fill="none" stroke="#63b8ff" d="M293.64,-117.89C269.85,-130.54 237.66,-146.61 208,-158 200.2,-161 191.95,-163.84 183.67,-166.48"/>
<polygon fill="#63b8ff" stroke="#63b8ff" points="295.49,-120.87 302.64,-113.06 292.17,-114.71 295.49,-120.87"/>
</a>
</g>
</g>
<!-- Node3 -->
<g id="Node000003" class="node">
<title>Node3</title>
<g id="a_Node000003"><a xlink:href="classcom_1_1teragrep_1_1pth__06_1_1planner_1_1MockArchiveQueryProcessor.html#a12c256d6ac85464e14dc686b8f062262" target="_top" xlink:title=" ">
<polygon fill="white" stroke="#666666" points="205,-148.5 3,-148.5 3,-107.5 205,-107.5 205,-148.5"/>
<text text-anchor="start" x="11" y="-136.5" font-family="Helvetica,sans-Serif" font-size="10.00">com.teragrep.pth_06.planner.</text>
<text text-anchor="start" x="11" y="-125.5" font-family="Helvetica,sans-Serif" font-size="10.00">MockArchiveQueryProcessor.getInitial</text>
<text text-anchor="middle" x="104" y="-114.5" font-family="Helvetica,sans-Serif" font-size="10.00">Offset</text>
</a>
</g>
</g>
<!-- Node1&#45;&gt;Node3 -->
<g id="edge2_Node000001_Node000003" class="edge">
<title>Node1&#45;&gt;Node3</title>
<g id="a_edge2_Node000001_Node000003"><a xlink:title=" ">
<path fill="none" stroke="#63b8ff" d="M233.83,-110.79C224.39,-112.05 214.8,-113.33 205.32,-114.59"/>
<polygon fill="#63b8ff" stroke="#63b8ff" points="234.54,-114.22 243.99,-109.43 233.61,-107.28 234.54,-114.22"/>
</a>
</g>
</g>
<!-- Node4 -->
<g id="Node000004" class="node">
<title>Node4</title>
<g id="a_Node000004"><a xlink:href="classcom_1_1teragrep_1_1pth__06_1_1planner_1_1MockArchiveQueryProcessor.html#a6dae3696a6814f110950cec3542f554e" target="_top" xlink:title=" ">
<polygon fill="white" stroke="#666666" points="208,-89.5 0,-89.5 0,-48.5 208,-48.5 208,-89.5"/>
<text text-anchor="start" x="8" y="-77.5" font-family="Helvetica,sans-Serif" font-size="10.00">com.teragrep.pth_06.planner.</text>
<text text-anchor="start" x="8" y="-66.5" font-family="Helvetica,sans-Serif" font-size="10.00">MockArchiveQueryProcessor.increment</text>
<text text-anchor="middle" x="104" y="-55.5" font-family="Helvetica,sans-Serif" font-size="10.00">AndGetLatestOffset</text>
</a>
</g>
</g>
<!-- Node1&#45;&gt;Node4 -->
<g id="edge3_Node000001_Node000004" class="edge">
<title>Node1&#45;&gt;Node4</title>
<g id="a_edge3_Node000001_Node000004"><a xlink:title=" ">
<path fill="none" stroke="#63b8ff" d="M233.8,-85.64C225.38,-84.55 216.84,-83.45 208.36,-82.35"/>
<polygon fill="#63b8ff" stroke="#63b8ff" points="233.62,-89.14 243.99,-86.95 234.52,-82.2 233.62,-89.14"/>
</a>
</g>
</g>
<!-- Node5 -->
<g id="Node000005" class="node">
<title>Node5</title>
<g id="a_Node000005"><a xlink:href="classcom_1_1teragrep_1_1pth__06_1_1planner_1_1SliceableMockDBRowSourceImpl.html#a44116ba8a3c333d801a6491ebb8592f1" target="_top" xlink:title=" ">
<polygon fill="white" stroke="#666666" points="205.5,-30 2.5,-30 2.5,0 205.5,0 205.5,-30"/>
<text text-anchor="start" x="10.5" y="-18" font-family="Helvetica,sans-Serif" font-size="10.00">com.teragrep.pth_06.planner.</text>
<text text-anchor="middle" x="104" y="-7" font-family="Helvetica,sans-Serif" font-size="10.00">SliceableMockDBRowSourceImpl.slice</text>
</a>
</g>
</g>
<!-- Node1&#45;&gt;Node5 -->
<g id="edge4_Node000001_Node000005" class="edge">
<title>Node1&#45;&gt;Node5</title>
<g id="a_edge4_Node000001_Node000005"><a xlink:title=" ">
<path fill="none" stroke="#63b8ff" d="M293.22,-78.24C269.51,-65.94 237.55,-50.51 208,-40 197.6,-36.3 186.41,-32.96 175.39,-30.02"/>
<polygon fill="#63b8ff" stroke="#63b8ff" points="291.73,-81.41 302.21,-82.96 294.98,-75.21 291.73,-81.41"/>
</a>
</g>
</g>
</g>
</svg>
