<?xml version="1.0" encoding="UTF-8" standalone="no"?>
<!DOCTYPE svg PUBLIC "-//W3C//DTD SVG 1.1//EN"
 "http://www.w3.org/Graphics/SVG/1.1/DTD/svg11.dtd">
<!-- Generated by graphviz version 2.43.0 (0)
 -->
<!-- Title: com.teragrep.pth_06.jooq.generated.DefaultCatalog Pages: 1 -->
<svg width="431pt" height="171pt"
 viewBox="0.00 0.00 431.00 171.00" xmlns="http://www.w3.org/2000/svg" xmlns:xlink="http://www.w3.org/1999/xlink">
<g id="graph0" class="graph" transform="scale(1 1) rotate(0) translate(4 167)">
<title>com.teragrep.pth_06.jooq.generated.DefaultCatalog</title>
<!-- Node1 -->
<g id="Node000001" class="node">
<title>Node1</title>
<g id="a_Node000001"><a xlink:title="This class is generated by jOOQ.">
<polygon fill="#999999" stroke="#666666" points="197,-30 0,-30 0,0 197,0 197,-30"/>
<text text-anchor="start" x="8" y="-18" font-family="Helvetica,sans-Serif" font-size="10.00">com.teragrep.pth_06.jooq.generated.</text>
<text text-anchor="middle" x="98.5" y="-7" font-family="Helvetica,sans-Serif" font-size="10.00">DefaultCatalog</text>
</a>
</g>
</g>
<!-- Node2 -->
<g id="Node000002" class="node">
<title>Node2</title>
<g id="a_Node000002"><a xlink:title=" ">
<polygon fill="white" stroke="#666666" points="132.5,-163 56.5,-163 56.5,-144 132.5,-144 132.5,-163"/>
<text text-anchor="middle" x="94.5" y="-151" font-family="Helvetica,sans-Serif" font-size="10.00">CatalogImpl</text>
</a>
</g>
</g>
<!-- Node2&#45;&gt;Node1 -->
<g id="edge1_Node000001_Node000002" class="edge">
<title>Node2&#45;&gt;Node1</title>
<g id="a_edge1_Node000001_Node000002"><a xlink:title=" ">
<path fill="none" stroke="#63b8ff" d="M95.05,-133.65C95.87,-105.91 97.37,-54.7 98.09,-30.02"/>
<polygon fill="#63b8ff" stroke="#63b8ff" points="91.54,-133.86 94.75,-143.96 98.54,-134.07 91.54,-133.86"/>
</a>
</g>
</g>
<!-- Node3 -->
<g id="Node000003" class="node">
<title>Node3</title>
<g id="a_Node000003"><a xlink:href="classcom_1_1teragrep_1_1pth__06_1_1jooq_1_1generated_1_1DefaultCatalog.html" target="_top" xlink:title="This class is generated by jOOQ.">
<polygon fill="white" stroke="#666666" points="308,-107 111,-107 111,-77 308,-77 308,-107"/>
<text text-anchor="start" x="119" y="-95" font-family="Helvetica,sans-Serif" font-size="10.00">com.teragrep.pth_06.jooq.generated.</text>
<text text-anchor="middle" x="209.5" y="-84" font-family="Helvetica,sans-Serif" font-size="10.00">DefaultCatalog</text>
</a>
</g>
</g>
<!-- Node2&#45;&gt;Node3 -->
<g id="edge3_Node000003_Node000002" class="edge">
<title>Node2&#45;&gt;Node3</title>
<g id="a_edge3_Node000003_Node000002"><a xlink:title=" ">
<path fill="none" stroke="#63b8ff" d="M120,-139.31C138.51,-129.73 163.52,-116.79 182.4,-107.02"/>
<polygon fill="#63b8ff" stroke="#63b8ff" points="118.25,-136.27 110.98,-143.98 121.47,-142.49 118.25,-136.27"/>
</a>
</g>
</g>
<!-- Node3&#45;&gt;Node1 -->
<g id="edge2_Node000001_Node000003" class="edge">
<title>Node3&#45;&gt;Node1</title>
<g id="a_edge2_Node000001_Node000003"><a xlink:title=" ">
<path fill="none" stroke="#9a32cd" stroke-dasharray="5,2" d="M180.24,-71.23C161.07,-58.28 136.47,-41.65 119.28,-30.04"/>
<polygon fill="#9a32cd" stroke="#9a32cd" points="178.38,-74.19 188.62,-76.89 182.3,-68.39 178.38,-74.19"/>
</a>
</g>
<text text-anchor="middle" x="209" y="-51" font-family="Helvetica,sans-Serif" font-size="10.00" fill="grey"> DEFAULT_CATALOG</text>
</g>
<!-- Node3&#45;&gt;Node3 -->
<g id="edge4_Node000003_Node000003" class="edge">
<title>Node3&#45;&gt;Node3</title>
<g id="a_edge4_Node000003_Node000003"><a xlink:title=" ">
<path fill="none" stroke="#9a32cd" stroke-dasharray="5,2" d="M318.18,-95.73C323.12,-94.79 326,-93.54 326,-92 326,-89.59 318.97,-87.91 308.09,-86.95"/>
<polygon fill="#9a32cd" stroke="#9a32cd" points="317.56,-92.29 308.09,-97.05 318.46,-99.23 317.56,-92.29"/>
</a>
</g>
<text text-anchor="middle" x="374.5" y="-89.5" font-family="Helvetica,sans-Serif" font-size="10.00" fill="grey"> DEFAULT_CATALOG</text>
</g>
</g>
</svg>
