<?xml version="1.0" encoding="UTF-8" standalone="no"?>
<!DOCTYPE svg PUBLIC "-//W3C//DTD SVG 1.1//EN"
 "http://www.w3.org/Graphics/SVG/1.1/DTD/svg11.dtd">
<!-- Generated by graphviz version 2.43.0 (0)
 -->
<!-- Title: com.teragrep.pth_06.planner.bloomfilter.ConditionMatchBloomDBTables.tables Pages: 1 -->
<svg width="540pt" height="242pt"
 viewBox="0.00 0.00 540.00 242.00" xmlns="http://www.w3.org/2000/svg" xmlns:xlink="http://www.w3.org/1999/xlink">
<g id="graph0" class="graph" transform="scale(1 1) rotate(0) translate(4 238)">
<title>com.teragrep.pth_06.planner.bloomfilter.ConditionMatchBloomDBTables.tables</title>
<!-- Node1 -->
<g id="Node000001" class="node">
<title>Node1</title>
<g id="a_Node000001"><a xlink:title="List of tables from bloomdb that match QueryCondition Note: Table records are not fetched fully.">
<polygon fill="#999999" stroke="#666666" points="532,-138 317,-138 317,-108 532,-108 532,-138"/>
<text text-anchor="start" x="325" y="-126" font-family="Helvetica,sans-Serif" font-size="10.00">com.teragrep.pth_06.planner.bloomfilter.</text>
<text text-anchor="middle" x="424.5" y="-115" font-family="Helvetica,sans-Serif" font-size="10.00">ConditionMatchBloomDBTables.tables</text>
</a>
</g>
</g>
<!-- Node1&#45;&gt;Node1 -->
<g id="edge1_Node000001_Node000001" class="edge">
<title>Node1&#45;&gt;Node1</title>
<g id="a_edge1_Node000001_Node000001"><a xlink:title=" ">
<path fill="none" stroke="#63b8ff" d="M474.47,-148.42C467.85,-152.89 451.19,-156 424.5,-156 380.12,-156 363.48,-147.41 374.58,-138.28"/>
<polygon fill="#63b8ff" stroke="#63b8ff" points="477.97,-148.26 474.42,-138.28 470.97,-148.29 477.97,-148.26"/>
</a>
</g>
</g>
<!-- Node2 -->
<g id="Node000002" class="node">
<title>Node2</title>
<g id="a_Node000002"><a xlink:href="classcom_1_1teragrep_1_1pth__06_1_1planner_1_1bloomfilter_1_1ConditionMatchBloomDBTablesTest.html#a9a59c0c4b20348479cb6188368e8ae60" target="_top" xlink:title=" ">
<polygon fill="white" stroke="#666666" points="281,-234 0,-234 0,-204 281,-204 281,-234"/>
<text text-anchor="start" x="8" y="-222" font-family="Helvetica,sans-Serif" font-size="10.00">com.teragrep.pth_06.planner.bloomfilter.</text>
<text text-anchor="middle" x="140.5" y="-211" font-family="Helvetica,sans-Serif" font-size="10.00">ConditionMatchBloomDBTablesTest.testMultipleMatch</text>
</a>
</g>
</g>
<!-- Node1&#45;&gt;Node2 -->
<g id="edge2_Node000001_Node000002" class="edge">
<title>Node1&#45;&gt;Node2</title>
<g id="a_edge2_Node000001_Node000002"><a xlink:title=" ">
<path fill="none" stroke="#63b8ff" d="M390.62,-143.17C362.5,-159.54 320.42,-181.97 281,-195 270.62,-198.43 259.63,-201.39 248.56,-203.95"/>
<polygon fill="#63b8ff" stroke="#63b8ff" points="392.41,-146.18 399.25,-138.09 388.85,-140.15 392.41,-146.18"/>
</a>
</g>
</g>
<!-- Node3 -->
<g id="Node000003" class="node">
<title>Node3</title>
<g id="a_Node000003"><a xlink:href="classcom_1_1teragrep_1_1pth__06_1_1planner_1_1bloomfilter_1_1ConditionMatchBloomDBTablesTest.html#a44a3bcdf5a166e2d5e4076461eec0607" target="_top" xlink:title=" ">
<polygon fill="white" stroke="#666666" points="267.5,-186 13.5,-186 13.5,-156 267.5,-156 267.5,-186"/>
<text text-anchor="start" x="21.5" y="-174" font-family="Helvetica,sans-Serif" font-size="10.00">com.teragrep.pth_06.planner.bloomfilter.</text>
<text text-anchor="middle" x="140.5" y="-163" font-family="Helvetica,sans-Serif" font-size="10.00">ConditionMatchBloomDBTablesTest.testNoMatch</text>
</a>
</g>
</g>
<!-- Node1&#45;&gt;Node3 -->
<g id="edge3_Node000001_Node000003" class="edge">
<title>Node1&#45;&gt;Node3</title>
<g id="a_edge3_Node000001_Node000003"><a xlink:title=" ">
<path fill="none" stroke="#63b8ff" d="M325.08,-139.75C294.03,-145.04 259.93,-150.84 229.64,-156"/>
<polygon fill="#63b8ff" stroke="#63b8ff" points="325.78,-143.18 335.05,-138.06 324.6,-136.28 325.78,-143.18"/>
</a>
</g>
</g>
<!-- Node4 -->
<g id="Node000004" class="node">
<title>Node4</title>
<g id="a_Node000004"><a xlink:href="classcom_1_1teragrep_1_1pth__06_1_1planner_1_1bloomfilter_1_1ConditionMatchBloomDBTablesTest.html#a4693565a32dd9d01a70f339e87355652" target="_top" xlink:title=" ">
<polygon fill="white" stroke="#666666" points="276.5,-138 4.5,-138 4.5,-108 276.5,-108 276.5,-138"/>
<text text-anchor="start" x="12.5" y="-126" font-family="Helvetica,sans-Serif" font-size="10.00">com.teragrep.pth_06.planner.bloomfilter.</text>
<text text-anchor="middle" x="140.5" y="-115" font-family="Helvetica,sans-Serif" font-size="10.00">ConditionMatchBloomDBTablesTest.testRegexMatch</text>
</a>
</g>
</g>
<!-- Node1&#45;&gt;Node4 -->
<g id="edge4_Node000001_Node000004" class="edge">
<title>Node1&#45;&gt;Node4</title>
<g id="a_edge4_Node000001_Node000004"><a xlink:title=" ">
<path fill="none" stroke="#63b8ff" d="M306.68,-123C296.82,-123 286.79,-123 276.81,-123"/>
<polygon fill="#63b8ff" stroke="#63b8ff" points="306.89,-126.5 316.89,-123 306.89,-119.5 306.89,-126.5"/>
</a>
</g>
</g>
<!-- Node5 -->
<g id="Node000005" class="node">
<title>Node5</title>
<g id="a_Node000005"><a xlink:href="classcom_1_1teragrep_1_1pth__06_1_1planner_1_1bloomfilter_1_1ConditionMatchBloomDBTablesTest.html#a3495b7df5ecca22fa99e8d2d78aa7d17" target="_top" xlink:title=" ">
<polygon fill="white" stroke="#666666" points="262.5,-89.5 18.5,-89.5 18.5,-48.5 262.5,-48.5 262.5,-89.5"/>
<text text-anchor="start" x="26.5" y="-77.5" font-family="Helvetica,sans-Serif" font-size="10.00">com.teragrep.pth_06.planner.bloomfilter.</text>
<text text-anchor="start" x="26.5" y="-66.5" font-family="Helvetica,sans-Serif" font-size="10.00">ConditionMatchBloomDBTablesTest.testSearch</text>
<text text-anchor="middle" x="140.5" y="-55.5" font-family="Helvetica,sans-Serif" font-size="10.00">TermTokenizedMatch</text>
</a>
</g>
</g>
<!-- Node1&#45;&gt;Node5 -->
<g id="edge5_Node000001_Node000005" class="edge">
<title>Node1&#45;&gt;Node5</title>
<g id="a_edge5_Node000001_Node000005"><a xlink:title=" ">
<path fill="none" stroke="#63b8ff" d="M335,-106.05C307.61,-100.81 277.13,-94.97 248.61,-89.51"/>
<polygon fill="#63b8ff" stroke="#63b8ff" points="334.47,-109.51 344.95,-107.96 335.78,-102.64 334.47,-109.51"/>
</a>
</g>
</g>
<!-- Node6 -->
<g id="Node000006" class="node">
<title>Node6</title>
<g id="a_Node000006"><a xlink:href="classcom_1_1teragrep_1_1pth__06_1_1planner_1_1bloomfilter_1_1ConditionMatchBloomDBTablesTest.html#adf5c3496f683eea487827b9b32ad1c56" target="_top" xlink:title=" ">
<polygon fill="white" stroke="#666666" points="276,-30 5,-30 5,0 276,0 276,-30"/>
<text text-anchor="start" x="13" y="-18" font-family="Helvetica,sans-Serif" font-size="10.00">com.teragrep.pth_06.planner.bloomfilter.</text>
<text text-anchor="middle" x="140.5" y="-7" font-family="Helvetica,sans-Serif" font-size="10.00">ConditionMatchBloomDBTablesTest.testSingleMatch</text>
</a>
</g>
</g>
<!-- Node1&#45;&gt;Node6 -->
<g id="edge6_Node000001_Node000006" class="edge">
<title>Node1&#45;&gt;Node6</title>
<g id="a_edge6_Node000001_Node000006"><a xlink:title=" ">
<path fill="none" stroke="#63b8ff" d="M394.5,-101.99C366.72,-82.9 322.95,-55.42 281,-40 270.49,-36.14 259.31,-32.86 248.03,-30.07"/>
<polygon fill="#63b8ff" stroke="#63b8ff" points="392.73,-105.03 402.94,-107.87 396.73,-99.28 392.73,-105.03"/>
</a>
</g>
</g>
</g>
</svg>
