<?xml version="1.0" encoding="UTF-8" standalone="no"?>
<!DOCTYPE svg PUBLIC "-//W3C//DTD SVG 1.1//EN"
 "http://www.w3.org/Graphics/SVG/1.1/DTD/svg11.dtd">
<!-- Generated by graphviz version 2.43.0 (0)
 -->
<!-- Title: com.teragrep.pth_06.planner.walker.conditions.SourceTypeConditionTest.wildcardNegationAsFalseTest Pages: 1 -->
<svg width="859pt" height="38pt"
 viewBox="0.00 0.00 859.00 38.00" xmlns="http://www.w3.org/2000/svg" xmlns:xlink="http://www.w3.org/1999/xlink">
<g id="graph0" class="graph" transform="scale(1 1) rotate(0) translate(4 34)">
<title>com.teragrep.pth_06.planner.walker.conditions.SourceTypeConditionTest.wildcardNegationAsFalseTest</title>
<!-- Node1 -->
<g id="Node000001" class="node">
<title>Node1</title>
<g id="a_Node000001"><a xlink:title=" ">
<polygon fill="#999999" stroke="#666666" points="283,-30 0,-30 0,0 283,0 283,-30"/>
<text text-anchor="start" x="8" y="-18" font-family="Helvetica,sans-Serif" font-size="10.00">com.teragrep.pth_06.planner.walker.conditions.</text>
<text text-anchor="middle" x="141.5" y="-7" font-family="Helvetica,sans-Serif" font-size="10.00">SourceTypeConditionTest.wildcardNegationAsFalseTest</text>
</a>
</g>
</g>
<!-- Node2 -->
<g id="Node000002" class="node">
<title>Node2</title>
<g id="a_Node000002"><a xlink:href="classcom_1_1teragrep_1_1pth__06_1_1planner_1_1walker_1_1conditions_1_1SourceTypeCondition.html#ae7125daefbefb1c254059081c5eb53ae" target="_top" xlink:title=" ">
<polygon fill="white" stroke="#666666" points="567,-30 319,-30 319,0 567,0 567,-30"/>
<text text-anchor="start" x="327" y="-18" font-family="Helvetica,sans-Serif" font-size="10.00">com.teragrep.pth_06.planner.walker.conditions.</text>
<text text-anchor="middle" x="443" y="-7" font-family="Helvetica,sans-Serif" font-size="10.00">SourceTypeCondition.condition</text>
</a>
</g>
</g>
<!-- Node1&#45;&gt;Node2 -->
<g id="edge1_Node000001_Node000002" class="edge">
<title>Node1&#45;&gt;Node2</title>
<g id="a_edge1_Node000001_Node000002"><a xlink:title=" ">
<path fill="none" stroke="#63b8ff" d="M283.04,-15C291.67,-15 300.34,-15 308.94,-15"/>
<polygon fill="#63b8ff" stroke="#63b8ff" points="308.99,-18.5 318.99,-15 308.99,-11.5 308.99,-18.5"/>
</a>
</g>
</g>
<!-- Node3 -->
<g id="Node000003" class="node">
<title>Node3</title>
<g id="a_Node000003"><a xlink:href="interfacecom_1_1teragrep_1_1pth__06_1_1planner_1_1walker_1_1conditions_1_1QueryCondition.html#aac40ccff3997039d273d50bd5ca122c0" target="_top" xlink:title=" ">
<polygon fill="white" stroke="#666666" points="851,-30 603,-30 603,0 851,0 851,-30"/>
<text text-anchor="start" x="611" y="-18" font-family="Helvetica,sans-Serif" font-size="10.00">com.teragrep.pth_06.planner.walker.conditions.</text>
<text text-anchor="middle" x="727" y="-7" font-family="Helvetica,sans-Serif" font-size="10.00">QueryCondition.condition</text>
</a>
</g>
</g>
<!-- Node2&#45;&gt;Node3 -->
<g id="edge2_Node000002_Node000003" class="edge">
<title>Node2&#45;&gt;Node3</title>
<g id="a_edge2_Node000002_Node000003"><a xlink:title=" ">
<path fill="none" stroke="#63b8ff" d="M567.28,-15C575.6,-15 584.01,-15 592.38,-15"/>
<polygon fill="#63b8ff" stroke="#63b8ff" points="592.57,-18.5 602.57,-15 592.57,-11.5 592.57,-18.5"/>
</a>
</g>
</g>
</g>
</svg>
