<?xml version="1.0" encoding="UTF-8" standalone="no"?>
<!DOCTYPE svg PUBLIC "-//W3C//DTD SVG 1.1//EN"
 "http://www.w3.org/Graphics/SVG/1.1/DTD/svg11.dtd">
<!-- Generated by graphviz version 2.43.0 (0)
 -->
<!-- Title: com.teragrep.pth_06.planner.walker.conditions.IndexStatementCondition.condition Pages: 1 -->
<svg width="564pt" height="134pt"
 viewBox="0.00 0.00 564.00 134.00" xmlns="http://www.w3.org/2000/svg" xmlns:xlink="http://www.w3.org/1999/xlink">
<g id="graph0" class="graph" transform="scale(1 1) rotate(0) translate(4 130)">
<title>com.teragrep.pth_06.planner.walker.conditions.IndexStatementCondition.condition</title>
<!-- Node1 -->
<g id="Node000001" class="node">
<title>Node1</title>
<g id="a_Node000001"><a xlink:title=" ">
<polygon fill="#999999" stroke="#666666" points="556,-78 308,-78 308,-48 556,-48 556,-78"/>
<text text-anchor="start" x="316" y="-66" font-family="Helvetica,sans-Serif" font-size="10.00">com.teragrep.pth_06.planner.walker.conditions.</text>
<text text-anchor="middle" x="432" y="-55" font-family="Helvetica,sans-Serif" font-size="10.00">IndexStatementCondition.condition</text>
</a>
</g>
</g>
<!-- Node2 -->
<g id="Node000002" class="node">
<title>Node2</title>
<g id="a_Node000002"><a xlink:href="classcom_1_1teragrep_1_1pth__06_1_1planner_1_1walker_1_1conditions_1_1IndexStatementConditionTest.html#aee8f642495a3c26dce06361c3e44056b" target="_top" xlink:title=" ">
<polygon fill="white" stroke="#666666" points="260,-126 12,-126 12,-96 260,-96 260,-126"/>
<text text-anchor="start" x="20" y="-114" font-family="Helvetica,sans-Serif" font-size="10.00">com.teragrep.pth_06.planner.walker.conditions.</text>
<text text-anchor="middle" x="136" y="-103" font-family="Helvetica,sans-Serif" font-size="10.00">IndexStatementConditionTest.noMatchesTest</text>
</a>
</g>
</g>
<!-- Node1&#45;&gt;Node2 -->
<g id="edge1_Node000001_Node000002" class="edge">
<title>Node1&#45;&gt;Node2</title>
<g id="a_edge1_Node000001_Node000002"><a xlink:title=" ">
<path fill="none" stroke="#63b8ff" d="M328.81,-79.68C296.32,-84.99 260.61,-90.82 228.89,-96"/>
<polygon fill="#63b8ff" stroke="#63b8ff" points="329.48,-83.12 338.78,-78.06 328.35,-76.21 329.48,-83.12"/>
</a>
</g>
</g>
<!-- Node3 -->
<g id="Node000003" class="node">
<title>Node3</title>
<g id="a_Node000003"><a xlink:href="classcom_1_1teragrep_1_1pth__06_1_1planner_1_1walker_1_1conditions_1_1IndexStatementConditionTest.html#a69de61f785b7a9fafee36855f7394932" target="_top" xlink:title=" ">
<polygon fill="white" stroke="#666666" points="272,-78 0,-78 0,-48 272,-48 272,-78"/>
<text text-anchor="start" x="8" y="-66" font-family="Helvetica,sans-Serif" font-size="10.00">com.teragrep.pth_06.planner.walker.conditions.</text>
<text text-anchor="middle" x="136" y="-55" font-family="Helvetica,sans-Serif" font-size="10.00">IndexStatementConditionTest.oneMatchingTableTest</text>
</a>
</g>
</g>
<!-- Node1&#45;&gt;Node3 -->
<g id="edge2_Node000001_Node000003" class="edge">
<title>Node1&#45;&gt;Node3</title>
<g id="a_edge2_Node000001_Node000003"><a xlink:title=" ">
<path fill="none" stroke="#63b8ff" d="M297.47,-63C289.14,-63 280.75,-63 272.4,-63"/>
<polygon fill="#63b8ff" stroke="#63b8ff" points="297.6,-66.5 307.6,-63 297.6,-59.5 297.6,-66.5"/>
</a>
</g>
</g>
<!-- Node4 -->
<g id="Node000004" class="node">
<title>Node4</title>
<g id="a_Node000004"><a xlink:href="classcom_1_1teragrep_1_1pth__06_1_1planner_1_1walker_1_1conditions_1_1IndexStatementConditionTest.html#affd12bbea6998863dc96bc4bdd7ab74f" target="_top" xlink:title=" ">
<polygon fill="white" stroke="#666666" points="272,-30 0,-30 0,0 272,0 272,-30"/>
<text text-anchor="start" x="8" y="-18" font-family="Helvetica,sans-Serif" font-size="10.00">com.teragrep.pth_06.planner.walker.conditions.</text>
<text text-anchor="middle" x="136" y="-7" font-family="Helvetica,sans-Serif" font-size="10.00">IndexStatementConditionTest.twoMatchingTableTest</text>
</a>
</g>
</g>
<!-- Node1&#45;&gt;Node4 -->
<g id="edge3_Node000001_Node000004" class="edge">
<title>Node1&#45;&gt;Node4</title>
<g id="a_edge3_Node000001_Node000004"><a xlink:title=" ">
<path fill="none" stroke="#63b8ff" d="M328.81,-46.32C296.32,-41.01 260.61,-35.18 228.89,-30"/>
<polygon fill="#63b8ff" stroke="#63b8ff" points="328.35,-49.79 338.78,-47.94 329.48,-42.88 328.35,-49.79"/>
</a>
</g>
</g>
</g>
</svg>
