<?xml version="1.0" encoding="UTF-8" standalone="no"?>
<!DOCTYPE svg PUBLIC "-//W3C//DTD SVG 1.1//EN"
 "http://www.w3.org/Graphics/SVG/1.1/DTD/svg11.dtd">
<!-- Generated by graphviz version 2.43.0 (0)
 -->
<!-- Title: com.teragrep.pth_06.planner.KafkaQueryProcessor.handleTopicAuthorizationException Pages: 1 -->
<svg width="452pt" height="67pt"
 viewBox="0.00 0.00 452.00 67.00" xmlns="http://www.w3.org/2000/svg" xmlns:xlink="http://www.w3.org/1999/xlink">
<g id="graph0" class="graph" transform="scale(1 1) rotate(0) translate(4 63)">
<title>com.teragrep.pth_06.planner.KafkaQueryProcessor.handleTopicAuthorizationException</title>
<!-- Node1 -->
<g id="Node000001" class="node">
<title>Node1</title>
<g id="a_Node000001"><a xlink:title=" ">
<polygon fill="#999999" stroke="#666666" points="444,-41 263,-41 263,0 444,0 444,-41"/>
<text text-anchor="start" x="271" y="-29" font-family="Helvetica,sans-Serif" font-size="10.00">com.teragrep.pth_06.planner.</text>
<text text-anchor="start" x="271" y="-18" font-family="Helvetica,sans-Serif" font-size="10.00">KafkaQueryProcessor.handleTopic</text>
<text text-anchor="middle" x="353.5" y="-7" font-family="Helvetica,sans-Serif" font-size="10.00">AuthorizationException</text>
</a>
</g>
</g>
<!-- Node1&#45;&gt;Node1 -->
<g id="edge1_Node000001_Node000001" class="edge">
<title>Node1&#45;&gt;Node1</title>
<g id="a_edge1_Node000001_Node000001"><a xlink:title=" ">
<path fill="none" stroke="#63b8ff" d="M394.79,-50.96C388.65,-55.74 374.89,-59 353.5,-59 319.28,-59 304.58,-50.65 309.39,-41.1"/>
<polygon fill="#63b8ff" stroke="#63b8ff" points="398.23,-51.67 397.61,-41.1 391.5,-49.75 398.23,-51.67"/>
</a>
</g>
</g>
<!-- Node2 -->
<g id="Node000002" class="node">
<title>Node2</title>
<g id="a_Node000002"><a xlink:href="classcom_1_1teragrep_1_1pth__06_1_1planner_1_1KafkaQueryProcessor.html#a87decab6e0809b8509eaa1d7679afc53" target="_top" xlink:title=" ">
<polygon fill="white" stroke="#666666" points="227,-35.5 0,-35.5 0,-5.5 227,-5.5 227,-35.5"/>
<text text-anchor="start" x="8" y="-23.5" font-family="Helvetica,sans-Serif" font-size="10.00">com.teragrep.pth_06.planner.</text>
<text text-anchor="middle" x="113.5" y="-12.5" font-family="Helvetica,sans-Serif" font-size="10.00">KafkaQueryProcessor.KafkaQueryProcessor</text>
</a>
</g>
</g>
<!-- Node1&#45;&gt;Node2 -->
<g id="edge2_Node000001_Node000002" class="edge">
<title>Node1&#45;&gt;Node2</title>
<g id="a_edge2_Node000001_Node000002"><a xlink:title=" ">
<path fill="none" stroke="#63b8ff" d="M252.72,-20.5C244.34,-20.5 235.83,-20.5 227.36,-20.5"/>
<polygon fill="#63b8ff" stroke="#63b8ff" points="252.86,-24 262.86,-20.5 252.86,-17 252.86,-24"/>
</a>
</g>
</g>
</g>
</svg>
