<?xml version="1.0" encoding="UTF-8" standalone="no"?>
<!DOCTYPE svg PUBLIC "-//W3C//DTD SVG 1.1//EN"
 "http://www.w3.org/Graphics/SVG/1.1/DTD/svg11.dtd">
<!-- Generated by graphviz version 2.43.0 (0)
 -->
<!-- Title: com.teragrep.pth_06.InstantiationTest Pages: 1 -->
<svg width="367pt" height="181pt"
 viewBox="0.00 0.00 366.50 181.00" xmlns="http://www.w3.org/2000/svg" xmlns:xlink="http://www.w3.org/1999/xlink">
<g id="graph0" class="graph" transform="scale(1 1) rotate(0) translate(4 177)">
<title>com.teragrep.pth_06.InstantiationTest</title>
<!-- Node1 -->
<g id="Node000001" class="node">
<title>Node1</title>
<g id="a_Node000001"><a xlink:title=" ">
<polygon fill="#999999" stroke="#666666" points="202,-19 0,-19 0,0 202,0 202,-19"/>
<text text-anchor="middle" x="101" y="-7" font-family="Helvetica,sans-Serif" font-size="10.00">com.teragrep.pth_06.InstantiationTest</text>
</a>
</g>
</g>
<!-- Node2 -->
<g id="Node000002" class="node">
<title>Node2</title>
<g id="a_Node000002"><a xlink:href="classcom_1_1teragrep_1_1pth__06_1_1MockS3Configuration.html" target="_top" xlink:title=" ">
<polygon fill="white" stroke="#666666" points="174.5,-173 27.5,-173 27.5,-143 174.5,-143 174.5,-173"/>
<text text-anchor="start" x="35.5" y="-161" font-family="Helvetica,sans-Serif" font-size="10.00">com.teragrep.pth_06.Mock</text>
<text text-anchor="middle" x="101" y="-150" font-family="Helvetica,sans-Serif" font-size="10.00">S3Configuration</text>
</a>
</g>
</g>
<!-- Node2&#45;&gt;Node1 -->
<g id="edge1_Node000001_Node000002" class="edge">
<title>Node2&#45;&gt;Node1</title>
<g id="a_edge1_Node000001_Node000002"><a xlink:title=" ">
<path fill="none" stroke="#9a32cd" stroke-dasharray="5,2" d="M97.82,-132.72C95.8,-114.39 93.78,-88.63 95,-66 95.9,-49.35 98.3,-30.02 99.78,-19.13"/>
<polygon fill="#9a32cd" stroke="#9a32cd" points="94.36,-133.3 99.01,-142.82 101.31,-132.48 94.36,-133.3"/>
</a>
</g>
<text text-anchor="middle" x="149" y="-78.5" font-family="Helvetica,sans-Serif" font-size="10.00" fill="grey"> mockS3Configuration</text>
</g>
<!-- Node3 -->
<g id="Node000003" class="node">
<title>Node3</title>
<g id="a_Node000003"><a xlink:href="classcom_1_1teragrep_1_1pth__06_1_1MockS3DataProvider.html" target="_top" xlink:title=" ">
<polygon fill="white" stroke="#666666" points="358.5,-96 211.5,-96 211.5,-66 358.5,-66 358.5,-96"/>
<text text-anchor="start" x="219.5" y="-84" font-family="Helvetica,sans-Serif" font-size="10.00">com.teragrep.pth_06.Mock</text>
<text text-anchor="middle" x="285" y="-73" font-family="Helvetica,sans-Serif" font-size="10.00">S3DataProvider</text>
</a>
</g>
</g>
<!-- Node2&#45;&gt;Node3 -->
<g id="edge3_Node000003_Node000002" class="edge">
<title>Node2&#45;&gt;Node3</title>
<g id="a_edge3_Node000003_Node000002"><a xlink:title=" ">
<path fill="none" stroke="#9a32cd" stroke-dasharray="5,2" d="M145.26,-138.96C177.59,-125.78 220.78,-108.18 250.55,-96.04"/>
<polygon fill="#9a32cd" stroke="#9a32cd" points="143.55,-135.88 135.61,-142.89 146.19,-142.36 143.55,-135.88"/>
</a>
</g>
<text text-anchor="middle" x="258" y="-117" font-family="Helvetica,sans-Serif" font-size="10.00" fill="grey"> mockS3Configuration</text>
</g>
<!-- Node3&#45;&gt;Node1 -->
<g id="edge2_Node000001_Node000003" class="edge">
<title>Node3&#45;&gt;Node1</title>
<g id="a_edge2_Node000001_Node000003"><a xlink:title=" ">
<path fill="none" stroke="#9a32cd" stroke-dasharray="5,2" d="M238.26,-62.35C201.58,-48.49 152.12,-29.81 123.68,-19.07"/>
<polygon fill="#9a32cd" stroke="#9a32cd" points="237.17,-65.68 247.76,-65.94 239.65,-59.13 237.17,-65.68"/>
</a>
</g>
<text text-anchor="middle" x="251" y="-40" font-family="Helvetica,sans-Serif" font-size="10.00" fill="grey"> mockS3DataProvider</text>
</g>
</g>
</svg>
