<?xml version="1.0" encoding="UTF-8" standalone="no"?>
<!DOCTYPE svg PUBLIC "-//W3C//DTD SVG 1.1//EN"
 "http://www.w3.org/Graphics/SVG/1.1/DTD/svg11.dtd">
<!-- Generated by graphviz version 2.43.0 (0)
 -->
<!-- Title: com.teragrep.pth_06.task.KafkaMicroBatchInputPartitionReaderTest.testConsumer Pages: 1 -->
<svg width="771pt" height="86pt"
 viewBox="0.00 0.00 771.00 86.00" xmlns="http://www.w3.org/2000/svg" xmlns:xlink="http://www.w3.org/1999/xlink">
<g id="graph0" class="graph" transform="scale(1 1) rotate(0) translate(4 82)">
<title>com.teragrep.pth_06.task.KafkaMicroBatchInputPartitionReaderTest.testConsumer</title>
<!-- Node1 -->
<g id="Node000001" class="node">
<title>Node1</title>
<g id="a_Node000001"><a xlink:title=" ">
<polygon fill="#999999" stroke="#666666" points="199,-59.5 0,-59.5 0,-18.5 199,-18.5 199,-59.5"/>
<text text-anchor="start" x="8" y="-47.5" font-family="Helvetica,sans-Serif" font-size="10.00">com.teragrep.pth_06.task.</text>
<text text-anchor="start" x="8" y="-36.5" font-family="Helvetica,sans-Serif" font-size="10.00">KafkaMicroBatchInputPartitionReader</text>
<text text-anchor="middle" x="99.5" y="-25.5" font-family="Helvetica,sans-Serif" font-size="10.00">Test.testConsumer</text>
</a>
</g>
</g>
<!-- Node2 -->
<g id="Node000002" class="node">
<title>Node2</title>
<g id="a_Node000002"><a xlink:href="classcom_1_1teragrep_1_1pth__06_1_1task_1_1KafkaMicroBatchInputPartitionReader.html#abe89649d8f8af30aa93eb20a3bd44110" target="_top" xlink:title=" ">
<polygon fill="white" stroke="#666666" points="455,-78 238,-78 238,-48 455,-48 455,-78"/>
<text text-anchor="start" x="246" y="-66" font-family="Helvetica,sans-Serif" font-size="10.00">com.teragrep.pth_06.task.</text>
<text text-anchor="middle" x="346.5" y="-55" font-family="Helvetica,sans-Serif" font-size="10.00">KafkaMicroBatchInputPartitionReader.get</text>
</a>
</g>
</g>
<!-- Node1&#45;&gt;Node2 -->
<g id="edge1_Node000001_Node000002" class="edge">
<title>Node1&#45;&gt;Node2</title>
<g id="a_edge1_Node000001_Node000002"><a xlink:title=" ">
<path fill="none" stroke="#63b8ff" d="M199.09,-48.66C208.57,-49.59 218.24,-50.53 227.87,-51.48"/>
<polygon fill="#63b8ff" stroke="#63b8ff" points="227.59,-54.97 237.88,-52.46 228.27,-48 227.59,-54.97"/>
</a>
</g>
</g>
<!-- Node3 -->
<g id="Node000003" class="node">
<title>Node3</title>
<g id="a_Node000003"><a xlink:href="classcom_1_1teragrep_1_1pth__06_1_1task_1_1KafkaMicroBatchInputPartitionReader.html#a78a1bd06ba511aa8001d46786cac39e3" target="_top" xlink:title=" ">
<polygon fill="white" stroke="#666666" points="458,-30 235,-30 235,0 458,0 458,-30"/>
<text text-anchor="start" x="243" y="-18" font-family="Helvetica,sans-Serif" font-size="10.00">com.teragrep.pth_06.task.</text>
<text text-anchor="middle" x="346.5" y="-7" font-family="Helvetica,sans-Serif" font-size="10.00">KafkaMicroBatchInputPartitionReader.next</text>
</a>
</g>
</g>
<!-- Node1&#45;&gt;Node3 -->
<g id="edge2_Node000001_Node000003" class="edge">
<title>Node1&#45;&gt;Node3</title>
<g id="a_edge2_Node000001_Node000003"><a xlink:title=" ">
<path fill="none" stroke="#63b8ff" d="M199.09,-29.34C207.5,-28.52 216.07,-27.68 224.62,-26.84"/>
<polygon fill="#63b8ff" stroke="#63b8ff" points="225.04,-30.32 234.65,-25.86 224.36,-23.35 225.04,-30.32"/>
</a>
</g>
</g>
<!-- Node4 -->
<g id="Node000004" class="node">
<title>Node4</title>
<g id="a_Node000004"><a xlink:href="classcom_1_1teragrep_1_1pth__06_1_1task_1_1KafkaMicroBatchInputPartitionReader.html#a6867e621ed6821e58bb3dcbdcaf3b507" target="_top" xlink:title=" ">
<polygon fill="white" stroke="#666666" points="763,-30 494,-30 494,0 763,0 763,-30"/>
<text text-anchor="start" x="502" y="-18" font-family="Helvetica,sans-Serif" font-size="10.00">com.teragrep.pth_06.task.</text>
<text text-anchor="middle" x="628.5" y="-7" font-family="Helvetica,sans-Serif" font-size="10.00">KafkaMicroBatchInputPartitionReader.convertToRow</text>
</a>
</g>
</g>
<!-- Node3&#45;&gt;Node4 -->
<g id="edge3_Node000003_Node000004" class="edge">
<title>Node3&#45;&gt;Node4</title>
<g id="a_edge3_Node000003_Node000004"><a xlink:title=" ">
<path fill="none" stroke="#63b8ff" d="M458.16,-15C466.62,-15 475.23,-15 483.86,-15"/>
<polygon fill="#63b8ff" stroke="#63b8ff" points="483.99,-18.5 493.99,-15 483.99,-11.5 483.99,-18.5"/>
</a>
</g>
</g>
</g>
</svg>
