<?xml version="1.0" encoding="UTF-8" standalone="no"?>
<!DOCTYPE svg PUBLIC "-//W3C//DTD SVG 1.1//EN"
 "http://www.w3.org/Graphics/SVG/1.1/DTD/svg11.dtd">
<!-- Generated by graphviz version 2.43.0 (0)
 -->
<!-- Title: com.teragrep.pth_06.planner.walker.FilterlessSearchImpl.condition Pages: 1 -->
<svg width="471pt" height="98pt"
 viewBox="0.00 0.00 471.00 97.50" xmlns="http://www.w3.org/2000/svg" xmlns:xlink="http://www.w3.org/1999/xlink">
<g id="graph0" class="graph" transform="scale(1 1) rotate(0) translate(4 93.5)">
<title>com.teragrep.pth_06.planner.walker.FilterlessSearchImpl.condition</title>
<!-- Node1 -->
<g id="Node000001" class="node">
<title>Node1</title>
<g id="a_Node000001"><a xlink:title=" ">
<polygon fill="#999999" stroke="#666666" points="463,-62.5 269,-62.5 269,-32.5 463,-32.5 463,-62.5"/>
<text text-anchor="start" x="277" y="-50.5" font-family="Helvetica,sans-Serif" font-size="10.00">com.teragrep.pth_06.planner.walker.</text>
<text text-anchor="middle" x="366" y="-39.5" font-family="Helvetica,sans-Serif" font-size="10.00">FilterlessSearchImpl.condition</text>
</a>
</g>
</g>
<!-- Node2 -->
<g id="Node000002" class="node">
<title>Node2</title>
<g id="a_Node000002"><a xlink:href="classcom_1_1teragrep_1_1pth__06_1_1planner_1_1walker_1_1FilterlessSearchImplTest.html#ace3886ee146da6f75125e36fd7c5ce42" target="_top" xlink:title=" ">
<polygon fill="white" stroke="#666666" points="233,-89.5 0,-89.5 0,-59.5 233,-59.5 233,-89.5"/>
<text text-anchor="start" x="8" y="-77.5" font-family="Helvetica,sans-Serif" font-size="10.00">com.teragrep.pth_06.planner.walker.</text>
<text text-anchor="middle" x="116.5" y="-66.5" font-family="Helvetica,sans-Serif" font-size="10.00">FilterlessSearchImplTest.testMatchCondition</text>
</a>
</g>
</g>
<!-- Node1&#45;&gt;Node2 -->
<g id="edge1_Node000001_Node000002" class="edge">
<title>Node1&#45;&gt;Node2</title>
<g id="a_edge1_Node000001_Node000002"><a xlink:title=" ">
<path fill="none" stroke="#63b8ff" d="M258.75,-59.09C250.32,-60.01 241.79,-60.94 233.3,-61.87"/>
<polygon fill="#63b8ff" stroke="#63b8ff" points="259.39,-62.54 268.96,-57.98 258.64,-55.58 259.39,-62.54"/>
</a>
</g>
</g>
<!-- Node3 -->
<g id="Node000003" class="node">
<title>Node3</title>
<g id="a_Node000003"><a xlink:href="classcom_1_1teragrep_1_1pth__06_1_1planner_1_1walker_1_1FilterlessSearchImplTest.html#ac9c169f4e0f8f85769ee65086a4e91a5" target="_top" xlink:title=" ">
<polygon fill="white" stroke="#666666" points="216.5,-41 16.5,-41 16.5,0 216.5,0 216.5,-41"/>
<text text-anchor="start" x="24.5" y="-29" font-family="Helvetica,sans-Serif" font-size="10.00">com.teragrep.pth_06.planner.walker.</text>
<text text-anchor="start" x="24.5" y="-18" font-family="Helvetica,sans-Serif" font-size="10.00">FilterlessSearchImplTest.testNoMatch</text>
<text text-anchor="middle" x="116.5" y="-7" font-family="Helvetica,sans-Serif" font-size="10.00">Condition</text>
</a>
</g>
</g>
<!-- Node1&#45;&gt;Node3 -->
<g id="edge2_Node000001_Node000003" class="edge">
<title>Node1&#45;&gt;Node3</title>
<g id="a_edge2_Node000001_Node000003"><a xlink:title=" ">
<path fill="none" stroke="#63b8ff" d="M258.85,-35.92C244.88,-34.4 230.61,-32.84 216.76,-31.33"/>
<polygon fill="#63b8ff" stroke="#63b8ff" points="258.64,-39.42 268.96,-37.02 259.39,-32.46 258.64,-39.42"/>
</a>
</g>
</g>
</g>
</svg>
