<?xml version="1.0" encoding="UTF-8" standalone="no"?>
<!DOCTYPE svg PUBLIC "-//W3C//DTD SVG 1.1//EN"
 "http://www.w3.org/Graphics/SVG/1.1/DTD/svg11.dtd">
<!-- Generated by graphviz version 2.43.0 (0)
 -->
<!-- Title: com.teragrep.pth_06.planner.walker.conditions.ValidElement.operation Pages: 1 -->
<svg width="1108pt" height="230pt"
 viewBox="0.00 0.00 1108.00 230.00" xmlns="http://www.w3.org/2000/svg" xmlns:xlink="http://www.w3.org/1999/xlink">
<g id="graph0" class="graph" transform="scale(1 1) rotate(0) translate(4 226)">
<title>com.teragrep.pth_06.planner.walker.conditions.ValidElement.operation</title>
<!-- Node1 -->
<g id="Node000001" class="node">
<title>Node1</title>
<g id="a_Node000001"><a xlink:title=" ">
<polygon fill="#999999" stroke="#666666" points="1100,-150 852,-150 852,-120 1100,-120 1100,-150"/>
<text text-anchor="start" x="860" y="-138" font-family="Helvetica,sans-Serif" font-size="10.00">com.teragrep.pth_06.planner.walker.conditions.</text>
<text text-anchor="middle" x="976" y="-127" font-family="Helvetica,sans-Serif" font-size="10.00">ValidElement.operation</text>
</a>
</g>
</g>
<!-- Node2 -->
<g id="Node000002" class="node">
<title>Node2</title>
<g id="a_Node000002"><a xlink:href="classcom_1_1teragrep_1_1pth__06_1_1planner_1_1walker_1_1conditions_1_1ElementCondition.html#ad598b3368f8fca059dfc07a49d352f31" target="_top" xlink:title=" ">
<polygon fill="white" stroke="#666666" points="816,-174 568,-174 568,-144 816,-144 816,-174"/>
<text text-anchor="start" x="576" y="-162" font-family="Helvetica,sans-Serif" font-size="10.00">com.teragrep.pth_06.planner.walker.conditions.</text>
<text text-anchor="middle" x="692" y="-151" font-family="Helvetica,sans-Serif" font-size="10.00">ElementCondition.conditionForJournalDBQuery</text>
</a>
</g>
</g>
<!-- Node1&#45;&gt;Node2 -->
<g id="edge1_Node000001_Node000002" class="edge">
<title>Node1&#45;&gt;Node2</title>
<g id="a_edge1_Node000001_Node000002"><a xlink:title=" ">
<path fill="none" stroke="#63b8ff" d="M841.53,-146.36C833.16,-147.07 824.75,-147.79 816.43,-148.5"/>
<polygon fill="#63b8ff" stroke="#63b8ff" points="842.05,-149.83 851.72,-145.49 841.46,-142.85 842.05,-149.83"/>
</a>
</g>
</g>
<!-- Node4 -->
<g id="Node000004" class="node">
<title>Node4</title>
<g id="a_Node000004"><a xlink:href="classcom_1_1teragrep_1_1pth__06_1_1planner_1_1walker_1_1conditions_1_1ElementCondition.html#ad1faef74318cb350165bbeafd562ecde" target="_top" xlink:title=" ">
<polygon fill="white" stroke="#666666" points="248,-222 0,-222 0,-192 248,-192 248,-222"/>
<text text-anchor="start" x="8" y="-210" font-family="Helvetica,sans-Serif" font-size="10.00">com.teragrep.pth_06.planner.walker.conditions.</text>
<text text-anchor="middle" x="124" y="-199" font-family="Helvetica,sans-Serif" font-size="10.00">ElementCondition.conditionForStreamDBQuery</text>
</a>
</g>
</g>
<!-- Node1&#45;&gt;Node4 -->
<g id="edge10_Node000001_Node000004" class="edge">
<title>Node1&#45;&gt;Node4</title>
<g id="a_edge10_Node000001_Node000004"><a xlink:title=" ">
<path fill="none" stroke="#63b8ff" d="M925.79,-153.46C894.77,-164.18 853.61,-176.78 816,-183 619.41,-215.52 387.23,-215.96 248.27,-212.25"/>
<polygon fill="#63b8ff" stroke="#63b8ff" points="927.22,-156.67 935.49,-150.05 924.9,-150.06 927.22,-156.67"/>
</a>
</g>
</g>
<!-- Node9 -->
<g id="Node000009" class="node">
<title>Node9</title>
<g id="a_Node000009"><a xlink:href="classcom_1_1teragrep_1_1pth__06_1_1planner_1_1walker_1_1conditions_1_1ElementCondition.html#af340b59529954bf83536432d3512af34" target="_top" xlink:title=" ">
<polygon fill="white" stroke="#666666" points="816,-123 568,-123 568,-93 816,-93 816,-123"/>
<text text-anchor="start" x="576" y="-111" font-family="Helvetica,sans-Serif" font-size="10.00">com.teragrep.pth_06.planner.walker.conditions.</text>
<text text-anchor="middle" x="692" y="-100" font-family="Helvetica,sans-Serif" font-size="10.00">ElementCondition.isBloomSearchCondition</text>
</a>
</g>
</g>
<!-- Node1&#45;&gt;Node9 -->
<g id="edge11_Node000001_Node000009" class="edge">
<title>Node1&#45;&gt;Node9</title>
<g id="a_edge11_Node000001_Node000009"><a xlink:title=" ">
<path fill="none" stroke="#63b8ff" d="M841.53,-122.22C833.16,-121.42 824.75,-120.61 816.43,-119.82"/>
<polygon fill="#63b8ff" stroke="#63b8ff" points="841.43,-125.73 851.72,-123.2 842.1,-118.76 841.43,-125.73"/>
</a>
</g>
</g>
<!-- Node12 -->
<g id="Node000012" class="node">
<title>Node12</title>
<g id="a_Node000012"><a xlink:href="classcom_1_1teragrep_1_1pth__06_1_1planner_1_1walker_1_1conditions_1_1ValidElementTest.html#aebd4924948cd0e533806857b2ba0ba83" target="_top" xlink:title=" ">
<polygon fill="white" stroke="#666666" points="816,-75 568,-75 568,-45 816,-45 816,-75"/>
<text text-anchor="start" x="576" y="-63" font-family="Helvetica,sans-Serif" font-size="10.00">com.teragrep.pth_06.planner.walker.conditions.</text>
<text text-anchor="middle" x="692" y="-52" font-family="Helvetica,sans-Serif" font-size="10.00">ValidElementTest.validTest</text>
</a>
</g>
</g>
<!-- Node1&#45;&gt;Node12 -->
<g id="edge14_Node000001_Node000012" class="edge">
<title>Node1&#45;&gt;Node12</title>
<g id="a_edge14_Node000001_Node000012"><a xlink:title=" ">
<path fill="none" stroke="#63b8ff" d="M923.2,-116.68C892.33,-106.19 852.23,-93.31 816,-84 803.46,-80.78 790.11,-77.76 776.99,-75.02"/>
<polygon fill="#63b8ff" stroke="#63b8ff" points="922.28,-120.07 932.88,-119.99 924.55,-113.44 922.28,-120.07"/>
</a>
</g>
</g>
<!-- Node3 -->
<g id="Node000003" class="node">
<title>Node3</title>
<g id="a_Node000003"><a xlink:href="classcom_1_1teragrep_1_1pth__06_1_1planner_1_1walker_1_1conditions_1_1ElementCondition.html#a77e4bd928b9d9dd1e2ef3380f65e3ab7" target="_top" xlink:title=" ">
<polygon fill="white" stroke="#666666" points="532,-174 284,-174 284,-144 532,-144 532,-174"/>
<text text-anchor="start" x="292" y="-162" font-family="Helvetica,sans-Serif" font-size="10.00">com.teragrep.pth_06.planner.walker.conditions.</text>
<text text-anchor="middle" x="408" y="-151" font-family="Helvetica,sans-Serif" font-size="10.00">ElementCondition.condition</text>
</a>
</g>
</g>
<!-- Node2&#45;&gt;Node3 -->
<g id="edge2_Node000002_Node000003" class="edge">
<title>Node2&#45;&gt;Node3</title>
<g id="a_edge2_Node000002_Node000003"><a xlink:title=" ">
<path fill="none" stroke="#63b8ff" d="M557.53,-152.26C549.16,-152.24 540.75,-152.25 532.43,-152.3"/>
<polygon fill="#63b8ff" stroke="#63b8ff" points="557.71,-155.76 567.72,-152.3 557.73,-148.76 557.71,-155.76"/>
</a>
</g>
</g>
<!-- Node3&#45;&gt;Node2 -->
<g id="edge3_Node000003_Node000002" class="edge">
<title>Node3&#45;&gt;Node2</title>
<g id="a_edge3_Node000003_Node000002"><a xlink:title=" ">
<path fill="none" stroke="#63b8ff" d="M542.62,-165.74C550.99,-165.76 559.4,-165.75 567.72,-165.7"/>
<polygon fill="#63b8ff" stroke="#63b8ff" points="542.44,-162.24 532.43,-165.7 542.42,-169.24 542.44,-162.24"/>
</a>
</g>
</g>
<!-- Node3&#45;&gt;Node4 -->
<g id="edge4_Node000003_Node000004" class="edge">
<title>Node3&#45;&gt;Node4</title>
<g id="a_edge4_Node000003_Node000004"><a xlink:title=" ">
<path fill="none" stroke="#63b8ff" d="M273.6,-174.97C240.91,-180.45 207.67,-186.52 180.94,-191.97"/>
<polygon fill="#63b8ff" stroke="#63b8ff" points="274.43,-178.38 283.72,-173.28 273.28,-171.47 274.43,-178.38"/>
</a>
</g>
</g>
<!-- Node5 -->
<g id="Node000005" class="node">
<title>Node5</title>
<g id="a_Node000005"><a xlink:href="classcom_1_1teragrep_1_1pth__06_1_1planner_1_1walker_1_1conditions_1_1ElementConditionTest.html#aa7b824b2c1a077cb408c7e0532131e67" target="_top" xlink:title=" ">
<polygon fill="white" stroke="#666666" points="248,-174 0,-174 0,-144 248,-144 248,-174"/>
<text text-anchor="start" x="8" y="-162" font-family="Helvetica,sans-Serif" font-size="10.00">com.teragrep.pth_06.planner.walker.conditions.</text>
<text text-anchor="middle" x="124" y="-151" font-family="Helvetica,sans-Serif" font-size="10.00">ElementConditionTest.equalsTest</text>
</a>
</g>
</g>
<!-- Node3&#45;&gt;Node5 -->
<g id="edge6_Node000003_Node000005" class="edge">
<title>Node3&#45;&gt;Node5</title>
<g id="a_edge6_Node000003_Node000005"><a xlink:title=" ">
<path fill="none" stroke="#63b8ff" d="M273.53,-159C265.16,-159 256.75,-159 248.43,-159"/>
<polygon fill="#63b8ff" stroke="#63b8ff" points="273.72,-162.5 283.72,-159 273.72,-155.5 273.72,-162.5"/>
</a>
</g>
</g>
<!-- Node6 -->
<g id="Node000006" class="node">
<title>Node6</title>
<g id="a_Node000006"><a xlink:href="classcom_1_1teragrep_1_1pth__06_1_1planner_1_1walker_1_1conditions_1_1ElementConditionTest.html#afc3b6a3b2fe594a7c6df49f7ad3cb88a" target="_top" xlink:title=" ">
<polygon fill="white" stroke="#666666" points="248,-126 0,-126 0,-96 248,-96 248,-126"/>
<text text-anchor="start" x="8" y="-114" font-family="Helvetica,sans-Serif" font-size="10.00">com.teragrep.pth_06.planner.walker.conditions.</text>
<text text-anchor="middle" x="124" y="-103" font-family="Helvetica,sans-Serif" font-size="10.00">ElementConditionTest.testInvalidStreamTags</text>
</a>
</g>
</g>
<!-- Node3&#45;&gt;Node6 -->
<g id="edge7_Node000003_Node000006" class="edge">
<title>Node3&#45;&gt;Node6</title>
<g id="a_edge7_Node000003_Node000006"><a xlink:title=" ">
<path fill="none" stroke="#63b8ff" d="M308.58,-142.25C277.53,-136.96 243.43,-131.16 213.14,-126"/>
<polygon fill="#63b8ff" stroke="#63b8ff" points="308.1,-145.72 318.55,-143.94 309.28,-138.82 308.1,-145.72"/>
</a>
</g>
</g>
<!-- Node7 -->
<g id="Node000007" class="node">
<title>Node7</title>
<g id="a_Node000007"><a xlink:href="classcom_1_1teragrep_1_1pth__06_1_1planner_1_1walker_1_1conditions_1_1ElementConditionTest.html#a8128d1d936c645c93ebfc6f5fe4cdbe6" target="_top" xlink:title=" ">
<polygon fill="white" stroke="#666666" points="248,-78 0,-78 0,-48 248,-48 248,-78"/>
<text text-anchor="start" x="8" y="-66" font-family="Helvetica,sans-Serif" font-size="10.00">com.teragrep.pth_06.planner.walker.conditions.</text>
<text text-anchor="middle" x="124" y="-55" font-family="Helvetica,sans-Serif" font-size="10.00">ElementConditionTest.testStreamTags</text>
</a>
</g>
</g>
<!-- Node3&#45;&gt;Node7 -->
<g id="edge8_Node000003_Node000007" class="edge">
<title>Node3&#45;&gt;Node7</title>
<g id="a_edge8_Node000003_Node000007"><a xlink:title=" ">
<path fill="none" stroke="#63b8ff" d="M292.15,-139.63C289.36,-138.19 286.63,-136.65 284,-135 261.41,-120.84 270.59,-101.16 248,-87 242.56,-83.59 236.74,-80.65 230.71,-78.11"/>
<polygon fill="#63b8ff" stroke="#63b8ff" points="290.75,-142.84 301.29,-143.89 293.71,-136.5 290.75,-142.84"/>
</a>
</g>
</g>
<!-- Node8 -->
<g id="Node000008" class="node">
<title>Node8</title>
<g id="a_Node000008"><a xlink:href="classcom_1_1teragrep_1_1pth__06_1_1planner_1_1walker_1_1conditions_1_1ElementConditionTest.html#aed3578cbc9f7e4f77695db0f1f45b40a" target="_top" xlink:title=" ">
<polygon fill="white" stroke="#666666" points="248,-30 0,-30 0,0 248,0 248,-30"/>
<text text-anchor="start" x="8" y="-18" font-family="Helvetica,sans-Serif" font-size="10.00">com.teragrep.pth_06.planner.walker.conditions.</text>
<text text-anchor="middle" x="124" y="-7" font-family="Helvetica,sans-Serif" font-size="10.00">ElementConditionTest.testTimeQualifiers</text>
</a>
</g>
</g>
<!-- Node3&#45;&gt;Node8 -->
<g id="edge9_Node000003_Node000008" class="edge">
<title>Node3&#45;&gt;Node8</title>
<g id="a_edge9_Node000003_Node000008"><a xlink:title=" ">
<path fill="none" stroke="#63b8ff" d="M288.22,-138.33C286.78,-137.27 285.37,-136.16 284,-135 249.22,-105.56 282.78,-68.44 248,-39 244.01,-35.63 239.69,-32.67 235.14,-30.1"/>
<polygon fill="#63b8ff" stroke="#63b8ff" points="286.56,-141.42 296.86,-143.9 290.36,-135.54 286.56,-141.42"/>
</a>
</g>
</g>
<!-- Node4&#45;&gt;Node3 -->
<g id="edge5_Node000004_Node000003" class="edge">
<title>Node4&#45;&gt;Node3</title>
<g id="a_edge5_Node000004_Node000003"><a xlink:title=" ">
<path fill="none" stroke="#63b8ff" d="M258.39,-191.04C291.04,-185.55 324.24,-179.49 350.95,-174.06"/>
<polygon fill="#63b8ff" stroke="#63b8ff" points="257.57,-187.62 248.28,-192.72 258.72,-194.53 257.57,-187.62"/>
</a>
</g>
</g>
<!-- Node10 -->
<g id="Node000010" class="node">
<title>Node10</title>
<g id="a_Node000010"><a xlink:href="classcom_1_1teragrep_1_1pth__06_1_1planner_1_1walker_1_1conditions_1_1ElementConditionTest.html#ac00569686f11d16cb1b703c1823cb467" target="_top" xlink:title=" ">
<polygon fill="white" stroke="#666666" points="532,-125.5 284,-125.5 284,-84.5 532,-84.5 532,-125.5"/>
<text text-anchor="start" x="292" y="-113.5" font-family="Helvetica,sans-Serif" font-size="10.00">com.teragrep.pth_06.planner.walker.conditions.</text>
<text text-anchor="start" x="292" y="-102.5" font-family="Helvetica,sans-Serif" font-size="10.00">ElementConditionTest.testIndexStatementWith</text>
<text text-anchor="middle" x="408" y="-91.5" font-family="Helvetica,sans-Serif" font-size="10.00">BadConnection</text>
</a>
</g>
</g>
<!-- Node9&#45;&gt;Node10 -->
<g id="edge12_Node000009_Node000010" class="edge">
<title>Node9&#45;&gt;Node10</title>
<g id="a_edge12_Node000009_Node000010"><a xlink:title=" ">
<path fill="none" stroke="#63b8ff" d="M557.53,-106.58C549.16,-106.49 540.75,-106.4 532.43,-106.31"/>
<polygon fill="#63b8ff" stroke="#63b8ff" points="557.68,-110.08 567.72,-106.69 557.76,-103.08 557.68,-110.08"/>
</a>
</g>
</g>
<!-- Node11 -->
<g id="Node000011" class="node">
<title>Node11</title>
<g id="a_Node000011"><a xlink:href="classcom_1_1teragrep_1_1pth__06_1_1planner_1_1walker_1_1conditions_1_1ElementConditionTest.html#a6a7f290b7a91e0b6218d4e4f01887ac2" target="_top" xlink:title=" ">
<polygon fill="white" stroke="#666666" points="532,-66 284,-66 284,-36 532,-36 532,-66"/>
<text text-anchor="start" x="292" y="-54" font-family="Helvetica,sans-Serif" font-size="10.00">com.teragrep.pth_06.planner.walker.conditions.</text>
<text text-anchor="middle" x="408" y="-43" font-family="Helvetica,sans-Serif" font-size="10.00">ElementConditionTest.testIsIndexStatement</text>
</a>
</g>
</g>
<!-- Node9&#45;&gt;Node11 -->
<g id="edge13_Node000009_Node000011" class="edge">
<title>Node9&#45;&gt;Node11</title>
<g id="a_edge13_Node000009_Node000011"><a xlink:title=" ">
<path fill="none" stroke="#63b8ff" d="M602.14,-90.95C590.65,-88.66 579.04,-86.3 568,-84 551.96,-80.65 548.03,-79.41 532,-76 516.55,-72.71 499.98,-69.28 484.17,-66.05"/>
<polygon fill="#63b8ff" stroke="#63b8ff" points="601.71,-94.43 612.2,-92.94 603.07,-87.56 601.71,-94.43"/>
</a>
</g>
</g>
</g>
</svg>
