<?xml version="1.0" encoding="UTF-8" standalone="no"?>
<!DOCTYPE svg PUBLIC "-//W3C//DTD SVG 1.1//EN"
 "http://www.w3.org/Graphics/SVG/1.1/DTD/svg11.dtd">
<!-- Generated by graphviz version 2.43.0 (0)
 -->
<!-- Title: com.teragrep.pth_06.ConfiguredLogger.debug Pages: 1 -->
<svg width="1138pt" height="750pt"
 viewBox="0.00 0.00 1138.00 750.00" xmlns="http://www.w3.org/2000/svg" xmlns:xlink="http://www.w3.org/1999/xlink">
<g id="graph0" class="graph" transform="scale(1 1) rotate(0) translate(4 746)">
<title>com.teragrep.pth_06.ConfiguredLogger.debug</title>
<!-- Node1 -->
<g id="Node000001" class="node">
<title>Node1</title>
<g id="a_Node000001"><a xlink:title=" ">
<polygon fill="#999999" stroke="#666666" points="1130,-392 957,-392 957,-362 1130,-362 1130,-392"/>
<text text-anchor="start" x="965" y="-380" font-family="Helvetica,sans-Serif" font-size="10.00">com.teragrep.pth_06.Configured</text>
<text text-anchor="middle" x="1043.5" y="-369" font-family="Helvetica,sans-Serif" font-size="10.00">Logger.debug</text>
</a>
</g>
</g>
<!-- Node2 -->
<g id="Node000002" class="node">
<title>Node2</title>
<g id="a_Node000002"><a xlink:href="classcom_1_1teragrep_1_1pth__06_1_1planner_1_1StreamDBClient.html#af7f3f116b02dd6c60f7afad4ea26f746" target="_top" xlink:title=" ">
<polygon fill="white" stroke="#666666" points="893,-742 733,-742 733,-712 893,-712 893,-742"/>
<text text-anchor="start" x="741" y="-730" font-family="Helvetica,sans-Serif" font-size="10.00">com.teragrep.pth_06.planner.</text>
<text text-anchor="middle" x="813" y="-719" font-family="Helvetica,sans-Serif" font-size="10.00">StreamDBClient.close</text>
</a>
</g>
</g>
<!-- Node1&#45;&gt;Node2 -->
<g id="edge1_Node000001_Node000002" class="edge">
<title>Node1&#45;&gt;Node2</title>
<g id="a_edge1_Node000001_Node000002"><a xlink:title=" ">
<path fill="none" stroke="#63b8ff" d="M1040.94,-402.46C1035.73,-464.1 1013.55,-622.26 921,-703 912.97,-710.01 903.33,-715.1 893.17,-718.78"/>
<polygon fill="#63b8ff" stroke="#63b8ff" points="1044.46,-402.35 1041.73,-392.11 1037.48,-401.81 1044.46,-402.35"/>
</a>
</g>
</g>
<!-- Node3 -->
<g id="Node000003" class="node">
<title>Node3</title>
<g id="a_Node000003"><a xlink:href="classcom_1_1teragrep_1_1pth__06_1_1ArchiveMicroStreamReader.html#a0ba49415b3c82882789a4c9e9f58f472" target="_top" xlink:title=" ">
<polygon fill="white" stroke="#666666" points="892,-694 734,-694 734,-664 892,-664 892,-694"/>
<text text-anchor="start" x="742" y="-682" font-family="Helvetica,sans-Serif" font-size="10.00">com.teragrep.pth_06.Archive</text>
<text text-anchor="middle" x="813" y="-671" font-family="Helvetica,sans-Serif" font-size="10.00">MicroStreamReader.commit</text>
</a>
</g>
</g>
<!-- Node1&#45;&gt;Node3 -->
<g id="edge2_Node000001_Node000003" class="edge">
<title>Node1&#45;&gt;Node3</title>
<g id="a_edge2_Node000001_Node000003"><a xlink:title=" ">
<path fill="none" stroke="#63b8ff" d="M1039.17,-402.11C1030.49,-457.03 1001.95,-588.23 921,-655 912.63,-661.9 902.68,-666.92 892.27,-670.56"/>
<polygon fill="#63b8ff" stroke="#63b8ff" points="1042.63,-402.59 1040.65,-392.18 1035.71,-401.56 1042.63,-402.59"/>
</a>
</g>
</g>
<!-- Node4 -->
<g id="Node000004" class="node">
<title>Node4</title>
<g id="a_Node000004"><a xlink:href="classcom_1_1teragrep_1_1pth__06_1_1planner_1_1SliceTable.html#a744def0dd9aab42426ac96e2cf62ca41" target="_top" xlink:title=" ">
<polygon fill="white" stroke="#666666" points="893,-598 733,-598 733,-568 893,-568 893,-598"/>
<text text-anchor="start" x="741" y="-586" font-family="Helvetica,sans-Serif" font-size="10.00">com.teragrep.pth_06.planner.</text>
<text text-anchor="middle" x="813" y="-575" font-family="Helvetica,sans-Serif" font-size="10.00">SliceTable.create</text>
</a>
</g>
</g>
<!-- Node1&#45;&gt;Node4 -->
<g id="edge3_Node000001_Node000004" class="edge">
<title>Node1&#45;&gt;Node4</title>
<g id="a_edge3_Node000001_Node000004"><a xlink:title=" ">
<path fill="none" stroke="#63b8ff" d="M1032.36,-401.68C1015.25,-440.2 976.95,-514.31 921,-554 912.6,-559.96 903.04,-564.69 893.17,-568.45"/>
<polygon fill="#63b8ff" stroke="#63b8ff" points="1035.68,-402.82 1036.44,-392.25 1029.26,-400.04 1035.68,-402.82"/>
</a>
</g>
</g>
<!-- Node5 -->
<g id="Node000005" class="node">
<title>Node5</title>
<g id="a_Node000005"><a xlink:href="classcom_1_1teragrep_1_1pth__06_1_1planner_1_1StreamDBClient.html#a8adc39a87d9dc4ab7c69817e8852d955" target="_top" xlink:title=" ">
<polygon fill="white" stroke="#666666" points="650.5,-598 474.5,-598 474.5,-568 650.5,-568 650.5,-598"/>
<text text-anchor="start" x="482.5" y="-586" font-family="Helvetica,sans-Serif" font-size="10.00">com.teragrep.pth_06.planner.</text>
<text text-anchor="middle" x="562.5" y="-575" font-family="Helvetica,sans-Serif" font-size="10.00">StreamDBClient.StreamDBClient</text>
</a>
</g>
</g>
<!-- Node1&#45;&gt;Node5 -->
<g id="edge25_Node000001_Node000005" class="edge">
<title>Node1&#45;&gt;Node5</title>
<g id="a_edge25_Node000001_Node000005"><a xlink:title=" ">
<path fill="none" stroke="#63b8ff" d="M1029.43,-401.18C1010.29,-434.07 971.36,-492.11 921,-521 919.52,-521.85 756.31,-549.94 650.95,-568.02"/>
<polygon fill="#63b8ff" stroke="#63b8ff" points="1032.62,-402.65 1034.52,-392.23 1026.53,-399.19 1032.62,-402.65"/>
</a>
</g>
</g>
<!-- Node6 -->
<g id="Node000006" class="node">
<title>Node6</title>
<g id="a_Node000006"><a xlink:href="classcom_1_1teragrep_1_1pth__06_1_1planner_1_1GetArchivedObjectsFilterTable.html#ac4c8643436fd6d8bdd98f772e17843d4" target="_top" xlink:title=" ">
<polygon fill="white" stroke="#666666" points="911.5,-646 714.5,-646 714.5,-616 911.5,-616 911.5,-646"/>
<text text-anchor="start" x="722.5" y="-634" font-family="Helvetica,sans-Serif" font-size="10.00">com.teragrep.pth_06.planner.</text>
<text text-anchor="middle" x="813" y="-623" font-family="Helvetica,sans-Serif" font-size="10.00">GetArchivedObjectsFilterTable.create</text>
</a>
</g>
</g>
<!-- Node1&#45;&gt;Node6 -->
<g id="edge5_Node000001_Node000006" class="edge">
<title>Node1&#45;&gt;Node6</title>
<g id="a_edge5_Node000001_Node000006"><a xlink:title=" ">
<path fill="none" stroke="#63b8ff" d="M1036.7,-402.04C1024.27,-449.82 990.38,-553.96 921,-607 916.54,-610.41 911.68,-613.35 906.59,-615.89"/>
<polygon fill="#63b8ff" stroke="#63b8ff" points="1040.13,-402.76 1039.16,-392.21 1033.34,-401.06 1040.13,-402.76"/>
</a>
</g>
</g>
<!-- Node7 -->
<g id="Node000007" class="node">
<title>Node7</title>
<g id="a_Node000007"><a xlink:href="classcom_1_1teragrep_1_1pth__06_1_1ArchiveMicroStreamReader.html#a62416fc430035444b01b4608b40546ac" target="_top" xlink:title=" ">
<polygon fill="white" stroke="#666666" points="921,-512 705,-512 705,-482 921,-482 921,-512"/>
<text text-anchor="start" x="713" y="-500" font-family="Helvetica,sans-Serif" font-size="10.00">com.teragrep.pth_06.Archive</text>
<text text-anchor="middle" x="813" y="-489" font-family="Helvetica,sans-Serif" font-size="10.00">MicroStreamReader.createReaderFactory</text>
</a>
</g>
</g>
<!-- Node1&#45;&gt;Node7 -->
<g id="edge7_Node000001_Node000007" class="edge">
<title>Node1&#45;&gt;Node7</title>
<g id="a_edge7_Node000001_Node000007"><a xlink:title=" ">
<path fill="none" stroke="#63b8ff" d="M1020.79,-399.23C997.97,-421.29 960.03,-454.4 921,-473 913.78,-476.44 906.05,-479.4 898.17,-481.94"/>
<polygon fill="#63b8ff" stroke="#63b8ff" points="1023.25,-401.72 1027.93,-392.21 1018.34,-396.73 1023.25,-401.72"/>
</a>
</g>
</g>
<!-- Node8 -->
<g id="Node000008" class="node">
<title>Node8</title>
<g id="a_Node000008"><a xlink:href="classcom_1_1teragrep_1_1pth__06_1_1ArchiveMicroStreamReader.html#a411ca28ffc87898fce4bc8e77cdc0ee3" target="_top" xlink:title=" ">
<polygon fill="white" stroke="#666666" points="911.5,-281.5 714.5,-281.5 714.5,-240.5 911.5,-240.5 911.5,-281.5"/>
<text text-anchor="start" x="722.5" y="-269.5" font-family="Helvetica,sans-Serif" font-size="10.00">com.teragrep.pth_06.Archive</text>
<text text-anchor="start" x="722.5" y="-258.5" font-family="Helvetica,sans-Serif" font-size="10.00">MicroStreamReader.currentDatabase</text>
<text text-anchor="middle" x="813" y="-247.5" font-family="Helvetica,sans-Serif" font-size="10.00">Metrics</text>
</a>
</g>
</g>
<!-- Node1&#45;&gt;Node8 -->
<g id="edge8_Node000001_Node000008" class="edge">
<title>Node1&#45;&gt;Node8</title>
<g id="a_edge8_Node000001_Node000008"><a xlink:title=" ">
<path fill="none" stroke="#63b8ff" d="M1015.1,-355.57C991.29,-337.74 955.32,-312.67 921,-296 909.92,-290.62 897.82,-285.77 885.86,-281.51"/>
<polygon fill="#63b8ff" stroke="#63b8ff" points="1013.21,-358.53 1023.29,-361.78 1017.44,-352.95 1013.21,-358.53"/>
</a>
</g>
</g>
<!-- Node10 -->
<g id="Node000010" class="node">
<title>Node10</title>
<g id="a_Node000010"><a xlink:href="classcom_1_1teragrep_1_1pth__06_1_1planner_1_1StreamDBClient.html#a94bfcc395eb96d3c4ed2363f7cea991d" target="_top" xlink:title=" ">
<polygon fill="white" stroke="#666666" points="920.5,-464 705.5,-464 705.5,-434 920.5,-434 920.5,-464"/>
<text text-anchor="start" x="713.5" y="-452" font-family="Helvetica,sans-Serif" font-size="10.00">com.teragrep.pth_06.planner.</text>
<text text-anchor="middle" x="813" y="-441" font-family="Helvetica,sans-Serif" font-size="10.00">StreamDBClient.currentDatabaseMetrics</text>
</a>
</g>
</g>
<!-- Node1&#45;&gt;Node10 -->
<g id="edge10_Node000001_Node000010" class="edge">
<title>Node1&#45;&gt;Node10</title>
<g id="a_edge10_Node000001_Node000010"><a xlink:title=" ">
<path fill="none" stroke="#63b8ff" d="M999.01,-396.09C976.1,-405.65 947.37,-416.89 921,-425 910.45,-428.25 899.18,-431.25 888.07,-433.96"/>
<polygon fill="#63b8ff" stroke="#63b8ff" points="1000.59,-399.22 1008.44,-392.11 997.87,-392.77 1000.59,-399.22"/>
</a>
</g>
</g>
<!-- Node12 -->
<g id="Node000012" class="node">
<title>Node12</title>
<g id="a_Node000012"><a xlink:href="classcom_1_1teragrep_1_1pth__06_1_1ArchiveMicroStreamReader.html#a642bbe56ee51994eb354fbf6b058aa07" target="_top" xlink:title=" ">
<polygon fill="white" stroke="#666666" points="912,-368 714,-368 714,-338 912,-338 912,-368"/>
<text text-anchor="start" x="722" y="-356" font-family="Helvetica,sans-Serif" font-size="10.00">com.teragrep.pth_06.Archive</text>
<text text-anchor="middle" x="813" y="-345" font-family="Helvetica,sans-Serif" font-size="10.00">MicroStreamReader.deserializeOffset</text>
</a>
</g>
</g>
<!-- Node1&#45;&gt;Node12 -->
<g id="edge12_Node000001_Node000012" class="edge">
<title>Node1&#45;&gt;Node12</title>
<g id="a_edge12_Node000001_Node000012"><a xlink:title=" ">
<path fill="none" stroke="#63b8ff" d="M946.78,-366.95C935.32,-365.74 923.61,-364.51 912.13,-363.31"/>
<polygon fill="#63b8ff" stroke="#63b8ff" points="946.45,-370.43 956.76,-368 947.19,-363.47 946.45,-370.43"/>
</a>
</g>
</g>
<!-- Node13 -->
<g id="Node000013" class="node">
<title>Node13</title>
<g id="a_Node000013"><a xlink:href="classcom_1_1teragrep_1_1pth__06_1_1planner_1_1NestedTopNQuery.html#ab9a75398ae4f26212f007ce95c24c26f" target="_top" xlink:title=" ">
<polygon fill="white" stroke="#666666" points="912,-416 714,-416 714,-386 912,-386 912,-416"/>
<text text-anchor="start" x="722" y="-404" font-family="Helvetica,sans-Serif" font-size="10.00">com.teragrep.pth_06.planner.</text>
<text text-anchor="middle" x="813" y="-393" font-family="Helvetica,sans-Serif" font-size="10.00">NestedTopNQuery.getTableStatement</text>
</a>
</g>
</g>
<!-- Node1&#45;&gt;Node13 -->
<g id="edge13_Node000001_Node000013" class="edge">
<title>Node1&#45;&gt;Node13</title>
<g id="a_edge13_Node000001_Node000013"><a xlink:title=" ">
<path fill="none" stroke="#63b8ff" d="M946.78,-387.05C935.32,-388.26 923.61,-389.49 912.13,-390.69"/>
<polygon fill="#63b8ff" stroke="#63b8ff" points="947.19,-390.53 956.76,-386 946.45,-383.57 947.19,-390.53"/>
</a>
</g>
</g>
<!-- Node14 -->
<g id="Node000014" class="node">
<title>Node14</title>
<g id="a_Node000014"><a xlink:href="classcom_1_1teragrep_1_1pth__06_1_1planner_1_1StreamDBClient.html#adbe4b13c48e67d8d82ae4ed9ee93f7df" target="_top" xlink:title=" ">
<polygon fill="white" stroke="#666666" points="650,-367 475,-367 475,-337 650,-337 650,-367"/>
<text text-anchor="start" x="483" y="-355" font-family="Helvetica,sans-Serif" font-size="10.00">com.teragrep.pth_06.planner.</text>
<text text-anchor="middle" x="562.5" y="-344" font-family="Helvetica,sans-Serif" font-size="10.00">StreamDBClient.pullToSliceTable</text>
</a>
</g>
</g>
<!-- Node1&#45;&gt;Node14 -->
<g id="edge23_Node000001_Node000014" class="edge">
<title>Node1&#45;&gt;Node14</title>
<g id="a_edge23_Node000001_Node000014"><a xlink:title=" ">
<path fill="none" stroke="#63b8ff" d="M1004.27,-357.59C980.88,-346.82 949.98,-334.52 921,-329 822.94,-310.33 707.31,-324.11 634.69,-336.99"/>
<polygon fill="#63b8ff" stroke="#63b8ff" points="1002.94,-360.83 1013.48,-361.93 1005.92,-354.5 1002.94,-360.83"/>
</a>
</g>
</g>
<!-- Node17 -->
<g id="Node000017" class="node">
<title>Node17</title>
<g id="a_Node000017"><a xlink:href="classcom_1_1teragrep_1_1pth__06_1_1ArchiveMicroStreamReader.html#ac732dee6220acab0c21d55c0ea40255b" target="_top" xlink:title="Used when Spark requests the initial offset when starting a new query.">
<polygon fill="white" stroke="#666666" points="899.5,-222 726.5,-222 726.5,-192 899.5,-192 899.5,-222"/>
<text text-anchor="start" x="734.5" y="-210" font-family="Helvetica,sans-Serif" font-size="10.00">com.teragrep.pth_06.Archive</text>
<text text-anchor="middle" x="813" y="-199" font-family="Helvetica,sans-Serif" font-size="10.00">MicroStreamReader.initialOffset</text>
</a>
</g>
</g>
<!-- Node1&#45;&gt;Node17 -->
<g id="edge18_Node000001_Node000017" class="edge">
<title>Node1&#45;&gt;Node17</title>
<g id="a_edge18_Node000001_Node000017"><a xlink:title=" ">
<path fill="none" stroke="#63b8ff" d="M1029.31,-352.84C1010.03,-319.9 970.94,-261.53 921,-231 914.34,-226.93 907.07,-223.55 899.55,-220.74"/>
<polygon fill="#63b8ff" stroke="#63b8ff" points="1026.43,-354.85 1034.44,-361.79 1032.51,-351.38 1026.43,-354.85"/>
</a>
</g>
</g>
<!-- Node18 -->
<g id="Node000018" class="node">
<title>Node18</title>
<g id="a_Node000018"><a xlink:href="classcom_1_1teragrep_1_1pth__06_1_1ArchiveMicroStreamReader.html#ae820a68e1ec38574202423e1b649e9cc" target="_top" xlink:title="Used when Spark progresses the query further to fetch more data.">
<polygon fill="white" stroke="#666666" points="899.5,-174 726.5,-174 726.5,-144 899.5,-144 899.5,-174"/>
<text text-anchor="start" x="734.5" y="-162" font-family="Helvetica,sans-Serif" font-size="10.00">com.teragrep.pth_06.Archive</text>
<text text-anchor="middle" x="813" y="-151" font-family="Helvetica,sans-Serif" font-size="10.00">MicroStreamReader.latestOffset</text>
</a>
</g>
</g>
<!-- Node1&#45;&gt;Node18 -->
<g id="edge19_Node000001_Node000018" class="edge">
<title>Node1&#45;&gt;Node18</title>
<g id="a_edge19_Node000001_Node000018"><a xlink:title=" ">
<path fill="none" stroke="#63b8ff" d="M1034.15,-352.08C1018.77,-310.2 981.85,-226.07 921,-183 914.47,-178.38 907.21,-174.63 899.62,-171.59"/>
<polygon fill="#63b8ff" stroke="#63b8ff" points="1030.94,-353.52 1037.59,-361.76 1037.54,-351.17 1030.94,-353.52"/>
</a>
</g>
</g>
<!-- Node19 -->
<g id="Node000019" class="node">
<title>Node19</title>
<g id="a_Node000019"><a xlink:href="classcom_1_1teragrep_1_1pth__06_1_1ArchiveMicroStreamReader.html#a36e4e32119c7727123f0afffcbb27780" target="_top" xlink:title=" ">
<polygon fill="white" stroke="#666666" points="914.5,-126 711.5,-126 711.5,-96 914.5,-96 914.5,-126"/>
<text text-anchor="start" x="719.5" y="-114" font-family="Helvetica,sans-Serif" font-size="10.00">com.teragrep.pth_06.Archive</text>
<text text-anchor="middle" x="813" y="-103" font-family="Helvetica,sans-Serif" font-size="10.00">MicroStreamReader.mostRecentOffset</text>
</a>
</g>
</g>
<!-- Node1&#45;&gt;Node19 -->
<g id="edge20_Node000001_Node000019" class="edge">
<title>Node1&#45;&gt;Node19</title>
<g id="a_edge20_Node000001_Node000019"><a xlink:title=" ">
<path fill="none" stroke="#63b8ff" d="M1037.43,-352.08C1025.99,-302.51 993.31,-191.48 921,-135 916.65,-131.6 911.91,-128.67 906.93,-126.13"/>
<polygon fill="#63b8ff" stroke="#63b8ff" points="1034.04,-352.94 1039.61,-361.95 1040.87,-351.43 1034.04,-352.94"/>
</a>
</g>
</g>
<!-- Node20 -->
<g id="Node000020" class="node">
<title>Node20</title>
<g id="a_Node000020"><a xlink:href="classcom_1_1teragrep_1_1pth__06_1_1ArchiveMicroStreamReader.html#a38ac5d363a8989ca4a38286eed2d5a1d" target="_top" xlink:title="Forms the batch between start and end offsets and forms the input partitions from that batch.">
<polygon fill="white" stroke="#666666" points="916.5,-78 709.5,-78 709.5,-48 916.5,-48 916.5,-78"/>
<text text-anchor="start" x="717.5" y="-66" font-family="Helvetica,sans-Serif" font-size="10.00">com.teragrep.pth_06.Archive</text>
<text text-anchor="middle" x="813" y="-55" font-family="Helvetica,sans-Serif" font-size="10.00">MicroStreamReader.planInputPartitions</text>
</a>
</g>
</g>
<!-- Node1&#45;&gt;Node20 -->
<g id="edge22_Node000001_Node000020" class="edge">
<title>Node1&#45;&gt;Node20</title>
<g id="a_edge22_Node000001_Node000020"><a xlink:title=" ">
<path fill="none" stroke="#63b8ff" d="M1039.63,-351.64C1031.81,-294.89 1004.75,-157.17 921,-87 916.91,-83.58 912.44,-80.62 907.72,-78.06"/>
<polygon fill="#63b8ff" stroke="#63b8ff" points="1036.2,-352.39 1040.95,-361.86 1043.14,-351.5 1036.2,-352.39"/>
</a>
</g>
</g>
<!-- Node21 -->
<g id="Node000021" class="node">
<title>Node21</title>
<g id="a_Node000021"><a xlink:href="classcom_1_1teragrep_1_1pth__06_1_1ArchiveMicroStreamReader.html#ae37054d435fbdccc794afc19cd1a95da" target="_top" xlink:title=" ">
<polygon fill="white" stroke="#666666" points="892,-30 734,-30 734,0 892,0 892,-30"/>
<text text-anchor="start" x="742" y="-18" font-family="Helvetica,sans-Serif" font-size="10.00">com.teragrep.pth_06.Archive</text>
<text text-anchor="middle" x="813" y="-7" font-family="Helvetica,sans-Serif" font-size="10.00">MicroStreamReader.stop</text>
</a>
</g>
</g>
<!-- Node1&#45;&gt;Node21 -->
<g id="edge24_Node000001_Node000021" class="edge">
<title>Node1&#45;&gt;Node21</title>
<g id="a_edge24_Node000001_Node000021"><a xlink:title=" ">
<path fill="none" stroke="#63b8ff" d="M1041.32,-351.47C1036.94,-288.22 1016.48,-123.28 921,-39 912.72,-31.69 902.7,-26.46 892.16,-22.75"/>
<polygon fill="#63b8ff" stroke="#63b8ff" points="1037.84,-351.96 1041.94,-361.72 1044.83,-351.53 1037.84,-351.96"/>
</a>
</g>
</g>
<!-- Node4&#45;&gt;Node5 -->
<g id="edge4_Node000004_Node000005" class="edge">
<title>Node4&#45;&gt;Node5</title>
<g id="a_edge4_Node000004_Node000005"><a xlink:title=" ">
<path fill="none" stroke="#63b8ff" d="M722.44,-583C699.07,-583 673.91,-583 650.66,-583"/>
<polygon fill="#63b8ff" stroke="#63b8ff" points="722.69,-586.5 732.69,-583 722.69,-579.5 722.69,-586.5"/>
</a>
</g>
</g>
<!-- Node6&#45;&gt;Node5 -->
<g id="edge6_Node000006_Node000005" class="edge">
<title>Node6&#45;&gt;Node5</title>
<g id="a_edge6_Node000006_Node000005"><a xlink:title=" ">
<path fill="none" stroke="#63b8ff" d="M724.2,-614.04C697.13,-608.81 667.51,-603.09 641.17,-598"/>
<polygon fill="#63b8ff" stroke="#63b8ff" points="723.57,-617.48 734.05,-615.94 724.9,-610.61 723.57,-617.48"/>
</a>
</g>
</g>
<!-- Node9 -->
<g id="Node000009" class="node">
<title>Node9</title>
<g id="a_Node000009"><a xlink:href="classcom_1_1teragrep_1_1pth__06_1_1TeragrepScan.html#a602d40fbaa787d342efce68249ab6ea1" target="_top" xlink:title=" ">
<polygon fill="white" stroke="#666666" points="644,-201 481,-201 481,-171 644,-171 644,-201"/>
<text text-anchor="start" x="489" y="-189" font-family="Helvetica,sans-Serif" font-size="10.00">com.teragrep.pth_06.Teragrep</text>
<text text-anchor="middle" x="562.5" y="-178" font-family="Helvetica,sans-Serif" font-size="10.00">Scan.reportDriverMetrics</text>
</a>
</g>
</g>
<!-- Node8&#45;&gt;Node9 -->
<g id="edge9_Node000008_Node000009" class="edge">
<title>Node8&#45;&gt;Node9</title>
<g id="a_edge9_Node000008_Node000009"><a xlink:title=" ">
<path fill="none" stroke="#63b8ff" d="M727.65,-237.65C719.98,-235.43 712.34,-233.2 705,-231 673.02,-221.43 637.18,-210.03 609.58,-201.1"/>
<polygon fill="#63b8ff" stroke="#63b8ff" points="726.78,-241.04 737.36,-240.43 728.71,-234.31 726.78,-241.04"/>
</a>
</g>
</g>
<!-- Node11 -->
<g id="Node000011" class="node">
<title>Node11</title>
<g id="a_Node000011"><a xlink:href="classcom_1_1teragrep_1_1pth__06_1_1planner_1_1ArchiveQueryProcessor.html#aa8d90622d53c4fd90e5dadb0e6dec340" target="_top" xlink:title=" ">
<polygon fill="white" stroke="#666666" points="669,-469.5 456,-469.5 456,-428.5 669,-428.5 669,-469.5"/>
<text text-anchor="start" x="464" y="-457.5" font-family="Helvetica,sans-Serif" font-size="10.00">com.teragrep.pth_06.planner.</text>
<text text-anchor="start" x="464" y="-446.5" font-family="Helvetica,sans-Serif" font-size="10.00">ArchiveQueryProcessor.currentDatabase</text>
<text text-anchor="middle" x="562.5" y="-435.5" font-family="Helvetica,sans-Serif" font-size="10.00">Metrics</text>
</a>
</g>
</g>
<!-- Node10&#45;&gt;Node11 -->
<g id="edge11_Node000010_Node000011" class="edge">
<title>Node10&#45;&gt;Node11</title>
<g id="a_edge11_Node000010_Node000011"><a xlink:title=" ">
<path fill="none" stroke="#63b8ff" d="M695.03,-449C686.36,-449 677.65,-449 669.06,-449"/>
<polygon fill="#63b8ff" stroke="#63b8ff" points="695.17,-452.5 705.17,-449 695.17,-445.5 695.17,-452.5"/>
</a>
</g>
</g>
<!-- Node13&#45;&gt;Node14 -->
<g id="edge14_Node000013_Node000014" class="edge">
<title>Node13&#45;&gt;Node14</title>
<g id="a_edge14_Node000013_Node000014"><a xlink:title=" ">
<path fill="none" stroke="#63b8ff" d="M725.58,-383.96C697.6,-378.44 666.78,-372.37 639.6,-367.01"/>
<polygon fill="#63b8ff" stroke="#63b8ff" points="725.26,-387.46 735.75,-385.97 726.62,-380.6 725.26,-387.46"/>
</a>
</g>
</g>
<!-- Node15 -->
<g id="Node000015" class="node">
<title>Node15</title>
<g id="a_Node000015"><a xlink:href="classcom_1_1teragrep_1_1pth__06_1_1planner_1_1ArchiveQueryProcessor.html#a646c09c6ba9331c48df86960f4fa8bcb" target="_top" xlink:title="Increments the latest offset value and returns that incremented offset.">
<polygon fill="white" stroke="#666666" points="182,-371.5 0,-371.5 0,-330.5 182,-330.5 182,-371.5"/>
<text text-anchor="start" x="8" y="-359.5" font-family="Helvetica,sans-Serif" font-size="10.00">com.teragrep.pth_06.planner.</text>
<text text-anchor="start" x="8" y="-348.5" font-family="Helvetica,sans-Serif" font-size="10.00">ArchiveQueryProcessor.increment</text>
<text text-anchor="middle" x="91" y="-337.5" font-family="Helvetica,sans-Serif" font-size="10.00">AndGetLatestOffset</text>
</a>
</g>
</g>
<!-- Node14&#45;&gt;Node15 -->
<g id="edge15_Node000014_Node000015" class="edge">
<title>Node14&#45;&gt;Node15</title>
<g id="a_edge15_Node000014_Node000015"><a xlink:title=" ">
<path fill="none" stroke="#63b8ff" d="M464.45,-353.55C449.56,-353.74 434.37,-353.9 420,-354 330.22,-354.63 307.77,-355.07 218,-354 206.4,-353.86 194.21,-353.65 182.16,-353.41"/>
<polygon fill="#63b8ff" stroke="#63b8ff" points="464.74,-357.05 474.7,-353.42 464.65,-350.05 464.74,-357.05"/>
</a>
</g>
</g>
<!-- Node16 -->
<g id="Node000016" class="node">
<title>Node16</title>
<g id="a_Node000016"><a xlink:href="classcom_1_1teragrep_1_1pth__06_1_1planner_1_1ArchiveQueryProcessor.html#a3e2e817526f72a254cd6358389a5b7f2" target="_top" xlink:title="Increment the rolling day and pull data for that day into the sliceTable.">
<polygon fill="white" stroke="#666666" points="420,-345 218,-345 218,-315 420,-315 420,-345"/>
<text text-anchor="start" x="226" y="-333" font-family="Helvetica,sans-Serif" font-size="10.00">com.teragrep.pth_06.planner.</text>
<text text-anchor="middle" x="319" y="-322" font-family="Helvetica,sans-Serif" font-size="10.00">ArchiveQueryProcessor.seekToResults</text>
</a>
</g>
</g>
<!-- Node14&#45;&gt;Node16 -->
<g id="edge16_Node000014_Node000016" class="edge">
<title>Node14&#45;&gt;Node16</title>
<g id="a_edge16_Node000014_Node000016"><a xlink:title=" ">
<path fill="none" stroke="#63b8ff" d="M464.92,-343.2C450.24,-341.86 435.05,-340.48 420.29,-339.14"/>
<polygon fill="#63b8ff" stroke="#63b8ff" points="464.72,-346.7 475,-344.12 465.35,-339.73 464.72,-346.7"/>
</a>
</g>
</g>
<!-- Node16&#45;&gt;Node15 -->
<g id="edge17_Node000016_Node000015" class="edge">
<title>Node16&#45;&gt;Node15</title>
<g id="a_edge17_Node000016_Node000015"><a xlink:title=" ">
<path fill="none" stroke="#63b8ff" d="M207.79,-340.24C199.17,-341.04 190.53,-341.84 182.07,-342.63"/>
<polygon fill="#63b8ff" stroke="#63b8ff" points="208.25,-343.71 217.89,-339.3 207.61,-336.74 208.25,-343.71"/>
</a>
</g>
</g>
<!-- Node19&#45;&gt;Node9 -->
<g id="edge21_Node000019_Node000009" class="edge">
<title>Node19&#45;&gt;Node9</title>
<g id="a_edge21_Node000019_Node000009"><a xlink:title=" ">
<path fill="none" stroke="#63b8ff" d="M729.44,-128.43C721.15,-130.5 712.88,-132.71 705,-135 669.27,-145.4 629.48,-160.03 601.21,-170.95"/>
<polygon fill="#63b8ff" stroke="#63b8ff" points="730.28,-131.82 739.16,-126.05 728.62,-125.02 730.28,-131.82"/>
</a>
</g>
</g>
</g>
</svg>
