<?xml version="1.0" encoding="UTF-8" standalone="no"?>
<!DOCTYPE svg PUBLIC "-//W3C//DTD SVG 1.1//EN"
 "http://www.w3.org/Graphics/SVG/1.1/DTD/svg11.dtd">
<!-- Generated by graphviz version 2.43.0 (0)
 -->
<!-- Title: com.teragrep.pth_06.planner.RecordableMockDBRow Pages: 1 -->
<svg width="346pt" height="171pt"
 viewBox="0.00 0.00 346.00 171.00" xmlns="http://www.w3.org/2000/svg" xmlns:xlink="http://www.w3.org/1999/xlink">
<g id="graph0" class="graph" transform="scale(1 1) rotate(0) translate(4 167)">
<title>com.teragrep.pth_06.planner.RecordableMockDBRow</title>
<!-- Node1 -->
<g id="Node000001" class="node">
<title>Node1</title>
<g id="a_Node000001"><a xlink:title=" ">
<polygon fill="#999999" stroke="#666666" points="193,-30 33,-30 33,0 193,0 193,-30"/>
<text text-anchor="start" x="41" y="-18" font-family="Helvetica,sans-Serif" font-size="10.00">com.teragrep.pth_06.planner.</text>
<text text-anchor="middle" x="113" y="-7" font-family="Helvetica,sans-Serif" font-size="10.00">RecordableMockDBRow</text>
</a>
</g>
</g>
<!-- Node2 -->
<g id="Node000002" class="node">
<title>Node2</title>
<g id="a_Node000002"><a xlink:href="interfacecom_1_1teragrep_1_1pth__06_1_1planner_1_1MockDBRow.html" target="_top" xlink:title=" ">
<polygon fill="white" stroke="#666666" points="160,-107 0,-107 0,-77 160,-77 160,-107"/>
<text text-anchor="start" x="8" y="-95" font-family="Helvetica,sans-Serif" font-size="10.00">com.teragrep.pth_06.planner.</text>
<text text-anchor="middle" x="80" y="-84" font-family="Helvetica,sans-Serif" font-size="10.00">MockDBRow</text>
</a>
</g>
</g>
<!-- Node2&#45;&gt;Node1 -->
<g id="edge1_Node000001_Node000002" class="edge">
<title>Node2&#45;&gt;Node1</title>
<g id="a_edge1_Node000001_Node000002"><a xlink:title=" ">
<path fill="none" stroke="#63b8ff" d="M86.84,-66.82C88.88,-60.59 91.3,-53.96 94,-48 96.72,-42 100.29,-35.7 103.6,-30.29"/>
<polygon fill="#63b8ff" stroke="#63b8ff" points="83.37,-66.17 83.78,-76.76 90.06,-68.23 83.37,-66.17"/>
</a>
</g>
</g>
<!-- Node2&#45;&gt;Node1 -->
<g id="edge4_Node000001_Node000002" class="edge">
<title>Node2&#45;&gt;Node1</title>
<g id="a_edge4_Node000001_Node000002"><a xlink:title=" ">
<path fill="none" stroke="#9a32cd" stroke-dasharray="5,2" d="M90.28,-67.65C95.7,-55.32 102.17,-40.61 106.82,-30.04"/>
<polygon fill="#9a32cd" stroke="#9a32cd" points="87.03,-66.33 86.21,-76.89 93.44,-69.15 87.03,-66.33"/>
</a>
</g>
<text text-anchor="middle" x="114.5" y="-51" font-family="Helvetica,sans-Serif" font-size="10.00" fill="grey"> origin</text>
</g>
<!-- Node3 -->
<g id="Node000003" class="node">
<title>Node3</title>
<g id="a_Node000003"><a xlink:title=" ">
<polygon fill="white" stroke="#666666" points="160,-163 0,-163 0,-144 160,-144 160,-163"/>
<text text-anchor="middle" x="80" y="-151" font-family="Helvetica,sans-Serif" font-size="10.00">Comparable&lt; MockDBRow &gt;</text>
</a>
</g>
</g>
<!-- Node3&#45;&gt;Node2 -->
<g id="edge2_Node000002_Node000003" class="edge">
<title>Node3&#45;&gt;Node2</title>
<g id="a_edge2_Node000002_Node000003"><a xlink:title=" ">
<path fill="none" stroke="#63b8ff" d="M80,-133.73C80,-125.09 80,-115 80,-107.02"/>
<polygon fill="#63b8ff" stroke="#63b8ff" points="76.5,-133.98 80,-143.98 83.5,-133.98 76.5,-133.98"/>
</a>
</g>
</g>
<!-- Node4 -->
<g id="Node000004" class="node">
<title>Node4</title>
<g id="a_Node000004"><a xlink:href="interfacecom_1_1teragrep_1_1pth__06_1_1planner_1_1Recordable.html" target="_top" xlink:title=" ">
<polygon fill="white" stroke="#666666" points="338,-107 178,-107 178,-77 338,-77 338,-107"/>
<text text-anchor="start" x="186" y="-95" font-family="Helvetica,sans-Serif" font-size="10.00">com.teragrep.pth_06.planner.</text>
<text text-anchor="middle" x="258" y="-84" font-family="Helvetica,sans-Serif" font-size="10.00">Recordable</text>
</a>
</g>
</g>
<!-- Node4&#45;&gt;Node1 -->
<g id="edge3_Node000001_Node000004" class="edge">
<title>Node4&#45;&gt;Node1</title>
<g id="a_edge3_Node000001_Node000004"><a xlink:title=" ">
<path fill="none" stroke="#63b8ff" d="M221.79,-72.27C196.48,-59.18 163.2,-41.97 140.15,-30.04"/>
<polygon fill="#63b8ff" stroke="#63b8ff" points="220.24,-75.41 230.73,-76.89 223.45,-69.19 220.24,-75.41"/>
</a>
</g>
</g>
</g>
</svg>
