<?xml version="1.0" encoding="UTF-8" standalone="no"?>
<!DOCTYPE svg PUBLIC "-//W3C//DTD SVG 1.1//EN"
 "http://www.w3.org/Graphics/SVG/1.1/DTD/svg11.dtd">
<!-- Generated by graphviz version 2.43.0 (0)
 -->
<!-- Title: com.teragrep.pth_06.jooq.generated.streamdb.tables.LogGroup Pages: 1 -->
<svg width="872pt" height="85pt"
 viewBox="0.00 0.00 872.00 85.00" xmlns="http://www.w3.org/2000/svg" xmlns:xlink="http://www.w3.org/1999/xlink">
<g id="graph0" class="graph" transform="scale(1 1) rotate(0) translate(4 81)">
<title>com.teragrep.pth_06.jooq.generated.streamdb.tables.LogGroup</title>
<!-- Node1 -->
<g id="Node000001" class="node">
<title>Node1</title>
<g id="a_Node000001"><a xlink:title="This class is generated by jOOQ.">
<polygon fill="#999999" stroke="#666666" points="864,-77 584,-77 584,-47 864,-47 864,-77"/>
<text text-anchor="start" x="592" y="-65" font-family="Helvetica,sans-Serif" font-size="10.00">com.teragrep.pth_06.jooq.generated.streamdb.tables.</text>
<text text-anchor="middle" x="724" y="-54" font-family="Helvetica,sans-Serif" font-size="10.00">LogGroup</text>
</a>
</g>
</g>
<!-- Node2 -->
<g id="Node000002" class="node">
<title>Node2</title>
<g id="a_Node000002"><a xlink:title=" ">
<polygon fill="white" stroke="#666666" points="167,-60.5 0,-60.5 0,-41.5 167,-41.5 167,-60.5"/>
<text text-anchor="middle" x="83.5" y="-48.5" font-family="Helvetica,sans-Serif" font-size="10.00">TableImpl&lt; LogGroupRecord &gt;</text>
</a>
</g>
</g>
<!-- Node2&#45;&gt;Node1 -->
<g id="edge1_Node000001_Node000002" class="edge">
<title>Node2&#45;&gt;Node1</title>
<g id="a_edge1_Node000001_Node000002"><a xlink:title=" ">
<path fill="none" stroke="#63b8ff" d="M149.8,-61.99C167.35,-64.48 186.35,-66.75 204,-68 332.42,-77.09 479.16,-74.16 583.76,-69.8"/>
<polygon fill="#63b8ff" stroke="#63b8ff" points="150.06,-58.49 139.66,-60.51 149.04,-65.42 150.06,-58.49"/>
</a>
</g>
</g>
<!-- Node3 -->
<g id="Node000003" class="node">
<title>Node3</title>
<g id="a_Node000003"><a xlink:href="classcom_1_1teragrep_1_1pth__06_1_1jooq_1_1generated_1_1streamdb_1_1tables_1_1LogGroup.html" target="_top" xlink:title="This class is generated by jOOQ.">
<polygon fill="white" stroke="#666666" points="484,-30 204,-30 204,0 484,0 484,-30"/>
<text text-anchor="start" x="212" y="-18" font-family="Helvetica,sans-Serif" font-size="10.00">com.teragrep.pth_06.jooq.generated.streamdb.tables.</text>
<text text-anchor="middle" x="344" y="-7" font-family="Helvetica,sans-Serif" font-size="10.00">LogGroup</text>
</a>
</g>
</g>
<!-- Node2&#45;&gt;Node3 -->
<g id="edge3_Node000003_Node000002" class="edge">
<title>Node2&#45;&gt;Node3</title>
<g id="a_edge3_Node000003_Node000002"><a xlink:title=" ">
<path fill="none" stroke="#63b8ff" d="M162.72,-40.11C185.57,-36.92 210.95,-33.39 235.29,-30"/>
<polygon fill="#63b8ff" stroke="#63b8ff" points="162.18,-36.65 152.76,-41.49 163.14,-43.58 162.18,-36.65"/>
</a>
</g>
</g>
<!-- Node3&#45;&gt;Node1 -->
<g id="edge2_Node000001_Node000003" class="edge">
<title>Node3&#45;&gt;Node1</title>
<g id="a_edge2_Node000001_Node000003"><a xlink:title=" ">
<path fill="none" stroke="#9a32cd" stroke-dasharray="5,2" d="M475.71,-31.25C516.76,-36.36 561.88,-41.97 602.21,-46.98"/>
<polygon fill="#9a32cd" stroke="#9a32cd" points="476,-27.76 465.64,-30 475.13,-34.71 476,-27.76"/>
</a>
</g>
<text text-anchor="middle" x="534" y="-44" font-family="Helvetica,sans-Serif" font-size="10.00" fill="grey"> LOG_GROUP</text>
</g>
<!-- Node3&#45;&gt;Node3 -->
<g id="edge4_Node000003_Node000003" class="edge">
<title>Node3&#45;&gt;Node3</title>
<g id="a_edge4_Node000003_Node000003"><a xlink:title=" ">
<path fill="none" stroke="#9a32cd" stroke-dasharray="5,2" d="M316.34,-40.6C320.12,-44.97 329.34,-48 344,-48 368.69,-48 377.95,-39.41 371.77,-30.28"/>
<polygon fill="#9a32cd" stroke="#9a32cd" points="319.84,-40.23 316.23,-30.28 312.84,-40.31 319.84,-40.23"/>
</a>
</g>
<text text-anchor="middle" x="344" y="-51" font-family="Helvetica,sans-Serif" font-size="10.00" fill="grey"> LOG_GROUP</text>
</g>
</g>
</svg>
