<?xml version="1.0" encoding="UTF-8" standalone="no"?>
<!DOCTYPE svg PUBLIC "-//W3C//DTD SVG 1.1//EN"
 "http://www.w3.org/Graphics/SVG/1.1/DTD/svg11.dtd">
<!-- Generated by graphviz version 2.43.0 (0)
 -->
<!-- Title: com.teragrep.pth_06.planner.walker.conditions.WithoutFiltersConditionTest.testTwoFilterTypesMatchWithoutFiltersPattern Pages: 1 -->
<svg width="824pt" height="65pt"
 viewBox="0.00 0.00 824.00 64.50" xmlns="http://www.w3.org/2000/svg" xmlns:xlink="http://www.w3.org/1999/xlink">
<g id="graph0" class="graph" transform="scale(1 1) rotate(0) translate(4 60.5)">
<title>com.teragrep.pth_06.planner.walker.conditions.WithoutFiltersConditionTest.testTwoFilterTypesMatchWithoutFiltersPattern</title>
<!-- Node1 -->
<g id="Node000001" class="node">
<title>Node1</title>
<g id="a_Node000001"><a xlink:title=" ">
<polygon fill="#999999" stroke="#666666" points="248,-56.5 0,-56.5 0,-15.5 248,-15.5 248,-56.5"/>
<text text-anchor="start" x="8" y="-44.5" font-family="Helvetica,sans-Serif" font-size="10.00">com.teragrep.pth_06.planner.walker.conditions.</text>
<text text-anchor="start" x="8" y="-33.5" font-family="Helvetica,sans-Serif" font-size="10.00">WithoutFiltersConditionTest.testTwoFilterTypes</text>
<text text-anchor="middle" x="124" y="-22.5" font-family="Helvetica,sans-Serif" font-size="10.00">MatchWithoutFiltersPattern</text>
</a>
</g>
</g>
<!-- Node2 -->
<g id="Node000002" class="node">
<title>Node2</title>
<g id="a_Node000002"><a xlink:href="classcom_1_1teragrep_1_1pth__06_1_1planner_1_1walker_1_1conditions_1_1WithoutFiltersCondition.html#aa72dd8d44693e92fee3e00bcb5a3485e" target="_top" xlink:title=" ">
<polygon fill="white" stroke="#666666" points="816,-51 568,-51 568,-21 816,-21 816,-51"/>
<text text-anchor="start" x="576" y="-39" font-family="Helvetica,sans-Serif" font-size="10.00">com.teragrep.pth_06.planner.walker.conditions.</text>
<text text-anchor="middle" x="692" y="-28" font-family="Helvetica,sans-Serif" font-size="10.00">WithoutFiltersCondition.condition</text>
</a>
</g>
</g>
<!-- Node1&#45;&gt;Node2 -->
<g id="edge1_Node000001_Node000002" class="edge">
<title>Node1&#45;&gt;Node2</title>
<g id="a_edge1_Node000001_Node000002"><a xlink:title=" ">
<path fill="none" stroke="#63b8ff" d="M248.26,-38.55C260.33,-38.74 272.4,-38.89 284,-39 394.22,-40.04 421.78,-40.04 532,-39 540.33,-38.92 548.91,-38.82 557.56,-38.7"/>
<polygon fill="#63b8ff" stroke="#63b8ff" points="557.79,-42.2 567.74,-38.55 557.69,-35.2 557.79,-42.2"/>
</a>
</g>
</g>
<!-- Node3 -->
<g id="Node000003" class="node">
<title>Node3</title>
<g id="a_Node000003"><a xlink:href="classcom_1_1teragrep_1_1pth__06_1_1planner_1_1walker_1_1conditions_1_1WithoutFiltersCondition.html#aef71776f1f38e98ef31ea07379338a53" target="_top" xlink:title=" ">
<polygon fill="white" stroke="#666666" points="532,-30 284,-30 284,0 532,0 532,-30"/>
<text text-anchor="start" x="292" y="-18" font-family="Helvetica,sans-Serif" font-size="10.00">com.teragrep.pth_06.planner.walker.conditions.</text>
<text text-anchor="middle" x="408" y="-7" font-family="Helvetica,sans-Serif" font-size="10.00">WithoutFiltersCondition.requiredTables</text>
</a>
</g>
</g>
<!-- Node1&#45;&gt;Node3 -->
<g id="edge2_Node000001_Node000003" class="edge">
<title>Node1&#45;&gt;Node3</title>
<g id="a_edge2_Node000001_Node000003"><a xlink:title=" ">
<path fill="none" stroke="#63b8ff" d="M248.28,-26.82C256.6,-26.2 265.01,-25.57 273.38,-24.95"/>
<polygon fill="#63b8ff" stroke="#63b8ff" points="273.86,-28.42 283.57,-24.19 273.34,-21.44 273.86,-28.42"/>
</a>
</g>
</g>
<!-- Node3&#45;&gt;Node2 -->
<g id="edge3_Node000003_Node000002" class="edge">
<title>Node3&#45;&gt;Node2</title>
<g id="a_edge3_Node000003_Node000002"><a xlink:title=" ">
<path fill="none" stroke="#63b8ff" d="M532.28,-24.18C540.6,-24.8 549.01,-25.43 557.38,-26.05"/>
<polygon fill="#63b8ff" stroke="#63b8ff" points="557.34,-29.56 567.57,-26.81 557.86,-22.58 557.34,-29.56"/>
</a>
</g>
</g>
</g>
</svg>
