<?xml version="1.0" encoding="UTF-8" standalone="no"?>
<!DOCTYPE svg PUBLIC "-//W3C//DTD SVG 1.1//EN"
 "http://www.w3.org/Graphics/SVG/1.1/DTD/svg11.dtd">
<!-- Generated by graphviz version 2.43.0 (0)
 -->
<!-- Title: com.teragrep.pth_06.planner.bloomfilter.CategoryTableWithFilters Pages: 1 -->
<svg width="851pt" height="92pt"
 viewBox="0.00 0.00 851.00 92.00" xmlns="http://www.w3.org/2000/svg" xmlns:xlink="http://www.w3.org/1999/xlink">
<g id="graph0" class="graph" transform="scale(1 1) rotate(0) translate(4 88)">
<title>com.teragrep.pth_06.planner.bloomfilter.CategoryTableWithFilters</title>
<!-- Node1 -->
<g id="Node000001" class="node">
<title>Node1</title>
<g id="a_Node000001"><a xlink:title="Decorator that inserts category tables filter types into the table.">
<polygon fill="#999999" stroke="#666666" points="843,-64 628,-64 628,-34 843,-34 843,-64"/>
<text text-anchor="start" x="636" y="-52" font-family="Helvetica,sans-Serif" font-size="10.00">com.teragrep.pth_06.planner.bloomfilter.</text>
<text text-anchor="middle" x="735.5" y="-41" font-family="Helvetica,sans-Serif" font-size="10.00">CategoryTableWithFilters</text>
</a>
</g>
</g>
<!-- Node2 -->
<g id="Node000002" class="node">
<title>Node2</title>
<g id="a_Node000002"><a xlink:href="interfacecom_1_1teragrep_1_1pth__06_1_1planner_1_1bloomfilter_1_1CategoryTable.html" target="_top" xlink:title=" ">
<polygon fill="white" stroke="#666666" points="561,-84 346,-84 346,-54 561,-54 561,-84"/>
<text text-anchor="start" x="354" y="-72" font-family="Helvetica,sans-Serif" font-size="10.00">com.teragrep.pth_06.planner.bloomfilter.</text>
<text text-anchor="middle" x="453.5" y="-61" font-family="Helvetica,sans-Serif" font-size="10.00">CategoryTable</text>
</a>
</g>
</g>
<!-- Node2&#45;&gt;Node1 -->
<g id="edge1_Node000001_Node000002" class="edge">
<title>Node2&#45;&gt;Node1</title>
<g id="a_edge1_Node000001_Node000002"><a xlink:title=" ">
<path fill="none" stroke="#63b8ff" d="M571.19,-63.56C584.29,-62.78 597.43,-61.93 610,-61 615.85,-60.57 621.85,-60.09 627.9,-59.59"/>
<polygon fill="#63b8ff" stroke="#63b8ff" points="570.97,-60.07 561.19,-64.14 571.38,-67.06 570.97,-60.07"/>
</a>
</g>
</g>
<!-- Node2&#45;&gt;Node1 -->
<g id="edge2_Node000001_Node000002" class="edge">
<title>Node2&#45;&gt;Node1</title>
<g id="a_edge2_Node000001_Node000002"><a xlink:title=" ">
<path fill="none" stroke="#9a32cd" stroke-dasharray="5,2" d="M541.32,-52.45C553.92,-50.61 566.76,-49.02 579,-48 594.74,-46.68 611.4,-46.02 627.75,-45.78"/>
<polygon fill="#9a32cd" stroke="#9a32cd" points="540.64,-49.02 531.28,-53.98 541.7,-55.94 540.64,-49.02"/>
</a>
</g>
<text text-anchor="middle" x="594.5" y="-51" font-family="Helvetica,sans-Serif" font-size="10.00" fill="grey"> origin</text>
</g>
<!-- Node3 -->
<g id="Node000003" class="node">
<title>Node3</title>
<g id="a_Node000003"><a xlink:href="classcom_1_1teragrep_1_1pth__06_1_1planner_1_1bloomfilter_1_1TableFilters.html" target="_top" xlink:title="Filter types of a table that can be inserted into the category table.">
<polygon fill="white" stroke="#666666" points="561,-30 346,-30 346,0 561,0 561,-30"/>
<text text-anchor="start" x="354" y="-18" font-family="Helvetica,sans-Serif" font-size="10.00">com.teragrep.pth_06.planner.bloomfilter.</text>
<text text-anchor="middle" x="453.5" y="-7" font-family="Helvetica,sans-Serif" font-size="10.00">TableFilters</text>
</a>
</g>
</g>
<!-- Node3&#45;&gt;Node1 -->
<g id="edge3_Node000001_Node000003" class="edge">
<title>Node3&#45;&gt;Node1</title>
<g id="a_edge3_Node000001_Node000003"><a xlink:title=" ">
<path fill="none" stroke="#9a32cd" stroke-dasharray="5,2" d="M571.21,-26.48C584.3,-27.93 597.44,-29.45 610,-31 617.48,-31.92 625.2,-32.93 632.97,-33.97"/>
<polygon fill="#9a32cd" stroke="#9a32cd" points="571.54,-23 561.22,-25.4 570.78,-29.96 571.54,-23"/>
</a>
</g>
<text text-anchor="middle" x="594.5" y="-34" font-family="Helvetica,sans-Serif" font-size="10.00" fill="grey"> filters</text>
</g>
<!-- Node4 -->
<g id="Node000004" class="node">
<title>Node4</title>
<g id="a_Node000004"><a xlink:href="interfacecom_1_1teragrep_1_1pth__06_1_1planner_1_1bloomfilter_1_1TableRecords.html" target="_top" xlink:title=" ">
<polygon fill="white" stroke="#666666" points="215,-30 0,-30 0,0 215,0 215,-30"/>
<text text-anchor="start" x="8" y="-18" font-family="Helvetica,sans-Serif" font-size="10.00">com.teragrep.pth_06.planner.bloomfilter.</text>
<text text-anchor="middle" x="107.5" y="-7" font-family="Helvetica,sans-Serif" font-size="10.00">TableRecords</text>
</a>
</g>
</g>
<!-- Node4&#45;&gt;Node3 -->
<g id="edge4_Node000003_Node000004" class="edge">
<title>Node4&#45;&gt;Node3</title>
<g id="a_edge4_Node000003_Node000004"><a xlink:title=" ">
<path fill="none" stroke="#9a32cd" stroke-dasharray="5,2" d="M225.79,-15C264.72,-15 307.82,-15 345.9,-15"/>
<polygon fill="#9a32cd" stroke="#9a32cd" points="225.46,-11.5 215.46,-15 225.46,-18.5 225.46,-11.5"/>
</a>
</g>
<text text-anchor="middle" x="280.5" y="-18" font-family="Helvetica,sans-Serif" font-size="10.00" fill="grey"> recordsInMetadata</text>
</g>
</g>
</svg>
