<?xml version="1.0" encoding="UTF-8" standalone="no"?>
<!DOCTYPE svg PUBLIC "-//W3C//DTD SVG 1.1//EN"
 "http://www.w3.org/Graphics/SVG/1.1/DTD/svg11.dtd">
<!-- Generated by graphviz version 2.43.0 (0)
 -->
<!-- Title: com.teragrep.pth_06.task.s3.RowConverter.get Pages: 1 -->
<svg width="406pt" height="108pt"
 viewBox="0.00 0.00 406.00 108.00" xmlns="http://www.w3.org/2000/svg" xmlns:xlink="http://www.w3.org/1999/xlink">
<g id="graph0" class="graph" transform="scale(1 1) rotate(0) translate(4 104)">
<title>com.teragrep.pth_06.task.s3.RowConverter.get</title>
<!-- Node1 -->
<g id="Node000001" class="node">
<title>Node1</title>
<g id="a_Node000001"><a xlink:title=" ">
<polygon fill="#999999" stroke="#666666" points="398,-64.5 239,-64.5 239,-34.5 398,-34.5 398,-64.5"/>
<text text-anchor="start" x="247" y="-52.5" font-family="Helvetica,sans-Serif" font-size="10.00">com.teragrep.pth_06.task.s3.</text>
<text text-anchor="middle" x="318.5" y="-41.5" font-family="Helvetica,sans-Serif" font-size="10.00">RowConverter.get</text>
</a>
</g>
</g>
<!-- Node2 -->
<g id="Node000002" class="node">
<title>Node2</title>
<g id="a_Node000002"><a xlink:href="classcom_1_1teragrep_1_1pth__06_1_1task_1_1s3_1_1EpochMigrationRowConverterTest.html#aa986150d0328bee066ccb57062d689c1" target="_top" xlink:title=" ">
<polygon fill="white" stroke="#666666" points="203,-100 0,-100 0,-59 203,-59 203,-100"/>
<text text-anchor="start" x="8" y="-88" font-family="Helvetica,sans-Serif" font-size="10.00">com.teragrep.pth_06.task.s3.</text>
<text text-anchor="start" x="8" y="-77" font-family="Helvetica,sans-Serif" font-size="10.00">EpochMigrationRowConverterTest.test</text>
<text text-anchor="middle" x="101.5" y="-66" font-family="Helvetica,sans-Serif" font-size="10.00">NonSyslogRow</text>
</a>
</g>
</g>
<!-- Node1&#45;&gt;Node2 -->
<g id="edge1_Node000001_Node000002" class="edge">
<title>Node1&#45;&gt;Node2</title>
<g id="a_edge1_Node000001_Node000002"><a xlink:title=" ">
<path fill="none" stroke="#63b8ff" d="M229.05,-61.84C220.52,-63.03 211.83,-64.24 203.2,-65.45"/>
<polygon fill="#63b8ff" stroke="#63b8ff" points="229.55,-65.31 238.97,-60.46 228.58,-58.37 229.55,-65.31"/>
</a>
</g>
</g>
<!-- Node3 -->
<g id="Node000003" class="node">
<title>Node3</title>
<g id="a_Node000003"><a xlink:href="classcom_1_1teragrep_1_1pth__06_1_1task_1_1s3_1_1EpochMigrationRowConverterTest.html#a9237e12c78f46b89e89862f593c01013" target="_top" xlink:title=" ">
<polygon fill="white" stroke="#666666" points="203,-41 0,-41 0,0 203,0 203,-41"/>
<text text-anchor="start" x="8" y="-29" font-family="Helvetica,sans-Serif" font-size="10.00">com.teragrep.pth_06.task.s3.</text>
<text text-anchor="start" x="8" y="-18" font-family="Helvetica,sans-Serif" font-size="10.00">EpochMigrationRowConverterTest.test</text>
<text text-anchor="middle" x="101.5" y="-7" font-family="Helvetica,sans-Serif" font-size="10.00">SyslogConversion</text>
</a>
</g>
</g>
<!-- Node1&#45;&gt;Node3 -->
<g id="edge2_Node000001_Node000003" class="edge">
<title>Node1&#45;&gt;Node3</title>
<g id="a_edge2_Node000001_Node000003"><a xlink:title=" ">
<path fill="none" stroke="#63b8ff" d="M229.05,-37.57C220.52,-36.42 211.83,-35.25 203.2,-34.08"/>
<polygon fill="#63b8ff" stroke="#63b8ff" points="228.59,-41.04 238.97,-38.91 229.53,-34.1 228.59,-41.04"/>
</a>
</g>
</g>
</g>
</svg>
