<?xml version="1.0" encoding="UTF-8" standalone="no"?>
<!DOCTYPE svg PUBLIC "-//W3C//DTD SVG 1.1//EN"
 "http://www.w3.org/Graphics/SVG/1.1/DTD/svg11.dtd">
<!-- Generated by graphviz version 2.43.0 (0)
 -->
<!-- Title: com.teragrep.pth_06.config.Config Pages: 1 -->
<svg width="420pt" height="182pt"
 viewBox="0.00 0.00 420.00 182.00" xmlns="http://www.w3.org/2000/svg" xmlns:xlink="http://www.w3.org/1999/xlink">
<g id="graph0" class="graph" transform="scale(1 1) rotate(0) translate(4 178)">
<title>com.teragrep.pth_06.config.Config</title>
<!-- Node1 -->
<g id="Node000001" class="node">
<title>Node1</title>
<g id="a_Node000001"><a xlink:title=" ">
<polygon fill="#999999" stroke="#666666" points="412,-102 259,-102 259,-72 412,-72 412,-102"/>
<text text-anchor="start" x="267" y="-90" font-family="Helvetica,sans-Serif" font-size="10.00">com.teragrep.pth_06.config.</text>
<text text-anchor="middle" x="335.5" y="-79" font-family="Helvetica,sans-Serif" font-size="10.00">Config</text>
</a>
</g>
</g>
<!-- Node2 -->
<g id="Node000002" class="node">
<title>Node2</title>
<g id="a_Node000002"><a xlink:href="classcom_1_1teragrep_1_1pth__06_1_1config_1_1ArchiveConfig.html" target="_top" xlink:title=" ">
<polygon fill="white" stroke="#666666" points="153,-174 0,-174 0,-144 153,-144 153,-174"/>
<text text-anchor="start" x="8" y="-162" font-family="Helvetica,sans-Serif" font-size="10.00">com.teragrep.pth_06.config.</text>
<text text-anchor="middle" x="76.5" y="-151" font-family="Helvetica,sans-Serif" font-size="10.00">ArchiveConfig</text>
</a>
</g>
</g>
<!-- Node2&#45;&gt;Node1 -->
<g id="edge1_Node000001_Node000002" class="edge">
<title>Node2&#45;&gt;Node1</title>
<g id="a_edge1_Node000001_Node000002"><a xlink:title=" ">
<path fill="none" stroke="#9a32cd" stroke-dasharray="5,2" d="M146.77,-141.5C175.94,-133.94 210.2,-124.82 241,-116 256.19,-111.65 272.69,-106.63 287.53,-102.01"/>
<polygon fill="#9a32cd" stroke="#9a32cd" points="145.89,-138.11 137.08,-144 147.64,-144.88 145.89,-138.11"/>
</a>
</g>
<text text-anchor="middle" x="206" y="-137" font-family="Helvetica,sans-Serif" font-size="10.00" fill="grey"> archiveConfig</text>
</g>
<!-- Node3 -->
<g id="Node000003" class="node">
<title>Node3</title>
<g id="a_Node000003"><a xlink:href="classcom_1_1teragrep_1_1pth__06_1_1config_1_1KafkaConfig.html" target="_top" xlink:title=" ">
<polygon fill="white" stroke="#666666" points="153,-126 0,-126 0,-96 153,-96 153,-126"/>
<text text-anchor="start" x="8" y="-114" font-family="Helvetica,sans-Serif" font-size="10.00">com.teragrep.pth_06.config.</text>
<text text-anchor="middle" x="76.5" y="-103" font-family="Helvetica,sans-Serif" font-size="10.00">KafkaConfig</text>
</a>
</g>
</g>
<!-- Node3&#45;&gt;Node1 -->
<g id="edge2_Node000001_Node000003" class="edge">
<title>Node3&#45;&gt;Node1</title>
<g id="a_edge2_Node000001_Node000003"><a xlink:title=" ">
<path fill="none" stroke="#9a32cd" stroke-dasharray="5,2" d="M163.53,-102.97C194.4,-100.08 228.96,-96.86 258.88,-94.06"/>
<polygon fill="#9a32cd" stroke="#9a32cd" points="162.85,-99.51 153.22,-103.93 163.5,-106.48 162.85,-99.51"/>
</a>
</g>
<text text-anchor="middle" x="206" y="-104" font-family="Helvetica,sans-Serif" font-size="10.00" fill="grey"> kafkaConfig</text>
</g>
<!-- Node4 -->
<g id="Node000004" class="node">
<title>Node4</title>
<g id="a_Node000004"><a xlink:href="classcom_1_1teragrep_1_1pth__06_1_1config_1_1BatchConfig.html" target="_top" xlink:title=" ">
<polygon fill="white" stroke="#666666" points="153,-78 0,-78 0,-48 153,-48 153,-78"/>
<text text-anchor="start" x="8" y="-66" font-family="Helvetica,sans-Serif" font-size="10.00">com.teragrep.pth_06.config.</text>
<text text-anchor="middle" x="76.5" y="-55" font-family="Helvetica,sans-Serif" font-size="10.00">BatchConfig</text>
</a>
</g>
</g>
<!-- Node4&#45;&gt;Node1 -->
<g id="edge3_Node000001_Node000004" class="edge">
<title>Node4&#45;&gt;Node1</title>
<g id="a_edge3_Node000001_Node000004"><a xlink:title=" ">
<path fill="none" stroke="#9a32cd" stroke-dasharray="5,2" d="M163.53,-71.03C194.4,-73.92 228.96,-77.14 258.88,-79.94"/>
<polygon fill="#9a32cd" stroke="#9a32cd" points="163.5,-67.52 153.22,-70.07 162.85,-74.49 163.5,-67.52"/>
</a>
</g>
<text text-anchor="middle" x="206" y="-80" font-family="Helvetica,sans-Serif" font-size="10.00" fill="grey"> batchConfig</text>
</g>
<!-- Node5 -->
<g id="Node000005" class="node">
<title>Node5</title>
<g id="a_Node000005"><a xlink:href="classcom_1_1teragrep_1_1pth__06_1_1config_1_1AuditConfig.html" target="_top" xlink:title=" ">
<polygon fill="white" stroke="#666666" points="153,-30 0,-30 0,0 153,0 153,-30"/>
<text text-anchor="start" x="8" y="-18" font-family="Helvetica,sans-Serif" font-size="10.00">com.teragrep.pth_06.config.</text>
<text text-anchor="middle" x="76.5" y="-7" font-family="Helvetica,sans-Serif" font-size="10.00">AuditConfig</text>
</a>
</g>
</g>
<!-- Node5&#45;&gt;Node1 -->
<g id="edge4_Node000001_Node000005" class="edge">
<title>Node5&#45;&gt;Node1</title>
<g id="a_edge4_Node000001_Node000005"><a xlink:title=" ">
<path fill="none" stroke="#9a32cd" stroke-dasharray="5,2" d="M149.74,-32.58C178.27,-39.78 211.28,-48.42 241,-57 256.89,-61.59 274.16,-67 289.49,-71.96"/>
<polygon fill="#9a32cd" stroke="#9a32cd" points="150.4,-29.14 139.85,-30.1 148.69,-35.93 150.4,-29.14"/>
</a>
</g>
<text text-anchor="middle" x="206" y="-60" font-family="Helvetica,sans-Serif" font-size="10.00" fill="grey"> auditConfig</text>
</g>
</g>
</svg>
