<?xml version="1.0" encoding="UTF-8" standalone="no"?>
<!DOCTYPE svg PUBLIC "-//W3C//DTD SVG 1.1//EN"
 "http://www.w3.org/Graphics/SVG/1.1/DTD/svg11.dtd">
<!-- Generated by graphviz version 2.43.0 (0)
 -->
<!-- Title: com.teragrep.pth_06.scheduler.Batch.processRange Pages: 1 -->
<svg width="665pt" height="206pt"
 viewBox="0.00 0.00 665.00 206.00" xmlns="http://www.w3.org/2000/svg" xmlns:xlink="http://www.w3.org/1999/xlink">
<g id="graph0" class="graph" transform="scale(1 1) rotate(0) translate(4 202)">
<title>com.teragrep.pth_06.scheduler.Batch.processRange</title>
<!-- Node1 -->
<g id="Node000001" class="node">
<title>Node1</title>
<g id="a_Node000001"><a xlink:title=" ">
<polygon fill="#999999" stroke="#666666" points="170,-102 0,-102 0,-72 170,-72 170,-102"/>
<text text-anchor="start" x="8" y="-90" font-family="Helvetica,sans-Serif" font-size="10.00">com.teragrep.pth_06.scheduler.</text>
<text text-anchor="middle" x="85" y="-79" font-family="Helvetica,sans-Serif" font-size="10.00">Batch.processRange</text>
</a>
</g>
</g>
<!-- Node1&#45;&gt;Node1 -->
<g id="edge6_Node000001_Node000001" class="edge">
<title>Node1&#45;&gt;Node1</title>
<g id="a_edge6_Node000001_Node000001"><a xlink:title=" ">
<path fill="none" stroke="#63b8ff" d="M44.22,-102.28C35.16,-111.41 48.75,-120 85,-120 106.52,-120 120.06,-116.97 125.61,-112.6"/>
<polygon fill="#63b8ff" stroke="#63b8ff" points="129.11,-112.33 125.78,-102.28 122.11,-112.22 129.11,-112.33"/>
</a>
</g>
</g>
<!-- Node2 -->
<g id="Node000002" class="node">
<title>Node2</title>
<g id="a_Node000002"><a xlink:href="classcom_1_1teragrep_1_1pth__06_1_1scheduler_1_1Batch.html#a961bcc848cc69ae0bb8a1143394b02ac" target="_top" xlink:title=" ">
<polygon fill="white" stroke="#666666" points="403,-174 233,-174 233,-144 403,-144 403,-174"/>
<text text-anchor="start" x="241" y="-162" font-family="Helvetica,sans-Serif" font-size="10.00">com.teragrep.pth_06.scheduler.</text>
<text text-anchor="middle" x="318" y="-151" font-family="Helvetica,sans-Serif" font-size="10.00">Batch.addSlice</text>
</a>
</g>
</g>
<!-- Node1&#45;&gt;Node2 -->
<g id="edge1_Node000001_Node000002" class="edge">
<title>Node1&#45;&gt;Node2</title>
<g id="a_edge1_Node000001_Node000002"><a xlink:title=" ">
<path fill="none" stroke="#63b8ff" d="M119.34,-102.09C143.12,-112.42 176.07,-125.85 206,-135 213.64,-137.34 221.64,-139.53 229.7,-141.58"/>
<polygon fill="#63b8ff" stroke="#63b8ff" points="228.99,-145.01 239.54,-144 230.66,-138.21 228.99,-145.01"/>
</a>
</g>
</g>
<!-- Node5 -->
<g id="Node000005" class="node">
<title>Node5</title>
<g id="a_Node000005"><a xlink:href="classcom_1_1teragrep_1_1pth__06_1_1scheduler_1_1Batch.html#a34858c2c0600116c45cb4fe2cebdbd81" target="_top" xlink:title=" ">
<polygon fill="white" stroke="#666666" points="403,-126 233,-126 233,-96 403,-96 403,-126"/>
<text text-anchor="start" x="241" y="-114" font-family="Helvetica,sans-Serif" font-size="10.00">com.teragrep.pth_06.scheduler.</text>
<text text-anchor="middle" x="318" y="-103" font-family="Helvetica,sans-Serif" font-size="10.00">Batch.getBatch</text>
</a>
</g>
</g>
<!-- Node1&#45;&gt;Node5 -->
<g id="edge4_Node000001_Node000005" class="edge">
<title>Node1&#45;&gt;Node5</title>
<g id="a_edge4_Node000001_Node000005"><a xlink:title=" ">
<path fill="none" stroke="#63b8ff" d="M170.05,-95.73C187.09,-97.5 205.11,-99.38 222.49,-101.18"/>
<polygon fill="#63b8ff" stroke="#63b8ff" points="222.32,-104.68 232.63,-102.23 223.04,-97.72 222.32,-104.68"/>
</a>
</g>
</g>
<!-- Node6 -->
<g id="Node000006" class="node">
<title>Node6</title>
<g id="a_Node000006"><a xlink:href="classcom_1_1teragrep_1_1pth__06_1_1scheduler_1_1ArchiveBatchSliceCollection.html#a66a88238f727d70abfe56a0e15b51bac" target="_top" xlink:title=" ">
<polygon fill="white" stroke="#666666" points="430,-78 206,-78 206,-48 430,-48 430,-78"/>
<text text-anchor="start" x="214" y="-66" font-family="Helvetica,sans-Serif" font-size="10.00">com.teragrep.pth_06.scheduler.</text>
<text text-anchor="middle" x="318" y="-55" font-family="Helvetica,sans-Serif" font-size="10.00">ArchiveBatchSliceCollection.processRange</text>
</a>
</g>
</g>
<!-- Node1&#45;&gt;Node6 -->
<g id="edge5_Node000001_Node000006" class="edge">
<title>Node1&#45;&gt;Node6</title>
<g id="a_edge5_Node000001_Node000006"><a xlink:title=" ">
<path fill="none" stroke="#63b8ff" d="M170.05,-78.27C178.39,-77.4 186.98,-76.51 195.6,-75.61"/>
<polygon fill="#63b8ff" stroke="#63b8ff" points="196.15,-79.07 205.74,-74.56 195.43,-72.11 196.15,-79.07"/>
</a>
</g>
</g>
<!-- Node7 -->
<g id="Node000007" class="node">
<title>Node7</title>
<g id="a_Node000007"><a xlink:href="classcom_1_1teragrep_1_1pth__06_1_1scheduler_1_1KafkaBatchSliceCollection.html#a90ea5a42f2333212f3b56fc4580148e4" target="_top" xlink:title=" ">
<polygon fill="white" stroke="#666666" points="425.5,-30 210.5,-30 210.5,0 425.5,0 425.5,-30"/>
<text text-anchor="start" x="218.5" y="-18" font-family="Helvetica,sans-Serif" font-size="10.00">com.teragrep.pth_06.scheduler.</text>
<text text-anchor="middle" x="318" y="-7" font-family="Helvetica,sans-Serif" font-size="10.00">KafkaBatchSliceCollection.processRange</text>
</a>
</g>
</g>
<!-- Node1&#45;&gt;Node7 -->
<g id="edge7_Node000001_Node000007" class="edge">
<title>Node1&#45;&gt;Node7</title>
<g id="a_edge7_Node000001_Node000007"><a xlink:title=" ">
<path fill="none" stroke="#63b8ff" d="M119.34,-71.91C143.12,-61.58 176.07,-48.15 206,-39 213.64,-36.66 221.64,-34.47 229.7,-32.42"/>
<polygon fill="#63b8ff" stroke="#63b8ff" points="230.66,-35.79 239.54,-30 228.99,-28.99 230.66,-35.79"/>
</a>
</g>
</g>
<!-- Node3 -->
<g id="Node000003" class="node">
<title>Node3</title>
<g id="a_Node000003"><a xlink:href="classcom_1_1teragrep_1_1pth__06_1_1scheduler_1_1BatchTaskQueue.html#af45361c6f8feebc3ce8ab09fb5b4494d" target="_top" xlink:title=" ">
<polygon fill="white" stroke="#666666" points="648,-198 475,-198 475,-168 648,-168 648,-198"/>
<text text-anchor="start" x="483" y="-186" font-family="Helvetica,sans-Serif" font-size="10.00">com.teragrep.pth_06.scheduler.</text>
<text text-anchor="middle" x="561.5" y="-175" font-family="Helvetica,sans-Serif" font-size="10.00">BatchTaskQueue.getQueueTime</text>
</a>
</g>
</g>
<!-- Node2&#45;&gt;Node3 -->
<g id="edge2_Node000002_Node000003" class="edge">
<title>Node2&#45;&gt;Node3</title>
<g id="a_edge2_Node000002_Node000003"><a xlink:title=" ">
<path fill="none" stroke="#63b8ff" d="M403.13,-167.36C422.92,-169.33 444.17,-171.44 464.45,-173.45"/>
<polygon fill="#63b8ff" stroke="#63b8ff" points="464.33,-176.96 474.63,-174.47 465.02,-169.99 464.33,-176.96"/>
</a>
</g>
</g>
<!-- Node4 -->
<g id="Node000004" class="node">
<title>Node4</title>
<g id="a_Node000004"><a xlink:href="classcom_1_1teragrep_1_1pth__06_1_1scheduler_1_1BatchSlice.html#a924403c9b17d1af7ed974097ba972a65" target="_top" xlink:title=" ">
<polygon fill="white" stroke="#666666" points="646.5,-150 476.5,-150 476.5,-120 646.5,-120 646.5,-150"/>
<text text-anchor="start" x="484.5" y="-138" font-family="Helvetica,sans-Serif" font-size="10.00">com.teragrep.pth_06.scheduler.</text>
<text text-anchor="middle" x="561.5" y="-127" font-family="Helvetica,sans-Serif" font-size="10.00">BatchSlice.getSize</text>
</a>
</g>
</g>
<!-- Node2&#45;&gt;Node4 -->
<g id="edge3_Node000002_Node000004" class="edge">
<title>Node2&#45;&gt;Node4</title>
<g id="a_edge3_Node000002_Node000004"><a xlink:title=" ">
<path fill="none" stroke="#63b8ff" d="M403.13,-150.64C423.48,-148.62 445.37,-146.44 466.16,-144.38"/>
<polygon fill="#63b8ff" stroke="#63b8ff" points="466.66,-147.84 476.27,-143.37 465.97,-140.88 466.66,-147.84"/>
</a>
</g>
</g>
<!-- Node8 -->
<g id="Node000008" class="node">
<title>Node8</title>
<g id="a_Node000008"><a xlink:href="classcom_1_1teragrep_1_1pth__06_1_1scheduler_1_1KafkaBatchSliceCollection.html#a18952bff484b226ccfed89f2f3f38a83" target="_top" xlink:title=" ">
<polygon fill="white" stroke="#666666" points="657,-30 466,-30 466,0 657,0 657,-30"/>
<text text-anchor="start" x="474" y="-18" font-family="Helvetica,sans-Serif" font-size="10.00">com.teragrep.pth_06.scheduler.</text>
<text text-anchor="middle" x="561.5" y="-7" font-family="Helvetica,sans-Serif" font-size="10.00">KafkaBatchSliceCollection.generate</text>
</a>
</g>
</g>
<!-- Node7&#45;&gt;Node8 -->
<g id="edge8_Node000007_Node000008" class="edge">
<title>Node7&#45;&gt;Node8</title>
<g id="a_edge8_Node000007_Node000008"><a xlink:title=" ">
<path fill="none" stroke="#63b8ff" d="M425.63,-15C435.57,-15 445.64,-15 455.56,-15"/>
<polygon fill="#63b8ff" stroke="#63b8ff" points="455.84,-18.5 465.84,-15 455.84,-11.5 455.84,-18.5"/>
</a>
</g>
</g>
</g>
</svg>
