<?xml version="1.0" encoding="UTF-8" standalone="no"?>
<!DOCTYPE svg PUBLIC "-//W3C//DTD SVG 1.1//EN"
 "http://www.w3.org/Graphics/SVG/1.1/DTD/svg11.dtd">
<!-- Generated by graphviz version 2.43.0 (0)
 -->
<!-- Title: com.teragrep.pth_06.planner.walker.ConditionWalker.fromString Pages: 1 -->
<svg width="456pt" height="134pt"
 viewBox="0.00 0.00 456.00 134.00" xmlns="http://www.w3.org/2000/svg" xmlns:xlink="http://www.w3.org/1999/xlink">
<g id="graph0" class="graph" transform="scale(1 1) rotate(0) translate(4 130)">
<title>com.teragrep.pth_06.planner.walker.ConditionWalker.fromString</title>
<!-- Node1 -->
<g id="Node000001" class="node">
<title>Node1</title>
<g id="a_Node000001"><a xlink:title=" ">
<polygon fill="#999999" stroke="#666666" points="194,-78 0,-78 0,-48 194,-48 194,-78"/>
<text text-anchor="start" x="8" y="-66" font-family="Helvetica,sans-Serif" font-size="10.00">com.teragrep.pth_06.planner.walker.</text>
<text text-anchor="middle" x="97" y="-55" font-family="Helvetica,sans-Serif" font-size="10.00">ConditionWalker.fromString</text>
</a>
</g>
</g>
<!-- Node1&#45;&gt;Node1 -->
<g id="edge3_Node000001_Node000001" class="edge">
<title>Node1&#45;&gt;Node1</title>
<g id="a_edge3_Node000001_Node000001"><a xlink:title=" ">
<path fill="none" stroke="#63b8ff" d="M54.46,-78.28C45.01,-87.41 59.19,-96 97,-96 119.45,-96 133.57,-92.97 139.36,-88.6"/>
<polygon fill="#63b8ff" stroke="#63b8ff" points="142.86,-88.33 139.54,-78.28 135.87,-88.21 142.86,-88.33"/>
</a>
</g>
</g>
<!-- Node2 -->
<g id="Node000002" class="node">
<title>Node2</title>
<g id="a_Node000002"><a xlink:href="interfacecom_1_1teragrep_1_1pth__06_1_1planner_1_1walker_1_1FilterlessSearch.html#a20ace5dc425b9b2e721bae827d8ee9e2" target="_top" xlink:title=" ">
<polygon fill="white" stroke="#666666" points="436,-126 242,-126 242,-96 436,-96 436,-126"/>
<text text-anchor="start" x="250" y="-114" font-family="Helvetica,sans-Serif" font-size="10.00">com.teragrep.pth_06.planner.walker.</text>
<text text-anchor="middle" x="339" y="-103" font-family="Helvetica,sans-Serif" font-size="10.00">FilterlessSearch.condition</text>
</a>
</g>
</g>
<!-- Node1&#45;&gt;Node2 -->
<g id="edge1_Node000001_Node000002" class="edge">
<title>Node1&#45;&gt;Node2</title>
<g id="a_edge1_Node000001_Node000002"><a xlink:title=" ">
<path fill="none" stroke="#63b8ff" d="M173.28,-78.06C198.63,-83.13 227.1,-88.82 253.14,-94.03"/>
<polygon fill="#63b8ff" stroke="#63b8ff" points="252.5,-97.47 262.99,-96 253.87,-90.6 252.5,-97.47"/>
</a>
</g>
</g>
<!-- Node3 -->
<g id="Node000003" class="node">
<title>Node3</title>
<g id="a_Node000003"><a xlink:href="classcom_1_1teragrep_1_1pth__06_1_1planner_1_1walker_1_1ConditionWalker.html#a2c846313a15213fa9f090aaec5e91de4" target="_top" xlink:title="Set of all tables needed to be joined to the query using the condition generated by this walker.">
<polygon fill="white" stroke="#666666" points="448,-78 230,-78 230,-48 448,-48 448,-78"/>
<text text-anchor="start" x="238" y="-66" font-family="Helvetica,sans-Serif" font-size="10.00">com.teragrep.pth_06.planner.walker.</text>
<text text-anchor="middle" x="339" y="-55" font-family="Helvetica,sans-Serif" font-size="10.00">ConditionWalker.conditionRequiredTables</text>
</a>
</g>
</g>
<!-- Node1&#45;&gt;Node3 -->
<g id="edge2_Node000001_Node000003" class="edge">
<title>Node1&#45;&gt;Node3</title>
<g id="a_edge2_Node000001_Node000003"><a xlink:title=" ">
<path fill="none" stroke="#63b8ff" d="M194.23,-63C202.67,-63 211.27,-63 219.86,-63"/>
<polygon fill="#63b8ff" stroke="#63b8ff" points="219.92,-66.5 229.92,-63 219.92,-59.5 219.92,-66.5"/>
</a>
</g>
</g>
<!-- Node4 -->
<g id="Node000004" class="node">
<title>Node4</title>
<g id="a_Node000004"><a xlink:href="interfacecom_1_1teragrep_1_1pth__06_1_1planner_1_1walker_1_1FilterlessSearch.html#a307cdce8f8d3603da47ed080cc437e0d" target="_top" xlink:title=" ">
<polygon fill="white" stroke="#666666" points="436,-30 242,-30 242,0 436,0 436,-30"/>
<text text-anchor="start" x="250" y="-18" font-family="Helvetica,sans-Serif" font-size="10.00">com.teragrep.pth_06.planner.walker.</text>
<text text-anchor="middle" x="339" y="-7" font-family="Helvetica,sans-Serif" font-size="10.00">FilterlessSearch.isStub</text>
</a>
</g>
</g>
<!-- Node1&#45;&gt;Node4 -->
<g id="edge4_Node000001_Node000004" class="edge">
<title>Node1&#45;&gt;Node4</title>
<g id="a_edge4_Node000001_Node000004"><a xlink:title=" ">
<path fill="none" stroke="#63b8ff" d="M173.28,-47.94C198.63,-42.87 227.1,-37.18 253.14,-31.97"/>
<polygon fill="#63b8ff" stroke="#63b8ff" points="253.87,-35.4 262.99,-30 252.5,-28.53 253.87,-35.4"/>
</a>
</g>
</g>
</g>
</svg>
