<?xml version="1.0" encoding="UTF-8" standalone="no"?>
<!DOCTYPE svg PUBLIC "-//W3C//DTD SVG 1.1//EN"
 "http://www.w3.org/Graphics/SVG/1.1/DTD/svg11.dtd">
<!-- Generated by graphviz version 2.43.0 (0)
 -->
<!-- Title: com.teragrep.pth_06.task.kafka.KafkaRecordConverter.convert Pages: 1 -->
<svg width="423pt" height="134pt"
 viewBox="0.00 0.00 423.00 134.00" xmlns="http://www.w3.org/2000/svg" xmlns:xlink="http://www.w3.org/1999/xlink">
<g id="graph0" class="graph" transform="scale(1 1) rotate(0) translate(4 130)">
<title>com.teragrep.pth_06.task.kafka.KafkaRecordConverter.convert</title>
<!-- Node1 -->
<g id="Node000001" class="node">
<title>Node1</title>
<g id="a_Node000001"><a xlink:title=" ">
<polygon fill="#999999" stroke="#666666" points="174,-78 0,-78 0,-48 174,-48 174,-78"/>
<text text-anchor="start" x="8" y="-66" font-family="Helvetica,sans-Serif" font-size="10.00">com.teragrep.pth_06.task.kafka.</text>
<text text-anchor="middle" x="87" y="-55" font-family="Helvetica,sans-Serif" font-size="10.00">KafkaRecordConverter.convert</text>
</a>
</g>
</g>
<!-- Node2 -->
<g id="Node000002" class="node">
<title>Node2</title>
<g id="a_Node000002"><a xlink:href="classcom_1_1teragrep_1_1pth__06_1_1task_1_1kafka_1_1KafkaRecordConverter.html#a3ab9bd3cbef3286ab10525bae2cfa811" target="_top" xlink:title=" ">
<polygon fill="white" stroke="#666666" points="410.5,-126 214.5,-126 214.5,-96 410.5,-96 410.5,-126"/>
<text text-anchor="start" x="222.5" y="-114" font-family="Helvetica,sans-Serif" font-size="10.00">com.teragrep.pth_06.task.kafka.</text>
<text text-anchor="middle" x="312.5" y="-103" font-family="Helvetica,sans-Serif" font-size="10.00">KafkaRecordConverter.eventToOrigin</text>
</a>
</g>
</g>
<!-- Node1&#45;&gt;Node2 -->
<g id="edge1_Node000001_Node000002" class="edge">
<title>Node1&#45;&gt;Node2</title>
<g id="a_edge1_Node000001_Node000002"><a xlink:title=" ">
<path fill="none" stroke="#63b8ff" d="M158.1,-78.06C181.51,-83.08 207.75,-88.72 231.83,-93.89"/>
<polygon fill="#63b8ff" stroke="#63b8ff" points="231.13,-97.32 241.65,-96 232.6,-90.48 231.13,-97.32"/>
</a>
</g>
</g>
<!-- Node3 -->
<g id="Node000003" class="node">
<title>Node3</title>
<g id="a_Node000003"><a xlink:href="classcom_1_1teragrep_1_1pth__06_1_1task_1_1kafka_1_1KafkaRecordConverter.html#a19b9f04406a0f06e56092b41d398d79d" target="_top" xlink:title=" ">
<polygon fill="white" stroke="#666666" points="412.5,-78 212.5,-78 212.5,-48 412.5,-48 412.5,-78"/>
<text text-anchor="start" x="220.5" y="-66" font-family="Helvetica,sans-Serif" font-size="10.00">com.teragrep.pth_06.task.kafka.</text>
<text text-anchor="middle" x="312.5" y="-55" font-family="Helvetica,sans-Serif" font-size="10.00">KafkaRecordConverter.eventToSource</text>
</a>
</g>
</g>
<!-- Node1&#45;&gt;Node3 -->
<g id="edge2_Node000001_Node000003" class="edge">
<title>Node1&#45;&gt;Node3</title>
<g id="a_edge2_Node000001_Node000003"><a xlink:title=" ">
<path fill="none" stroke="#63b8ff" d="M174.09,-63C183.3,-63 192.76,-63 202.19,-63"/>
<polygon fill="#63b8ff" stroke="#63b8ff" points="202.41,-66.5 212.41,-63 202.41,-59.5 202.41,-66.5"/>
</a>
</g>
</g>
<!-- Node4 -->
<g id="Node000004" class="node">
<title>Node4</title>
<g id="a_Node000004"><a xlink:href="classcom_1_1teragrep_1_1pth__06_1_1task_1_1kafka_1_1KafkaRecordConverter.html#a82eb1d3ade8435fef99829ceda83ed5d" target="_top" xlink:title=" ">
<polygon fill="white" stroke="#666666" points="415,-30 210,-30 210,0 415,0 415,-30"/>
<text text-anchor="start" x="218" y="-18" font-family="Helvetica,sans-Serif" font-size="10.00">com.teragrep.pth_06.task.kafka.</text>
<text text-anchor="middle" x="312.5" y="-7" font-family="Helvetica,sans-Serif" font-size="10.00">KafkaRecordConverter.rfc3339ToEpoch</text>
</a>
</g>
</g>
<!-- Node1&#45;&gt;Node4 -->
<g id="edge3_Node000001_Node000004" class="edge">
<title>Node1&#45;&gt;Node4</title>
<g id="a_edge3_Node000001_Node000004"><a xlink:title=" ">
<path fill="none" stroke="#63b8ff" d="M158.1,-47.94C181.51,-42.92 207.75,-37.28 231.83,-32.11"/>
<polygon fill="#63b8ff" stroke="#63b8ff" points="232.6,-35.52 241.65,-30 231.13,-28.68 232.6,-35.52"/>
</a>
</g>
</g>
</g>
</svg>
