<?xml version="1.0" encoding="UTF-8" standalone="no"?>
<!DOCTYPE svg PUBLIC "-//W3C//DTD SVG 1.1//EN"
 "http://www.w3.org/Graphics/SVG/1.1/DTD/svg11.dtd">
<!-- Generated by graphviz version 2.43.0 (0)
 -->
<!-- Title: com.teragrep.pth_06.planner.walker.conditions.SourceTypeCondition.condition Pages: 1 -->
<svg width="540pt" height="134pt"
 viewBox="0.00 0.00 540.00 134.00" xmlns="http://www.w3.org/2000/svg" xmlns:xlink="http://www.w3.org/1999/xlink">
<g id="graph0" class="graph" transform="scale(1 1) rotate(0) translate(4 130)">
<title>com.teragrep.pth_06.planner.walker.conditions.SourceTypeCondition.condition</title>
<!-- Node1 -->
<g id="Node000001" class="node">
<title>Node1</title>
<g id="a_Node000001"><a xlink:title=" ">
<polygon fill="#999999" stroke="#666666" points="532,-78 284,-78 284,-48 532,-48 532,-78"/>
<text text-anchor="start" x="292" y="-66" font-family="Helvetica,sans-Serif" font-size="10.00">com.teragrep.pth_06.planner.walker.conditions.</text>
<text text-anchor="middle" x="408" y="-55" font-family="Helvetica,sans-Serif" font-size="10.00">SourceTypeCondition.condition</text>
</a>
</g>
</g>
<!-- Node1&#45;&gt;Node1 -->
<g id="edge1_Node000001_Node000001" class="edge">
<title>Node1&#45;&gt;Node1</title>
<g id="a_edge1_Node000001_Node000001"><a xlink:title=" ">
<path fill="none" stroke="#63b8ff" d="M457.97,-88.42C451.35,-92.89 434.69,-96 408,-96 363.62,-96 346.98,-87.41 358.08,-78.28"/>
<polygon fill="#63b8ff" stroke="#63b8ff" points="461.47,-88.26 457.92,-78.28 454.47,-88.29 461.47,-88.26"/>
</a>
</g>
</g>
<!-- Node2 -->
<g id="Node000002" class="node">
<title>Node2</title>
<g id="a_Node000002"><a xlink:href="classcom_1_1teragrep_1_1pth__06_1_1planner_1_1walker_1_1conditions_1_1SourceTypeConditionTest.html#ad61c6c368d81f41a20c821b7df11ee5e" target="_top" xlink:title=" ">
<polygon fill="white" stroke="#666666" points="248,-126 0,-126 0,-96 248,-96 248,-126"/>
<text text-anchor="start" x="8" y="-114" font-family="Helvetica,sans-Serif" font-size="10.00">com.teragrep.pth_06.planner.walker.conditions.</text>
<text text-anchor="middle" x="124" y="-103" font-family="Helvetica,sans-Serif" font-size="10.00">SourceTypeConditionTest.conditionTest</text>
</a>
</g>
</g>
<!-- Node1&#45;&gt;Node2 -->
<g id="edge2_Node000001_Node000002" class="edge">
<title>Node1&#45;&gt;Node2</title>
<g id="a_edge2_Node000001_Node000002"><a xlink:title=" ">
<path fill="none" stroke="#63b8ff" d="M308.58,-79.75C277.53,-85.04 243.43,-90.84 213.14,-96"/>
<polygon fill="#63b8ff" stroke="#63b8ff" points="309.28,-83.18 318.55,-78.06 308.1,-76.28 309.28,-83.18"/>
</a>
</g>
</g>
<!-- Node3 -->
<g id="Node000003" class="node">
<title>Node3</title>
<g id="a_Node000003"><a xlink:href="classcom_1_1teragrep_1_1pth__06_1_1planner_1_1walker_1_1conditions_1_1SourceTypeConditionTest.html#a76f49325228f45cf50bf3de5d96ef616" target="_top" xlink:title=" ">
<polygon fill="white" stroke="#666666" points="248,-78 0,-78 0,-48 248,-48 248,-78"/>
<text text-anchor="start" x="8" y="-66" font-family="Helvetica,sans-Serif" font-size="10.00">com.teragrep.pth_06.planner.walker.conditions.</text>
<text text-anchor="middle" x="124" y="-55" font-family="Helvetica,sans-Serif" font-size="10.00">SourceTypeConditionTest.equalsTest</text>
</a>
</g>
</g>
<!-- Node1&#45;&gt;Node3 -->
<g id="edge3_Node000001_Node000003" class="edge">
<title>Node1&#45;&gt;Node3</title>
<g id="a_edge3_Node000001_Node000003"><a xlink:title=" ">
<path fill="none" stroke="#63b8ff" d="M273.53,-63C265.16,-63 256.75,-63 248.43,-63"/>
<polygon fill="#63b8ff" stroke="#63b8ff" points="273.72,-66.5 283.72,-63 273.72,-59.5 273.72,-66.5"/>
</a>
</g>
</g>
<!-- Node4 -->
<g id="Node000004" class="node">
<title>Node4</title>
<g id="a_Node000004"><a xlink:href="classcom_1_1teragrep_1_1pth__06_1_1planner_1_1walker_1_1conditions_1_1SourceTypeConditionTest.html#a3236482704d05e3a1466e1c56ad4f3b8" target="_top" xlink:title=" ">
<polygon fill="white" stroke="#666666" points="248,-30 0,-30 0,0 248,0 248,-30"/>
<text text-anchor="start" x="8" y="-18" font-family="Helvetica,sans-Serif" font-size="10.00">com.teragrep.pth_06.planner.walker.conditions.</text>
<text text-anchor="middle" x="124" y="-7" font-family="Helvetica,sans-Serif" font-size="10.00">SourceTypeConditionTest.negationTest</text>
</a>
</g>
</g>
<!-- Node1&#45;&gt;Node4 -->
<g id="edge4_Node000001_Node000004" class="edge">
<title>Node1&#45;&gt;Node4</title>
<g id="a_edge4_Node000001_Node000004"><a xlink:title=" ">
<path fill="none" stroke="#63b8ff" d="M308.58,-46.25C277.53,-40.96 243.43,-35.16 213.14,-30"/>
<polygon fill="#63b8ff" stroke="#63b8ff" points="308.1,-49.72 318.55,-47.94 309.28,-42.82 308.1,-49.72"/>
</a>
</g>
</g>
</g>
</svg>
