<?xml version="1.0" encoding="UTF-8" standalone="no"?>
<!DOCTYPE svg PUBLIC "-//W3C//DTD SVG 1.1//EN"
 "http://www.w3.org/Graphics/SVG/1.1/DTD/svg11.dtd">
<!-- Generated by graphviz version 2.43.0 (0)
 -->
<!-- Title: com.teragrep.pth_06.planner.walker.conditions.ValidElement.tag Pages: 1 -->
<svg width="1108pt" height="290pt"
 viewBox="0.00 0.00 1108.00 289.72" xmlns="http://www.w3.org/2000/svg" xmlns:xlink="http://www.w3.org/1999/xlink">
<g id="graph0" class="graph" transform="scale(1 1) rotate(0) translate(4 285.72)">
<title>com.teragrep.pth_06.planner.walker.conditions.ValidElement.tag</title>
<!-- Node1 -->
<g id="Node000001" class="node">
<title>Node1</title>
<g id="a_Node000001"><a xlink:title=" ">
<polygon fill="#999999" stroke="#666666" points="1100,-150 852,-150 852,-120 1100,-120 1100,-150"/>
<text text-anchor="start" x="860" y="-138" font-family="Helvetica,sans-Serif" font-size="10.00">com.teragrep.pth_06.planner.walker.conditions.</text>
<text text-anchor="middle" x="976" y="-127" font-family="Helvetica,sans-Serif" font-size="10.00">ValidElement.tag</text>
</a>
</g>
</g>
<!-- Node2 -->
<g id="Node000002" class="node">
<title>Node2</title>
<g id="a_Node000002"><a xlink:href="classcom_1_1teragrep_1_1pth__06_1_1planner_1_1walker_1_1conditions_1_1ElementCondition.html#ad598b3368f8fca059dfc07a49d352f31" target="_top" xlink:title=" ">
<polygon fill="white" stroke="#666666" points="816,-225 568,-225 568,-195 816,-195 816,-225"/>
<text text-anchor="start" x="576" y="-213" font-family="Helvetica,sans-Serif" font-size="10.00">com.teragrep.pth_06.planner.walker.conditions.</text>
<text text-anchor="middle" x="692" y="-202" font-family="Helvetica,sans-Serif" font-size="10.00">ElementCondition.conditionForJournalDBQuery</text>
</a>
</g>
</g>
<!-- Node1&#45;&gt;Node2 -->
<g id="edge1_Node000001_Node000002" class="edge">
<title>Node1&#45;&gt;Node2</title>
<g id="a_edge1_Node000001_Node000002"><a xlink:title=" ">
<path fill="none" stroke="#63b8ff" d="M919.09,-153.03C888.75,-162.52 850.5,-174.02 816,-183 799.92,-187.19 782.55,-191.27 766.07,-194.93"/>
<polygon fill="#63b8ff" stroke="#63b8ff" points="920.16,-156.36 928.65,-150.02 918.06,-149.68 920.16,-156.36"/>
</a>
</g>
</g>
<!-- Node4 -->
<g id="Node000004" class="node">
<title>Node4</title>
<g id="a_Node000004"><a xlink:href="classcom_1_1teragrep_1_1pth__06_1_1planner_1_1walker_1_1conditions_1_1ElementCondition.html#ad1faef74318cb350165bbeafd562ecde" target="_top" xlink:title=" ">
<polygon fill="white" stroke="#666666" points="248,-273 0,-273 0,-243 248,-243 248,-273"/>
<text text-anchor="start" x="8" y="-261" font-family="Helvetica,sans-Serif" font-size="10.00">com.teragrep.pth_06.planner.walker.conditions.</text>
<text text-anchor="middle" x="124" y="-250" font-family="Helvetica,sans-Serif" font-size="10.00">ElementCondition.conditionForStreamDBQuery</text>
</a>
</g>
</g>
<!-- Node1&#45;&gt;Node4 -->
<g id="edge10_Node000001_Node000004" class="edge">
<title>Node1&#45;&gt;Node4</title>
<g id="a_edge10_Node000001_Node000004"><a xlink:title=" ">
<path fill="none" stroke="#63b8ff" d="M949.69,-156.72C919.95,-180.74 868.03,-218.14 816,-234 624.39,-292.39 388.97,-284.86 248.27,-272.53"/>
<polygon fill="#63b8ff" stroke="#63b8ff" points="951.97,-159.38 957.47,-150.33 947.52,-153.97 951.97,-159.38"/>
</a>
</g>
</g>
<!-- Node9 -->
<g id="Node000009" class="node">
<title>Node9</title>
<g id="a_Node000009"><a xlink:href="classcom_1_1teragrep_1_1pth__06_1_1planner_1_1walker_1_1conditions_1_1ElementCondition.html#af340b59529954bf83536432d3512af34" target="_top" xlink:title=" ">
<polygon fill="white" stroke="#666666" points="816,-174 568,-174 568,-144 816,-144 816,-174"/>
<text text-anchor="start" x="576" y="-162" font-family="Helvetica,sans-Serif" font-size="10.00">com.teragrep.pth_06.planner.walker.conditions.</text>
<text text-anchor="middle" x="692" y="-151" font-family="Helvetica,sans-Serif" font-size="10.00">ElementCondition.isBloomSearchCondition</text>
</a>
</g>
</g>
<!-- Node1&#45;&gt;Node9 -->
<g id="edge11_Node000001_Node000009" class="edge">
<title>Node1&#45;&gt;Node9</title>
<g id="a_edge11_Node000001_Node000009"><a xlink:title=" ">
<path fill="none" stroke="#63b8ff" d="M841.53,-146.36C833.16,-147.07 824.75,-147.79 816.43,-148.5"/>
<polygon fill="#63b8ff" stroke="#63b8ff" points="842.05,-149.83 851.72,-145.49 841.46,-142.85 842.05,-149.83"/>
</a>
</g>
</g>
<!-- Node12 -->
<g id="Node000012" class="node">
<title>Node12</title>
<g id="a_Node000012"><a xlink:href="classcom_1_1teragrep_1_1pth__06_1_1planner_1_1walker_1_1conditions_1_1ValidElementTest.html#a67d8cf6b8fd53006859128966b2287d7" target="_top" xlink:title=" ">
<polygon fill="white" stroke="#666666" points="816,-126 568,-126 568,-96 816,-96 816,-126"/>
<text text-anchor="start" x="576" y="-114" font-family="Helvetica,sans-Serif" font-size="10.00">com.teragrep.pth_06.planner.walker.conditions.</text>
<text text-anchor="middle" x="692" y="-103" font-family="Helvetica,sans-Serif" font-size="10.00">ValidElementTest.missingOperationTest</text>
</a>
</g>
</g>
<!-- Node1&#45;&gt;Node12 -->
<g id="edge14_Node000001_Node000012" class="edge">
<title>Node1&#45;&gt;Node12</title>
<g id="a_edge14_Node000001_Node000012"><a xlink:title=" ">
<path fill="none" stroke="#63b8ff" d="M841.53,-123.64C833.16,-122.93 824.75,-122.21 816.43,-121.5"/>
<polygon fill="#63b8ff" stroke="#63b8ff" points="841.46,-127.15 851.72,-124.51 842.05,-120.17 841.46,-127.15"/>
</a>
</g>
</g>
<!-- Node13 -->
<g id="Node000013" class="node">
<title>Node13</title>
<g id="a_Node000013"><a xlink:href="classcom_1_1teragrep_1_1pth__06_1_1planner_1_1walker_1_1conditions_1_1ValidElementTest.html#ac832b513f4dce1d1de9214c9d54ddfdd" target="_top" xlink:title=" ">
<polygon fill="white" stroke="#666666" points="816,-78 568,-78 568,-48 816,-48 816,-78"/>
<text text-anchor="start" x="576" y="-66" font-family="Helvetica,sans-Serif" font-size="10.00">com.teragrep.pth_06.planner.walker.conditions.</text>
<text text-anchor="middle" x="692" y="-55" font-family="Helvetica,sans-Serif" font-size="10.00">ValidElementTest.missingValueTest</text>
</a>
</g>
</g>
<!-- Node1&#45;&gt;Node13 -->
<g id="edge15_Node000001_Node000013" class="edge">
<title>Node1&#45;&gt;Node13</title>
<g id="a_edge15_Node000001_Node000013"><a xlink:title=" ">
<path fill="none" stroke="#63b8ff" d="M919.84,-116.86C889.42,-107.23 850.85,-95.64 816,-87 803.12,-83.81 789.39,-80.77 775.95,-78"/>
<polygon fill="#63b8ff" stroke="#63b8ff" points="918.82,-120.21 929.42,-119.91 920.95,-113.54 918.82,-120.21"/>
</a>
</g>
</g>
<!-- Node14 -->
<g id="Node000014" class="node">
<title>Node14</title>
<g id="a_Node000014"><a xlink:href="classcom_1_1teragrep_1_1pth__06_1_1planner_1_1walker_1_1conditions_1_1ValidElementTest.html#aebd4924948cd0e533806857b2ba0ba83" target="_top" xlink:title=" ">
<polygon fill="white" stroke="#666666" points="816,-30 568,-30 568,0 816,0 816,-30"/>
<text text-anchor="start" x="576" y="-18" font-family="Helvetica,sans-Serif" font-size="10.00">com.teragrep.pth_06.planner.walker.conditions.</text>
<text text-anchor="middle" x="692" y="-7" font-family="Helvetica,sans-Serif" font-size="10.00">ValidElementTest.validTest</text>
</a>
</g>
</g>
<!-- Node1&#45;&gt;Node14 -->
<g id="edge16_Node000001_Node000014" class="edge">
<title>Node1&#45;&gt;Node14</title>
<g id="a_edge16_Node000001_Node000014"><a xlink:title=" ">
<path fill="none" stroke="#63b8ff" d="M946.67,-113.65C916.04,-91.62 865.02,-57.9 816,-39 807.07,-35.56 797.57,-32.59 787.97,-30.03"/>
<polygon fill="#63b8ff" stroke="#63b8ff" points="944.97,-116.75 955.12,-119.8 949.09,-111.09 944.97,-116.75"/>
</a>
</g>
</g>
<!-- Node3 -->
<g id="Node000003" class="node">
<title>Node3</title>
<g id="a_Node000003"><a xlink:href="classcom_1_1teragrep_1_1pth__06_1_1planner_1_1walker_1_1conditions_1_1ElementCondition.html#a77e4bd928b9d9dd1e2ef3380f65e3ab7" target="_top" xlink:title=" ">
<polygon fill="white" stroke="#666666" points="532,-225 284,-225 284,-195 532,-195 532,-225"/>
<text text-anchor="start" x="292" y="-213" font-family="Helvetica,sans-Serif" font-size="10.00">com.teragrep.pth_06.planner.walker.conditions.</text>
<text text-anchor="middle" x="408" y="-202" font-family="Helvetica,sans-Serif" font-size="10.00">ElementCondition.condition</text>
</a>
</g>
</g>
<!-- Node2&#45;&gt;Node3 -->
<g id="edge2_Node000002_Node000003" class="edge">
<title>Node2&#45;&gt;Node3</title>
<g id="a_edge2_Node000002_Node000003"><a xlink:title=" ">
<path fill="none" stroke="#63b8ff" d="M557.53,-203.26C549.16,-203.24 540.75,-203.25 532.43,-203.3"/>
<polygon fill="#63b8ff" stroke="#63b8ff" points="557.71,-206.76 567.72,-203.3 557.73,-199.76 557.71,-206.76"/>
</a>
</g>
</g>
<!-- Node3&#45;&gt;Node2 -->
<g id="edge3_Node000003_Node000002" class="edge">
<title>Node3&#45;&gt;Node2</title>
<g id="a_edge3_Node000003_Node000002"><a xlink:title=" ">
<path fill="none" stroke="#63b8ff" d="M542.62,-216.74C550.99,-216.76 559.4,-216.75 567.72,-216.7"/>
<polygon fill="#63b8ff" stroke="#63b8ff" points="542.44,-213.24 532.43,-216.7 542.42,-220.24 542.44,-213.24"/>
</a>
</g>
</g>
<!-- Node3&#45;&gt;Node4 -->
<g id="edge4_Node000003_Node000004" class="edge">
<title>Node3&#45;&gt;Node4</title>
<g id="a_edge4_Node000003_Node000004"><a xlink:title=" ">
<path fill="none" stroke="#63b8ff" d="M273.6,-225.97C240.91,-231.45 207.67,-237.52 180.94,-242.97"/>
<polygon fill="#63b8ff" stroke="#63b8ff" points="274.43,-229.38 283.72,-224.28 273.28,-222.47 274.43,-229.38"/>
</a>
</g>
</g>
<!-- Node5 -->
<g id="Node000005" class="node">
<title>Node5</title>
<g id="a_Node000005"><a xlink:href="classcom_1_1teragrep_1_1pth__06_1_1planner_1_1walker_1_1conditions_1_1ElementConditionTest.html#aa7b824b2c1a077cb408c7e0532131e67" target="_top" xlink:title=" ">
<polygon fill="white" stroke="#666666" points="248,-225 0,-225 0,-195 248,-195 248,-225"/>
<text text-anchor="start" x="8" y="-213" font-family="Helvetica,sans-Serif" font-size="10.00">com.teragrep.pth_06.planner.walker.conditions.</text>
<text text-anchor="middle" x="124" y="-202" font-family="Helvetica,sans-Serif" font-size="10.00">ElementConditionTest.equalsTest</text>
</a>
</g>
</g>
<!-- Node3&#45;&gt;Node5 -->
<g id="edge6_Node000003_Node000005" class="edge">
<title>Node3&#45;&gt;Node5</title>
<g id="a_edge6_Node000003_Node000005"><a xlink:title=" ">
<path fill="none" stroke="#63b8ff" d="M273.53,-210C265.16,-210 256.75,-210 248.43,-210"/>
<polygon fill="#63b8ff" stroke="#63b8ff" points="273.72,-213.5 283.72,-210 273.72,-206.5 273.72,-213.5"/>
</a>
</g>
</g>
<!-- Node6 -->
<g id="Node000006" class="node">
<title>Node6</title>
<g id="a_Node000006"><a xlink:href="classcom_1_1teragrep_1_1pth__06_1_1planner_1_1walker_1_1conditions_1_1ElementConditionTest.html#afc3b6a3b2fe594a7c6df49f7ad3cb88a" target="_top" xlink:title=" ">
<polygon fill="white" stroke="#666666" points="248,-177 0,-177 0,-147 248,-147 248,-177"/>
<text text-anchor="start" x="8" y="-165" font-family="Helvetica,sans-Serif" font-size="10.00">com.teragrep.pth_06.planner.walker.conditions.</text>
<text text-anchor="middle" x="124" y="-154" font-family="Helvetica,sans-Serif" font-size="10.00">ElementConditionTest.testInvalidStreamTags</text>
</a>
</g>
</g>
<!-- Node3&#45;&gt;Node6 -->
<g id="edge7_Node000003_Node000006" class="edge">
<title>Node3&#45;&gt;Node6</title>
<g id="a_edge7_Node000003_Node000006"><a xlink:title=" ">
<path fill="none" stroke="#63b8ff" d="M308.58,-193.25C277.53,-187.96 243.43,-182.16 213.14,-177"/>
<polygon fill="#63b8ff" stroke="#63b8ff" points="308.1,-196.72 318.55,-194.94 309.28,-189.82 308.1,-196.72"/>
</a>
</g>
</g>
<!-- Node7 -->
<g id="Node000007" class="node">
<title>Node7</title>
<g id="a_Node000007"><a xlink:href="classcom_1_1teragrep_1_1pth__06_1_1planner_1_1walker_1_1conditions_1_1ElementConditionTest.html#a8128d1d936c645c93ebfc6f5fe4cdbe6" target="_top" xlink:title=" ">
<polygon fill="white" stroke="#666666" points="248,-129 0,-129 0,-99 248,-99 248,-129"/>
<text text-anchor="start" x="8" y="-117" font-family="Helvetica,sans-Serif" font-size="10.00">com.teragrep.pth_06.planner.walker.conditions.</text>
<text text-anchor="middle" x="124" y="-106" font-family="Helvetica,sans-Serif" font-size="10.00">ElementConditionTest.testStreamTags</text>
</a>
</g>
</g>
<!-- Node3&#45;&gt;Node7 -->
<g id="edge8_Node000003_Node000007" class="edge">
<title>Node3&#45;&gt;Node7</title>
<g id="a_edge8_Node000003_Node000007"><a xlink:title=" ">
<path fill="none" stroke="#63b8ff" d="M292.15,-190.63C289.36,-189.19 286.63,-187.65 284,-186 261.41,-171.84 270.59,-152.16 248,-138 242.56,-134.59 236.74,-131.65 230.71,-129.11"/>
<polygon fill="#63b8ff" stroke="#63b8ff" points="290.75,-193.84 301.29,-194.89 293.71,-187.5 290.75,-193.84"/>
</a>
</g>
</g>
<!-- Node8 -->
<g id="Node000008" class="node">
<title>Node8</title>
<g id="a_Node000008"><a xlink:href="classcom_1_1teragrep_1_1pth__06_1_1planner_1_1walker_1_1conditions_1_1ElementConditionTest.html#aed3578cbc9f7e4f77695db0f1f45b40a" target="_top" xlink:title=" ">
<polygon fill="white" stroke="#666666" points="248,-81 0,-81 0,-51 248,-51 248,-81"/>
<text text-anchor="start" x="8" y="-69" font-family="Helvetica,sans-Serif" font-size="10.00">com.teragrep.pth_06.planner.walker.conditions.</text>
<text text-anchor="middle" x="124" y="-58" font-family="Helvetica,sans-Serif" font-size="10.00">ElementConditionTest.testTimeQualifiers</text>
</a>
</g>
</g>
<!-- Node3&#45;&gt;Node8 -->
<g id="edge9_Node000003_Node000008" class="edge">
<title>Node3&#45;&gt;Node8</title>
<g id="a_edge9_Node000003_Node000008"><a xlink:title=" ">
<path fill="none" stroke="#63b8ff" d="M288.22,-189.33C286.78,-188.27 285.37,-187.16 284,-186 249.22,-156.56 282.78,-119.44 248,-90 244.01,-86.63 239.69,-83.67 235.14,-81.1"/>
<polygon fill="#63b8ff" stroke="#63b8ff" points="286.56,-192.42 296.86,-194.9 290.36,-186.54 286.56,-192.42"/>
</a>
</g>
</g>
<!-- Node4&#45;&gt;Node3 -->
<g id="edge5_Node000004_Node000003" class="edge">
<title>Node4&#45;&gt;Node3</title>
<g id="a_edge5_Node000004_Node000003"><a xlink:title=" ">
<path fill="none" stroke="#63b8ff" d="M258.39,-242.04C291.04,-236.55 324.24,-230.49 350.95,-225.06"/>
<polygon fill="#63b8ff" stroke="#63b8ff" points="257.57,-238.62 248.28,-243.72 258.72,-245.53 257.57,-238.62"/>
</a>
</g>
</g>
<!-- Node10 -->
<g id="Node000010" class="node">
<title>Node10</title>
<g id="a_Node000010"><a xlink:href="classcom_1_1teragrep_1_1pth__06_1_1planner_1_1walker_1_1conditions_1_1ElementConditionTest.html#ac00569686f11d16cb1b703c1823cb467" target="_top" xlink:title=" ">
<polygon fill="white" stroke="#666666" points="532,-176.5 284,-176.5 284,-135.5 532,-135.5 532,-176.5"/>
<text text-anchor="start" x="292" y="-164.5" font-family="Helvetica,sans-Serif" font-size="10.00">com.teragrep.pth_06.planner.walker.conditions.</text>
<text text-anchor="start" x="292" y="-153.5" font-family="Helvetica,sans-Serif" font-size="10.00">ElementConditionTest.testIndexStatementWith</text>
<text text-anchor="middle" x="408" y="-142.5" font-family="Helvetica,sans-Serif" font-size="10.00">BadConnection</text>
</a>
</g>
</g>
<!-- Node9&#45;&gt;Node10 -->
<g id="edge12_Node000009_Node000010" class="edge">
<title>Node9&#45;&gt;Node10</title>
<g id="a_edge12_Node000009_Node000010"><a xlink:title=" ">
<path fill="none" stroke="#63b8ff" d="M557.53,-157.58C549.16,-157.49 540.75,-157.4 532.43,-157.31"/>
<polygon fill="#63b8ff" stroke="#63b8ff" points="557.68,-161.08 567.72,-157.69 557.76,-154.08 557.68,-161.08"/>
</a>
</g>
</g>
<!-- Node11 -->
<g id="Node000011" class="node">
<title>Node11</title>
<g id="a_Node000011"><a xlink:href="classcom_1_1teragrep_1_1pth__06_1_1planner_1_1walker_1_1conditions_1_1ElementConditionTest.html#a6a7f290b7a91e0b6218d4e4f01887ac2" target="_top" xlink:title=" ">
<polygon fill="white" stroke="#666666" points="532,-117 284,-117 284,-87 532,-87 532,-117"/>
<text text-anchor="start" x="292" y="-105" font-family="Helvetica,sans-Serif" font-size="10.00">com.teragrep.pth_06.planner.walker.conditions.</text>
<text text-anchor="middle" x="408" y="-94" font-family="Helvetica,sans-Serif" font-size="10.00">ElementConditionTest.testIsIndexStatement</text>
</a>
</g>
</g>
<!-- Node9&#45;&gt;Node11 -->
<g id="edge13_Node000009_Node000011" class="edge">
<title>Node9&#45;&gt;Node11</title>
<g id="a_edge13_Node000009_Node000011"><a xlink:title=" ">
<path fill="none" stroke="#63b8ff" d="M600.72,-141.94C589.68,-139.69 578.57,-137.35 568,-135 551.9,-131.42 548.1,-129.58 532,-126 518.2,-122.93 503.47,-119.87 489.18,-117.02"/>
<polygon fill="#63b8ff" stroke="#63b8ff" points="600.32,-145.44 610.82,-143.98 601.71,-138.57 600.32,-145.44"/>
</a>
</g>
</g>
</g>
</svg>
