<?xml version="1.0" encoding="UTF-8" standalone="no"?>
<!DOCTYPE svg PUBLIC "-//W3C//DTD SVG 1.1//EN"
 "http://www.w3.org/Graphics/SVG/1.1/DTD/svg11.dtd">
<!-- Generated by graphviz version 2.43.0 (0)
 -->
<!-- Title: com.teragrep.pth_06.planner.StreamDBClient.StreamDBClient Pages: 1 -->
<svg width="414pt" height="98pt"
 viewBox="0.00 0.00 414.00 97.50" xmlns="http://www.w3.org/2000/svg" xmlns:xlink="http://www.w3.org/1999/xlink">
<g id="graph0" class="graph" transform="scale(1 1) rotate(0) translate(4 93.5)">
<title>com.teragrep.pth_06.planner.StreamDBClient.StreamDBClient</title>
<!-- Node1 -->
<g id="Node000001" class="node">
<title>Node1</title>
<g id="a_Node000001"><a xlink:title=" ">
<polygon fill="#999999" stroke="#666666" points="176,-62.5 0,-62.5 0,-32.5 176,-32.5 176,-62.5"/>
<text text-anchor="start" x="8" y="-50.5" font-family="Helvetica,sans-Serif" font-size="10.00">com.teragrep.pth_06.planner.</text>
<text text-anchor="middle" x="88" y="-39.5" font-family="Helvetica,sans-Serif" font-size="10.00">StreamDBClient.StreamDBClient</text>
</a>
</g>
</g>
<!-- Node2 -->
<g id="Node000002" class="node">
<title>Node2</title>
<g id="a_Node000002"><a xlink:href="classcom_1_1teragrep_1_1pth__06_1_1planner_1_1StreamDBClient_1_1SliceTable.html#a9301035600ec05971363849f8c76bf88" target="_top" xlink:title=" ">
<polygon fill="white" stroke="#666666" points="399,-89.5 219,-89.5 219,-59.5 399,-59.5 399,-89.5"/>
<text text-anchor="start" x="227" y="-77.5" font-family="Helvetica,sans-Serif" font-size="10.00">com.teragrep.pth_06.planner.</text>
<text text-anchor="middle" x="309" y="-66.5" font-family="Helvetica,sans-Serif" font-size="10.00">StreamDBClient.SliceTable.create</text>
</a>
</g>
</g>
<!-- Node1&#45;&gt;Node2 -->
<g id="edge1_Node000001_Node000002" class="edge">
<title>Node1&#45;&gt;Node2</title>
<g id="a_edge1_Node000001_Node000002"><a xlink:title=" ">
<path fill="none" stroke="#63b8ff" d="M176.18,-58.25C186.96,-59.58 198.04,-60.94 208.97,-62.29"/>
<polygon fill="#63b8ff" stroke="#63b8ff" points="208.61,-65.77 218.97,-63.52 209.47,-58.83 208.61,-65.77"/>
</a>
</g>
</g>
<!-- Node3 -->
<g id="Node000003" class="node">
<title>Node3</title>
<g id="a_Node000003"><a xlink:href="classcom_1_1teragrep_1_1pth__06_1_1planner_1_1StreamDBClient_1_1GetArchivedObjectsFilterTable.html#aa1ea1f27011d36559846a764ff484ee5" target="_top" xlink:title=" ">
<polygon fill="white" stroke="#666666" points="406,-41 212,-41 212,0 406,0 406,-41"/>
<text text-anchor="start" x="220" y="-29" font-family="Helvetica,sans-Serif" font-size="10.00">com.teragrep.pth_06.planner.</text>
<text text-anchor="start" x="220" y="-18" font-family="Helvetica,sans-Serif" font-size="10.00">StreamDBClient.GetArchivedObjects</text>
<text text-anchor="middle" x="309" y="-7" font-family="Helvetica,sans-Serif" font-size="10.00">FilterTable.create</text>
</a>
</g>
</g>
<!-- Node1&#45;&gt;Node3 -->
<g id="edge2_Node000001_Node000003" class="edge">
<title>Node1&#45;&gt;Node3</title>
<g id="a_edge2_Node000001_Node000003"><a xlink:title=" ">
<path fill="none" stroke="#63b8ff" d="M176.18,-36.75C184.59,-35.72 193.17,-34.66 201.73,-33.6"/>
<polygon fill="#63b8ff" stroke="#63b8ff" points="202.26,-37.06 211.75,-32.37 201.4,-30.12 202.26,-37.06"/>
</a>
</g>
</g>
</g>
</svg>
