<?xml version="1.0" encoding="UTF-8" standalone="no"?>
<!DOCTYPE svg PUBLIC "-//W3C//DTD SVG 1.1//EN"
 "http://www.w3.org/Graphics/SVG/1.1/DTD/svg11.dtd">
<!-- Generated by graphviz version 2.43.0 (0)
 -->
<!-- Title: com.teragrep.pth_06.planner.ArchiveQueryProcessor Pages: 1 -->
<svg width="959pt" height="192pt"
 viewBox="0.00 0.00 959.00 192.12" xmlns="http://www.w3.org/2000/svg" xmlns:xlink="http://www.w3.org/1999/xlink">
<g id="graph0" class="graph" transform="scale(1 1) rotate(0) translate(4 188.12)">
<title>com.teragrep.pth_06.planner.ArchiveQueryProcessor</title>
<!-- Node1 -->
<g id="Node000001" class="node">
<title>Node1</title>
<g id="a_Node000001"><a xlink:title=" ">
<polygon fill="#999999" stroke="#666666" points="951,-140.62 791,-140.62 791,-110.62 951,-110.62 951,-140.62"/>
<text text-anchor="start" x="799" y="-128.62" font-family="Helvetica,sans-Serif" font-size="10.00">com.teragrep.pth_06.planner.</text>
<text text-anchor="middle" x="871" y="-117.62" font-family="Helvetica,sans-Serif" font-size="10.00">ArchiveQueryProcessor</text>
</a>
</g>
</g>
<!-- Node2 -->
<g id="Node000002" class="node">
<title>Node2</title>
<g id="a_Node000002"><a xlink:href="interfacecom_1_1teragrep_1_1pth__06_1_1planner_1_1ArchiveQuery.html" target="_top" xlink:title=" ">
<polygon fill="white" stroke="#666666" points="665,-153.62 505,-153.62 505,-123.62 665,-123.62 665,-153.62"/>
<text text-anchor="start" x="513" y="-141.62" font-family="Helvetica,sans-Serif" font-size="10.00">com.teragrep.pth_06.planner.</text>
<text text-anchor="middle" x="585" y="-130.62" font-family="Helvetica,sans-Serif" font-size="10.00">ArchiveQuery</text>
</a>
</g>
</g>
<!-- Node2&#45;&gt;Node1 -->
<g id="edge1_Node000001_Node000002" class="edge">
<title>Node2&#45;&gt;Node1</title>
<g id="a_edge1_Node000001_Node000002"><a xlink:title=" ">
<path fill="none" stroke="#63b8ff" d="M675.39,-134.53C712.4,-132.83 754.96,-130.88 790.82,-129.24"/>
<polygon fill="#63b8ff" stroke="#63b8ff" points="674.94,-131.04 665.11,-135 675.26,-138.04 674.94,-131.04"/>
</a>
</g>
</g>
<!-- Node3 -->
<g id="Node000003" class="node">
<title>Node3</title>
<g id="a_Node000003"><a xlink:href="classcom_1_1teragrep_1_1pth__06_1_1planner_1_1StreamDBClient.html" target="_top" xlink:title=" ">
<polygon fill="white" stroke="#666666" points="665,-99.62 505,-99.62 505,-69.62 665,-69.62 665,-99.62"/>
<text text-anchor="start" x="513" y="-87.62" font-family="Helvetica,sans-Serif" font-size="10.00">com.teragrep.pth_06.planner.</text>
<text text-anchor="middle" x="585" y="-76.62" font-family="Helvetica,sans-Serif" font-size="10.00">StreamDBClient</text>
</a>
</g>
</g>
<!-- Node3&#45;&gt;Node1 -->
<g id="edge2_Node000001_Node000003" class="edge">
<title>Node3&#45;&gt;Node1</title>
<g id="a_edge2_Node000001_Node000003"><a xlink:title=" ">
<path fill="none" stroke="#9a32cd" stroke-dasharray="5,2" d="M675.39,-97.52C712.4,-102.87 754.96,-109.01 790.82,-114.19"/>
<polygon fill="#9a32cd" stroke="#9a32cd" points="675.51,-94 665.11,-96.04 674.51,-100.93 675.51,-94"/>
</a>
</g>
<text text-anchor="middle" x="728" y="-113.62" font-family="Helvetica,sans-Serif" font-size="10.00" fill="grey"> sdc</text>
</g>
<!-- Node7 -->
<g id="Node000007" class="node">
<title>Node7</title>
<g id="a_Node000007"><a xlink:href="classcom_1_1teragrep_1_1pth__06_1_1planner_1_1NestedTopNQuery.html" target="_top" xlink:title=" ">
<polygon fill="white" stroke="#666666" points="951,-59.62 791,-59.62 791,-29.62 951,-29.62 951,-59.62"/>
<text text-anchor="start" x="799" y="-47.62" font-family="Helvetica,sans-Serif" font-size="10.00">com.teragrep.pth_06.planner.</text>
<text text-anchor="middle" x="871" y="-36.62" font-family="Helvetica,sans-Serif" font-size="10.00">NestedTopNQuery</text>
</a>
</g>
</g>
<!-- Node3&#45;&gt;Node7 -->
<g id="edge9_Node000007_Node000003" class="edge">
<title>Node3&#45;&gt;Node7</title>
<g id="a_edge9_Node000007_Node000003"><a xlink:title=" ">
<path fill="none" stroke="#9a32cd" stroke-dasharray="5,2" d="M623.67,-65.06C641.2,-57.01 662.65,-48.65 683,-44.62 717.87,-37.71 757.12,-36.71 790.63,-37.83"/>
<polygon fill="#9a32cd" stroke="#9a32cd" points="621.9,-62.02 614.36,-69.46 624.89,-68.35 621.9,-62.02"/>
</a>
</g>
<text text-anchor="middle" x="728" y="-47.62" font-family="Helvetica,sans-Serif" font-size="10.00" fill="grey"> streamDBClient</text>
</g>
<!-- Node4 -->
<g id="Node000004" class="node">
<title>Node4</title>
<g id="a_Node000004"><a xlink:title=" ">
<polygon fill="white" stroke="#666666" points="378.5,-184.12 291.5,-184.12 291.5,-165.12 378.5,-165.12 378.5,-184.12"/>
<text text-anchor="middle" x="335" y="-172.12" font-family="Helvetica,sans-Serif" font-size="10.00">AutoCloseable</text>
</a>
</g>
</g>
<!-- Node4&#45;&gt;Node3 -->
<g id="edge3_Node000003_Node000004" class="edge">
<title>Node4&#45;&gt;Node3</title>
<g id="a_edge3_Node000003_Node000004"><a xlink:title=" ">
<path fill="none" stroke="#63b8ff" d="M388.93,-177.22C420.16,-176.16 458.93,-170.08 487,-149.62 501.13,-139.31 491.96,-126.28 505,-114.62 511.78,-108.56 519.91,-103.67 528.34,-99.75"/>
<polygon fill="#63b8ff" stroke="#63b8ff" points="388.59,-173.72 378.65,-177.4 388.71,-180.72 388.59,-173.72"/>
</a>
</g>
</g>
<!-- Node5 -->
<g id="Node000005" class="node">
<title>Node5</title>
<g id="a_Node000005"><a xlink:href="classcom_1_1teragrep_1_1pth__06_1_1ConfiguredLogger.html" target="_top" xlink:title=" ">
<polygon fill="white" stroke="#666666" points="173,-78.62 0,-78.62 0,-48.62 173,-48.62 173,-78.62"/>
<text text-anchor="start" x="8" y="-66.62" font-family="Helvetica,sans-Serif" font-size="10.00">com.teragrep.pth_06.Configured</text>
<text text-anchor="middle" x="86.5" y="-55.62" font-family="Helvetica,sans-Serif" font-size="10.00">Logger</text>
</a>
</g>
</g>
<!-- Node5&#45;&gt;Node3 -->
<g id="edge4_Node000003_Node000005" class="edge">
<title>Node5&#45;&gt;Node3</title>
<g id="a_edge4_Node000003_Node000005"><a xlink:title=" ">
<path fill="none" stroke="#9a32cd" stroke-dasharray="5,2" d="M140.06,-81.75C172.23,-91.88 214.48,-103.48 253,-108.62 338.66,-120.06 437.58,-109.85 504.81,-99.44"/>
<polygon fill="#9a32cd" stroke="#9a32cd" points="141,-78.38 130.41,-78.66 138.87,-85.05 141,-78.38"/>
</a>
</g>
<text text-anchor="middle" x="335" y="-116.62" font-family="Helvetica,sans-Serif" font-size="10.00" fill="grey"> LOGGER</text>
</g>
<!-- Node6 -->
<g id="Node000006" class="node">
<title>Node6</title>
<g id="a_Node000006"><a xlink:href="classcom_1_1teragrep_1_1pth__06_1_1planner_1_1GetArchivedObjectsFilterTable.html" target="_top" xlink:title=" ">
<polygon fill="white" stroke="#666666" points="417,-99.62 253,-99.62 253,-69.62 417,-69.62 417,-99.62"/>
<text text-anchor="start" x="261" y="-87.62" font-family="Helvetica,sans-Serif" font-size="10.00">com.teragrep.pth_06.planner.</text>
<text text-anchor="middle" x="335" y="-76.62" font-family="Helvetica,sans-Serif" font-size="10.00">GetArchivedObjectsFilterTable</text>
</a>
</g>
</g>
<!-- Node5&#45;&gt;Node6 -->
<g id="edge6_Node000006_Node000005" class="edge">
<title>Node5&#45;&gt;Node6</title>
<g id="a_edge6_Node000006_Node000005"><a xlink:title=" ">
<path fill="none" stroke="#9a32cd" stroke-dasharray="5,2" d="M183.14,-71.77C206.14,-73.73 230.5,-75.8 252.78,-77.7"/>
<polygon fill="#9a32cd" stroke="#9a32cd" points="183.28,-68.27 173.02,-70.9 182.69,-75.24 183.28,-68.27"/>
</a>
</g>
<text text-anchor="middle" x="213" y="-79.62" font-family="Helvetica,sans-Serif" font-size="10.00" fill="grey"> logger</text>
</g>
<!-- Node5&#45;&gt;Node7 -->
<g id="edge8_Node000007_Node000005" class="edge">
<title>Node5&#45;&gt;Node7</title>
<g id="a_edge8_Node000007_Node000005"><a xlink:title=" ">
<path fill="none" stroke="#9a32cd" stroke-dasharray="5,2" d="M134.6,-44.97C167.25,-33.08 212.05,-18.79 253,-12.62 444.45,16.21 672.66,-11.52 790.61,-30.39"/>
<polygon fill="#9a32cd" stroke="#9a32cd" points="133.04,-41.82 124.87,-48.58 135.47,-48.38 133.04,-41.82"/>
</a>
</g>
<text text-anchor="middle" x="461" y="-4.62" font-family="Helvetica,sans-Serif" font-size="10.00" fill="grey"> logger</text>
</g>
<!-- Node8 -->
<g id="Node000008" class="node">
<title>Node8</title>
<g id="a_Node000008"><a xlink:href="classcom_1_1teragrep_1_1pth__06_1_1planner_1_1SliceTable.html" target="_top" xlink:title=" ">
<polygon fill="white" stroke="#666666" points="415,-51.62 255,-51.62 255,-21.62 415,-21.62 415,-51.62"/>
<text text-anchor="start" x="263" y="-39.62" font-family="Helvetica,sans-Serif" font-size="10.00">com.teragrep.pth_06.planner.</text>
<text text-anchor="middle" x="335" y="-28.62" font-family="Helvetica,sans-Serif" font-size="10.00">SliceTable</text>
</a>
</g>
</g>
<!-- Node5&#45;&gt;Node8 -->
<g id="edge11_Node000008_Node000005" class="edge">
<title>Node5&#45;&gt;Node8</title>
<g id="a_edge11_Node000008_Node000005"><a xlink:title=" ">
<path fill="none" stroke="#9a32cd" stroke-dasharray="5,2" d="M183.09,-53.15C206.82,-50.55 231.99,-47.79 254.83,-45.29"/>
<polygon fill="#9a32cd" stroke="#9a32cd" points="182.58,-49.68 173.02,-54.25 183.34,-56.64 182.58,-49.68"/>
</a>
</g>
<text text-anchor="middle" x="213" y="-55.62" font-family="Helvetica,sans-Serif" font-size="10.00" fill="grey"> LOGGER</text>
</g>
<!-- Node6&#45;&gt;Node3 -->
<g id="edge5_Node000003_Node000006" class="edge">
<title>Node6&#45;&gt;Node3</title>
<g id="a_edge5_Node000003_Node000006"><a xlink:title=" ">
<path fill="none" stroke="#9a32cd" stroke-dasharray="5,2" d="M427.21,-84.62C452.64,-84.62 480.05,-84.62 504.73,-84.62"/>
<polygon fill="#9a32cd" stroke="#9a32cd" points="427.2,-81.12 417.2,-84.62 427.2,-88.12 427.2,-81.12"/>
</a>
</g>
<text text-anchor="middle" x="461" y="-87.62" font-family="Helvetica,sans-Serif" font-size="10.00" fill="grey"> filterTable</text>
</g>
<!-- Node7&#45;&gt;Node3 -->
<g id="edge7_Node000003_Node000007" class="edge">
<title>Node7&#45;&gt;Node3</title>
<g id="a_edge7_Node000003_Node000007"><a xlink:title=" ">
<path fill="none" stroke="#9a32cd" stroke-dasharray="5,2" d="M780.54,-57.22C743.52,-62.43 700.97,-68.43 665.11,-73.48"/>
<polygon fill="#9a32cd" stroke="#9a32cd" points="781.41,-60.63 790.82,-55.77 780.43,-53.7 781.41,-60.63"/>
</a>
</g>
<text text-anchor="middle" x="728" y="-73.62" font-family="Helvetica,sans-Serif" font-size="10.00" fill="grey"> nestedTopNQuery</text>
</g>
<!-- Node8&#45;&gt;Node3 -->
<g id="edge10_Node000003_Node000008" class="edge">
<title>Node8&#45;&gt;Node3</title>
<g id="a_edge10_Node000003_Node000008"><a xlink:title=" ">
<path fill="none" stroke="#9a32cd" stroke-dasharray="5,2" d="M423.62,-53.58C450.64,-58.81 480.2,-64.53 506.49,-69.62"/>
<polygon fill="#9a32cd" stroke="#9a32cd" points="424.27,-50.14 413.79,-51.67 422.94,-57.01 424.27,-50.14"/>
</a>
</g>
<text text-anchor="middle" x="461" y="-68.62" font-family="Helvetica,sans-Serif" font-size="10.00" fill="grey"> sliceTable</text>
</g>
</g>
</svg>
