<?xml version="1.0" encoding="UTF-8" standalone="no"?>
<!DOCTYPE svg PUBLIC "-//W3C//DTD SVG 1.1//EN"
 "http://www.w3.org/Graphics/SVG/1.1/DTD/svg11.dtd">
<!-- Generated by graphviz version 2.43.0 (0)
 -->
<!-- Title: com.teragrep.pth_06.planner.StreamDBClient Pages: 1 -->
<svg width="1245pt" height="304pt"
 viewBox="0.00 0.00 1245.00 304.22" xmlns="http://www.w3.org/2000/svg" xmlns:xlink="http://www.w3.org/1999/xlink">
<g id="graph0" class="graph" transform="scale(1 1) rotate(0) translate(4 300.22)">
<title>com.teragrep.pth_06.planner.StreamDBClient</title>
<!-- Node1 -->
<g id="Node000001" class="node">
<title>Node1</title>
<g id="a_Node000001"><a xlink:title=" ">
<polygon fill="#999999" stroke="#666666" points="1237,-204.22 1077,-204.22 1077,-174.22 1237,-174.22 1237,-204.22"/>
<text text-anchor="start" x="1085" y="-192.22" font-family="Helvetica,sans-Serif" font-size="10.00">com.teragrep.pth_06.planner.</text>
<text text-anchor="middle" x="1157" y="-181.22" font-family="Helvetica,sans-Serif" font-size="10.00">StreamDBClient</text>
</a>
</g>
</g>
<!-- Node2 -->
<g id="Node000002" class="node">
<title>Node2</title>
<g id="a_Node000002"><a xlink:title=" ">
<polygon fill="white" stroke="#666666" points="378.5,-237.72 291.5,-237.72 291.5,-218.72 378.5,-218.72 378.5,-237.72"/>
<text text-anchor="middle" x="335" y="-225.72" font-family="Helvetica,sans-Serif" font-size="10.00">AutoCloseable</text>
</a>
</g>
</g>
<!-- Node2&#45;&gt;Node1 -->
<g id="edge1_Node000001_Node000002" class="edge">
<title>Node2&#45;&gt;Node1</title>
<g id="a_edge1_Node000001_Node000002"><a xlink:title=" ">
<path fill="none" stroke="#63b8ff" d="M389.19,-227.51C508.95,-225.62 808.84,-219.22 1059,-200.22 1064.83,-199.78 1070.85,-199.25 1076.9,-198.68"/>
<polygon fill="#63b8ff" stroke="#63b8ff" points="388.79,-224.02 378.85,-227.67 388.9,-231.01 388.79,-224.02"/>
</a>
</g>
</g>
<!-- Node6 -->
<g id="Node000006" class="node">
<title>Node6</title>
<g id="a_Node000006"><a xlink:href="classcom_1_1teragrep_1_1pth__06_1_1planner_1_1StreamDBClient.html" target="_top" xlink:title=" ">
<polygon fill="white" stroke="#666666" points="665,-153.22 505,-153.22 505,-123.22 665,-123.22 665,-153.22"/>
<text text-anchor="start" x="513" y="-141.22" font-family="Helvetica,sans-Serif" font-size="10.00">com.teragrep.pth_06.planner.</text>
<text text-anchor="middle" x="585" y="-130.22" font-family="Helvetica,sans-Serif" font-size="10.00">StreamDBClient</text>
</a>
</g>
</g>
<!-- Node2&#45;&gt;Node6 -->
<g id="edge8_Node000006_Node000002" class="edge">
<title>Node2&#45;&gt;Node6</title>
<g id="a_edge8_Node000006_Node000002"><a xlink:title=" ">
<path fill="none" stroke="#63b8ff" d="M372.85,-215.18C403.45,-204.32 448.1,-188.39 487,-174.22 505.56,-167.45 526.08,-159.86 543.45,-153.39"/>
<polygon fill="#63b8ff" stroke="#63b8ff" points="371.29,-212.02 363.04,-218.66 373.63,-218.62 371.29,-212.02"/>
</a>
</g>
</g>
<!-- Node3 -->
<g id="Node000003" class="node">
<title>Node3</title>
<g id="a_Node000003"><a xlink:href="classcom_1_1teragrep_1_1pth__06_1_1ConfiguredLogger.html" target="_top" xlink:title=" ">
<polygon fill="white" stroke="#666666" points="173,-145.22 0,-145.22 0,-115.22 173,-115.22 173,-145.22"/>
<text text-anchor="start" x="8" y="-133.22" font-family="Helvetica,sans-Serif" font-size="10.00">com.teragrep.pth_06.Configured</text>
<text text-anchor="middle" x="86.5" y="-122.22" font-family="Helvetica,sans-Serif" font-size="10.00">Logger</text>
</a>
</g>
</g>
<!-- Node3&#45;&gt;Node1 -->
<g id="edge2_Node000001_Node000003" class="edge">
<title>Node3&#45;&gt;Node1</title>
<g id="a_edge2_Node000001_Node000003"><a xlink:title=" ">
<path fill="none" stroke="#9a32cd" stroke-dasharray="5,2" d="M106.62,-153.09C144.94,-196.21 235.93,-285.22 334,-285.22 334,-285.22 334,-285.22 872,-285.22 971.93,-285.22 1081.71,-231.22 1130.36,-204.22"/>
<polygon fill="#9a32cd" stroke="#9a32cd" points="109.09,-150.6 99.88,-145.36 103.81,-155.2 109.09,-150.6"/>
</a>
</g>
<text text-anchor="middle" x="585" y="-288.22" font-family="Helvetica,sans-Serif" font-size="10.00" fill="grey"> LOGGER</text>
</g>
<!-- Node4 -->
<g id="Node000004" class="node">
<title>Node4</title>
<g id="a_Node000004"><a xlink:href="classcom_1_1teragrep_1_1pth__06_1_1planner_1_1GetArchivedObjectsFilterTable.html" target="_top" xlink:title=" ">
<polygon fill="white" stroke="#666666" points="417,-189.22 253,-189.22 253,-159.22 417,-159.22 417,-189.22"/>
<text text-anchor="start" x="261" y="-177.22" font-family="Helvetica,sans-Serif" font-size="10.00">com.teragrep.pth_06.planner.</text>
<text text-anchor="middle" x="335" y="-166.22" font-family="Helvetica,sans-Serif" font-size="10.00">GetArchivedObjectsFilterTable</text>
</a>
</g>
</g>
<!-- Node3&#45;&gt;Node4 -->
<g id="edge4_Node000004_Node000003" class="edge">
<title>Node3&#45;&gt;Node4</title>
<g id="a_edge4_Node000004_Node000003"><a xlink:title=" ">
<path fill="none" stroke="#9a32cd" stroke-dasharray="5,2" d="M181.59,-147.01C205.03,-151.2 229.97,-155.65 252.74,-159.71"/>
<polygon fill="#9a32cd" stroke="#9a32cd" points="182.1,-143.55 171.64,-145.24 180.87,-150.44 182.1,-143.55"/>
</a>
</g>
<text text-anchor="middle" x="213" y="-158.22" font-family="Helvetica,sans-Serif" font-size="10.00" fill="grey"> logger</text>
</g>
<!-- Node5 -->
<g id="Node000005" class="node">
<title>Node5</title>
<g id="a_Node000005"><a xlink:href="classcom_1_1teragrep_1_1pth__06_1_1planner_1_1NestedTopNQuery.html" target="_top" xlink:title=" ">
<polygon fill="white" stroke="#666666" points="951,-147.22 791,-147.22 791,-117.22 951,-117.22 951,-147.22"/>
<text text-anchor="start" x="799" y="-135.22" font-family="Helvetica,sans-Serif" font-size="10.00">com.teragrep.pth_06.planner.</text>
<text text-anchor="middle" x="871" y="-124.22" font-family="Helvetica,sans-Serif" font-size="10.00">NestedTopNQuery</text>
</a>
</g>
</g>
<!-- Node3&#45;&gt;Node5 -->
<g id="edge6_Node000005_Node000003" class="edge">
<title>Node3&#45;&gt;Node5</title>
<g id="a_edge6_Node000005_Node000003"><a xlink:title=" ">
<path fill="none" stroke="#9a32cd" stroke-dasharray="5,2" d="M121.86,-110C154.41,-92 205.28,-66.77 253,-55.22 477.64,-0.85 556.62,32.01 773,-49.22 809.52,-62.93 841.67,-97.02 858.2,-116.99"/>
<polygon fill="#9a32cd" stroke="#9a32cd" points="119.79,-107.15 112.78,-115.1 123.21,-113.26 119.79,-107.15"/>
</a>
</g>
<text text-anchor="middle" x="461" y="-15.22" font-family="Helvetica,sans-Serif" font-size="10.00" fill="grey"> logger</text>
</g>
<!-- Node3&#45;&gt;Node6 -->
<g id="edge9_Node000006_Node000003" class="edge">
<title>Node3&#45;&gt;Node6</title>
<g id="a_edge9_Node000006_Node000003"><a xlink:title=" ">
<path fill="none" stroke="#9a32cd" stroke-dasharray="5,2" d="M183.16,-131.76C276.66,-133.27 417.35,-135.53 504.77,-136.94"/>
<polygon fill="#9a32cd" stroke="#9a32cd" points="183.19,-128.26 173.13,-131.6 183.08,-135.26 183.19,-128.26"/>
</a>
</g>
<text text-anchor="middle" x="335" y="-138.22" font-family="Helvetica,sans-Serif" font-size="10.00" fill="grey"> LOGGER</text>
</g>
<!-- Node7 -->
<g id="Node000007" class="node">
<title>Node7</title>
<g id="a_Node000007"><a xlink:href="classcom_1_1teragrep_1_1pth__06_1_1planner_1_1SliceTable.html" target="_top" xlink:title=" ">
<polygon fill="white" stroke="#666666" points="415,-94.22 255,-94.22 255,-64.22 415,-64.22 415,-94.22"/>
<text text-anchor="start" x="263" y="-82.22" font-family="Helvetica,sans-Serif" font-size="10.00">com.teragrep.pth_06.planner.</text>
<text text-anchor="middle" x="335" y="-71.22" font-family="Helvetica,sans-Serif" font-size="10.00">SliceTable</text>
</a>
</g>
</g>
<!-- Node3&#45;&gt;Node7 -->
<g id="edge13_Node000007_Node000003" class="edge">
<title>Node3&#45;&gt;Node7</title>
<g id="a_edge13_Node000007_Node000003"><a xlink:title=" ">
<path fill="none" stroke="#9a32cd" stroke-dasharray="5,2" d="M157.13,-112.83C168.43,-110.17 180.02,-107.54 191,-105.22 211.61,-100.86 233.99,-96.58 254.79,-92.79"/>
<polygon fill="#9a32cd" stroke="#9a32cd" points="156.22,-109.44 147.3,-115.16 157.84,-116.25 156.22,-109.44"/>
</a>
</g>
<text text-anchor="middle" x="213" y="-108.22" font-family="Helvetica,sans-Serif" font-size="10.00" fill="grey"> LOGGER</text>
</g>
<!-- Node4&#45;&gt;Node1 -->
<g id="edge3_Node000001_Node000004" class="edge">
<title>Node4&#45;&gt;Node1</title>
<g id="a_edge3_Node000001_Node000004"><a xlink:title=" ">
<path fill="none" stroke="#9a32cd" stroke-dasharray="5,2" d="M427.67,-175.9C589.7,-178.86 923.99,-184.98 1076.73,-187.77"/>
<polygon fill="#9a32cd" stroke="#9a32cd" points="427.31,-172.39 417.25,-175.71 427.18,-179.39 427.31,-172.39"/>
</a>
</g>
<text text-anchor="middle" x="728" y="-184.22" font-family="Helvetica,sans-Serif" font-size="10.00" fill="grey"> filterTable</text>
</g>
<!-- Node4&#45;&gt;Node6 -->
<g id="edge10_Node000006_Node000004" class="edge">
<title>Node4&#45;&gt;Node6</title>
<g id="a_edge10_Node000006_Node000004"><a xlink:title=" ">
<path fill="none" stroke="#9a32cd" stroke-dasharray="5,2" d="M427.21,-160.98C452.64,-157.29 480.05,-153.31 504.73,-149.73"/>
<polygon fill="#9a32cd" stroke="#9a32cd" points="426.6,-157.53 417.2,-162.43 427.6,-164.46 426.6,-157.53"/>
</a>
</g>
<text text-anchor="middle" x="461" y="-162.22" font-family="Helvetica,sans-Serif" font-size="10.00" fill="grey"> filterTable</text>
</g>
<!-- Node5&#45;&gt;Node1 -->
<g id="edge5_Node000001_Node000005" class="edge">
<title>Node5&#45;&gt;Node1</title>
<g id="a_edge5_Node000001_Node000005"><a xlink:title=" ">
<path fill="none" stroke="#9a32cd" stroke-dasharray="5,2" d="M961.36,-145.96C992.38,-151.14 1027.32,-157.44 1059,-164.22 1072.69,-167.15 1087.36,-170.71 1101.04,-174.21"/>
<polygon fill="#9a32cd" stroke="#9a32cd" points="961.88,-142.5 951.44,-144.32 960.73,-149.41 961.88,-142.5"/>
</a>
</g>
<text text-anchor="middle" x="1014" y="-167.22" font-family="Helvetica,sans-Serif" font-size="10.00" fill="grey"> nestedTopNQuery</text>
</g>
<!-- Node5&#45;&gt;Node6 -->
<g id="edge11_Node000006_Node000005" class="edge">
<title>Node5&#45;&gt;Node6</title>
<g id="a_edge11_Node000006_Node000005"><a xlink:title=" ">
<path fill="none" stroke="#9a32cd" stroke-dasharray="5,2" d="M780.77,-119.8C778.15,-119.59 775.56,-119.39 773,-119.22 733.09,-116.56 722.81,-115.36 683,-119.22 673.52,-120.14 663.59,-121.55 653.86,-123.2"/>
<polygon fill="#9a32cd" stroke="#9a32cd" points="780.67,-123.31 790.95,-120.74 781.31,-116.34 780.67,-123.31"/>
</a>
</g>
<text text-anchor="middle" x="728" y="-122.22" font-family="Helvetica,sans-Serif" font-size="10.00" fill="grey"> nestedTopNQuery</text>
</g>
<!-- Node6&#45;&gt;Node5 -->
<g id="edge7_Node000005_Node000006" class="edge">
<title>Node6&#45;&gt;Node5</title>
<g id="a_edge7_Node000005_Node000006"><a xlink:title=" ">
<path fill="none" stroke="#9a32cd" stroke-dasharray="5,2" d="M675.39,-136.33C712.4,-135.55 754.96,-134.65 790.82,-133.89"/>
<polygon fill="#9a32cd" stroke="#9a32cd" points="675.03,-132.84 665.11,-136.55 675.18,-139.84 675.03,-132.84"/>
</a>
</g>
<text text-anchor="middle" x="728" y="-138.22" font-family="Helvetica,sans-Serif" font-size="10.00" fill="grey"> streamDBClient</text>
</g>
<!-- Node7&#45;&gt;Node1 -->
<g id="edge14_Node000001_Node000007" class="edge">
<title>Node7&#45;&gt;Node1</title>
<g id="a_edge14_Node000001_Node000007"><a xlink:title=" ">
<path fill="none" stroke="#9a32cd" stroke-dasharray="5,2" d="M425.67,-76.04C546.18,-73.44 766.57,-74.61 951,-108.22 1017.45,-120.33 1089.72,-154.24 1128.19,-174.14"/>
<polygon fill="#9a32cd" stroke="#9a32cd" points="425.31,-72.54 415.4,-76.27 425.47,-79.54 425.31,-72.54"/>
</a>
</g>
<text text-anchor="middle" x="728" y="-89.22" font-family="Helvetica,sans-Serif" font-size="10.00" fill="grey"> sliceTable</text>
</g>
<!-- Node7&#45;&gt;Node6 -->
<g id="edge12_Node000006_Node000007" class="edge">
<title>Node7&#45;&gt;Node6</title>
<g id="a_edge12_Node000006_Node000007"><a xlink:title=" ">
<path fill="none" stroke="#9a32cd" stroke-dasharray="5,2" d="M425.19,-92.18C445.63,-95.81 467.17,-100.17 487,-105.22 506.13,-110.09 526.91,-116.94 544.31,-123.14"/>
<polygon fill="#9a32cd" stroke="#9a32cd" points="425.71,-88.72 415.26,-90.46 424.51,-95.61 425.71,-88.72"/>
</a>
</g>
<text text-anchor="middle" x="461" y="-108.22" font-family="Helvetica,sans-Serif" font-size="10.00" fill="grey"> sliceTable</text>
</g>
</g>
</svg>
