<?xml version="1.0" encoding="UTF-8" standalone="no"?>
<!DOCTYPE svg PUBLIC "-//W3C//DTD SVG 1.1//EN"
 "http://www.w3.org/Graphics/SVG/1.1/DTD/svg11.dtd">
<!-- Generated by graphviz version 2.43.0 (0)
 -->
<!-- Title: com.teragrep.pth_06.planner.ArchiveQueryProcessor Pages: 1 -->
<svg width="959pt" height="159pt"
 viewBox="0.00 0.00 959.00 158.72" xmlns="http://www.w3.org/2000/svg" xmlns:xlink="http://www.w3.org/1999/xlink">
<g id="graph0" class="graph" transform="scale(1 1) rotate(0) translate(4 154.72)">
<title>com.teragrep.pth_06.planner.ArchiveQueryProcessor</title>
<!-- Node1 -->
<g id="Node000001" class="node">
<title>Node1</title>
<g id="a_Node000001"><a xlink:title=" ">
<polygon fill="#999999" stroke="#666666" points="951,-136.72 791,-136.72 791,-106.72 951,-106.72 951,-136.72"/>
<text text-anchor="start" x="799" y="-124.72" font-family="Helvetica,sans-Serif" font-size="10.00">com.teragrep.pth_06.planner.</text>
<text text-anchor="middle" x="871" y="-113.72" font-family="Helvetica,sans-Serif" font-size="10.00">ArchiveQueryProcessor</text>
</a>
</g>
</g>
<!-- Node2 -->
<g id="Node000002" class="node">
<title>Node2</title>
<g id="a_Node000002"><a xlink:href="interfacecom_1_1teragrep_1_1pth__06_1_1planner_1_1ArchiveQuery.html" target="_top" xlink:title=" ">
<polygon fill="white" stroke="#666666" points="665,-149.72 505,-149.72 505,-119.72 665,-119.72 665,-149.72"/>
<text text-anchor="start" x="513" y="-137.72" font-family="Helvetica,sans-Serif" font-size="10.00">com.teragrep.pth_06.planner.</text>
<text text-anchor="middle" x="585" y="-126.72" font-family="Helvetica,sans-Serif" font-size="10.00">ArchiveQuery</text>
</a>
</g>
</g>
<!-- Node2&#45;&gt;Node1 -->
<g id="edge1_Node000001_Node000002" class="edge">
<title>Node2&#45;&gt;Node1</title>
<g id="a_edge1_Node000001_Node000002"><a xlink:title=" ">
<path fill="none" stroke="#63b8ff" d="M675.39,-130.63C712.4,-128.94 754.96,-126.99 790.82,-125.35"/>
<polygon fill="#63b8ff" stroke="#63b8ff" points="674.94,-127.15 665.11,-131.1 675.26,-134.14 674.94,-127.15"/>
</a>
</g>
</g>
<!-- Node3 -->
<g id="Node000003" class="node">
<title>Node3</title>
<g id="a_Node000003"><a xlink:href="classcom_1_1teragrep_1_1pth__06_1_1planner_1_1StreamDBClient.html" target="_top" xlink:title=" ">
<polygon fill="white" stroke="#666666" points="665,-95.72 505,-95.72 505,-65.72 665,-65.72 665,-95.72"/>
<text text-anchor="start" x="513" y="-83.72" font-family="Helvetica,sans-Serif" font-size="10.00">com.teragrep.pth_06.planner.</text>
<text text-anchor="middle" x="585" y="-72.72" font-family="Helvetica,sans-Serif" font-size="10.00">StreamDBClient</text>
</a>
</g>
</g>
<!-- Node3&#45;&gt;Node1 -->
<g id="edge2_Node000001_Node000003" class="edge">
<title>Node3&#45;&gt;Node1</title>
<g id="a_edge2_Node000001_Node000003"><a xlink:title=" ">
<path fill="none" stroke="#9a32cd" stroke-dasharray="5,2" d="M675.39,-93.63C712.4,-98.97 754.96,-105.11 790.82,-110.29"/>
<polygon fill="#9a32cd" stroke="#9a32cd" points="675.51,-90.11 665.11,-92.14 674.51,-97.04 675.51,-90.11"/>
</a>
</g>
<text text-anchor="middle" x="728" y="-109.72" font-family="Helvetica,sans-Serif" font-size="10.00" fill="grey"> sdc</text>
</g>
<!-- Node6 -->
<g id="Node000006" class="node">
<title>Node6</title>
<g id="a_Node000006"><a xlink:href="classcom_1_1teragrep_1_1pth__06_1_1planner_1_1NestedTopNQuery.html" target="_top" xlink:title=" ">
<polygon fill="white" stroke="#666666" points="951,-55.72 791,-55.72 791,-25.72 951,-25.72 951,-55.72"/>
<text text-anchor="start" x="799" y="-43.72" font-family="Helvetica,sans-Serif" font-size="10.00">com.teragrep.pth_06.planner.</text>
<text text-anchor="middle" x="871" y="-32.72" font-family="Helvetica,sans-Serif" font-size="10.00">NestedTopNQuery</text>
</a>
</g>
</g>
<!-- Node3&#45;&gt;Node6 -->
<g id="edge8_Node000006_Node000003" class="edge">
<title>Node3&#45;&gt;Node6</title>
<g id="a_edge8_Node000006_Node000003"><a xlink:title=" ">
<path fill="none" stroke="#9a32cd" stroke-dasharray="5,2" d="M622.84,-61.04C640.5,-52.69 662.29,-43.92 683,-39.72 717.84,-32.66 757.09,-31.82 790.6,-33.18"/>
<polygon fill="#9a32cd" stroke="#9a32cd" points="620.93,-58.07 613.48,-65.61 624,-64.37 620.93,-58.07"/>
</a>
</g>
<text text-anchor="middle" x="728" y="-42.72" font-family="Helvetica,sans-Serif" font-size="10.00" fill="grey"> streamDBClient</text>
</g>
<!-- Node4 -->
<g id="Node000004" class="node">
<title>Node4</title>
<g id="a_Node000004"><a xlink:href="classcom_1_1teragrep_1_1pth__06_1_1ConfiguredLogger.html" target="_top" xlink:title=" ">
<polygon fill="white" stroke="#666666" points="173,-92.72 0,-92.72 0,-62.72 173,-62.72 173,-92.72"/>
<text text-anchor="start" x="8" y="-80.72" font-family="Helvetica,sans-Serif" font-size="10.00">com.teragrep.pth_06.Configured</text>
<text text-anchor="middle" x="86.5" y="-69.72" font-family="Helvetica,sans-Serif" font-size="10.00">Logger</text>
</a>
</g>
</g>
<!-- Node4&#45;&gt;Node3 -->
<g id="edge3_Node000003_Node000004" class="edge">
<title>Node4&#45;&gt;Node3</title>
<g id="a_edge3_Node000003_Node000004"><a xlink:title=" ">
<path fill="none" stroke="#9a32cd" stroke-dasharray="5,2" d="M183.16,-78.3C276.66,-78.87 417.35,-79.72 504.77,-80.24"/>
<polygon fill="#9a32cd" stroke="#9a32cd" points="183.15,-74.8 173.13,-78.24 183.11,-81.8 183.15,-74.8"/>
</a>
</g>
<text text-anchor="middle" x="335" y="-81.72" font-family="Helvetica,sans-Serif" font-size="10.00" fill="grey"> LOGGER</text>
</g>
<!-- Node5 -->
<g id="Node000005" class="node">
<title>Node5</title>
<g id="a_Node000005"><a xlink:href="classcom_1_1teragrep_1_1pth__06_1_1planner_1_1GetArchivedObjectsFilterTable.html" target="_top" xlink:title=" ">
<polygon fill="white" stroke="#666666" points="417,-55.72 253,-55.72 253,-25.72 417,-25.72 417,-55.72"/>
<text text-anchor="start" x="261" y="-43.72" font-family="Helvetica,sans-Serif" font-size="10.00">com.teragrep.pth_06.planner.</text>
<text text-anchor="middle" x="335" y="-32.72" font-family="Helvetica,sans-Serif" font-size="10.00">GetArchivedObjectsFilterTable</text>
</a>
</g>
</g>
<!-- Node4&#45;&gt;Node5 -->
<g id="edge5_Node000005_Node000004" class="edge">
<title>Node4&#45;&gt;Node5</title>
<g id="a_edge5_Node000005_Node000004"><a xlink:title=" ">
<path fill="none" stroke="#9a32cd" stroke-dasharray="5,2" d="M183.14,-63.37C206.14,-59.91 230.5,-56.26 252.78,-52.91"/>
<polygon fill="#9a32cd" stroke="#9a32cd" points="182.39,-59.94 173.02,-64.89 183.43,-66.86 182.39,-59.94"/>
</a>
</g>
<text text-anchor="middle" x="213" y="-63.72" font-family="Helvetica,sans-Serif" font-size="10.00" fill="grey"> logger</text>
</g>
<!-- Node4&#45;&gt;Node6 -->
<g id="edge7_Node000006_Node000004" class="edge">
<title>Node4&#45;&gt;Node6</title>
<g id="a_edge7_Node000006_Node000004"><a xlink:title=" ">
<path fill="none" stroke="#9a32cd" stroke-dasharray="5,2" d="M127.56,-58.4C160.4,-43.68 208.55,-24.65 253,-16.72 443.75,17.31 672.72,-8.68 790.85,-26.9"/>
<polygon fill="#9a32cd" stroke="#9a32cd" points="125.95,-55.28 118.3,-62.61 128.85,-61.65 125.95,-55.28"/>
</a>
</g>
<text text-anchor="middle" x="461" y="-3.72" font-family="Helvetica,sans-Serif" font-size="10.00" fill="grey"> logger</text>
</g>
<!-- Node7 -->
<g id="Node000007" class="node">
<title>Node7</title>
<g id="a_Node000007"><a xlink:href="classcom_1_1teragrep_1_1pth__06_1_1planner_1_1SliceTable.html" target="_top" xlink:title=" ">
<polygon fill="white" stroke="#666666" points="415,-150.72 255,-150.72 255,-120.72 415,-120.72 415,-150.72"/>
<text text-anchor="start" x="263" y="-138.72" font-family="Helvetica,sans-Serif" font-size="10.00">com.teragrep.pth_06.planner.</text>
<text text-anchor="middle" x="335" y="-127.72" font-family="Helvetica,sans-Serif" font-size="10.00">SliceTable</text>
</a>
</g>
</g>
<!-- Node4&#45;&gt;Node7 -->
<g id="edge10_Node000007_Node000004" class="edge">
<title>Node4&#45;&gt;Node7</title>
<g id="a_edge10_Node000007_Node000004"><a xlink:title=" ">
<path fill="none" stroke="#9a32cd" stroke-dasharray="5,2" d="M150.78,-95.46C164.03,-99 177.95,-102.59 191,-105.72 212.71,-110.93 236.39,-116.1 258.12,-120.65"/>
<polygon fill="#9a32cd" stroke="#9a32cd" points="151.37,-91.99 140.8,-92.77 149.55,-98.75 151.37,-91.99"/>
</a>
</g>
<text text-anchor="middle" x="213" y="-117.72" font-family="Helvetica,sans-Serif" font-size="10.00" fill="grey"> LOGGER</text>
</g>
<!-- Node5&#45;&gt;Node3 -->
<g id="edge4_Node000003_Node000005" class="edge">
<title>Node5&#45;&gt;Node3</title>
<g id="a_edge4_Node000003_Node000005"><a xlink:title=" ">
<path fill="none" stroke="#9a32cd" stroke-dasharray="5,2" d="M427.21,-55.43C452.64,-59.54 480.05,-63.96 504.73,-67.94"/>
<polygon fill="#9a32cd" stroke="#9a32cd" points="427.63,-51.96 417.2,-53.82 426.52,-58.87 427.63,-51.96"/>
</a>
</g>
<text text-anchor="middle" x="461" y="-66.72" font-family="Helvetica,sans-Serif" font-size="10.00" fill="grey"> filterTable</text>
</g>
<!-- Node6&#45;&gt;Node3 -->
<g id="edge6_Node000003_Node000006" class="edge">
<title>Node6&#45;&gt;Node3</title>
<g id="a_edge6_Node000003_Node000006"><a xlink:title=" ">
<path fill="none" stroke="#9a32cd" stroke-dasharray="5,2" d="M780.54,-53.32C743.52,-58.54 700.97,-64.53 665.11,-69.58"/>
<polygon fill="#9a32cd" stroke="#9a32cd" points="781.41,-56.73 790.82,-51.87 780.43,-49.8 781.41,-56.73"/>
</a>
</g>
<text text-anchor="middle" x="728" y="-68.72" font-family="Helvetica,sans-Serif" font-size="10.00" fill="grey"> nestedTopNQuery</text>
</g>
<!-- Node7&#45;&gt;Node3 -->
<g id="edge9_Node000003_Node000007" class="edge">
<title>Node7&#45;&gt;Node3</title>
<g id="a_edge9_Node000003_Node000007"><a xlink:title=" ">
<path fill="none" stroke="#9a32cd" stroke-dasharray="5,2" d="M425.22,-118.86C445.57,-114.77 467.07,-110.27 487,-105.72 500.31,-102.69 514.58,-99.16 527.96,-95.73"/>
<polygon fill="#9a32cd" stroke="#9a32cd" points="424.45,-115.44 415.33,-120.83 425.82,-122.31 424.45,-115.44"/>
</a>
</g>
<text text-anchor="middle" x="461" y="-118.72" font-family="Helvetica,sans-Serif" font-size="10.00" fill="grey"> sliceTable</text>
</g>
</g>
</svg>
