<?xml version="1.0" encoding="UTF-8" standalone="no"?>
<!DOCTYPE svg PUBLIC "-//W3C//DTD SVG 1.1//EN"
 "http://www.w3.org/Graphics/SVG/1.1/DTD/svg11.dtd">
<!-- Generated by graphviz version 2.43.0 (0)
 -->
<!-- Title: com.teragrep.pth_06.planner.walker.conditions.ValidElement.tag Pages: 1 -->
<svg width="1108pt" height="305pt"
 viewBox="0.00 0.00 1108.00 305.00" xmlns="http://www.w3.org/2000/svg" xmlns:xlink="http://www.w3.org/1999/xlink">
<g id="graph0" class="graph" transform="scale(1 1) rotate(0) translate(4 301)">
<title>com.teragrep.pth_06.planner.walker.conditions.ValidElement.tag</title>
<!-- Node1 -->
<g id="Node000001" class="node">
<title>Node1</title>
<g id="a_Node000001"><a xlink:title=" ">
<polygon fill="#999999" stroke="#666666" points="1100,-126 852,-126 852,-96 1100,-96 1100,-126"/>
<text text-anchor="start" x="860" y="-114" font-family="Helvetica,sans-Serif" font-size="10.00">com.teragrep.pth_06.planner.walker.conditions.</text>
<text text-anchor="middle" x="976" y="-103" font-family="Helvetica,sans-Serif" font-size="10.00">ValidElement.tag</text>
</a>
</g>
</g>
<!-- Node2 -->
<g id="Node000002" class="node">
<title>Node2</title>
<g id="a_Node000002"><a xlink:href="classcom_1_1teragrep_1_1pth__06_1_1planner_1_1walker_1_1conditions_1_1ElementCondition.html#a77e4bd928b9d9dd1e2ef3380f65e3ab7" target="_top" xlink:title=" ">
<polygon fill="white" stroke="#666666" points="532,-225 284,-225 284,-195 532,-195 532,-225"/>
<text text-anchor="start" x="292" y="-213" font-family="Helvetica,sans-Serif" font-size="10.00">com.teragrep.pth_06.planner.walker.conditions.</text>
<text text-anchor="middle" x="408" y="-202" font-family="Helvetica,sans-Serif" font-size="10.00">ElementCondition.condition</text>
</a>
</g>
</g>
<!-- Node1&#45;&gt;Node2 -->
<g id="edge1_Node000001_Node000002" class="edge">
<title>Node1&#45;&gt;Node2</title>
<g id="a_edge1_Node000001_Node000002"><a xlink:title=" ">
<path fill="none" stroke="#63b8ff" d="M940.56,-130.99C909.21,-148.1 861.08,-171.7 816,-183 722.76,-206.38 613.96,-212.56 532.32,-213.2"/>
<polygon fill="#63b8ff" stroke="#63b8ff" points="942.28,-134.04 949.33,-126.13 938.89,-127.91 942.28,-134.04"/>
</a>
</g>
</g>
<!-- Node7 -->
<g id="Node000007" class="node">
<title>Node7</title>
<g id="a_Node000007"><a xlink:href="classcom_1_1teragrep_1_1pth__06_1_1planner_1_1walker_1_1conditions_1_1ElementCondition.html#af340b59529954bf83536432d3512af34" target="_top" xlink:title=" ">
<polygon fill="white" stroke="#666666" points="816,-174 568,-174 568,-144 816,-144 816,-174"/>
<text text-anchor="start" x="576" y="-162" font-family="Helvetica,sans-Serif" font-size="10.00">com.teragrep.pth_06.planner.walker.conditions.</text>
<text text-anchor="middle" x="692" y="-151" font-family="Helvetica,sans-Serif" font-size="10.00">ElementCondition.isBloomSearchCondition</text>
</a>
</g>
</g>
<!-- Node1&#45;&gt;Node7 -->
<g id="edge7_Node000001_Node000007" class="edge">
<title>Node1&#45;&gt;Node7</title>
<g id="a_edge7_Node000001_Node000007"><a xlink:title=" ">
<path fill="none" stroke="#63b8ff" d="M876.58,-127.75C845.53,-133.04 811.43,-138.84 781.14,-144"/>
<polygon fill="#63b8ff" stroke="#63b8ff" points="877.28,-131.18 886.55,-126.06 876.1,-124.28 877.28,-131.18"/>
</a>
</g>
</g>
<!-- Node10 -->
<g id="Node000010" class="node">
<title>Node10</title>
<g id="a_Node000010"><a xlink:href="classcom_1_1teragrep_1_1pth__06_1_1planner_1_1walker_1_1conditions_1_1ValidElementTest.html#a67d8cf6b8fd53006859128966b2287d7" target="_top" xlink:title=" ">
<polygon fill="white" stroke="#666666" points="816,-126 568,-126 568,-96 816,-96 816,-126"/>
<text text-anchor="start" x="576" y="-114" font-family="Helvetica,sans-Serif" font-size="10.00">com.teragrep.pth_06.planner.walker.conditions.</text>
<text text-anchor="middle" x="692" y="-103" font-family="Helvetica,sans-Serif" font-size="10.00">ValidElementTest.missingOperationTest</text>
</a>
</g>
</g>
<!-- Node1&#45;&gt;Node10 -->
<g id="edge11_Node000001_Node000010" class="edge">
<title>Node1&#45;&gt;Node10</title>
<g id="a_edge11_Node000001_Node000010"><a xlink:title=" ">
<path fill="none" stroke="#63b8ff" d="M841.53,-111C833.16,-111 824.75,-111 816.43,-111"/>
<polygon fill="#63b8ff" stroke="#63b8ff" points="841.72,-114.5 851.72,-111 841.72,-107.5 841.72,-114.5"/>
</a>
</g>
</g>
<!-- Node11 -->
<g id="Node000011" class="node">
<title>Node11</title>
<g id="a_Node000011"><a xlink:href="classcom_1_1teragrep_1_1pth__06_1_1planner_1_1walker_1_1conditions_1_1ValidElementTest.html#ac832b513f4dce1d1de9214c9d54ddfdd" target="_top" xlink:title=" ">
<polygon fill="white" stroke="#666666" points="816,-78 568,-78 568,-48 816,-48 816,-78"/>
<text text-anchor="start" x="576" y="-66" font-family="Helvetica,sans-Serif" font-size="10.00">com.teragrep.pth_06.planner.walker.conditions.</text>
<text text-anchor="middle" x="692" y="-55" font-family="Helvetica,sans-Serif" font-size="10.00">ValidElementTest.missingValueTest</text>
</a>
</g>
</g>
<!-- Node1&#45;&gt;Node11 -->
<g id="edge12_Node000001_Node000011" class="edge">
<title>Node1&#45;&gt;Node11</title>
<g id="a_edge12_Node000001_Node000011"><a xlink:title=" ">
<path fill="none" stroke="#63b8ff" d="M876.58,-94.25C845.53,-88.96 811.43,-83.16 781.14,-78"/>
<polygon fill="#63b8ff" stroke="#63b8ff" points="876.1,-97.72 886.55,-95.94 877.28,-90.82 876.1,-97.72"/>
</a>
</g>
</g>
<!-- Node12 -->
<g id="Node000012" class="node">
<title>Node12</title>
<g id="a_Node000012"><a xlink:href="classcom_1_1teragrep_1_1pth__06_1_1planner_1_1walker_1_1conditions_1_1ValidElementTest.html#aebd4924948cd0e533806857b2ba0ba83" target="_top" xlink:title=" ">
<polygon fill="white" stroke="#666666" points="816,-30 568,-30 568,0 816,0 816,-30"/>
<text text-anchor="start" x="576" y="-18" font-family="Helvetica,sans-Serif" font-size="10.00">com.teragrep.pth_06.planner.walker.conditions.</text>
<text text-anchor="middle" x="692" y="-7" font-family="Helvetica,sans-Serif" font-size="10.00">ValidElementTest.validTest</text>
</a>
</g>
</g>
<!-- Node1&#45;&gt;Node12 -->
<g id="edge13_Node000001_Node000012" class="edge">
<title>Node1&#45;&gt;Node12</title>
<g id="a_edge13_Node000001_Node000012"><a xlink:title=" ">
<path fill="none" stroke="#63b8ff" d="M938.18,-91.36C906.56,-75.22 859.35,-52.84 816,-39 805.43,-35.63 794.19,-32.64 782.96,-30.03"/>
<polygon fill="#63b8ff" stroke="#63b8ff" points="936.57,-94.47 947.07,-95.94 939.78,-88.24 936.57,-94.47"/>
</a>
</g>
</g>
<!-- Node2&#45;&gt;Node2 -->
<g id="edge2_Node000002_Node000002" class="edge">
<title>Node2&#45;&gt;Node2</title>
<g id="a_edge2_Node000002_Node000002"><a xlink:title=" ">
<path fill="none" stroke="#63b8ff" d="M457.97,-235.42C451.35,-239.89 434.69,-243 408,-243 363.62,-243 346.98,-234.41 358.08,-225.28"/>
<polygon fill="#63b8ff" stroke="#63b8ff" points="461.47,-235.26 457.92,-225.28 454.47,-235.29 461.47,-235.26"/>
</a>
</g>
</g>
<!-- Node3 -->
<g id="Node000003" class="node">
<title>Node3</title>
<g id="a_Node000003"><a xlink:href="classcom_1_1teragrep_1_1pth__06_1_1planner_1_1walker_1_1conditions_1_1ElementConditionTest.html#aa7b824b2c1a077cb408c7e0532131e67" target="_top" xlink:title=" ">
<polygon fill="white" stroke="#666666" points="248,-297 0,-297 0,-267 248,-267 248,-297"/>
<text text-anchor="start" x="8" y="-285" font-family="Helvetica,sans-Serif" font-size="10.00">com.teragrep.pth_06.planner.walker.conditions.</text>
<text text-anchor="middle" x="124" y="-274" font-family="Helvetica,sans-Serif" font-size="10.00">ElementConditionTest.equalsTest</text>
</a>
</g>
</g>
<!-- Node2&#45;&gt;Node3 -->
<g id="edge3_Node000002_Node000003" class="edge">
<title>Node2&#45;&gt;Node3</title>
<g id="a_edge3_Node000002_Node000003"><a xlink:title=" ">
<path fill="none" stroke="#63b8ff" d="M351.84,-228.14C321.42,-237.77 282.85,-249.36 248,-258 235.12,-261.19 221.39,-264.23 207.95,-267"/>
<polygon fill="#63b8ff" stroke="#63b8ff" points="352.95,-231.46 361.42,-225.09 350.82,-224.79 352.95,-231.46"/>
</a>
</g>
</g>
<!-- Node4 -->
<g id="Node000004" class="node">
<title>Node4</title>
<g id="a_Node000004"><a xlink:href="classcom_1_1teragrep_1_1pth__06_1_1planner_1_1walker_1_1conditions_1_1ElementConditionTest.html#afc3b6a3b2fe594a7c6df49f7ad3cb88a" target="_top" xlink:title=" ">
<polygon fill="white" stroke="#666666" points="248,-249 0,-249 0,-219 248,-219 248,-249"/>
<text text-anchor="start" x="8" y="-237" font-family="Helvetica,sans-Serif" font-size="10.00">com.teragrep.pth_06.planner.walker.conditions.</text>
<text text-anchor="middle" x="124" y="-226" font-family="Helvetica,sans-Serif" font-size="10.00">ElementConditionTest.testInvalidStreamTags</text>
</a>
</g>
</g>
<!-- Node2&#45;&gt;Node4 -->
<g id="edge4_Node000002_Node000004" class="edge">
<title>Node2&#45;&gt;Node4</title>
<g id="a_edge4_Node000002_Node000004"><a xlink:title=" ">
<path fill="none" stroke="#63b8ff" d="M273.53,-221.36C265.16,-222.07 256.75,-222.79 248.43,-223.5"/>
<polygon fill="#63b8ff" stroke="#63b8ff" points="274.05,-224.83 283.72,-220.49 273.46,-217.85 274.05,-224.83"/>
</a>
</g>
</g>
<!-- Node5 -->
<g id="Node000005" class="node">
<title>Node5</title>
<g id="a_Node000005"><a xlink:href="classcom_1_1teragrep_1_1pth__06_1_1planner_1_1walker_1_1conditions_1_1ElementConditionTest.html#a8128d1d936c645c93ebfc6f5fe4cdbe6" target="_top" xlink:title=" ">
<polygon fill="white" stroke="#666666" points="248,-201 0,-201 0,-171 248,-171 248,-201"/>
<text text-anchor="start" x="8" y="-189" font-family="Helvetica,sans-Serif" font-size="10.00">com.teragrep.pth_06.planner.walker.conditions.</text>
<text text-anchor="middle" x="124" y="-178" font-family="Helvetica,sans-Serif" font-size="10.00">ElementConditionTest.testStreamTags</text>
</a>
</g>
</g>
<!-- Node2&#45;&gt;Node5 -->
<g id="edge5_Node000002_Node000005" class="edge">
<title>Node2&#45;&gt;Node5</title>
<g id="a_edge5_Node000002_Node000005"><a xlink:title=" ">
<path fill="none" stroke="#63b8ff" d="M273.53,-198.64C265.16,-197.93 256.75,-197.21 248.43,-196.5"/>
<polygon fill="#63b8ff" stroke="#63b8ff" points="273.46,-202.15 283.72,-199.51 274.05,-195.17 273.46,-202.15"/>
</a>
</g>
</g>
<!-- Node6 -->
<g id="Node000006" class="node">
<title>Node6</title>
<g id="a_Node000006"><a xlink:href="classcom_1_1teragrep_1_1pth__06_1_1planner_1_1walker_1_1conditions_1_1ElementConditionTest.html#aed3578cbc9f7e4f77695db0f1f45b40a" target="_top" xlink:title=" ">
<polygon fill="white" stroke="#666666" points="248,-153 0,-153 0,-123 248,-123 248,-153"/>
<text text-anchor="start" x="8" y="-141" font-family="Helvetica,sans-Serif" font-size="10.00">com.teragrep.pth_06.planner.walker.conditions.</text>
<text text-anchor="middle" x="124" y="-130" font-family="Helvetica,sans-Serif" font-size="10.00">ElementConditionTest.testTimeQualifiers</text>
</a>
</g>
</g>
<!-- Node2&#45;&gt;Node6 -->
<g id="edge6_Node000002_Node000006" class="edge">
<title>Node2&#45;&gt;Node6</title>
<g id="a_edge6_Node000002_Node000006"><a xlink:title=" ">
<path fill="none" stroke="#63b8ff" d="M300.59,-192.03C294.91,-190.2 289.35,-188.2 284,-186 266.22,-178.68 265.78,-169.32 248,-162 239.65,-158.56 230.78,-155.61 221.76,-153.08"/>
<polygon fill="#63b8ff" stroke="#63b8ff" points="299.65,-195.4 310.24,-194.92 301.67,-188.69 299.65,-195.4"/>
</a>
</g>
</g>
<!-- Node7&#45;&gt;Node2 -->
<g id="edge8_Node000007_Node000002" class="edge">
<title>Node7&#45;&gt;Node2</title>
<g id="a_edge8_Node000007_Node000002"><a xlink:title=" ">
<path fill="none" stroke="#63b8ff" d="M597.92,-175.83C563.71,-182.02 525.24,-188.98 491.98,-194.99"/>
<polygon fill="#63b8ff" stroke="#63b8ff" points="598.7,-179.25 607.92,-174.03 597.45,-172.36 598.7,-179.25"/>
</a>
</g>
</g>
<!-- Node8 -->
<g id="Node000008" class="node">
<title>Node8</title>
<g id="a_Node000008"><a xlink:href="classcom_1_1teragrep_1_1pth__06_1_1planner_1_1walker_1_1conditions_1_1ElementConditionTest.html#ac00569686f11d16cb1b703c1823cb467" target="_top" xlink:title=" ">
<polygon fill="white" stroke="#666666" points="532,-176.5 284,-176.5 284,-135.5 532,-135.5 532,-176.5"/>
<text text-anchor="start" x="292" y="-164.5" font-family="Helvetica,sans-Serif" font-size="10.00">com.teragrep.pth_06.planner.walker.conditions.</text>
<text text-anchor="start" x="292" y="-153.5" font-family="Helvetica,sans-Serif" font-size="10.00">ElementConditionTest.testIndexStatementWith</text>
<text text-anchor="middle" x="408" y="-142.5" font-family="Helvetica,sans-Serif" font-size="10.00">BadConnection</text>
</a>
</g>
</g>
<!-- Node7&#45;&gt;Node8 -->
<g id="edge9_Node000007_Node000008" class="edge">
<title>Node7&#45;&gt;Node8</title>
<g id="a_edge9_Node000007_Node000008"><a xlink:title=" ">
<path fill="none" stroke="#63b8ff" d="M557.53,-157.58C549.16,-157.49 540.75,-157.4 532.43,-157.31"/>
<polygon fill="#63b8ff" stroke="#63b8ff" points="557.68,-161.08 567.72,-157.69 557.76,-154.08 557.68,-161.08"/>
</a>
</g>
</g>
<!-- Node9 -->
<g id="Node000009" class="node">
<title>Node9</title>
<g id="a_Node000009"><a xlink:href="classcom_1_1teragrep_1_1pth__06_1_1planner_1_1walker_1_1conditions_1_1ElementConditionTest.html#a6a7f290b7a91e0b6218d4e4f01887ac2" target="_top" xlink:title=" ">
<polygon fill="white" stroke="#666666" points="532,-117 284,-117 284,-87 532,-87 532,-117"/>
<text text-anchor="start" x="292" y="-105" font-family="Helvetica,sans-Serif" font-size="10.00">com.teragrep.pth_06.planner.walker.conditions.</text>
<text text-anchor="middle" x="408" y="-94" font-family="Helvetica,sans-Serif" font-size="10.00">ElementConditionTest.testIsIndexStatement</text>
</a>
</g>
</g>
<!-- Node7&#45;&gt;Node9 -->
<g id="edge10_Node000007_Node000009" class="edge">
<title>Node7&#45;&gt;Node9</title>
<g id="a_edge10_Node000007_Node000009"><a xlink:title=" ">
<path fill="none" stroke="#63b8ff" d="M600.72,-141.94C589.68,-139.69 578.57,-137.35 568,-135 551.9,-131.42 548.1,-129.58 532,-126 518.2,-122.93 503.47,-119.87 489.18,-117.02"/>
<polygon fill="#63b8ff" stroke="#63b8ff" points="600.32,-145.44 610.82,-143.98 601.71,-138.57 600.32,-145.44"/>
</a>
</g>
</g>
</g>
</svg>
