<?xml version="1.0" encoding="UTF-8" standalone="no"?>
<!DOCTYPE svg PUBLIC "-//W3C//DTD SVG 1.1//EN"
 "http://www.w3.org/Graphics/SVG/1.1/DTD/svg11.dtd">
<!-- Generated by graphviz version 2.43.0 (0)
 -->
<!-- Title: com.teragrep.pth_06.MockS3DataProvider.preloadS3Data Pages: 1 -->
<svg width="401pt" height="98pt"
 viewBox="0.00 0.00 401.00 97.50" xmlns="http://www.w3.org/2000/svg" xmlns:xlink="http://www.w3.org/1999/xlink">
<g id="graph0" class="graph" transform="scale(1 1) rotate(0) translate(4 93.5)">
<title>com.teragrep.pth_06.MockS3DataProvider.preloadS3Data</title>
<!-- Node1 -->
<g id="Node000001" class="node">
<title>Node1</title>
<g id="a_Node000001"><a xlink:title=" ">
<polygon fill="#999999" stroke="#666666" points="167,-62.5 0,-62.5 0,-32.5 167,-32.5 167,-62.5"/>
<text text-anchor="start" x="8" y="-50.5" font-family="Helvetica,sans-Serif" font-size="10.00">com.teragrep.pth_06.Mock</text>
<text text-anchor="middle" x="83.5" y="-39.5" font-family="Helvetica,sans-Serif" font-size="10.00">S3DataProvider.preloadS3Data</text>
</a>
</g>
</g>
<!-- Node2 -->
<g id="Node000002" class="node">
<title>Node2</title>
<g id="a_Node000002"><a xlink:href="classcom_1_1teragrep_1_1pth__06_1_1MockS3DataProvider.html#a9baacfb5e74040d3677b1efb7a521a98" target="_top" xlink:title=" ">
<polygon fill="white" stroke="#666666" points="393,-89.5 203,-89.5 203,-59.5 393,-59.5 393,-89.5"/>
<text text-anchor="start" x="211" y="-77.5" font-family="Helvetica,sans-Serif" font-size="10.00">com.teragrep.pth_06.Mock</text>
<text text-anchor="middle" x="298" y="-66.5" font-family="Helvetica,sans-Serif" font-size="10.00">S3DataProvider.ensureBucketExists</text>
</a>
</g>
</g>
<!-- Node1&#45;&gt;Node2 -->
<g id="edge1_Node000001_Node000002" class="edge">
<title>Node1&#45;&gt;Node2</title>
<g id="a_edge1_Node000001_Node000002"><a xlink:title=" ">
<path fill="none" stroke="#63b8ff" d="M167.27,-58.02C175.64,-59.08 184.22,-60.17 192.79,-61.26"/>
<polygon fill="#63b8ff" stroke="#63b8ff" points="192.46,-64.74 202.82,-62.53 193.34,-57.8 192.46,-64.74"/>
</a>
</g>
</g>
<!-- Node3 -->
<g id="Node000003" class="node">
<title>Node3</title>
<g id="a_Node000003"><a xlink:href="classcom_1_1teragrep_1_1pth__06_1_1MockS3DataProvider.html#a678bdb58aa18842b7d44115254cfde8b" target="_top" xlink:title=" ">
<polygon fill="white" stroke="#666666" points="383,-41 213,-41 213,0 383,0 383,-41"/>
<text text-anchor="start" x="221" y="-29" font-family="Helvetica,sans-Serif" font-size="10.00">com.teragrep.pth_06.Mock</text>
<text text-anchor="start" x="221" y="-18" font-family="Helvetica,sans-Serif" font-size="10.00">S3DataProvider.syslogMessage</text>
<text text-anchor="middle" x="298" y="-7" font-family="Helvetica,sans-Serif" font-size="10.00">FromRow</text>
</a>
</g>
</g>
<!-- Node1&#45;&gt;Node3 -->
<g id="edge2_Node000001_Node000003" class="edge">
<title>Node1&#45;&gt;Node3</title>
<g id="a_edge2_Node000001_Node000003"><a xlink:title=" ">
<path fill="none" stroke="#63b8ff" d="M167.27,-36.98C178.8,-35.52 190.73,-34 202.46,-32.51"/>
<polygon fill="#63b8ff" stroke="#63b8ff" points="203.23,-35.94 212.71,-31.21 202.35,-29 203.23,-35.94"/>
</a>
</g>
</g>
</g>
</svg>
