<?xml version="1.0" encoding="UTF-8" standalone="no"?>
<!DOCTYPE svg PUBLIC "-//W3C//DTD SVG 1.1//EN"
 "http://www.w3.org/Graphics/SVG/1.1/DTD/svg11.dtd">
<!-- Generated by graphviz version 2.43.0 (0)
 -->
<!-- Title: com.teragrep.pth_06.planner.NestedTopNQuery Pages: 1 -->
<svg width="959pt" height="249pt"
 viewBox="0.00 0.00 959.00 248.59" xmlns="http://www.w3.org/2000/svg" xmlns:xlink="http://www.w3.org/1999/xlink">
<g id="graph0" class="graph" transform="scale(1 1) rotate(0) translate(4 244.59)">
<title>com.teragrep.pth_06.planner.NestedTopNQuery</title>
<!-- Node1 -->
<g id="Node000001" class="node">
<title>Node1</title>
<g id="a_Node000001"><a xlink:title=" ">
<polygon fill="#999999" stroke="#666666" points="951,-209.59 791,-209.59 791,-179.59 951,-179.59 951,-209.59"/>
<text text-anchor="start" x="799" y="-197.59" font-family="Helvetica,sans-Serif" font-size="10.00">com.teragrep.pth_06.planner.</text>
<text text-anchor="middle" x="871" y="-186.59" font-family="Helvetica,sans-Serif" font-size="10.00">NestedTopNQuery</text>
</a>
</g>
</g>
<!-- Node2 -->
<g id="Node000002" class="node">
<title>Node2</title>
<g id="a_Node000002"><a xlink:href="classcom_1_1teragrep_1_1pth__06_1_1ConfiguredLogger.html" target="_top" xlink:title=" ">
<polygon fill="white" stroke="#666666" points="173,-106.59 0,-106.59 0,-76.59 173,-76.59 173,-106.59"/>
<text text-anchor="start" x="8" y="-94.59" font-family="Helvetica,sans-Serif" font-size="10.00">com.teragrep.pth_06.Configured</text>
<text text-anchor="middle" x="86.5" y="-83.59" font-family="Helvetica,sans-Serif" font-size="10.00">Logger</text>
</a>
</g>
</g>
<!-- Node2&#45;&gt;Node1 -->
<g id="edge1_Node000001_Node000002" class="edge">
<title>Node2&#45;&gt;Node1</title>
<g id="a_edge1_Node000001_Node000002"><a xlink:title=" ">
<path fill="none" stroke="#9a32cd" stroke-dasharray="5,2" d="M111.62,-113.57C141.97,-139.59 196.96,-181.43 253,-197.59 439.55,-251.38 671.23,-227.5 790.62,-208.96"/>
<polygon fill="#9a32cd" stroke="#9a32cd" points="113.56,-110.62 103.73,-106.68 108.96,-115.9 113.56,-110.62"/>
</a>
</g>
<text text-anchor="middle" x="461" y="-232.59" font-family="Helvetica,sans-Serif" font-size="10.00" fill="grey"> logger</text>
</g>
<!-- Node3 -->
<g id="Node000003" class="node">
<title>Node3</title>
<g id="a_Node000003"><a xlink:href="classcom_1_1teragrep_1_1pth__06_1_1planner_1_1StreamDBClient.html" target="_top" xlink:title=" ">
<polygon fill="white" stroke="#666666" points="665,-122.59 505,-122.59 505,-92.59 665,-92.59 665,-122.59"/>
<text text-anchor="start" x="513" y="-110.59" font-family="Helvetica,sans-Serif" font-size="10.00">com.teragrep.pth_06.planner.</text>
<text text-anchor="middle" x="585" y="-99.59" font-family="Helvetica,sans-Serif" font-size="10.00">StreamDBClient</text>
</a>
</g>
</g>
<!-- Node2&#45;&gt;Node3 -->
<g id="edge4_Node000003_Node000002" class="edge">
<title>Node2&#45;&gt;Node3</title>
<g id="a_edge4_Node000003_Node000002"><a xlink:title=" ">
<path fill="none" stroke="#9a32cd" stroke-dasharray="5,2" d="M183.54,-93.84C249.27,-95.47 338.42,-97.87 417,-100.59 445.57,-101.57 476.87,-102.84 504.58,-104.02"/>
<polygon fill="#9a32cd" stroke="#9a32cd" points="183.28,-90.33 173.19,-93.58 183.1,-97.33 183.28,-90.33"/>
</a>
</g>
<text text-anchor="middle" x="335" y="-103.59" font-family="Helvetica,sans-Serif" font-size="10.00" fill="grey"> LOGGER</text>
</g>
<!-- Node5 -->
<g id="Node000005" class="node">
<title>Node5</title>
<g id="a_Node000005"><a xlink:href="classcom_1_1teragrep_1_1pth__06_1_1planner_1_1GetArchivedObjectsFilterTable.html" target="_top" xlink:title=" ">
<polygon fill="white" stroke="#666666" points="417,-55.59 253,-55.59 253,-25.59 417,-25.59 417,-55.59"/>
<text text-anchor="start" x="261" y="-43.59" font-family="Helvetica,sans-Serif" font-size="10.00">com.teragrep.pth_06.planner.</text>
<text text-anchor="middle" x="335" y="-32.59" font-family="Helvetica,sans-Serif" font-size="10.00">GetArchivedObjectsFilterTable</text>
</a>
</g>
</g>
<!-- Node2&#45;&gt;Node5 -->
<g id="edge6_Node000005_Node000002" class="edge">
<title>Node2&#45;&gt;Node5</title>
<g id="a_edge6_Node000005_Node000002"><a xlink:title=" ">
<path fill="none" stroke="#9a32cd" stroke-dasharray="5,2" d="M157.13,-74.19C168.43,-71.53 180.02,-68.91 191,-66.59 211,-62.36 232.66,-58.2 252.92,-54.49"/>
<polygon fill="#9a32cd" stroke="#9a32cd" points="156.22,-70.81 147.3,-76.53 157.84,-77.62 156.22,-70.81"/>
</a>
</g>
<text text-anchor="middle" x="213" y="-69.59" font-family="Helvetica,sans-Serif" font-size="10.00" fill="grey"> logger</text>
</g>
<!-- Node6 -->
<g id="Node000006" class="node">
<title>Node6</title>
<g id="a_Node000006"><a xlink:href="classcom_1_1teragrep_1_1pth__06_1_1planner_1_1NestedTopNQuery.html" target="_top" xlink:title=" ">
<polygon fill="white" stroke="#666666" points="951,-88.59 791,-88.59 791,-58.59 951,-58.59 951,-88.59"/>
<text text-anchor="start" x="799" y="-76.59" font-family="Helvetica,sans-Serif" font-size="10.00">com.teragrep.pth_06.planner.</text>
<text text-anchor="middle" x="871" y="-65.59" font-family="Helvetica,sans-Serif" font-size="10.00">NestedTopNQuery</text>
</a>
</g>
</g>
<!-- Node2&#45;&gt;Node6 -->
<g id="edge8_Node000006_Node000002" class="edge">
<title>Node2&#45;&gt;Node6</title>
<g id="a_edge8_Node000006_Node000002"><a xlink:title=" ">
<path fill="none" stroke="#9a32cd" stroke-dasharray="5,2" d="M120.89,-71.3C153.31,-52.88 204.59,-27.04 253,-16.59 459.62,28.05 712.57,-29.42 818.99,-58.55"/>
<polygon fill="#9a32cd" stroke="#9a32cd" points="118.77,-68.49 111.86,-76.52 122.27,-74.55 118.77,-68.49"/>
</a>
</g>
<text text-anchor="middle" x="461" y="-5.59" font-family="Helvetica,sans-Serif" font-size="10.00" fill="grey"> logger</text>
</g>
<!-- Node7 -->
<g id="Node000007" class="node">
<title>Node7</title>
<g id="a_Node000007"><a xlink:href="classcom_1_1teragrep_1_1pth__06_1_1planner_1_1SliceTable.html" target="_top" xlink:title=" ">
<polygon fill="white" stroke="#666666" points="415,-188.59 255,-188.59 255,-158.59 415,-158.59 415,-188.59"/>
<text text-anchor="start" x="263" y="-176.59" font-family="Helvetica,sans-Serif" font-size="10.00">com.teragrep.pth_06.planner.</text>
<text text-anchor="middle" x="335" y="-165.59" font-family="Helvetica,sans-Serif" font-size="10.00">SliceTable</text>
</a>
</g>
</g>
<!-- Node2&#45;&gt;Node7 -->
<g id="edge11_Node000007_Node000002" class="edge">
<title>Node2&#45;&gt;Node7</title>
<g id="a_edge11_Node000007_Node000002"><a xlink:title=" ">
<path fill="none" stroke="#9a32cd" stroke-dasharray="5,2" d="M139.64,-110.02C172.15,-121.4 214.91,-136.15 253,-148.59 263.07,-151.87 273.89,-155.29 284.23,-158.5"/>
<polygon fill="#9a32cd" stroke="#9a32cd" points="140.49,-106.61 129.89,-106.61 138.17,-113.22 140.49,-106.61"/>
</a>
</g>
<text text-anchor="middle" x="213" y="-146.59" font-family="Helvetica,sans-Serif" font-size="10.00" fill="grey"> LOGGER</text>
</g>
<!-- Node3&#45;&gt;Node1 -->
<g id="edge2_Node000001_Node000003" class="edge">
<title>Node3&#45;&gt;Node1</title>
<g id="a_edge2_Node000001_Node000003"><a xlink:title=" ">
<path fill="none" stroke="#9a32cd" stroke-dasharray="5,2" d="M644.92,-125.63C697.01,-141.59 772.11,-164.6 820.98,-179.57"/>
<polygon fill="#9a32cd" stroke="#9a32cd" points="645.73,-122.22 635.14,-122.64 643.68,-128.92 645.73,-122.22"/>
</a>
</g>
<text text-anchor="middle" x="728" y="-167.59" font-family="Helvetica,sans-Serif" font-size="10.00" fill="grey"> streamDBClient</text>
</g>
<!-- Node3&#45;&gt;Node6 -->
<g id="edge9_Node000006_Node000003" class="edge">
<title>Node3&#45;&gt;Node6</title>
<g id="a_edge9_Node000006_Node000003"><a xlink:title=" ">
<path fill="none" stroke="#9a32cd" stroke-dasharray="5,2" d="M628.35,-88.71C645.03,-82.23 664.57,-75.81 683,-72.59 718.02,-66.46 757.29,-65.76 790.77,-66.96"/>
<polygon fill="#9a32cd" stroke="#9a32cd" points="626.87,-85.53 618.89,-92.5 629.47,-92.03 626.87,-85.53"/>
</a>
</g>
<text text-anchor="middle" x="728" y="-75.59" font-family="Helvetica,sans-Serif" font-size="10.00" fill="grey"> streamDBClient</text>
</g>
<!-- Node4 -->
<g id="Node000004" class="node">
<title>Node4</title>
<g id="a_Node000004"><a xlink:title=" ">
<polygon fill="white" stroke="#666666" points="378.5,-140.09 291.5,-140.09 291.5,-121.09 378.5,-121.09 378.5,-140.09"/>
<text text-anchor="middle" x="335" y="-128.09" font-family="Helvetica,sans-Serif" font-size="10.00">AutoCloseable</text>
</a>
</g>
</g>
<!-- Node4&#45;&gt;Node3 -->
<g id="edge3_Node000003_Node000004" class="edge">
<title>Node4&#45;&gt;Node3</title>
<g id="a_edge3_Node000003_Node000004"><a xlink:title=" ">
<path fill="none" stroke="#63b8ff" d="M388.75,-125.69C422.52,-122.56 466.96,-118.44 504.91,-114.92"/>
<polygon fill="#63b8ff" stroke="#63b8ff" points="388.27,-122.22 378.63,-126.63 388.91,-129.19 388.27,-122.22"/>
</a>
</g>
</g>
<!-- Node5&#45;&gt;Node3 -->
<g id="edge5_Node000003_Node000005" class="edge">
<title>Node5&#45;&gt;Node3</title>
<g id="a_edge5_Node000003_Node000005"><a xlink:title=" ">
<path fill="none" stroke="#9a32cd" stroke-dasharray="5,2" d="M427.12,-52.8C447.05,-56.43 467.89,-60.98 487,-66.59 509.81,-73.27 534.46,-83.74 553.21,-92.43"/>
<polygon fill="#9a32cd" stroke="#9a32cd" points="427.56,-49.33 417.11,-51.04 426.35,-56.22 427.56,-49.33"/>
</a>
</g>
<text text-anchor="middle" x="461" y="-69.59" font-family="Helvetica,sans-Serif" font-size="10.00" fill="grey"> filterTable</text>
</g>
<!-- Node6&#45;&gt;Node3 -->
<g id="edge7_Node000003_Node000006" class="edge">
<title>Node6&#45;&gt;Node3</title>
<g id="a_edge7_Node000003_Node000006"><a xlink:title=" ">
<path fill="none" stroke="#9a32cd" stroke-dasharray="5,2" d="M780.73,-84.65C778.12,-84.97 775.54,-85.28 773,-85.59 737.63,-89.85 698.47,-94.48 665.17,-98.38"/>
<polygon fill="#9a32cd" stroke="#9a32cd" points="781.36,-88.1 790.86,-83.42 780.51,-81.15 781.36,-88.1"/>
</a>
</g>
<text text-anchor="middle" x="728" y="-99.59" font-family="Helvetica,sans-Serif" font-size="10.00" fill="grey"> nestedTopNQuery</text>
</g>
<!-- Node7&#45;&gt;Node3 -->
<g id="edge10_Node000003_Node000007" class="edge">
<title>Node7&#45;&gt;Node3</title>
<g id="a_edge10_Node000003_Node000007"><a xlink:title=" ">
<path fill="none" stroke="#9a32cd" stroke-dasharray="5,2" d="M402.85,-155.92C429.09,-148.98 459.46,-140.92 487,-133.59 500.31,-130.04 514.64,-126.21 528.1,-122.6"/>
<polygon fill="#9a32cd" stroke="#9a32cd" points="401.79,-152.58 393.01,-158.52 403.58,-159.35 401.79,-152.58"/>
</a>
</g>
<text text-anchor="middle" x="461" y="-150.59" font-family="Helvetica,sans-Serif" font-size="10.00" fill="grey"> sliceTable</text>
</g>
</g>
</svg>
