<?xml version="1.0" encoding="UTF-8" standalone="no"?>
<!DOCTYPE svg PUBLIC "-//W3C//DTD SVG 1.1//EN"
 "http://www.w3.org/Graphics/SVG/1.1/DTD/svg11.dtd">
<!-- Generated by graphviz version 2.43.0 (0)
 -->
<!-- Title: com.teragrep.pth_06.planner.walker.conditions.IndexCondition.condition Pages: 1 -->
<svg width="546pt" height="326pt"
 viewBox="0.00 0.00 546.00 326.00" xmlns="http://www.w3.org/2000/svg" xmlns:xlink="http://www.w3.org/1999/xlink">
<g id="graph0" class="graph" transform="scale(1 1) rotate(0) translate(4 322)">
<title>com.teragrep.pth_06.planner.walker.conditions.IndexCondition.condition</title>
<!-- Node1 -->
<g id="Node000001" class="node">
<title>Node1</title>
<g id="a_Node000001"><a xlink:title=" ">
<polygon fill="#999999" stroke="#666666" points="538,-174 290,-174 290,-144 538,-144 538,-174"/>
<text text-anchor="start" x="298" y="-162" font-family="Helvetica,sans-Serif" font-size="10.00">com.teragrep.pth_06.planner.walker.conditions.</text>
<text text-anchor="middle" x="414" y="-151" font-family="Helvetica,sans-Serif" font-size="10.00">IndexCondition.condition</text>
</a>
</g>
</g>
<!-- Node2 -->
<g id="Node000002" class="node">
<title>Node2</title>
<g id="a_Node000002"><a xlink:href="classcom_1_1teragrep_1_1pth__06_1_1planner_1_1walker_1_1conditions_1_1IndexConditionTest.html#a0634fb1173f568590e68a4797948452f" target="_top" xlink:title=" ">
<polygon fill="white" stroke="#666666" points="251,-318 3,-318 3,-288 251,-288 251,-318"/>
<text text-anchor="start" x="11" y="-306" font-family="Helvetica,sans-Serif" font-size="10.00">com.teragrep.pth_06.planner.walker.conditions.</text>
<text text-anchor="middle" x="127" y="-295" font-family="Helvetica,sans-Serif" font-size="10.00">IndexConditionTest.conditionTest</text>
</a>
</g>
</g>
<!-- Node1&#45;&gt;Node2 -->
<g id="edge1_Node000001_Node000002" class="edge">
<title>Node1&#45;&gt;Node2</title>
<g id="a_edge1_Node000001_Node000002"><a xlink:title=" ">
<path fill="none" stroke="#63b8ff" d="M390.36,-181.57C361.36,-209.09 308.33,-254.91 254,-279 246.16,-282.48 237.83,-285.45 229.34,-287.99"/>
<polygon fill="#63b8ff" stroke="#63b8ff" points="393.11,-183.78 397.89,-174.32 388.25,-178.74 393.11,-183.78"/>
</a>
</g>
</g>
<!-- Node3 -->
<g id="Node000003" class="node">
<title>Node3</title>
<g id="a_Node000003"><a xlink:href="classcom_1_1teragrep_1_1pth__06_1_1planner_1_1walker_1_1conditions_1_1IndexConditionTest.html#a88d86d8a4d7b500a187f10a1141e5fc8" target="_top" xlink:title=" ">
<polygon fill="white" stroke="#666666" points="251,-270 3,-270 3,-240 251,-240 251,-270"/>
<text text-anchor="start" x="11" y="-258" font-family="Helvetica,sans-Serif" font-size="10.00">com.teragrep.pth_06.planner.walker.conditions.</text>
<text text-anchor="middle" x="127" y="-247" font-family="Helvetica,sans-Serif" font-size="10.00">IndexConditionTest.equalsTest</text>
</a>
</g>
</g>
<!-- Node1&#45;&gt;Node3 -->
<g id="edge2_Node000001_Node000003" class="edge">
<title>Node1&#45;&gt;Node3</title>
<g id="a_edge2_Node000001_Node000003"><a xlink:title=" ">
<path fill="none" stroke="#63b8ff" d="M376.19,-178.69C344.58,-194.86 297.38,-217.26 254,-231 243.28,-234.4 231.89,-237.39 220.5,-240"/>
<polygon fill="#63b8ff" stroke="#63b8ff" points="377.8,-181.8 385.08,-174.1 374.59,-175.58 377.8,-181.8"/>
</a>
</g>
</g>
<!-- Node4 -->
<g id="Node000004" class="node">
<title>Node4</title>
<g id="a_Node000004"><a xlink:href="classcom_1_1teragrep_1_1pth__06_1_1planner_1_1walker_1_1conditions_1_1IndexConditionTest.html#a074a653d417c279a1d728dd333084a71" target="_top" xlink:title=" ">
<polygon fill="white" stroke="#666666" points="251,-222 3,-222 3,-192 251,-192 251,-222"/>
<text text-anchor="start" x="11" y="-210" font-family="Helvetica,sans-Serif" font-size="10.00">com.teragrep.pth_06.planner.walker.conditions.</text>
<text text-anchor="middle" x="127" y="-199" font-family="Helvetica,sans-Serif" font-size="10.00">IndexConditionTest.negationTest</text>
</a>
</g>
</g>
<!-- Node1&#45;&gt;Node4 -->
<g id="edge3_Node000001_Node000004" class="edge">
<title>Node1&#45;&gt;Node4</title>
<g id="a_edge3_Node000001_Node000004"><a xlink:title=" ">
<path fill="none" stroke="#63b8ff" d="M313.53,-175.75C282.15,-181.04 247.69,-186.84 217.08,-192"/>
<polygon fill="#63b8ff" stroke="#63b8ff" points="314.33,-179.17 323.61,-174.06 313.16,-172.27 314.33,-179.17"/>
</a>
</g>
</g>
<!-- Node5 -->
<g id="Node000005" class="node">
<title>Node5</title>
<g id="a_Node000005"><a xlink:href="classcom_1_1teragrep_1_1pth__06_1_1planner_1_1walker_1_1conditions_1_1IndexConditionTest.html#aecac864eb019369aef22927fba31960b" target="_top" xlink:title=" ">
<polygon fill="white" stroke="#666666" points="251,-174 3,-174 3,-144 251,-144 251,-174"/>
<text text-anchor="start" x="11" y="-162" font-family="Helvetica,sans-Serif" font-size="10.00">com.teragrep.pth_06.planner.walker.conditions.</text>
<text text-anchor="middle" x="127" y="-151" font-family="Helvetica,sans-Serif" font-size="10.00">IndexConditionTest.testPartialWildcard</text>
</a>
</g>
</g>
<!-- Node1&#45;&gt;Node5 -->
<g id="edge4_Node000001_Node000005" class="edge">
<title>Node1&#45;&gt;Node5</title>
<g id="a_edge4_Node000001_Node000005"><a xlink:title=" ">
<path fill="none" stroke="#63b8ff" d="M279.43,-159C269.98,-159 260.47,-159 251.08,-159"/>
<polygon fill="#63b8ff" stroke="#63b8ff" points="279.65,-162.5 289.65,-159 279.65,-155.5 279.65,-162.5"/>
</a>
</g>
</g>
<!-- Node6 -->
<g id="Node000006" class="node">
<title>Node6</title>
<g id="a_Node000006"><a xlink:href="classcom_1_1teragrep_1_1pth__06_1_1planner_1_1walker_1_1conditions_1_1IndexConditionTest.html#abde474b71464e4cf751663d4ade3a66d" target="_top" xlink:title=" ">
<polygon fill="white" stroke="#666666" points="251.5,-126 2.5,-126 2.5,-96 251.5,-96 251.5,-126"/>
<text text-anchor="start" x="10.5" y="-114" font-family="Helvetica,sans-Serif" font-size="10.00">com.teragrep.pth_06.planner.walker.conditions.</text>
<text text-anchor="middle" x="127" y="-103" font-family="Helvetica,sans-Serif" font-size="10.00">IndexConditionTest.testPartialWildcardNegation</text>
</a>
</g>
</g>
<!-- Node1&#45;&gt;Node6 -->
<g id="edge5_Node000001_Node000006" class="edge">
<title>Node1&#45;&gt;Node6</title>
<g id="a_edge5_Node000001_Node000006"><a xlink:title=" ">
<path fill="none" stroke="#63b8ff" d="M313.53,-142.25C282.15,-136.96 247.69,-131.16 217.08,-126"/>
<polygon fill="#63b8ff" stroke="#63b8ff" points="313.16,-145.73 323.61,-143.94 314.33,-138.83 313.16,-145.73"/>
</a>
</g>
</g>
<!-- Node7 -->
<g id="Node000007" class="node">
<title>Node7</title>
<g id="a_Node000007"><a xlink:href="classcom_1_1teragrep_1_1pth__06_1_1planner_1_1walker_1_1conditions_1_1IndexConditionTest.html#a573db62e7987faf80014d6c28b6e88a4" target="_top" xlink:title=" ">
<polygon fill="white" stroke="#666666" points="251,-78 3,-78 3,-48 251,-48 251,-78"/>
<text text-anchor="start" x="11" y="-66" font-family="Helvetica,sans-Serif" font-size="10.00">com.teragrep.pth_06.planner.walker.conditions.</text>
<text text-anchor="middle" x="127" y="-55" font-family="Helvetica,sans-Serif" font-size="10.00">IndexConditionTest.wildcardAsTrueTest</text>
</a>
</g>
</g>
<!-- Node1&#45;&gt;Node7 -->
<g id="edge6_Node000001_Node000007" class="edge">
<title>Node1&#45;&gt;Node7</title>
<g id="a_edge6_Node000001_Node000007"><a xlink:title=" ">
<path fill="none" stroke="#63b8ff" d="M376.19,-139.31C344.58,-123.14 297.38,-100.74 254,-87 243.28,-83.6 231.89,-80.61 220.5,-78"/>
<polygon fill="#63b8ff" stroke="#63b8ff" points="374.59,-142.42 385.08,-143.9 377.8,-136.2 374.59,-142.42"/>
</a>
</g>
</g>
<!-- Node8 -->
<g id="Node000008" class="node">
<title>Node8</title>
<g id="a_Node000008"><a xlink:href="classcom_1_1teragrep_1_1pth__06_1_1planner_1_1walker_1_1conditions_1_1IndexConditionTest.html#a4004c2bc04159576e79677a9b34f7cb8" target="_top" xlink:title=" ">
<polygon fill="white" stroke="#666666" points="254,-30 0,-30 0,0 254,0 254,-30"/>
<text text-anchor="start" x="8" y="-18" font-family="Helvetica,sans-Serif" font-size="10.00">com.teragrep.pth_06.planner.walker.conditions.</text>
<text text-anchor="middle" x="127" y="-7" font-family="Helvetica,sans-Serif" font-size="10.00">IndexConditionTest.wildcardNegationAsFalseTest</text>
</a>
</g>
</g>
<!-- Node1&#45;&gt;Node8 -->
<g id="edge7_Node000001_Node000008" class="edge">
<title>Node1&#45;&gt;Node8</title>
<g id="a_edge7_Node000001_Node000008"><a xlink:title=" ">
<path fill="none" stroke="#63b8ff" d="M390.36,-136.43C361.36,-108.91 308.33,-63.09 254,-39 246.16,-35.52 237.83,-32.55 229.34,-30.01"/>
<polygon fill="#63b8ff" stroke="#63b8ff" points="388.25,-139.26 397.89,-143.68 393.11,-134.22 388.25,-139.26"/>
</a>
</g>
</g>
</g>
</svg>
