<?xml version="1.0" encoding="UTF-8" standalone="no"?>
<!DOCTYPE svg PUBLIC "-//W3C//DTD SVG 1.1//EN"
 "http://www.w3.org/Graphics/SVG/1.1/DTD/svg11.dtd">
<!-- Generated by graphviz version 2.43.0 (0)
 -->
<!-- Title: com.teragrep.pth_06.jooq.generated.journaldb.tables.records.LogfileRecord Pages: 1 -->
<svg width="562pt" height="142pt"
 viewBox="0.00 0.00 562.00 141.50" xmlns="http://www.w3.org/2000/svg" xmlns:xlink="http://www.w3.org/1999/xlink">
<g id="graph0" class="graph" transform="scale(1 1) rotate(0) translate(4 137.5)">
<title>com.teragrep.pth_06.jooq.generated.journaldb.tables.records.LogfileRecord</title>
<!-- Node1 -->
<g id="Node000001" class="node">
<title>Node1</title>
<g id="a_Node000001"><a xlink:title="Contains information for log files that have been run through Log Archiver.">
<polygon fill="#999999" stroke="#666666" points="554,-95.5 236,-95.5 236,-65.5 554,-65.5 554,-95.5"/>
<text text-anchor="start" x="244" y="-83.5" font-family="Helvetica,sans-Serif" font-size="10.00">com.teragrep.pth_06.jooq.generated.journaldb.tables.records.</text>
<text text-anchor="middle" x="395" y="-72.5" font-family="Helvetica,sans-Serif" font-size="10.00">LogfileRecord</text>
</a>
</g>
</g>
<!-- Node2 -->
<g id="Node000002" class="node">
<title>Node2</title>
<g id="a_Node000002"><a xlink:title=" ">
<polygon fill="white" stroke="#666666" points="161,-133.5 39,-133.5 39,-103.5 161,-103.5 161,-133.5"/>
<text text-anchor="start" x="47" y="-121.5" font-family="Helvetica,sans-Serif" font-size="10.00">UpdatableRecordImpl</text>
<text text-anchor="middle" x="100" y="-110.5" font-family="Helvetica,sans-Serif" font-size="10.00">&lt; LogfileRecord &gt;</text>
</a>
</g>
</g>
<!-- Node2&#45;&gt;Node1 -->
<g id="edge1_Node000001_Node000002" class="edge">
<title>Node2&#45;&gt;Node1</title>
<g id="a_edge1_Node000001_Node000002"><a xlink:title=" ">
<path fill="none" stroke="#63b8ff" d="M171.5,-109.36C203.52,-105.2 242.24,-100.18 278.34,-95.5"/>
<polygon fill="#63b8ff" stroke="#63b8ff" points="170.82,-105.92 161.35,-110.67 171.72,-112.86 170.82,-105.92"/>
</a>
</g>
</g>
<!-- Node3 -->
<g id="Node000003" class="node">
<title>Node3</title>
<g id="a_Node000003"><a xlink:title=" ">
<polygon fill="white" stroke="#666666" points="200,-85 0,-85 0,0 200,0 200,-85"/>
<text text-anchor="start" x="8" y="-73" font-family="Helvetica,sans-Serif" font-size="10.00">Record22&lt; ULong, Date,</text>
<text text-anchor="start" x="8" y="-62" font-family="Helvetica,sans-Serif" font-size="10.00"> Date, UShort, String,</text>
<text text-anchor="start" x="8" y="-51" font-family="Helvetica,sans-Serif" font-size="10.00"> String, UShort, String,</text>
<text text-anchor="start" x="8" y="-40" font-family="Helvetica,sans-Serif" font-size="10.00"> Timestamp, ULong, String,</text>
<text text-anchor="start" x="8" y="-29" font-family="Helvetica,sans-Serif" font-size="10.00"> String, String, UShort, UShort,</text>
<text text-anchor="start" x="8" y="-18" font-family="Helvetica,sans-Serif" font-size="10.00"> ULong, ULong, ULong, ULong, ULong,</text>
<text text-anchor="middle" x="100" y="-7" font-family="Helvetica,sans-Serif" font-size="10.00"> ULong, ULong &gt;</text>
</a>
</g>
</g>
<!-- Node3&#45;&gt;Node1 -->
<g id="edge2_Node000001_Node000003" class="edge">
<title>Node3&#45;&gt;Node1</title>
<g id="a_edge2_Node000001_Node000003"><a xlink:title=" ">
<path fill="none" stroke="#63b8ff" d="M210.29,-56.67C232.45,-59.55 255.83,-62.58 278.21,-65.48"/>
<polygon fill="#63b8ff" stroke="#63b8ff" points="210.56,-53.18 200.2,-55.37 209.66,-60.12 210.56,-53.18"/>
</a>
</g>
</g>
</g>
</svg>
