<?xml version="1.0" encoding="UTF-8" standalone="no"?>
<!DOCTYPE svg PUBLIC "-//W3C//DTD SVG 1.1//EN"
 "http://www.w3.org/Graphics/SVG/1.1/DTD/svg11.dtd">
<!-- Generated by graphviz version 2.43.0 (0)
 -->
<!-- Title: com.teragrep.pth_06.task.s3.EpochMigrationRowConverterTest.testSyslogConversion Pages: 1 -->
<svg width="406pt" height="86pt"
 viewBox="0.00 0.00 406.00 86.00" xmlns="http://www.w3.org/2000/svg" xmlns:xlink="http://www.w3.org/1999/xlink">
<g id="graph0" class="graph" transform="scale(1 1) rotate(0) translate(4 82)">
<title>com.teragrep.pth_06.task.s3.EpochMigrationRowConverterTest.testSyslogConversion</title>
<!-- Node1 -->
<g id="Node000001" class="node">
<title>Node1</title>
<g id="a_Node000001"><a xlink:title=" ">
<polygon fill="#999999" stroke="#666666" points="203,-59.5 0,-59.5 0,-18.5 203,-18.5 203,-59.5"/>
<text text-anchor="start" x="8" y="-47.5" font-family="Helvetica,sans-Serif" font-size="10.00">com.teragrep.pth_06.task.s3.</text>
<text text-anchor="start" x="8" y="-36.5" font-family="Helvetica,sans-Serif" font-size="10.00">EpochMigrationRowConverterTest.test</text>
<text text-anchor="middle" x="101.5" y="-25.5" font-family="Helvetica,sans-Serif" font-size="10.00">SyslogConversion</text>
</a>
</g>
</g>
<!-- Node2 -->
<g id="Node000002" class="node">
<title>Node2</title>
<g id="a_Node000002"><a xlink:href="interfacecom_1_1teragrep_1_1pth__06_1_1task_1_1s3_1_1RowConverter.html#a93e9a08ca2f202c0a41252b44d6b8bff" target="_top" xlink:title=" ">
<polygon fill="white" stroke="#666666" points="398,-78 239,-78 239,-48 398,-48 398,-78"/>
<text text-anchor="start" x="247" y="-66" font-family="Helvetica,sans-Serif" font-size="10.00">com.teragrep.pth_06.task.s3.</text>
<text text-anchor="middle" x="318.5" y="-55" font-family="Helvetica,sans-Serif" font-size="10.00">RowConverter.get</text>
</a>
</g>
</g>
<!-- Node1&#45;&gt;Node2 -->
<g id="edge1_Node000001_Node000002" class="edge">
<title>Node1&#45;&gt;Node2</title>
<g id="a_edge1_Node000001_Node000002"><a xlink:title=" ">
<path fill="none" stroke="#63b8ff" d="M203.08,-50.23C211.62,-51.18 220.23,-52.14 228.67,-53.08"/>
<polygon fill="#63b8ff" stroke="#63b8ff" points="228.56,-56.59 238.88,-54.22 229.33,-49.64 228.56,-56.59"/>
</a>
</g>
</g>
<!-- Node3 -->
<g id="Node000003" class="node">
<title>Node3</title>
<g id="a_Node000003"><a xlink:href="interfacecom_1_1teragrep_1_1pth__06_1_1task_1_1s3_1_1RowConverter.html#a2d2520e119db0be65c3e5550fe47020c" target="_top" xlink:title=" ">
<polygon fill="white" stroke="#666666" points="398,-30 239,-30 239,0 398,0 398,-30"/>
<text text-anchor="start" x="247" y="-18" font-family="Helvetica,sans-Serif" font-size="10.00">com.teragrep.pth_06.task.s3.</text>
<text text-anchor="middle" x="318.5" y="-7" font-family="Helvetica,sans-Serif" font-size="10.00">RowConverter.next</text>
</a>
</g>
</g>
<!-- Node1&#45;&gt;Node3 -->
<g id="edge2_Node000001_Node000003" class="edge">
<title>Node1&#45;&gt;Node3</title>
<g id="a_edge2_Node000001_Node000003"><a xlink:title=" ">
<path fill="none" stroke="#63b8ff" d="M203.08,-27.77C211.62,-26.82 220.23,-25.86 228.67,-24.92"/>
<polygon fill="#63b8ff" stroke="#63b8ff" points="229.33,-28.36 238.88,-23.78 228.56,-21.41 229.33,-28.36"/>
</a>
</g>
</g>
</g>
</svg>
