<?xml version="1.0" encoding="UTF-8" standalone="no"?>
<!DOCTYPE svg PUBLIC "-//W3C//DTD SVG 1.1//EN"
 "http://www.w3.org/Graphics/SVG/1.1/DTD/svg11.dtd">
<!-- Generated by graphviz version 2.43.0 (0)
 -->
<!-- Title: com.teragrep.pth_06.scheduler.Batch.addSlice Pages: 1 -->
<svg width="387pt" height="86pt"
 viewBox="0.00 0.00 387.00 86.00" xmlns="http://www.w3.org/2000/svg" xmlns:xlink="http://www.w3.org/1999/xlink">
<g id="graph0" class="graph" transform="scale(1 1) rotate(0) translate(4 82)">
<title>com.teragrep.pth_06.scheduler.Batch.addSlice</title>
<!-- Node1 -->
<g id="Node000001" class="node">
<title>Node1</title>
<g id="a_Node000001"><a xlink:title=" ">
<polygon fill="#999999" stroke="#666666" points="170,-54 0,-54 0,-24 170,-24 170,-54"/>
<text text-anchor="start" x="8" y="-42" font-family="Helvetica,sans-Serif" font-size="10.00">com.teragrep.pth_06.scheduler.</text>
<text text-anchor="middle" x="85" y="-31" font-family="Helvetica,sans-Serif" font-size="10.00">Batch.addSlice</text>
</a>
</g>
</g>
<!-- Node2 -->
<g id="Node000002" class="node">
<title>Node2</title>
<g id="a_Node000002"><a xlink:href="classcom_1_1teragrep_1_1pth__06_1_1scheduler_1_1BatchTaskQueue.html#af45361c6f8feebc3ce8ab09fb5b4494d" target="_top" xlink:title=" ">
<polygon fill="white" stroke="#666666" points="379,-78 206,-78 206,-48 379,-48 379,-78"/>
<text text-anchor="start" x="214" y="-66" font-family="Helvetica,sans-Serif" font-size="10.00">com.teragrep.pth_06.scheduler.</text>
<text text-anchor="middle" x="292.5" y="-55" font-family="Helvetica,sans-Serif" font-size="10.00">BatchTaskQueue.getQueueTime</text>
</a>
</g>
</g>
<!-- Node1&#45;&gt;Node2 -->
<g id="edge1_Node000001_Node000002" class="edge">
<title>Node1&#45;&gt;Node2</title>
<g id="a_edge1_Node000001_Node000002"><a xlink:title=" ">
<path fill="none" stroke="#63b8ff" d="M170.18,-48.83C178.62,-49.82 187.24,-50.82 195.79,-51.82"/>
<polygon fill="#63b8ff" stroke="#63b8ff" points="195.45,-55.31 205.79,-52.99 196.26,-48.35 195.45,-55.31"/>
</a>
</g>
</g>
<!-- Node3 -->
<g id="Node000003" class="node">
<title>Node3</title>
<g id="a_Node000003"><a xlink:href="classcom_1_1teragrep_1_1pth__06_1_1scheduler_1_1BatchSlice.html#a924403c9b17d1af7ed974097ba972a65" target="_top" xlink:title=" ">
<polygon fill="white" stroke="#666666" points="377.5,-30 207.5,-30 207.5,0 377.5,0 377.5,-30"/>
<text text-anchor="start" x="215.5" y="-18" font-family="Helvetica,sans-Serif" font-size="10.00">com.teragrep.pth_06.scheduler.</text>
<text text-anchor="middle" x="292.5" y="-7" font-family="Helvetica,sans-Serif" font-size="10.00">BatchSlice.getSize</text>
</a>
</g>
</g>
<!-- Node1&#45;&gt;Node3 -->
<g id="edge2_Node000001_Node000003" class="edge">
<title>Node1&#45;&gt;Node3</title>
<g id="a_edge2_Node000001_Node000003"><a xlink:title=" ">
<path fill="none" stroke="#63b8ff" d="M170.18,-29.17C179.12,-28.13 188.25,-27.06 197.29,-26"/>
<polygon fill="#63b8ff" stroke="#63b8ff" points="197.93,-29.45 207.45,-24.82 197.11,-22.5 197.93,-29.45"/>
</a>
</g>
</g>
</g>
</svg>
