<?xml version="1.0" encoding="UTF-8" standalone="no"?>
<!DOCTYPE svg PUBLIC "-//W3C//DTD SVG 1.1//EN"
 "http://www.w3.org/Graphics/SVG/1.1/DTD/svg11.dtd">
<!-- Generated by graphviz version 2.43.0 (0)
 -->
<!-- Title: com.teragrep.pth_06.planner.walker.conditions.ElementCondition.condition Pages: 1 -->
<svg width="1108pt" height="182pt"
 viewBox="0.00 0.00 1108.00 182.00" xmlns="http://www.w3.org/2000/svg" xmlns:xlink="http://www.w3.org/1999/xlink">
<g id="graph0" class="graph" transform="scale(1 1) rotate(0) translate(4 178)">
<title>com.teragrep.pth_06.planner.walker.conditions.ElementCondition.condition</title>
<!-- Node1 -->
<g id="Node000001" class="node">
<title>Node1</title>
<g id="a_Node000001"><a xlink:title=" ">
<polygon fill="#999999" stroke="#666666" points="248,-102 0,-102 0,-72 248,-72 248,-102"/>
<text text-anchor="start" x="8" y="-90" font-family="Helvetica,sans-Serif" font-size="10.00">com.teragrep.pth_06.planner.walker.conditions.</text>
<text text-anchor="middle" x="124" y="-79" font-family="Helvetica,sans-Serif" font-size="10.00">ElementCondition.condition</text>
</a>
</g>
</g>
<!-- Node2 -->
<g id="Node000002" class="node">
<title>Node2</title>
<g id="a_Node000002"><a xlink:href="classcom_1_1teragrep_1_1pth__06_1_1planner_1_1walker_1_1conditions_1_1ElementCondition.html#ad598b3368f8fca059dfc07a49d352f31" target="_top" xlink:title=" ">
<polygon fill="white" stroke="#666666" points="532,-126 284,-126 284,-96 532,-96 532,-126"/>
<text text-anchor="start" x="292" y="-114" font-family="Helvetica,sans-Serif" font-size="10.00">com.teragrep.pth_06.planner.walker.conditions.</text>
<text text-anchor="middle" x="408" y="-103" font-family="Helvetica,sans-Serif" font-size="10.00">ElementCondition.conditionForJournalDBQuery</text>
</a>
</g>
</g>
<!-- Node1&#45;&gt;Node2 -->
<g id="edge1_Node000001_Node000002" class="edge">
<title>Node1&#45;&gt;Node2</title>
<g id="a_edge1_Node000001_Node000002"><a xlink:title=" ">
<path fill="none" stroke="#63b8ff" d="M248.28,-90.79C264.33,-92.07 280.69,-93.49 296.51,-94.99"/>
<polygon fill="#63b8ff" stroke="#63b8ff" points="296.53,-98.51 306.82,-95.98 297.2,-91.54 296.53,-98.51"/>
</a>
</g>
</g>
<!-- Node8 -->
<g id="Node000008" class="node">
<title>Node8</title>
<g id="a_Node000008"><a xlink:href="classcom_1_1teragrep_1_1pth__06_1_1planner_1_1walker_1_1conditions_1_1ElementCondition.html#ad1faef74318cb350165bbeafd562ecde" target="_top" xlink:title=" ">
<polygon fill="white" stroke="#666666" points="532,-78 284,-78 284,-48 532,-48 532,-78"/>
<text text-anchor="start" x="292" y="-66" font-family="Helvetica,sans-Serif" font-size="10.00">com.teragrep.pth_06.planner.walker.conditions.</text>
<text text-anchor="middle" x="408" y="-55" font-family="Helvetica,sans-Serif" font-size="10.00">ElementCondition.conditionForStreamDBQuery</text>
</a>
</g>
</g>
<!-- Node1&#45;&gt;Node8 -->
<g id="edge10_Node000001_Node000008" class="edge">
<title>Node1&#45;&gt;Node8</title>
<g id="a_edge10_Node000001_Node000008"><a xlink:title=" ">
<path fill="none" stroke="#63b8ff" d="M225.22,-71.98C240.95,-70.44 257.42,-68.95 273.76,-67.6"/>
<polygon fill="#63b8ff" stroke="#63b8ff" points="274.22,-71.07 283.9,-66.78 273.65,-64.1 274.22,-71.07"/>
</a>
</g>
</g>
<!-- Node2&#45;&gt;Node1 -->
<g id="edge2_Node000002_Node000001" class="edge">
<title>Node2&#45;&gt;Node1</title>
<g id="a_edge2_Node000002_Node000001"><a xlink:title=" ">
<path fill="none" stroke="#63b8ff" d="M283.9,-107.22C267.82,-105.94 251.41,-104.52 235.55,-103.02"/>
<polygon fill="#63b8ff" stroke="#63b8ff" points="235.51,-99.5 225.22,-102.02 234.84,-106.46 235.51,-99.5"/>
</a>
</g>
</g>
<!-- Node3 -->
<g id="Node000003" class="node">
<title>Node3</title>
<g id="a_Node000003"><a xlink:href="interfacecom_1_1teragrep_1_1pth__06_1_1planner_1_1walker_1_1conditions_1_1QueryCondition.html#aac40ccff3997039d273d50bd5ca122c0" target="_top" xlink:title=" ">
<polygon fill="white" stroke="#666666" points="816,-78 568,-78 568,-48 816,-48 816,-78"/>
<text text-anchor="start" x="576" y="-66" font-family="Helvetica,sans-Serif" font-size="10.00">com.teragrep.pth_06.planner.walker.conditions.</text>
<text text-anchor="middle" x="692" y="-55" font-family="Helvetica,sans-Serif" font-size="10.00">QueryCondition.condition</text>
</a>
</g>
</g>
<!-- Node2&#45;&gt;Node3 -->
<g id="edge3_Node000002_Node000003" class="edge">
<title>Node2&#45;&gt;Node3</title>
<g id="a_edge3_Node000002_Node000003"><a xlink:title=" ">
<path fill="none" stroke="#63b8ff" d="M497.45,-95.94C527.77,-90.78 561.87,-84.98 592.9,-79.7"/>
<polygon fill="#63b8ff" stroke="#63b8ff" points="593.59,-83.13 602.86,-78 592.42,-76.23 593.59,-83.13"/>
</a>
</g>
</g>
<!-- Node4 -->
<g id="Node000004" class="node">
<title>Node4</title>
<g id="a_Node000004"><a xlink:href="classcom_1_1teragrep_1_1pth__06_1_1planner_1_1walker_1_1conditions_1_1ValidElement.html#a7a4670f256d613e6433c461cf275ae5c" target="_top" xlink:title=" ">
<polygon fill="white" stroke="#666666" points="816,-30 568,-30 568,0 816,0 816,-30"/>
<text text-anchor="start" x="576" y="-18" font-family="Helvetica,sans-Serif" font-size="10.00">com.teragrep.pth_06.planner.walker.conditions.</text>
<text text-anchor="middle" x="692" y="-7" font-family="Helvetica,sans-Serif" font-size="10.00">ValidElement.operation</text>
</a>
</g>
</g>
<!-- Node2&#45;&gt;Node4 -->
<g id="edge4_Node000002_Node000004" class="edge">
<title>Node2&#45;&gt;Node4</title>
<g id="a_edge4_Node000002_Node000004"><a xlink:title=" ">
<path fill="none" stroke="#63b8ff" d="M514.71,-95.89C520.74,-93.35 526.56,-90.41 532,-87 554.59,-72.84 545.41,-53.16 568,-39 570.63,-37.35 573.36,-35.81 576.15,-34.37"/>
<polygon fill="#63b8ff" stroke="#63b8ff" points="577.71,-37.5 585.29,-30.11 574.75,-31.16 577.71,-37.5"/>
</a>
</g>
</g>
<!-- Node6 -->
<g id="Node000006" class="node">
<title>Node6</title>
<g id="a_Node000006"><a xlink:href="classcom_1_1teragrep_1_1pth__06_1_1planner_1_1walker_1_1conditions_1_1ValidElement.html#a5f5d7e1e5a7d4596f0df0c86657fa310" target="_top" xlink:title=" ">
<polygon fill="white" stroke="#666666" points="816,-174 568,-174 568,-144 816,-144 816,-174"/>
<text text-anchor="start" x="576" y="-162" font-family="Helvetica,sans-Serif" font-size="10.00">com.teragrep.pth_06.planner.walker.conditions.</text>
<text text-anchor="middle" x="692" y="-151" font-family="Helvetica,sans-Serif" font-size="10.00">ValidElement.tag</text>
</a>
</g>
</g>
<!-- Node2&#45;&gt;Node6 -->
<g id="edge6_Node000002_Node000006" class="edge">
<title>Node2&#45;&gt;Node6</title>
<g id="a_edge6_Node000002_Node000006"><a xlink:title=" ">
<path fill="none" stroke="#63b8ff" d="M497.45,-126.06C527.77,-131.22 561.87,-137.02 592.9,-142.3"/>
<polygon fill="#63b8ff" stroke="#63b8ff" points="592.42,-145.77 602.86,-144 593.59,-138.87 592.42,-145.77"/>
</a>
</g>
</g>
<!-- Node7 -->
<g id="Node000007" class="node">
<title>Node7</title>
<g id="a_Node000007"><a xlink:href="classcom_1_1teragrep_1_1pth__06_1_1planner_1_1walker_1_1conditions_1_1ValidElement.html#ac0ea2df270c90db9d9cc284d8f56222d" target="_top" xlink:title=" ">
<polygon fill="white" stroke="#666666" points="816,-126 568,-126 568,-96 816,-96 816,-126"/>
<text text-anchor="start" x="576" y="-114" font-family="Helvetica,sans-Serif" font-size="10.00">com.teragrep.pth_06.planner.walker.conditions.</text>
<text text-anchor="middle" x="692" y="-103" font-family="Helvetica,sans-Serif" font-size="10.00">ValidElement.value</text>
</a>
</g>
</g>
<!-- Node2&#45;&gt;Node7 -->
<g id="edge8_Node000002_Node000007" class="edge">
<title>Node2&#45;&gt;Node7</title>
<g id="a_edge8_Node000002_Node000007"><a xlink:title=" ">
<path fill="none" stroke="#63b8ff" d="M532.28,-111C540.6,-111 549.01,-111 557.38,-111"/>
<polygon fill="#63b8ff" stroke="#63b8ff" points="557.57,-114.5 567.57,-111 557.57,-107.5 557.57,-114.5"/>
</a>
</g>
</g>
<!-- Node5 -->
<g id="Node000005" class="node">
<title>Node5</title>
<g id="a_Node000005"><a xlink:href="classcom_1_1teragrep_1_1pth__06_1_1planner_1_1walker_1_1conditions_1_1ValidElement.html#a5b8694849043fd75636eea63a160b5b1" target="_top" xlink:title=" ">
<polygon fill="white" stroke="#666666" points="1100,-126 852,-126 852,-96 1100,-96 1100,-126"/>
<text text-anchor="start" x="860" y="-114" font-family="Helvetica,sans-Serif" font-size="10.00">com.teragrep.pth_06.planner.walker.conditions.</text>
<text text-anchor="middle" x="976" y="-103" font-family="Helvetica,sans-Serif" font-size="10.00">ValidElement.validate</text>
</a>
</g>
</g>
<!-- Node4&#45;&gt;Node5 -->
<g id="edge5_Node000004_Node000005" class="edge">
<title>Node4&#45;&gt;Node5</title>
<g id="a_edge5_Node000004_Node000005"><a xlink:title=" ">
<path fill="none" stroke="#63b8ff" d="M782.96,-30.03C794.19,-32.64 805.43,-35.63 816,-39 859.35,-52.84 906.56,-75.22 938.18,-91.36"/>
<polygon fill="#63b8ff" stroke="#63b8ff" points="936.57,-94.47 947.07,-95.94 939.78,-88.24 936.57,-94.47"/>
</a>
</g>
</g>
<!-- Node6&#45;&gt;Node5 -->
<g id="edge7_Node000006_Node000005" class="edge">
<title>Node6&#45;&gt;Node5</title>
<g id="a_edge7_Node000006_Node000005"><a xlink:title=" ">
<path fill="none" stroke="#63b8ff" d="M781.45,-143.94C811.77,-138.78 845.87,-132.98 876.9,-127.7"/>
<polygon fill="#63b8ff" stroke="#63b8ff" points="877.59,-131.13 886.86,-126 876.42,-124.23 877.59,-131.13"/>
</a>
</g>
</g>
<!-- Node7&#45;&gt;Node5 -->
<g id="edge9_Node000007_Node000005" class="edge">
<title>Node7&#45;&gt;Node5</title>
<g id="a_edge9_Node000007_Node000005"><a xlink:title=" ">
<path fill="none" stroke="#63b8ff" d="M816.28,-111C824.6,-111 833.01,-111 841.38,-111"/>
<polygon fill="#63b8ff" stroke="#63b8ff" points="841.57,-114.5 851.57,-111 841.57,-107.5 841.57,-114.5"/>
</a>
</g>
</g>
<!-- Node8&#45;&gt;Node1 -->
<g id="edge11_Node000008_Node000001" class="edge">
<title>Node8&#45;&gt;Node1</title>
<g id="a_edge11_Node000008_Node000001"><a xlink:title=" ">
<path fill="none" stroke="#63b8ff" d="M306.82,-78.02C291.13,-79.56 274.69,-81.04 258.4,-82.39"/>
<polygon fill="#63b8ff" stroke="#63b8ff" points="257.96,-78.91 248.28,-83.21 258.53,-85.89 257.96,-78.91"/>
</a>
</g>
</g>
<!-- Node8&#45;&gt;Node3 -->
<g id="edge12_Node000008_Node000003" class="edge">
<title>Node8&#45;&gt;Node3</title>
<g id="a_edge12_Node000008_Node000003"><a xlink:title=" ">
<path fill="none" stroke="#63b8ff" d="M532.28,-63C540.6,-63 549.01,-63 557.38,-63"/>
<polygon fill="#63b8ff" stroke="#63b8ff" points="557.57,-66.5 567.57,-63 557.57,-59.5 557.57,-66.5"/>
</a>
</g>
</g>
<!-- Node8&#45;&gt;Node4 -->
<g id="edge13_Node000008_Node000004" class="edge">
<title>Node8&#45;&gt;Node4</title>
<g id="a_edge13_Node000008_Node000004"><a xlink:title=" ">
<path fill="none" stroke="#63b8ff" d="M497.45,-47.94C527.77,-42.78 561.87,-36.98 592.9,-31.7"/>
<polygon fill="#63b8ff" stroke="#63b8ff" points="593.59,-35.13 602.86,-30 592.42,-28.23 593.59,-35.13"/>
</a>
</g>
</g>
<!-- Node8&#45;&gt;Node6 -->
<g id="edge14_Node000008_Node000006" class="edge">
<title>Node8&#45;&gt;Node6</title>
<g id="a_edge14_Node000008_Node000006"><a xlink:title=" ">
<path fill="none" stroke="#63b8ff" d="M514.71,-78.11C520.74,-80.65 526.56,-83.59 532,-87 554.59,-101.16 545.41,-120.84 568,-135 570.63,-136.65 573.36,-138.19 576.15,-139.63"/>
<polygon fill="#63b8ff" stroke="#63b8ff" points="574.75,-142.84 585.29,-143.89 577.71,-136.5 574.75,-142.84"/>
</a>
</g>
</g>
<!-- Node8&#45;&gt;Node7 -->
<g id="edge15_Node000008_Node000007" class="edge">
<title>Node8&#45;&gt;Node7</title>
<g id="a_edge15_Node000008_Node000007"><a xlink:title=" ">
<path fill="none" stroke="#63b8ff" d="M497.45,-78.06C527.77,-83.22 561.87,-89.02 592.9,-94.3"/>
<polygon fill="#63b8ff" stroke="#63b8ff" points="592.42,-97.77 602.86,-96 593.59,-90.87 592.42,-97.77"/>
</a>
</g>
</g>
</g>
</svg>
