<?xml version="1.0" encoding="UTF-8" standalone="no"?>
<!DOCTYPE svg PUBLIC "-//W3C//DTD SVG 1.1//EN"
 "http://www.w3.org/Graphics/SVG/1.1/DTD/svg11.dtd">
<!-- Generated by graphviz version 2.43.0 (0)
 -->
<!-- Title: com.teragrep.pth_06.config.Config Pages: 1 -->
<svg width="420pt" height="230pt"
 viewBox="0.00 0.00 420.00 230.00" xmlns="http://www.w3.org/2000/svg" xmlns:xlink="http://www.w3.org/1999/xlink">
<g id="graph0" class="graph" transform="scale(1 1) rotate(0) translate(4 226)">
<title>com.teragrep.pth_06.config.Config</title>
<!-- Node1 -->
<g id="Node000001" class="node">
<title>Node1</title>
<g id="a_Node000001"><a xlink:title=" ">
<polygon fill="#999999" stroke="#666666" points="412,-126 259,-126 259,-96 412,-96 412,-126"/>
<text text-anchor="start" x="267" y="-114" font-family="Helvetica,sans-Serif" font-size="10.00">com.teragrep.pth_06.config.</text>
<text text-anchor="middle" x="335.5" y="-103" font-family="Helvetica,sans-Serif" font-size="10.00">Config</text>
</a>
</g>
</g>
<!-- Node2 -->
<g id="Node000002" class="node">
<title>Node2</title>
<g id="a_Node000002"><a xlink:href="classcom_1_1teragrep_1_1pth__06_1_1config_1_1ArchiveConfig.html" target="_top" xlink:title=" ">
<polygon fill="white" stroke="#666666" points="153,-222 0,-222 0,-192 153,-192 153,-222"/>
<text text-anchor="start" x="8" y="-210" font-family="Helvetica,sans-Serif" font-size="10.00">com.teragrep.pth_06.config.</text>
<text text-anchor="middle" x="76.5" y="-199" font-family="Helvetica,sans-Serif" font-size="10.00">ArchiveConfig</text>
</a>
</g>
</g>
<!-- Node2&#45;&gt;Node1 -->
<g id="edge1_Node000001_Node000002" class="edge">
<title>Node2&#45;&gt;Node1</title>
<g id="a_edge1_Node000001_Node000002"><a xlink:title=" ">
<path fill="none" stroke="#9a32cd" stroke-dasharray="5,2" d="M134.69,-188.82C140.87,-186.86 147.06,-184.89 153,-183 192.11,-170.56 202.79,-169.99 241,-155 262.88,-146.41 286.85,-135.09 305.04,-126.09"/>
<polygon fill="#9a32cd" stroke="#9a32cd" points="133.49,-185.53 125.03,-191.89 135.62,-192.2 133.49,-185.53"/>
</a>
</g>
<text text-anchor="middle" x="206" y="-180" font-family="Helvetica,sans-Serif" font-size="10.00" fill="grey"> archiveConfig</text>
</g>
<!-- Node3 -->
<g id="Node000003" class="node">
<title>Node3</title>
<g id="a_Node000003"><a xlink:href="classcom_1_1teragrep_1_1pth__06_1_1config_1_1KafkaConfig.html" target="_top" xlink:title=" ">
<polygon fill="white" stroke="#666666" points="153,-174 0,-174 0,-144 153,-144 153,-174"/>
<text text-anchor="start" x="8" y="-162" font-family="Helvetica,sans-Serif" font-size="10.00">com.teragrep.pth_06.config.</text>
<text text-anchor="middle" x="76.5" y="-151" font-family="Helvetica,sans-Serif" font-size="10.00">KafkaConfig</text>
</a>
</g>
</g>
<!-- Node3&#45;&gt;Node1 -->
<g id="edge2_Node000001_Node000003" class="edge">
<title>Node3&#45;&gt;Node1</title>
<g id="a_edge2_Node000001_Node000003"><a xlink:title=" ">
<path fill="none" stroke="#9a32cd" stroke-dasharray="5,2" d="M163.13,-143.01C194.1,-137.22 228.83,-130.74 258.88,-125.12"/>
<polygon fill="#9a32cd" stroke="#9a32cd" points="162.41,-139.58 153.22,-144.86 163.69,-146.46 162.41,-139.58"/>
</a>
</g>
<text text-anchor="middle" x="206" y="-143" font-family="Helvetica,sans-Serif" font-size="10.00" fill="grey"> kafkaConfig</text>
</g>
<!-- Node4 -->
<g id="Node000004" class="node">
<title>Node4</title>
<g id="a_Node000004"><a xlink:href="classcom_1_1teragrep_1_1pth__06_1_1config_1_1BatchConfig.html" target="_top" xlink:title=" ">
<polygon fill="white" stroke="#666666" points="153,-126 0,-126 0,-96 153,-96 153,-126"/>
<text text-anchor="start" x="8" y="-114" font-family="Helvetica,sans-Serif" font-size="10.00">com.teragrep.pth_06.config.</text>
<text text-anchor="middle" x="76.5" y="-103" font-family="Helvetica,sans-Serif" font-size="10.00">BatchConfig</text>
</a>
</g>
</g>
<!-- Node4&#45;&gt;Node1 -->
<g id="edge3_Node000001_Node000004" class="edge">
<title>Node4&#45;&gt;Node1</title>
<g id="a_edge3_Node000001_Node000004"><a xlink:title=" ">
<path fill="none" stroke="#9a32cd" stroke-dasharray="5,2" d="M163.53,-111C194.4,-111 228.96,-111 258.88,-111"/>
<polygon fill="#9a32cd" stroke="#9a32cd" points="163.22,-107.5 153.22,-111 163.22,-114.5 163.22,-107.5"/>
</a>
</g>
<text text-anchor="middle" x="206" y="-114" font-family="Helvetica,sans-Serif" font-size="10.00" fill="grey"> batchConfig</text>
</g>
<!-- Node5 -->
<g id="Node000005" class="node">
<title>Node5</title>
<g id="a_Node000005"><a xlink:href="classcom_1_1teragrep_1_1pth__06_1_1config_1_1AuditConfig.html" target="_top" xlink:title=" ">
<polygon fill="white" stroke="#666666" points="153,-78 0,-78 0,-48 153,-48 153,-78"/>
<text text-anchor="start" x="8" y="-66" font-family="Helvetica,sans-Serif" font-size="10.00">com.teragrep.pth_06.config.</text>
<text text-anchor="middle" x="76.5" y="-55" font-family="Helvetica,sans-Serif" font-size="10.00">AuditConfig</text>
</a>
</g>
</g>
<!-- Node5&#45;&gt;Node1 -->
<g id="edge4_Node000001_Node000005" class="edge">
<title>Node5&#45;&gt;Node1</title>
<g id="a_edge4_Node000001_Node000005"><a xlink:title=" ">
<path fill="none" stroke="#9a32cd" stroke-dasharray="5,2" d="M163.13,-78.99C194.1,-84.78 228.83,-91.26 258.88,-96.88"/>
<polygon fill="#9a32cd" stroke="#9a32cd" points="163.69,-75.54 153.22,-77.14 162.41,-82.42 163.69,-75.54"/>
</a>
</g>
<text text-anchor="middle" x="206" y="-95" font-family="Helvetica,sans-Serif" font-size="10.00" fill="grey"> auditConfig</text>
</g>
<!-- Node6 -->
<g id="Node000006" class="node">
<title>Node6</title>
<g id="a_Node000006"><a xlink:href="interfacecom_1_1teragrep_1_1pth__06_1_1config_1_1LoggingConfig.html" target="_top" xlink:title=" ">
<polygon fill="white" stroke="#666666" points="153,-30 0,-30 0,0 153,0 153,-30"/>
<text text-anchor="start" x="8" y="-18" font-family="Helvetica,sans-Serif" font-size="10.00">com.teragrep.pth_06.config.</text>
<text text-anchor="middle" x="76.5" y="-7" font-family="Helvetica,sans-Serif" font-size="10.00">LoggingConfig</text>
</a>
</g>
</g>
<!-- Node6&#45;&gt;Node1 -->
<g id="edge5_Node000001_Node000006" class="edge">
<title>Node6&#45;&gt;Node1</title>
<g id="a_edge5_Node000001_Node000006"><a xlink:title=" ">
<path fill="none" stroke="#9a32cd" stroke-dasharray="5,2" d="M142.32,-32.84C172.65,-41.8 209.05,-53.41 241,-66 263.29,-74.79 287.66,-86.59 305.93,-95.9"/>
<polygon fill="#9a32cd" stroke="#9a32cd" points="143.27,-29.48 132.69,-30.03 141.31,-36.2 143.27,-29.48"/>
</a>
</g>
<text text-anchor="middle" x="206" y="-69" font-family="Helvetica,sans-Serif" font-size="10.00" fill="grey"> loggingConfig</text>
</g>
</g>
</svg>
