<?xml version="1.0" encoding="UTF-8" standalone="no"?>
<!DOCTYPE svg PUBLIC "-//W3C//DTD SVG 1.1//EN"
 "http://www.w3.org/Graphics/SVG/1.1/DTD/svg11.dtd">
<!-- Generated by graphviz version 2.43.0 (0)
 -->
<!-- Title: com.teragrep.pth_06.config.ArchiveConfigTest.options Pages: 1 -->
<svg width="393pt" height="324pt"
 viewBox="0.00 0.00 393.00 323.50" xmlns="http://www.w3.org/2000/svg" xmlns:xlink="http://www.w3.org/1999/xlink">
<g id="graph0" class="graph" transform="scale(1 1) rotate(0) translate(4 319.5)">
<title>com.teragrep.pth_06.config.ArchiveConfigTest.options</title>
<!-- Node1 -->
<g id="Node000001" class="node">
<title>Node1</title>
<g id="a_Node000001"><a xlink:title=" ">
<polygon fill="#999999" stroke="#666666" points="385,-180.5 232,-180.5 232,-150.5 385,-150.5 385,-180.5"/>
<text text-anchor="start" x="240" y="-168.5" font-family="Helvetica,sans-Serif" font-size="10.00">com.teragrep.pth_06.config.</text>
<text text-anchor="middle" x="308.5" y="-157.5" font-family="Helvetica,sans-Serif" font-size="10.00">ArchiveConfigTest.options</text>
</a>
</g>
</g>
<!-- Node2 -->
<g id="Node000002" class="node">
<title>Node2</title>
<g id="a_Node000002"><a xlink:href="classcom_1_1teragrep_1_1pth__06_1_1config_1_1ArchiveConfigTest.html#aea8a63280ecf3f9f9ae0a47b3a771a68" target="_top" xlink:title=" ">
<polygon fill="white" stroke="#666666" points="196,-315.5 0,-315.5 0,-285.5 196,-285.5 196,-315.5"/>
<text text-anchor="start" x="8" y="-303.5" font-family="Helvetica,sans-Serif" font-size="10.00">com.teragrep.pth_06.config.</text>
<text text-anchor="middle" x="98" y="-292.5" font-family="Helvetica,sans-Serif" font-size="10.00">ArchiveConfigTest.testBloomEnabled</text>
</a>
</g>
</g>
<!-- Node1&#45;&gt;Node2 -->
<g id="edge1_Node000001_Node000002" class="edge">
<title>Node1&#45;&gt;Node2</title>
<g id="a_edge1_Node000001_Node000002"><a xlink:title=" ">
<path fill="none" stroke="#63b8ff" d="M290.57,-188.67C270.75,-214.08 235.56,-254.22 196,-276.5 189.88,-279.95 183.27,-282.9 176.47,-285.44"/>
<polygon fill="#63b8ff" stroke="#63b8ff" points="293.4,-190.73 296.69,-180.66 287.84,-186.48 293.4,-190.73"/>
</a>
</g>
</g>
<!-- Node3 -->
<g id="Node000003" class="node">
<title>Node3</title>
<g id="a_Node000003"><a xlink:href="classcom_1_1teragrep_1_1pth__06_1_1config_1_1ArchiveConfigTest.html#aa8fe53254225e9dbab4f0528d5000100" target="_top" xlink:title=" ">
<polygon fill="white" stroke="#666666" points="196,-267 0,-267 0,-226 196,-226 196,-267"/>
<text text-anchor="start" x="8" y="-255" font-family="Helvetica,sans-Serif" font-size="10.00">com.teragrep.pth_06.config.</text>
<text text-anchor="start" x="8" y="-244" font-family="Helvetica,sans-Serif" font-size="10.00">ArchiveConfigTest.testBloomEnabled</text>
<text text-anchor="middle" x="98" y="-233" font-family="Helvetica,sans-Serif" font-size="10.00">DefaultOff</text>
</a>
</g>
</g>
<!-- Node1&#45;&gt;Node3 -->
<g id="edge2_Node000001_Node000003" class="edge">
<title>Node1&#45;&gt;Node3</title>
<g id="a_edge2_Node000001_Node000003"><a xlink:title=" ">
<path fill="none" stroke="#63b8ff" d="M267.92,-185.12C246.84,-195.17 220.32,-207.22 196,-216.5 187.44,-219.77 178.35,-222.95 169.3,-225.93"/>
<polygon fill="#63b8ff" stroke="#63b8ff" points="269.7,-188.14 277.19,-180.65 266.66,-181.84 269.7,-188.14"/>
</a>
</g>
</g>
<!-- Node4 -->
<g id="Node000004" class="node">
<title>Node4</title>
<g id="a_Node000004"><a xlink:href="classcom_1_1teragrep_1_1pth__06_1_1config_1_1ArchiveConfigTest.html#a79e143e7b70c6569262158a7b8e36752" target="_top" xlink:title=" ">
<polygon fill="white" stroke="#666666" points="195,-207.5 1,-207.5 1,-177.5 195,-177.5 195,-207.5"/>
<text text-anchor="start" x="9" y="-195.5" font-family="Helvetica,sans-Serif" font-size="10.00">com.teragrep.pth_06.config.</text>
<text text-anchor="middle" x="98" y="-184.5" font-family="Helvetica,sans-Serif" font-size="10.00">ArchiveConfigTest.testWithoutFilters</text>
</a>
</g>
</g>
<!-- Node1&#45;&gt;Node4 -->
<g id="edge3_Node000001_Node000004" class="edge">
<title>Node1&#45;&gt;Node4</title>
<g id="a_edge3_Node000001_Node000004"><a xlink:title=" ">
<path fill="none" stroke="#63b8ff" d="M221.79,-176.6C213.07,-177.73 204.16,-178.88 195.34,-180.02"/>
<polygon fill="#63b8ff" stroke="#63b8ff" points="222.46,-180.04 231.93,-175.29 221.57,-173.1 222.46,-180.04"/>
</a>
</g>
</g>
<!-- Node5 -->
<g id="Node000005" class="node">
<title>Node5</title>
<g id="a_Node000005"><a xlink:href="classcom_1_1teragrep_1_1pth__06_1_1config_1_1ArchiveConfigTest.html#a3bf5c530b57009807fe8791b8e98b549" target="_top" xlink:title=" ">
<polygon fill="white" stroke="#666666" points="195,-159 1,-159 1,-118 195,-118 195,-159"/>
<text text-anchor="start" x="9" y="-147" font-family="Helvetica,sans-Serif" font-size="10.00">com.teragrep.pth_06.config.</text>
<text text-anchor="start" x="9" y="-136" font-family="Helvetica,sans-Serif" font-size="10.00">ArchiveConfigTest.testWithoutFilters</text>
<text text-anchor="middle" x="98" y="-125" font-family="Helvetica,sans-Serif" font-size="10.00">BloomEnabled</text>
</a>
</g>
</g>
<!-- Node1&#45;&gt;Node5 -->
<g id="edge4_Node000001_Node000005" class="edge">
<title>Node1&#45;&gt;Node5</title>
<g id="a_edge4_Node000001_Node000005"><a xlink:title=" ">
<path fill="none" stroke="#63b8ff" d="M221.79,-154.4C213.07,-153.27 204.16,-152.12 195.34,-150.98"/>
<polygon fill="#63b8ff" stroke="#63b8ff" points="221.57,-157.9 231.93,-155.71 222.46,-150.96 221.57,-157.9"/>
</a>
</g>
</g>
<!-- Node6 -->
<g id="Node000006" class="node">
<title>Node6</title>
<g id="a_Node000006"><a xlink:href="classcom_1_1teragrep_1_1pth__06_1_1config_1_1ArchiveConfigTest.html#a0c3290ddd8dccd1998129525126522ab" target="_top" xlink:title=" ">
<polygon fill="white" stroke="#666666" points="195,-100 1,-100 1,-59 195,-59 195,-100"/>
<text text-anchor="start" x="9" y="-88" font-family="Helvetica,sans-Serif" font-size="10.00">com.teragrep.pth_06.config.</text>
<text text-anchor="start" x="9" y="-77" font-family="Helvetica,sans-Serif" font-size="10.00">ArchiveConfigTest.testWithoutFilters</text>
<text text-anchor="middle" x="98" y="-66" font-family="Helvetica,sans-Serif" font-size="10.00">DefaultBloomEnabled</text>
</a>
</g>
</g>
<!-- Node1&#45;&gt;Node6 -->
<g id="edge5_Node000001_Node000006" class="edge">
<title>Node1&#45;&gt;Node6</title>
<g id="a_edge5_Node000001_Node000006"><a xlink:title=" ">
<path fill="none" stroke="#63b8ff" d="M271.5,-145.51C250,-134.06 221.91,-119.93 196,-109.5 187.74,-106.18 178.97,-103 170.2,-100.03"/>
<polygon fill="#63b8ff" stroke="#63b8ff" points="270.13,-148.74 280.59,-150.4 273.44,-142.58 270.13,-148.74"/>
</a>
</g>
</g>
<!-- Node7 -->
<g id="Node000007" class="node">
<title>Node7</title>
<g id="a_Node000007"><a xlink:href="classcom_1_1teragrep_1_1pth__06_1_1config_1_1ArchiveConfigTest.html#a85df6af6cb5efe07cb76560c7f0c0874" target="_top" xlink:title=" ">
<polygon fill="white" stroke="#666666" points="195,-41 1,-41 1,0 195,0 195,-41"/>
<text text-anchor="start" x="9" y="-29" font-family="Helvetica,sans-Serif" font-size="10.00">com.teragrep.pth_06.config.</text>
<text text-anchor="start" x="9" y="-18" font-family="Helvetica,sans-Serif" font-size="10.00">ArchiveConfigTest.testWithoutFilters</text>
<text text-anchor="middle" x="98" y="-7" font-family="Helvetica,sans-Serif" font-size="10.00">DefaultOff</text>
</a>
</g>
</g>
<!-- Node1&#45;&gt;Node7 -->
<g id="edge6_Node000001_Node000007" class="edge">
<title>Node1&#45;&gt;Node7</title>
<g id="a_edge6_Node000001_Node000007"><a xlink:title=" ">
<path fill="none" stroke="#63b8ff" d="M290.83,-142.32C271.02,-116.38 235.61,-74.81 196,-50.5 190.29,-47 184.14,-43.87 177.8,-41.09"/>
<polygon fill="#63b8ff" stroke="#63b8ff" points="288.14,-144.57 296.94,-150.48 293.74,-140.37 288.14,-144.57"/>
</a>
</g>
</g>
</g>
</svg>
