<?xml version="1.0" encoding="UTF-8" standalone="no"?>
<!DOCTYPE svg PUBLIC "-//W3C//DTD SVG 1.1//EN"
 "http://www.w3.org/Graphics/SVG/1.1/DTD/svg11.dtd">
<!-- Generated by graphviz version 2.43.0 (0)
 -->
<!-- Title: com.teragrep.pth_06.planner.MockDBNonSyslogRowImpl.toString Pages: 1 -->
<svg width="425pt" height="518pt"
 viewBox="0.00 0.00 425.00 518.00" xmlns="http://www.w3.org/2000/svg" xmlns:xlink="http://www.w3.org/1999/xlink">
<g id="graph0" class="graph" transform="scale(1 1) rotate(0) translate(4 514)">
<title>com.teragrep.pth_06.planner.MockDBNonSyslogRowImpl.toString</title>
<!-- Node1 -->
<g id="Node000001" class="node">
<title>Node1</title>
<g id="a_Node000001"><a xlink:title=" ">
<polygon fill="#999999" stroke="#666666" points="193,-270 0,-270 0,-240 193,-240 193,-270"/>
<text text-anchor="start" x="8" y="-258" font-family="Helvetica,sans-Serif" font-size="10.00">com.teragrep.pth_06.planner.</text>
<text text-anchor="middle" x="96.5" y="-247" font-family="Helvetica,sans-Serif" font-size="10.00">MockDBNonSyslogRowImpl.toString</text>
</a>
</g>
</g>
<!-- Node2 -->
<g id="Node000002" class="node">
<title>Node2</title>
<g id="a_Node000002"><a xlink:href="interfacecom_1_1teragrep_1_1pth__06_1_1planner_1_1MockDBRow.html#ad44471477954593511cbdb304a0ded76" target="_top" xlink:title=" ">
<polygon fill="white" stroke="#666666" points="403,-510 243,-510 243,-480 403,-480 403,-510"/>
<text text-anchor="start" x="251" y="-498" font-family="Helvetica,sans-Serif" font-size="10.00">com.teragrep.pth_06.planner.</text>
<text text-anchor="middle" x="323" y="-487" font-family="Helvetica,sans-Serif" font-size="10.00">MockDBRow.bucket</text>
</a>
</g>
</g>
<!-- Node1&#45;&gt;Node2 -->
<g id="edge1_Node000001_Node000002" class="edge">
<title>Node1&#45;&gt;Node2</title>
<g id="a_edge1_Node000001_Node000002"><a xlink:title=" ">
<path fill="none" stroke="#63b8ff" d="M102.18,-270.05C115.28,-309.57 156.19,-416.99 229,-471 231.05,-472.52 233.19,-473.95 235.4,-475.28"/>
<polygon fill="#63b8ff" stroke="#63b8ff" points="233.75,-478.37 244.22,-480 237.05,-472.2 233.75,-478.37"/>
</a>
</g>
</g>
<!-- Node3 -->
<g id="Node000003" class="node">
<title>Node3</title>
<g id="a_Node000003"><a xlink:href="interfacecom_1_1teragrep_1_1pth__06_1_1planner_1_1MockDBRow.html#a72b0def5bf253cb3babc246462187ead" target="_top" xlink:title=" ">
<polygon fill="white" stroke="#666666" points="403,-462 243,-462 243,-432 403,-432 403,-462"/>
<text text-anchor="start" x="251" y="-450" font-family="Helvetica,sans-Serif" font-size="10.00">com.teragrep.pth_06.planner.</text>
<text text-anchor="middle" x="323" y="-439" font-family="Helvetica,sans-Serif" font-size="10.00">MockDBRow.directory</text>
</a>
</g>
</g>
<!-- Node1&#45;&gt;Node3 -->
<g id="edge2_Node000001_Node000003" class="edge">
<title>Node1&#45;&gt;Node3</title>
<g id="a_edge2_Node000001_Node000003"><a xlink:title=" ">
<path fill="none" stroke="#63b8ff" d="M104.85,-270.02C121.85,-303.11 167.18,-382.53 229,-423 231.57,-424.68 234.25,-426.24 237.01,-427.7"/>
<polygon fill="#63b8ff" stroke="#63b8ff" points="235.54,-430.87 246.07,-431.98 238.53,-424.54 235.54,-430.87"/>
</a>
</g>
</g>
<!-- Node4 -->
<g id="Node000004" class="node">
<title>Node4</title>
<g id="a_Node000004"><a xlink:href="interfacecom_1_1teragrep_1_1pth__06_1_1planner_1_1MockDBRow.html#a74ca25ad9ccc26eca93b3a20d359bd4a" target="_top" xlink:title=" ">
<polygon fill="white" stroke="#666666" points="403,-414 243,-414 243,-384 403,-384 403,-414"/>
<text text-anchor="start" x="251" y="-402" font-family="Helvetica,sans-Serif" font-size="10.00">com.teragrep.pth_06.planner.</text>
<text text-anchor="middle" x="323" y="-391" font-family="Helvetica,sans-Serif" font-size="10.00">MockDBRow.filesize</text>
</a>
</g>
</g>
<!-- Node1&#45;&gt;Node4 -->
<g id="edge3_Node000001_Node000004" class="edge">
<title>Node1&#45;&gt;Node4</title>
<g id="a_edge3_Node000001_Node000004"><a xlink:title=" ">
<path fill="none" stroke="#63b8ff" d="M109.59,-270.05C130.93,-295.59 177.9,-347.34 229,-375 232.45,-376.87 236.05,-378.59 239.74,-380.19"/>
<polygon fill="#63b8ff" stroke="#63b8ff" points="238.5,-383.46 249.09,-383.89 241.08,-376.95 238.5,-383.46"/>
</a>
</g>
</g>
<!-- Node5 -->
<g id="Node000005" class="node">
<title>Node5</title>
<g id="a_Node000005"><a xlink:href="interfacecom_1_1teragrep_1_1pth__06_1_1planner_1_1MockDBRow.html#aa8ad21bb5a8f9b0594938f79c167ea8a" target="_top" xlink:title=" ">
<polygon fill="white" stroke="#666666" points="403,-366 243,-366 243,-336 403,-336 403,-366"/>
<text text-anchor="start" x="251" y="-354" font-family="Helvetica,sans-Serif" font-size="10.00">com.teragrep.pth_06.planner.</text>
<text text-anchor="middle" x="323" y="-343" font-family="Helvetica,sans-Serif" font-size="10.00">MockDBRow.host</text>
</a>
</g>
</g>
<!-- Node1&#45;&gt;Node5 -->
<g id="edge4_Node000001_Node000005" class="edge">
<title>Node1&#45;&gt;Node5</title>
<g id="a_edge4_Node000001_Node000005"><a xlink:title=" ">
<path fill="none" stroke="#63b8ff" d="M120.86,-270.13C146.5,-286.16 189.31,-311.3 229,-327 234.36,-329.12 239.98,-331.11 245.67,-332.96"/>
<polygon fill="#63b8ff" stroke="#63b8ff" points="244.72,-336.33 255.31,-335.94 246.79,-329.64 244.72,-336.33"/>
</a>
</g>
</g>
<!-- Node6 -->
<g id="Node000006" class="node">
<title>Node6</title>
<g id="a_Node000006"><a xlink:href="interfacecom_1_1teragrep_1_1pth__06_1_1planner_1_1MockDBRow.html#a0774864816bfa4ed24d7037daa10b3b2" target="_top" xlink:title=" ">
<polygon fill="white" stroke="#666666" points="403,-318 243,-318 243,-288 403,-288 403,-318"/>
<text text-anchor="start" x="251" y="-306" font-family="Helvetica,sans-Serif" font-size="10.00">com.teragrep.pth_06.planner.</text>
<text text-anchor="middle" x="323" y="-295" font-family="Helvetica,sans-Serif" font-size="10.00">MockDBRow.id</text>
</a>
</g>
</g>
<!-- Node1&#45;&gt;Node6 -->
<g id="edge5_Node000001_Node000006" class="edge">
<title>Node1&#45;&gt;Node6</title>
<g id="a_edge5_Node000001_Node000006"><a xlink:title=" ">
<path fill="none" stroke="#63b8ff" d="M167.92,-270.06C191.43,-275.08 217.79,-280.72 241.97,-285.89"/>
<polygon fill="#63b8ff" stroke="#63b8ff" points="241.32,-289.33 251.83,-288 242.79,-282.48 241.32,-289.33"/>
</a>
</g>
</g>
<!-- Node7 -->
<g id="Node000007" class="node">
<title>Node7</title>
<g id="a_Node000007"><a xlink:href="interfacecom_1_1teragrep_1_1pth__06_1_1planner_1_1MockDBRow.html#ad6525054bcae052f479a03b2e4ca3bf7" target="_top" xlink:title=" ">
<polygon fill="white" stroke="#666666" points="403,-270 243,-270 243,-240 403,-240 403,-270"/>
<text text-anchor="start" x="251" y="-258" font-family="Helvetica,sans-Serif" font-size="10.00">com.teragrep.pth_06.planner.</text>
<text text-anchor="middle" x="323" y="-247" font-family="Helvetica,sans-Serif" font-size="10.00">MockDBRow.logdate</text>
</a>
</g>
</g>
<!-- Node1&#45;&gt;Node7 -->
<g id="edge6_Node000001_Node000007" class="edge">
<title>Node1&#45;&gt;Node7</title>
<g id="a_edge6_Node000001_Node000007"><a xlink:title=" ">
<path fill="none" stroke="#63b8ff" d="M193.03,-255C206.12,-255 219.52,-255 232.5,-255"/>
<polygon fill="#63b8ff" stroke="#63b8ff" points="232.8,-258.5 242.8,-255 232.8,-251.5 232.8,-258.5"/>
</a>
</g>
</g>
<!-- Node8 -->
<g id="Node000008" class="node">
<title>Node8</title>
<g id="a_Node000008"><a xlink:href="interfacecom_1_1teragrep_1_1pth__06_1_1planner_1_1MockDBRow.html#afc6e92c8736a723c8e3c6673593b63c6" target="_top" xlink:title=" ">
<polygon fill="white" stroke="#666666" points="403,-222 243,-222 243,-192 403,-192 403,-222"/>
<text text-anchor="start" x="251" y="-210" font-family="Helvetica,sans-Serif" font-size="10.00">com.teragrep.pth_06.planner.</text>
<text text-anchor="middle" x="323" y="-199" font-family="Helvetica,sans-Serif" font-size="10.00">MockDBRow.logtag</text>
</a>
</g>
</g>
<!-- Node1&#45;&gt;Node8 -->
<g id="edge7_Node000001_Node000008" class="edge">
<title>Node1&#45;&gt;Node8</title>
<g id="a_edge7_Node000001_Node000008"><a xlink:title=" ">
<path fill="none" stroke="#63b8ff" d="M167.92,-239.94C191.43,-234.92 217.79,-229.28 241.97,-224.11"/>
<polygon fill="#63b8ff" stroke="#63b8ff" points="242.79,-227.52 251.83,-222 241.32,-220.67 242.79,-227.52"/>
</a>
</g>
</g>
<!-- Node9 -->
<g id="Node000009" class="node">
<title>Node9</title>
<g id="a_Node000009"><a xlink:href="interfacecom_1_1teragrep_1_1pth__06_1_1planner_1_1MockDBRow.html#abbdec5d031093faa980c5b0e86dbaa7e" target="_top" xlink:title=" ">
<polygon fill="white" stroke="#666666" points="403,-174 243,-174 243,-144 403,-144 403,-174"/>
<text text-anchor="start" x="251" y="-162" font-family="Helvetica,sans-Serif" font-size="10.00">com.teragrep.pth_06.planner.</text>
<text text-anchor="middle" x="323" y="-151" font-family="Helvetica,sans-Serif" font-size="10.00">MockDBRow.logtime</text>
</a>
</g>
</g>
<!-- Node1&#45;&gt;Node9 -->
<g id="edge8_Node000001_Node000009" class="edge">
<title>Node1&#45;&gt;Node9</title>
<g id="a_edge8_Node000001_Node000009"><a xlink:title=" ">
<path fill="none" stroke="#63b8ff" d="M120.86,-239.87C146.5,-223.84 189.31,-198.7 229,-183 234.36,-180.88 239.98,-178.89 245.67,-177.04"/>
<polygon fill="#63b8ff" stroke="#63b8ff" points="246.79,-180.36 255.31,-174.06 244.72,-173.67 246.79,-180.36"/>
</a>
</g>
</g>
<!-- Node10 -->
<g id="Node000010" class="node">
<title>Node10</title>
<g id="a_Node000010"><a xlink:href="interfacecom_1_1teragrep_1_1pth__06_1_1planner_1_1MockDBRow.html#ab614cd7a7083bbae02e6cb864d5aea64" target="_top" xlink:title=" ">
<polygon fill="white" stroke="#666666" points="403,-126 243,-126 243,-96 403,-96 403,-126"/>
<text text-anchor="start" x="251" y="-114" font-family="Helvetica,sans-Serif" font-size="10.00">com.teragrep.pth_06.planner.</text>
<text text-anchor="middle" x="323" y="-103" font-family="Helvetica,sans-Serif" font-size="10.00">MockDBRow.path</text>
</a>
</g>
</g>
<!-- Node1&#45;&gt;Node10 -->
<g id="edge9_Node000001_Node000010" class="edge">
<title>Node1&#45;&gt;Node10</title>
<g id="a_edge9_Node000001_Node000010"><a xlink:title=" ">
<path fill="none" stroke="#63b8ff" d="M109.59,-239.95C130.93,-214.41 177.9,-162.66 229,-135 232.45,-133.13 236.05,-131.41 239.74,-129.81"/>
<polygon fill="#63b8ff" stroke="#63b8ff" points="241.08,-133.05 249.09,-126.11 238.5,-126.54 241.08,-133.05"/>
</a>
</g>
</g>
<!-- Node11 -->
<g id="Node000011" class="node">
<title>Node11</title>
<g id="a_Node000011"><a xlink:href="interfacecom_1_1teragrep_1_1pth__06_1_1planner_1_1MockDBRow.html#a092b8e42025da6f3c6ad5ea92a1a273f" target="_top" xlink:title=" ">
<polygon fill="white" stroke="#666666" points="403,-78 243,-78 243,-48 403,-48 403,-78"/>
<text text-anchor="start" x="251" y="-66" font-family="Helvetica,sans-Serif" font-size="10.00">com.teragrep.pth_06.planner.</text>
<text text-anchor="middle" x="323" y="-55" font-family="Helvetica,sans-Serif" font-size="10.00">MockDBRow.stream</text>
</a>
</g>
</g>
<!-- Node1&#45;&gt;Node11 -->
<g id="edge10_Node000001_Node000011" class="edge">
<title>Node1&#45;&gt;Node11</title>
<g id="a_edge10_Node000001_Node000011"><a xlink:title=" ">
<path fill="none" stroke="#63b8ff" d="M104.85,-239.98C121.85,-206.89 167.18,-127.47 229,-87 231.57,-85.32 234.25,-83.76 237.01,-82.3"/>
<polygon fill="#63b8ff" stroke="#63b8ff" points="238.53,-85.46 246.07,-78.02 235.54,-79.13 238.53,-85.46"/>
</a>
</g>
</g>
<!-- Node12 -->
<g id="Node000012" class="node">
<title>Node12</title>
<g id="a_Node000012"><a xlink:href="interfacecom_1_1teragrep_1_1pth__06_1_1planner_1_1MockDBRow.html#a530a3c1472c332aacad872702a077e48" target="_top" xlink:title=" ">
<polygon fill="white" stroke="#666666" points="417,-30 229,-30 229,0 417,0 417,-30"/>
<text text-anchor="start" x="237" y="-18" font-family="Helvetica,sans-Serif" font-size="10.00">com.teragrep.pth_06.planner.</text>
<text text-anchor="middle" x="323" y="-7" font-family="Helvetica,sans-Serif" font-size="10.00">MockDBRow.uncompressedFilesize</text>
</a>
</g>
</g>
<!-- Node1&#45;&gt;Node12 -->
<g id="edge11_Node000001_Node000012" class="edge">
<title>Node1&#45;&gt;Node12</title>
<g id="a_edge11_Node000001_Node000012"><a xlink:title=" ">
<path fill="none" stroke="#63b8ff" d="M102.18,-239.95C115.28,-200.43 156.19,-93.01 229,-39 231.05,-37.48 233.19,-36.05 235.4,-34.72"/>
<polygon fill="#63b8ff" stroke="#63b8ff" points="237.05,-37.8 244.22,-30 233.75,-31.63 237.05,-37.8"/>
</a>
</g>
</g>
</g>
</svg>
