<?xml version="1.0" encoding="UTF-8" standalone="no"?>
<!DOCTYPE svg PUBLIC "-//W3C//DTD SVG 1.1//EN"
 "http://www.w3.org/Graphics/SVG/1.1/DTD/svg11.dtd">
<!-- Generated by graphviz version 2.43.0 (0)
 -->
<!-- Title: com.teragrep.pth_06.planner.walker.conditions.ValidElement.validate Pages: 1 -->
<svg width="1392pt" height="507pt"
 viewBox="0.00 0.00 1392.00 507.41" xmlns="http://www.w3.org/2000/svg" xmlns:xlink="http://www.w3.org/1999/xlink">
<g id="graph0" class="graph" transform="scale(1 1) rotate(0) translate(4 503.41)">
<title>com.teragrep.pth_06.planner.walker.conditions.ValidElement.validate</title>
<!-- Node1 -->
<g id="Node000001" class="node">
<title>Node1</title>
<g id="a_Node000001"><a xlink:title=" ">
<polygon fill="#999999" stroke="#666666" points="1384,-241 1136,-241 1136,-211 1384,-211 1384,-241"/>
<text text-anchor="start" x="1144" y="-229" font-family="Helvetica,sans-Serif" font-size="10.00">com.teragrep.pth_06.planner.walker.conditions.</text>
<text text-anchor="middle" x="1260" y="-218" font-family="Helvetica,sans-Serif" font-size="10.00">ValidElement.validate</text>
</a>
</g>
</g>
<!-- Node2 -->
<g id="Node000002" class="node">
<title>Node2</title>
<g id="a_Node000002"><a xlink:href="classcom_1_1teragrep_1_1pth__06_1_1planner_1_1walker_1_1conditions_1_1ValidElement.html#a7a4670f256d613e6433c461cf275ae5c" target="_top" xlink:title=" ">
<polygon fill="white" stroke="#666666" points="1100,-289 852,-289 852,-259 1100,-259 1100,-289"/>
<text text-anchor="start" x="860" y="-277" font-family="Helvetica,sans-Serif" font-size="10.00">com.teragrep.pth_06.planner.walker.conditions.</text>
<text text-anchor="middle" x="976" y="-266" font-family="Helvetica,sans-Serif" font-size="10.00">ValidElement.operation</text>
</a>
</g>
</g>
<!-- Node1&#45;&gt;Node2 -->
<g id="edge1_Node000001_Node000002" class="edge">
<title>Node1&#45;&gt;Node2</title>
<g id="a_edge1_Node000001_Node000002"><a xlink:title=" ">
<path fill="none" stroke="#63b8ff" d="M1160.58,-242.75C1129.53,-248.04 1095.43,-253.84 1065.14,-259"/>
<polygon fill="#63b8ff" stroke="#63b8ff" points="1161.28,-246.18 1170.55,-241.06 1160.1,-239.28 1161.28,-246.18"/>
</a>
</g>
</g>
<!-- Node14 -->
<g id="Node000014" class="node">
<title>Node14</title>
<g id="a_Node000014"><a xlink:href="classcom_1_1teragrep_1_1pth__06_1_1planner_1_1walker_1_1conditions_1_1ValidElement.html#a5f5d7e1e5a7d4596f0df0c86657fa310" target="_top" xlink:title=" ">
<polygon fill="white" stroke="#666666" points="1100,-241 852,-241 852,-211 1100,-211 1100,-241"/>
<text text-anchor="start" x="860" y="-229" font-family="Helvetica,sans-Serif" font-size="10.00">com.teragrep.pth_06.planner.walker.conditions.</text>
<text text-anchor="middle" x="976" y="-218" font-family="Helvetica,sans-Serif" font-size="10.00">ValidElement.tag</text>
</a>
</g>
</g>
<!-- Node1&#45;&gt;Node14 -->
<g id="edge16_Node000001_Node000014" class="edge">
<title>Node1&#45;&gt;Node14</title>
<g id="a_edge16_Node000001_Node000014"><a xlink:title=" ">
<path fill="none" stroke="#63b8ff" d="M1125.53,-226C1117.16,-226 1108.75,-226 1100.43,-226"/>
<polygon fill="#63b8ff" stroke="#63b8ff" points="1125.72,-229.5 1135.72,-226 1125.72,-222.5 1125.72,-229.5"/>
</a>
</g>
</g>
<!-- Node17 -->
<g id="Node000017" class="node">
<title>Node17</title>
<g id="a_Node000017"><a xlink:href="classcom_1_1teragrep_1_1pth__06_1_1planner_1_1walker_1_1conditions_1_1ValidElement.html#ac0ea2df270c90db9d9cc284d8f56222d" target="_top" xlink:title=" ">
<polygon fill="white" stroke="#666666" points="1100,-193 852,-193 852,-163 1100,-163 1100,-193"/>
<text text-anchor="start" x="860" y="-181" font-family="Helvetica,sans-Serif" font-size="10.00">com.teragrep.pth_06.planner.walker.conditions.</text>
<text text-anchor="middle" x="976" y="-170" font-family="Helvetica,sans-Serif" font-size="10.00">ValidElement.value</text>
</a>
</g>
</g>
<!-- Node1&#45;&gt;Node17 -->
<g id="edge23_Node000001_Node000017" class="edge">
<title>Node1&#45;&gt;Node17</title>
<g id="a_edge23_Node000001_Node000017"><a xlink:title=" ">
<path fill="none" stroke="#63b8ff" d="M1160.58,-209.25C1129.53,-203.96 1095.43,-198.16 1065.14,-193"/>
<polygon fill="#63b8ff" stroke="#63b8ff" points="1160.1,-212.72 1170.55,-210.94 1161.28,-205.82 1160.1,-212.72"/>
</a>
</g>
</g>
<!-- Node3 -->
<g id="Node000003" class="node">
<title>Node3</title>
<g id="a_Node000003"><a xlink:href="classcom_1_1teragrep_1_1pth__06_1_1planner_1_1walker_1_1conditions_1_1ElementCondition.html#ad598b3368f8fca059dfc07a49d352f31" target="_top" xlink:title=" ">
<polygon fill="white" stroke="#666666" points="816,-193 568,-193 568,-163 816,-163 816,-193"/>
<text text-anchor="start" x="576" y="-181" font-family="Helvetica,sans-Serif" font-size="10.00">com.teragrep.pth_06.planner.walker.conditions.</text>
<text text-anchor="middle" x="692" y="-170" font-family="Helvetica,sans-Serif" font-size="10.00">ElementCondition.conditionForJournalDBQuery</text>
</a>
</g>
</g>
<!-- Node2&#45;&gt;Node3 -->
<g id="edge2_Node000002_Node000003" class="edge">
<title>Node2&#45;&gt;Node3</title>
<g id="a_edge2_Node000002_Node000003"><a xlink:title=" ">
<path fill="none" stroke="#63b8ff" d="M860.15,-254.63C857.36,-253.19 854.63,-251.65 852,-250 829.41,-235.84 838.59,-216.16 816,-202 810.56,-198.59 804.74,-195.65 798.71,-193.11"/>
<polygon fill="#63b8ff" stroke="#63b8ff" points="858.75,-257.84 869.29,-258.89 861.71,-251.5 858.75,-257.84"/>
</a>
</g>
</g>
<!-- Node5 -->
<g id="Node000005" class="node">
<title>Node5</title>
<g id="a_Node000005"><a xlink:href="classcom_1_1teragrep_1_1pth__06_1_1planner_1_1walker_1_1conditions_1_1ElementCondition.html#ad1faef74318cb350165bbeafd562ecde" target="_top" xlink:title=" ">
<polygon fill="white" stroke="#666666" points="248,-222 0,-222 0,-192 248,-192 248,-222"/>
<text text-anchor="start" x="8" y="-210" font-family="Helvetica,sans-Serif" font-size="10.00">com.teragrep.pth_06.planner.walker.conditions.</text>
<text text-anchor="middle" x="124" y="-199" font-family="Helvetica,sans-Serif" font-size="10.00">ElementCondition.conditionForStreamDBQuery</text>
</a>
</g>
</g>
<!-- Node2&#45;&gt;Node5 -->
<g id="edge11_Node000002_Node000005" class="edge">
<title>Node2&#45;&gt;Node5</title>
<g id="a_edge11_Node000002_Node000005"><a xlink:title=" ">
<path fill="none" stroke="#63b8ff" d="M950.5,-295.66C920.77,-320.76 868.13,-361.55 816,-384 597.47,-478.13 493.95,-555.97 284,-444 191.97,-394.92 143.78,-266.31 129.56,-222.15"/>
<polygon fill="#63b8ff" stroke="#63b8ff" points="952.93,-298.18 958.25,-289.02 948.38,-292.86 952.93,-298.18"/>
</a>
</g>
</g>
<!-- Node10 -->
<g id="Node000010" class="node">
<title>Node10</title>
<g id="a_Node000010"><a xlink:href="classcom_1_1teragrep_1_1pth__06_1_1planner_1_1walker_1_1conditions_1_1ElementCondition.html#af340b59529954bf83536432d3512af34" target="_top" xlink:title=" ">
<polygon fill="white" stroke="#666666" points="816,-375 568,-375 568,-345 816,-345 816,-375"/>
<text text-anchor="start" x="576" y="-363" font-family="Helvetica,sans-Serif" font-size="10.00">com.teragrep.pth_06.planner.walker.conditions.</text>
<text text-anchor="middle" x="692" y="-352" font-family="Helvetica,sans-Serif" font-size="10.00">ElementCondition.isBloomSearchCondition</text>
</a>
</g>
</g>
<!-- Node2&#45;&gt;Node10 -->
<g id="edge12_Node000002_Node000010" class="edge">
<title>Node2&#45;&gt;Node10</title>
<g id="a_edge12_Node000002_Node000010"><a xlink:title=" ">
<path fill="none" stroke="#63b8ff" d="M927.48,-292.62C896.12,-304.52 853.97,-319.76 816,-331 798.96,-336.05 780.39,-340.8 762.96,-344.95"/>
<polygon fill="#63b8ff" stroke="#63b8ff" points="928.75,-295.88 936.85,-289.05 926.26,-289.34 928.75,-295.88"/>
</a>
</g>
</g>
<!-- Node13 -->
<g id="Node000013" class="node">
<title>Node13</title>
<g id="a_Node000013"><a xlink:href="classcom_1_1teragrep_1_1pth__06_1_1planner_1_1walker_1_1conditions_1_1ValidElementTest.html#aebd4924948cd0e533806857b2ba0ba83" target="_top" xlink:title=" ">
<polygon fill="white" stroke="#666666" points="816,-241 568,-241 568,-211 816,-211 816,-241"/>
<text text-anchor="start" x="576" y="-229" font-family="Helvetica,sans-Serif" font-size="10.00">com.teragrep.pth_06.planner.walker.conditions.</text>
<text text-anchor="middle" x="692" y="-218" font-family="Helvetica,sans-Serif" font-size="10.00">ValidElementTest.validTest</text>
</a>
</g>
</g>
<!-- Node2&#45;&gt;Node13 -->
<g id="edge15_Node000002_Node000013" class="edge">
<title>Node2&#45;&gt;Node13</title>
<g id="a_edge15_Node000002_Node000013"><a xlink:title=" ">
<path fill="none" stroke="#63b8ff" d="M876.58,-257.25C845.53,-251.96 811.43,-246.16 781.14,-241"/>
<polygon fill="#63b8ff" stroke="#63b8ff" points="876.1,-260.72 886.55,-258.94 877.28,-253.82 876.1,-260.72"/>
</a>
</g>
</g>
<!-- Node4 -->
<g id="Node000004" class="node">
<title>Node4</title>
<g id="a_Node000004"><a xlink:href="classcom_1_1teragrep_1_1pth__06_1_1planner_1_1walker_1_1conditions_1_1ElementCondition.html#a77e4bd928b9d9dd1e2ef3380f65e3ab7" target="_top" xlink:title=" ">
<polygon fill="white" stroke="#666666" points="532,-126 284,-126 284,-96 532,-96 532,-126"/>
<text text-anchor="start" x="292" y="-114" font-family="Helvetica,sans-Serif" font-size="10.00">com.teragrep.pth_06.planner.walker.conditions.</text>
<text text-anchor="middle" x="408" y="-103" font-family="Helvetica,sans-Serif" font-size="10.00">ElementCondition.condition</text>
</a>
</g>
</g>
<!-- Node3&#45;&gt;Node4 -->
<g id="edge3_Node000003_Node000004" class="edge">
<title>Node3&#45;&gt;Node4</title>
<g id="a_edge3_Node000003_Node000004"><a xlink:title=" ">
<path fill="none" stroke="#63b8ff" d="M640.48,-160.74C618.18,-155.79 591.71,-150.51 568,-145 543.21,-139.24 516.44,-132.28 492.06,-126.04"/>
<polygon fill="#63b8ff" stroke="#63b8ff" points="639.88,-164.19 650.4,-162.98 641.43,-157.36 639.88,-164.19"/>
</a>
</g>
</g>
<!-- Node4&#45;&gt;Node3 -->
<g id="edge4_Node000004_Node000003" class="edge">
<title>Node4&#45;&gt;Node3</title>
<g id="a_edge4_Node000004_Node000003"><a xlink:title=" ">
<path fill="none" stroke="#63b8ff" d="M447.31,-129.41C479.4,-140.35 526.48,-153.35 568,-163 568.11,-163.02 568.21,-163.05 568.32,-163.07"/>
<polygon fill="#63b8ff" stroke="#63b8ff" points="448.45,-126.1 437.86,-126.08 446.13,-132.7 448.45,-126.1"/>
</a>
</g>
</g>
<!-- Node4&#45;&gt;Node5 -->
<g id="edge5_Node000004_Node000005" class="edge">
<title>Node4&#45;&gt;Node5</title>
<g id="a_edge5_Node000004_Node000005"><a xlink:title=" ">
<path fill="none" stroke="#63b8ff" d="M284.35,-131.78C263.88,-147.67 267.2,-162.67 248,-174 233.57,-182.52 216.7,-188.08 200.15,-191.94"/>
<polygon fill="#63b8ff" stroke="#63b8ff" points="286.37,-134.64 292.66,-126.12 282.43,-128.85 286.37,-134.64"/>
</a>
</g>
</g>
<!-- Node6 -->
<g id="Node000006" class="node">
<title>Node6</title>
<g id="a_Node000006"><a xlink:href="classcom_1_1teragrep_1_1pth__06_1_1planner_1_1walker_1_1conditions_1_1ElementConditionTest.html#aa7b824b2c1a077cb408c7e0532131e67" target="_top" xlink:title=" ">
<polygon fill="white" stroke="#666666" points="248,-174 0,-174 0,-144 248,-144 248,-174"/>
<text text-anchor="start" x="8" y="-162" font-family="Helvetica,sans-Serif" font-size="10.00">com.teragrep.pth_06.planner.walker.conditions.</text>
<text text-anchor="middle" x="124" y="-151" font-family="Helvetica,sans-Serif" font-size="10.00">ElementConditionTest.equalsTest</text>
</a>
</g>
</g>
<!-- Node4&#45;&gt;Node6 -->
<g id="edge7_Node000004_Node000006" class="edge">
<title>Node4&#45;&gt;Node6</title>
<g id="a_edge7_Node000004_Node000006"><a xlink:title=" ">
<path fill="none" stroke="#63b8ff" d="M308.58,-127.75C277.53,-133.04 243.43,-138.84 213.14,-144"/>
<polygon fill="#63b8ff" stroke="#63b8ff" points="309.28,-131.18 318.55,-126.06 308.1,-124.28 309.28,-131.18"/>
</a>
</g>
</g>
<!-- Node7 -->
<g id="Node000007" class="node">
<title>Node7</title>
<g id="a_Node000007"><a xlink:href="classcom_1_1teragrep_1_1pth__06_1_1planner_1_1walker_1_1conditions_1_1ElementConditionTest.html#afc3b6a3b2fe594a7c6df49f7ad3cb88a" target="_top" xlink:title=" ">
<polygon fill="white" stroke="#666666" points="248,-126 0,-126 0,-96 248,-96 248,-126"/>
<text text-anchor="start" x="8" y="-114" font-family="Helvetica,sans-Serif" font-size="10.00">com.teragrep.pth_06.planner.walker.conditions.</text>
<text text-anchor="middle" x="124" y="-103" font-family="Helvetica,sans-Serif" font-size="10.00">ElementConditionTest.testInvalidStreamTags</text>
</a>
</g>
</g>
<!-- Node4&#45;&gt;Node7 -->
<g id="edge8_Node000004_Node000007" class="edge">
<title>Node4&#45;&gt;Node7</title>
<g id="a_edge8_Node000004_Node000007"><a xlink:title=" ">
<path fill="none" stroke="#63b8ff" d="M273.53,-111C265.16,-111 256.75,-111 248.43,-111"/>
<polygon fill="#63b8ff" stroke="#63b8ff" points="273.72,-114.5 283.72,-111 273.72,-107.5 273.72,-114.5"/>
</a>
</g>
</g>
<!-- Node8 -->
<g id="Node000008" class="node">
<title>Node8</title>
<g id="a_Node000008"><a xlink:href="classcom_1_1teragrep_1_1pth__06_1_1planner_1_1walker_1_1conditions_1_1ElementConditionTest.html#a8128d1d936c645c93ebfc6f5fe4cdbe6" target="_top" xlink:title=" ">
<polygon fill="white" stroke="#666666" points="248,-78 0,-78 0,-48 248,-48 248,-78"/>
<text text-anchor="start" x="8" y="-66" font-family="Helvetica,sans-Serif" font-size="10.00">com.teragrep.pth_06.planner.walker.conditions.</text>
<text text-anchor="middle" x="124" y="-55" font-family="Helvetica,sans-Serif" font-size="10.00">ElementConditionTest.testStreamTags</text>
</a>
</g>
</g>
<!-- Node4&#45;&gt;Node8 -->
<g id="edge9_Node000004_Node000008" class="edge">
<title>Node4&#45;&gt;Node8</title>
<g id="a_edge9_Node000004_Node000008"><a xlink:title=" ">
<path fill="none" stroke="#63b8ff" d="M308.58,-94.25C277.53,-88.96 243.43,-83.16 213.14,-78"/>
<polygon fill="#63b8ff" stroke="#63b8ff" points="308.1,-97.72 318.55,-95.94 309.28,-90.82 308.1,-97.72"/>
</a>
</g>
</g>
<!-- Node9 -->
<g id="Node000009" class="node">
<title>Node9</title>
<g id="a_Node000009"><a xlink:href="classcom_1_1teragrep_1_1pth__06_1_1planner_1_1walker_1_1conditions_1_1ElementConditionTest.html#aed3578cbc9f7e4f77695db0f1f45b40a" target="_top" xlink:title=" ">
<polygon fill="white" stroke="#666666" points="248,-30 0,-30 0,0 248,0 248,-30"/>
<text text-anchor="start" x="8" y="-18" font-family="Helvetica,sans-Serif" font-size="10.00">com.teragrep.pth_06.planner.walker.conditions.</text>
<text text-anchor="middle" x="124" y="-7" font-family="Helvetica,sans-Serif" font-size="10.00">ElementConditionTest.testTimeQualifiers</text>
</a>
</g>
</g>
<!-- Node4&#45;&gt;Node9 -->
<g id="edge10_Node000004_Node000009" class="edge">
<title>Node4&#45;&gt;Node9</title>
<g id="a_edge10_Node000004_Node000009"><a xlink:title=" ">
<path fill="none" stroke="#63b8ff" d="M370.18,-91.36C338.56,-75.22 291.35,-52.84 248,-39 237.43,-35.63 226.19,-32.64 214.96,-30.03"/>
<polygon fill="#63b8ff" stroke="#63b8ff" points="368.57,-94.47 379.07,-95.94 371.78,-88.24 368.57,-94.47"/>
</a>
</g>
</g>
<!-- Node5&#45;&gt;Node4 -->
<g id="edge6_Node000005_Node000004" class="edge">
<title>Node5&#45;&gt;Node4</title>
<g id="a_edge6_Node000005_Node000004"><a xlink:title=" ">
<path fill="none" stroke="#63b8ff" d="M256.04,-185.86C268.06,-174.04 266.1,-160.04 284,-149 302.39,-137.66 324.84,-130.75 345.5,-126.03"/>
<polygon fill="#63b8ff" stroke="#63b8ff" points="253.58,-183.34 247.72,-192.17 257.8,-188.92 253.58,-183.34"/>
</a>
</g>
</g>
<!-- Node11 -->
<g id="Node000011" class="node">
<title>Node11</title>
<g id="a_Node000011"><a xlink:href="classcom_1_1teragrep_1_1pth__06_1_1planner_1_1walker_1_1conditions_1_1ElementConditionTest.html#ac00569686f11d16cb1b703c1823cb467" target="_top" xlink:title=" ">
<polygon fill="white" stroke="#666666" points="532,-434.5 284,-434.5 284,-393.5 532,-393.5 532,-434.5"/>
<text text-anchor="start" x="292" y="-422.5" font-family="Helvetica,sans-Serif" font-size="10.00">com.teragrep.pth_06.planner.walker.conditions.</text>
<text text-anchor="start" x="292" y="-411.5" font-family="Helvetica,sans-Serif" font-size="10.00">ElementConditionTest.testIndexStatementWith</text>
<text text-anchor="middle" x="408" y="-400.5" font-family="Helvetica,sans-Serif" font-size="10.00">BadConnection</text>
</a>
</g>
</g>
<!-- Node10&#45;&gt;Node11 -->
<g id="edge13_Node000010_Node000011" class="edge">
<title>Node10&#45;&gt;Node11</title>
<g id="a_edge13_Node000010_Node000011"><a xlink:title=" ">
<path fill="none" stroke="#63b8ff" d="M602.5,-376.95C575.11,-382.19 544.63,-388.03 516.11,-393.49"/>
<polygon fill="#63b8ff" stroke="#63b8ff" points="603.28,-380.36 612.45,-375.04 601.97,-373.49 603.28,-380.36"/>
</a>
</g>
</g>
<!-- Node12 -->
<g id="Node000012" class="node">
<title>Node12</title>
<g id="a_Node000012"><a xlink:href="classcom_1_1teragrep_1_1pth__06_1_1planner_1_1walker_1_1conditions_1_1ElementConditionTest.html#a6a7f290b7a91e0b6218d4e4f01887ac2" target="_top" xlink:title=" ">
<polygon fill="white" stroke="#666666" points="532,-375 284,-375 284,-345 532,-345 532,-375"/>
<text text-anchor="start" x="292" y="-363" font-family="Helvetica,sans-Serif" font-size="10.00">com.teragrep.pth_06.planner.walker.conditions.</text>
<text text-anchor="middle" x="408" y="-352" font-family="Helvetica,sans-Serif" font-size="10.00">ElementConditionTest.testIsIndexStatement</text>
</a>
</g>
</g>
<!-- Node10&#45;&gt;Node12 -->
<g id="edge14_Node000010_Node000012" class="edge">
<title>Node10&#45;&gt;Node12</title>
<g id="a_edge14_Node000010_Node000012"><a xlink:title=" ">
<path fill="none" stroke="#63b8ff" d="M557.53,-360C549.16,-360 540.75,-360 532.43,-360"/>
<polygon fill="#63b8ff" stroke="#63b8ff" points="557.72,-363.5 567.72,-360 557.72,-356.5 557.72,-363.5"/>
</a>
</g>
</g>
<!-- Node14&#45;&gt;Node3 -->
<g id="edge17_Node000014_Node000003" class="edge">
<title>Node14&#45;&gt;Node3</title>
<g id="a_edge17_Node000014_Node000003"><a xlink:title=" ">
<path fill="none" stroke="#63b8ff" d="M876.58,-209.25C845.53,-203.96 811.43,-198.16 781.14,-193"/>
<polygon fill="#63b8ff" stroke="#63b8ff" points="876.1,-212.72 886.55,-210.94 877.28,-205.82 876.1,-212.72"/>
</a>
</g>
</g>
<!-- Node14&#45;&gt;Node5 -->
<g id="edge18_Node000014_Node000005" class="edge">
<title>Node14&#45;&gt;Node5</title>
<g id="a_edge18_Node000014_Node000005"><a xlink:title=" ">
<path fill="none" stroke="#63b8ff" d="M860.15,-245.37C857.36,-246.81 854.63,-248.35 852,-250 829.41,-264.16 839.85,-286.07 816,-298 704.12,-353.94 322.25,-260.17 179.46,-222.02"/>
<polygon fill="#63b8ff" stroke="#63b8ff" points="861.71,-248.5 869.29,-241.11 858.75,-242.16 861.71,-248.5"/>
</a>
</g>
</g>
<!-- Node14&#45;&gt;Node10 -->
<g id="edge19_Node000014_Node000010" class="edge">
<title>Node14&#45;&gt;Node10</title>
<g id="a_edge19_Node000014_Node000010"><a xlink:title=" ">
<path fill="none" stroke="#63b8ff" d="M856.92,-246.37C855.24,-247.52 853.6,-248.73 852,-250 821.19,-274.55 846.33,-305.86 816,-331 809.24,-336.6 801.59,-341.16 793.5,-344.86"/>
<polygon fill="#63b8ff" stroke="#63b8ff" points="858.93,-249.24 865.68,-241.08 855.31,-243.25 858.93,-249.24"/>
</a>
</g>
</g>
<!-- Node14&#45;&gt;Node13 -->
<g id="edge22_Node000014_Node000013" class="edge">
<title>Node14&#45;&gt;Node13</title>
<g id="a_edge22_Node000014_Node000013"><a xlink:title=" ">
<path fill="none" stroke="#63b8ff" d="M841.53,-226C833.16,-226 824.75,-226 816.43,-226"/>
<polygon fill="#63b8ff" stroke="#63b8ff" points="841.72,-229.5 851.72,-226 841.72,-222.5 841.72,-229.5"/>
</a>
</g>
</g>
<!-- Node15 -->
<g id="Node000015" class="node">
<title>Node15</title>
<g id="a_Node000015"><a xlink:href="classcom_1_1teragrep_1_1pth__06_1_1planner_1_1walker_1_1conditions_1_1ValidElementTest.html#a67d8cf6b8fd53006859128966b2287d7" target="_top" xlink:title=" ">
<polygon fill="white" stroke="#666666" points="816,-289 568,-289 568,-259 816,-259 816,-289"/>
<text text-anchor="start" x="576" y="-277" font-family="Helvetica,sans-Serif" font-size="10.00">com.teragrep.pth_06.planner.walker.conditions.</text>
<text text-anchor="middle" x="692" y="-266" font-family="Helvetica,sans-Serif" font-size="10.00">ValidElementTest.missingOperationTest</text>
</a>
</g>
</g>
<!-- Node14&#45;&gt;Node15 -->
<g id="edge20_Node000014_Node000015" class="edge">
<title>Node14&#45;&gt;Node15</title>
<g id="a_edge20_Node000014_Node000015"><a xlink:title=" ">
<path fill="none" stroke="#63b8ff" d="M876.58,-242.75C845.53,-248.04 811.43,-253.84 781.14,-259"/>
<polygon fill="#63b8ff" stroke="#63b8ff" points="877.28,-246.18 886.55,-241.06 876.1,-239.28 877.28,-246.18"/>
</a>
</g>
</g>
<!-- Node16 -->
<g id="Node000016" class="node">
<title>Node16</title>
<g id="a_Node000016"><a xlink:href="classcom_1_1teragrep_1_1pth__06_1_1planner_1_1walker_1_1conditions_1_1ValidElementTest.html#ac832b513f4dce1d1de9214c9d54ddfdd" target="_top" xlink:title=" ">
<polygon fill="white" stroke="#666666" points="816,-145 568,-145 568,-115 816,-115 816,-145"/>
<text text-anchor="start" x="576" y="-133" font-family="Helvetica,sans-Serif" font-size="10.00">com.teragrep.pth_06.planner.walker.conditions.</text>
<text text-anchor="middle" x="692" y="-122" font-family="Helvetica,sans-Serif" font-size="10.00">ValidElementTest.missingValueTest</text>
</a>
</g>
</g>
<!-- Node14&#45;&gt;Node16 -->
<g id="edge21_Node000014_Node000016" class="edge">
<title>Node14&#45;&gt;Node16</title>
<g id="a_edge21_Node000014_Node000016"><a xlink:title=" ">
<path fill="none" stroke="#63b8ff" d="M860.15,-206.63C857.36,-205.19 854.63,-203.65 852,-202 829.41,-187.84 838.59,-168.16 816,-154 810.56,-150.59 804.74,-147.65 798.71,-145.11"/>
<polygon fill="#63b8ff" stroke="#63b8ff" points="858.75,-209.84 869.29,-210.89 861.71,-203.5 858.75,-209.84"/>
</a>
</g>
</g>
<!-- Node17&#45;&gt;Node3 -->
<g id="edge24_Node000017_Node000003" class="edge">
<title>Node17&#45;&gt;Node3</title>
<g id="a_edge24_Node000017_Node000003"><a xlink:title=" ">
<path fill="none" stroke="#63b8ff" d="M841.53,-178C833.16,-178 824.75,-178 816.43,-178"/>
<polygon fill="#63b8ff" stroke="#63b8ff" points="841.72,-181.5 851.72,-178 841.72,-174.5 841.72,-181.5"/>
</a>
</g>
</g>
<!-- Node17&#45;&gt;Node5 -->
<g id="edge25_Node000017_Node000005" class="edge">
<title>Node17&#45;&gt;Node5</title>
<g id="a_edge25_Node000017_Node000005"><a xlink:title=" ">
<path fill="none" stroke="#63b8ff" d="M941.83,-157.91C910.63,-140.27 861.97,-115.92 816,-106 708.26,-82.74 671.95,-69.34 568,-106 548.62,-112.83 550.7,-126.5 532,-135 442.18,-175.83 331.43,-193.57 248.15,-201.24"/>
<polygon fill="#63b8ff" stroke="#63b8ff" points="940.13,-160.97 950.54,-162.92 943.61,-154.9 940.13,-160.97"/>
</a>
</g>
</g>
<!-- Node17&#45;&gt;Node13 -->
<g id="edge27_Node000017_Node000013" class="edge">
<title>Node17&#45;&gt;Node13</title>
<g id="a_edge27_Node000017_Node000013"><a xlink:title=" ">
<path fill="none" stroke="#63b8ff" d="M876.58,-194.75C845.53,-200.04 811.43,-205.84 781.14,-211"/>
<polygon fill="#63b8ff" stroke="#63b8ff" points="877.28,-198.18 886.55,-193.06 876.1,-191.28 877.28,-198.18"/>
</a>
</g>
</g>
<!-- Node18 -->
<g id="Node000018" class="node">
<title>Node18</title>
<g id="a_Node000018"><a xlink:href="classcom_1_1teragrep_1_1pth__06_1_1planner_1_1walker_1_1conditions_1_1ElementCondition.html#a39e39896a78174cc458ec2266e6f1ddc" target="_top" xlink:title="A set of tables needed to be joined to the query to use this condition.">
<polygon fill="white" stroke="#666666" points="816,-59 568,-59 568,-29 816,-29 816,-59"/>
<text text-anchor="start" x="576" y="-47" font-family="Helvetica,sans-Serif" font-size="10.00">com.teragrep.pth_06.planner.walker.conditions.</text>
<text text-anchor="middle" x="692" y="-36" font-family="Helvetica,sans-Serif" font-size="10.00">ElementCondition.requiredTables</text>
</a>
</g>
</g>
<!-- Node17&#45;&gt;Node18 -->
<g id="edge26_Node000017_Node000018" class="edge">
<title>Node17&#45;&gt;Node18</title>
<g id="a_edge26_Node000017_Node000018"><a xlink:title=" ">
<path fill="none" stroke="#63b8ff" d="M948.75,-156.42C918.53,-132.62 866.52,-94.81 816,-73 803.11,-67.43 788.98,-62.84 775.03,-59.08"/>
<polygon fill="#63b8ff" stroke="#63b8ff" points="946.68,-159.24 956.68,-162.73 951.04,-153.77 946.68,-159.24"/>
</a>
</g>
</g>
</g>
</svg>
