<?xml version="1.0" encoding="UTF-8" standalone="no"?>
<!DOCTYPE svg PUBLIC "-//W3C//DTD SVG 1.1//EN"
 "http://www.w3.org/Graphics/SVG/1.1/DTD/svg11.dtd">
<!-- Generated by graphviz version 2.43.0 (0)
 -->
<!-- Title: com.teragrep.pth_06.planner.walker.conditions.ElementConditionTest.testInvalidStreamTags Pages: 1 -->
<svg width="1392pt" height="182pt"
 viewBox="0.00 0.00 1392.00 182.00" xmlns="http://www.w3.org/2000/svg" xmlns:xlink="http://www.w3.org/1999/xlink">
<g id="graph0" class="graph" transform="scale(1 1) rotate(0) translate(4 178)">
<title>com.teragrep.pth_06.planner.walker.conditions.ElementConditionTest.testInvalidStreamTags</title>
<!-- Node1 -->
<g id="Node000001" class="node">
<title>Node1</title>
<g id="a_Node000001"><a xlink:title=" ">
<polygon fill="#999999" stroke="#666666" points="248,-102 0,-102 0,-72 248,-72 248,-102"/>
<text text-anchor="start" x="8" y="-90" font-family="Helvetica,sans-Serif" font-size="10.00">com.teragrep.pth_06.planner.walker.conditions.</text>
<text text-anchor="middle" x="124" y="-79" font-family="Helvetica,sans-Serif" font-size="10.00">ElementConditionTest.testInvalidStreamTags</text>
</a>
</g>
</g>
<!-- Node2 -->
<g id="Node000002" class="node">
<title>Node2</title>
<g id="a_Node000002"><a xlink:href="classcom_1_1teragrep_1_1pth__06_1_1planner_1_1walker_1_1conditions_1_1ElementCondition.html#a77e4bd928b9d9dd1e2ef3380f65e3ab7" target="_top" xlink:title=" ">
<polygon fill="white" stroke="#666666" points="532,-102 284,-102 284,-72 532,-72 532,-102"/>
<text text-anchor="start" x="292" y="-90" font-family="Helvetica,sans-Serif" font-size="10.00">com.teragrep.pth_06.planner.walker.conditions.</text>
<text text-anchor="middle" x="408" y="-79" font-family="Helvetica,sans-Serif" font-size="10.00">ElementCondition.condition</text>
</a>
</g>
</g>
<!-- Node1&#45;&gt;Node2 -->
<g id="edge1_Node000001_Node000002" class="edge">
<title>Node1&#45;&gt;Node2</title>
<g id="a_edge1_Node000001_Node000002"><a xlink:title=" ">
<path fill="none" stroke="#63b8ff" d="M248.28,-87C256.6,-87 265.01,-87 273.38,-87"/>
<polygon fill="#63b8ff" stroke="#63b8ff" points="273.57,-90.5 283.57,-87 273.57,-83.5 273.57,-90.5"/>
</a>
</g>
</g>
<!-- Node3 -->
<g id="Node000003" class="node">
<title>Node3</title>
<g id="a_Node000003"><a xlink:href="classcom_1_1teragrep_1_1pth__06_1_1planner_1_1walker_1_1conditions_1_1ElementCondition.html#ad598b3368f8fca059dfc07a49d352f31" target="_top" xlink:title=" ">
<polygon fill="white" stroke="#666666" points="816,-126 568,-126 568,-96 816,-96 816,-126"/>
<text text-anchor="start" x="576" y="-114" font-family="Helvetica,sans-Serif" font-size="10.00">com.teragrep.pth_06.planner.walker.conditions.</text>
<text text-anchor="middle" x="692" y="-103" font-family="Helvetica,sans-Serif" font-size="10.00">ElementCondition.conditionForJournalDBQuery</text>
</a>
</g>
</g>
<!-- Node2&#45;&gt;Node3 -->
<g id="edge2_Node000002_Node000003" class="edge">
<title>Node2&#45;&gt;Node3</title>
<g id="a_edge2_Node000002_Node000003"><a xlink:title=" ">
<path fill="none" stroke="#63b8ff" d="M532.28,-90.79C548.33,-92.07 564.69,-93.49 580.51,-94.99"/>
<polygon fill="#63b8ff" stroke="#63b8ff" points="580.53,-98.51 590.82,-95.98 581.2,-91.54 580.53,-98.51"/>
</a>
</g>
</g>
<!-- Node9 -->
<g id="Node000009" class="node">
<title>Node9</title>
<g id="a_Node000009"><a xlink:href="classcom_1_1teragrep_1_1pth__06_1_1planner_1_1walker_1_1conditions_1_1ElementCondition.html#ad1faef74318cb350165bbeafd562ecde" target="_top" xlink:title=" ">
<polygon fill="white" stroke="#666666" points="816,-78 568,-78 568,-48 816,-48 816,-78"/>
<text text-anchor="start" x="576" y="-66" font-family="Helvetica,sans-Serif" font-size="10.00">com.teragrep.pth_06.planner.walker.conditions.</text>
<text text-anchor="middle" x="692" y="-55" font-family="Helvetica,sans-Serif" font-size="10.00">ElementCondition.conditionForStreamDBQuery</text>
</a>
</g>
</g>
<!-- Node2&#45;&gt;Node9 -->
<g id="edge11_Node000002_Node000009" class="edge">
<title>Node2&#45;&gt;Node9</title>
<g id="a_edge11_Node000002_Node000009"><a xlink:title=" ">
<path fill="none" stroke="#63b8ff" d="M509.22,-71.98C524.95,-70.44 541.42,-68.95 557.76,-67.6"/>
<polygon fill="#63b8ff" stroke="#63b8ff" points="558.22,-71.07 567.9,-66.78 557.65,-64.1 558.22,-71.07"/>
</a>
</g>
</g>
<!-- Node3&#45;&gt;Node2 -->
<g id="edge3_Node000003_Node000002" class="edge">
<title>Node3&#45;&gt;Node2</title>
<g id="a_edge3_Node000003_Node000002"><a xlink:title=" ">
<path fill="none" stroke="#63b8ff" d="M567.9,-107.22C551.82,-105.94 535.41,-104.52 519.55,-103.02"/>
<polygon fill="#63b8ff" stroke="#63b8ff" points="519.51,-99.5 509.22,-102.02 518.84,-106.46 519.51,-99.5"/>
</a>
</g>
</g>
<!-- Node4 -->
<g id="Node000004" class="node">
<title>Node4</title>
<g id="a_Node000004"><a xlink:href="interfacecom_1_1teragrep_1_1pth__06_1_1planner_1_1walker_1_1conditions_1_1QueryCondition.html#aac40ccff3997039d273d50bd5ca122c0" target="_top" xlink:title=" ">
<polygon fill="white" stroke="#666666" points="1100,-78 852,-78 852,-48 1100,-48 1100,-78"/>
<text text-anchor="start" x="860" y="-66" font-family="Helvetica,sans-Serif" font-size="10.00">com.teragrep.pth_06.planner.walker.conditions.</text>
<text text-anchor="middle" x="976" y="-55" font-family="Helvetica,sans-Serif" font-size="10.00">QueryCondition.condition</text>
</a>
</g>
</g>
<!-- Node3&#45;&gt;Node4 -->
<g id="edge4_Node000003_Node000004" class="edge">
<title>Node3&#45;&gt;Node4</title>
<g id="a_edge4_Node000003_Node000004"><a xlink:title=" ">
<path fill="none" stroke="#63b8ff" d="M781.45,-95.94C811.77,-90.78 845.87,-84.98 876.9,-79.7"/>
<polygon fill="#63b8ff" stroke="#63b8ff" points="877.59,-83.13 886.86,-78 876.42,-76.23 877.59,-83.13"/>
</a>
</g>
</g>
<!-- Node5 -->
<g id="Node000005" class="node">
<title>Node5</title>
<g id="a_Node000005"><a xlink:href="classcom_1_1teragrep_1_1pth__06_1_1planner_1_1walker_1_1conditions_1_1ValidElement.html#a7a4670f256d613e6433c461cf275ae5c" target="_top" xlink:title=" ">
<polygon fill="white" stroke="#666666" points="1100,-30 852,-30 852,0 1100,0 1100,-30"/>
<text text-anchor="start" x="860" y="-18" font-family="Helvetica,sans-Serif" font-size="10.00">com.teragrep.pth_06.planner.walker.conditions.</text>
<text text-anchor="middle" x="976" y="-7" font-family="Helvetica,sans-Serif" font-size="10.00">ValidElement.operation</text>
</a>
</g>
</g>
<!-- Node3&#45;&gt;Node5 -->
<g id="edge5_Node000003_Node000005" class="edge">
<title>Node3&#45;&gt;Node5</title>
<g id="a_edge5_Node000003_Node000005"><a xlink:title=" ">
<path fill="none" stroke="#63b8ff" d="M798.71,-95.89C804.74,-93.35 810.56,-90.41 816,-87 838.59,-72.84 829.41,-53.16 852,-39 854.63,-37.35 857.36,-35.81 860.15,-34.37"/>
<polygon fill="#63b8ff" stroke="#63b8ff" points="861.71,-37.5 869.29,-30.11 858.75,-31.16 861.71,-37.5"/>
</a>
</g>
</g>
<!-- Node7 -->
<g id="Node000007" class="node">
<title>Node7</title>
<g id="a_Node000007"><a xlink:href="classcom_1_1teragrep_1_1pth__06_1_1planner_1_1walker_1_1conditions_1_1ValidElement.html#a5f5d7e1e5a7d4596f0df0c86657fa310" target="_top" xlink:title=" ">
<polygon fill="white" stroke="#666666" points="1100,-174 852,-174 852,-144 1100,-144 1100,-174"/>
<text text-anchor="start" x="860" y="-162" font-family="Helvetica,sans-Serif" font-size="10.00">com.teragrep.pth_06.planner.walker.conditions.</text>
<text text-anchor="middle" x="976" y="-151" font-family="Helvetica,sans-Serif" font-size="10.00">ValidElement.tag</text>
</a>
</g>
</g>
<!-- Node3&#45;&gt;Node7 -->
<g id="edge7_Node000003_Node000007" class="edge">
<title>Node3&#45;&gt;Node7</title>
<g id="a_edge7_Node000003_Node000007"><a xlink:title=" ">
<path fill="none" stroke="#63b8ff" d="M781.45,-126.06C811.77,-131.22 845.87,-137.02 876.9,-142.3"/>
<polygon fill="#63b8ff" stroke="#63b8ff" points="876.42,-145.77 886.86,-144 877.59,-138.87 876.42,-145.77"/>
</a>
</g>
</g>
<!-- Node8 -->
<g id="Node000008" class="node">
<title>Node8</title>
<g id="a_Node000008"><a xlink:href="classcom_1_1teragrep_1_1pth__06_1_1planner_1_1walker_1_1conditions_1_1ValidElement.html#ac0ea2df270c90db9d9cc284d8f56222d" target="_top" xlink:title=" ">
<polygon fill="white" stroke="#666666" points="1100,-126 852,-126 852,-96 1100,-96 1100,-126"/>
<text text-anchor="start" x="860" y="-114" font-family="Helvetica,sans-Serif" font-size="10.00">com.teragrep.pth_06.planner.walker.conditions.</text>
<text text-anchor="middle" x="976" y="-103" font-family="Helvetica,sans-Serif" font-size="10.00">ValidElement.value</text>
</a>
</g>
</g>
<!-- Node3&#45;&gt;Node8 -->
<g id="edge9_Node000003_Node000008" class="edge">
<title>Node3&#45;&gt;Node8</title>
<g id="a_edge9_Node000003_Node000008"><a xlink:title=" ">
<path fill="none" stroke="#63b8ff" d="M816.28,-111C824.6,-111 833.01,-111 841.38,-111"/>
<polygon fill="#63b8ff" stroke="#63b8ff" points="841.57,-114.5 851.57,-111 841.57,-107.5 841.57,-114.5"/>
</a>
</g>
</g>
<!-- Node6 -->
<g id="Node000006" class="node">
<title>Node6</title>
<g id="a_Node000006"><a xlink:href="classcom_1_1teragrep_1_1pth__06_1_1planner_1_1walker_1_1conditions_1_1ValidElement.html#a5b8694849043fd75636eea63a160b5b1" target="_top" xlink:title=" ">
<polygon fill="white" stroke="#666666" points="1384,-126 1136,-126 1136,-96 1384,-96 1384,-126"/>
<text text-anchor="start" x="1144" y="-114" font-family="Helvetica,sans-Serif" font-size="10.00">com.teragrep.pth_06.planner.walker.conditions.</text>
<text text-anchor="middle" x="1260" y="-103" font-family="Helvetica,sans-Serif" font-size="10.00">ValidElement.validate</text>
</a>
</g>
</g>
<!-- Node5&#45;&gt;Node6 -->
<g id="edge6_Node000005_Node000006" class="edge">
<title>Node5&#45;&gt;Node6</title>
<g id="a_edge6_Node000005_Node000006"><a xlink:title=" ">
<path fill="none" stroke="#63b8ff" d="M1066.96,-30.03C1078.19,-32.64 1089.43,-35.63 1100,-39 1143.35,-52.84 1190.56,-75.22 1222.18,-91.36"/>
<polygon fill="#63b8ff" stroke="#63b8ff" points="1220.57,-94.47 1231.07,-95.94 1223.78,-88.24 1220.57,-94.47"/>
</a>
</g>
</g>
<!-- Node7&#45;&gt;Node6 -->
<g id="edge8_Node000007_Node000006" class="edge">
<title>Node7&#45;&gt;Node6</title>
<g id="a_edge8_Node000007_Node000006"><a xlink:title=" ">
<path fill="none" stroke="#63b8ff" d="M1065.45,-143.94C1095.77,-138.78 1129.87,-132.98 1160.9,-127.7"/>
<polygon fill="#63b8ff" stroke="#63b8ff" points="1161.59,-131.13 1170.86,-126 1160.42,-124.23 1161.59,-131.13"/>
</a>
</g>
</g>
<!-- Node8&#45;&gt;Node6 -->
<g id="edge10_Node000008_Node000006" class="edge">
<title>Node8&#45;&gt;Node6</title>
<g id="a_edge10_Node000008_Node000006"><a xlink:title=" ">
<path fill="none" stroke="#63b8ff" d="M1100.28,-111C1108.6,-111 1117.01,-111 1125.38,-111"/>
<polygon fill="#63b8ff" stroke="#63b8ff" points="1125.57,-114.5 1135.57,-111 1125.57,-107.5 1125.57,-114.5"/>
</a>
</g>
</g>
<!-- Node9&#45;&gt;Node2 -->
<g id="edge12_Node000009_Node000002" class="edge">
<title>Node9&#45;&gt;Node2</title>
<g id="a_edge12_Node000009_Node000002"><a xlink:title=" ">
<path fill="none" stroke="#63b8ff" d="M590.82,-78.02C575.13,-79.56 558.69,-81.04 542.4,-82.39"/>
<polygon fill="#63b8ff" stroke="#63b8ff" points="541.96,-78.91 532.28,-83.21 542.53,-85.89 541.96,-78.91"/>
</a>
</g>
</g>
<!-- Node9&#45;&gt;Node4 -->
<g id="edge13_Node000009_Node000004" class="edge">
<title>Node9&#45;&gt;Node4</title>
<g id="a_edge13_Node000009_Node000004"><a xlink:title=" ">
<path fill="none" stroke="#63b8ff" d="M816.28,-63C824.6,-63 833.01,-63 841.38,-63"/>
<polygon fill="#63b8ff" stroke="#63b8ff" points="841.57,-66.5 851.57,-63 841.57,-59.5 841.57,-66.5"/>
</a>
</g>
</g>
<!-- Node9&#45;&gt;Node5 -->
<g id="edge14_Node000009_Node000005" class="edge">
<title>Node9&#45;&gt;Node5</title>
<g id="a_edge14_Node000009_Node000005"><a xlink:title=" ">
<path fill="none" stroke="#63b8ff" d="M781.45,-47.94C811.77,-42.78 845.87,-36.98 876.9,-31.7"/>
<polygon fill="#63b8ff" stroke="#63b8ff" points="877.59,-35.13 886.86,-30 876.42,-28.23 877.59,-35.13"/>
</a>
</g>
</g>
<!-- Node9&#45;&gt;Node7 -->
<g id="edge15_Node000009_Node000007" class="edge">
<title>Node9&#45;&gt;Node7</title>
<g id="a_edge15_Node000009_Node000007"><a xlink:title=" ">
<path fill="none" stroke="#63b8ff" d="M798.71,-78.11C804.74,-80.65 810.56,-83.59 816,-87 838.59,-101.16 829.41,-120.84 852,-135 854.63,-136.65 857.36,-138.19 860.15,-139.63"/>
<polygon fill="#63b8ff" stroke="#63b8ff" points="858.75,-142.84 869.29,-143.89 861.71,-136.5 858.75,-142.84"/>
</a>
</g>
</g>
<!-- Node9&#45;&gt;Node8 -->
<g id="edge16_Node000009_Node000008" class="edge">
<title>Node9&#45;&gt;Node8</title>
<g id="a_edge16_Node000009_Node000008"><a xlink:title=" ">
<path fill="none" stroke="#63b8ff" d="M781.45,-78.06C811.77,-83.22 845.87,-89.02 876.9,-94.3"/>
<polygon fill="#63b8ff" stroke="#63b8ff" points="876.42,-97.77 886.86,-96 877.59,-90.87 876.42,-97.77"/>
</a>
</g>
</g>
</g>
</svg>
