<?xml version="1.0" encoding="UTF-8" standalone="no"?>
<!DOCTYPE svg PUBLIC "-//W3C//DTD SVG 1.1//EN"
 "http://www.w3.org/Graphics/SVG/1.1/DTD/svg11.dtd">
<!-- Generated by graphviz version 2.43.0 (0)
 -->
<!-- Title: com.teragrep.pth_06.ConfiguredLogger.info Pages: 1 -->
<svg width="1347pt" height="759pt"
 viewBox="0.00 0.00 1347.00 759.48" xmlns="http://www.w3.org/2000/svg" xmlns:xlink="http://www.w3.org/1999/xlink">
<g id="graph0" class="graph" transform="scale(1 1) rotate(0) translate(4 755.48)">
<title>com.teragrep.pth_06.ConfiguredLogger.info</title>
<!-- Node1 -->
<g id="Node000001" class="node">
<title>Node1</title>
<g id="a_Node000001"><a xlink:title=" ">
<polygon fill="#999999" stroke="#666666" points="1339,-567.31 1166,-567.31 1166,-537.31 1339,-537.31 1339,-567.31"/>
<text text-anchor="start" x="1174" y="-555.31" font-family="Helvetica,sans-Serif" font-size="10.00">com.teragrep.pth_06.Configured</text>
<text text-anchor="middle" x="1252.5" y="-544.31" font-family="Helvetica,sans-Serif" font-size="10.00">Logger.info</text>
</a>
</g>
</g>
<!-- Node2 -->
<g id="Node000002" class="node">
<title>Node2</title>
<g id="a_Node000002"><a xlink:href="classcom_1_1teragrep_1_1pth__06_1_1planner_1_1SliceTable.html#a744def0dd9aab42426ac96e2cf62ca41" target="_top" xlink:title=" ">
<polygon fill="white" stroke="#666666" points="893,-730.31 733,-730.31 733,-700.31 893,-700.31 893,-730.31"/>
<text text-anchor="start" x="741" y="-718.31" font-family="Helvetica,sans-Serif" font-size="10.00">com.teragrep.pth_06.planner.</text>
<text text-anchor="middle" x="813" y="-707.31" font-family="Helvetica,sans-Serif" font-size="10.00">SliceTable.create</text>
</a>
</g>
</g>
<!-- Node1&#45;&gt;Node2 -->
<g id="edge1_Node000001_Node000002" class="edge">
<title>Node1&#45;&gt;Node2</title>
<g id="a_edge1_Node000001_Node000002"><a xlink:title=" ">
<path fill="none" stroke="#63b8ff" d="M1218.82,-572.76C1194.83,-587.23 1161.13,-606.45 1130,-620.31 1040.38,-660.21 1015.44,-664.76 921,-691.31 909.73,-694.48 897.7,-697.51 885.92,-700.29"/>
<polygon fill="#63b8ff" stroke="#63b8ff" points="1220.79,-575.66 1227.51,-567.47 1217.15,-569.68 1220.79,-575.66"/>
</a>
</g>
</g>
<!-- Node3 -->
<g id="Node000003" class="node">
<title>Node3</title>
<g id="a_Node000003"><a xlink:href="classcom_1_1teragrep_1_1pth__06_1_1planner_1_1StreamDBClient.html#a8adc39a87d9dc4ab7c69817e8852d955" target="_top" xlink:title=" ">
<polygon fill="white" stroke="#666666" points="650.5,-706.31 474.5,-706.31 474.5,-676.31 650.5,-676.31 650.5,-706.31"/>
<text text-anchor="start" x="482.5" y="-694.31" font-family="Helvetica,sans-Serif" font-size="10.00">com.teragrep.pth_06.planner.</text>
<text text-anchor="middle" x="562.5" y="-683.31" font-family="Helvetica,sans-Serif" font-size="10.00">StreamDBClient.StreamDBClient</text>
</a>
</g>
</g>
<!-- Node1&#45;&gt;Node3 -->
<g id="edge30_Node000001_Node000003" class="edge">
<title>Node1&#45;&gt;Node3</title>
<g id="a_edge30_Node000001_Node000003"><a xlink:title=" ">
<path fill="none" stroke="#63b8ff" d="M1231.7,-575.1C1209.2,-599.78 1170.36,-638.87 1130,-663.31 1045.45,-714.51 1018.34,-722.16 921,-739.31 826.46,-755.97 799.72,-754.94 705,-739.31 667.12,-733.06 625.75,-717.99 597.58,-706.39"/>
<polygon fill="#63b8ff" stroke="#63b8ff" points="1234.33,-577.41 1238.41,-567.63 1229.12,-572.73 1234.33,-577.41"/>
</a>
</g>
</g>
<!-- Node4 -->
<g id="Node000004" class="node">
<title>Node4</title>
<g id="a_Node000004"><a xlink:href="classcom_1_1teragrep_1_1pth__06_1_1planner_1_1GetArchivedObjectsFilterTable.html#ac4c8643436fd6d8bdd98f772e17843d4" target="_top" xlink:title=" ">
<polygon fill="white" stroke="#666666" points="911.5,-682.31 714.5,-682.31 714.5,-652.31 911.5,-652.31 911.5,-682.31"/>
<text text-anchor="start" x="722.5" y="-670.31" font-family="Helvetica,sans-Serif" font-size="10.00">com.teragrep.pth_06.planner.</text>
<text text-anchor="middle" x="813" y="-659.31" font-family="Helvetica,sans-Serif" font-size="10.00">GetArchivedObjectsFilterTable.create</text>
</a>
</g>
</g>
<!-- Node1&#45;&gt;Node4 -->
<g id="edge3_Node000001_Node000004" class="edge">
<title>Node1&#45;&gt;Node4</title>
<g id="a_edge3_Node000001_Node000004"><a xlink:title=" ">
<path fill="none" stroke="#63b8ff" d="M1184.42,-569.94C1098.73,-592.47 951.87,-631.07 871.21,-652.27"/>
<polygon fill="#63b8ff" stroke="#63b8ff" points="1185.52,-573.27 1194.3,-567.34 1183.74,-566.5 1185.52,-573.27"/>
</a>
</g>
</g>
<!-- Node5 -->
<g id="Node000005" class="node">
<title>Node5</title>
<g id="a_Node000005"><a xlink:href="classcom_1_1teragrep_1_1pth__06_1_1ConfiguredLogger.html#a432bade7d6310bed1e1b9a405fb53d56" target="_top" xlink:title=" ">
<polygon fill="white" stroke="#666666" points="1130,-428.31 957,-428.31 957,-398.31 1130,-398.31 1130,-428.31"/>
<text text-anchor="start" x="965" y="-416.31" font-family="Helvetica,sans-Serif" font-size="10.00">com.teragrep.pth_06.Configured</text>
<text text-anchor="middle" x="1043.5" y="-405.31" font-family="Helvetica,sans-Serif" font-size="10.00">Logger.debug</text>
</a>
</g>
</g>
<!-- Node1&#45;&gt;Node5 -->
<g id="edge5_Node000001_Node000005" class="edge">
<title>Node1&#45;&gt;Node5</title>
<g id="a_edge5_Node000001_Node000005"><a xlink:title=" ">
<path fill="none" stroke="#63b8ff" d="M1220.48,-531.48C1178.39,-503.22 1104.17,-453.38 1067.02,-428.43"/>
<polygon fill="#63b8ff" stroke="#63b8ff" points="1218.7,-534.5 1228.95,-537.17 1222.6,-528.69 1218.7,-534.5"/>
</a>
</g>
</g>
<!-- Node13 -->
<g id="Node000013" class="node">
<title>Node13</title>
<g id="a_Node000013"><a xlink:href="classcom_1_1teragrep_1_1pth__06_1_1planner_1_1NestedTopNQuery.html#ab9a75398ae4f26212f007ce95c24c26f" target="_top" xlink:title=" ">
<polygon fill="white" stroke="#666666" points="912,-66.31 714,-66.31 714,-36.31 912,-36.31 912,-66.31"/>
<text text-anchor="start" x="722" y="-54.31" font-family="Helvetica,sans-Serif" font-size="10.00">com.teragrep.pth_06.planner.</text>
<text text-anchor="middle" x="813" y="-43.31" font-family="Helvetica,sans-Serif" font-size="10.00">NestedTopNQuery.getTableStatement</text>
</a>
</g>
</g>
<!-- Node1&#45;&gt;Node13 -->
<g id="edge28_Node000001_Node000013" class="edge">
<title>Node1&#45;&gt;Node13</title>
<g id="a_edge28_Node000001_Node000013"><a xlink:title=" ">
<path fill="none" stroke="#63b8ff" d="M1242.36,-527.15C1211.48,-445.98 1102.66,-189.49 921,-71.31 918.15,-69.46 915.17,-67.76 912.09,-66.22"/>
<polygon fill="#63b8ff" stroke="#63b8ff" points="1239.26,-528.86 1246.05,-536.99 1245.82,-526.4 1239.26,-528.86"/>
</a>
</g>
</g>
<!-- Node14 -->
<g id="Node000014" class="node">
<title>Node14</title>
<g id="a_Node000014"><a xlink:href="classcom_1_1teragrep_1_1pth__06_1_1planner_1_1StreamDBClient.html#adbe4b13c48e67d8d82ae4ed9ee93f7df" target="_top" xlink:title=" ">
<polygon fill="white" stroke="#666666" points="650,-66.31 475,-66.31 475,-36.31 650,-36.31 650,-66.31"/>
<text text-anchor="start" x="483" y="-54.31" font-family="Helvetica,sans-Serif" font-size="10.00">com.teragrep.pth_06.planner.</text>
<text text-anchor="middle" x="562.5" y="-43.31" font-family="Helvetica,sans-Serif" font-size="10.00">StreamDBClient.pullToSliceTable</text>
</a>
</g>
</g>
<!-- Node1&#45;&gt;Node14 -->
<g id="edge29_Node000001_Node000014" class="edge">
<title>Node1&#45;&gt;Node14</title>
<g id="a_edge29_Node000001_Node000014"><a xlink:title=" ">
<path fill="none" stroke="#63b8ff" d="M1248.05,-527.28C1235.73,-441.15 1191.27,-158.79 1130,-94.31 993.77,49.04 723.44,-5.78 612.62,-36.28"/>
<polygon fill="#63b8ff" stroke="#63b8ff" points="1244.59,-527.81 1249.46,-537.22 1251.52,-526.83 1244.59,-527.81"/>
</a>
</g>
</g>
<!-- Node2&#45;&gt;Node3 -->
<g id="edge2_Node000002_Node000003" class="edge">
<title>Node2&#45;&gt;Node3</title>
<g id="a_edge2_Node000002_Node000003"><a xlink:title=" ">
<path fill="none" stroke="#63b8ff" d="M722.44,-706.66C699.07,-704.4 673.91,-701.97 650.66,-699.73"/>
<polygon fill="#63b8ff" stroke="#63b8ff" points="722.4,-710.17 732.69,-707.65 723.07,-703.21 722.4,-710.17"/>
</a>
</g>
</g>
<!-- Node4&#45;&gt;Node3 -->
<g id="edge4_Node000004_Node000003" class="edge">
<title>Node4&#45;&gt;Node3</title>
<g id="a_edge4_Node000004_Node000003"><a xlink:title=" ">
<path fill="none" stroke="#63b8ff" d="M704.3,-677.71C686.37,-679.44 667.96,-681.22 650.62,-682.9"/>
<polygon fill="#63b8ff" stroke="#63b8ff" points="704.88,-681.17 714.5,-676.73 704.21,-674.2 704.88,-681.17"/>
</a>
</g>
</g>
<!-- Node5&#45;&gt;Node2 -->
<g id="edge7_Node000005_Node000002" class="edge">
<title>Node5&#45;&gt;Node2</title>
<g id="a_edge7_Node000005_Node000002"><a xlink:title=" ">
<path fill="none" stroke="#63b8ff" d="M1039.17,-438.42C1030.49,-493.34 1001.95,-624.54 921,-691.31 912.85,-698.03 903.2,-702.97 893.09,-706.58"/>
<polygon fill="#63b8ff" stroke="#63b8ff" points="1042.63,-438.9 1040.65,-428.49 1035.71,-437.87 1042.63,-438.9"/>
</a>
</g>
</g>
<!-- Node5&#45;&gt;Node3 -->
<g id="edge27_Node000005_Node000003" class="edge">
<title>Node5&#45;&gt;Node3</title>
<g id="a_edge27_Node000005_Node000003"><a xlink:title=" ">
<path fill="none" stroke="#63b8ff" d="M1034.39,-437.97C1019.28,-479.78 982.63,-564.01 921,-605.31 840.02,-659.57 799.43,-619.14 705,-643.31 669.82,-652.32 630.8,-665.83 602.66,-676.22"/>
<polygon fill="#63b8ff" stroke="#63b8ff" points="1037.77,-438.91 1037.77,-428.31 1031.17,-436.6 1037.77,-438.91"/>
</a>
</g>
</g>
<!-- Node5&#45;&gt;Node4 -->
<g id="edge8_Node000005_Node000004" class="edge">
<title>Node5&#45;&gt;Node4</title>
<g id="a_edge8_Node000005_Node000004"><a xlink:title=" ">
<path fill="none" stroke="#63b8ff" d="M1030.67,-437.75C1003.68,-493.12 938.52,-624.43 921,-638.31 913.84,-643.99 905.65,-648.56 897.06,-652.23"/>
<polygon fill="#63b8ff" stroke="#63b8ff" points="1033.88,-439.16 1035.1,-428.64 1027.58,-436.1 1033.88,-439.16"/>
</a>
</g>
</g>
<!-- Node6 -->
<g id="Node000006" class="node">
<title>Node6</title>
<g id="a_Node000006"><a xlink:href="classcom_1_1teragrep_1_1pth__06_1_1ArchiveMicroStreamReader.html#a0ba49415b3c82882789a4c9e9f58f472" target="_top" xlink:title=" ">
<polygon fill="white" stroke="#666666" points="892,-452.31 734,-452.31 734,-422.31 892,-422.31 892,-452.31"/>
<text text-anchor="start" x="742" y="-440.31" font-family="Helvetica,sans-Serif" font-size="10.00">com.teragrep.pth_06.Archive</text>
<text text-anchor="middle" x="813" y="-429.31" font-family="Helvetica,sans-Serif" font-size="10.00">MicroStreamReader.commit</text>
</a>
</g>
</g>
<!-- Node5&#45;&gt;Node6 -->
<g id="edge6_Node000005_Node000006" class="edge">
<title>Node5&#45;&gt;Node6</title>
<g id="a_edge6_Node000005_Node000006"><a xlink:title=" ">
<path fill="none" stroke="#63b8ff" d="M946.76,-423.37C928.62,-425.27 909.83,-427.25 892.3,-429.09"/>
<polygon fill="#63b8ff" stroke="#63b8ff" points="947.19,-426.84 956.76,-422.32 946.45,-419.88 947.19,-426.84"/>
</a>
</g>
</g>
<!-- Node7 -->
<g id="Node000007" class="node">
<title>Node7</title>
<g id="a_Node000007"><a xlink:href="classcom_1_1teragrep_1_1pth__06_1_1ArchiveMicroStreamReader.html#a62416fc430035444b01b4608b40546ac" target="_top" xlink:title=" ">
<polygon fill="white" stroke="#666666" points="921,-356.31 705,-356.31 705,-326.31 921,-326.31 921,-356.31"/>
<text text-anchor="start" x="713" y="-344.31" font-family="Helvetica,sans-Serif" font-size="10.00">com.teragrep.pth_06.Archive</text>
<text text-anchor="middle" x="813" y="-333.31" font-family="Helvetica,sans-Serif" font-size="10.00">MicroStreamReader.createReaderFactory</text>
</a>
</g>
</g>
<!-- Node5&#45;&gt;Node7 -->
<g id="edge9_Node000005_Node000007" class="edge">
<title>Node5&#45;&gt;Node7</title>
<g id="a_edge9_Node000005_Node000007"><a xlink:title=" ">
<path fill="none" stroke="#63b8ff" d="M999.01,-394.22C976.1,-384.66 947.37,-373.42 921,-365.31 910.45,-362.06 899.18,-359.06 888.07,-356.35"/>
<polygon fill="#63b8ff" stroke="#63b8ff" points="997.87,-397.54 1008.44,-398.21 1000.59,-391.09 997.87,-397.54"/>
</a>
</g>
</g>
<!-- Node8 -->
<g id="Node000008" class="node">
<title>Node8</title>
<g id="a_Node000008"><a xlink:href="classcom_1_1teragrep_1_1pth__06_1_1ArchiveMicroStreamReader.html#a411ca28ffc87898fce4bc8e77cdc0ee3" target="_top" xlink:title=" ">
<polygon fill="white" stroke="#666666" points="911.5,-211.81 714.5,-211.81 714.5,-170.81 911.5,-170.81 911.5,-211.81"/>
<text text-anchor="start" x="722.5" y="-199.81" font-family="Helvetica,sans-Serif" font-size="10.00">com.teragrep.pth_06.Archive</text>
<text text-anchor="start" x="722.5" y="-188.81" font-family="Helvetica,sans-Serif" font-size="10.00">MicroStreamReader.currentDatabase</text>
<text text-anchor="middle" x="813" y="-177.81" font-family="Helvetica,sans-Serif" font-size="10.00">Metrics</text>
</a>
</g>
</g>
<!-- Node5&#45;&gt;Node8 -->
<g id="edge10_Node000005_Node000008" class="edge">
<title>Node5&#45;&gt;Node8</title>
<g id="a_edge10_Node000005_Node000008"><a xlink:title=" ">
<path fill="none" stroke="#63b8ff" d="M1033.71,-388.68C1017.78,-347.63 980.21,-265.39 921,-221.31 916.2,-217.74 911,-214.59 905.56,-211.82"/>
<polygon fill="#63b8ff" stroke="#63b8ff" points="1030.49,-390.06 1037.29,-398.18 1037.04,-387.59 1030.49,-390.06"/>
</a>
</g>
</g>
<!-- Node10 -->
<g id="Node000010" class="node">
<title>Node10</title>
<g id="a_Node000010"><a xlink:href="classcom_1_1teragrep_1_1pth__06_1_1planner_1_1StreamDBClient.html#a94bfcc395eb96d3c4ed2363f7cea991d" target="_top" xlink:title=" ">
<polygon fill="white" stroke="#666666" points="920.5,-404.31 705.5,-404.31 705.5,-374.31 920.5,-374.31 920.5,-404.31"/>
<text text-anchor="start" x="713.5" y="-392.31" font-family="Helvetica,sans-Serif" font-size="10.00">com.teragrep.pth_06.planner.</text>
<text text-anchor="middle" x="813" y="-381.31" font-family="Helvetica,sans-Serif" font-size="10.00">StreamDBClient.currentDatabaseMetrics</text>
</a>
</g>
</g>
<!-- Node5&#45;&gt;Node10 -->
<g id="edge12_Node000005_Node000010" class="edge">
<title>Node5&#45;&gt;Node10</title>
<g id="a_edge12_Node000005_Node000010"><a xlink:title=" ">
<path fill="none" stroke="#63b8ff" d="M946.74,-403.25C938.13,-402.35 929.38,-401.43 920.68,-400.52"/>
<polygon fill="#63b8ff" stroke="#63b8ff" points="946.45,-406.74 956.76,-404.31 947.19,-399.78 946.45,-406.74"/>
</a>
</g>
</g>
<!-- Node12 -->
<g id="Node000012" class="node">
<title>Node12</title>
<g id="a_Node000012"><a xlink:href="classcom_1_1teragrep_1_1pth__06_1_1ArchiveMicroStreamReader.html#a642bbe56ee51994eb354fbf6b058aa07" target="_top" xlink:title=" ">
<polygon fill="white" stroke="#666666" points="912,-260.31 714,-260.31 714,-230.31 912,-230.31 912,-260.31"/>
<text text-anchor="start" x="722" y="-248.31" font-family="Helvetica,sans-Serif" font-size="10.00">com.teragrep.pth_06.Archive</text>
<text text-anchor="middle" x="813" y="-237.31" font-family="Helvetica,sans-Serif" font-size="10.00">MicroStreamReader.deserializeOffset</text>
</a>
</g>
</g>
<!-- Node5&#45;&gt;Node12 -->
<g id="edge14_Node000005_Node000012" class="edge">
<title>Node5&#45;&gt;Node12</title>
<g id="a_edge14_Node000005_Node000012"><a xlink:title=" ">
<path fill="none" stroke="#63b8ff" d="M1028.93,-388.98C1009.44,-356.4 970.38,-299.27 921,-269.31 915.3,-265.85 909.16,-262.89 902.81,-260.36"/>
<polygon fill="#63b8ff" stroke="#63b8ff" points="1026.05,-390.99 1034.12,-397.85 1032.09,-387.45 1026.05,-390.99"/>
</a>
</g>
</g>
<!-- Node5&#45;&gt;Node13 -->
<g id="edge15_Node000005_Node000013" class="edge">
<title>Node5&#45;&gt;Node13</title>
<g id="a_edge15_Node000005_Node000013"><a xlink:title=" ">
<path fill="none" stroke="#63b8ff" d="M1030.94,-389.11C1013.38,-351.77 979.67,-277.59 957,-212.31 937.05,-154.87 964.03,-123.27 921,-80.31 915.35,-74.67 908.72,-70.09 901.57,-66.38"/>
<polygon fill="#63b8ff" stroke="#63b8ff" points="1027.8,-390.66 1035.23,-398.21 1034.13,-387.67 1027.8,-390.66"/>
</a>
</g>
</g>
<!-- Node5&#45;&gt;Node14 -->
<g id="edge25_Node000005_Node000014" class="edge">
<title>Node5&#45;&gt;Node14</title>
<g id="a_edge25_Node000005_Node000014"><a xlink:title=" ">
<path fill="none" stroke="#63b8ff" d="M1031.73,-389.15C1015.09,-351.58 982.4,-276.76 957,-212.31 939.83,-168.75 956.9,-143.36 921,-113.31 919.69,-112.21 755.48,-84.04 650.09,-66.06"/>
<polygon fill="#63b8ff" stroke="#63b8ff" points="1028.53,-390.57 1035.79,-398.3 1034.93,-387.74 1028.53,-390.57"/>
</a>
</g>
</g>
<!-- Node17 -->
<g id="Node000017" class="node">
<title>Node17</title>
<g id="a_Node000017"><a xlink:href="classcom_1_1teragrep_1_1pth__06_1_1ArchiveMicroStreamReader.html#ac732dee6220acab0c21d55c0ea40255b" target="_top" xlink:title="Used when Spark requests the initial offset when starting a new query.">
<polygon fill="white" stroke="#666666" points="899.5,-152.31 726.5,-152.31 726.5,-122.31 899.5,-122.31 899.5,-152.31"/>
<text text-anchor="start" x="734.5" y="-140.31" font-family="Helvetica,sans-Serif" font-size="10.00">com.teragrep.pth_06.Archive</text>
<text text-anchor="middle" x="813" y="-129.31" font-family="Helvetica,sans-Serif" font-size="10.00">MicroStreamReader.initialOffset</text>
</a>
</g>
</g>
<!-- Node5&#45;&gt;Node17 -->
<g id="edge20_Node000005_Node000017" class="edge">
<title>Node5&#45;&gt;Node17</title>
<g id="a_edge20_Node000005_Node000017"><a xlink:title=" ">
<path fill="none" stroke="#63b8ff" d="M1031.96,-388.52C1006.11,-328.24 940.3,-177.75 921,-162.31 914.59,-157.19 907.32,-153.08 899.65,-149.79"/>
<polygon fill="#63b8ff" stroke="#63b8ff" points="1028.87,-390.22 1036.02,-398.04 1035.31,-387.47 1028.87,-390.22"/>
</a>
</g>
</g>
<!-- Node18 -->
<g id="Node000018" class="node">
<title>Node18</title>
<g id="a_Node000018"><a xlink:href="classcom_1_1teragrep_1_1pth__06_1_1ArchiveMicroStreamReader.html#ae820a68e1ec38574202423e1b649e9cc" target="_top" xlink:title="Used when Spark progresses the query further to fetch more data.">
<polygon fill="white" stroke="#666666" points="899.5,-596.31 726.5,-596.31 726.5,-566.31 899.5,-566.31 899.5,-596.31"/>
<text text-anchor="start" x="734.5" y="-584.31" font-family="Helvetica,sans-Serif" font-size="10.00">com.teragrep.pth_06.Archive</text>
<text text-anchor="middle" x="813" y="-573.31" font-family="Helvetica,sans-Serif" font-size="10.00">MicroStreamReader.latestOffset</text>
</a>
</g>
</g>
<!-- Node5&#45;&gt;Node18 -->
<g id="edge21_Node000005_Node000018" class="edge">
<title>Node5&#45;&gt;Node18</title>
<g id="a_edge21_Node000005_Node000018"><a xlink:title=" ">
<path fill="none" stroke="#63b8ff" d="M1028.93,-437.64C1009.44,-470.22 970.38,-527.35 921,-557.31 914.33,-561.36 907.05,-564.73 899.52,-567.53"/>
<polygon fill="#63b8ff" stroke="#63b8ff" points="1032.09,-439.17 1034.12,-428.77 1026.05,-435.63 1032.09,-439.17"/>
</a>
</g>
</g>
<!-- Node19 -->
<g id="Node000019" class="node">
<title>Node19</title>
<g id="a_Node000019"><a xlink:href="classcom_1_1teragrep_1_1pth__06_1_1ArchiveMicroStreamReader.html#a36e4e32119c7727123f0afffcbb27780" target="_top" xlink:title=" ">
<polygon fill="white" stroke="#666666" points="914.5,-308.31 711.5,-308.31 711.5,-278.31 914.5,-278.31 914.5,-308.31"/>
<text text-anchor="start" x="719.5" y="-296.31" font-family="Helvetica,sans-Serif" font-size="10.00">com.teragrep.pth_06.Archive</text>
<text text-anchor="middle" x="813" y="-285.31" font-family="Helvetica,sans-Serif" font-size="10.00">MicroStreamReader.mostRecentOffset</text>
</a>
</g>
</g>
<!-- Node5&#45;&gt;Node19 -->
<g id="edge22_Node000005_Node000019" class="edge">
<title>Node5&#45;&gt;Node19</title>
<g id="a_edge22_Node000005_Node000019"><a xlink:title=" ">
<path fill="none" stroke="#63b8ff" d="M1020.79,-391.08C997.97,-369.02 960.03,-335.91 921,-317.31 913.78,-313.87 906.05,-310.91 898.17,-308.37"/>
<polygon fill="#63b8ff" stroke="#63b8ff" points="1018.34,-393.58 1027.93,-398.1 1023.25,-388.59 1018.34,-393.58"/>
</a>
</g>
</g>
<!-- Node20 -->
<g id="Node000020" class="node">
<title>Node20</title>
<g id="a_Node000020"><a xlink:href="classcom_1_1teragrep_1_1pth__06_1_1ArchiveMicroStreamReader.html#a38ac5d363a8989ca4a38286eed2d5a1d" target="_top" xlink:title="Forms the batch between start and end offsets and forms the input partitions from that batch.">
<polygon fill="white" stroke="#666666" points="916.5,-548.31 709.5,-548.31 709.5,-518.31 916.5,-518.31 916.5,-548.31"/>
<text text-anchor="start" x="717.5" y="-536.31" font-family="Helvetica,sans-Serif" font-size="10.00">com.teragrep.pth_06.Archive</text>
<text text-anchor="middle" x="813" y="-525.31" font-family="Helvetica,sans-Serif" font-size="10.00">MicroStreamReader.planInputPartitions</text>
</a>
</g>
</g>
<!-- Node5&#45;&gt;Node20 -->
<g id="edge24_Node000005_Node000020" class="edge">
<title>Node5&#45;&gt;Node20</title>
<g id="a_edge24_Node000005_Node000020"><a xlink:title=" ">
<path fill="none" stroke="#63b8ff" d="M1020.79,-435.54C997.97,-457.6 960.03,-490.71 921,-509.31 913.78,-512.75 906.05,-515.71 898.17,-518.25"/>
<polygon fill="#63b8ff" stroke="#63b8ff" points="1023.25,-438.03 1027.93,-428.52 1018.34,-433.04 1023.25,-438.03"/>
</a>
</g>
</g>
<!-- Node21 -->
<g id="Node000021" class="node">
<title>Node21</title>
<g id="a_Node000021"><a xlink:href="classcom_1_1teragrep_1_1pth__06_1_1ArchiveMicroStreamReader.html#ae37054d435fbdccc794afc19cd1a95da" target="_top" xlink:title=" ">
<polygon fill="white" stroke="#666666" points="892,-500.31 734,-500.31 734,-470.31 892,-470.31 892,-500.31"/>
<text text-anchor="start" x="742" y="-488.31" font-family="Helvetica,sans-Serif" font-size="10.00">com.teragrep.pth_06.Archive</text>
<text text-anchor="middle" x="813" y="-477.31" font-family="Helvetica,sans-Serif" font-size="10.00">MicroStreamReader.stop</text>
</a>
</g>
</g>
<!-- Node5&#45;&gt;Node21 -->
<g id="edge26_Node000005_Node000021" class="edge">
<title>Node5&#45;&gt;Node21</title>
<g id="a_edge26_Node000005_Node000021"><a xlink:title=" ">
<path fill="none" stroke="#63b8ff" d="M999.01,-432.4C976.1,-441.96 947.37,-453.2 921,-461.31 910.45,-464.56 899.18,-467.56 888.07,-470.27"/>
<polygon fill="#63b8ff" stroke="#63b8ff" points="1000.59,-435.53 1008.44,-428.42 997.87,-429.08 1000.59,-435.53"/>
</a>
</g>
</g>
<!-- Node9 -->
<g id="Node000009" class="node">
<title>Node9</title>
<g id="a_Node000009"><a xlink:href="classcom_1_1teragrep_1_1pth__06_1_1TeragrepScan.html#a602d40fbaa787d342efce68249ab6ea1" target="_top" xlink:title=" ">
<polygon fill="white" stroke="#666666" points="644,-257.31 481,-257.31 481,-227.31 644,-227.31 644,-257.31"/>
<text text-anchor="start" x="489" y="-245.31" font-family="Helvetica,sans-Serif" font-size="10.00">com.teragrep.pth_06.Teragrep</text>
<text text-anchor="middle" x="562.5" y="-234.31" font-family="Helvetica,sans-Serif" font-size="10.00">Scan.reportDriverMetrics</text>
</a>
</g>
</g>
<!-- Node8&#45;&gt;Node9 -->
<g id="edge11_Node000008_Node000009" class="edge">
<title>Node8&#45;&gt;Node9</title>
<g id="a_edge11_Node000008_Node000009"><a xlink:title=" ">
<path fill="none" stroke="#63b8ff" d="M704.44,-213.39C681.64,-218.06 658.08,-222.9 636.89,-227.25"/>
<polygon fill="#63b8ff" stroke="#63b8ff" points="705.41,-216.76 714.5,-211.32 704,-209.9 705.41,-216.76"/>
</a>
</g>
</g>
<!-- Node11 -->
<g id="Node000011" class="node">
<title>Node11</title>
<g id="a_Node000011"><a xlink:href="classcom_1_1teragrep_1_1pth__06_1_1planner_1_1ArchiveQueryProcessor.html#aa8d90622d53c4fd90e5dadb0e6dec340" target="_top" xlink:title=" ">
<polygon fill="white" stroke="#666666" points="669,-409.81 456,-409.81 456,-368.81 669,-368.81 669,-409.81"/>
<text text-anchor="start" x="464" y="-397.81" font-family="Helvetica,sans-Serif" font-size="10.00">com.teragrep.pth_06.planner.</text>
<text text-anchor="start" x="464" y="-386.81" font-family="Helvetica,sans-Serif" font-size="10.00">ArchiveQueryProcessor.currentDatabase</text>
<text text-anchor="middle" x="562.5" y="-375.81" font-family="Helvetica,sans-Serif" font-size="10.00">Metrics</text>
</a>
</g>
</g>
<!-- Node10&#45;&gt;Node11 -->
<g id="edge13_Node000010_Node000011" class="edge">
<title>Node10&#45;&gt;Node11</title>
<g id="a_edge13_Node000010_Node000011"><a xlink:title=" ">
<path fill="none" stroke="#63b8ff" d="M695.03,-389.31C686.36,-389.31 677.65,-389.31 669.06,-389.31"/>
<polygon fill="#63b8ff" stroke="#63b8ff" points="695.17,-392.81 705.17,-389.31 695.17,-385.81 695.17,-392.81"/>
</a>
</g>
</g>
<!-- Node13&#45;&gt;Node14 -->
<g id="edge16_Node000013_Node000014" class="edge">
<title>Node13&#45;&gt;Node14</title>
<g id="a_edge16_Node000013_Node000014"><a xlink:title=" ">
<path fill="none" stroke="#63b8ff" d="M703.36,-51.31C685.56,-51.31 667.32,-51.31 650.14,-51.31"/>
<polygon fill="#63b8ff" stroke="#63b8ff" points="703.79,-54.81 713.79,-51.31 703.79,-47.81 703.79,-54.81"/>
</a>
</g>
</g>
<!-- Node15 -->
<g id="Node000015" class="node">
<title>Node15</title>
<g id="a_Node000015"><a xlink:href="classcom_1_1teragrep_1_1pth__06_1_1planner_1_1ArchiveQueryProcessor.html#a646c09c6ba9331c48df86960f4fa8bcb" target="_top" xlink:title="Increments the latest offset value and returns that incremented offset.">
<polygon fill="white" stroke="#666666" points="182,-71.81 0,-71.81 0,-30.81 182,-30.81 182,-71.81"/>
<text text-anchor="start" x="8" y="-59.81" font-family="Helvetica,sans-Serif" font-size="10.00">com.teragrep.pth_06.planner.</text>
<text text-anchor="start" x="8" y="-48.81" font-family="Helvetica,sans-Serif" font-size="10.00">ArchiveQueryProcessor.increment</text>
<text text-anchor="middle" x="91" y="-37.81" font-family="Helvetica,sans-Serif" font-size="10.00">AndGetLatestOffset</text>
</a>
</g>
</g>
<!-- Node14&#45;&gt;Node15 -->
<g id="edge17_Node000014_Node000015" class="edge">
<title>Node14&#45;&gt;Node15</title>
<g id="a_edge17_Node000014_Node000015"><a xlink:title=" ">
<path fill="none" stroke="#63b8ff" d="M464.45,-53.64C449.57,-53.92 434.37,-54.16 420,-54.31 330.23,-55.26 307.77,-55.38 218,-54.31 206.4,-54.17 194.21,-53.96 182.16,-53.72"/>
<polygon fill="#63b8ff" stroke="#63b8ff" points="464.77,-57.13 474.7,-53.44 464.63,-50.14 464.77,-57.13"/>
</a>
</g>
</g>
<!-- Node16 -->
<g id="Node000016" class="node">
<title>Node16</title>
<g id="a_Node000016"><a xlink:href="classcom_1_1teragrep_1_1pth__06_1_1planner_1_1ArchiveQueryProcessor.html#a3e2e817526f72a254cd6358389a5b7f2" target="_top" xlink:title="Increment the rolling day and pull data for that day into the sliceTable.">
<polygon fill="white" stroke="#666666" points="420,-45.31 218,-45.31 218,-15.31 420,-15.31 420,-45.31"/>
<text text-anchor="start" x="226" y="-33.31" font-family="Helvetica,sans-Serif" font-size="10.00">com.teragrep.pth_06.planner.</text>
<text text-anchor="middle" x="319" y="-22.31" font-family="Helvetica,sans-Serif" font-size="10.00">ArchiveQueryProcessor.seekToResults</text>
</a>
</g>
</g>
<!-- Node14&#45;&gt;Node16 -->
<g id="edge18_Node000014_Node000016" class="edge">
<title>Node14&#45;&gt;Node16</title>
<g id="a_edge18_Node000014_Node000016"><a xlink:title=" ">
<path fill="none" stroke="#63b8ff" d="M464.92,-42.91C450.24,-41.64 435.05,-40.32 420.29,-39.03"/>
<polygon fill="#63b8ff" stroke="#63b8ff" points="464.73,-46.41 475,-43.79 465.34,-39.43 464.73,-46.41"/>
</a>
</g>
</g>
<!-- Node16&#45;&gt;Node15 -->
<g id="edge19_Node000016_Node000015" class="edge">
<title>Node16&#45;&gt;Node15</title>
<g id="a_edge19_Node000016_Node000015"><a xlink:title=" ">
<path fill="none" stroke="#63b8ff" d="M207.79,-40.55C199.17,-41.35 190.53,-42.15 182.07,-42.94"/>
<polygon fill="#63b8ff" stroke="#63b8ff" points="208.25,-44.02 217.89,-39.61 207.61,-37.05 208.25,-44.02"/>
</a>
</g>
</g>
<!-- Node19&#45;&gt;Node9 -->
<g id="edge23_Node000019_Node000009" class="edge">
<title>Node19&#45;&gt;Node9</title>
<g id="a_edge23_Node000019_Node000009"><a xlink:title=" ">
<path fill="none" stroke="#63b8ff" d="M728.81,-276.24C698.96,-270.11 665.55,-263.25 636.62,-257.32"/>
<polygon fill="#63b8ff" stroke="#63b8ff" points="728.29,-279.7 738.79,-278.28 729.69,-272.85 728.29,-279.7"/>
</a>
</g>
</g>
</g>
</svg>
