<?xml version="1.0" encoding="UTF-8" standalone="no"?>
<!DOCTYPE svg PUBLIC "-//W3C//DTD SVG 1.1//EN"
 "http://www.w3.org/Graphics/SVG/1.1/DTD/svg11.dtd">
<!-- Generated by graphviz version 2.43.0 (0)
 -->
<!-- Title: com.teragrep.pth_06.planner.walker.conditions.SourceTypeCondition.condition Pages: 1 -->
<svg width="575pt" height="338pt"
 viewBox="0.00 0.00 575.00 338.00" xmlns="http://www.w3.org/2000/svg" xmlns:xlink="http://www.w3.org/1999/xlink">
<g id="graph0" class="graph" transform="scale(1 1) rotate(0) translate(4 334)">
<title>com.teragrep.pth_06.planner.walker.conditions.SourceTypeCondition.condition</title>
<!-- Node1 -->
<g id="Node000001" class="node">
<title>Node1</title>
<g id="a_Node000001"><a xlink:title=" ">
<polygon fill="#999999" stroke="#666666" points="567,-186 319,-186 319,-156 567,-156 567,-186"/>
<text text-anchor="start" x="327" y="-174" font-family="Helvetica,sans-Serif" font-size="10.00">com.teragrep.pth_06.planner.walker.conditions.</text>
<text text-anchor="middle" x="443" y="-163" font-family="Helvetica,sans-Serif" font-size="10.00">SourceTypeCondition.condition</text>
</a>
</g>
</g>
<!-- Node2 -->
<g id="Node000002" class="node">
<title>Node2</title>
<g id="a_Node000002"><a xlink:href="classcom_1_1teragrep_1_1pth__06_1_1planner_1_1walker_1_1conditions_1_1SourceTypeConditionTest.html#ad61c6c368d81f41a20c821b7df11ee5e" target="_top" xlink:title=" ">
<polygon fill="white" stroke="#666666" points="265.5,-330 17.5,-330 17.5,-300 265.5,-300 265.5,-330"/>
<text text-anchor="start" x="25.5" y="-318" font-family="Helvetica,sans-Serif" font-size="10.00">com.teragrep.pth_06.planner.walker.conditions.</text>
<text text-anchor="middle" x="141.5" y="-307" font-family="Helvetica,sans-Serif" font-size="10.00">SourceTypeConditionTest.conditionTest</text>
</a>
</g>
</g>
<!-- Node1&#45;&gt;Node2 -->
<g id="edge1_Node000001_Node000002" class="edge">
<title>Node1&#45;&gt;Node2</title>
<g id="a_edge1_Node000001_Node000002"><a xlink:title=" ">
<path fill="none" stroke="#63b8ff" d="M419.9,-193.3C391.08,-220.94 337.85,-267.3 283,-291 275.05,-294.44 266.65,-297.38 258.06,-299.9"/>
<polygon fill="#63b8ff" stroke="#63b8ff" points="422.64,-195.51 427.36,-186.03 417.75,-190.5 422.64,-195.51"/>
</a>
</g>
</g>
<!-- Node3 -->
<g id="Node000003" class="node">
<title>Node3</title>
<g id="a_Node000003"><a xlink:href="classcom_1_1teragrep_1_1pth__06_1_1planner_1_1walker_1_1conditions_1_1SourceTypeConditionTest.html#a76f49325228f45cf50bf3de5d96ef616" target="_top" xlink:title=" ">
<polygon fill="white" stroke="#666666" points="265.5,-282 17.5,-282 17.5,-252 265.5,-252 265.5,-282"/>
<text text-anchor="start" x="25.5" y="-270" font-family="Helvetica,sans-Serif" font-size="10.00">com.teragrep.pth_06.planner.walker.conditions.</text>
<text text-anchor="middle" x="141.5" y="-259" font-family="Helvetica,sans-Serif" font-size="10.00">SourceTypeConditionTest.equalsTest</text>
</a>
</g>
</g>
<!-- Node1&#45;&gt;Node3 -->
<g id="edge2_Node000001_Node000003" class="edge">
<title>Node1&#45;&gt;Node3</title>
<g id="a_edge2_Node000001_Node000003"><a xlink:title=" ">
<path fill="none" stroke="#63b8ff" d="M405.55,-190.76C373.98,-207.07 326.64,-229.63 283,-243 271.88,-246.41 260.11,-249.37 248.3,-251.94"/>
<polygon fill="#63b8ff" stroke="#63b8ff" points="407.17,-193.86 414.42,-186.13 403.93,-187.65 407.17,-193.86"/>
</a>
</g>
</g>
<!-- Node4 -->
<g id="Node000004" class="node">
<title>Node4</title>
<g id="a_Node000004"><a xlink:href="classcom_1_1teragrep_1_1pth__06_1_1planner_1_1walker_1_1conditions_1_1SourceTypeConditionTest.html#a3236482704d05e3a1466e1c56ad4f3b8" target="_top" xlink:title=" ">
<polygon fill="white" stroke="#666666" points="265.5,-234 17.5,-234 17.5,-204 265.5,-204 265.5,-234"/>
<text text-anchor="start" x="25.5" y="-222" font-family="Helvetica,sans-Serif" font-size="10.00">com.teragrep.pth_06.planner.walker.conditions.</text>
<text text-anchor="middle" x="141.5" y="-211" font-family="Helvetica,sans-Serif" font-size="10.00">SourceTypeConditionTest.negationTest</text>
</a>
</g>
</g>
<!-- Node1&#45;&gt;Node4 -->
<g id="edge3_Node000001_Node000004" class="edge">
<title>Node1&#45;&gt;Node4</title>
<g id="a_edge3_Node000001_Node000004"><a xlink:title=" ">
<path fill="none" stroke="#63b8ff" d="M337.9,-187.68C304.8,-192.99 268.42,-198.82 236.11,-204"/>
<polygon fill="#63b8ff" stroke="#63b8ff" points="338.74,-191.09 348.06,-186.06 337.63,-184.18 338.74,-191.09"/>
</a>
</g>
</g>
<!-- Node5 -->
<g id="Node000005" class="node">
<title>Node5</title>
<g id="a_Node000005"><a xlink:href="classcom_1_1teragrep_1_1pth__06_1_1planner_1_1walker_1_1conditions_1_1SourceTypeConditionTest.html#a9f2dc0472ec9279fdf91456dc29cd983" target="_top" xlink:title=" ">
<polygon fill="white" stroke="#666666" points="265.5,-186 17.5,-186 17.5,-156 265.5,-156 265.5,-186"/>
<text text-anchor="start" x="25.5" y="-174" font-family="Helvetica,sans-Serif" font-size="10.00">com.teragrep.pth_06.planner.walker.conditions.</text>
<text text-anchor="middle" x="141.5" y="-163" font-family="Helvetica,sans-Serif" font-size="10.00">SourceTypeConditionTest.testPartialWildcard</text>
</a>
</g>
</g>
<!-- Node1&#45;&gt;Node5 -->
<g id="edge4_Node000001_Node000005" class="edge">
<title>Node1&#45;&gt;Node5</title>
<g id="a_edge4_Node000001_Node000005"><a xlink:title=" ">
<path fill="none" stroke="#63b8ff" d="M308.53,-171C294.25,-171 279.77,-171 265.62,-171"/>
<polygon fill="#63b8ff" stroke="#63b8ff" points="308.89,-174.5 318.89,-171 308.89,-167.5 308.89,-174.5"/>
</a>
</g>
</g>
<!-- Node6 -->
<g id="Node000006" class="node">
<title>Node6</title>
<g id="a_Node000006"><a xlink:href="classcom_1_1teragrep_1_1pth__06_1_1planner_1_1walker_1_1conditions_1_1SourceTypeConditionTest.html#a087d6af1eb68621d0218ff09d7112615" target="_top" xlink:title=" ">
<polygon fill="white" stroke="#666666" points="265.5,-137.5 17.5,-137.5 17.5,-96.5 265.5,-96.5 265.5,-137.5"/>
<text text-anchor="start" x="25.5" y="-125.5" font-family="Helvetica,sans-Serif" font-size="10.00">com.teragrep.pth_06.planner.walker.conditions.</text>
<text text-anchor="start" x="25.5" y="-114.5" font-family="Helvetica,sans-Serif" font-size="10.00">SourceTypeConditionTest.testPartialWildcard</text>
<text text-anchor="middle" x="141.5" y="-103.5" font-family="Helvetica,sans-Serif" font-size="10.00">Negation</text>
</a>
</g>
</g>
<!-- Node1&#45;&gt;Node6 -->
<g id="edge5_Node000001_Node000006" class="edge">
<title>Node1&#45;&gt;Node6</title>
<g id="a_edge5_Node000001_Node000006"><a xlink:title=" ">
<path fill="none" stroke="#63b8ff" d="M348.39,-154.12C319.2,-148.86 286.68,-143 256.26,-137.51"/>
<polygon fill="#63b8ff" stroke="#63b8ff" points="348.11,-157.63 358.57,-155.96 349.35,-150.74 348.11,-157.63"/>
</a>
</g>
</g>
<!-- Node7 -->
<g id="Node000007" class="node">
<title>Node7</title>
<g id="a_Node000007"><a xlink:href="classcom_1_1teragrep_1_1pth__06_1_1planner_1_1walker_1_1conditions_1_1SourceTypeConditionTest.html#a130b0848f18b3c8c976cc421a14b030d" target="_top" xlink:title=" ">
<polygon fill="white" stroke="#666666" points="265.5,-78 17.5,-78 17.5,-48 265.5,-48 265.5,-78"/>
<text text-anchor="start" x="25.5" y="-66" font-family="Helvetica,sans-Serif" font-size="10.00">com.teragrep.pth_06.planner.walker.conditions.</text>
<text text-anchor="middle" x="141.5" y="-55" font-family="Helvetica,sans-Serif" font-size="10.00">SourceTypeConditionTest.wildcardAsTrueTest</text>
</a>
</g>
</g>
<!-- Node1&#45;&gt;Node7 -->
<g id="edge6_Node000001_Node000007" class="edge">
<title>Node1&#45;&gt;Node7</title>
<g id="a_edge6_Node000001_Node000007"><a xlink:title=" ">
<path fill="none" stroke="#63b8ff" d="M410.09,-150.61C378.88,-131.58 329.41,-103.82 283,-88 271.63,-84.12 259.52,-80.82 247.37,-78.01"/>
<polygon fill="#63b8ff" stroke="#63b8ff" points="408.43,-153.69 418.78,-155.97 412.1,-147.74 408.43,-153.69"/>
</a>
</g>
</g>
<!-- Node8 -->
<g id="Node000008" class="node">
<title>Node8</title>
<g id="a_Node000008"><a xlink:href="classcom_1_1teragrep_1_1pth__06_1_1planner_1_1walker_1_1conditions_1_1SourceTypeConditionTest.html#a74139121d37e0ac4f0d63ddc3d36e2de" target="_top" xlink:title=" ">
<polygon fill="white" stroke="#666666" points="283,-30 0,-30 0,0 283,0 283,-30"/>
<text text-anchor="start" x="8" y="-18" font-family="Helvetica,sans-Serif" font-size="10.00">com.teragrep.pth_06.planner.walker.conditions.</text>
<text text-anchor="middle" x="141.5" y="-7" font-family="Helvetica,sans-Serif" font-size="10.00">SourceTypeConditionTest.wildcardNegationAsFalseTest</text>
</a>
</g>
</g>
<!-- Node1&#45;&gt;Node8 -->
<g id="edge7_Node000001_Node000008" class="edge">
<title>Node1&#45;&gt;Node8</title>
<g id="a_edge7_Node000001_Node000008"><a xlink:title=" ">
<path fill="none" stroke="#63b8ff" d="M422.05,-148.24C394.16,-118.03 340.45,-65.42 283,-39 275.47,-35.54 267.5,-32.57 259.34,-30.03"/>
<polygon fill="#63b8ff" stroke="#63b8ff" points="419.57,-150.72 428.89,-155.77 424.76,-146.02 419.57,-150.72"/>
</a>
</g>
</g>
</g>
</svg>
