<?xml version="1.0" encoding="UTF-8" standalone="no"?>
<!DOCTYPE svg PUBLIC "-//W3C//DTD SVG 1.1//EN"
 "http://www.w3.org/Graphics/SVG/1.1/DTD/svg11.dtd">
<!-- Generated by graphviz version 2.43.0 (0)
 -->
<!-- Title: com.teragrep.pth_06.TeragrepScan.reportDriverMetrics Pages: 1 -->
<svg width="410pt" height="98pt"
 viewBox="0.00 0.00 410.00 97.50" xmlns="http://www.w3.org/2000/svg" xmlns:xlink="http://www.w3.org/1999/xlink">
<g id="graph0" class="graph" transform="scale(1 1) rotate(0) translate(4 93.5)">
<title>com.teragrep.pth_06.TeragrepScan.reportDriverMetrics</title>
<!-- Node1 -->
<g id="Node000001" class="node">
<title>Node1</title>
<g id="a_Node000001"><a xlink:title=" ">
<polygon fill="#999999" stroke="#666666" points="163,-57 0,-57 0,-27 163,-27 163,-57"/>
<text text-anchor="start" x="8" y="-45" font-family="Helvetica,sans-Serif" font-size="10.00">com.teragrep.pth_06.Teragrep</text>
<text text-anchor="middle" x="81.5" y="-34" font-family="Helvetica,sans-Serif" font-size="10.00">Scan.reportDriverMetrics</text>
</a>
</g>
</g>
<!-- Node2 -->
<g id="Node000002" class="node">
<title>Node2</title>
<g id="a_Node000002"><a xlink:href="classcom_1_1teragrep_1_1pth__06_1_1ArchiveMicroStreamReader.html#a411ca28ffc87898fce4bc8e77cdc0ee3" target="_top" xlink:title=" ">
<polygon fill="white" stroke="#666666" points="399,-89.5 202,-89.5 202,-48.5 399,-48.5 399,-89.5"/>
<text text-anchor="start" x="210" y="-77.5" font-family="Helvetica,sans-Serif" font-size="10.00">com.teragrep.pth_06.Archive</text>
<text text-anchor="start" x="210" y="-66.5" font-family="Helvetica,sans-Serif" font-size="10.00">MicroStreamReader.currentDatabase</text>
<text text-anchor="middle" x="300.5" y="-55.5" font-family="Helvetica,sans-Serif" font-size="10.00">Metrics</text>
</a>
</g>
</g>
<!-- Node1&#45;&gt;Node2 -->
<g id="edge1_Node000001_Node000002" class="edge">
<title>Node1&#45;&gt;Node2</title>
<g id="a_edge1_Node000001_Node000002"><a xlink:title=" ">
<path fill="none" stroke="#63b8ff" d="M163.3,-52.05C172.6,-53.21 182.2,-54.4 191.78,-55.6"/>
<polygon fill="#63b8ff" stroke="#63b8ff" points="191.4,-59.08 201.75,-56.84 192.26,-52.13 191.4,-59.08"/>
</a>
</g>
</g>
<!-- Node3 -->
<g id="Node000003" class="node">
<title>Node3</title>
<g id="a_Node000003"><a xlink:href="classcom_1_1teragrep_1_1pth__06_1_1ArchiveMicroStreamReader.html#a36e4e32119c7727123f0afffcbb27780" target="_top" xlink:title=" ">
<polygon fill="white" stroke="#666666" points="402,-30 199,-30 199,0 402,0 402,-30"/>
<text text-anchor="start" x="207" y="-18" font-family="Helvetica,sans-Serif" font-size="10.00">com.teragrep.pth_06.Archive</text>
<text text-anchor="middle" x="300.5" y="-7" font-family="Helvetica,sans-Serif" font-size="10.00">MicroStreamReader.mostRecentOffset</text>
</a>
</g>
</g>
<!-- Node1&#45;&gt;Node3 -->
<g id="edge2_Node000001_Node000003" class="edge">
<title>Node1&#45;&gt;Node3</title>
<g id="a_edge2_Node000001_Node000003"><a xlink:title=" ">
<path fill="none" stroke="#63b8ff" d="M163.3,-31.95C171.62,-30.91 180.16,-29.85 188.73,-28.78"/>
<polygon fill="#63b8ff" stroke="#63b8ff" points="189.29,-32.24 198.78,-27.53 188.43,-25.29 189.29,-32.24"/>
</a>
</g>
</g>
</g>
</svg>
