<?xml version="1.0" encoding="UTF-8" standalone="no"?>
<!DOCTYPE svg PUBLIC "-//W3C//DTD SVG 1.1//EN"
 "http://www.w3.org/Graphics/SVG/1.1/DTD/svg11.dtd">
<!-- Generated by graphviz version 2.43.0 (0)
 -->
<!-- Title: com.teragrep.pth_06.InstantiationTest.prepareEnv Pages: 1 -->
<svg width="619pt" height="98pt"
 viewBox="0.00 0.00 619.00 97.50" xmlns="http://www.w3.org/2000/svg" xmlns:xlink="http://www.w3.org/1999/xlink">
<g id="graph0" class="graph" transform="scale(1 1) rotate(0) translate(4 93.5)">
<title>com.teragrep.pth_06.InstantiationTest.prepareEnv</title>
<!-- Node1 -->
<g id="Node000001" class="node">
<title>Node1</title>
<g id="a_Node000001"><a xlink:title=" ">
<polygon fill="#999999" stroke="#666666" points="182,-62.5 0,-62.5 0,-32.5 182,-32.5 182,-62.5"/>
<text text-anchor="start" x="8" y="-50.5" font-family="Helvetica,sans-Serif" font-size="10.00">com.teragrep.pth_06.Instantiation</text>
<text text-anchor="middle" x="91" y="-39.5" font-family="Helvetica,sans-Serif" font-size="10.00">Test.prepareEnv</text>
</a>
</g>
</g>
<!-- Node2 -->
<g id="Node000002" class="node">
<title>Node2</title>
<g id="a_Node000002"><a xlink:href="classcom_1_1teragrep_1_1pth__06_1_1MockS3DataProvider.html#a16ca34984e1534cf3cf37df12f1a6937" target="_top" xlink:title=" ">
<polygon fill="white" stroke="#666666" points="385,-62.5 218,-62.5 218,-32.5 385,-32.5 385,-62.5"/>
<text text-anchor="start" x="226" y="-50.5" font-family="Helvetica,sans-Serif" font-size="10.00">com.teragrep.pth_06.Mock</text>
<text text-anchor="middle" x="301.5" y="-39.5" font-family="Helvetica,sans-Serif" font-size="10.00">S3DataProvider.preloadS3Data</text>
</a>
</g>
</g>
<!-- Node1&#45;&gt;Node2 -->
<g id="edge1_Node000001_Node000002" class="edge">
<title>Node1&#45;&gt;Node2</title>
<g id="a_edge1_Node000001_Node000002"><a xlink:title=" ">
<path fill="none" stroke="#63b8ff" d="M182.24,-47.5C190.61,-47.5 199.11,-47.5 207.5,-47.5"/>
<polygon fill="#63b8ff" stroke="#63b8ff" points="207.68,-51 217.68,-47.5 207.68,-44 207.68,-51"/>
</a>
</g>
</g>
<!-- Node3 -->
<g id="Node000003" class="node">
<title>Node3</title>
<g id="a_Node000003"><a xlink:href="classcom_1_1teragrep_1_1pth__06_1_1MockS3DataProvider.html#a9baacfb5e74040d3677b1efb7a521a98" target="_top" xlink:title=" ">
<polygon fill="white" stroke="#666666" points="611,-89.5 421,-89.5 421,-59.5 611,-59.5 611,-89.5"/>
<text text-anchor="start" x="429" y="-77.5" font-family="Helvetica,sans-Serif" font-size="10.00">com.teragrep.pth_06.Mock</text>
<text text-anchor="middle" x="516" y="-66.5" font-family="Helvetica,sans-Serif" font-size="10.00">S3DataProvider.ensureBucketExists</text>
</a>
</g>
</g>
<!-- Node2&#45;&gt;Node3 -->
<g id="edge2_Node000002_Node000003" class="edge">
<title>Node2&#45;&gt;Node3</title>
<g id="a_edge2_Node000002_Node000003"><a xlink:title=" ">
<path fill="none" stroke="#63b8ff" d="M385.27,-58.02C393.64,-59.08 402.22,-60.17 410.79,-61.26"/>
<polygon fill="#63b8ff" stroke="#63b8ff" points="410.46,-64.74 420.82,-62.53 411.34,-57.8 410.46,-64.74"/>
</a>
</g>
</g>
<!-- Node4 -->
<g id="Node000004" class="node">
<title>Node4</title>
<g id="a_Node000004"><a xlink:href="classcom_1_1teragrep_1_1pth__06_1_1MockS3DataProvider.html#a678bdb58aa18842b7d44115254cfde8b" target="_top" xlink:title=" ">
<polygon fill="white" stroke="#666666" points="601,-41 431,-41 431,0 601,0 601,-41"/>
<text text-anchor="start" x="439" y="-29" font-family="Helvetica,sans-Serif" font-size="10.00">com.teragrep.pth_06.Mock</text>
<text text-anchor="start" x="439" y="-18" font-family="Helvetica,sans-Serif" font-size="10.00">S3DataProvider.syslogMessage</text>
<text text-anchor="middle" x="516" y="-7" font-family="Helvetica,sans-Serif" font-size="10.00">FromRow</text>
</a>
</g>
</g>
<!-- Node2&#45;&gt;Node4 -->
<g id="edge3_Node000002_Node000004" class="edge">
<title>Node2&#45;&gt;Node4</title>
<g id="a_edge3_Node000002_Node000004"><a xlink:title=" ">
<path fill="none" stroke="#63b8ff" d="M385.27,-36.98C396.8,-35.52 408.73,-34 420.46,-32.51"/>
<polygon fill="#63b8ff" stroke="#63b8ff" points="421.23,-35.94 430.71,-31.21 420.35,-29 421.23,-35.94"/>
</a>
</g>
</g>
</g>
</svg>
