<?xml version="1.0" encoding="UTF-8" standalone="no"?>
<!DOCTYPE svg PUBLIC "-//W3C//DTD SVG 1.1//EN"
 "http://www.w3.org/Graphics/SVG/1.1/DTD/svg11.dtd">
<!-- Generated by graphviz version 2.43.0 (0)
 -->
<!-- Title: com.teragrep.pth_06.SparkStreamingQueryListenerTest Pages: 1 -->
<svg width="343pt" height="192pt"
 viewBox="0.00 0.00 343.00 192.00" xmlns="http://www.w3.org/2000/svg" xmlns:xlink="http://www.w3.org/1999/xlink">
<g id="graph0" class="graph" transform="scale(1 1) rotate(0) translate(4 188)">
<title>com.teragrep.pth_06.SparkStreamingQueryListenerTest</title>
<!-- Node1 -->
<g id="Node000001" class="node">
<title>Node1</title>
<g id="a_Node000001"><a xlink:title=" ">
<polygon fill="#999999" stroke="#666666" points="155,-30 0,-30 0,0 155,0 155,-30"/>
<text text-anchor="start" x="8" y="-18" font-family="Helvetica,sans-Serif" font-size="10.00">com.teragrep.pth_06.Spark</text>
<text text-anchor="middle" x="77.5" y="-7" font-family="Helvetica,sans-Serif" font-size="10.00">StreamingQueryListenerTest</text>
</a>
</g>
</g>
<!-- Node2 -->
<g id="Node000002" class="node">
<title>Node2</title>
<g id="a_Node000002"><a xlink:href="classcom_1_1teragrep_1_1pth__06_1_1MockS3Configuration.html" target="_top" xlink:title=" ">
<polygon fill="white" stroke="#666666" points="151,-184 4,-184 4,-154 151,-154 151,-184"/>
<text text-anchor="start" x="12" y="-172" font-family="Helvetica,sans-Serif" font-size="10.00">com.teragrep.pth_06.Mock</text>
<text text-anchor="middle" x="77.5" y="-161" font-family="Helvetica,sans-Serif" font-size="10.00">S3Configuration</text>
</a>
</g>
</g>
<!-- Node2&#45;&gt;Node1 -->
<g id="edge1_Node000001_Node000002" class="edge">
<title>Node2&#45;&gt;Node1</title>
<g id="a_edge1_Node000001_Node000002"><a xlink:title=" ">
<path fill="none" stroke="#9a32cd" stroke-dasharray="5,2" d="M74.56,-143.7C73.35,-132.54 72.09,-119.12 71.5,-107 70.85,-93.68 70.85,-90.32 71.5,-77 72.29,-60.84 74.26,-42.37 75.73,-30.02"/>
<polygon fill="#9a32cd" stroke="#9a32cd" points="71.12,-144.44 75.73,-153.98 78.07,-143.65 71.12,-144.44"/>
</a>
</g>
<text text-anchor="middle" x="125.5" y="-89.5" font-family="Helvetica,sans-Serif" font-size="10.00" fill="grey"> mockS3Configuration</text>
</g>
<!-- Node3 -->
<g id="Node000003" class="node">
<title>Node3</title>
<g id="a_Node000003"><a xlink:href="classcom_1_1teragrep_1_1pth__06_1_1MockS3DataProvider.html" target="_top" xlink:title=" ">
<polygon fill="white" stroke="#666666" points="335,-107 188,-107 188,-77 335,-77 335,-107"/>
<text text-anchor="start" x="196" y="-95" font-family="Helvetica,sans-Serif" font-size="10.00">com.teragrep.pth_06.Mock</text>
<text text-anchor="middle" x="261.5" y="-84" font-family="Helvetica,sans-Serif" font-size="10.00">S3DataProvider</text>
</a>
</g>
</g>
<!-- Node2&#45;&gt;Node3 -->
<g id="edge3_Node000003_Node000002" class="edge">
<title>Node2&#45;&gt;Node3</title>
<g id="a_edge3_Node000003_Node000002"><a xlink:title=" ">
<path fill="none" stroke="#9a32cd" stroke-dasharray="5,2" d="M121.76,-149.96C154.09,-136.78 197.28,-119.18 227.05,-107.04"/>
<polygon fill="#9a32cd" stroke="#9a32cd" points="120.05,-146.88 112.11,-153.89 122.69,-153.36 120.05,-146.88"/>
</a>
</g>
<text text-anchor="middle" x="234.5" y="-128" font-family="Helvetica,sans-Serif" font-size="10.00" fill="grey"> mockS3Configuration</text>
</g>
<!-- Node3&#45;&gt;Node1 -->
<g id="edge2_Node000001_Node000003" class="edge">
<title>Node3&#45;&gt;Node1</title>
<g id="a_edge2_Node000001_Node000003"><a xlink:title=" ">
<path fill="none" stroke="#9a32cd" stroke-dasharray="5,2" d="M217.24,-72.96C184.91,-59.78 141.72,-42.18 111.95,-30.04"/>
<polygon fill="#9a32cd" stroke="#9a32cd" points="216.31,-76.36 226.89,-76.89 218.95,-69.88 216.31,-76.36"/>
</a>
</g>
<text text-anchor="middle" x="233.5" y="-51" font-family="Helvetica,sans-Serif" font-size="10.00" fill="grey"> mockS3DataProvider</text>
</g>
</g>
</svg>
