<?xml version="1.0" encoding="UTF-8" standalone="no"?>
<!DOCTYPE svg PUBLIC "-//W3C//DTD SVG 1.1//EN"
 "http://www.w3.org/Graphics/SVG/1.1/DTD/svg11.dtd">
<!-- Generated by graphviz version 2.43.0 (0)
 -->
<!-- Title: Graphical Class Hierarchy Pages: 1 -->
<svg width="485pt" height="110pt"
 viewBox="0.00 0.00 485.00 110.00" xmlns="http://www.w3.org/2000/svg" xmlns:xlink="http://www.w3.org/1999/xlink">
<g id="graph0" class="graph" transform="scale(1 1) rotate(0) translate(4 106)">
<title>Graphical Class Hierarchy</title>
<!-- Node0 -->
<g id="Node000000" class="node">
<title>Node0</title>
<g id="a_Node000000"><a xlink:title=" ">
<polygon fill="#e0e0e0" stroke="#999999" points="65,-72.5 0,-72.5 0,-53.5 65,-53.5 65,-72.5"/>
<text text-anchor="middle" x="32.5" y="-60.5" font-family="Helvetica,sans-Serif" font-size="10.00">LinkedList</text>
</a>
</g>
</g>
<!-- Node1 -->
<g id="Node000001" class="node">
<title>Node1</title>
<g id="a_Node000001"><a xlink:href="classcom_1_1teragrep_1_1pth__06_1_1scheduler_1_1Batch.html" target="_top" xlink:title=" ">
<polygon fill="white" stroke="#666666" points="271,-102 101,-102 101,-72 271,-72 271,-102"/>
<text text-anchor="start" x="109" y="-90" font-family="Helvetica,sans-Serif" font-size="10.00">com.teragrep.pth_06.scheduler.</text>
<text text-anchor="middle" x="186" y="-79" font-family="Helvetica,sans-Serif" font-size="10.00">Batch</text>
</a>
</g>
</g>
<!-- Node0&#45;&gt;Node1 -->
<g id="edge52_Node000000_Node000001" class="edge">
<title>Node0&#45;&gt;Node1</title>
<g id="a_edge52_Node000000_Node000001"><a xlink:title=" ">
<path fill="none" stroke="#63b8ff" d="M75.38,-69.63C83.39,-70.9 92.04,-72.27 100.84,-73.67"/>
<polygon fill="#63b8ff" stroke="#63b8ff" points="75.68,-66.14 65.26,-68.03 74.59,-73.05 75.68,-66.14"/>
</a>
</g>
</g>
<!-- Node2 -->
<g id="Node000002" class="node">
<title>Node2</title>
<g id="a_Node000002"><a xlink:href="classcom_1_1teragrep_1_1pth__06_1_1scheduler_1_1BatchSliceCollection.html" target="_top" xlink:title=" ">
<polygon fill="white" stroke="#666666" points="271,-54 101,-54 101,-24 271,-24 271,-54"/>
<text text-anchor="start" x="109" y="-42" font-family="Helvetica,sans-Serif" font-size="10.00">com.teragrep.pth_06.scheduler.</text>
<text text-anchor="middle" x="186" y="-31" font-family="Helvetica,sans-Serif" font-size="10.00">BatchSliceCollection</text>
</a>
</g>
</g>
<!-- Node0&#45;&gt;Node2 -->
<g id="edge53_Node000000_Node000002" class="edge">
<title>Node0&#45;&gt;Node2</title>
<g id="a_edge53_Node000000_Node000002"><a xlink:title=" ">
<path fill="none" stroke="#63b8ff" d="M75.38,-56.37C83.39,-55.1 92.04,-53.73 100.84,-52.33"/>
<polygon fill="#63b8ff" stroke="#63b8ff" points="74.59,-52.95 65.26,-57.97 75.68,-59.86 74.59,-52.95"/>
</a>
</g>
</g>
<!-- Node3 -->
<g id="Node000003" class="node">
<title>Node3</title>
<g id="a_Node000003"><a xlink:href="classcom_1_1teragrep_1_1pth__06_1_1scheduler_1_1ArchiveBatchSliceCollection.html" target="_top" xlink:title=" ">
<polygon fill="white" stroke="#666666" points="477,-78 307,-78 307,-48 477,-48 477,-78"/>
<text text-anchor="start" x="315" y="-66" font-family="Helvetica,sans-Serif" font-size="10.00">com.teragrep.pth_06.scheduler.</text>
<text text-anchor="middle" x="392" y="-55" font-family="Helvetica,sans-Serif" font-size="10.00">ArchiveBatchSliceCollection</text>
</a>
</g>
</g>
<!-- Node2&#45;&gt;Node3 -->
<g id="edge54_Node000002_Node000003" class="edge">
<title>Node2&#45;&gt;Node3</title>
<g id="a_edge54_Node000002_Node000003"><a xlink:title=" ">
<path fill="none" stroke="#63b8ff" d="M281.12,-50.07C289.66,-51.08 298.27,-52.09 306.71,-53.08"/>
<polygon fill="#63b8ff" stroke="#63b8ff" points="281.49,-46.59 271.15,-48.9 280.67,-53.54 281.49,-46.59"/>
</a>
</g>
</g>
<!-- Node4 -->
<g id="Node000004" class="node">
<title>Node4</title>
<g id="a_Node000004"><a xlink:href="classcom_1_1teragrep_1_1pth__06_1_1scheduler_1_1KafkaBatchSliceCollection.html" target="_top" xlink:title=" ">
<polygon fill="white" stroke="#666666" points="477,-30 307,-30 307,0 477,0 477,-30"/>
<text text-anchor="start" x="315" y="-18" font-family="Helvetica,sans-Serif" font-size="10.00">com.teragrep.pth_06.scheduler.</text>
<text text-anchor="middle" x="392" y="-7" font-family="Helvetica,sans-Serif" font-size="10.00">KafkaBatchSliceCollection</text>
</a>
</g>
</g>
<!-- Node2&#45;&gt;Node4 -->
<g id="edge55_Node000002_Node000004" class="edge">
<title>Node2&#45;&gt;Node4</title>
<g id="a_edge55_Node000002_Node000004"><a xlink:title=" ">
<path fill="none" stroke="#63b8ff" d="M281.12,-27.93C289.66,-26.92 298.27,-25.91 306.71,-24.92"/>
<polygon fill="#63b8ff" stroke="#63b8ff" points="280.67,-24.46 271.15,-29.1 281.49,-31.41 280.67,-24.46"/>
</a>
</g>
</g>
</g>
</svg>
