<?xml version="1.0" encoding="UTF-8" standalone="no"?>
<!DOCTYPE svg PUBLIC "-//W3C//DTD SVG 1.1//EN"
 "http://www.w3.org/Graphics/SVG/1.1/DTD/svg11.dtd">
<!-- Generated by graphviz version 2.43.0 (0)
 -->
<!-- Title: Graphical Class Hierarchy Pages: 1 -->
<svg width="410pt" height="402pt"
 viewBox="0.00 0.00 410.00 402.00" xmlns="http://www.w3.org/2000/svg" xmlns:xlink="http://www.w3.org/1999/xlink">
<g id="graph0" class="graph" transform="scale(1 1) rotate(0) translate(4 398)">
<title>Graphical Class Hierarchy</title>
<!-- Node0 -->
<g id="Node000000" class="node">
<title>Node0</title>
<g id="a_Node000000"><a xlink:title=" ">
<polygon fill="#e0e0e0" stroke="#999999" points="64,-206.5 0,-206.5 0,-187.5 64,-187.5 64,-206.5"/>
<text text-anchor="middle" x="32" y="-194.5" font-family="Helvetica,sans-Serif" font-size="10.00">TableImpl</text>
</a>
</g>
</g>
<!-- Node1 -->
<g id="Node000001" class="node">
<title>Node1</title>
<g id="a_Node000001"><a xlink:href="classcom_1_1teragrep_1_1pth__06_1_1jooq_1_1generated_1_1bloomdb_1_1tables_1_1Filtertype.html" target="_top" xlink:title="This class is generated by jOOQ.">
<polygon fill="white" stroke="#666666" points="389,-394 113,-394 113,-364 389,-364 389,-394"/>
<text text-anchor="start" x="121" y="-382" font-family="Helvetica,sans-Serif" font-size="10.00">com.teragrep.pth_06.jooq.generated.bloomdb.tables.</text>
<text text-anchor="middle" x="251" y="-371" font-family="Helvetica,sans-Serif" font-size="10.00">Filtertype</text>
</a>
</g>
</g>
<!-- Node0&#45;&gt;Node1 -->
<g id="edge111_Node000000_Node000001" class="edge">
<title>Node0&#45;&gt;Node1</title>
<g id="a_edge111_Node000000_Node000001"><a xlink:title=" ">
<path fill="none" stroke="#63b8ff" d="M35.28,-216.85C40.32,-250.95 55.74,-320.35 100,-355 104.26,-358.33 108.79,-361.29 113.54,-363.9"/>
<polygon fill="#63b8ff" stroke="#63b8ff" points="38.72,-216.19 33.94,-206.74 31.78,-217.11 38.72,-216.19"/>
</a>
</g>
</g>
<!-- Node2 -->
<g id="Node000002" class="node">
<title>Node2</title>
<g id="a_Node000002"><a xlink:href="classcom_1_1teragrep_1_1pth__06_1_1jooq_1_1generated_1_1journaldb_1_1tables_1_1Bucket.html" target="_top" xlink:title="Buckets in object storage.">
<polygon fill="white" stroke="#666666" points="390.5,-346 111.5,-346 111.5,-316 390.5,-316 390.5,-346"/>
<text text-anchor="start" x="119.5" y="-334" font-family="Helvetica,sans-Serif" font-size="10.00">com.teragrep.pth_06.jooq.generated.journaldb.tables.</text>
<text text-anchor="middle" x="251" y="-323" font-family="Helvetica,sans-Serif" font-size="10.00">Bucket</text>
</a>
</g>
</g>
<!-- Node0&#45;&gt;Node2 -->
<g id="edge112_Node000000_Node000002" class="edge">
<title>Node0&#45;&gt;Node2</title>
<g id="a_edge112_Node000000_Node000002"><a xlink:title=" ">
<path fill="none" stroke="#63b8ff" d="M38.99,-216.14C47.94,-241.36 67.35,-285.08 100,-307 105.04,-310.38 110.38,-313.35 115.93,-315.95"/>
<polygon fill="#63b8ff" stroke="#63b8ff" points="42.28,-214.95 35.78,-206.58 35.64,-217.18 42.28,-214.95"/>
</a>
</g>
</g>
<!-- Node3 -->
<g id="Node000003" class="node">
<title>Node3</title>
<g id="a_Node000003"><a xlink:href="classcom_1_1teragrep_1_1pth__06_1_1jooq_1_1generated_1_1journaldb_1_1tables_1_1CorruptedArchive.html" target="_top" xlink:title="Contains logfiles that are both archives and detected to be corrupted.">
<polygon fill="white" stroke="#666666" points="390.5,-298 111.5,-298 111.5,-268 390.5,-268 390.5,-298"/>
<text text-anchor="start" x="119.5" y="-286" font-family="Helvetica,sans-Serif" font-size="10.00">com.teragrep.pth_06.jooq.generated.journaldb.tables.</text>
<text text-anchor="middle" x="251" y="-275" font-family="Helvetica,sans-Serif" font-size="10.00">CorruptedArchive</text>
</a>
</g>
</g>
<!-- Node0&#45;&gt;Node3 -->
<g id="edge113_Node000000_Node000003" class="edge">
<title>Node0&#45;&gt;Node3</title>
<g id="a_edge113_Node000000_Node000003"><a xlink:title=" ">
<path fill="none" stroke="#63b8ff" d="M46.84,-214.6C59.17,-228.98 78.56,-248.57 100,-259 107,-262.4 114.37,-265.34 121.95,-267.87"/>
<polygon fill="#63b8ff" stroke="#63b8ff" points="49.5,-212.33 40.43,-206.85 44.1,-216.79 49.5,-212.33"/>
</a>
</g>
</g>
<!-- Node4 -->
<g id="Node000004" class="node">
<title>Node4</title>
<g id="a_Node000004"><a xlink:href="classcom_1_1teragrep_1_1pth__06_1_1jooq_1_1generated_1_1journaldb_1_1tables_1_1Host.html" target="_top" xlink:title="Host names.">
<polygon fill="white" stroke="#666666" points="402,-249.5 100,-249.5 100,-230.5 402,-230.5 402,-249.5"/>
<text text-anchor="middle" x="251" y="-237.5" font-family="Helvetica,sans-Serif" font-size="10.00">com.teragrep.pth_06.jooq.generated.journaldb.tables.Host</text>
</a>
</g>
</g>
<!-- Node0&#45;&gt;Node4 -->
<g id="edge114_Node000000_Node000004" class="edge">
<title>Node0&#45;&gt;Node4</title>
<g id="a_edge114_Node000000_Node000004"><a xlink:title=" ">
<path fill="none" stroke="#63b8ff" d="M65.38,-210.21C76.23,-214.2 88.5,-218.25 100,-221 116.08,-224.85 133.33,-227.96 150.21,-230.45"/>
<polygon fill="#63b8ff" stroke="#63b8ff" points="66.47,-206.88 55.88,-206.6 63.98,-213.42 66.47,-206.88"/>
</a>
</g>
</g>
<!-- Node5 -->
<g id="Node000005" class="node">
<title>Node5</title>
<g id="a_Node000005"><a xlink:href="classcom_1_1teragrep_1_1pth__06_1_1jooq_1_1generated_1_1journaldb_1_1tables_1_1Logfile.html" target="_top" xlink:title="Contains information for log files that have been run through Log Archiver.">
<polygon fill="white" stroke="#666666" points="390.5,-212 111.5,-212 111.5,-182 390.5,-182 390.5,-212"/>
<text text-anchor="start" x="119.5" y="-200" font-family="Helvetica,sans-Serif" font-size="10.00">com.teragrep.pth_06.jooq.generated.journaldb.tables.</text>
<text text-anchor="middle" x="251" y="-189" font-family="Helvetica,sans-Serif" font-size="10.00">Logfile</text>
</a>
</g>
</g>
<!-- Node0&#45;&gt;Node5 -->
<g id="edge115_Node000000_Node000005" class="edge">
<title>Node0&#45;&gt;Node5</title>
<g id="a_edge115_Node000000_Node000005"><a xlink:title=" ">
<path fill="none" stroke="#63b8ff" d="M74.25,-197C85.37,-197 98.05,-197 111.39,-197"/>
<polygon fill="#63b8ff" stroke="#63b8ff" points="74.09,-193.5 64.09,-197 74.09,-200.5 74.09,-193.5"/>
</a>
</g>
</g>
<!-- Node6 -->
<g id="Node000006" class="node">
<title>Node6</title>
<g id="a_Node000006"><a xlink:href="classcom_1_1teragrep_1_1pth__06_1_1jooq_1_1generated_1_1journaldb_1_1tables_1_1Logtag.html" target="_top" xlink:title="Contains logtag values that are identified using the ID.">
<polygon fill="white" stroke="#666666" points="390.5,-164 111.5,-164 111.5,-134 390.5,-134 390.5,-164"/>
<text text-anchor="start" x="119.5" y="-152" font-family="Helvetica,sans-Serif" font-size="10.00">com.teragrep.pth_06.jooq.generated.journaldb.tables.</text>
<text text-anchor="middle" x="251" y="-141" font-family="Helvetica,sans-Serif" font-size="10.00">Logtag</text>
</a>
</g>
</g>
<!-- Node0&#45;&gt;Node6 -->
<g id="edge116_Node000000_Node000006" class="edge">
<title>Node0&#45;&gt;Node6</title>
<g id="a_edge116_Node000000_Node000006"><a xlink:title=" ">
<path fill="none" stroke="#63b8ff" d="M65.7,-183.92C76.49,-179.97 88.64,-175.92 100,-173 113.16,-169.62 127.09,-166.63 140.95,-164.01"/>
<polygon fill="#63b8ff" stroke="#63b8ff" points="64.36,-180.68 56.23,-187.48 66.83,-187.23 64.36,-180.68"/>
</a>
</g>
</g>
<!-- Node7 -->
<g id="Node000007" class="node">
<title>Node7</title>
<g id="a_Node000007"><a xlink:href="classcom_1_1teragrep_1_1pth__06_1_1jooq_1_1generated_1_1streamdb_1_1tables_1_1Host.html" target="_top" xlink:title="This class is generated by jOOQ.">
<polygon fill="white" stroke="#666666" points="402,-115.5 100,-115.5 100,-96.5 402,-96.5 402,-115.5"/>
<text text-anchor="middle" x="251" y="-103.5" font-family="Helvetica,sans-Serif" font-size="10.00">com.teragrep.pth_06.jooq.generated.streamdb.tables.Host</text>
</a>
</g>
</g>
<!-- Node0&#45;&gt;Node7 -->
<g id="edge117_Node000000_Node000007" class="edge">
<title>Node0&#45;&gt;Node7</title>
<g id="a_edge117_Node000000_Node000007"><a xlink:title=" ">
<path fill="none" stroke="#63b8ff" d="M44.43,-178.76C56.15,-161.78 76.03,-137.29 100,-125 107.36,-121.23 115.18,-118.1 123.23,-115.51"/>
<polygon fill="#63b8ff" stroke="#63b8ff" points="41.38,-177.03 38.79,-187.3 47.22,-180.89 41.38,-177.03"/>
</a>
</g>
</g>
<!-- Node8 -->
<g id="Node000008" class="node">
<title>Node8</title>
<g id="a_Node000008"><a xlink:href="classcom_1_1teragrep_1_1pth__06_1_1jooq_1_1generated_1_1streamdb_1_1tables_1_1LogGroup.html" target="_top" xlink:title="This class is generated by jOOQ.">
<polygon fill="white" stroke="#666666" points="391,-78 111,-78 111,-48 391,-48 391,-78"/>
<text text-anchor="start" x="119" y="-66" font-family="Helvetica,sans-Serif" font-size="10.00">com.teragrep.pth_06.jooq.generated.streamdb.tables.</text>
<text text-anchor="middle" x="251" y="-55" font-family="Helvetica,sans-Serif" font-size="10.00">LogGroup</text>
</a>
</g>
</g>
<!-- Node0&#45;&gt;Node8 -->
<g id="edge118_Node000000_Node000008" class="edge">
<title>Node0&#45;&gt;Node8</title>
<g id="a_edge118_Node000000_Node000008"><a xlink:title=" ">
<path fill="none" stroke="#63b8ff" d="M39.19,-177.69C48.28,-152.67 67.75,-109.7 100,-88 105.59,-84.24 111.55,-80.98 117.75,-78.16"/>
<polygon fill="#63b8ff" stroke="#63b8ff" points="35.87,-176.6 35.92,-187.2 42.49,-178.88 35.87,-176.6"/>
</a>
</g>
</g>
<!-- Node9 -->
<g id="Node000009" class="node">
<title>Node9</title>
<g id="a_Node000009"><a xlink:href="classcom_1_1teragrep_1_1pth__06_1_1jooq_1_1generated_1_1streamdb_1_1tables_1_1Stream.html" target="_top" xlink:title="This class is generated by jOOQ.">
<polygon fill="white" stroke="#666666" points="391,-30 111,-30 111,0 391,0 391,-30"/>
<text text-anchor="start" x="119" y="-18" font-family="Helvetica,sans-Serif" font-size="10.00">com.teragrep.pth_06.jooq.generated.streamdb.tables.</text>
<text text-anchor="middle" x="251" y="-7" font-family="Helvetica,sans-Serif" font-size="10.00">Stream</text>
</a>
</g>
</g>
<!-- Node0&#45;&gt;Node9 -->
<g id="edge119_Node000000_Node000009" class="edge">
<title>Node0&#45;&gt;Node9</title>
<g id="a_edge119_Node000000_Node000009"><a xlink:title=" ">
<path fill="none" stroke="#63b8ff" d="M35.28,-177.15C40.32,-143.05 55.74,-73.65 100,-39 104.26,-35.67 108.79,-32.71 113.54,-30.1"/>
<polygon fill="#63b8ff" stroke="#63b8ff" points="31.78,-176.89 33.94,-187.26 38.72,-177.81 31.78,-176.89"/>
</a>
</g>
</g>
</g>
</svg>
