<?xml version="1.0" encoding="UTF-8" standalone="no"?>
<!DOCTYPE svg PUBLIC "-//W3C//DTD SVG 1.1//EN"
 "http://www.w3.org/Graphics/SVG/1.1/DTD/svg11.dtd">
<!-- Generated by graphviz version 2.43.0 (0)
 -->
<!-- Title: Graphical Class Hierarchy Pages: 1 -->
<svg width="432pt" height="86pt"
 viewBox="0.00 0.00 432.00 86.00" xmlns="http://www.w3.org/2000/svg" xmlns:xlink="http://www.w3.org/1999/xlink">
<g id="graph0" class="graph" transform="scale(1 1) rotate(0) translate(4 82)">
<title>Graphical Class Hierarchy</title>
<!-- Node0 -->
<g id="Node000000" class="node">
<title>Node0</title>
<g id="a_Node000000"><a xlink:href="interfacecom_1_1teragrep_1_1pth__06_1_1planner_1_1walker_1_1FilterlessSearch.html" target="_top" xlink:title=" ">
<polygon fill="white" stroke="#666666" points="194,-54 0,-54 0,-24 194,-24 194,-54"/>
<text text-anchor="start" x="8" y="-42" font-family="Helvetica,sans-Serif" font-size="10.00">com.teragrep.pth_06.planner.walker.</text>
<text text-anchor="middle" x="97" y="-31" font-family="Helvetica,sans-Serif" font-size="10.00">FilterlessSearch</text>
</a>
</g>
</g>
<!-- Node1 -->
<g id="Node000001" class="node">
<title>Node1</title>
<g id="a_Node000001"><a xlink:href="classcom_1_1teragrep_1_1pth__06_1_1planner_1_1walker_1_1FilterlessSearchImpl.html" target="_top" xlink:title=" ">
<polygon fill="white" stroke="#666666" points="424,-78 230,-78 230,-48 424,-48 424,-78"/>
<text text-anchor="start" x="238" y="-66" font-family="Helvetica,sans-Serif" font-size="10.00">com.teragrep.pth_06.planner.walker.</text>
<text text-anchor="middle" x="327" y="-55" font-family="Helvetica,sans-Serif" font-size="10.00">FilterlessSearchImpl</text>
</a>
</g>
</g>
<!-- Node0&#45;&gt;Node1 -->
<g id="edge26_Node000000_Node000001" class="edge">
<title>Node0&#45;&gt;Node1</title>
<g id="a_edge26_Node000000_Node000001"><a xlink:title=" ">
<path fill="none" stroke="#63b8ff" d="M204.04,-50.16C212.6,-51.06 221.23,-51.97 229.71,-52.86"/>
<polygon fill="#63b8ff" stroke="#63b8ff" points="204.34,-46.67 194.03,-49.11 203.61,-53.64 204.34,-46.67"/>
</a>
</g>
</g>
<!-- Node2 -->
<g id="Node000002" class="node">
<title>Node2</title>
<g id="a_Node000002"><a xlink:href="classcom_1_1teragrep_1_1pth__06_1_1planner_1_1walker_1_1FilterlessSearchStub.html" target="_top" xlink:title=" ">
<polygon fill="white" stroke="#666666" points="424,-30 230,-30 230,0 424,0 424,-30"/>
<text text-anchor="start" x="238" y="-18" font-family="Helvetica,sans-Serif" font-size="10.00">com.teragrep.pth_06.planner.walker.</text>
<text text-anchor="middle" x="327" y="-7" font-family="Helvetica,sans-Serif" font-size="10.00">FilterlessSearchStub</text>
</a>
</g>
</g>
<!-- Node0&#45;&gt;Node2 -->
<g id="edge27_Node000000_Node000002" class="edge">
<title>Node0&#45;&gt;Node2</title>
<g id="a_edge27_Node000000_Node000002"><a xlink:title=" ">
<path fill="none" stroke="#63b8ff" d="M204.04,-27.84C212.6,-26.94 221.23,-26.03 229.71,-25.14"/>
<polygon fill="#63b8ff" stroke="#63b8ff" points="203.61,-24.36 194.03,-28.89 204.34,-31.33 203.61,-24.36"/>
</a>
</g>
</g>
</g>
</svg>
