<?xml version="1.0" encoding="UTF-8" standalone="no"?>
<!DOCTYPE svg PUBLIC "-//W3C//DTD SVG 1.1//EN"
 "http://www.w3.org/Graphics/SVG/1.1/DTD/svg11.dtd">
<!-- Generated by graphviz version 2.43.0 (0)
 -->
<!-- Title: Graphical Class Hierarchy Pages: 1 -->
<svg width="485pt" height="374pt"
 viewBox="0.00 0.00 485.00 374.00" xmlns="http://www.w3.org/2000/svg" xmlns:xlink="http://www.w3.org/1999/xlink">
<g id="graph0" class="graph" transform="scale(1 1) rotate(0) translate(4 370)">
<title>Graphical Class Hierarchy</title>
<!-- Node0 -->
<g id="Node000000" class="node">
<title>Node0</title>
<g id="a_Node000000"><a xlink:title=" ">
<polygon fill="#e0e0e0" stroke="#999999" points="89,-288.5 33,-288.5 33,-269.5 89,-269.5 89,-288.5"/>
<text text-anchor="middle" x="61" y="-276.5" font-family="Helvetica,sans-Serif" font-size="10.00">Record2</text>
</a>
</g>
</g>
<!-- Node1 -->
<g id="Node000001" class="node">
<title>Node1</title>
<g id="a_Node000001"><a xlink:href="classcom_1_1teragrep_1_1pth__06_1_1jooq_1_1generated_1_1journaldb_1_1tables_1_1records_1_1BucketRecord.html" target="_top" xlink:title="Buckets in object storage.">
<polygon fill="white" stroke="#666666" points="476.5,-270 158.5,-270 158.5,-240 476.5,-240 476.5,-270"/>
<text text-anchor="start" x="166.5" y="-258" font-family="Helvetica,sans-Serif" font-size="10.00">com.teragrep.pth_06.jooq.generated.journaldb.tables.records.</text>
<text text-anchor="middle" x="317.5" y="-247" font-family="Helvetica,sans-Serif" font-size="10.00">BucketRecord</text>
</a>
</g>
</g>
<!-- Node0&#45;&gt;Node1 -->
<g id="edge89_Node000000_Node000001" class="edge">
<title>Node0&#45;&gt;Node1</title>
<g id="a_edge89_Node000000_Node000001"><a xlink:title=" ">
<path fill="none" stroke="#63b8ff" d="M99.46,-275.47C115.96,-273.91 136.58,-271.97 158.48,-269.9"/>
<polygon fill="#63b8ff" stroke="#63b8ff" points="98.86,-272.01 89.24,-276.43 99.52,-278.98 98.86,-272.01"/>
</a>
</g>
</g>
<!-- Node5 -->
<g id="Node000005" class="node">
<title>Node5</title>
<g id="a_Node000005"><a xlink:href="classcom_1_1teragrep_1_1pth__06_1_1jooq_1_1generated_1_1journaldb_1_1tables_1_1records_1_1HostRecord.html" target="_top" xlink:title="Host names.">
<polygon fill="white" stroke="#666666" points="476.5,-222 158.5,-222 158.5,-192 476.5,-192 476.5,-222"/>
<text text-anchor="start" x="166.5" y="-210" font-family="Helvetica,sans-Serif" font-size="10.00">com.teragrep.pth_06.jooq.generated.journaldb.tables.records.</text>
<text text-anchor="middle" x="317.5" y="-199" font-family="Helvetica,sans-Serif" font-size="10.00">HostRecord</text>
</a>
</g>
</g>
<!-- Node0&#45;&gt;Node5 -->
<g id="edge90_Node000000_Node000005" class="edge">
<title>Node0&#45;&gt;Node5</title>
<g id="a_edge90_Node000000_Node000005"><a xlink:title=" ">
<path fill="none" stroke="#63b8ff" d="M86.13,-264.26C105.03,-253.4 132.32,-239.14 158,-231 168.88,-227.55 180.34,-224.59 191.91,-222.05"/>
<polygon fill="#63b8ff" stroke="#63b8ff" points="84.18,-261.35 77.33,-269.43 87.72,-267.39 84.18,-261.35"/>
</a>
</g>
</g>
<!-- Node8 -->
<g id="Node000008" class="node">
<title>Node8</title>
<g id="a_Node000008"><a xlink:href="classcom_1_1teragrep_1_1pth__06_1_1jooq_1_1generated_1_1journaldb_1_1tables_1_1records_1_1LogtagRecord.html" target="_top" xlink:title="Contains logtag values that are identified using the ID.">
<polygon fill="white" stroke="#666666" points="476.5,-366 158.5,-366 158.5,-336 476.5,-336 476.5,-366"/>
<text text-anchor="start" x="166.5" y="-354" font-family="Helvetica,sans-Serif" font-size="10.00">com.teragrep.pth_06.jooq.generated.journaldb.tables.records.</text>
<text text-anchor="middle" x="317.5" y="-343" font-family="Helvetica,sans-Serif" font-size="10.00">LogtagRecord</text>
</a>
</g>
</g>
<!-- Node0&#45;&gt;Node8 -->
<g id="edge91_Node000000_Node000008" class="edge">
<title>Node0&#45;&gt;Node8</title>
<g id="a_edge91_Node000000_Node000008"><a xlink:title=" ">
<path fill="none" stroke="#63b8ff" d="M86.13,-293.74C105.03,-304.6 132.32,-318.86 158,-327 168.88,-330.45 180.34,-333.41 191.91,-335.95"/>
<polygon fill="#63b8ff" stroke="#63b8ff" points="87.72,-290.61 77.33,-288.57 84.18,-296.65 87.72,-290.61"/>
</a>
</g>
</g>
<!-- Node11 -->
<g id="Node000011" class="node">
<title>Node11</title>
<g id="a_Node000011"><a xlink:href="classcom_1_1teragrep_1_1pth__06_1_1jooq_1_1generated_1_1streamdb_1_1tables_1_1records_1_1LogGroupRecord.html" target="_top" xlink:title="This class is generated by jOOQ.">
<polygon fill="white" stroke="#666666" points="477,-318 158,-318 158,-288 477,-288 477,-318"/>
<text text-anchor="start" x="166" y="-306" font-family="Helvetica,sans-Serif" font-size="10.00">com.teragrep.pth_06.jooq.generated.streamdb.tables.records.</text>
<text text-anchor="middle" x="317.5" y="-295" font-family="Helvetica,sans-Serif" font-size="10.00">LogGroupRecord</text>
</a>
</g>
</g>
<!-- Node0&#45;&gt;Node11 -->
<g id="edge92_Node000000_Node000011" class="edge">
<title>Node0&#45;&gt;Node11</title>
<g id="a_edge92_Node000000_Node000011"><a xlink:title=" ">
<path fill="none" stroke="#63b8ff" d="M99.38,-282.53C115.75,-284.07 136.18,-286 157.9,-288.04"/>
<polygon fill="#63b8ff" stroke="#63b8ff" points="99.52,-279.02 89.24,-281.57 98.86,-285.99 99.52,-279.02"/>
</a>
</g>
</g>
<!-- Node7 -->
<g id="Node000007" class="node">
<title>Node7</title>
<g id="a_Node000007"><a xlink:title=" ">
<polygon fill="#e0e0e0" stroke="#999999" points="92,-168.5 30,-168.5 30,-149.5 92,-149.5 92,-168.5"/>
<text text-anchor="middle" x="61" y="-156.5" font-family="Helvetica,sans-Serif" font-size="10.00">Record20</text>
</a>
</g>
</g>
<!-- Node6 -->
<g id="Node000006" class="node">
<title>Node6</title>
<g id="a_Node000006"><a xlink:href="classcom_1_1teragrep_1_1pth__06_1_1jooq_1_1generated_1_1journaldb_1_1tables_1_1records_1_1LogfileRecord.html" target="_top" xlink:title="Contains information for log files that have been run through Log Archiver.">
<polygon fill="white" stroke="#666666" points="476.5,-174 158.5,-174 158.5,-144 476.5,-144 476.5,-174"/>
<text text-anchor="start" x="166.5" y="-162" font-family="Helvetica,sans-Serif" font-size="10.00">com.teragrep.pth_06.jooq.generated.journaldb.tables.records.</text>
<text text-anchor="middle" x="317.5" y="-151" font-family="Helvetica,sans-Serif" font-size="10.00">LogfileRecord</text>
</a>
</g>
</g>
<!-- Node7&#45;&gt;Node6 -->
<g id="edge93_Node000007_Node000006" class="edge">
<title>Node7&#45;&gt;Node6</title>
<g id="a_edge93_Node000007_Node000006"><a xlink:title=" ">
<path fill="none" stroke="#63b8ff" d="M102.61,-159C118.49,-159 137.8,-159 158.24,-159"/>
<polygon fill="#63b8ff" stroke="#63b8ff" points="102.19,-155.5 92.19,-159 102.19,-162.5 102.19,-155.5"/>
</a>
</g>
</g>
<!-- Node10 -->
<g id="Node000010" class="node">
<title>Node10</title>
<g id="a_Node000010"><a xlink:title=" ">
<polygon fill="#e0e0e0" stroke="#999999" points="89,-120.5 33,-120.5 33,-101.5 89,-101.5 89,-120.5"/>
<text text-anchor="middle" x="61" y="-108.5" font-family="Helvetica,sans-Serif" font-size="10.00">Record3</text>
</a>
</g>
</g>
<!-- Node9 -->
<g id="Node000009" class="node">
<title>Node9</title>
<g id="a_Node000009"><a xlink:href="classcom_1_1teragrep_1_1pth__06_1_1jooq_1_1generated_1_1streamdb_1_1tables_1_1records_1_1HostRecord.html" target="_top" xlink:title="This class is generated by jOOQ.">
<polygon fill="white" stroke="#666666" points="477,-126 158,-126 158,-96 477,-96 477,-126"/>
<text text-anchor="start" x="166" y="-114" font-family="Helvetica,sans-Serif" font-size="10.00">com.teragrep.pth_06.jooq.generated.streamdb.tables.records.</text>
<text text-anchor="middle" x="317.5" y="-103" font-family="Helvetica,sans-Serif" font-size="10.00">HostRecord</text>
</a>
</g>
</g>
<!-- Node10&#45;&gt;Node9 -->
<g id="edge94_Node000010_Node000009" class="edge">
<title>Node10&#45;&gt;Node9</title>
<g id="a_edge94_Node000010_Node000009"><a xlink:title=" ">
<path fill="none" stroke="#63b8ff" d="M99.38,-111C115.75,-111 136.18,-111 157.9,-111"/>
<polygon fill="#63b8ff" stroke="#63b8ff" points="99.24,-107.5 89.24,-111 99.24,-114.5 99.24,-107.5"/>
</a>
</g>
</g>
<!-- Node4 -->
<g id="Node000004" class="node">
<title>Node4</title>
<g id="a_Node000004"><a xlink:title=" ">
<polygon fill="#e0e0e0" stroke="#999999" points="89,-72.5 33,-72.5 33,-53.5 89,-53.5 89,-72.5"/>
<text text-anchor="middle" x="61" y="-60.5" font-family="Helvetica,sans-Serif" font-size="10.00">Record4</text>
</a>
</g>
</g>
<!-- Node3 -->
<g id="Node000003" class="node">
<title>Node3</title>
<g id="a_Node000003"><a xlink:href="classcom_1_1teragrep_1_1pth__06_1_1jooq_1_1generated_1_1bloomdb_1_1tables_1_1records_1_1FiltertypeRecord.html" target="_top" xlink:title="This class is generated by jOOQ.">
<polygon fill="white" stroke="#666666" points="475,-78 160,-78 160,-48 475,-48 475,-78"/>
<text text-anchor="start" x="168" y="-66" font-family="Helvetica,sans-Serif" font-size="10.00">com.teragrep.pth_06.jooq.generated.bloomdb.tables.records.</text>
<text text-anchor="middle" x="317.5" y="-55" font-family="Helvetica,sans-Serif" font-size="10.00">FiltertypeRecord</text>
</a>
</g>
</g>
<!-- Node4&#45;&gt;Node3 -->
<g id="edge95_Node000004_Node000003" class="edge">
<title>Node4&#45;&gt;Node3</title>
<g id="a_edge95_Node000004_Node000003"><a xlink:title=" ">
<path fill="none" stroke="#63b8ff" d="M99.66,-63C116.49,-63 137.57,-63 159.93,-63"/>
<polygon fill="#63b8ff" stroke="#63b8ff" points="99.24,-59.5 89.24,-63 99.24,-66.5 99.24,-59.5"/>
</a>
</g>
</g>
<!-- Node13 -->
<g id="Node000013" class="node">
<title>Node13</title>
<g id="a_Node000013"><a xlink:title=" ">
<polygon fill="#e0e0e0" stroke="#999999" points="89,-24.5 33,-24.5 33,-5.5 89,-5.5 89,-24.5"/>
<text text-anchor="middle" x="61" y="-12.5" font-family="Helvetica,sans-Serif" font-size="10.00">Record5</text>
</a>
</g>
</g>
<!-- Node12 -->
<g id="Node000012" class="node">
<title>Node12</title>
<g id="a_Node000012"><a xlink:href="classcom_1_1teragrep_1_1pth__06_1_1jooq_1_1generated_1_1streamdb_1_1tables_1_1records_1_1StreamRecord.html" target="_top" xlink:title="This class is generated by jOOQ.">
<polygon fill="white" stroke="#666666" points="477,-30 158,-30 158,0 477,0 477,-30"/>
<text text-anchor="start" x="166" y="-18" font-family="Helvetica,sans-Serif" font-size="10.00">com.teragrep.pth_06.jooq.generated.streamdb.tables.records.</text>
<text text-anchor="middle" x="317.5" y="-7" font-family="Helvetica,sans-Serif" font-size="10.00">StreamRecord</text>
</a>
</g>
</g>
<!-- Node13&#45;&gt;Node12 -->
<g id="edge96_Node000013_Node000012" class="edge">
<title>Node13&#45;&gt;Node12</title>
<g id="a_edge96_Node000013_Node000012"><a xlink:title=" ">
<path fill="none" stroke="#63b8ff" d="M99.38,-15C115.75,-15 136.18,-15 157.9,-15"/>
<polygon fill="#63b8ff" stroke="#63b8ff" points="99.24,-11.5 89.24,-15 99.24,-18.5 99.24,-11.5"/>
</a>
</g>
</g>
<!-- Node2 -->
<g id="Node000002" class="node">
<title>Node2</title>
<g id="a_Node000002"><a xlink:title=" ">
<polygon fill="#e0e0e0" stroke="#999999" points="122,-211.5 0,-211.5 0,-192.5 122,-192.5 122,-211.5"/>
<text text-anchor="middle" x="61" y="-199.5" font-family="Helvetica,sans-Serif" font-size="10.00">UpdatableRecordImpl</text>
</a>
</g>
</g>
<!-- Node2&#45;&gt;Node1 -->
<g id="edge98_Node000002_Node000001" class="edge">
<title>Node2&#45;&gt;Node1</title>
<g id="a_edge98_Node000002_Node000001"><a xlink:title=" ">
<path fill="none" stroke="#63b8ff" d="M99.73,-214.76C117.29,-220.35 138.55,-226.61 158,-231 172.66,-234.31 188.19,-237.29 203.57,-239.93"/>
<polygon fill="#63b8ff" stroke="#63b8ff" points="100.45,-211.32 89.86,-211.57 98.3,-217.98 100.45,-211.32"/>
</a>
</g>
</g>
<!-- Node2&#45;&gt;Node5 -->
<g id="edge99_Node000002_Node000005" class="edge">
<title>Node2&#45;&gt;Node5</title>
<g id="a_edge99_Node000002_Node000005"><a xlink:title=" ">
<path fill="none" stroke="#63b8ff" d="M132.5,-203.39C140.73,-203.55 149.35,-203.72 158.18,-203.89"/>
<polygon fill="#63b8ff" stroke="#63b8ff" points="132.38,-199.88 122.31,-203.18 132.24,-206.88 132.38,-199.88"/>
</a>
</g>
</g>
<!-- Node2&#45;&gt;Node8 -->
<g id="edge101_Node000002_Node000008" class="edge">
<title>Node2&#45;&gt;Node8</title>
<g id="a_edge101_Node000002_Node000008"><a xlink:title=" ">
<path fill="none" stroke="#63b8ff" d="M81.25,-218.24C93.8,-229.44 110.02,-245.12 122,-261 142.13,-287.67 130.63,-307.83 158,-327 162.79,-330.35 167.86,-333.32 173.13,-335.93"/>
<polygon fill="#63b8ff" stroke="#63b8ff" points="83.45,-215.51 73.62,-211.57 78.85,-220.79 83.45,-215.51"/>
</a>
</g>
</g>
<!-- Node2&#45;&gt;Node11 -->
<g id="edge103_Node000002_Node000011" class="edge">
<title>Node2&#45;&gt;Node11</title>
<g id="a_edge103_Node000002_Node000011"><a xlink:title=" ">
<path fill="none" stroke="#63b8ff" d="M77.88,-219.27C95.57,-237.32 125.93,-264.94 158,-279 165.9,-282.46 174.21,-285.44 182.72,-288"/>
<polygon fill="#63b8ff" stroke="#63b8ff" points="80.12,-216.55 70.69,-211.73 75.06,-221.38 80.12,-216.55"/>
</a>
</g>
</g>
<!-- Node2&#45;&gt;Node6 -->
<g id="edge100_Node000002_Node000006" class="edge">
<title>Node2&#45;&gt;Node6</title>
<g id="a_edge100_Node000002_Node000006"><a xlink:title=" ">
<path fill="none" stroke="#63b8ff" d="M117.71,-190.53C130.9,-187.94 144.93,-185.28 158,-183 175.68,-179.91 194.52,-176.86 212.8,-174.01"/>
<polygon fill="#63b8ff" stroke="#63b8ff" points="116.95,-187.11 107.82,-192.49 118.31,-193.98 116.95,-187.11"/>
</a>
</g>
</g>
<!-- Node2&#45;&gt;Node9 -->
<g id="edge102_Node000002_Node000009" class="edge">
<title>Node2&#45;&gt;Node9</title>
<g id="a_edge102_Node000002_Node000009"><a xlink:title=" ">
<path fill="none" stroke="#63b8ff" d="M103.71,-188.45C110.12,-185.5 116.45,-182.03 122,-178 142.18,-163.37 136.27,-147.21 158,-135 164.07,-131.59 170.46,-128.62 177.06,-126.03"/>
<polygon fill="#63b8ff" stroke="#63b8ff" points="102.19,-185.29 94.34,-192.41 104.92,-191.74 102.19,-185.29"/>
</a>
</g>
</g>
<!-- Node2&#45;&gt;Node3 -->
<g id="edge97_Node000002_Node000003" class="edge">
<title>Node2&#45;&gt;Node3</title>
<g id="a_edge97_Node000002_Node000003"><a xlink:title=" ">
<path fill="none" stroke="#63b8ff" d="M108.52,-188C113.46,-185.23 118.09,-181.92 122,-178 152.7,-147.19 123.97,-114.08 158,-87 162.14,-83.71 166.53,-80.77 171.13,-78.16"/>
<polygon fill="#63b8ff" stroke="#63b8ff" points="106.87,-184.92 99.41,-192.45 109.94,-191.21 106.87,-184.92"/>
</a>
</g>
</g>
<!-- Node2&#45;&gt;Node12 -->
<g id="edge104_Node000002_Node000012" class="edge">
<title>Node2&#45;&gt;Node12</title>
<g id="a_edge104_Node000002_Node000012"><a xlink:title=" ">
<path fill="none" stroke="#63b8ff" d="M110.43,-187.6C114.73,-184.92 118.7,-181.75 122,-178 164.17,-130.1 110.61,-81.74 158,-39 161.62,-35.74 165.48,-32.81 169.54,-30.19"/>
<polygon fill="#63b8ff" stroke="#63b8ff" points="108.45,-184.69 101.23,-192.44 111.71,-190.88 108.45,-184.69"/>
</a>
</g>
</g>
</g>
</svg>
