<?xml version="1.0" encoding="UTF-8" standalone="no"?>
<!DOCTYPE svg PUBLIC "-//W3C//DTD SVG 1.1//EN"
 "http://www.w3.org/Graphics/SVG/1.1/DTD/svg11.dtd">
<!-- Generated by graphviz version 2.43.0 (0)
 -->
<!-- Title: Graphical Class Hierarchy Pages: 1 -->
<svg width="353pt" height="434pt"
 viewBox="0.00 0.00 353.00 433.50" xmlns="http://www.w3.org/2000/svg" xmlns:xlink="http://www.w3.org/1999/xlink">
<g id="graph0" class="graph" transform="scale(1 1) rotate(0) translate(4 429.5)">
<title>Graphical Class Hierarchy</title>
<!-- Node0 -->
<g id="Node000000" class="node">
<title>Node0</title>
<g id="a_Node000000"><a xlink:title=" ">
<polygon fill="#e0e0e0" stroke="#999999" points="85,-216.5 0,-216.5 0,-197.5 85,-197.5 85,-216.5"/>
<text text-anchor="middle" x="42.5" y="-204.5" font-family="Helvetica,sans-Serif" font-size="10.00">CustomMetric</text>
</a>
</g>
</g>
<!-- Node1 -->
<g id="Node000001" class="node">
<title>Node1</title>
<g id="a_Node000001"><a xlink:href="classcom_1_1teragrep_1_1pth__06_1_1metrics_1_1bytes_1_1ArchiveCompressedBytesProcessedMetricAggregator.html" target="_top" xlink:title=" ">
<polygon fill="white" stroke="#666666" points="344,-425.5 122,-425.5 122,-384.5 344,-384.5 344,-425.5"/>
<text text-anchor="start" x="130" y="-413.5" font-family="Helvetica,sans-Serif" font-size="10.00">com.teragrep.pth_06.metrics.bytes.</text>
<text text-anchor="start" x="130" y="-402.5" font-family="Helvetica,sans-Serif" font-size="10.00">ArchiveCompressedBytesProcessedMetric</text>
<text text-anchor="middle" x="233" y="-391.5" font-family="Helvetica,sans-Serif" font-size="10.00">Aggregator</text>
</a>
</g>
</g>
<!-- Node0&#45;&gt;Node1 -->
<g id="edge32_Node000000_Node000001" class="edge">
<title>Node0&#45;&gt;Node1</title>
<g id="a_edge32_Node000000_Node000001"><a xlink:title=" ">
<path fill="none" stroke="#63b8ff" d="M46.95,-226.67C54.18,-261.85 74.28,-335.54 121,-375 125.19,-378.54 129.77,-381.67 134.59,-384.43"/>
<polygon fill="#63b8ff" stroke="#63b8ff" points="50.36,-225.86 45.04,-216.69 43.49,-227.17 50.36,-225.86"/>
</a>
</g>
</g>
<!-- Node2 -->
<g id="Node000002" class="node">
<title>Node2</title>
<g id="a_Node000002"><a xlink:href="classcom_1_1teragrep_1_1pth__06_1_1metrics_1_1bytes_1_1BytesPerSecondMetricAggregator.html" target="_top" xlink:title=" ">
<polygon fill="white" stroke="#666666" points="328.5,-366 137.5,-366 137.5,-336 328.5,-336 328.5,-366"/>
<text text-anchor="start" x="145.5" y="-354" font-family="Helvetica,sans-Serif" font-size="10.00">com.teragrep.pth_06.metrics.bytes.</text>
<text text-anchor="middle" x="233" y="-343" font-family="Helvetica,sans-Serif" font-size="10.00">BytesPerSecondMetricAggregator</text>
</a>
</g>
</g>
<!-- Node0&#45;&gt;Node2 -->
<g id="edge33_Node000000_Node000002" class="edge">
<title>Node0&#45;&gt;Node2</title>
<g id="a_edge33_Node000000_Node000002"><a xlink:title=" ">
<path fill="none" stroke="#63b8ff" d="M50.37,-226.09C61.09,-253.02 84.45,-301.72 121,-327 126.11,-330.53 131.64,-333.56 137.41,-336.15"/>
<polygon fill="#63b8ff" stroke="#63b8ff" points="53.59,-224.72 46.77,-216.62 47.05,-227.21 53.59,-224.72"/>
</a>
</g>
</g>
<!-- Node3 -->
<g id="Node000003" class="node">
<title>Node3</title>
<g id="a_Node000003"><a xlink:href="classcom_1_1teragrep_1_1pth__06_1_1metrics_1_1bytes_1_1BytesProcessedMetricAggregator.html" target="_top" xlink:title=" ">
<polygon fill="white" stroke="#666666" points="328.5,-318 137.5,-318 137.5,-288 328.5,-288 328.5,-318"/>
<text text-anchor="start" x="145.5" y="-306" font-family="Helvetica,sans-Serif" font-size="10.00">com.teragrep.pth_06.metrics.bytes.</text>
<text text-anchor="middle" x="233" y="-295" font-family="Helvetica,sans-Serif" font-size="10.00">BytesProcessedMetricAggregator</text>
</a>
</g>
</g>
<!-- Node0&#45;&gt;Node3 -->
<g id="edge34_Node000000_Node000003" class="edge">
<title>Node0&#45;&gt;Node3</title>
<g id="a_edge34_Node000000_Node000003"><a xlink:title=" ">
<path fill="none" stroke="#63b8ff" d="M57.46,-224.55C71.66,-241.18 95.21,-265.55 121,-279 127.64,-282.46 134.76,-285.43 142.06,-287.97"/>
<polygon fill="#63b8ff" stroke="#63b8ff" points="60,-222.13 50.92,-216.66 54.61,-226.6 60,-222.13"/>
</a>
</g>
</g>
<!-- Node4 -->
<g id="Node000004" class="node">
<title>Node4</title>
<g id="a_Node000004"><a xlink:href="classcom_1_1teragrep_1_1pth__06_1_1metrics_1_1objects_1_1ArchiveObjectsProcessedMetricAggregator.html" target="_top" xlink:title=" ">
<polygon fill="white" stroke="#666666" points="345,-270 121,-270 121,-240 345,-240 345,-270"/>
<text text-anchor="start" x="129" y="-258" font-family="Helvetica,sans-Serif" font-size="10.00">com.teragrep.pth_06.metrics.objects.</text>
<text text-anchor="middle" x="233" y="-247" font-family="Helvetica,sans-Serif" font-size="10.00">ArchiveObjectsProcessedMetricAggregator</text>
</a>
</g>
</g>
<!-- Node0&#45;&gt;Node4 -->
<g id="edge35_Node000000_Node000004" class="edge">
<title>Node0&#45;&gt;Node4</title>
<g id="a_edge35_Node000000_Node000004"><a xlink:title=" ">
<path fill="none" stroke="#63b8ff" d="M81.98,-219.64C94.37,-223.52 108.21,-227.64 121,-231 132.92,-234.13 145.63,-237.16 158.05,-239.95"/>
<polygon fill="#63b8ff" stroke="#63b8ff" points="82.99,-216.29 72.4,-216.61 80.88,-222.97 82.99,-216.29"/>
</a>
</g>
</g>
<!-- Node5 -->
<g id="Node000005" class="node">
<title>Node5</title>
<g id="a_Node000005"><a xlink:href="classcom_1_1teragrep_1_1pth__06_1_1metrics_1_1offsets_1_1ArchiveOffsetMetricAggregator.html" target="_top" xlink:title=" ">
<polygon fill="white" stroke="#666666" points="331.5,-222 134.5,-222 134.5,-192 331.5,-192 331.5,-222"/>
<text text-anchor="start" x="142.5" y="-210" font-family="Helvetica,sans-Serif" font-size="10.00">com.teragrep.pth_06.metrics.offsets.</text>
<text text-anchor="middle" x="233" y="-199" font-family="Helvetica,sans-Serif" font-size="10.00">ArchiveOffsetMetricAggregator</text>
</a>
</g>
</g>
<!-- Node0&#45;&gt;Node5 -->
<g id="edge36_Node000000_Node000005" class="edge">
<title>Node0&#45;&gt;Node5</title>
<g id="a_edge36_Node000000_Node000005"><a xlink:title=" ">
<path fill="none" stroke="#63b8ff" d="M95.64,-207C107.74,-207 121.01,-207 134.36,-207"/>
<polygon fill="#63b8ff" stroke="#63b8ff" points="95.33,-203.5 85.33,-207 95.33,-210.5 95.33,-203.5"/>
</a>
</g>
</g>
<!-- Node6 -->
<g id="Node000006" class="node">
<title>Node6</title>
<g id="a_Node000006"><a xlink:href="classcom_1_1teragrep_1_1pth__06_1_1metrics_1_1offsets_1_1KafkaOffsetMetricAggregator.html" target="_top" xlink:title=" ">
<polygon fill="white" stroke="#666666" points="331.5,-174 134.5,-174 134.5,-144 331.5,-144 331.5,-174"/>
<text text-anchor="start" x="142.5" y="-162" font-family="Helvetica,sans-Serif" font-size="10.00">com.teragrep.pth_06.metrics.offsets.</text>
<text text-anchor="middle" x="233" y="-151" font-family="Helvetica,sans-Serif" font-size="10.00">KafkaOffsetMetricAggregator</text>
</a>
</g>
</g>
<!-- Node0&#45;&gt;Node6 -->
<g id="edge37_Node000000_Node000006" class="edge">
<title>Node0&#45;&gt;Node6</title>
<g id="a_edge37_Node000000_Node000006"><a xlink:title=" ">
<path fill="none" stroke="#63b8ff" d="M81.98,-194.36C94.37,-190.48 108.21,-186.36 121,-183 132.92,-179.87 145.63,-176.84 158.05,-174.05"/>
<polygon fill="#63b8ff" stroke="#63b8ff" points="80.88,-191.03 72.4,-197.39 82.99,-197.71 80.88,-191.03"/>
</a>
</g>
</g>
<!-- Node7 -->
<g id="Node000007" class="node">
<title>Node7</title>
<g id="a_Node000007"><a xlink:href="classcom_1_1teragrep_1_1pth__06_1_1metrics_1_1records_1_1LatestKafkaTimestampMetricAggregator.html" target="_top" xlink:title=" ">
<polygon fill="white" stroke="#666666" points="340.5,-126 125.5,-126 125.5,-96 340.5,-96 340.5,-126"/>
<text text-anchor="start" x="133.5" y="-114" font-family="Helvetica,sans-Serif" font-size="10.00">com.teragrep.pth_06.metrics.records.</text>
<text text-anchor="middle" x="233" y="-103" font-family="Helvetica,sans-Serif" font-size="10.00">LatestKafkaTimestampMetricAggregator</text>
</a>
</g>
</g>
<!-- Node0&#45;&gt;Node7 -->
<g id="edge38_Node000000_Node000007" class="edge">
<title>Node0&#45;&gt;Node7</title>
<g id="a_edge38_Node000000_Node000007"><a xlink:title=" ">
<path fill="none" stroke="#63b8ff" d="M57.46,-189.45C71.66,-172.82 95.21,-148.45 121,-135 127.64,-131.54 134.76,-128.57 142.06,-126.03"/>
<polygon fill="#63b8ff" stroke="#63b8ff" points="54.61,-187.4 50.92,-197.34 60,-191.87 54.61,-187.4"/>
</a>
</g>
</g>
<!-- Node8 -->
<g id="Node000008" class="node">
<title>Node8</title>
<g id="a_Node000008"><a xlink:href="classcom_1_1teragrep_1_1pth__06_1_1metrics_1_1records_1_1RecordsPerSecondMetricAggregator.html" target="_top" xlink:title=" ">
<polygon fill="white" stroke="#666666" points="333,-78 133,-78 133,-48 333,-48 333,-78"/>
<text text-anchor="start" x="141" y="-66" font-family="Helvetica,sans-Serif" font-size="10.00">com.teragrep.pth_06.metrics.records.</text>
<text text-anchor="middle" x="233" y="-55" font-family="Helvetica,sans-Serif" font-size="10.00">RecordsPerSecondMetricAggregator</text>
</a>
</g>
</g>
<!-- Node0&#45;&gt;Node8 -->
<g id="edge39_Node000000_Node000008" class="edge">
<title>Node0&#45;&gt;Node8</title>
<g id="a_edge39_Node000000_Node000008"><a xlink:title=" ">
<path fill="none" stroke="#63b8ff" d="M50.37,-187.91C61.09,-160.98 84.45,-112.28 121,-87 125.95,-83.58 131.29,-80.63 136.86,-78.1"/>
<polygon fill="#63b8ff" stroke="#63b8ff" points="47.05,-186.79 46.77,-197.38 53.59,-189.28 47.05,-186.79"/>
</a>
</g>
</g>
<!-- Node9 -->
<g id="Node000009" class="node">
<title>Node9</title>
<g id="a_Node000009"><a xlink:href="classcom_1_1teragrep_1_1pth__06_1_1metrics_1_1records_1_1RecordsProcessedMetricAggregator.html" target="_top" xlink:title=" ">
<polygon fill="white" stroke="#666666" points="333,-30 133,-30 133,0 333,0 333,-30"/>
<text text-anchor="start" x="141" y="-18" font-family="Helvetica,sans-Serif" font-size="10.00">com.teragrep.pth_06.metrics.records.</text>
<text text-anchor="middle" x="233" y="-7" font-family="Helvetica,sans-Serif" font-size="10.00">RecordsProcessedMetricAggregator</text>
</a>
</g>
</g>
<!-- Node0&#45;&gt;Node9 -->
<g id="edge40_Node000000_Node000009" class="edge">
<title>Node0&#45;&gt;Node9</title>
<g id="a_edge40_Node000000_Node000009"><a xlink:title=" ">
<path fill="none" stroke="#63b8ff" d="M46.76,-187.09C53.68,-151.53 73.28,-77.25 121,-39 125.23,-35.61 129.83,-32.67 134.68,-30.12"/>
<polygon fill="#63b8ff" stroke="#63b8ff" points="43.27,-186.72 44.94,-197.18 50.16,-187.96 43.27,-186.72"/>
</a>
</g>
</g>
</g>
</svg>
