<?xml version="1.0" encoding="UTF-8" standalone="no"?>
<!DOCTYPE svg PUBLIC "-//W3C//DTD SVG 1.1//EN"
 "http://www.w3.org/Graphics/SVG/1.1/DTD/svg11.dtd">
<!-- Generated by graphviz version 2.43.0 (0)
 -->
<!-- Title: Graphical Class Hierarchy Pages: 1 -->
<svg width="368pt" height="134pt"
 viewBox="0.00 0.00 368.00 134.00" xmlns="http://www.w3.org/2000/svg" xmlns:xlink="http://www.w3.org/1999/xlink">
<g id="graph0" class="graph" transform="scale(1 1) rotate(0) translate(4 130)">
<title>Graphical Class Hierarchy</title>
<!-- Node0 -->
<g id="Node000000" class="node">
<title>Node0</title>
<g id="a_Node000000"><a xlink:title=" ">
<polygon fill="#e0e0e0" stroke="#999999" points="77,-72.5 0,-72.5 0,-53.5 77,-53.5 77,-72.5"/>
<text text-anchor="middle" x="38.5" y="-60.5" font-family="Helvetica,sans-Serif" font-size="10.00">SchemaImpl</text>
</a>
</g>
</g>
<!-- Node1 -->
<g id="Node000001" class="node">
<title>Node1</title>
<g id="a_Node000001"><a xlink:href="classcom_1_1teragrep_1_1pth__06_1_1jooq_1_1generated_1_1bloomdb_1_1Bloomdb.html" target="_top" xlink:title="This class is generated by jOOQ.">
<polygon fill="white" stroke="#666666" points="358,-126 115,-126 115,-96 358,-96 358,-126"/>
<text text-anchor="start" x="123" y="-114" font-family="Helvetica,sans-Serif" font-size="10.00">com.teragrep.pth_06.jooq.generated.bloomdb.</text>
<text text-anchor="middle" x="236.5" y="-103" font-family="Helvetica,sans-Serif" font-size="10.00">Bloomdb</text>
</a>
</g>
</g>
<!-- Node0&#45;&gt;Node1 -->
<g id="edge89_Node000000_Node000001" class="edge">
<title>Node0&#45;&gt;Node1</title>
<g id="a_edge89_Node000000_Node000001"><a xlink:title=" ">
<path fill="none" stroke="#63b8ff" d="M75.68,-75.79C87.49,-79.7 100.72,-83.8 113,-87 125.37,-90.22 138.55,-93.23 151.5,-95.96"/>
<polygon fill="#63b8ff" stroke="#63b8ff" points="76.74,-72.45 66.15,-72.57 74.5,-79.08 76.74,-72.45"/>
</a>
</g>
</g>
<!-- Node2 -->
<g id="Node000002" class="node">
<title>Node2</title>
<g id="a_Node000002"><a xlink:href="classcom_1_1teragrep_1_1pth__06_1_1jooq_1_1generated_1_1journaldb_1_1Journaldb.html" target="_top" xlink:title="This class is generated by jOOQ.">
<polygon fill="white" stroke="#666666" points="359.5,-78 113.5,-78 113.5,-48 359.5,-48 359.5,-78"/>
<text text-anchor="start" x="121.5" y="-66" font-family="Helvetica,sans-Serif" font-size="10.00">com.teragrep.pth_06.jooq.generated.journaldb.</text>
<text text-anchor="middle" x="236.5" y="-55" font-family="Helvetica,sans-Serif" font-size="10.00">Journaldb</text>
</a>
</g>
</g>
<!-- Node0&#45;&gt;Node2 -->
<g id="edge90_Node000000_Node000002" class="edge">
<title>Node0&#45;&gt;Node2</title>
<g id="a_edge90_Node000000_Node000002"><a xlink:title=" ">
<path fill="none" stroke="#63b8ff" d="M87.3,-63C95.48,-63 104.32,-63 113.44,-63"/>
<polygon fill="#63b8ff" stroke="#63b8ff" points="87.29,-59.5 77.29,-63 87.29,-66.5 87.29,-59.5"/>
</a>
</g>
</g>
<!-- Node3 -->
<g id="Node000003" class="node">
<title>Node3</title>
<g id="a_Node000003"><a xlink:href="classcom_1_1teragrep_1_1pth__06_1_1jooq_1_1generated_1_1streamdb_1_1Streamdb.html" target="_top" xlink:title="This class is generated by jOOQ.">
<polygon fill="white" stroke="#666666" points="360,-30 113,-30 113,0 360,0 360,-30"/>
<text text-anchor="start" x="121" y="-18" font-family="Helvetica,sans-Serif" font-size="10.00">com.teragrep.pth_06.jooq.generated.streamdb.</text>
<text text-anchor="middle" x="236.5" y="-7" font-family="Helvetica,sans-Serif" font-size="10.00">Streamdb</text>
</a>
</g>
</g>
<!-- Node0&#45;&gt;Node3 -->
<g id="edge91_Node000000_Node000003" class="edge">
<title>Node0&#45;&gt;Node3</title>
<g id="a_edge91_Node000000_Node000003"><a xlink:title=" ">
<path fill="none" stroke="#63b8ff" d="M75.68,-50.21C87.49,-46.3 100.72,-42.2 113,-39 125.37,-35.78 138.55,-32.77 151.5,-30.04"/>
<polygon fill="#63b8ff" stroke="#63b8ff" points="74.5,-46.92 66.15,-53.43 76.74,-53.55 74.5,-46.92"/>
</a>
</g>
</g>
</g>
</svg>
