<?xml version="1.0" encoding="UTF-8" standalone="no"?>
<!DOCTYPE svg PUBLIC "-//W3C//DTD SVG 1.1//EN"
 "http://www.w3.org/Graphics/SVG/1.1/DTD/svg11.dtd">
<!-- Generated by graphviz version 2.43.0 (0)
 -->
<!-- Title: Graphical Class Hierarchy Pages: 1 -->
<svg width="320pt" height="138pt"
 viewBox="0.00 0.00 320.00 138.00" xmlns="http://www.w3.org/2000/svg" xmlns:xlink="http://www.w3.org/1999/xlink">
<g id="graph0" class="graph" transform="scale(1 1) rotate(0) translate(4 134)">
<title>Graphical Class Hierarchy</title>
<!-- Node0 -->
<g id="Node000000" class="node">
<title>Node0</title>
<g id="a_Node000000"><a xlink:title=" ">
<polygon fill="#e0e0e0" stroke="#999999" points="113,-56 0,-56 0,-37 113,-37 113,-56"/>
<text text-anchor="middle" x="56.5" y="-44" font-family="Helvetica,sans-Serif" font-size="10.00">DataSourceRegister</text>
</a>
</g>
</g>
<!-- Node1 -->
<g id="Node000001" class="node">
<title>Node1</title>
<g id="a_Node000001"><a xlink:href="classcom_1_1teragrep_1_1pth__06_1_1MockTeragrepDatasource.html" target="_top" xlink:title=" ">
<polygon fill="white" stroke="#666666" points="304,-103.5 157,-103.5 157,-73.5 304,-73.5 304,-103.5"/>
<text text-anchor="start" x="165" y="-91.5" font-family="Helvetica,sans-Serif" font-size="10.00">com.teragrep.pth_06.Mock</text>
<text text-anchor="middle" x="230.5" y="-80.5" font-family="Helvetica,sans-Serif" font-size="10.00">TeragrepDatasource</text>
</a>
</g>
</g>
<!-- Node0&#45;&gt;Node1 -->
<g id="edge70_Node000000_Node000001" class="edge">
<title>Node0&#45;&gt;Node1</title>
<g id="a_edge70_Node000000_Node000001"><a xlink:title=" ">
<path fill="none" stroke="#63b8ff" d="M106.26,-58.41C125.47,-63.1 147.74,-68.53 168.02,-73.49"/>
<polygon fill="#63b8ff" stroke="#63b8ff" points="107.07,-55 96.53,-56.03 105.41,-61.8 107.07,-55"/>
</a>
</g>
</g>
<!-- Node3 -->
<g id="Node000003" class="node">
<title>Node3</title>
<g id="a_Node000003"><a xlink:href="classcom_1_1teragrep_1_1pth__06_1_1TeragrepDatasource.html" target="_top" xlink:title=" ">
<polygon fill="white" stroke="#666666" points="312,-55.5 149,-55.5 149,-25.5 312,-25.5 312,-55.5"/>
<text text-anchor="start" x="157" y="-43.5" font-family="Helvetica,sans-Serif" font-size="10.00">com.teragrep.pth_06.Teragrep</text>
<text text-anchor="middle" x="230.5" y="-32.5" font-family="Helvetica,sans-Serif" font-size="10.00">Datasource</text>
</a>
</g>
</g>
<!-- Node0&#45;&gt;Node3 -->
<g id="edge71_Node000000_Node000003" class="edge">
<title>Node0&#45;&gt;Node3</title>
<g id="a_edge71_Node000000_Node000003"><a xlink:title=" ">
<path fill="none" stroke="#63b8ff" d="M123.39,-44.2C131.75,-43.91 140.39,-43.61 148.95,-43.31"/>
<polygon fill="#63b8ff" stroke="#63b8ff" points="123.22,-40.71 113.34,-44.55 123.46,-47.7 123.22,-40.71"/>
</a>
</g>
</g>
<!-- Node2 -->
<g id="Node000002" class="node">
<title>Node2</title>
<g id="a_Node000002"><a xlink:title=" ">
<polygon fill="#e0e0e0" stroke="#999999" points="98.5,-19 14.5,-19 14.5,0 98.5,0 98.5,-19"/>
<text text-anchor="middle" x="56.5" y="-7" font-family="Helvetica,sans-Serif" font-size="10.00">SupportsRead</text>
</a>
</g>
</g>
<!-- Node2&#45;&gt;Node1 -->
<g id="edge72_Node000002_Node000001" class="edge">
<title>Node2&#45;&gt;Node1</title>
<g id="a_edge72_Node000002_Node000001"><a xlink:title=" ">
<path fill="none" stroke="#63b8ff" d="M104.71,-22.99C107.59,-24.37 110.38,-25.87 113,-27.5 132.48,-39.62 129.37,-52.62 149,-64.5 154.61,-67.9 160.74,-70.84 167.03,-73.39"/>
<polygon fill="#63b8ff" stroke="#63b8ff" points="105.9,-19.7 95.33,-19.02 103.17,-26.14 105.9,-19.7"/>
</a>
</g>
</g>
<!-- Node2&#45;&gt;Node3 -->
<g id="edge73_Node000002_Node000003" class="edge">
<title>Node2&#45;&gt;Node3</title>
<g id="a_edge73_Node000002_Node000003"><a xlink:title=" ">
<path fill="none" stroke="#63b8ff" d="M108.57,-18.7C121.24,-20.99 135.13,-23.49 148.84,-25.96"/>
<polygon fill="#63b8ff" stroke="#63b8ff" points="109.16,-15.25 98.7,-16.93 107.92,-22.14 109.16,-15.25"/>
</a>
</g>
</g>
<!-- Node4 -->
<g id="Node000004" class="node">
<title>Node4</title>
<g id="a_Node000004"><a xlink:title=" ">
<polygon fill="#e0e0e0" stroke="#999999" points="77.5,-130 35.5,-130 35.5,-111 77.5,-111 77.5,-130"/>
<text text-anchor="middle" x="56.5" y="-118" font-family="Helvetica,sans-Serif" font-size="10.00">Table</text>
</a>
</g>
</g>
<!-- Node4&#45;&gt;Node1 -->
<g id="edge74_Node000004_Node000001" class="edge">
<title>Node4&#45;&gt;Node1</title>
<g id="a_edge74_Node000004_Node000001"><a xlink:title=" ">
<path fill="none" stroke="#63b8ff" d="M87.48,-114.92C106.64,-111.36 132.35,-106.57 156.64,-102.06"/>
<polygon fill="#63b8ff" stroke="#63b8ff" points="86.76,-111.5 77.57,-116.77 88.04,-118.38 86.76,-111.5"/>
</a>
</g>
</g>
<!-- Node4&#45;&gt;Node3 -->
<g id="edge75_Node000004_Node000003" class="edge">
<title>Node4&#45;&gt;Node3</title>
<g id="a_edge75_Node000004_Node000003"><a xlink:title=" ">
<path fill="none" stroke="#63b8ff" d="M87.36,-113.8C96.03,-111.08 105.24,-107.4 113,-102.5 132.67,-90.08 129.18,-76.68 149,-64.5 154.59,-61.06 160.7,-58.09 166.98,-55.53"/>
<polygon fill="#63b8ff" stroke="#63b8ff" points="86.23,-110.48 77.55,-116.56 88.12,-117.22 86.23,-110.48"/>
</a>
</g>
</g>
<!-- Node5 -->
<g id="Node000005" class="node">
<title>Node5</title>
<g id="a_Node000005"><a xlink:title=" ">
<polygon fill="#e0e0e0" stroke="#999999" points="98,-93 15,-93 15,-74 98,-74 98,-93"/>
<text text-anchor="middle" x="56.5" y="-81" font-family="Helvetica,sans-Serif" font-size="10.00">TableProvider</text>
</a>
</g>
</g>
<!-- Node5&#45;&gt;Node1 -->
<g id="edge76_Node000005_Node000001" class="edge">
<title>Node5&#45;&gt;Node1</title>
<g id="a_edge76_Node000005_Node000001"><a xlink:title=" ">
<path fill="none" stroke="#63b8ff" d="M108.43,-84.98C123.58,-85.42 140.47,-85.91 156.71,-86.38"/>
<polygon fill="#63b8ff" stroke="#63b8ff" points="108.36,-81.48 98.26,-84.68 108.16,-88.47 108.36,-81.48"/>
</a>
</g>
</g>
<!-- Node5&#45;&gt;Node3 -->
<g id="edge77_Node000005_Node000003" class="edge">
<title>Node5&#45;&gt;Node3</title>
<g id="a_edge77_Node000005_Node000003"><a xlink:title=" ">
<path fill="none" stroke="#63b8ff" d="M105.42,-71.52C125.27,-66.56 148.51,-60.75 169.47,-55.51"/>
<polygon fill="#63b8ff" stroke="#63b8ff" points="104.52,-68.14 95.67,-73.96 106.22,-74.93 104.52,-68.14"/>
</a>
</g>
</g>
</g>
</svg>
