<?xml version="1.0" encoding="UTF-8" standalone="no"?>
<!DOCTYPE svg PUBLIC "-//W3C//DTD SVG 1.1//EN"
 "http://www.w3.org/Graphics/SVG/1.1/DTD/svg11.dtd">
<!-- Generated by graphviz version 2.43.0 (0)
 -->
<!-- Title: Graphical Class Hierarchy Pages: 1 -->
<svg width="335pt" height="98pt"
 viewBox="0.00 0.00 335.00 97.50" xmlns="http://www.w3.org/2000/svg" xmlns:xlink="http://www.w3.org/1999/xlink">
<g id="graph0" class="graph" transform="scale(1 1) rotate(0) translate(4 93.5)">
<title>Graphical Class Hierarchy</title>
<!-- Node0 -->
<g id="Node000000" class="node">
<title>Node0</title>
<g id="a_Node000000"><a xlink:title=" ">
<polygon fill="#e0e0e0" stroke="#999999" points="92,-57 0,-57 0,-38 92,-38 92,-57"/>
<text text-anchor="middle" x="46" y="-45" font-family="Helvetica,sans-Serif" font-size="10.00">PartitionReader</text>
</a>
</g>
</g>
<!-- Node1 -->
<g id="Node000001" class="node">
<title>Node1</title>
<g id="a_Node000001"><a xlink:href="classcom_1_1teragrep_1_1pth__06_1_1task_1_1KafkaMicroBatchInputPartitionReader.html" target="_top" xlink:title=" ">
<polygon fill="white" stroke="#666666" points="327,-89.5 128,-89.5 128,-59.5 327,-59.5 327,-89.5"/>
<text text-anchor="start" x="136" y="-77.5" font-family="Helvetica,sans-Serif" font-size="10.00">com.teragrep.pth_06.task.</text>
<text text-anchor="middle" x="227.5" y="-66.5" font-family="Helvetica,sans-Serif" font-size="10.00">KafkaMicroBatchInputPartitionReader</text>
</a>
</g>
</g>
<!-- Node0&#45;&gt;Node1 -->
<g id="edge72_Node000000_Node000001" class="edge">
<title>Node0&#45;&gt;Node1</title>
<g id="a_edge72_Node000000_Node000001"><a xlink:title=" ">
<path fill="none" stroke="#63b8ff" d="M102.39,-55.83C110.57,-57.06 119.2,-58.36 127.94,-59.67"/>
<polygon fill="#63b8ff" stroke="#63b8ff" points="102.7,-52.34 92.3,-54.31 101.66,-59.26 102.7,-52.34"/>
</a>
</g>
</g>
<!-- Node2 -->
<g id="Node000002" class="node">
<title>Node2</title>
<g id="a_Node000002"><a xlink:href="classcom_1_1teragrep_1_1pth__06_1_1task_1_1MetadataMicroBatchInputPartitionReader.html" target="_top" xlink:title=" ">
<polygon fill="white" stroke="#666666" points="319,-41 136,-41 136,0 319,0 319,-41"/>
<text text-anchor="start" x="144" y="-29" font-family="Helvetica,sans-Serif" font-size="10.00">com.teragrep.pth_06.task.</text>
<text text-anchor="start" x="144" y="-18" font-family="Helvetica,sans-Serif" font-size="10.00">MetadataMicroBatchInputPartition</text>
<text text-anchor="middle" x="227.5" y="-7" font-family="Helvetica,sans-Serif" font-size="10.00">Reader</text>
</a>
</g>
</g>
<!-- Node0&#45;&gt;Node2 -->
<g id="edge73_Node000000_Node000002" class="edge">
<title>Node0&#45;&gt;Node2</title>
<g id="a_edge73_Node000000_Node000002"><a xlink:title=" ">
<path fill="none" stroke="#63b8ff" d="M102.24,-39.19C112.87,-37.59 124.27,-35.88 135.7,-34.16"/>
<polygon fill="#63b8ff" stroke="#63b8ff" points="101.66,-35.74 92.3,-40.69 102.7,-42.66 101.66,-35.74"/>
</a>
</g>
</g>
</g>
</svg>
