<?xml version="1.0" encoding="UTF-8" standalone="no"?>
<!DOCTYPE svg PUBLIC "-//W3C//DTD SVG 1.1//EN"
 "http://www.w3.org/Graphics/SVG/1.1/DTD/svg11.dtd">
<!-- Generated by graphviz version 2.43.0 (0)
 -->
<!-- Title: Graphical Class Hierarchy Pages: 1 -->
<svg width="299pt" height="86pt"
 viewBox="0.00 0.00 299.00 86.00" xmlns="http://www.w3.org/2000/svg" xmlns:xlink="http://www.w3.org/1999/xlink">
<g id="graph0" class="graph" transform="scale(1 1) rotate(0) translate(4 82)">
<title>Graphical Class Hierarchy</title>
<!-- Node0 -->
<g id="Node000000" class="node">
<title>Node0</title>
<g id="a_Node000000"><a xlink:title=" ">
<polygon fill="#e0e0e0" stroke="#999999" points="82,-48.5 0,-48.5 0,-29.5 82,-29.5 82,-48.5"/>
<text text-anchor="middle" x="41" y="-36.5" font-family="Helvetica,sans-Serif" font-size="10.00">InputPartition</text>
</a>
</g>
</g>
<!-- Node1 -->
<g id="Node000001" class="node">
<title>Node1</title>
<g id="a_Node000001"><a xlink:href="classcom_1_1teragrep_1_1pth__06_1_1task_1_1ArchiveMicroBatchInputPartition.html" target="_top" xlink:title=" ">
<polygon fill="white" stroke="#666666" points="291,-78 118,-78 118,-48 291,-48 291,-78"/>
<text text-anchor="start" x="126" y="-66" font-family="Helvetica,sans-Serif" font-size="10.00">com.teragrep.pth_06.task.</text>
<text text-anchor="middle" x="204.5" y="-55" font-family="Helvetica,sans-Serif" font-size="10.00">ArchiveMicroBatchInputPartition</text>
</a>
</g>
</g>
<!-- Node0&#45;&gt;Node1 -->
<g id="edge83_Node000000_Node000001" class="edge">
<title>Node0&#45;&gt;Node1</title>
<g id="a_edge83_Node000000_Node000001"><a xlink:title=" ">
<path fill="none" stroke="#63b8ff" d="M92.39,-46.49C100.56,-47.7 109.22,-48.99 117.94,-50.29"/>
<polygon fill="#63b8ff" stroke="#63b8ff" points="92.74,-43 82.34,-44.99 91.71,-49.93 92.74,-43"/>
</a>
</g>
</g>
<!-- Node2 -->
<g id="Node000002" class="node">
<title>Node2</title>
<g id="a_Node000002"><a xlink:href="classcom_1_1teragrep_1_1pth__06_1_1task_1_1KafkaMicroBatchInputPartition.html" target="_top" xlink:title=" ">
<polygon fill="white" stroke="#666666" points="286.5,-30 122.5,-30 122.5,0 286.5,0 286.5,-30"/>
<text text-anchor="start" x="130.5" y="-18" font-family="Helvetica,sans-Serif" font-size="10.00">com.teragrep.pth_06.task.</text>
<text text-anchor="middle" x="204.5" y="-7" font-family="Helvetica,sans-Serif" font-size="10.00">KafkaMicroBatchInputPartition</text>
</a>
</g>
</g>
<!-- Node0&#45;&gt;Node2 -->
<g id="edge84_Node000000_Node000002" class="edge">
<title>Node0&#45;&gt;Node2</title>
<g id="a_edge84_Node000000_Node000002"><a xlink:title=" ">
<path fill="none" stroke="#63b8ff" d="M92.41,-31.51C101.97,-30.09 112.18,-28.57 122.41,-27.05"/>
<polygon fill="#63b8ff" stroke="#63b8ff" points="91.71,-28.07 82.34,-33.01 92.74,-35 91.71,-28.07"/>
</a>
</g>
</g>
</g>
</svg>
