<?xml version="1.0" encoding="UTF-8" standalone="no"?>
<!DOCTYPE svg PUBLIC "-//W3C//DTD SVG 1.1//EN"
 "http://www.w3.org/Graphics/SVG/1.1/DTD/svg11.dtd">
<!-- Generated by graphviz version 2.43.0 (0)
 -->
<!-- Title: Graphical Class Hierarchy Pages: 1 -->
<svg width="410pt" height="306pt"
 viewBox="0.00 0.00 410.00 306.00" xmlns="http://www.w3.org/2000/svg" xmlns:xlink="http://www.w3.org/1999/xlink">
<g id="graph0" class="graph" transform="scale(1 1) rotate(0) translate(4 302)">
<title>Graphical Class Hierarchy</title>
<!-- Node0 -->
<g id="Node000000" class="node">
<title>Node0</title>
<g id="a_Node000000"><a xlink:title=" ">
<polygon fill="#e0e0e0" stroke="#999999" points="64,-158.5 0,-158.5 0,-139.5 64,-139.5 64,-158.5"/>
<text text-anchor="middle" x="32" y="-146.5" font-family="Helvetica,sans-Serif" font-size="10.00">TableImpl</text>
</a>
</g>
</g>
<!-- Node1 -->
<g id="Node000001" class="node">
<title>Node1</title>
<g id="a_Node000001"><a xlink:href="classcom_1_1teragrep_1_1pth__06_1_1jooq_1_1generated_1_1bloomdb_1_1tables_1_1Filtertype.html" target="_top" xlink:title="This class is generated by jOOQ.">
<polygon fill="white" stroke="#666666" points="389,-298 113,-298 113,-268 389,-268 389,-298"/>
<text text-anchor="start" x="121" y="-286" font-family="Helvetica,sans-Serif" font-size="10.00">com.teragrep.pth_06.jooq.generated.bloomdb.tables.</text>
<text text-anchor="middle" x="251" y="-275" font-family="Helvetica,sans-Serif" font-size="10.00">Filtertype</text>
</a>
</g>
</g>
<!-- Node0&#45;&gt;Node1 -->
<g id="edge88_Node000000_Node000001" class="edge">
<title>Node0&#45;&gt;Node1</title>
<g id="a_edge88_Node000000_Node000001"><a xlink:title=" ">
<path fill="none" stroke="#63b8ff" d="M38.99,-168.14C47.94,-193.36 67.35,-237.08 100,-259 105.04,-262.38 110.38,-265.35 115.93,-267.95"/>
<polygon fill="#63b8ff" stroke="#63b8ff" points="42.28,-166.95 35.78,-158.58 35.64,-169.18 42.28,-166.95"/>
</a>
</g>
</g>
<!-- Node2 -->
<g id="Node000002" class="node">
<title>Node2</title>
<g id="a_Node000002"><a xlink:href="classcom_1_1teragrep_1_1pth__06_1_1jooq_1_1generated_1_1journaldb_1_1tables_1_1Bucket.html" target="_top" xlink:title="Buckets in object storage.">
<polygon fill="white" stroke="#666666" points="390.5,-250 111.5,-250 111.5,-220 390.5,-220 390.5,-250"/>
<text text-anchor="start" x="119.5" y="-238" font-family="Helvetica,sans-Serif" font-size="10.00">com.teragrep.pth_06.jooq.generated.journaldb.tables.</text>
<text text-anchor="middle" x="251" y="-227" font-family="Helvetica,sans-Serif" font-size="10.00">Bucket</text>
</a>
</g>
</g>
<!-- Node0&#45;&gt;Node2 -->
<g id="edge89_Node000000_Node000002" class="edge">
<title>Node0&#45;&gt;Node2</title>
<g id="a_edge89_Node000000_Node000002"><a xlink:title=" ">
<path fill="none" stroke="#63b8ff" d="M46.84,-166.6C59.17,-180.98 78.56,-200.57 100,-211 107,-214.4 114.37,-217.34 121.95,-219.87"/>
<polygon fill="#63b8ff" stroke="#63b8ff" points="49.5,-164.33 40.43,-158.85 44.1,-168.79 49.5,-164.33"/>
</a>
</g>
</g>
<!-- Node3 -->
<g id="Node000003" class="node">
<title>Node3</title>
<g id="a_Node000003"><a xlink:href="classcom_1_1teragrep_1_1pth__06_1_1jooq_1_1generated_1_1journaldb_1_1tables_1_1Host.html" target="_top" xlink:title="Host names.">
<polygon fill="white" stroke="#666666" points="402,-201.5 100,-201.5 100,-182.5 402,-182.5 402,-201.5"/>
<text text-anchor="middle" x="251" y="-189.5" font-family="Helvetica,sans-Serif" font-size="10.00">com.teragrep.pth_06.jooq.generated.journaldb.tables.Host</text>
</a>
</g>
</g>
<!-- Node0&#45;&gt;Node3 -->
<g id="edge90_Node000000_Node000003" class="edge">
<title>Node0&#45;&gt;Node3</title>
<g id="a_edge90_Node000000_Node000003"><a xlink:title=" ">
<path fill="none" stroke="#63b8ff" d="M65.38,-162.21C76.23,-166.2 88.5,-170.25 100,-173 116.08,-176.85 133.33,-179.96 150.21,-182.45"/>
<polygon fill="#63b8ff" stroke="#63b8ff" points="66.47,-158.88 55.88,-158.6 63.98,-165.42 66.47,-158.88"/>
</a>
</g>
</g>
<!-- Node4 -->
<g id="Node000004" class="node">
<title>Node4</title>
<g id="a_Node000004"><a xlink:href="classcom_1_1teragrep_1_1pth__06_1_1jooq_1_1generated_1_1journaldb_1_1tables_1_1Logfile.html" target="_top" xlink:title="Contains information for log files that have been run through Log Archiver.">
<polygon fill="white" stroke="#666666" points="390.5,-164 111.5,-164 111.5,-134 390.5,-134 390.5,-164"/>
<text text-anchor="start" x="119.5" y="-152" font-family="Helvetica,sans-Serif" font-size="10.00">com.teragrep.pth_06.jooq.generated.journaldb.tables.</text>
<text text-anchor="middle" x="251" y="-141" font-family="Helvetica,sans-Serif" font-size="10.00">Logfile</text>
</a>
</g>
</g>
<!-- Node0&#45;&gt;Node4 -->
<g id="edge91_Node000000_Node000004" class="edge">
<title>Node0&#45;&gt;Node4</title>
<g id="a_edge91_Node000000_Node000004"><a xlink:title=" ">
<path fill="none" stroke="#63b8ff" d="M74.25,-149C85.37,-149 98.05,-149 111.39,-149"/>
<polygon fill="#63b8ff" stroke="#63b8ff" points="74.09,-145.5 64.09,-149 74.09,-152.5 74.09,-145.5"/>
</a>
</g>
</g>
<!-- Node5 -->
<g id="Node000005" class="node">
<title>Node5</title>
<g id="a_Node000005"><a xlink:href="classcom_1_1teragrep_1_1pth__06_1_1jooq_1_1generated_1_1streamdb_1_1tables_1_1Host.html" target="_top" xlink:title="This class is generated by jOOQ.">
<polygon fill="white" stroke="#666666" points="402,-115.5 100,-115.5 100,-96.5 402,-96.5 402,-115.5"/>
<text text-anchor="middle" x="251" y="-103.5" font-family="Helvetica,sans-Serif" font-size="10.00">com.teragrep.pth_06.jooq.generated.streamdb.tables.Host</text>
</a>
</g>
</g>
<!-- Node0&#45;&gt;Node5 -->
<g id="edge92_Node000000_Node000005" class="edge">
<title>Node0&#45;&gt;Node5</title>
<g id="a_edge92_Node000000_Node000005"><a xlink:title=" ">
<path fill="none" stroke="#63b8ff" d="M65.38,-135.79C76.23,-131.8 88.5,-127.75 100,-125 116.08,-121.15 133.33,-118.04 150.21,-115.55"/>
<polygon fill="#63b8ff" stroke="#63b8ff" points="63.98,-132.58 55.88,-139.4 66.47,-139.12 63.98,-132.58"/>
</a>
</g>
</g>
<!-- Node6 -->
<g id="Node000006" class="node">
<title>Node6</title>
<g id="a_Node000006"><a xlink:href="classcom_1_1teragrep_1_1pth__06_1_1jooq_1_1generated_1_1streamdb_1_1tables_1_1LogGroup.html" target="_top" xlink:title="This class is generated by jOOQ.">
<polygon fill="white" stroke="#666666" points="391,-78 111,-78 111,-48 391,-48 391,-78"/>
<text text-anchor="start" x="119" y="-66" font-family="Helvetica,sans-Serif" font-size="10.00">com.teragrep.pth_06.jooq.generated.streamdb.tables.</text>
<text text-anchor="middle" x="251" y="-55" font-family="Helvetica,sans-Serif" font-size="10.00">LogGroup</text>
</a>
</g>
</g>
<!-- Node0&#45;&gt;Node6 -->
<g id="edge93_Node000000_Node000006" class="edge">
<title>Node0&#45;&gt;Node6</title>
<g id="a_edge93_Node000000_Node000006"><a xlink:title=" ">
<path fill="none" stroke="#63b8ff" d="M47.26,-131.32C59.66,-117.24 78.9,-98.24 100,-88 107.96,-84.14 116.4,-80.86 125.07,-78.08"/>
<polygon fill="#63b8ff" stroke="#63b8ff" points="44.27,-129.44 40.47,-139.33 49.61,-133.97 44.27,-129.44"/>
</a>
</g>
</g>
<!-- Node7 -->
<g id="Node000007" class="node">
<title>Node7</title>
<g id="a_Node000007"><a xlink:href="classcom_1_1teragrep_1_1pth__06_1_1jooq_1_1generated_1_1streamdb_1_1tables_1_1Stream.html" target="_top" xlink:title="This class is generated by jOOQ.">
<polygon fill="white" stroke="#666666" points="391,-30 111,-30 111,0 391,0 391,-30"/>
<text text-anchor="start" x="119" y="-18" font-family="Helvetica,sans-Serif" font-size="10.00">com.teragrep.pth_06.jooq.generated.streamdb.tables.</text>
<text text-anchor="middle" x="251" y="-7" font-family="Helvetica,sans-Serif" font-size="10.00">Stream</text>
</a>
</g>
</g>
<!-- Node0&#45;&gt;Node7 -->
<g id="edge94_Node000000_Node000007" class="edge">
<title>Node0&#45;&gt;Node7</title>
<g id="a_edge94_Node000000_Node000007"><a xlink:title=" ">
<path fill="none" stroke="#63b8ff" d="M38.99,-129.86C47.94,-104.64 67.35,-60.92 100,-39 105.04,-35.62 110.38,-32.65 115.93,-30.05"/>
<polygon fill="#63b8ff" stroke="#63b8ff" points="35.64,-128.82 35.78,-139.42 42.28,-131.05 35.64,-128.82"/>
</a>
</g>
</g>
</g>
</svg>
