<?xml version="1.0" encoding="UTF-8" standalone="no"?>
<!DOCTYPE svg PUBLIC "-//W3C//DTD SVG 1.1//EN"
 "http://www.w3.org/Graphics/SVG/1.1/DTD/svg11.dtd">
<!-- Generated by graphviz version 2.43.0 (0)
 -->
<!-- Title: Graphical Class Hierarchy Pages: 1 -->
<svg width="485pt" height="422pt"
 viewBox="0.00 0.00 485.00 422.00" xmlns="http://www.w3.org/2000/svg" xmlns:xlink="http://www.w3.org/1999/xlink">
<g id="graph0" class="graph" transform="scale(1 1) rotate(0) translate(4 418)">
<title>Graphical Class Hierarchy</title>
<!-- Node0 -->
<g id="Node000000" class="node">
<title>Node0</title>
<g id="a_Node000000"><a xlink:title=" ">
<polygon fill="#e0e0e0" stroke="#999999" points="89,-408.5 33,-408.5 33,-389.5 89,-389.5 89,-408.5"/>
<text text-anchor="middle" x="61" y="-396.5" font-family="Helvetica,sans-Serif" font-size="10.00">Record1</text>
</a>
</g>
</g>
<!-- Node1 -->
<g id="Node000001" class="node">
<title>Node1</title>
<g id="a_Node000001"><a xlink:href="classcom_1_1teragrep_1_1pth__06_1_1jooq_1_1generated_1_1journaldb_1_1tables_1_1records_1_1CorruptedArchiveRecord.html" target="_top" xlink:title="Contains logfiles that are both archives and detected to be corrupted.">
<polygon fill="white" stroke="#666666" points="476.5,-414 158.5,-414 158.5,-384 476.5,-384 476.5,-414"/>
<text text-anchor="start" x="166.5" y="-402" font-family="Helvetica,sans-Serif" font-size="10.00">com.teragrep.pth_06.jooq.generated.journaldb.tables.records.</text>
<text text-anchor="middle" x="317.5" y="-391" font-family="Helvetica,sans-Serif" font-size="10.00">CorruptedArchiveRecord</text>
</a>
</g>
</g>
<!-- Node0&#45;&gt;Node1 -->
<g id="edge89_Node000000_Node000001" class="edge">
<title>Node0&#45;&gt;Node1</title>
<g id="a_edge89_Node000000_Node000001"><a xlink:title=" ">
<path fill="none" stroke="#63b8ff" d="M99.46,-399C115.96,-399 136.58,-399 158.48,-399"/>
<polygon fill="#63b8ff" stroke="#63b8ff" points="99.24,-395.5 89.24,-399 99.24,-402.5 99.24,-395.5"/>
</a>
</g>
</g>
<!-- Node6 -->
<g id="Node000006" class="node">
<title>Node6</title>
<g id="a_Node000006"><a xlink:title=" ">
<polygon fill="#e0e0e0" stroke="#999999" points="89,-288.5 33,-288.5 33,-269.5 89,-269.5 89,-288.5"/>
<text text-anchor="middle" x="61" y="-276.5" font-family="Helvetica,sans-Serif" font-size="10.00">Record2</text>
</a>
</g>
</g>
<!-- Node5 -->
<g id="Node000005" class="node">
<title>Node5</title>
<g id="a_Node000005"><a xlink:href="classcom_1_1teragrep_1_1pth__06_1_1jooq_1_1generated_1_1journaldb_1_1tables_1_1records_1_1BucketRecord.html" target="_top" xlink:title="Buckets in object storage.">
<polygon fill="white" stroke="#666666" points="476.5,-318 158.5,-318 158.5,-288 476.5,-288 476.5,-318"/>
<text text-anchor="start" x="166.5" y="-306" font-family="Helvetica,sans-Serif" font-size="10.00">com.teragrep.pth_06.jooq.generated.journaldb.tables.records.</text>
<text text-anchor="middle" x="317.5" y="-295" font-family="Helvetica,sans-Serif" font-size="10.00">BucketRecord</text>
</a>
</g>
</g>
<!-- Node6&#45;&gt;Node5 -->
<g id="edge90_Node000006_Node000005" class="edge">
<title>Node6&#45;&gt;Node5</title>
<g id="a_edge90_Node000006_Node000005"><a xlink:title=" ">
<path fill="none" stroke="#63b8ff" d="M99.46,-282.53C115.96,-284.09 136.58,-286.03 158.48,-288.1"/>
<polygon fill="#63b8ff" stroke="#63b8ff" points="99.52,-279.02 89.24,-281.57 98.86,-285.99 99.52,-279.02"/>
</a>
</g>
</g>
<!-- Node7 -->
<g id="Node000007" class="node">
<title>Node7</title>
<g id="a_Node000007"><a xlink:href="classcom_1_1teragrep_1_1pth__06_1_1jooq_1_1generated_1_1journaldb_1_1tables_1_1records_1_1HostRecord.html" target="_top" xlink:title="Host names.">
<polygon fill="white" stroke="#666666" points="476.5,-270 158.5,-270 158.5,-240 476.5,-240 476.5,-270"/>
<text text-anchor="start" x="166.5" y="-258" font-family="Helvetica,sans-Serif" font-size="10.00">com.teragrep.pth_06.jooq.generated.journaldb.tables.records.</text>
<text text-anchor="middle" x="317.5" y="-247" font-family="Helvetica,sans-Serif" font-size="10.00">HostRecord</text>
</a>
</g>
</g>
<!-- Node6&#45;&gt;Node7 -->
<g id="edge91_Node000006_Node000007" class="edge">
<title>Node6&#45;&gt;Node7</title>
<g id="a_edge91_Node000006_Node000007"><a xlink:title=" ">
<path fill="none" stroke="#63b8ff" d="M99.46,-275.47C115.96,-273.91 136.58,-271.97 158.48,-269.9"/>
<polygon fill="#63b8ff" stroke="#63b8ff" points="98.86,-272.01 89.24,-276.43 99.52,-278.98 98.86,-272.01"/>
</a>
</g>
</g>
<!-- Node8 -->
<g id="Node000008" class="node">
<title>Node8</title>
<g id="a_Node000008"><a xlink:href="classcom_1_1teragrep_1_1pth__06_1_1jooq_1_1generated_1_1journaldb_1_1tables_1_1records_1_1LogtagRecord.html" target="_top" xlink:title="Contains logtag values that are identified using the ID.">
<polygon fill="white" stroke="#666666" points="476.5,-222 158.5,-222 158.5,-192 476.5,-192 476.5,-222"/>
<text text-anchor="start" x="166.5" y="-210" font-family="Helvetica,sans-Serif" font-size="10.00">com.teragrep.pth_06.jooq.generated.journaldb.tables.records.</text>
<text text-anchor="middle" x="317.5" y="-199" font-family="Helvetica,sans-Serif" font-size="10.00">LogtagRecord</text>
</a>
</g>
</g>
<!-- Node6&#45;&gt;Node8 -->
<g id="edge92_Node000006_Node000008" class="edge">
<title>Node6&#45;&gt;Node8</title>
<g id="a_edge92_Node000006_Node000008"><a xlink:title=" ">
<path fill="none" stroke="#63b8ff" d="M86.13,-264.26C105.03,-253.4 132.32,-239.14 158,-231 168.88,-227.55 180.34,-224.59 191.91,-222.05"/>
<polygon fill="#63b8ff" stroke="#63b8ff" points="84.18,-261.35 77.33,-269.43 87.72,-267.39 84.18,-261.35"/>
</a>
</g>
</g>
<!-- Node9 -->
<g id="Node000009" class="node">
<title>Node9</title>
<g id="a_Node000009"><a xlink:href="classcom_1_1teragrep_1_1pth__06_1_1jooq_1_1generated_1_1streamdb_1_1tables_1_1records_1_1LogGroupRecord.html" target="_top" xlink:title="This class is generated by jOOQ.">
<polygon fill="white" stroke="#666666" points="477,-366 158,-366 158,-336 477,-336 477,-366"/>
<text text-anchor="start" x="166" y="-354" font-family="Helvetica,sans-Serif" font-size="10.00">com.teragrep.pth_06.jooq.generated.streamdb.tables.records.</text>
<text text-anchor="middle" x="317.5" y="-343" font-family="Helvetica,sans-Serif" font-size="10.00">LogGroupRecord</text>
</a>
</g>
</g>
<!-- Node6&#45;&gt;Node9 -->
<g id="edge93_Node000006_Node000009" class="edge">
<title>Node6&#45;&gt;Node9</title>
<g id="a_edge93_Node000006_Node000009"><a xlink:title=" ">
<path fill="none" stroke="#63b8ff" d="M86.13,-293.74C105.03,-304.6 132.32,-318.86 158,-327 168.88,-330.45 180.34,-333.41 191.91,-335.95"/>
<polygon fill="#63b8ff" stroke="#63b8ff" points="87.72,-290.61 77.33,-288.57 84.18,-296.65 87.72,-290.61"/>
</a>
</g>
</g>
<!-- Node11 -->
<g id="Node000011" class="node">
<title>Node11</title>
<g id="a_Node000011"><a xlink:title=" ">
<polygon fill="#e0e0e0" stroke="#999999" points="92,-168.5 30,-168.5 30,-149.5 92,-149.5 92,-168.5"/>
<text text-anchor="middle" x="61" y="-156.5" font-family="Helvetica,sans-Serif" font-size="10.00">Record20</text>
</a>
</g>
</g>
<!-- Node10 -->
<g id="Node000010" class="node">
<title>Node10</title>
<g id="a_Node000010"><a xlink:href="classcom_1_1teragrep_1_1pth__06_1_1jooq_1_1generated_1_1journaldb_1_1tables_1_1records_1_1LogfileRecord.html" target="_top" xlink:title="Contains information for log files that have been run through Log Archiver.">
<polygon fill="white" stroke="#666666" points="476.5,-174 158.5,-174 158.5,-144 476.5,-144 476.5,-174"/>
<text text-anchor="start" x="166.5" y="-162" font-family="Helvetica,sans-Serif" font-size="10.00">com.teragrep.pth_06.jooq.generated.journaldb.tables.records.</text>
<text text-anchor="middle" x="317.5" y="-151" font-family="Helvetica,sans-Serif" font-size="10.00">LogfileRecord</text>
</a>
</g>
</g>
<!-- Node11&#45;&gt;Node10 -->
<g id="edge94_Node000011_Node000010" class="edge">
<title>Node11&#45;&gt;Node10</title>
<g id="a_edge94_Node000011_Node000010"><a xlink:title=" ">
<path fill="none" stroke="#63b8ff" d="M102.61,-159C118.49,-159 137.8,-159 158.24,-159"/>
<polygon fill="#63b8ff" stroke="#63b8ff" points="102.19,-155.5 92.19,-159 102.19,-162.5 102.19,-155.5"/>
</a>
</g>
</g>
<!-- Node13 -->
<g id="Node000013" class="node">
<title>Node13</title>
<g id="a_Node000013"><a xlink:title=" ">
<polygon fill="#e0e0e0" stroke="#999999" points="89,-120.5 33,-120.5 33,-101.5 89,-101.5 89,-120.5"/>
<text text-anchor="middle" x="61" y="-108.5" font-family="Helvetica,sans-Serif" font-size="10.00">Record3</text>
</a>
</g>
</g>
<!-- Node12 -->
<g id="Node000012" class="node">
<title>Node12</title>
<g id="a_Node000012"><a xlink:href="classcom_1_1teragrep_1_1pth__06_1_1jooq_1_1generated_1_1streamdb_1_1tables_1_1records_1_1HostRecord.html" target="_top" xlink:title="This class is generated by jOOQ.">
<polygon fill="white" stroke="#666666" points="477,-126 158,-126 158,-96 477,-96 477,-126"/>
<text text-anchor="start" x="166" y="-114" font-family="Helvetica,sans-Serif" font-size="10.00">com.teragrep.pth_06.jooq.generated.streamdb.tables.records.</text>
<text text-anchor="middle" x="317.5" y="-103" font-family="Helvetica,sans-Serif" font-size="10.00">HostRecord</text>
</a>
</g>
</g>
<!-- Node13&#45;&gt;Node12 -->
<g id="edge95_Node000013_Node000012" class="edge">
<title>Node13&#45;&gt;Node12</title>
<g id="a_edge95_Node000013_Node000012"><a xlink:title=" ">
<path fill="none" stroke="#63b8ff" d="M99.38,-111C115.75,-111 136.18,-111 157.9,-111"/>
<polygon fill="#63b8ff" stroke="#63b8ff" points="99.24,-107.5 89.24,-111 99.24,-114.5 99.24,-107.5"/>
</a>
</g>
</g>
<!-- Node4 -->
<g id="Node000004" class="node">
<title>Node4</title>
<g id="a_Node000004"><a xlink:title=" ">
<polygon fill="#e0e0e0" stroke="#999999" points="89,-72.5 33,-72.5 33,-53.5 89,-53.5 89,-72.5"/>
<text text-anchor="middle" x="61" y="-60.5" font-family="Helvetica,sans-Serif" font-size="10.00">Record4</text>
</a>
</g>
</g>
<!-- Node3 -->
<g id="Node000003" class="node">
<title>Node3</title>
<g id="a_Node000003"><a xlink:href="classcom_1_1teragrep_1_1pth__06_1_1jooq_1_1generated_1_1bloomdb_1_1tables_1_1records_1_1FiltertypeRecord.html" target="_top" xlink:title="This class is generated by jOOQ.">
<polygon fill="white" stroke="#666666" points="475,-78 160,-78 160,-48 475,-48 475,-78"/>
<text text-anchor="start" x="168" y="-66" font-family="Helvetica,sans-Serif" font-size="10.00">com.teragrep.pth_06.jooq.generated.bloomdb.tables.records.</text>
<text text-anchor="middle" x="317.5" y="-55" font-family="Helvetica,sans-Serif" font-size="10.00">FiltertypeRecord</text>
</a>
</g>
</g>
<!-- Node4&#45;&gt;Node3 -->
<g id="edge96_Node000004_Node000003" class="edge">
<title>Node4&#45;&gt;Node3</title>
<g id="a_edge96_Node000004_Node000003"><a xlink:title=" ">
<path fill="none" stroke="#63b8ff" d="M99.66,-63C116.49,-63 137.57,-63 159.93,-63"/>
<polygon fill="#63b8ff" stroke="#63b8ff" points="99.24,-59.5 89.24,-63 99.24,-66.5 99.24,-59.5"/>
</a>
</g>
</g>
<!-- Node15 -->
<g id="Node000015" class="node">
<title>Node15</title>
<g id="a_Node000015"><a xlink:title=" ">
<polygon fill="#e0e0e0" stroke="#999999" points="89,-24.5 33,-24.5 33,-5.5 89,-5.5 89,-24.5"/>
<text text-anchor="middle" x="61" y="-12.5" font-family="Helvetica,sans-Serif" font-size="10.00">Record5</text>
</a>
</g>
</g>
<!-- Node14 -->
<g id="Node000014" class="node">
<title>Node14</title>
<g id="a_Node000014"><a xlink:href="classcom_1_1teragrep_1_1pth__06_1_1jooq_1_1generated_1_1streamdb_1_1tables_1_1records_1_1StreamRecord.html" target="_top" xlink:title="This class is generated by jOOQ.">
<polygon fill="white" stroke="#666666" points="477,-30 158,-30 158,0 477,0 477,-30"/>
<text text-anchor="start" x="166" y="-18" font-family="Helvetica,sans-Serif" font-size="10.00">com.teragrep.pth_06.jooq.generated.streamdb.tables.records.</text>
<text text-anchor="middle" x="317.5" y="-7" font-family="Helvetica,sans-Serif" font-size="10.00">StreamRecord</text>
</a>
</g>
</g>
<!-- Node15&#45;&gt;Node14 -->
<g id="edge97_Node000015_Node000014" class="edge">
<title>Node15&#45;&gt;Node14</title>
<g id="a_edge97_Node000015_Node000014"><a xlink:title=" ">
<path fill="none" stroke="#63b8ff" d="M99.38,-15C115.75,-15 136.18,-15 157.9,-15"/>
<polygon fill="#63b8ff" stroke="#63b8ff" points="99.24,-11.5 89.24,-15 99.24,-18.5 99.24,-11.5"/>
</a>
</g>
</g>
<!-- Node2 -->
<g id="Node000002" class="node">
<title>Node2</title>
<g id="a_Node000002"><a xlink:title=" ">
<polygon fill="#e0e0e0" stroke="#999999" points="122,-216.5 0,-216.5 0,-197.5 122,-197.5 122,-216.5"/>
<text text-anchor="middle" x="61" y="-204.5" font-family="Helvetica,sans-Serif" font-size="10.00">UpdatableRecordImpl</text>
</a>
</g>
</g>
<!-- Node2&#45;&gt;Node1 -->
<g id="edge100_Node000002_Node000001" class="edge">
<title>Node2&#45;&gt;Node1</title>
<g id="a_edge100_Node000002_Node000001"><a xlink:title=" ">
<path fill="none" stroke="#63b8ff" d="M84.85,-222.79C97.39,-232.51 112.32,-245.97 122,-261 150.76,-305.68 117.62,-340.46 158,-375 161.91,-378.35 166.09,-381.34 170.47,-384"/>
<polygon fill="#63b8ff" stroke="#63b8ff" points="86.75,-219.84 76.64,-216.68 82.57,-225.46 86.75,-219.84"/>
</a>
</g>
</g>
<!-- Node2&#45;&gt;Node5 -->
<g id="edge99_Node000002_Node000005" class="edge">
<title>Node2&#45;&gt;Node5</title>
<g id="a_edge99_Node000002_Node000005"><a xlink:title=" ">
<path fill="none" stroke="#63b8ff" d="M78.68,-223.67C96.64,-240.54 126.84,-265.94 158,-279 166.21,-282.44 174.85,-285.4 183.68,-287.94"/>
<polygon fill="#63b8ff" stroke="#63b8ff" points="80.96,-221.01 71.33,-216.59 76.11,-226.05 80.96,-221.01"/>
</a>
</g>
</g>
<!-- Node2&#45;&gt;Node7 -->
<g id="edge101_Node000002_Node000007" class="edge">
<title>Node2&#45;&gt;Node7</title>
<g id="a_edge101_Node000002_Node000007"><a xlink:title=" ">
<path fill="none" stroke="#63b8ff" d="M106.63,-219.09C122.75,-223.21 141.12,-227.62 158,-231 174.1,-234.22 191.2,-237.24 207.98,-239.96"/>
<polygon fill="#63b8ff" stroke="#63b8ff" points="107.49,-215.7 96.93,-216.58 105.73,-222.47 107.49,-215.7"/>
</a>
</g>
</g>
<!-- Node2&#45;&gt;Node8 -->
<g id="edge103_Node000002_Node000008" class="edge">
<title>Node2&#45;&gt;Node8</title>
<g id="a_edge103_Node000002_Node000008"><a xlink:title=" ">
<path fill="none" stroke="#63b8ff" d="M132.5,-207C140.73,-207 149.35,-207 158.18,-207"/>
<polygon fill="#63b8ff" stroke="#63b8ff" points="132.31,-203.5 122.31,-207 132.31,-210.5 132.31,-203.5"/>
</a>
</g>
</g>
<!-- Node2&#45;&gt;Node9 -->
<g id="edge105_Node000002_Node000009" class="edge">
<title>Node2&#45;&gt;Node9</title>
<g id="a_edge105_Node000002_Node000009"><a xlink:title=" ">
<path fill="none" stroke="#63b8ff" d="M83.09,-222.98C95.41,-233 110.71,-246.7 122,-261 142.71,-287.22 130.63,-307.83 158,-327 162.79,-330.35 167.86,-333.32 173.13,-335.93"/>
<polygon fill="#63b8ff" stroke="#63b8ff" points="85.13,-220.13 75.12,-216.66 80.78,-225.62 85.13,-220.13"/>
</a>
</g>
</g>
<!-- Node2&#45;&gt;Node10 -->
<g id="edge102_Node000002_Node000010" class="edge">
<title>Node2&#45;&gt;Node10</title>
<g id="a_edge102_Node000002_Node000010"><a xlink:title=" ">
<path fill="none" stroke="#63b8ff" d="M106.63,-194.91C122.75,-190.79 141.12,-186.38 158,-183 174.1,-179.78 191.2,-176.76 207.98,-174.04"/>
<polygon fill="#63b8ff" stroke="#63b8ff" points="105.73,-191.53 96.93,-197.42 107.49,-198.3 105.73,-191.53"/>
</a>
</g>
</g>
<!-- Node2&#45;&gt;Node12 -->
<g id="edge104_Node000002_Node000012" class="edge">
<title>Node2&#45;&gt;Node12</title>
<g id="a_edge104_Node000002_Node000012"><a xlink:title=" ">
<path fill="none" stroke="#63b8ff" d="M96.8,-193.25C105.46,-189.02 114.43,-183.9 122,-178 141.66,-162.68 136.27,-147.21 158,-135 164.07,-131.59 170.46,-128.62 177.06,-126.03"/>
<polygon fill="#63b8ff" stroke="#63b8ff" points="95.22,-190.13 87.6,-197.49 98.14,-196.49 95.22,-190.13"/>
</a>
</g>
</g>
<!-- Node2&#45;&gt;Node3 -->
<g id="edge98_Node000002_Node000003" class="edge">
<title>Node2&#45;&gt;Node3</title>
<g id="a_edge98_Node000002_Node000003"><a xlink:title=" ">
<path fill="none" stroke="#63b8ff" d="M101.95,-192.89C109.3,-188.93 116.41,-184.02 122,-178 151.6,-146.14 123.97,-114.08 158,-87 162.14,-83.71 166.53,-80.77 171.13,-78.16"/>
<polygon fill="#63b8ff" stroke="#63b8ff" points="100.09,-189.9 92.6,-197.4 103.13,-196.2 100.09,-189.9"/>
</a>
</g>
</g>
<!-- Node2&#45;&gt;Node14 -->
<g id="edge106_Node000002_Node000014" class="edge">
<title>Node2&#45;&gt;Node14</title>
<g id="a_edge106_Node000002_Node000014"><a xlink:title=" ">
<path fill="none" stroke="#63b8ff" d="M103.41,-192.93C110.4,-189.01 117,-184.1 122,-178 162.47,-128.66 110.61,-81.74 158,-39 161.62,-35.74 165.48,-32.81 169.54,-30.19"/>
<polygon fill="#63b8ff" stroke="#63b8ff" points="101.85,-189.8 94.45,-197.38 104.96,-196.07 101.85,-189.8"/>
</a>
</g>
</g>
</g>
</svg>
