<?xml version="1.0" encoding="UTF-8" standalone="no"?>
<!DOCTYPE svg PUBLIC "-//W3C//DTD SVG 1.1//EN"
 "http://www.w3.org/Graphics/SVG/1.1/DTD/svg11.dtd">
<!-- Generated by graphviz version 2.43.0 (0)
 -->
<!-- Title: com.teragrep.pth_06.planner.MockDBRow.uncompressedFilesize Pages: 1 -->
<svg width="690pt" height="210pt"
 viewBox="0.00 0.00 690.00 210.00" xmlns="http://www.w3.org/2000/svg" xmlns:xlink="http://www.w3.org/1999/xlink">
<g id="graph0" class="graph" transform="scale(1 1) rotate(0) translate(4 206)">
<title>com.teragrep.pth_06.planner.MockDBRow.uncompressedFilesize</title>
<!-- Node1 -->
<g id="Node000001" class="node">
<title>Node1</title>
<g id="a_Node000001"><a xlink:title=" ">
<polygon fill="#999999" stroke="#666666" points="682,-121.5 494,-121.5 494,-91.5 682,-91.5 682,-121.5"/>
<text text-anchor="start" x="502" y="-109.5" font-family="Helvetica,sans-Serif" font-size="10.00">com.teragrep.pth_06.planner.</text>
<text text-anchor="middle" x="588" y="-98.5" font-family="Helvetica,sans-Serif" font-size="10.00">MockDBRow.uncompressedFilesize</text>
</a>
</g>
</g>
<!-- Node2 -->
<g id="Node000002" class="node">
<title>Node2</title>
<g id="a_Node000002"><a xlink:href="classcom_1_1teragrep_1_1pth__06_1_1planner_1_1RecordableMockDBRow.html#a5d01e7e5a34afbe40f547160e6cfe0cb" target="_top" xlink:title=" ">
<polygon fill="white" stroke="#666666" points="435,-196.5 255,-196.5 255,-166.5 435,-166.5 435,-196.5"/>
<text text-anchor="start" x="263" y="-184.5" font-family="Helvetica,sans-Serif" font-size="10.00">com.teragrep.pth_06.planner.</text>
<text text-anchor="middle" x="345" y="-173.5" font-family="Helvetica,sans-Serif" font-size="10.00">RecordableMockDBRow.asRecord</text>
</a>
</g>
</g>
<!-- Node1&#45;&gt;Node2 -->
<g id="edge1_Node000001_Node000002" class="edge">
<title>Node1&#45;&gt;Node2</title>
<g id="a_edge1_Node000001_Node000002"><a xlink:title=" ">
<path fill="none" stroke="#63b8ff" d="M543.86,-125.63C519.09,-136.09 487.2,-148.67 458,-157.5 447.15,-160.78 435.58,-163.79 424.15,-166.49"/>
<polygon fill="#63b8ff" stroke="#63b8ff" points="545.5,-128.74 553.32,-121.59 542.75,-122.3 545.5,-128.74"/>
</a>
</g>
</g>
<!-- Node4 -->
<g id="Node000004" class="node">
<title>Node4</title>
<g id="a_Node000004"><a xlink:href="classcom_1_1teragrep_1_1pth__06_1_1planner_1_1MockDBNonSyslogRowImpl.html#a87a0075c19bcbe2553e0ff06c7502209" target="_top" xlink:title=" ">
<polygon fill="white" stroke="#666666" points="441.5,-148.5 248.5,-148.5 248.5,-118.5 441.5,-118.5 441.5,-148.5"/>
<text text-anchor="start" x="256.5" y="-136.5" font-family="Helvetica,sans-Serif" font-size="10.00">com.teragrep.pth_06.planner.</text>
<text text-anchor="middle" x="345" y="-125.5" font-family="Helvetica,sans-Serif" font-size="10.00">MockDBNonSyslogRowImpl.toString</text>
</a>
</g>
</g>
<!-- Node1&#45;&gt;Node4 -->
<g id="edge3_Node000001_Node000004" class="edge">
<title>Node1&#45;&gt;Node4</title>
<g id="a_edge3_Node000001_Node000004"><a xlink:title=" ">
<path fill="none" stroke="#63b8ff" d="M483.73,-118.07C469.79,-119.63 455.52,-121.23 441.72,-122.78"/>
<polygon fill="#63b8ff" stroke="#63b8ff" points="484.27,-121.53 493.82,-116.94 483.5,-114.57 484.27,-121.53"/>
</a>
</g>
</g>
<!-- Node5 -->
<g id="Node000005" class="node">
<title>Node5</title>
<g id="a_Node000005"><a xlink:href="classcom_1_1teragrep_1_1pth__06_1_1planner_1_1MockDBNonSyslogRowImpl.html#a8a76de73128b718af437bedd9317b230" target="_top" xlink:title=" ">
<polygon fill="white" stroke="#666666" points="458,-100 232,-100 232,-59 458,-59 458,-100"/>
<text text-anchor="start" x="240" y="-88" font-family="Helvetica,sans-Serif" font-size="10.00">com.teragrep.pth_06.planner.</text>
<text text-anchor="start" x="240" y="-77" font-family="Helvetica,sans-Serif" font-size="10.00">MockDBNonSyslogRowImpl.uncompressed</text>
<text text-anchor="middle" x="345" y="-66" font-family="Helvetica,sans-Serif" font-size="10.00">Filesize</text>
</a>
</g>
</g>
<!-- Node1&#45;&gt;Node5 -->
<g id="edge4_Node000001_Node000005" class="edge">
<title>Node1&#45;&gt;Node5</title>
<g id="a_edge4_Node000001_Node000005"><a xlink:title=" ">
<path fill="none" stroke="#63b8ff" d="M483.64,-94.92C475.23,-93.98 466.71,-93.02 458.24,-92.07"/>
<polygon fill="#63b8ff" stroke="#63b8ff" points="483.5,-98.43 493.82,-96.06 484.27,-91.47 483.5,-98.43"/>
</a>
</g>
</g>
<!-- Node6 -->
<g id="Node000006" class="node">
<title>Node6</title>
<g id="a_Node000006"><a xlink:href="classcom_1_1teragrep_1_1pth__06_1_1planner_1_1RecordableMockDBRow.html#a34b1513d8cffaa3b3790a5fd8b361334" target="_top" xlink:title=" ">
<polygon fill="white" stroke="#666666" points="448,-41 242,-41 242,0 448,0 448,-41"/>
<text text-anchor="start" x="250" y="-29" font-family="Helvetica,sans-Serif" font-size="10.00">com.teragrep.pth_06.planner.</text>
<text text-anchor="start" x="250" y="-18" font-family="Helvetica,sans-Serif" font-size="10.00">RecordableMockDBRow.uncompressed</text>
<text text-anchor="middle" x="345" y="-7" font-family="Helvetica,sans-Serif" font-size="10.00">Filesize</text>
</a>
</g>
</g>
<!-- Node1&#45;&gt;Node6 -->
<g id="edge5_Node000001_Node000006" class="edge">
<title>Node1&#45;&gt;Node6</title>
<g id="a_edge5_Node000001_Node000006"><a xlink:title=" ">
<path fill="none" stroke="#63b8ff" d="M546.76,-87.2C521.61,-75.6 488.36,-61.09 458,-50.5 448.5,-47.18 438.43,-44.02 428.39,-41.07"/>
<polygon fill="#63b8ff" stroke="#63b8ff" points="545.43,-90.44 555.97,-91.49 548.38,-84.09 545.43,-90.44"/>
</a>
</g>
</g>
<!-- Node3 -->
<g id="Node000003" class="node">
<title>Node3</title>
<g id="a_Node000003"><a xlink:href="classcom_1_1teragrep_1_1pth__06_1_1planner_1_1MockArchiveQueryProcessor.html#a50946d3d03b029b854379437ce092d6e" target="_top" xlink:title=" ">
<polygon fill="white" stroke="#666666" points="196,-202 0,-202 0,-161 196,-161 196,-202"/>
<text text-anchor="start" x="8" y="-190" font-family="Helvetica,sans-Serif" font-size="10.00">com.teragrep.pth_06.planner.</text>
<text text-anchor="start" x="8" y="-179" font-family="Helvetica,sans-Serif" font-size="10.00">MockArchiveQueryProcessor.process</text>
<text text-anchor="middle" x="98" y="-168" font-family="Helvetica,sans-Serif" font-size="10.00">BetweenUnixEpochHours</text>
</a>
</g>
</g>
<!-- Node2&#45;&gt;Node3 -->
<g id="edge2_Node000002_Node000003" class="edge">
<title>Node2&#45;&gt;Node3</title>
<g id="a_edge2_Node000002_Node000003"><a xlink:title=" ">
<path fill="none" stroke="#63b8ff" d="M244.5,-181.5C228.61,-181.5 212.19,-181.5 196.35,-181.5"/>
<polygon fill="#63b8ff" stroke="#63b8ff" points="244.86,-185 254.86,-181.5 244.86,-178 244.86,-185"/>
</a>
</g>
</g>
</g>
</svg>
