<?xml version="1.0" encoding="UTF-8" standalone="no"?>
<!DOCTYPE svg PUBLIC "-//W3C//DTD SVG 1.1//EN"
 "http://www.w3.org/Graphics/SVG/1.1/DTD/svg11.dtd">
<!-- Generated by graphviz version 2.43.0 (0)
 -->
<!-- Title: com.teragrep.pth_06.planner.MockDBRow.logtime Pages: 1 -->
<svg width="644pt" height="355pt"
 viewBox="0.00 0.00 644.00 354.50" xmlns="http://www.w3.org/2000/svg" xmlns:xlink="http://www.w3.org/1999/xlink">
<g id="graph0" class="graph" transform="scale(1 1) rotate(0) translate(4 350.5)">
<title>com.teragrep.pth_06.planner.MockDBRow.logtime</title>
<!-- Node1 -->
<g id="Node000001" class="node">
<title>Node1</title>
<g id="a_Node000001"><a xlink:title=" ">
<polygon fill="#999999" stroke="#666666" points="636,-174 476,-174 476,-144 636,-144 636,-174"/>
<text text-anchor="start" x="484" y="-162" font-family="Helvetica,sans-Serif" font-size="10.00">com.teragrep.pth_06.planner.</text>
<text text-anchor="middle" x="556" y="-151" font-family="Helvetica,sans-Serif" font-size="10.00">MockDBRow.logtime</text>
</a>
</g>
</g>
<!-- Node2 -->
<g id="Node000002" class="node">
<title>Node2</title>
<g id="a_Node000002"><a xlink:href="classcom_1_1teragrep_1_1pth__06_1_1planner_1_1RecordableMockDBRow.html#ac1964e4b4c2aa6126e03560b5f3d9224" target="_top" xlink:title=" ">
<polygon fill="white" stroke="#666666" points="426,-341 246,-341 246,-311 426,-311 426,-341"/>
<text text-anchor="start" x="254" y="-329" font-family="Helvetica,sans-Serif" font-size="10.00">com.teragrep.pth_06.planner.</text>
<text text-anchor="middle" x="336" y="-318" font-family="Helvetica,sans-Serif" font-size="10.00">RecordableMockDBRow.asRecord</text>
</a>
</g>
</g>
<!-- Node1&#45;&gt;Node2 -->
<g id="edge1_Node000001_Node000002" class="edge">
<title>Node1&#45;&gt;Node2</title>
<g id="a_edge1_Node000001_Node000002"><a xlink:title=" ">
<path fill="none" stroke="#63b8ff" d="M542.41,-183.11C524.26,-215.39 487.62,-272.06 440,-302 434.48,-305.47 428.51,-308.44 422.33,-310.98"/>
<polygon fill="#63b8ff" stroke="#63b8ff" points="545.5,-184.76 547.24,-174.31 539.36,-181.4 545.5,-184.76"/>
</a>
</g>
</g>
<!-- Node4 -->
<g id="Node000004" class="node">
<title>Node4</title>
<g id="a_Node000004"><a xlink:href="classcom_1_1teragrep_1_1pth__06_1_1planner_1_1MockArchiveQueryProcessor.html#a12c256d6ac85464e14dc686b8f062262" target="_top" xlink:title=" ">
<polygon fill="white" stroke="#666666" points="437,-292.5 235,-292.5 235,-251.5 437,-251.5 437,-292.5"/>
<text text-anchor="start" x="243" y="-280.5" font-family="Helvetica,sans-Serif" font-size="10.00">com.teragrep.pth_06.planner.</text>
<text text-anchor="start" x="243" y="-269.5" font-family="Helvetica,sans-Serif" font-size="10.00">MockArchiveQueryProcessor.getInitial</text>
<text text-anchor="middle" x="336" y="-258.5" font-family="Helvetica,sans-Serif" font-size="10.00">Offset</text>
</a>
</g>
</g>
<!-- Node1&#45;&gt;Node4 -->
<g id="edge3_Node000001_Node000004" class="edge">
<title>Node1&#45;&gt;Node4</title>
<g id="a_edge3_Node000001_Node000004"><a xlink:title=" ">
<path fill="none" stroke="#63b8ff" d="M530.73,-180.75C508.54,-199.62 474.06,-226.44 440,-243 433.65,-246.09 426.92,-248.9 420.05,-251.44"/>
<polygon fill="#63b8ff" stroke="#63b8ff" points="533.05,-183.37 538.33,-174.19 528.48,-178.07 533.05,-183.37"/>
</a>
</g>
</g>
<!-- Node5 -->
<g id="Node000005" class="node">
<title>Node5</title>
<g id="a_Node000005"><a xlink:href="classcom_1_1teragrep_1_1pth__06_1_1planner_1_1MockArchiveQueryProcessor.html#a6dae3696a6814f110950cec3542f554e" target="_top" xlink:title=" ">
<polygon fill="white" stroke="#666666" points="440,-233.5 232,-233.5 232,-192.5 440,-192.5 440,-233.5"/>
<text text-anchor="start" x="240" y="-221.5" font-family="Helvetica,sans-Serif" font-size="10.00">com.teragrep.pth_06.planner.</text>
<text text-anchor="start" x="240" y="-210.5" font-family="Helvetica,sans-Serif" font-size="10.00">MockArchiveQueryProcessor.increment</text>
<text text-anchor="middle" x="336" y="-199.5" font-family="Helvetica,sans-Serif" font-size="10.00">AndGetLatestOffset</text>
</a>
</g>
</g>
<!-- Node1&#45;&gt;Node5 -->
<g id="edge4_Node000001_Node000005" class="edge">
<title>Node1&#45;&gt;Node5</title>
<g id="a_edge4_Node000001_Node000005"><a xlink:title=" ">
<path fill="none" stroke="#63b8ff" d="M484.35,-176.5C463.76,-181.6 441.07,-187.22 419.8,-192.49"/>
<polygon fill="#63b8ff" stroke="#63b8ff" points="485.41,-179.84 494.27,-174.04 483.73,-173.05 485.41,-179.84"/>
</a>
</g>
</g>
<!-- Node6 -->
<g id="Node000006" class="node">
<title>Node6</title>
<g id="a_Node000006"><a xlink:href="classcom_1_1teragrep_1_1pth__06_1_1planner_1_1MockDBNonSyslogRowImpl.html#aa10bdfa680be146ebbe5fdc5322da556" target="_top" xlink:title=" ">
<polygon fill="white" stroke="#666666" points="432,-174 240,-174 240,-144 432,-144 432,-174"/>
<text text-anchor="start" x="248" y="-162" font-family="Helvetica,sans-Serif" font-size="10.00">com.teragrep.pth_06.planner.</text>
<text text-anchor="middle" x="336" y="-151" font-family="Helvetica,sans-Serif" font-size="10.00">MockDBNonSyslogRowImpl.logtime</text>
</a>
</g>
</g>
<!-- Node1&#45;&gt;Node6 -->
<g id="edge5_Node000001_Node000006" class="edge">
<title>Node1&#45;&gt;Node6</title>
<g id="a_edge5_Node000001_Node000006"><a xlink:title=" ">
<path fill="none" stroke="#63b8ff" d="M465.86,-159C454.72,-159 443.3,-159 432.08,-159"/>
<polygon fill="#63b8ff" stroke="#63b8ff" points="465.99,-162.5 475.99,-159 465.99,-155.5 465.99,-162.5"/>
</a>
</g>
</g>
<!-- Node7 -->
<g id="Node000007" class="node">
<title>Node7</title>
<g id="a_Node000007"><a xlink:href="classcom_1_1teragrep_1_1pth__06_1_1planner_1_1RecordableMockDBRow.html#a99cb801fd8aa979db79f53a17f8220b7" target="_top" xlink:title=" ">
<polygon fill="white" stroke="#666666" points="422.5,-126 249.5,-126 249.5,-96 422.5,-96 422.5,-126"/>
<text text-anchor="start" x="257.5" y="-114" font-family="Helvetica,sans-Serif" font-size="10.00">com.teragrep.pth_06.planner.</text>
<text text-anchor="middle" x="336" y="-103" font-family="Helvetica,sans-Serif" font-size="10.00">RecordableMockDBRow.logtime</text>
</a>
</g>
</g>
<!-- Node1&#45;&gt;Node7 -->
<g id="edge6_Node000001_Node000007" class="edge">
<title>Node1&#45;&gt;Node7</title>
<g id="a_edge6_Node000001_Node000007"><a xlink:title=" ">
<path fill="none" stroke="#63b8ff" d="M476.73,-141.77C453.31,-136.61 427.84,-131 405.14,-126"/>
<polygon fill="#63b8ff" stroke="#63b8ff" points="476.1,-145.21 486.62,-143.94 477.61,-138.38 476.1,-145.21"/>
</a>
</g>
</g>
<!-- Node8 -->
<g id="Node000008" class="node">
<title>Node8</title>
<g id="a_Node000008"><a xlink:href="classcom_1_1teragrep_1_1pth__06_1_1planner_1_1SliceableMockDBRowSourceImpl.html#a44116ba8a3c333d801a6491ebb8592f1" target="_top" xlink:title=" ">
<polygon fill="white" stroke="#666666" points="437.5,-78 234.5,-78 234.5,-48 437.5,-48 437.5,-78"/>
<text text-anchor="start" x="242.5" y="-66" font-family="Helvetica,sans-Serif" font-size="10.00">com.teragrep.pth_06.planner.</text>
<text text-anchor="middle" x="336" y="-55" font-family="Helvetica,sans-Serif" font-size="10.00">SliceableMockDBRowSourceImpl.slice</text>
</a>
</g>
</g>
<!-- Node1&#45;&gt;Node8 -->
<g id="edge7_Node000001_Node000008" class="edge">
<title>Node1&#45;&gt;Node8</title>
<g id="a_edge7_Node000001_Node000008"><a xlink:title=" ">
<path fill="none" stroke="#63b8ff" d="M526.98,-137.75C504.54,-121.67 471.68,-100.18 440,-87 431.78,-83.58 422.97,-80.59 414.1,-78"/>
<polygon fill="#63b8ff" stroke="#63b8ff" points="525.2,-140.78 535.34,-143.83 529.32,-135.12 525.2,-140.78"/>
</a>
</g>
</g>
<!-- Node9 -->
<g id="Node000009" class="node">
<title>Node9</title>
<g id="a_Node000009"><a xlink:href="classcom_1_1teragrep_1_1pth__06_1_1planner_1_1MockDBNonSyslogRowImpl.html#a87a0075c19bcbe2553e0ff06c7502209" target="_top" xlink:title=" ">
<polygon fill="white" stroke="#666666" points="432.5,-30 239.5,-30 239.5,0 432.5,0 432.5,-30"/>
<text text-anchor="start" x="247.5" y="-18" font-family="Helvetica,sans-Serif" font-size="10.00">com.teragrep.pth_06.planner.</text>
<text text-anchor="middle" x="336" y="-7" font-family="Helvetica,sans-Serif" font-size="10.00">MockDBNonSyslogRowImpl.toString</text>
</a>
</g>
</g>
<!-- Node1&#45;&gt;Node9 -->
<g id="edge8_Node000001_Node000009" class="edge">
<title>Node1&#45;&gt;Node9</title>
<g id="a_edge8_Node000001_Node000009"><a xlink:title=" ">
<path fill="none" stroke="#63b8ff" d="M539.09,-135.52C519.2,-108.04 482.53,-63.23 440,-39 433.94,-35.55 427.41,-32.59 420.68,-30.06"/>
<polygon fill="#63b8ff" stroke="#63b8ff" points="536.31,-137.65 544.95,-143.78 542.02,-133.6 536.31,-137.65"/>
</a>
</g>
</g>
<!-- Node3 -->
<g id="Node000003" class="node">
<title>Node3</title>
<g id="a_Node000003"><a xlink:href="classcom_1_1teragrep_1_1pth__06_1_1planner_1_1MockArchiveQueryProcessor.html#addd629e30bbc4610353d08d196003fbb" target="_top" xlink:title=" ">
<polygon fill="white" stroke="#666666" points="196,-346.5 0,-346.5 0,-305.5 196,-305.5 196,-346.5"/>
<text text-anchor="start" x="8" y="-334.5" font-family="Helvetica,sans-Serif" font-size="10.00">com.teragrep.pth_06.planner.</text>
<text text-anchor="start" x="8" y="-323.5" font-family="Helvetica,sans-Serif" font-size="10.00">MockArchiveQueryProcessor.process</text>
<text text-anchor="middle" x="98" y="-312.5" font-family="Helvetica,sans-Serif" font-size="10.00">BetweenUnixEpochHours</text>
</a>
</g>
</g>
<!-- Node2&#45;&gt;Node3 -->
<g id="edge2_Node000002_Node000003" class="edge">
<title>Node2&#45;&gt;Node3</title>
<g id="a_edge2_Node000002_Node000003"><a xlink:title=" ">
<path fill="none" stroke="#63b8ff" d="M235.45,-326C222.46,-326 209.18,-326 196.24,-326"/>
<polygon fill="#63b8ff" stroke="#63b8ff" points="235.78,-329.5 245.78,-326 235.78,-322.5 235.78,-329.5"/>
</a>
</g>
</g>
</g>
</svg>
