<?xml version="1.0" encoding="UTF-8" standalone="no"?>
<!DOCTYPE svg PUBLIC "-//W3C//DTD SVG 1.1//EN"
 "http://www.w3.org/Graphics/SVG/1.1/DTD/svg11.dtd">
<!-- Generated by graphviz version 2.43.0 (0)
 -->
<!-- Title: com.teragrep.pth_06.planner.MockDBRow.logtime Pages: 1 -->
<svg width="644pt" height="259pt"
 viewBox="0.00 0.00 644.00 258.50" xmlns="http://www.w3.org/2000/svg" xmlns:xlink="http://www.w3.org/1999/xlink">
<g id="graph0" class="graph" transform="scale(1 1) rotate(0) translate(4 254.5)">
<title>com.teragrep.pth_06.planner.MockDBRow.logtime</title>
<!-- Node1 -->
<g id="Node000001" class="node">
<title>Node1</title>
<g id="a_Node000001"><a xlink:title=" ">
<polygon fill="#999999" stroke="#666666" points="636,-132 476,-132 476,-102 636,-102 636,-132"/>
<text text-anchor="start" x="484" y="-120" font-family="Helvetica,sans-Serif" font-size="10.00">com.teragrep.pth_06.planner.</text>
<text text-anchor="middle" x="556" y="-109" font-family="Helvetica,sans-Serif" font-size="10.00">MockDBRow.logtime</text>
</a>
</g>
</g>
<!-- Node2 -->
<g id="Node000002" class="node">
<title>Node2</title>
<g id="a_Node000002"><a xlink:href="classcom_1_1teragrep_1_1pth__06_1_1planner_1_1RecordableMockDBRow.html#a5d01e7e5a34afbe40f547160e6cfe0cb" target="_top" xlink:title=" ">
<polygon fill="white" stroke="#666666" points="426,-245 246,-245 246,-215 426,-215 426,-245"/>
<text text-anchor="start" x="254" y="-233" font-family="Helvetica,sans-Serif" font-size="10.00">com.teragrep.pth_06.planner.</text>
<text text-anchor="middle" x="336" y="-222" font-family="Helvetica,sans-Serif" font-size="10.00">RecordableMockDBRow.asRecord</text>
</a>
</g>
</g>
<!-- Node1&#45;&gt;Node2 -->
<g id="edge1_Node000001_Node000002" class="edge">
<title>Node1&#45;&gt;Node2</title>
<g id="a_edge1_Node000001_Node000002"><a xlink:title=" ">
<path fill="none" stroke="#63b8ff" d="M532.66,-139.1C510.83,-159.46 475.74,-189.01 440,-206 432.79,-209.43 425.05,-212.39 417.18,-214.93"/>
<polygon fill="#63b8ff" stroke="#63b8ff" points="535.24,-141.48 540.08,-132.05 530.42,-136.4 535.24,-141.48"/>
</a>
</g>
</g>
<!-- Node4 -->
<g id="Node000004" class="node">
<title>Node4</title>
<g id="a_Node000004"><a xlink:href="classcom_1_1teragrep_1_1pth__06_1_1planner_1_1MockArchiveQueryProcessor.html#a12c256d6ac85464e14dc686b8f062262" target="_top" xlink:title=" ">
<polygon fill="white" stroke="#666666" points="437,-196.5 235,-196.5 235,-155.5 437,-155.5 437,-196.5"/>
<text text-anchor="start" x="243" y="-184.5" font-family="Helvetica,sans-Serif" font-size="10.00">com.teragrep.pth_06.planner.</text>
<text text-anchor="start" x="243" y="-173.5" font-family="Helvetica,sans-Serif" font-size="10.00">MockArchiveQueryProcessor.getInitial</text>
<text text-anchor="middle" x="336" y="-162.5" font-family="Helvetica,sans-Serif" font-size="10.00">Offset</text>
</a>
</g>
</g>
<!-- Node1&#45;&gt;Node4 -->
<g id="edge3_Node000001_Node000004" class="edge">
<title>Node1&#45;&gt;Node4</title>
<g id="a_edge3_Node000001_Node000004"><a xlink:title=" ">
<path fill="none" stroke="#63b8ff" d="M489.67,-134.68C465.55,-141.21 438.02,-148.66 413.04,-155.42"/>
<polygon fill="#63b8ff" stroke="#63b8ff" points="490.69,-138.03 499.43,-132.04 488.86,-131.27 490.69,-138.03"/>
</a>
</g>
</g>
<!-- Node5 -->
<g id="Node000005" class="node">
<title>Node5</title>
<g id="a_Node000005"><a xlink:href="classcom_1_1teragrep_1_1pth__06_1_1planner_1_1MockArchiveQueryProcessor.html#a6dae3696a6814f110950cec3542f554e" target="_top" xlink:title=" ">
<polygon fill="white" stroke="#666666" points="440,-137.5 232,-137.5 232,-96.5 440,-96.5 440,-137.5"/>
<text text-anchor="start" x="240" y="-125.5" font-family="Helvetica,sans-Serif" font-size="10.00">com.teragrep.pth_06.planner.</text>
<text text-anchor="start" x="240" y="-114.5" font-family="Helvetica,sans-Serif" font-size="10.00">MockArchiveQueryProcessor.increment</text>
<text text-anchor="middle" x="336" y="-103.5" font-family="Helvetica,sans-Serif" font-size="10.00">AndGetLatestOffset</text>
</a>
</g>
</g>
<!-- Node1&#45;&gt;Node5 -->
<g id="edge4_Node000001_Node000005" class="edge">
<title>Node1&#45;&gt;Node5</title>
<g id="a_edge4_Node000001_Node000005"><a xlink:title=" ">
<path fill="none" stroke="#63b8ff" d="M465.84,-117C457.45,-117 448.89,-117 440.37,-117"/>
<polygon fill="#63b8ff" stroke="#63b8ff" points="465.99,-120.5 475.99,-117 465.99,-113.5 465.99,-120.5"/>
</a>
</g>
</g>
<!-- Node6 -->
<g id="Node000006" class="node">
<title>Node6</title>
<g id="a_Node000006"><a xlink:href="classcom_1_1teragrep_1_1pth__06_1_1planner_1_1RecordableMockDBRow.html#a99cb801fd8aa979db79f53a17f8220b7" target="_top" xlink:title=" ">
<polygon fill="white" stroke="#666666" points="422.5,-78 249.5,-78 249.5,-48 422.5,-48 422.5,-78"/>
<text text-anchor="start" x="257.5" y="-66" font-family="Helvetica,sans-Serif" font-size="10.00">com.teragrep.pth_06.planner.</text>
<text text-anchor="middle" x="336" y="-55" font-family="Helvetica,sans-Serif" font-size="10.00">RecordableMockDBRow.logtime</text>
</a>
</g>
</g>
<!-- Node1&#45;&gt;Node6 -->
<g id="edge5_Node000001_Node000006" class="edge">
<title>Node1&#45;&gt;Node6</title>
<g id="a_edge5_Node000001_Node000006"><a xlink:title=" ">
<path fill="none" stroke="#63b8ff" d="M486.09,-99.52C470.92,-95.7 454.92,-91.69 440,-88 426.87,-84.75 412.79,-81.31 399.39,-78.05"/>
<polygon fill="#63b8ff" stroke="#63b8ff" points="485.38,-102.95 495.93,-102 487.09,-96.16 485.38,-102.95"/>
</a>
</g>
</g>
<!-- Node7 -->
<g id="Node000007" class="node">
<title>Node7</title>
<g id="a_Node000007"><a xlink:href="classcom_1_1teragrep_1_1pth__06_1_1planner_1_1SliceableMockDBRowSourceImpl.html#a44116ba8a3c333d801a6491ebb8592f1" target="_top" xlink:title=" ">
<polygon fill="white" stroke="#666666" points="437.5,-30 234.5,-30 234.5,0 437.5,0 437.5,-30"/>
<text text-anchor="start" x="242.5" y="-18" font-family="Helvetica,sans-Serif" font-size="10.00">com.teragrep.pth_06.planner.</text>
<text text-anchor="middle" x="336" y="-7" font-family="Helvetica,sans-Serif" font-size="10.00">SliceableMockDBRowSourceImpl.slice</text>
</a>
</g>
</g>
<!-- Node1&#45;&gt;Node7 -->
<g id="edge6_Node000001_Node000007" class="edge">
<title>Node1&#45;&gt;Node7</title>
<g id="a_edge6_Node000001_Node000007"><a xlink:title=" ">
<path fill="none" stroke="#63b8ff" d="M529.17,-95.37C506.87,-77.74 473.12,-53.49 440,-39 432.18,-35.58 423.8,-32.61 415.32,-30.04"/>
<polygon fill="#63b8ff" stroke="#63b8ff" points="527.14,-98.22 537.12,-101.76 531.52,-92.77 527.14,-98.22"/>
</a>
</g>
</g>
<!-- Node3 -->
<g id="Node000003" class="node">
<title>Node3</title>
<g id="a_Node000003"><a xlink:href="classcom_1_1teragrep_1_1pth__06_1_1planner_1_1MockArchiveQueryProcessor.html#a50946d3d03b029b854379437ce092d6e" target="_top" xlink:title=" ">
<polygon fill="white" stroke="#666666" points="196,-250.5 0,-250.5 0,-209.5 196,-209.5 196,-250.5"/>
<text text-anchor="start" x="8" y="-238.5" font-family="Helvetica,sans-Serif" font-size="10.00">com.teragrep.pth_06.planner.</text>
<text text-anchor="start" x="8" y="-227.5" font-family="Helvetica,sans-Serif" font-size="10.00">MockArchiveQueryProcessor.process</text>
<text text-anchor="middle" x="98" y="-216.5" font-family="Helvetica,sans-Serif" font-size="10.00">BetweenUnixEpochHours</text>
</a>
</g>
</g>
<!-- Node2&#45;&gt;Node3 -->
<g id="edge2_Node000002_Node000003" class="edge">
<title>Node2&#45;&gt;Node3</title>
<g id="a_edge2_Node000002_Node000003"><a xlink:title=" ">
<path fill="none" stroke="#63b8ff" d="M235.45,-230C222.46,-230 209.18,-230 196.24,-230"/>
<polygon fill="#63b8ff" stroke="#63b8ff" points="235.78,-233.5 245.78,-230 235.78,-226.5 235.78,-233.5"/>
</a>
</g>
</g>
</g>
</svg>
