<?xml version="1.0" encoding="UTF-8" standalone="no"?>
<!DOCTYPE svg PUBLIC "-//W3C//DTD SVG 1.1//EN"
 "http://www.w3.org/Graphics/SVG/1.1/DTD/svg11.dtd">
<!-- Generated by graphviz version 2.43.0 (0)
 -->
<!-- Title: com.teragrep.pth_06.planner.MockDBRow.logtag Pages: 1 -->
<svg width="629pt" height="188pt"
 viewBox="0.00 0.00 629.00 187.50" xmlns="http://www.w3.org/2000/svg" xmlns:xlink="http://www.w3.org/1999/xlink">
<g id="graph0" class="graph" transform="scale(1 1) rotate(0) translate(4 183.5)">
<title>com.teragrep.pth_06.planner.MockDBRow.logtag</title>
<!-- Node1 -->
<g id="Node000001" class="node">
<title>Node1</title>
<g id="a_Node000001"><a xlink:title=" ">
<polygon fill="#999999" stroke="#666666" points="621,-102 461,-102 461,-72 621,-72 621,-102"/>
<text text-anchor="start" x="469" y="-90" font-family="Helvetica,sans-Serif" font-size="10.00">com.teragrep.pth_06.planner.</text>
<text text-anchor="middle" x="541" y="-79" font-family="Helvetica,sans-Serif" font-size="10.00">MockDBRow.logtag</text>
</a>
</g>
</g>
<!-- Node2 -->
<g id="Node000002" class="node">
<title>Node2</title>
<g id="a_Node000002"><a xlink:href="classcom_1_1teragrep_1_1pth__06_1_1planner_1_1RecordableMockDBRow.html#a5d01e7e5a34afbe40f547160e6cfe0cb" target="_top" xlink:title=" ">
<polygon fill="white" stroke="#666666" points="418.5,-174 238.5,-174 238.5,-144 418.5,-144 418.5,-174"/>
<text text-anchor="start" x="246.5" y="-162" font-family="Helvetica,sans-Serif" font-size="10.00">com.teragrep.pth_06.planner.</text>
<text text-anchor="middle" x="328.5" y="-151" font-family="Helvetica,sans-Serif" font-size="10.00">RecordableMockDBRow.asRecord</text>
</a>
</g>
</g>
<!-- Node1&#45;&gt;Node2 -->
<g id="edge1_Node000001_Node000002" class="edge">
<title>Node1&#45;&gt;Node2</title>
<g id="a_edge1_Node000001_Node000002"><a xlink:title=" ">
<path fill="none" stroke="#63b8ff" d="M498.09,-106.27C476.54,-115.72 449.68,-126.8 425,-135 415.35,-138.21 405.02,-141.22 394.86,-143.96"/>
<polygon fill="#63b8ff" stroke="#63b8ff" points="499.56,-109.44 507.28,-102.19 496.72,-103.04 499.56,-109.44"/>
</a>
</g>
</g>
<!-- Node4 -->
<g id="Node000004" class="node">
<title>Node4</title>
<g id="a_Node000004"><a xlink:href="classcom_1_1teragrep_1_1pth__06_1_1planner_1_1MockDBNonSyslogRowImpl.html#a185b85616027c6390a69992bfcbffbe1" target="_top" xlink:title=" ">
<polygon fill="white" stroke="#666666" points="421,-126 236,-126 236,-96 421,-96 421,-126"/>
<text text-anchor="start" x="244" y="-114" font-family="Helvetica,sans-Serif" font-size="10.00">com.teragrep.pth_06.planner.</text>
<text text-anchor="middle" x="328.5" y="-103" font-family="Helvetica,sans-Serif" font-size="10.00">MockDBNonSyslogRowImpl.logtag</text>
</a>
</g>
</g>
<!-- Node1&#45;&gt;Node4 -->
<g id="edge3_Node000001_Node000004" class="edge">
<title>Node1&#45;&gt;Node4</title>
<g id="a_edge3_Node000001_Node000004"><a xlink:title=" ">
<path fill="none" stroke="#63b8ff" d="M450.62,-97.19C440.84,-98.31 430.88,-99.44 421.09,-100.56"/>
<polygon fill="#63b8ff" stroke="#63b8ff" points="451.18,-100.65 460.72,-96.04 450.39,-93.69 451.18,-100.65"/>
</a>
</g>
</g>
<!-- Node5 -->
<g id="Node000005" class="node">
<title>Node5</title>
<g id="a_Node000005"><a xlink:href="classcom_1_1teragrep_1_1pth__06_1_1planner_1_1RecordableMockDBRow.html#af2b8ab45253a23a3d968eb7f4b72962a" target="_top" xlink:title=" ">
<polygon fill="white" stroke="#666666" points="411.5,-78 245.5,-78 245.5,-48 411.5,-48 411.5,-78"/>
<text text-anchor="start" x="253.5" y="-66" font-family="Helvetica,sans-Serif" font-size="10.00">com.teragrep.pth_06.planner.</text>
<text text-anchor="middle" x="328.5" y="-55" font-family="Helvetica,sans-Serif" font-size="10.00">RecordableMockDBRow.logtag</text>
</a>
</g>
</g>
<!-- Node1&#45;&gt;Node5 -->
<g id="edge4_Node000001_Node000005" class="edge">
<title>Node1&#45;&gt;Node5</title>
<g id="a_edge4_Node000001_Node000005"><a xlink:title=" ">
<path fill="none" stroke="#63b8ff" d="M450.44,-76.79C437.52,-75.32 424.28,-73.81 411.51,-72.35"/>
<polygon fill="#63b8ff" stroke="#63b8ff" points="450.39,-80.31 460.72,-77.96 451.18,-73.35 450.39,-80.31"/>
</a>
</g>
</g>
<!-- Node6 -->
<g id="Node000006" class="node">
<title>Node6</title>
<g id="a_Node000006"><a xlink:href="classcom_1_1teragrep_1_1pth__06_1_1planner_1_1MockDBNonSyslogRowImpl.html#a87a0075c19bcbe2553e0ff06c7502209" target="_top" xlink:title=" ">
<polygon fill="white" stroke="#666666" points="425,-30 232,-30 232,0 425,0 425,-30"/>
<text text-anchor="start" x="240" y="-18" font-family="Helvetica,sans-Serif" font-size="10.00">com.teragrep.pth_06.planner.</text>
<text text-anchor="middle" x="328.5" y="-7" font-family="Helvetica,sans-Serif" font-size="10.00">MockDBNonSyslogRowImpl.toString</text>
</a>
</g>
</g>
<!-- Node1&#45;&gt;Node6 -->
<g id="edge5_Node000001_Node000006" class="edge">
<title>Node1&#45;&gt;Node6</title>
<g id="a_edge5_Node000001_Node000006"><a xlink:title=" ">
<path fill="none" stroke="#63b8ff" d="M498.09,-67.73C476.54,-58.28 449.68,-47.2 425,-39 415.35,-35.79 405.02,-32.78 394.86,-30.04"/>
<polygon fill="#63b8ff" stroke="#63b8ff" points="496.72,-70.96 507.28,-71.81 499.56,-64.56 496.72,-70.96"/>
</a>
</g>
</g>
<!-- Node3 -->
<g id="Node000003" class="node">
<title>Node3</title>
<g id="a_Node000003"><a xlink:href="classcom_1_1teragrep_1_1pth__06_1_1planner_1_1MockArchiveQueryProcessor.html#a50946d3d03b029b854379437ce092d6e" target="_top" xlink:title=" ">
<polygon fill="white" stroke="#666666" points="196,-179.5 0,-179.5 0,-138.5 196,-138.5 196,-179.5"/>
<text text-anchor="start" x="8" y="-167.5" font-family="Helvetica,sans-Serif" font-size="10.00">com.teragrep.pth_06.planner.</text>
<text text-anchor="start" x="8" y="-156.5" font-family="Helvetica,sans-Serif" font-size="10.00">MockArchiveQueryProcessor.process</text>
<text text-anchor="middle" x="98" y="-145.5" font-family="Helvetica,sans-Serif" font-size="10.00">BetweenUnixEpochHours</text>
</a>
</g>
</g>
<!-- Node2&#45;&gt;Node3 -->
<g id="edge2_Node000002_Node000003" class="edge">
<title>Node2&#45;&gt;Node3</title>
<g id="a_edge2_Node000002_Node000003"><a xlink:title=" ">
<path fill="none" stroke="#63b8ff" d="M228.09,-159C217.51,-159 206.76,-159 196.2,-159"/>
<polygon fill="#63b8ff" stroke="#63b8ff" points="228.17,-162.5 238.17,-159 228.17,-155.5 228.17,-162.5"/>
</a>
</g>
</g>
</g>
</svg>
