<?xml version="1.0" encoding="UTF-8" standalone="no"?>
<!DOCTYPE svg PUBLIC "-//W3C//DTD SVG 1.1//EN"
 "http://www.w3.org/Graphics/SVG/1.1/DTD/svg11.dtd">
<!-- Generated by graphviz version 2.43.0 (0)
 -->
<!-- Title: com.teragrep.pth_06.planner.walker.conditions.QueryCondition Pages: 1 -->
<svg width="540pt" height="614pt"
 viewBox="0.00 0.00 540.00 614.00" xmlns="http://www.w3.org/2000/svg" xmlns:xlink="http://www.w3.org/1999/xlink">
<g id="graph0" class="graph" transform="scale(1 1) rotate(0) translate(4 610)">
<title>com.teragrep.pth_06.planner.walker.conditions.QueryCondition</title>
<!-- Node1 -->
<g id="Node000001" class="node">
<title>Node1</title>
<g id="a_Node000001"><a xlink:title=" ">
<polygon fill="#999999" stroke="#666666" points="248,-318 0,-318 0,-288 248,-288 248,-318"/>
<text text-anchor="start" x="8" y="-306" font-family="Helvetica,sans-Serif" font-size="10.00">com.teragrep.pth_06.planner.walker.conditions.</text>
<text text-anchor="middle" x="124" y="-295" font-family="Helvetica,sans-Serif" font-size="10.00">QueryCondition</text>
</a>
</g>
</g>
<!-- Node2 -->
<g id="Node000002" class="node">
<title>Node2</title>
<g id="a_Node000002"><a xlink:href="classcom_1_1teragrep_1_1pth__06_1_1planner_1_1walker_1_1conditions_1_1CategoryTableCondition.html" target="_top" xlink:title="Row condition that compares the compareTo tables bloom filter bytes against category table.">
<polygon fill="white" stroke="#666666" points="532,-606 284,-606 284,-576 532,-576 532,-606"/>
<text text-anchor="start" x="292" y="-594" font-family="Helvetica,sans-Serif" font-size="10.00">com.teragrep.pth_06.planner.walker.conditions.</text>
<text text-anchor="middle" x="408" y="-583" font-family="Helvetica,sans-Serif" font-size="10.00">CategoryTableCondition</text>
</a>
</g>
</g>
<!-- Node1&#45;&gt;Node2 -->
<g id="edge1_Node000001_Node000002" class="edge">
<title>Node1&#45;&gt;Node2</title>
<g id="a_edge1_Node000001_Node000002"><a xlink:title=" ">
<path fill="none" stroke="#63b8ff" d="M132.35,-327.93C149.42,-381.19 197.09,-506.16 284,-567 288.9,-570.43 294.17,-573.4 299.67,-575.97"/>
<polygon fill="#63b8ff" stroke="#63b8ff" points="135.66,-326.78 129.34,-318.28 128.97,-328.86 135.66,-326.78"/>
</a>
</g>
</g>
<!-- Node3 -->
<g id="Node000003" class="node">
<title>Node3</title>
<g id="a_Node000003"><a xlink:href="classcom_1_1teragrep_1_1pth__06_1_1planner_1_1walker_1_1conditions_1_1EarliestCondition.html" target="_top" xlink:title=" ">
<polygon fill="white" stroke="#666666" points="532,-558 284,-558 284,-528 532,-528 532,-558"/>
<text text-anchor="start" x="292" y="-546" font-family="Helvetica,sans-Serif" font-size="10.00">com.teragrep.pth_06.planner.walker.conditions.</text>
<text text-anchor="middle" x="408" y="-535" font-family="Helvetica,sans-Serif" font-size="10.00">EarliestCondition</text>
</a>
</g>
</g>
<!-- Node1&#45;&gt;Node3 -->
<g id="edge2_Node000001_Node000003" class="edge">
<title>Node1&#45;&gt;Node3</title>
<g id="a_edge2_Node000001_Node000003"><a xlink:title=" ">
<path fill="none" stroke="#63b8ff" d="M135.4,-327.18C156.34,-372.72 208.13,-470.96 284,-519 289.42,-522.43 295.23,-525.39 301.26,-527.95"/>
<polygon fill="#63b8ff" stroke="#63b8ff" points="138.59,-325.73 131.3,-318.04 132.2,-328.6 138.59,-325.73"/>
</a>
</g>
</g>
<!-- Node4 -->
<g id="Node000004" class="node">
<title>Node4</title>
<g id="a_Node000004"><a xlink:href="classcom_1_1teragrep_1_1pth__06_1_1planner_1_1walker_1_1conditions_1_1ElementCondition.html" target="_top" xlink:title="Creates a query condition from provided dom element.">
<polygon fill="white" stroke="#666666" points="532,-510 284,-510 284,-480 532,-480 532,-510"/>
<text text-anchor="start" x="292" y="-498" font-family="Helvetica,sans-Serif" font-size="10.00">com.teragrep.pth_06.planner.walker.conditions.</text>
<text text-anchor="middle" x="408" y="-487" font-family="Helvetica,sans-Serif" font-size="10.00">ElementCondition</text>
</a>
</g>
</g>
<!-- Node1&#45;&gt;Node4 -->
<g id="edge3_Node000001_Node000004" class="edge">
<title>Node1&#45;&gt;Node4</title>
<g id="a_edge3_Node000001_Node000004"><a xlink:title=" ">
<path fill="none" stroke="#63b8ff" d="M140.14,-326.72C165.22,-363.89 219.12,-435.32 284,-471 290.29,-474.46 297,-477.43 303.93,-479.97"/>
<polygon fill="#63b8ff" stroke="#63b8ff" points="142.83,-324.45 134.39,-318.04 137,-328.31 142.83,-324.45"/>
</a>
</g>
</g>
<!-- Node5 -->
<g id="Node000005" class="node">
<title>Node5</title>
<g id="a_Node000005"><a xlink:href="classcom_1_1teragrep_1_1pth__06_1_1planner_1_1walker_1_1conditions_1_1HostCondition.html" target="_top" xlink:title=" ">
<polygon fill="white" stroke="#666666" points="532,-462 284,-462 284,-432 532,-432 532,-462"/>
<text text-anchor="start" x="292" y="-450" font-family="Helvetica,sans-Serif" font-size="10.00">com.teragrep.pth_06.planner.walker.conditions.</text>
<text text-anchor="middle" x="408" y="-439" font-family="Helvetica,sans-Serif" font-size="10.00">HostCondition</text>
</a>
</g>
</g>
<!-- Node1&#45;&gt;Node5 -->
<g id="edge4_Node000001_Node000005" class="edge">
<title>Node1&#45;&gt;Node5</title>
<g id="a_edge4_Node000001_Node000005"><a xlink:title=" ">
<path fill="none" stroke="#63b8ff" d="M147.66,-325.53C176.67,-353.01 229.73,-398.79 284,-423 291.75,-426.46 299.99,-429.42 308.4,-431.95"/>
<polygon fill="#63b8ff" stroke="#63b8ff" points="149.76,-322.7 140.13,-318.3 144.91,-327.75 149.76,-322.7"/>
</a>
</g>
</g>
<!-- Node6 -->
<g id="Node000006" class="node">
<title>Node6</title>
<g id="a_Node000006"><a xlink:href="classcom_1_1teragrep_1_1pth__06_1_1planner_1_1walker_1_1conditions_1_1IndexCondition.html" target="_top" xlink:title=" ">
<polygon fill="white" stroke="#666666" points="532,-414 284,-414 284,-384 532,-384 532,-414"/>
<text text-anchor="start" x="292" y="-402" font-family="Helvetica,sans-Serif" font-size="10.00">com.teragrep.pth_06.planner.walker.conditions.</text>
<text text-anchor="middle" x="408" y="-391" font-family="Helvetica,sans-Serif" font-size="10.00">IndexCondition</text>
</a>
</g>
</g>
<!-- Node1&#45;&gt;Node6 -->
<g id="edge5_Node000001_Node000006" class="edge">
<title>Node1&#45;&gt;Node6</title>
<g id="a_edge5_Node000001_Node000006"><a xlink:title=" ">
<path fill="none" stroke="#63b8ff" d="M161.82,-322.64C193.44,-338.78 240.65,-361.16 284,-375 294.57,-378.37 305.81,-381.36 317.04,-383.97"/>
<polygon fill="#63b8ff" stroke="#63b8ff" points="163.43,-319.53 152.93,-318.06 160.22,-325.76 163.43,-319.53"/>
</a>
</g>
</g>
<!-- Node7 -->
<g id="Node000007" class="node">
<title>Node7</title>
<g id="a_Node000007"><a xlink:href="classcom_1_1teragrep_1_1pth__06_1_1planner_1_1walker_1_1conditions_1_1IndexStatementCondition.html" target="_top" xlink:title=" ">
<polygon fill="white" stroke="#666666" points="532,-366 284,-366 284,-336 532,-336 532,-366"/>
<text text-anchor="start" x="292" y="-354" font-family="Helvetica,sans-Serif" font-size="10.00">com.teragrep.pth_06.planner.walker.conditions.</text>
<text text-anchor="middle" x="408" y="-343" font-family="Helvetica,sans-Serif" font-size="10.00">IndexStatementCondition</text>
</a>
</g>
</g>
<!-- Node1&#45;&gt;Node7 -->
<g id="edge6_Node000001_Node000007" class="edge">
<title>Node1&#45;&gt;Node7</title>
<g id="a_edge6_Node000001_Node000007"><a xlink:title=" ">
<path fill="none" stroke="#63b8ff" d="M223.42,-319.75C254.47,-325.04 288.57,-330.84 318.86,-336"/>
<polygon fill="#63b8ff" stroke="#63b8ff" points="223.9,-316.28 213.45,-318.06 222.72,-323.18 223.9,-316.28"/>
</a>
</g>
</g>
<!-- Node8 -->
<g id="Node000008" class="node">
<title>Node8</title>
<g id="a_Node000008"><a xlink:href="classcom_1_1teragrep_1_1pth__06_1_1planner_1_1walker_1_1conditions_1_1LatestCondition.html" target="_top" xlink:title=" ">
<polygon fill="white" stroke="#666666" points="532,-318 284,-318 284,-288 532,-288 532,-318"/>
<text text-anchor="start" x="292" y="-306" font-family="Helvetica,sans-Serif" font-size="10.00">com.teragrep.pth_06.planner.walker.conditions.</text>
<text text-anchor="middle" x="408" y="-295" font-family="Helvetica,sans-Serif" font-size="10.00">LatestCondition</text>
</a>
</g>
</g>
<!-- Node1&#45;&gt;Node8 -->
<g id="edge7_Node000001_Node000008" class="edge">
<title>Node1&#45;&gt;Node8</title>
<g id="a_edge7_Node000001_Node000008"><a xlink:title=" ">
<path fill="none" stroke="#63b8ff" d="M258.47,-303C266.84,-303 275.25,-303 283.57,-303"/>
<polygon fill="#63b8ff" stroke="#63b8ff" points="258.28,-299.5 248.28,-303 258.28,-306.5 258.28,-299.5"/>
</a>
</g>
</g>
<!-- Node9 -->
<g id="Node000009" class="node">
<title>Node9</title>
<g id="a_Node000009"><a xlink:href="classcom_1_1teragrep_1_1pth__06_1_1planner_1_1walker_1_1conditions_1_1NegatedCondition.html" target="_top" xlink:title=" ">
<polygon fill="white" stroke="#666666" points="532,-270 284,-270 284,-240 532,-240 532,-270"/>
<text text-anchor="start" x="292" y="-258" font-family="Helvetica,sans-Serif" font-size="10.00">com.teragrep.pth_06.planner.walker.conditions.</text>
<text text-anchor="middle" x="408" y="-247" font-family="Helvetica,sans-Serif" font-size="10.00">NegatedCondition</text>
</a>
</g>
</g>
<!-- Node1&#45;&gt;Node9 -->
<g id="edge8_Node000001_Node000009" class="edge">
<title>Node1&#45;&gt;Node9</title>
<g id="a_edge8_Node000001_Node000009"><a xlink:title=" ">
<path fill="none" stroke="#63b8ff" d="M223.42,-286.25C254.47,-280.96 288.57,-275.16 318.86,-270"/>
<polygon fill="#63b8ff" stroke="#63b8ff" points="222.72,-282.82 213.45,-287.94 223.9,-289.72 222.72,-282.82"/>
</a>
</g>
</g>
<!-- Node10 -->
<g id="Node000010" class="node">
<title>Node10</title>
<g id="a_Node000010"><a xlink:href="classcom_1_1teragrep_1_1pth__06_1_1planner_1_1walker_1_1conditions_1_1RegexLikeCondition.html" target="_top" xlink:title="true if input value regex like comparedTo value, compared against BLOOMDB.FILTERTYPE....">
<polygon fill="white" stroke="#666666" points="532,-222 284,-222 284,-192 532,-192 532,-222"/>
<text text-anchor="start" x="292" y="-210" font-family="Helvetica,sans-Serif" font-size="10.00">com.teragrep.pth_06.planner.walker.conditions.</text>
<text text-anchor="middle" x="408" y="-199" font-family="Helvetica,sans-Serif" font-size="10.00">RegexLikeCondition</text>
</a>
</g>
</g>
<!-- Node1&#45;&gt;Node10 -->
<g id="edge9_Node000001_Node000010" class="edge">
<title>Node1&#45;&gt;Node10</title>
<g id="a_edge9_Node000001_Node000010"><a xlink:title=" ">
<path fill="none" stroke="#63b8ff" d="M161.82,-283.36C193.44,-267.22 240.65,-244.84 284,-231 294.57,-227.63 305.81,-224.64 317.04,-222.03"/>
<polygon fill="#63b8ff" stroke="#63b8ff" points="160.22,-280.24 152.93,-287.94 163.43,-286.47 160.22,-280.24"/>
</a>
</g>
</g>
<!-- Node11 -->
<g id="Node000011" class="node">
<title>Node11</title>
<g id="a_Node000011"><a xlink:href="classcom_1_1teragrep_1_1pth__06_1_1planner_1_1walker_1_1conditions_1_1SourceTypeCondition.html" target="_top" xlink:title=" ">
<polygon fill="white" stroke="#666666" points="532,-174 284,-174 284,-144 532,-144 532,-174"/>
<text text-anchor="start" x="292" y="-162" font-family="Helvetica,sans-Serif" font-size="10.00">com.teragrep.pth_06.planner.walker.conditions.</text>
<text text-anchor="middle" x="408" y="-151" font-family="Helvetica,sans-Serif" font-size="10.00">SourceTypeCondition</text>
</a>
</g>
</g>
<!-- Node1&#45;&gt;Node11 -->
<g id="edge10_Node000001_Node000011" class="edge">
<title>Node1&#45;&gt;Node11</title>
<g id="a_edge10_Node000001_Node000011"><a xlink:title=" ">
<path fill="none" stroke="#63b8ff" d="M147.66,-280.47C176.67,-252.99 229.73,-207.21 284,-183 291.75,-179.54 299.99,-176.58 308.4,-174.05"/>
<polygon fill="#63b8ff" stroke="#63b8ff" points="144.91,-278.25 140.13,-287.7 149.76,-283.3 144.91,-278.25"/>
</a>
</g>
</g>
<!-- Node12 -->
<g id="Node000012" class="node">
<title>Node12</title>
<g id="a_Node000012"><a xlink:href="classcom_1_1teragrep_1_1pth__06_1_1planner_1_1walker_1_1conditions_1_1StringEqualsCondition.html" target="_top" xlink:title="Condition to check if two fields are equal.">
<polygon fill="white" stroke="#666666" points="532,-126 284,-126 284,-96 532,-96 532,-126"/>
<text text-anchor="start" x="292" y="-114" font-family="Helvetica,sans-Serif" font-size="10.00">com.teragrep.pth_06.planner.walker.conditions.</text>
<text text-anchor="middle" x="408" y="-103" font-family="Helvetica,sans-Serif" font-size="10.00">StringEqualsCondition</text>
</a>
</g>
</g>
<!-- Node1&#45;&gt;Node12 -->
<g id="edge11_Node000001_Node000012" class="edge">
<title>Node1&#45;&gt;Node12</title>
<g id="a_edge11_Node000001_Node000012"><a xlink:title=" ">
<path fill="none" stroke="#63b8ff" d="M140.14,-279.28C165.22,-242.11 219.12,-170.68 284,-135 290.29,-131.54 297,-128.57 303.93,-126.03"/>
<polygon fill="#63b8ff" stroke="#63b8ff" points="137,-277.69 134.39,-287.96 142.83,-281.55 137,-277.69"/>
</a>
</g>
</g>
<!-- Node13 -->
<g id="Node000013" class="node">
<title>Node13</title>
<g id="a_Node000013"><a xlink:href="classcom_1_1teragrep_1_1pth__06_1_1planner_1_1walker_1_1conditions_1_1StringLikeCondition.html" target="_top" xlink:title=" ">
<polygon fill="white" stroke="#666666" points="532,-78 284,-78 284,-48 532,-48 532,-78"/>
<text text-anchor="start" x="292" y="-66" font-family="Helvetica,sans-Serif" font-size="10.00">com.teragrep.pth_06.planner.walker.conditions.</text>
<text text-anchor="middle" x="408" y="-55" font-family="Helvetica,sans-Serif" font-size="10.00">StringLikeCondition</text>
</a>
</g>
</g>
<!-- Node1&#45;&gt;Node13 -->
<g id="edge12_Node000001_Node000013" class="edge">
<title>Node1&#45;&gt;Node13</title>
<g id="a_edge12_Node000001_Node000013"><a xlink:title=" ">
<path fill="none" stroke="#63b8ff" d="M135.4,-278.82C156.34,-233.28 208.13,-135.04 284,-87 289.42,-83.57 295.23,-80.61 301.26,-78.05"/>
<polygon fill="#63b8ff" stroke="#63b8ff" points="132.2,-277.4 131.3,-287.96 138.59,-280.27 132.2,-277.4"/>
</a>
</g>
</g>
<!-- Node14 -->
<g id="Node000014" class="node">
<title>Node14</title>
<g id="a_Node000014"><a xlink:href="classcom_1_1teragrep_1_1pth__06_1_1planner_1_1walker_1_1conditions_1_1WithoutFiltersCondition.html" target="_top" xlink:title=" ">
<polygon fill="white" stroke="#666666" points="532,-30 284,-30 284,0 532,0 532,-30"/>
<text text-anchor="start" x="292" y="-18" font-family="Helvetica,sans-Serif" font-size="10.00">com.teragrep.pth_06.planner.walker.conditions.</text>
<text text-anchor="middle" x="408" y="-7" font-family="Helvetica,sans-Serif" font-size="10.00">WithoutFiltersCondition</text>
</a>
</g>
</g>
<!-- Node1&#45;&gt;Node14 -->
<g id="edge13_Node000001_Node000014" class="edge">
<title>Node1&#45;&gt;Node14</title>
<g id="a_edge13_Node000001_Node000014"><a xlink:title=" ">
<path fill="none" stroke="#63b8ff" d="M132.35,-278.07C149.42,-224.81 197.09,-99.84 284,-39 288.9,-35.57 294.17,-32.6 299.67,-30.03"/>
<polygon fill="#63b8ff" stroke="#63b8ff" points="128.97,-277.14 129.34,-287.72 135.66,-279.22 128.97,-277.14"/>
</a>
</g>
</g>
</g>
</svg>
