<?xml version="1.0" encoding="UTF-8" standalone="no"?>
<!DOCTYPE svg PUBLIC "-//W3C//DTD SVG 1.1//EN"
 "http://www.w3.org/Graphics/SVG/1.1/DTD/svg11.dtd">
<!-- Generated by graphviz version 2.43.0 (0)
 -->
<!-- Title: com.teragrep.pth_06.planner.MockDBRow Pages: 1 -->
<svg width="560pt" height="86pt"
 viewBox="0.00 0.00 560.00 86.00" xmlns="http://www.w3.org/2000/svg" xmlns:xlink="http://www.w3.org/1999/xlink">
<g id="graph0" class="graph" transform="scale(1 1) rotate(0) translate(4 82)">
<title>com.teragrep.pth_06.planner.MockDBRow</title>
<!-- Node1 -->
<g id="Node000001" class="node">
<title>Node1</title>
<g id="a_Node000001"><a xlink:title=" ">
<polygon fill="#999999" stroke="#666666" points="356,-54 196,-54 196,-24 356,-24 356,-54"/>
<text text-anchor="start" x="204" y="-42" font-family="Helvetica,sans-Serif" font-size="10.00">com.teragrep.pth_06.planner.</text>
<text text-anchor="middle" x="276" y="-31" font-family="Helvetica,sans-Serif" font-size="10.00">MockDBRow</text>
</a>
</g>
</g>
<!-- Node3 -->
<g id="Node000003" class="node">
<title>Node3</title>
<g id="a_Node000003"><a xlink:href="classcom_1_1teragrep_1_1pth__06_1_1planner_1_1MockDBRowImpl.html" target="_top" xlink:title=" ">
<polygon fill="white" stroke="#666666" points="552,-78 392,-78 392,-48 552,-48 552,-78"/>
<text text-anchor="start" x="400" y="-66" font-family="Helvetica,sans-Serif" font-size="10.00">com.teragrep.pth_06.planner.</text>
<text text-anchor="middle" x="472" y="-55" font-family="Helvetica,sans-Serif" font-size="10.00">MockDBRowImpl</text>
</a>
</g>
</g>
<!-- Node1&#45;&gt;Node3 -->
<g id="edge2_Node000001_Node000003" class="edge">
<title>Node1&#45;&gt;Node3</title>
<g id="a_edge2_Node000001_Node000003"><a xlink:title=" ">
<path fill="none" stroke="#63b8ff" d="M366.16,-50.03C374.7,-51.09 383.32,-52.15 391.75,-53.2"/>
<polygon fill="#63b8ff" stroke="#63b8ff" points="366.54,-46.55 356.19,-48.8 365.68,-53.5 366.54,-46.55"/>
</a>
</g>
</g>
<!-- Node4 -->
<g id="Node000004" class="node">
<title>Node4</title>
<g id="a_Node000004"><a xlink:href="classcom_1_1teragrep_1_1pth__06_1_1planner_1_1RecordableMockDBRow.html" target="_top" xlink:title=" ">
<polygon fill="white" stroke="#666666" points="552,-30 392,-30 392,0 552,0 552,-30"/>
<text text-anchor="start" x="400" y="-18" font-family="Helvetica,sans-Serif" font-size="10.00">com.teragrep.pth_06.planner.</text>
<text text-anchor="middle" x="472" y="-7" font-family="Helvetica,sans-Serif" font-size="10.00">RecordableMockDBRow</text>
</a>
</g>
</g>
<!-- Node1&#45;&gt;Node4 -->
<g id="edge3_Node000001_Node000004" class="edge">
<title>Node1&#45;&gt;Node4</title>
<g id="a_edge3_Node000001_Node000004"><a xlink:title=" ">
<path fill="none" stroke="#63b8ff" d="M366.16,-27.97C374.7,-26.91 383.32,-25.85 391.75,-24.8"/>
<polygon fill="#63b8ff" stroke="#63b8ff" points="365.68,-24.5 356.19,-29.2 366.54,-31.45 365.68,-24.5"/>
</a>
</g>
</g>
<!-- Node2 -->
<g id="Node000002" class="node">
<title>Node2</title>
<g id="a_Node000002"><a xlink:title=" ">
<polygon fill="white" stroke="#666666" points="160,-48.5 0,-48.5 0,-29.5 160,-29.5 160,-48.5"/>
<text text-anchor="middle" x="80" y="-36.5" font-family="Helvetica,sans-Serif" font-size="10.00">Comparable&lt; MockDBRow &gt;</text>
</a>
</g>
</g>
<!-- Node2&#45;&gt;Node1 -->
<g id="edge1_Node000001_Node000002" class="edge">
<title>Node2&#45;&gt;Node1</title>
<g id="a_edge1_Node000001_Node000002"><a xlink:title=" ">
<path fill="none" stroke="#63b8ff" d="M170.44,-39C178.88,-39 187.41,-39 195.75,-39"/>
<polygon fill="#63b8ff" stroke="#63b8ff" points="170.19,-35.5 160.19,-39 170.19,-42.5 170.19,-35.5"/>
</a>
</g>
</g>
</g>
</svg>
