<?xml version="1.0" encoding="UTF-8" standalone="no"?>
<!DOCTYPE svg PUBLIC "-//W3C//DTD SVG 1.1//EN"
 "http://www.w3.org/Graphics/SVG/1.1/DTD/svg11.dtd">
<!-- Generated by graphviz version 2.43.0 (0)
 -->
<!-- Title: com.teragrep.pth_06.planner.walker.conditions.QueryCondition.condition Pages: 1 -->
<svg width="859pt" height="1202pt"
 viewBox="0.00 0.00 859.00 1202.00" xmlns="http://www.w3.org/2000/svg" xmlns:xlink="http://www.w3.org/1999/xlink">
<g id="graph0" class="graph" transform="scale(1 1) rotate(0) translate(4 1198)">
<title>com.teragrep.pth_06.planner.walker.conditions.QueryCondition.condition</title>
<!-- Node1 -->
<g id="Node000001" class="node">
<title>Node1</title>
<g id="a_Node000001"><a xlink:title=" ">
<polygon fill="#999999" stroke="#666666" points="851,-498 603,-498 603,-468 851,-468 851,-498"/>
<text text-anchor="start" x="611" y="-486" font-family="Helvetica,sans-Serif" font-size="10.00">com.teragrep.pth_06.planner.walker.conditions.</text>
<text text-anchor="middle" x="727" y="-475" font-family="Helvetica,sans-Serif" font-size="10.00">QueryCondition.condition</text>
</a>
</g>
</g>
<!-- Node2 -->
<g id="Node000002" class="node">
<title>Node2</title>
<g id="a_Node000002"><a xlink:href="classcom_1_1teragrep_1_1pth__06_1_1planner_1_1walker_1_1conditions_1_1ElementCondition.html#a77e4bd928b9d9dd1e2ef3380f65e3ab7" target="_top" xlink:title=" ">
<polygon fill="white" stroke="#666666" points="567,-1098 319,-1098 319,-1068 567,-1068 567,-1098"/>
<text text-anchor="start" x="327" y="-1086" font-family="Helvetica,sans-Serif" font-size="10.00">com.teragrep.pth_06.planner.walker.conditions.</text>
<text text-anchor="middle" x="443" y="-1075" font-family="Helvetica,sans-Serif" font-size="10.00">ElementCondition.condition</text>
</a>
</g>
</g>
<!-- Node1&#45;&gt;Node2 -->
<g id="edge1_Node000001_Node000002" class="edge">
<title>Node1&#45;&gt;Node2</title>
<g id="a_edge1_Node000001_Node000002"><a xlink:title=" ">
<path fill="none" stroke="#63b8ff" d="M715.64,-507.77C690.97,-566.48 626.34,-718.49 567,-843 525.91,-929.22 472.2,-1030.43 452.08,-1067.99"/>
<polygon fill="#63b8ff" stroke="#63b8ff" points="719,-508.81 719.64,-498.23 712.55,-506.1 719,-508.81"/>
</a>
</g>
</g>
<!-- Node7 -->
<g id="Node000007" class="node">
<title>Node7</title>
<g id="a_Node000007"><a xlink:href="classcom_1_1teragrep_1_1pth__06_1_1planner_1_1walker_1_1conditions_1_1HostCondition.html#a5e1a6cbe0677ad979097ecc9ca2893b1" target="_top" xlink:title=" ">
<polygon fill="white" stroke="#666666" points="567,-834 319,-834 319,-804 567,-804 567,-834"/>
<text text-anchor="start" x="327" y="-822" font-family="Helvetica,sans-Serif" font-size="10.00">com.teragrep.pth_06.planner.walker.conditions.</text>
<text text-anchor="middle" x="443" y="-811" font-family="Helvetica,sans-Serif" font-size="10.00">HostCondition.condition</text>
</a>
</g>
</g>
<!-- Node1&#45;&gt;Node7 -->
<g id="edge7_Node000001_Node000007" class="edge">
<title>Node1&#45;&gt;Node7</title>
<g id="a_edge7_Node000001_Node000007"><a xlink:title=" ">
<path fill="none" stroke="#63b8ff" d="M706.46,-506.28C652.29,-570.83 501.28,-750.76 456.6,-803.98"/>
<polygon fill="#63b8ff" stroke="#63b8ff" points="709.4,-508.22 713.15,-498.31 704.04,-503.72 709.4,-508.22"/>
</a>
</g>
</g>
<!-- Node15 -->
<g id="Node000015" class="node">
<title>Node15</title>
<g id="a_Node000015"><a xlink:href="classcom_1_1teragrep_1_1pth__06_1_1planner_1_1walker_1_1conditions_1_1IndexCondition.html#a657fd2ee2d33ed734ca426cc64990be8" target="_top" xlink:title=" ">
<polygon fill="white" stroke="#666666" points="567,-522 319,-522 319,-492 567,-492 567,-522"/>
<text text-anchor="start" x="327" y="-510" font-family="Helvetica,sans-Serif" font-size="10.00">com.teragrep.pth_06.planner.walker.conditions.</text>
<text text-anchor="middle" x="443" y="-499" font-family="Helvetica,sans-Serif" font-size="10.00">IndexCondition.condition</text>
</a>
</g>
</g>
<!-- Node1&#45;&gt;Node15 -->
<g id="edge15_Node000001_Node000015" class="edge">
<title>Node1&#45;&gt;Node15</title>
<g id="a_edge15_Node000001_Node000015"><a xlink:title=" ">
<path fill="none" stroke="#63b8ff" d="M592.53,-494.36C584.16,-495.07 575.75,-495.79 567.43,-496.5"/>
<polygon fill="#63b8ff" stroke="#63b8ff" points="593.05,-497.83 602.72,-493.49 592.46,-490.85 593.05,-497.83"/>
</a>
</g>
</g>
<!-- Node23 -->
<g id="Node000023" class="node">
<title>Node23</title>
<g id="a_Node000023"><a xlink:href="classcom_1_1teragrep_1_1pth__06_1_1planner_1_1walker_1_1conditions_1_1IndexStatementCondition.html#ad8a40368c02dae91ddc55b86e2ab7e10" target="_top" xlink:title=" ">
<polygon fill="white" stroke="#666666" points="567,-474 319,-474 319,-444 567,-444 567,-474"/>
<text text-anchor="start" x="327" y="-462" font-family="Helvetica,sans-Serif" font-size="10.00">com.teragrep.pth_06.planner.walker.conditions.</text>
<text text-anchor="middle" x="443" y="-451" font-family="Helvetica,sans-Serif" font-size="10.00">IndexStatementCondition.condition</text>
</a>
</g>
</g>
<!-- Node1&#45;&gt;Node23 -->
<g id="edge23_Node000001_Node000023" class="edge">
<title>Node1&#45;&gt;Node23</title>
<g id="a_edge23_Node000001_Node000023"><a xlink:title=" ">
<path fill="none" stroke="#63b8ff" d="M592.53,-471.64C584.16,-470.93 575.75,-470.21 567.43,-469.5"/>
<polygon fill="#63b8ff" stroke="#63b8ff" points="592.46,-475.15 602.72,-472.51 593.05,-468.17 592.46,-475.15"/>
</a>
</g>
</g>
<!-- Node24 -->
<g id="Node000024" class="node">
<title>Node24</title>
<g id="a_Node000024"><a xlink:href="classcom_1_1teragrep_1_1pth__06_1_1planner_1_1walker_1_1conditions_1_1SourceTypeCondition.html#ae7125daefbefb1c254059081c5eb53ae" target="_top" xlink:title=" ">
<polygon fill="white" stroke="#666666" points="567,-234 319,-234 319,-204 567,-204 567,-234"/>
<text text-anchor="start" x="327" y="-222" font-family="Helvetica,sans-Serif" font-size="10.00">com.teragrep.pth_06.planner.walker.conditions.</text>
<text text-anchor="middle" x="443" y="-211" font-family="Helvetica,sans-Serif" font-size="10.00">SourceTypeCondition.condition</text>
</a>
</g>
</g>
<!-- Node1&#45;&gt;Node24 -->
<g id="edge24_Node000001_Node000024" class="edge">
<title>Node1&#45;&gt;Node24</title>
<g id="a_edge24_Node000001_Node000024"><a xlink:title=" ">
<path fill="none" stroke="#63b8ff" d="M702.3,-460.81C646.38,-408.47 507.4,-278.35 460.07,-234.05"/>
<polygon fill="#63b8ff" stroke="#63b8ff" points="699.93,-463.39 709.62,-467.67 704.71,-458.28 699.93,-463.39"/>
</a>
</g>
</g>
<!-- Node32 -->
<g id="Node000032" class="node">
<title>Node32</title>
<g id="a_Node000032"><a xlink:href="classcom_1_1teragrep_1_1pth__06_1_1planner_1_1walker_1_1conditions_1_1NegatedCondition.html#a39e7e338fc6a0364e26cc14c124f176f" target="_top" xlink:title=" ">
<polygon fill="white" stroke="#666666" points="567,-186 319,-186 319,-156 567,-156 567,-186"/>
<text text-anchor="start" x="327" y="-174" font-family="Helvetica,sans-Serif" font-size="10.00">com.teragrep.pth_06.planner.walker.conditions.</text>
<text text-anchor="middle" x="443" y="-163" font-family="Helvetica,sans-Serif" font-size="10.00">NegatedCondition.NegatedCondition</text>
</a>
</g>
</g>
<!-- Node1&#45;&gt;Node32 -->
<g id="edge32_Node000001_Node000032" class="edge">
<title>Node1&#45;&gt;Node32</title>
<g id="a_edge32_Node000001_Node000032"><a xlink:title=" ">
<path fill="none" stroke="#63b8ff" d="M719.89,-457.83C704.7,-401 659.6,-262.45 567,-195 562.34,-191.61 557.33,-188.66 552.08,-186.1"/>
<polygon fill="#63b8ff" stroke="#63b8ff" points="716.56,-458.95 722.46,-467.76 723.34,-457.2 716.56,-458.95"/>
</a>
</g>
</g>
<!-- Node2&#45;&gt;Node2 -->
<g id="edge2_Node000002_Node000002" class="edge">
<title>Node2&#45;&gt;Node2</title>
<g id="a_edge2_Node000002_Node000002"><a xlink:title=" ">
<path fill="none" stroke="#63b8ff" d="M492.97,-1108.42C486.35,-1112.89 469.69,-1116 443,-1116 398.62,-1116 381.98,-1107.41 393.08,-1098.28"/>
<polygon fill="#63b8ff" stroke="#63b8ff" points="496.47,-1108.26 492.92,-1098.28 489.47,-1108.29 496.47,-1108.26"/>
</a>
</g>
</g>
<!-- Node3 -->
<g id="Node000003" class="node">
<title>Node3</title>
<g id="a_Node000003"><a xlink:href="classcom_1_1teragrep_1_1pth__06_1_1planner_1_1walker_1_1conditions_1_1ElementConditionTest.html#aa7b824b2c1a077cb408c7e0532131e67" target="_top" xlink:title=" ">
<polygon fill="white" stroke="#666666" points="265.5,-1194 17.5,-1194 17.5,-1164 265.5,-1164 265.5,-1194"/>
<text text-anchor="start" x="25.5" y="-1182" font-family="Helvetica,sans-Serif" font-size="10.00">com.teragrep.pth_06.planner.walker.conditions.</text>
<text text-anchor="middle" x="141.5" y="-1171" font-family="Helvetica,sans-Serif" font-size="10.00">ElementConditionTest.equalsTest</text>
</a>
</g>
</g>
<!-- Node2&#45;&gt;Node3 -->
<g id="edge3_Node000002_Node000003" class="edge">
<title>Node2&#45;&gt;Node3</title>
<g id="a_edge3_Node000002_Node000003"><a xlink:title=" ">
<path fill="none" stroke="#63b8ff" d="M405.55,-1102.76C373.98,-1119.07 326.64,-1141.63 283,-1155 271.88,-1158.41 260.11,-1161.37 248.3,-1163.94"/>
<polygon fill="#63b8ff" stroke="#63b8ff" points="407.17,-1105.86 414.42,-1098.13 403.93,-1099.65 407.17,-1105.86"/>
</a>
</g>
</g>
<!-- Node4 -->
<g id="Node000004" class="node">
<title>Node4</title>
<g id="a_Node000004"><a xlink:href="classcom_1_1teragrep_1_1pth__06_1_1planner_1_1walker_1_1conditions_1_1ElementConditionTest.html#afc3b6a3b2fe594a7c6df49f7ad3cb88a" target="_top" xlink:title=" ">
<polygon fill="white" stroke="#666666" points="265.5,-1146 17.5,-1146 17.5,-1116 265.5,-1116 265.5,-1146"/>
<text text-anchor="start" x="25.5" y="-1134" font-family="Helvetica,sans-Serif" font-size="10.00">com.teragrep.pth_06.planner.walker.conditions.</text>
<text text-anchor="middle" x="141.5" y="-1123" font-family="Helvetica,sans-Serif" font-size="10.00">ElementConditionTest.testInvalidStreamTags</text>
</a>
</g>
</g>
<!-- Node2&#45;&gt;Node4 -->
<g id="edge4_Node000002_Node000004" class="edge">
<title>Node2&#45;&gt;Node4</title>
<g id="a_edge4_Node000002_Node000004"><a xlink:title=" ">
<path fill="none" stroke="#63b8ff" d="M337.9,-1099.68C304.8,-1104.99 268.42,-1110.82 236.11,-1116"/>
<polygon fill="#63b8ff" stroke="#63b8ff" points="338.74,-1103.09 348.06,-1098.06 337.63,-1096.18 338.74,-1103.09"/>
</a>
</g>
</g>
<!-- Node5 -->
<g id="Node000005" class="node">
<title>Node5</title>
<g id="a_Node000005"><a xlink:href="classcom_1_1teragrep_1_1pth__06_1_1planner_1_1walker_1_1conditions_1_1ElementConditionTest.html#a8128d1d936c645c93ebfc6f5fe4cdbe6" target="_top" xlink:title=" ">
<polygon fill="white" stroke="#666666" points="265.5,-1098 17.5,-1098 17.5,-1068 265.5,-1068 265.5,-1098"/>
<text text-anchor="start" x="25.5" y="-1086" font-family="Helvetica,sans-Serif" font-size="10.00">com.teragrep.pth_06.planner.walker.conditions.</text>
<text text-anchor="middle" x="141.5" y="-1075" font-family="Helvetica,sans-Serif" font-size="10.00">ElementConditionTest.testStreamTags</text>
</a>
</g>
</g>
<!-- Node2&#45;&gt;Node5 -->
<g id="edge5_Node000002_Node000005" class="edge">
<title>Node2&#45;&gt;Node5</title>
<g id="a_edge5_Node000002_Node000005"><a xlink:title=" ">
<path fill="none" stroke="#63b8ff" d="M308.53,-1083C294.25,-1083 279.77,-1083 265.62,-1083"/>
<polygon fill="#63b8ff" stroke="#63b8ff" points="308.89,-1086.5 318.89,-1083 308.89,-1079.5 308.89,-1086.5"/>
</a>
</g>
</g>
<!-- Node6 -->
<g id="Node000006" class="node">
<title>Node6</title>
<g id="a_Node000006"><a xlink:href="classcom_1_1teragrep_1_1pth__06_1_1planner_1_1walker_1_1conditions_1_1ElementConditionTest.html#aed3578cbc9f7e4f77695db0f1f45b40a" target="_top" xlink:title=" ">
<polygon fill="white" stroke="#666666" points="265.5,-1050 17.5,-1050 17.5,-1020 265.5,-1020 265.5,-1050"/>
<text text-anchor="start" x="25.5" y="-1038" font-family="Helvetica,sans-Serif" font-size="10.00">com.teragrep.pth_06.planner.walker.conditions.</text>
<text text-anchor="middle" x="141.5" y="-1027" font-family="Helvetica,sans-Serif" font-size="10.00">ElementConditionTest.testTimeQualifiers</text>
</a>
</g>
</g>
<!-- Node2&#45;&gt;Node6 -->
<g id="edge6_Node000002_Node000006" class="edge">
<title>Node2&#45;&gt;Node6</title>
<g id="a_edge6_Node000002_Node000006"><a xlink:title=" ">
<path fill="none" stroke="#63b8ff" d="M337.9,-1066.32C304.8,-1061.01 268.42,-1055.18 236.11,-1050"/>
<polygon fill="#63b8ff" stroke="#63b8ff" points="337.63,-1069.82 348.06,-1067.94 338.74,-1062.91 337.63,-1069.82"/>
</a>
</g>
</g>
<!-- Node8 -->
<g id="Node000008" class="node">
<title>Node8</title>
<g id="a_Node000008"><a xlink:href="classcom_1_1teragrep_1_1pth__06_1_1planner_1_1walker_1_1conditions_1_1HostConditionTest.html#ac5fb835f367a0f5fc3295da6e4550324" target="_top" xlink:title=" ">
<polygon fill="white" stroke="#666666" points="265.5,-1002 17.5,-1002 17.5,-972 265.5,-972 265.5,-1002"/>
<text text-anchor="start" x="25.5" y="-990" font-family="Helvetica,sans-Serif" font-size="10.00">com.teragrep.pth_06.planner.walker.conditions.</text>
<text text-anchor="middle" x="141.5" y="-979" font-family="Helvetica,sans-Serif" font-size="10.00">HostConditionTest.conditionTest</text>
</a>
</g>
</g>
<!-- Node7&#45;&gt;Node8 -->
<g id="edge8_Node000007_Node000008" class="edge">
<title>Node7&#45;&gt;Node8</title>
<g id="a_edge8_Node000007_Node000008"><a xlink:title=" ">
<path fill="none" stroke="#63b8ff" d="M423.77,-842.33C396.8,-875.06 342.95,-933.85 283,-963 275.88,-966.46 268.34,-969.43 260.61,-971.98"/>
<polygon fill="#63b8ff" stroke="#63b8ff" points="426.77,-844.2 430.34,-834.22 421.33,-839.79 426.77,-844.2"/>
</a>
</g>
</g>
<!-- Node9 -->
<g id="Node000009" class="node">
<title>Node9</title>
<g id="a_Node000009"><a xlink:href="classcom_1_1teragrep_1_1pth__06_1_1planner_1_1walker_1_1conditions_1_1HostConditionTest.html#ae2adcfd60fd6418231755cbbdd3c14cc" target="_top" xlink:title=" ">
<polygon fill="white" stroke="#666666" points="265.5,-954 17.5,-954 17.5,-924 265.5,-924 265.5,-954"/>
<text text-anchor="start" x="25.5" y="-942" font-family="Helvetica,sans-Serif" font-size="10.00">com.teragrep.pth_06.planner.walker.conditions.</text>
<text text-anchor="middle" x="141.5" y="-931" font-family="Helvetica,sans-Serif" font-size="10.00">HostConditionTest.equalsTest</text>
</a>
</g>
</g>
<!-- Node7&#45;&gt;Node9 -->
<g id="edge9_Node000007_Node000009" class="edge">
<title>Node7&#45;&gt;Node9</title>
<g id="a_edge9_Node000007_Node000009"><a xlink:title=" ">
<path fill="none" stroke="#63b8ff" d="M414.26,-840.21C383.77,-862.42 332.51,-896.58 283,-915 273.72,-918.45 263.91,-921.41 253.97,-923.95"/>
<polygon fill="#63b8ff" stroke="#63b8ff" points="416.7,-842.76 422.66,-834.01 412.54,-837.13 416.7,-842.76"/>
</a>
</g>
</g>
<!-- Node10 -->
<g id="Node000010" class="node">
<title>Node10</title>
<g id="a_Node000010"><a xlink:href="classcom_1_1teragrep_1_1pth__06_1_1planner_1_1walker_1_1conditions_1_1HostConditionTest.html#a5cfa1efd300b2f70a6e669698e37ba83" target="_top" xlink:title=" ">
<polygon fill="white" stroke="#666666" points="265.5,-906 17.5,-906 17.5,-876 265.5,-876 265.5,-906"/>
<text text-anchor="start" x="25.5" y="-894" font-family="Helvetica,sans-Serif" font-size="10.00">com.teragrep.pth_06.planner.walker.conditions.</text>
<text text-anchor="middle" x="141.5" y="-883" font-family="Helvetica,sans-Serif" font-size="10.00">HostConditionTest.negationTest</text>
</a>
</g>
</g>
<!-- Node7&#45;&gt;Node10 -->
<g id="edge10_Node000007_Node000010" class="edge">
<title>Node7&#45;&gt;Node10</title>
<g id="a_edge10_Node000007_Node000010"><a xlink:title=" ">
<path fill="none" stroke="#63b8ff" d="M387.91,-837.15C357.36,-846.94 318.33,-858.68 283,-867 269.15,-870.26 254.43,-873.27 239.94,-875.97"/>
<polygon fill="#63b8ff" stroke="#63b8ff" points="389.07,-840.45 397.51,-834.05 386.92,-833.79 389.07,-840.45"/>
</a>
</g>
</g>
<!-- Node11 -->
<g id="Node000011" class="node">
<title>Node11</title>
<g id="a_Node000011"><a xlink:href="classcom_1_1teragrep_1_1pth__06_1_1planner_1_1walker_1_1conditions_1_1HostConditionTest.html#a1bfa9d2d16ee9cff750080cd3e76e412" target="_top" xlink:title=" ">
<polygon fill="white" stroke="#666666" points="265.5,-858 17.5,-858 17.5,-828 265.5,-828 265.5,-858"/>
<text text-anchor="start" x="25.5" y="-846" font-family="Helvetica,sans-Serif" font-size="10.00">com.teragrep.pth_06.planner.walker.conditions.</text>
<text text-anchor="middle" x="141.5" y="-835" font-family="Helvetica,sans-Serif" font-size="10.00">HostConditionTest.testPartialWildcard</text>
</a>
</g>
</g>
<!-- Node7&#45;&gt;Node11 -->
<g id="edge11_Node000007_Node000011" class="edge">
<title>Node7&#45;&gt;Node11</title>
<g id="a_edge11_Node000007_Node000011"><a xlink:title=" ">
<path fill="none" stroke="#63b8ff" d="M308.53,-829.7C294.25,-830.84 279.77,-832 265.62,-833.13"/>
<polygon fill="#63b8ff" stroke="#63b8ff" points="309.2,-833.15 318.89,-828.87 308.64,-826.18 309.2,-833.15"/>
</a>
</g>
</g>
<!-- Node12 -->
<g id="Node000012" class="node">
<title>Node12</title>
<g id="a_Node000012"><a xlink:href="classcom_1_1teragrep_1_1pth__06_1_1planner_1_1walker_1_1conditions_1_1HostConditionTest.html#a4b66535f188bdd912a3b75ddc8378a24" target="_top" xlink:title=" ">
<polygon fill="white" stroke="#666666" points="265.5,-810 17.5,-810 17.5,-780 265.5,-780 265.5,-810"/>
<text text-anchor="start" x="25.5" y="-798" font-family="Helvetica,sans-Serif" font-size="10.00">com.teragrep.pth_06.planner.walker.conditions.</text>
<text text-anchor="middle" x="141.5" y="-787" font-family="Helvetica,sans-Serif" font-size="10.00">HostConditionTest.testPartialWildcardNegation</text>
</a>
</g>
</g>
<!-- Node7&#45;&gt;Node12 -->
<g id="edge12_Node000007_Node000012" class="edge">
<title>Node7&#45;&gt;Node12</title>
<g id="a_edge12_Node000007_Node000012"><a xlink:title=" ">
<path fill="none" stroke="#63b8ff" d="M308.53,-808.3C294.25,-807.16 279.77,-806 265.62,-804.87"/>
<polygon fill="#63b8ff" stroke="#63b8ff" points="308.64,-811.82 318.89,-809.13 309.2,-804.85 308.64,-811.82"/>
</a>
</g>
</g>
<!-- Node13 -->
<g id="Node000013" class="node">
<title>Node13</title>
<g id="a_Node000013"><a xlink:href="classcom_1_1teragrep_1_1pth__06_1_1planner_1_1walker_1_1conditions_1_1HostConditionTest.html#ac5b9e9dd993fb16cc758e1e190ee14be" target="_top" xlink:title=" ">
<polygon fill="white" stroke="#666666" points="265.5,-762 17.5,-762 17.5,-732 265.5,-732 265.5,-762"/>
<text text-anchor="start" x="25.5" y="-750" font-family="Helvetica,sans-Serif" font-size="10.00">com.teragrep.pth_06.planner.walker.conditions.</text>
<text text-anchor="middle" x="141.5" y="-739" font-family="Helvetica,sans-Serif" font-size="10.00">HostConditionTest.wildcardAsTrueTest</text>
</a>
</g>
</g>
<!-- Node7&#45;&gt;Node13 -->
<g id="edge13_Node000007_Node000013" class="edge">
<title>Node7&#45;&gt;Node13</title>
<g id="a_edge13_Node000007_Node000013"><a xlink:title=" ">
<path fill="none" stroke="#63b8ff" d="M387.91,-800.85C357.36,-791.06 318.33,-779.32 283,-771 269.15,-767.74 254.43,-764.73 239.94,-762.03"/>
<polygon fill="#63b8ff" stroke="#63b8ff" points="386.92,-804.21 397.51,-803.95 389.07,-797.55 386.92,-804.21"/>
</a>
</g>
</g>
<!-- Node14 -->
<g id="Node000014" class="node">
<title>Node14</title>
<g id="a_Node000014"><a xlink:href="classcom_1_1teragrep_1_1pth__06_1_1planner_1_1walker_1_1conditions_1_1HostConditionTest.html#a94fb6e3883e7e0187f3f744b05e4d72b" target="_top" xlink:title=" ">
<polygon fill="white" stroke="#666666" points="266.5,-714 16.5,-714 16.5,-684 266.5,-684 266.5,-714"/>
<text text-anchor="start" x="24.5" y="-702" font-family="Helvetica,sans-Serif" font-size="10.00">com.teragrep.pth_06.planner.walker.conditions.</text>
<text text-anchor="middle" x="141.5" y="-691" font-family="Helvetica,sans-Serif" font-size="10.00">HostConditionTest.wildcardNegationAsFalseTest</text>
</a>
</g>
</g>
<!-- Node7&#45;&gt;Node14 -->
<g id="edge14_Node000007_Node000014" class="edge">
<title>Node7&#45;&gt;Node14</title>
<g id="a_edge14_Node000007_Node000014"><a xlink:title=" ">
<path fill="none" stroke="#63b8ff" d="M414.26,-797.79C383.77,-775.58 332.51,-741.42 283,-723 273.72,-719.55 263.91,-716.59 253.97,-714.05"/>
<polygon fill="#63b8ff" stroke="#63b8ff" points="412.54,-800.87 422.66,-803.99 416.7,-795.24 412.54,-800.87"/>
</a>
</g>
</g>
<!-- Node16 -->
<g id="Node000016" class="node">
<title>Node16</title>
<g id="a_Node000016"><a xlink:href="classcom_1_1teragrep_1_1pth__06_1_1planner_1_1walker_1_1conditions_1_1IndexConditionTest.html#a0634fb1173f568590e68a4797948452f" target="_top" xlink:title=" ">
<polygon fill="white" stroke="#666666" points="265.5,-666 17.5,-666 17.5,-636 265.5,-636 265.5,-666"/>
<text text-anchor="start" x="25.5" y="-654" font-family="Helvetica,sans-Serif" font-size="10.00">com.teragrep.pth_06.planner.walker.conditions.</text>
<text text-anchor="middle" x="141.5" y="-643" font-family="Helvetica,sans-Serif" font-size="10.00">IndexConditionTest.conditionTest</text>
</a>
</g>
</g>
<!-- Node15&#45;&gt;Node16 -->
<g id="edge16_Node000015_Node000016" class="edge">
<title>Node15&#45;&gt;Node16</title>
<g id="a_edge16_Node000015_Node000016"><a xlink:title=" ">
<path fill="none" stroke="#63b8ff" d="M419.9,-529.3C391.08,-556.94 337.85,-603.3 283,-627 275.05,-630.44 266.65,-633.38 258.06,-635.9"/>
<polygon fill="#63b8ff" stroke="#63b8ff" points="422.64,-531.51 427.36,-522.03 417.75,-526.5 422.64,-531.51"/>
</a>
</g>
</g>
<!-- Node17 -->
<g id="Node000017" class="node">
<title>Node17</title>
<g id="a_Node000017"><a xlink:href="classcom_1_1teragrep_1_1pth__06_1_1planner_1_1walker_1_1conditions_1_1IndexConditionTest.html#a88d86d8a4d7b500a187f10a1141e5fc8" target="_top" xlink:title=" ">
<polygon fill="white" stroke="#666666" points="265.5,-618 17.5,-618 17.5,-588 265.5,-588 265.5,-618"/>
<text text-anchor="start" x="25.5" y="-606" font-family="Helvetica,sans-Serif" font-size="10.00">com.teragrep.pth_06.planner.walker.conditions.</text>
<text text-anchor="middle" x="141.5" y="-595" font-family="Helvetica,sans-Serif" font-size="10.00">IndexConditionTest.equalsTest</text>
</a>
</g>
</g>
<!-- Node15&#45;&gt;Node17 -->
<g id="edge17_Node000015_Node000017" class="edge">
<title>Node15&#45;&gt;Node17</title>
<g id="a_edge17_Node000015_Node000017"><a xlink:title=" ">
<path fill="none" stroke="#63b8ff" d="M405.55,-526.76C373.98,-543.07 326.64,-565.63 283,-579 271.88,-582.41 260.11,-585.37 248.3,-587.94"/>
<polygon fill="#63b8ff" stroke="#63b8ff" points="407.17,-529.86 414.42,-522.13 403.93,-523.65 407.17,-529.86"/>
</a>
</g>
</g>
<!-- Node18 -->
<g id="Node000018" class="node">
<title>Node18</title>
<g id="a_Node000018"><a xlink:href="classcom_1_1teragrep_1_1pth__06_1_1planner_1_1walker_1_1conditions_1_1IndexConditionTest.html#a074a653d417c279a1d728dd333084a71" target="_top" xlink:title=" ">
<polygon fill="white" stroke="#666666" points="265.5,-570 17.5,-570 17.5,-540 265.5,-540 265.5,-570"/>
<text text-anchor="start" x="25.5" y="-558" font-family="Helvetica,sans-Serif" font-size="10.00">com.teragrep.pth_06.planner.walker.conditions.</text>
<text text-anchor="middle" x="141.5" y="-547" font-family="Helvetica,sans-Serif" font-size="10.00">IndexConditionTest.negationTest</text>
</a>
</g>
</g>
<!-- Node15&#45;&gt;Node18 -->
<g id="edge18_Node000015_Node000018" class="edge">
<title>Node15&#45;&gt;Node18</title>
<g id="a_edge18_Node000015_Node000018"><a xlink:title=" ">
<path fill="none" stroke="#63b8ff" d="M337.9,-523.68C304.8,-528.99 268.42,-534.82 236.11,-540"/>
<polygon fill="#63b8ff" stroke="#63b8ff" points="338.74,-527.09 348.06,-522.06 337.63,-520.18 338.74,-527.09"/>
</a>
</g>
</g>
<!-- Node19 -->
<g id="Node000019" class="node">
<title>Node19</title>
<g id="a_Node000019"><a xlink:href="classcom_1_1teragrep_1_1pth__06_1_1planner_1_1walker_1_1conditions_1_1IndexConditionTest.html#aecac864eb019369aef22927fba31960b" target="_top" xlink:title=" ">
<polygon fill="white" stroke="#666666" points="265.5,-522 17.5,-522 17.5,-492 265.5,-492 265.5,-522"/>
<text text-anchor="start" x="25.5" y="-510" font-family="Helvetica,sans-Serif" font-size="10.00">com.teragrep.pth_06.planner.walker.conditions.</text>
<text text-anchor="middle" x="141.5" y="-499" font-family="Helvetica,sans-Serif" font-size="10.00">IndexConditionTest.testPartialWildcard</text>
</a>
</g>
</g>
<!-- Node15&#45;&gt;Node19 -->
<g id="edge19_Node000015_Node000019" class="edge">
<title>Node15&#45;&gt;Node19</title>
<g id="a_edge19_Node000015_Node000019"><a xlink:title=" ">
<path fill="none" stroke="#63b8ff" d="M308.53,-507C294.25,-507 279.77,-507 265.62,-507"/>
<polygon fill="#63b8ff" stroke="#63b8ff" points="308.89,-510.5 318.89,-507 308.89,-503.5 308.89,-510.5"/>
</a>
</g>
</g>
<!-- Node20 -->
<g id="Node000020" class="node">
<title>Node20</title>
<g id="a_Node000020"><a xlink:href="classcom_1_1teragrep_1_1pth__06_1_1planner_1_1walker_1_1conditions_1_1IndexConditionTest.html#abde474b71464e4cf751663d4ade3a66d" target="_top" xlink:title=" ">
<polygon fill="white" stroke="#666666" points="266,-474 17,-474 17,-444 266,-444 266,-474"/>
<text text-anchor="start" x="25" y="-462" font-family="Helvetica,sans-Serif" font-size="10.00">com.teragrep.pth_06.planner.walker.conditions.</text>
<text text-anchor="middle" x="141.5" y="-451" font-family="Helvetica,sans-Serif" font-size="10.00">IndexConditionTest.testPartialWildcardNegation</text>
</a>
</g>
</g>
<!-- Node15&#45;&gt;Node20 -->
<g id="edge20_Node000015_Node000020" class="edge">
<title>Node15&#45;&gt;Node20</title>
<g id="a_edge20_Node000015_Node000020"><a xlink:title=" ">
<path fill="none" stroke="#63b8ff" d="M337.9,-490.32C304.8,-485.01 268.42,-479.18 236.11,-474"/>
<polygon fill="#63b8ff" stroke="#63b8ff" points="337.63,-493.82 348.06,-491.94 338.74,-486.91 337.63,-493.82"/>
</a>
</g>
</g>
<!-- Node21 -->
<g id="Node000021" class="node">
<title>Node21</title>
<g id="a_Node000021"><a xlink:href="classcom_1_1teragrep_1_1pth__06_1_1planner_1_1walker_1_1conditions_1_1IndexConditionTest.html#a573db62e7987faf80014d6c28b6e88a4" target="_top" xlink:title=" ">
<polygon fill="white" stroke="#666666" points="265.5,-426 17.5,-426 17.5,-396 265.5,-396 265.5,-426"/>
<text text-anchor="start" x="25.5" y="-414" font-family="Helvetica,sans-Serif" font-size="10.00">com.teragrep.pth_06.planner.walker.conditions.</text>
<text text-anchor="middle" x="141.5" y="-403" font-family="Helvetica,sans-Serif" font-size="10.00">IndexConditionTest.wildcardAsTrueTest</text>
</a>
</g>
</g>
<!-- Node15&#45;&gt;Node21 -->
<g id="edge21_Node000015_Node000021" class="edge">
<title>Node15&#45;&gt;Node21</title>
<g id="a_edge21_Node000015_Node000021"><a xlink:title=" ">
<path fill="none" stroke="#63b8ff" d="M327.15,-487.63C324.36,-486.19 321.63,-484.65 319,-483 296.41,-468.84 305.76,-448.9 283,-435 277.4,-431.58 271.46,-428.61 265.3,-426.04"/>
<polygon fill="#63b8ff" stroke="#63b8ff" points="325.75,-490.84 336.29,-491.89 328.71,-484.5 325.75,-490.84"/>
</a>
</g>
</g>
<!-- Node22 -->
<g id="Node000022" class="node">
<title>Node22</title>
<g id="a_Node000022"><a xlink:href="classcom_1_1teragrep_1_1pth__06_1_1planner_1_1walker_1_1conditions_1_1IndexConditionTest.html#a4004c2bc04159576e79677a9b34f7cb8" target="_top" xlink:title=" ">
<polygon fill="white" stroke="#666666" points="268.5,-378 14.5,-378 14.5,-348 268.5,-348 268.5,-378"/>
<text text-anchor="start" x="22.5" y="-366" font-family="Helvetica,sans-Serif" font-size="10.00">com.teragrep.pth_06.planner.walker.conditions.</text>
<text text-anchor="middle" x="141.5" y="-355" font-family="Helvetica,sans-Serif" font-size="10.00">IndexConditionTest.wildcardNegationAsFalseTest</text>
</a>
</g>
</g>
<!-- Node15&#45;&gt;Node22 -->
<g id="edge22_Node000015_Node000022" class="edge">
<title>Node15&#45;&gt;Node22</title>
<g id="a_edge22_Node000015_Node000022"><a xlink:title=" ">
<path fill="none" stroke="#63b8ff" d="M323.22,-486.33C321.78,-485.27 320.37,-484.16 319,-483 284.22,-453.56 318.13,-416.03 283,-387 278.52,-383.3 273.67,-380.07 268.57,-377.26"/>
<polygon fill="#63b8ff" stroke="#63b8ff" points="321.56,-489.42 331.86,-491.9 325.36,-483.54 321.56,-489.42"/>
</a>
</g>
</g>
<!-- Node25 -->
<g id="Node000025" class="node">
<title>Node25</title>
<g id="a_Node000025"><a xlink:href="classcom_1_1teragrep_1_1pth__06_1_1planner_1_1walker_1_1conditions_1_1SourceTypeConditionTest.html#ad61c6c368d81f41a20c821b7df11ee5e" target="_top" xlink:title=" ">
<polygon fill="white" stroke="#666666" points="265.5,-330 17.5,-330 17.5,-300 265.5,-300 265.5,-330"/>
<text text-anchor="start" x="25.5" y="-318" font-family="Helvetica,sans-Serif" font-size="10.00">com.teragrep.pth_06.planner.walker.conditions.</text>
<text text-anchor="middle" x="141.5" y="-307" font-family="Helvetica,sans-Serif" font-size="10.00">SourceTypeConditionTest.conditionTest</text>
</a>
</g>
</g>
<!-- Node24&#45;&gt;Node25 -->
<g id="edge25_Node000024_Node000025" class="edge">
<title>Node24&#45;&gt;Node25</title>
<g id="a_edge25_Node000024_Node000025"><a xlink:title=" ">
<path fill="none" stroke="#63b8ff" d="M405.55,-238.76C373.98,-255.07 326.64,-277.63 283,-291 271.88,-294.41 260.11,-297.37 248.3,-299.94"/>
<polygon fill="#63b8ff" stroke="#63b8ff" points="407.17,-241.86 414.42,-234.13 403.93,-235.65 407.17,-241.86"/>
</a>
</g>
</g>
<!-- Node26 -->
<g id="Node000026" class="node">
<title>Node26</title>
<g id="a_Node000026"><a xlink:href="classcom_1_1teragrep_1_1pth__06_1_1planner_1_1walker_1_1conditions_1_1SourceTypeConditionTest.html#a76f49325228f45cf50bf3de5d96ef616" target="_top" xlink:title=" ">
<polygon fill="white" stroke="#666666" points="265.5,-282 17.5,-282 17.5,-252 265.5,-252 265.5,-282"/>
<text text-anchor="start" x="25.5" y="-270" font-family="Helvetica,sans-Serif" font-size="10.00">com.teragrep.pth_06.planner.walker.conditions.</text>
<text text-anchor="middle" x="141.5" y="-259" font-family="Helvetica,sans-Serif" font-size="10.00">SourceTypeConditionTest.equalsTest</text>
</a>
</g>
</g>
<!-- Node24&#45;&gt;Node26 -->
<g id="edge26_Node000024_Node000026" class="edge">
<title>Node24&#45;&gt;Node26</title>
<g id="a_edge26_Node000024_Node000026"><a xlink:title=" ">
<path fill="none" stroke="#63b8ff" d="M337.9,-235.68C304.8,-240.99 268.42,-246.82 236.11,-252"/>
<polygon fill="#63b8ff" stroke="#63b8ff" points="338.74,-239.09 348.06,-234.06 337.63,-232.18 338.74,-239.09"/>
</a>
</g>
</g>
<!-- Node27 -->
<g id="Node000027" class="node">
<title>Node27</title>
<g id="a_Node000027"><a xlink:href="classcom_1_1teragrep_1_1pth__06_1_1planner_1_1walker_1_1conditions_1_1SourceTypeConditionTest.html#a3236482704d05e3a1466e1c56ad4f3b8" target="_top" xlink:title=" ">
<polygon fill="white" stroke="#666666" points="265.5,-234 17.5,-234 17.5,-204 265.5,-204 265.5,-234"/>
<text text-anchor="start" x="25.5" y="-222" font-family="Helvetica,sans-Serif" font-size="10.00">com.teragrep.pth_06.planner.walker.conditions.</text>
<text text-anchor="middle" x="141.5" y="-211" font-family="Helvetica,sans-Serif" font-size="10.00">SourceTypeConditionTest.negationTest</text>
</a>
</g>
</g>
<!-- Node24&#45;&gt;Node27 -->
<g id="edge27_Node000024_Node000027" class="edge">
<title>Node24&#45;&gt;Node27</title>
<g id="a_edge27_Node000024_Node000027"><a xlink:title=" ">
<path fill="none" stroke="#63b8ff" d="M308.53,-219C294.25,-219 279.77,-219 265.62,-219"/>
<polygon fill="#63b8ff" stroke="#63b8ff" points="308.89,-222.5 318.89,-219 308.89,-215.5 308.89,-222.5"/>
</a>
</g>
</g>
<!-- Node28 -->
<g id="Node000028" class="node">
<title>Node28</title>
<g id="a_Node000028"><a xlink:href="classcom_1_1teragrep_1_1pth__06_1_1planner_1_1walker_1_1conditions_1_1SourceTypeConditionTest.html#a9f2dc0472ec9279fdf91456dc29cd983" target="_top" xlink:title=" ">
<polygon fill="white" stroke="#666666" points="265.5,-186 17.5,-186 17.5,-156 265.5,-156 265.5,-186"/>
<text text-anchor="start" x="25.5" y="-174" font-family="Helvetica,sans-Serif" font-size="10.00">com.teragrep.pth_06.planner.walker.conditions.</text>
<text text-anchor="middle" x="141.5" y="-163" font-family="Helvetica,sans-Serif" font-size="10.00">SourceTypeConditionTest.testPartialWildcard</text>
</a>
</g>
</g>
<!-- Node24&#45;&gt;Node28 -->
<g id="edge28_Node000024_Node000028" class="edge">
<title>Node24&#45;&gt;Node28</title>
<g id="a_edge28_Node000024_Node000028"><a xlink:title=" ">
<path fill="none" stroke="#63b8ff" d="M337.9,-202.32C304.8,-197.01 268.42,-191.18 236.11,-186"/>
<polygon fill="#63b8ff" stroke="#63b8ff" points="337.63,-205.82 348.06,-203.94 338.74,-198.91 337.63,-205.82"/>
</a>
</g>
</g>
<!-- Node29 -->
<g id="Node000029" class="node">
<title>Node29</title>
<g id="a_Node000029"><a xlink:href="classcom_1_1teragrep_1_1pth__06_1_1planner_1_1walker_1_1conditions_1_1SourceTypeConditionTest.html#a087d6af1eb68621d0218ff09d7112615" target="_top" xlink:title=" ">
<polygon fill="white" stroke="#666666" points="265.5,-137.5 17.5,-137.5 17.5,-96.5 265.5,-96.5 265.5,-137.5"/>
<text text-anchor="start" x="25.5" y="-125.5" font-family="Helvetica,sans-Serif" font-size="10.00">com.teragrep.pth_06.planner.walker.conditions.</text>
<text text-anchor="start" x="25.5" y="-114.5" font-family="Helvetica,sans-Serif" font-size="10.00">SourceTypeConditionTest.testPartialWildcard</text>
<text text-anchor="middle" x="141.5" y="-103.5" font-family="Helvetica,sans-Serif" font-size="10.00">Negation</text>
</a>
</g>
</g>
<!-- Node24&#45;&gt;Node29 -->
<g id="edge29_Node000024_Node000029" class="edge">
<title>Node24&#45;&gt;Node29</title>
<g id="a_edge29_Node000024_Node000029"><a xlink:title=" ">
<path fill="none" stroke="#63b8ff" d="M327.15,-199.63C324.36,-198.19 321.63,-196.65 319,-195 296.41,-180.84 305.47,-161.36 283,-147 277.43,-143.44 271.51,-140.3 265.37,-137.52"/>
<polygon fill="#63b8ff" stroke="#63b8ff" points="325.75,-202.84 336.29,-203.89 328.71,-196.5 325.75,-202.84"/>
</a>
</g>
</g>
<!-- Node30 -->
<g id="Node000030" class="node">
<title>Node30</title>
<g id="a_Node000030"><a xlink:href="classcom_1_1teragrep_1_1pth__06_1_1planner_1_1walker_1_1conditions_1_1SourceTypeConditionTest.html#a130b0848f18b3c8c976cc421a14b030d" target="_top" xlink:title=" ">
<polygon fill="white" stroke="#666666" points="265.5,-78 17.5,-78 17.5,-48 265.5,-48 265.5,-78"/>
<text text-anchor="start" x="25.5" y="-66" font-family="Helvetica,sans-Serif" font-size="10.00">com.teragrep.pth_06.planner.walker.conditions.</text>
<text text-anchor="middle" x="141.5" y="-55" font-family="Helvetica,sans-Serif" font-size="10.00">SourceTypeConditionTest.wildcardAsTrueTest</text>
</a>
</g>
</g>
<!-- Node24&#45;&gt;Node30 -->
<g id="edge30_Node000024_Node000030" class="edge">
<title>Node24&#45;&gt;Node30</title>
<g id="a_edge30_Node000024_Node000030"><a xlink:title=" ">
<path fill="none" stroke="#63b8ff" d="M323.08,-198.33C321.68,-197.27 320.32,-196.16 319,-195 281.26,-161.94 321.01,-120.75 283,-88 277.74,-83.47 271.96,-79.64 265.82,-76.39"/>
<polygon fill="#63b8ff" stroke="#63b8ff" points="321.17,-201.27 331.44,-203.91 325.06,-195.44 321.17,-201.27"/>
</a>
</g>
</g>
<!-- Node31 -->
<g id="Node000031" class="node">
<title>Node31</title>
<g id="a_Node000031"><a xlink:href="classcom_1_1teragrep_1_1pth__06_1_1planner_1_1walker_1_1conditions_1_1SourceTypeConditionTest.html#a74139121d37e0ac4f0d63ddc3d36e2de" target="_top" xlink:title=" ">
<polygon fill="white" stroke="#666666" points="283,-30 0,-30 0,0 283,0 283,-30"/>
<text text-anchor="start" x="8" y="-18" font-family="Helvetica,sans-Serif" font-size="10.00">com.teragrep.pth_06.planner.walker.conditions.</text>
<text text-anchor="middle" x="141.5" y="-7" font-family="Helvetica,sans-Serif" font-size="10.00">SourceTypeConditionTest.wildcardNegationAsFalseTest</text>
</a>
</g>
</g>
<!-- Node24&#45;&gt;Node31 -->
<g id="edge31_Node000024_Node000031" class="edge">
<title>Node24&#45;&gt;Node31</title>
<g id="a_edge31_Node000024_Node000031"><a xlink:title=" ">
<path fill="none" stroke="#63b8ff" d="M321.98,-197.71C320.96,-196.84 319.97,-195.94 319,-195 267.83,-145.55 334.74,-87.84 283,-39 279.49,-35.69 275.7,-32.74 271.69,-30.12"/>
<polygon fill="#63b8ff" stroke="#63b8ff" points="320.09,-200.67 330.2,-203.84 324.27,-195.06 320.09,-200.67"/>
</a>
</g>
</g>
</g>
</svg>
