<?xml version="1.0" encoding="UTF-8" standalone="no"?>
<!DOCTYPE svg PUBLIC "-//W3C//DTD SVG 1.1//EN"
 "http://www.w3.org/Graphics/SVG/1.1/DTD/svg11.dtd">
<!-- Generated by graphviz version 2.43.0 (0)
 -->
<!-- Title: com.teragrep.pth_06.planner.MockDBRow.directory Pages: 1 -->
<svg width="634pt" height="188pt"
 viewBox="0.00 0.00 634.00 187.50" xmlns="http://www.w3.org/2000/svg" xmlns:xlink="http://www.w3.org/1999/xlink">
<g id="graph0" class="graph" transform="scale(1 1) rotate(0) translate(4 183.5)">
<title>com.teragrep.pth_06.planner.MockDBRow.directory</title>
<!-- Node1 -->
<g id="Node000001" class="node">
<title>Node1</title>
<g id="a_Node000001"><a xlink:title=" ">
<polygon fill="#999999" stroke="#666666" points="626,-102 466,-102 466,-72 626,-72 626,-102"/>
<text text-anchor="start" x="474" y="-90" font-family="Helvetica,sans-Serif" font-size="10.00">com.teragrep.pth_06.planner.</text>
<text text-anchor="middle" x="546" y="-79" font-family="Helvetica,sans-Serif" font-size="10.00">MockDBRow.directory</text>
</a>
</g>
</g>
<!-- Node2 -->
<g id="Node000002" class="node">
<title>Node2</title>
<g id="a_Node000002"><a xlink:href="classcom_1_1teragrep_1_1pth__06_1_1planner_1_1RecordableMockDBRow.html#a5d01e7e5a34afbe40f547160e6cfe0cb" target="_top" xlink:title=" ">
<polygon fill="white" stroke="#666666" points="421,-174 241,-174 241,-144 421,-144 421,-174"/>
<text text-anchor="start" x="249" y="-162" font-family="Helvetica,sans-Serif" font-size="10.00">com.teragrep.pth_06.planner.</text>
<text text-anchor="middle" x="331" y="-151" font-family="Helvetica,sans-Serif" font-size="10.00">RecordableMockDBRow.asRecord</text>
</a>
</g>
</g>
<!-- Node1&#45;&gt;Node2 -->
<g id="edge1_Node000001_Node000002" class="edge">
<title>Node1&#45;&gt;Node2</title>
<g id="a_edge1_Node000001_Node000002"><a xlink:title=" ">
<path fill="none" stroke="#63b8ff" d="M503.58,-106.12C481.96,-115.63 454.88,-126.81 430,-135 420.18,-138.23 409.69,-141.24 399.34,-143.97"/>
<polygon fill="#63b8ff" stroke="#63b8ff" points="505.08,-109.29 512.79,-102.03 502.23,-102.89 505.08,-109.29"/>
</a>
</g>
</g>
<!-- Node4 -->
<g id="Node000004" class="node">
<title>Node4</title>
<g id="a_Node000004"><a xlink:href="classcom_1_1teragrep_1_1pth__06_1_1planner_1_1MockDBNonSyslogRowImpl.html#a982a98afec9e5df1da645d8954256ab6" target="_top" xlink:title=" ">
<polygon fill="white" stroke="#666666" points="430,-126 232,-126 232,-96 430,-96 430,-126"/>
<text text-anchor="start" x="240" y="-114" font-family="Helvetica,sans-Serif" font-size="10.00">com.teragrep.pth_06.planner.</text>
<text text-anchor="middle" x="331" y="-103" font-family="Helvetica,sans-Serif" font-size="10.00">MockDBNonSyslogRowImpl.directory</text>
</a>
</g>
</g>
<!-- Node1&#45;&gt;Node4 -->
<g id="edge3_Node000001_Node000004" class="edge">
<title>Node1&#45;&gt;Node4</title>
<g id="a_edge3_Node000001_Node000004"><a xlink:title=" ">
<path fill="none" stroke="#63b8ff" d="M456,-97.03C447.42,-98 438.68,-98.98 430.02,-99.96"/>
<polygon fill="#63b8ff" stroke="#63b8ff" points="456.44,-100.5 465.99,-95.9 455.66,-93.54 456.44,-100.5"/>
</a>
</g>
</g>
<!-- Node5 -->
<g id="Node000005" class="node">
<title>Node5</title>
<g id="a_Node000005"><a xlink:href="classcom_1_1teragrep_1_1pth__06_1_1planner_1_1RecordableMockDBRow.html#a28f751473f5d5a3e12dc9f38ccefd618" target="_top" xlink:title=" ">
<polygon fill="white" stroke="#666666" points="420.5,-78 241.5,-78 241.5,-48 420.5,-48 420.5,-78"/>
<text text-anchor="start" x="249.5" y="-66" font-family="Helvetica,sans-Serif" font-size="10.00">com.teragrep.pth_06.planner.</text>
<text text-anchor="middle" x="331" y="-55" font-family="Helvetica,sans-Serif" font-size="10.00">RecordableMockDBRow.directory</text>
</a>
</g>
</g>
<!-- Node1&#45;&gt;Node5 -->
<g id="edge4_Node000001_Node000005" class="edge">
<title>Node1&#45;&gt;Node5</title>
<g id="a_edge4_Node000001_Node000005"><a xlink:title=" ">
<path fill="none" stroke="#63b8ff" d="M455.83,-76.95C444.17,-75.64 432.22,-74.29 420.56,-72.98"/>
<polygon fill="#63b8ff" stroke="#63b8ff" points="455.66,-80.46 465.99,-78.1 456.44,-73.5 455.66,-80.46"/>
</a>
</g>
</g>
<!-- Node6 -->
<g id="Node000006" class="node">
<title>Node6</title>
<g id="a_Node000006"><a xlink:href="classcom_1_1teragrep_1_1pth__06_1_1planner_1_1MockDBNonSyslogRowImpl.html#a87a0075c19bcbe2553e0ff06c7502209" target="_top" xlink:title=" ">
<polygon fill="white" stroke="#666666" points="427.5,-30 234.5,-30 234.5,0 427.5,0 427.5,-30"/>
<text text-anchor="start" x="242.5" y="-18" font-family="Helvetica,sans-Serif" font-size="10.00">com.teragrep.pth_06.planner.</text>
<text text-anchor="middle" x="331" y="-7" font-family="Helvetica,sans-Serif" font-size="10.00">MockDBNonSyslogRowImpl.toString</text>
</a>
</g>
</g>
<!-- Node1&#45;&gt;Node6 -->
<g id="edge5_Node000001_Node000006" class="edge">
<title>Node1&#45;&gt;Node6</title>
<g id="a_edge5_Node000001_Node000006"><a xlink:title=" ">
<path fill="none" stroke="#63b8ff" d="M503.58,-67.88C481.96,-58.37 454.88,-47.19 430,-39 420.18,-35.77 409.69,-32.76 399.34,-30.03"/>
<polygon fill="#63b8ff" stroke="#63b8ff" points="502.23,-71.11 512.79,-71.97 505.08,-64.71 502.23,-71.11"/>
</a>
</g>
</g>
<!-- Node3 -->
<g id="Node000003" class="node">
<title>Node3</title>
<g id="a_Node000003"><a xlink:href="classcom_1_1teragrep_1_1pth__06_1_1planner_1_1MockArchiveQueryProcessor.html#a50946d3d03b029b854379437ce092d6e" target="_top" xlink:title=" ">
<polygon fill="white" stroke="#666666" points="196,-179.5 0,-179.5 0,-138.5 196,-138.5 196,-179.5"/>
<text text-anchor="start" x="8" y="-167.5" font-family="Helvetica,sans-Serif" font-size="10.00">com.teragrep.pth_06.planner.</text>
<text text-anchor="start" x="8" y="-156.5" font-family="Helvetica,sans-Serif" font-size="10.00">MockArchiveQueryProcessor.process</text>
<text text-anchor="middle" x="98" y="-145.5" font-family="Helvetica,sans-Serif" font-size="10.00">BetweenUnixEpochHours</text>
</a>
</g>
</g>
<!-- Node2&#45;&gt;Node3 -->
<g id="edge2_Node000002_Node000003" class="edge">
<title>Node2&#45;&gt;Node3</title>
<g id="a_edge2_Node000002_Node000003"><a xlink:title=" ">
<path fill="none" stroke="#63b8ff" d="M230.69,-159C219.23,-159 207.55,-159 196.12,-159"/>
<polygon fill="#63b8ff" stroke="#63b8ff" points="230.69,-162.5 240.69,-159 230.69,-155.5 230.69,-162.5"/>
</a>
</g>
</g>
</g>
</svg>
