<?xml version="1.0" encoding="UTF-8" standalone="no"?>
<!DOCTYPE svg PUBLIC "-//W3C//DTD SVG 1.1//EN"
 "http://www.w3.org/Graphics/SVG/1.1/DTD/svg11.dtd">
<!-- Generated by graphviz version 2.43.0 (0)
 -->
<!-- Title: com.teragrep.pth_06.planner.walker.conditions.ElementConditionTest.testTimeQualifiers Pages: 1 -->
<svg width="1392pt" height="253pt"
 viewBox="0.00 0.00 1392.00 253.00" xmlns="http://www.w3.org/2000/svg" xmlns:xlink="http://www.w3.org/1999/xlink">
<g id="graph0" class="graph" transform="scale(1 1) rotate(0) translate(4 249)">
<title>com.teragrep.pth_06.planner.walker.conditions.ElementConditionTest.testTimeQualifiers</title>
<!-- Node1 -->
<g id="Node000001" class="node">
<title>Node1</title>
<g id="a_Node000001"><a xlink:title=" ">
<polygon fill="#999999" stroke="#666666" points="248,-132 0,-132 0,-102 248,-102 248,-132"/>
<text text-anchor="start" x="8" y="-120" font-family="Helvetica,sans-Serif" font-size="10.00">com.teragrep.pth_06.planner.walker.conditions.</text>
<text text-anchor="middle" x="124" y="-109" font-family="Helvetica,sans-Serif" font-size="10.00">ElementConditionTest.testTimeQualifiers</text>
</a>
</g>
</g>
<!-- Node2 -->
<g id="Node000002" class="node">
<title>Node2</title>
<g id="a_Node000002"><a xlink:href="classcom_1_1teragrep_1_1pth__06_1_1planner_1_1walker_1_1conditions_1_1ElementCondition.html#a77e4bd928b9d9dd1e2ef3380f65e3ab7" target="_top" xlink:title=" ">
<polygon fill="white" stroke="#666666" points="532,-132 284,-132 284,-102 532,-102 532,-132"/>
<text text-anchor="start" x="292" y="-120" font-family="Helvetica,sans-Serif" font-size="10.00">com.teragrep.pth_06.planner.walker.conditions.</text>
<text text-anchor="middle" x="408" y="-109" font-family="Helvetica,sans-Serif" font-size="10.00">ElementCondition.condition</text>
</a>
</g>
</g>
<!-- Node1&#45;&gt;Node2 -->
<g id="edge1_Node000001_Node000002" class="edge">
<title>Node1&#45;&gt;Node2</title>
<g id="a_edge1_Node000001_Node000002"><a xlink:title=" ">
<path fill="none" stroke="#63b8ff" d="M248.28,-117C256.6,-117 265.01,-117 273.38,-117"/>
<polygon fill="#63b8ff" stroke="#63b8ff" points="273.57,-120.5 283.57,-117 273.57,-113.5 273.57,-120.5"/>
</a>
</g>
</g>
<!-- Node2&#45;&gt;Node2 -->
<g id="edge2_Node000002_Node000002" class="edge">
<title>Node2&#45;&gt;Node2</title>
<g id="a_edge2_Node000002_Node000002"><a xlink:title=" ">
<path fill="none" stroke="#63b8ff" d="M358.08,-132.28C346.98,-141.41 363.62,-150 408,-150 434.69,-150 451.35,-146.89 457.97,-142.42"/>
<polygon fill="#63b8ff" stroke="#63b8ff" points="461.47,-142.26 457.92,-132.28 454.47,-142.29 461.47,-142.26"/>
</a>
</g>
</g>
<!-- Node3 -->
<g id="Node000003" class="node">
<title>Node3</title>
<g id="a_Node000003"><a xlink:href="interfacecom_1_1teragrep_1_1pth__06_1_1planner_1_1walker_1_1conditions_1_1QueryCondition.html#aac40ccff3997039d273d50bd5ca122c0" target="_top" xlink:title=" ">
<polygon fill="white" stroke="#666666" points="816,-245 568,-245 568,-215 816,-215 816,-245"/>
<text text-anchor="start" x="576" y="-233" font-family="Helvetica,sans-Serif" font-size="10.00">com.teragrep.pth_06.planner.walker.conditions.</text>
<text text-anchor="middle" x="692" y="-222" font-family="Helvetica,sans-Serif" font-size="10.00">QueryCondition.condition</text>
</a>
</g>
</g>
<!-- Node2&#45;&gt;Node3 -->
<g id="edge3_Node000002_Node000003" class="edge">
<title>Node2&#45;&gt;Node3</title>
<g id="a_edge3_Node000002_Node000003"><a xlink:title=" ">
<path fill="none" stroke="#63b8ff" d="M430.56,-132.03C460.18,-151.95 515.73,-186.83 568,-206 574.24,-208.29 580.75,-210.38 587.37,-212.27"/>
<polygon fill="#63b8ff" stroke="#63b8ff" points="586.56,-215.68 597.13,-214.92 588.39,-208.92 586.56,-215.68"/>
</a>
</g>
</g>
<!-- Node4 -->
<g id="Node000004" class="node">
<title>Node4</title>
<g id="a_Node000004"><a xlink:href="classcom_1_1teragrep_1_1pth__06_1_1planner_1_1walker_1_1conditions_1_1ElementCondition.html#af0985b4b7e16956dfcb2fed869fbd0b9" target="_top" xlink:title=" ">
<polygon fill="white" stroke="#666666" points="816,-197 568,-197 568,-167 816,-167 816,-197"/>
<text text-anchor="start" x="576" y="-185" font-family="Helvetica,sans-Serif" font-size="10.00">com.teragrep.pth_06.planner.walker.conditions.</text>
<text text-anchor="middle" x="692" y="-174" font-family="Helvetica,sans-Serif" font-size="10.00">ElementCondition.equals</text>
</a>
</g>
</g>
<!-- Node2&#45;&gt;Node4 -->
<g id="edge4_Node000002_Node000004" class="edge">
<title>Node2&#45;&gt;Node4</title>
<g id="a_edge4_Node000002_Node000004"><a xlink:title=" ">
<path fill="none" stroke="#63b8ff" d="M474.41,-132.08C516.61,-141.8 571.64,-154.49 615.67,-164.64"/>
<polygon fill="#63b8ff" stroke="#63b8ff" points="614.93,-168.06 625.46,-166.89 616.5,-161.24 614.93,-168.06"/>
</a>
</g>
</g>
<!-- Node6 -->
<g id="Node000006" class="node">
<title>Node6</title>
<g id="a_Node000006"><a xlink:href="classcom_1_1teragrep_1_1pth__06_1_1planner_1_1walker_1_1conditions_1_1ElementCondition.html#af340b59529954bf83536432d3512af34" target="_top" xlink:title=" ">
<polygon fill="white" stroke="#666666" points="816,-111 568,-111 568,-81 816,-81 816,-111"/>
<text text-anchor="start" x="576" y="-99" font-family="Helvetica,sans-Serif" font-size="10.00">com.teragrep.pth_06.planner.walker.conditions.</text>
<text text-anchor="middle" x="692" y="-88" font-family="Helvetica,sans-Serif" font-size="10.00">ElementCondition.isBloomSearchCondition</text>
</a>
</g>
</g>
<!-- Node2&#45;&gt;Node6 -->
<g id="edge7_Node000002_Node000006" class="edge">
<title>Node2&#45;&gt;Node6</title>
<g id="a_edge7_Node000002_Node000006"><a xlink:title=" ">
<path fill="none" stroke="#63b8ff" d="M532.28,-107.82C540.6,-107.2 549.01,-106.57 557.38,-105.95"/>
<polygon fill="#63b8ff" stroke="#63b8ff" points="557.86,-109.42 567.57,-105.19 557.34,-102.44 557.86,-109.42"/>
</a>
</g>
</g>
<!-- Node7 -->
<g id="Node000007" class="node">
<title>Node7</title>
<g id="a_Node000007"><a xlink:href="classcom_1_1teragrep_1_1pth__06_1_1planner_1_1walker_1_1conditions_1_1ValidElement.html#a7a4670f256d613e6433c461cf275ae5c" target="_top" xlink:title=" ">
<polygon fill="white" stroke="#666666" points="1100,-126 852,-126 852,-96 1100,-96 1100,-126"/>
<text text-anchor="start" x="860" y="-114" font-family="Helvetica,sans-Serif" font-size="10.00">com.teragrep.pth_06.planner.walker.conditions.</text>
<text text-anchor="middle" x="976" y="-103" font-family="Helvetica,sans-Serif" font-size="10.00">ValidElement.operation</text>
</a>
</g>
</g>
<!-- Node2&#45;&gt;Node7 -->
<g id="edge12_Node000002_Node000007" class="edge">
<title>Node2&#45;&gt;Node7</title>
<g id="a_edge12_Node000002_Node000007"><a xlink:title=" ">
<path fill="none" stroke="#63b8ff" d="M532.36,-120.19C613.08,-121.72 720.82,-122.69 816,-120 824.34,-119.76 832.93,-119.46 841.59,-119.1"/>
<polygon fill="#63b8ff" stroke="#63b8ff" points="841.93,-122.59 851.77,-118.66 841.63,-115.6 841.93,-122.59"/>
</a>
</g>
</g>
<!-- Node9 -->
<g id="Node000009" class="node">
<title>Node9</title>
<g id="a_Node000009"><a xlink:href="classcom_1_1teragrep_1_1pth__06_1_1planner_1_1walker_1_1conditions_1_1ValidElement.html#a5f5d7e1e5a7d4596f0df0c86657fa310" target="_top" xlink:title=" ">
<polygon fill="white" stroke="#666666" points="1100,-78 852,-78 852,-48 1100,-48 1100,-78"/>
<text text-anchor="start" x="860" y="-66" font-family="Helvetica,sans-Serif" font-size="10.00">com.teragrep.pth_06.planner.walker.conditions.</text>
<text text-anchor="middle" x="976" y="-55" font-family="Helvetica,sans-Serif" font-size="10.00">ValidElement.tag</text>
</a>
</g>
</g>
<!-- Node2&#45;&gt;Node9 -->
<g id="edge13_Node000002_Node000009" class="edge">
<title>Node2&#45;&gt;Node9</title>
<g id="a_edge13_Node000002_Node000009"><a xlink:title=" ">
<path fill="none" stroke="#63b8ff" d="M450.88,-102C482.57,-91.42 527.43,-78.09 568,-72 658.65,-58.4 761.92,-56.27 841.75,-57.48"/>
<polygon fill="#63b8ff" stroke="#63b8ff" points="841.81,-60.98 851.87,-57.65 841.93,-53.98 841.81,-60.98"/>
</a>
</g>
</g>
<!-- Node10 -->
<g id="Node000010" class="node">
<title>Node10</title>
<g id="a_Node000010"><a xlink:href="classcom_1_1teragrep_1_1pth__06_1_1planner_1_1walker_1_1conditions_1_1ValidElement.html#ac0ea2df270c90db9d9cc284d8f56222d" target="_top" xlink:title=" ">
<polygon fill="white" stroke="#666666" points="1100,-30 852,-30 852,0 1100,0 1100,-30"/>
<text text-anchor="start" x="860" y="-18" font-family="Helvetica,sans-Serif" font-size="10.00">com.teragrep.pth_06.planner.walker.conditions.</text>
<text text-anchor="middle" x="976" y="-7" font-family="Helvetica,sans-Serif" font-size="10.00">ValidElement.value</text>
</a>
</g>
</g>
<!-- Node2&#45;&gt;Node10 -->
<g id="edge14_Node000002_Node000010" class="edge">
<title>Node2&#45;&gt;Node10</title>
<g id="a_edge14_Node000002_Node000010"><a xlink:title=" ">
<path fill="none" stroke="#63b8ff" d="M438.91,-101.91C470.24,-86.83 521.3,-64.32 568,-53 657.78,-31.23 761.5,-21.77 841.77,-17.74"/>
<polygon fill="#63b8ff" stroke="#63b8ff" points="842.11,-21.23 851.93,-17.25 841.78,-14.23 842.11,-21.23"/>
</a>
</g>
</g>
<!-- Node5 -->
<g id="Node000005" class="node">
<title>Node5</title>
<g id="a_Node000005"><a xlink:href="classcom_1_1teragrep_1_1pth__06_1_1planner_1_1walker_1_1conditions_1_1ValidElement.html#a0e51edc7515990155bc9a915cd687eff" target="_top" xlink:title=" ">
<polygon fill="white" stroke="#666666" points="1100,-197 852,-197 852,-167 1100,-167 1100,-197"/>
<text text-anchor="start" x="860" y="-185" font-family="Helvetica,sans-Serif" font-size="10.00">com.teragrep.pth_06.planner.walker.conditions.</text>
<text text-anchor="middle" x="976" y="-174" font-family="Helvetica,sans-Serif" font-size="10.00">ValidElement.equals</text>
</a>
</g>
</g>
<!-- Node4&#45;&gt;Node5 -->
<g id="edge5_Node000004_Node000005" class="edge">
<title>Node4&#45;&gt;Node5</title>
<g id="a_edge5_Node000004_Node000005"><a xlink:title=" ">
<path fill="none" stroke="#63b8ff" d="M816.28,-182C824.6,-182 833.01,-182 841.38,-182"/>
<polygon fill="#63b8ff" stroke="#63b8ff" points="841.57,-185.5 851.57,-182 841.57,-178.5 841.57,-185.5"/>
</a>
</g>
</g>
<!-- Node5&#45;&gt;Node5 -->
<g id="edge6_Node000005_Node000005" class="edge">
<title>Node5&#45;&gt;Node5</title>
<g id="a_edge6_Node000005_Node000005"><a xlink:title=" ">
<path fill="none" stroke="#63b8ff" d="M926.08,-197.28C914.98,-206.41 931.62,-215 976,-215 1002.69,-215 1019.35,-211.89 1025.97,-207.42"/>
<polygon fill="#63b8ff" stroke="#63b8ff" points="1029.47,-207.26 1025.92,-197.28 1022.47,-207.29 1029.47,-207.26"/>
</a>
</g>
</g>
<!-- Node6&#45;&gt;Node7 -->
<g id="edge8_Node000006_Node000007" class="edge">
<title>Node6&#45;&gt;Node7</title>
<g id="a_edge8_Node000006_Node000007"><a xlink:title=" ">
<path fill="none" stroke="#63b8ff" d="M816.28,-102.56C824.6,-103 833.01,-103.45 841.38,-103.89"/>
<polygon fill="#63b8ff" stroke="#63b8ff" points="841.4,-107.4 851.57,-104.43 841.77,-100.41 841.4,-107.4"/>
</a>
</g>
</g>
<!-- Node6&#45;&gt;Node9 -->
<g id="edge10_Node000006_Node000009" class="edge">
<title>Node6&#45;&gt;Node9</title>
<g id="a_edge10_Node000006_Node000009"><a xlink:title=" ">
<path fill="none" stroke="#63b8ff" d="M816.28,-81.57C824.6,-80.6 833.01,-79.62 841.38,-78.64"/>
<polygon fill="#63b8ff" stroke="#63b8ff" points="842.05,-82.08 851.57,-77.44 841.23,-75.13 842.05,-82.08"/>
</a>
</g>
</g>
<!-- Node8 -->
<g id="Node000008" class="node">
<title>Node8</title>
<g id="a_Node000008"><a xlink:href="classcom_1_1teragrep_1_1pth__06_1_1planner_1_1walker_1_1conditions_1_1ValidElement.html#a5b8694849043fd75636eea63a160b5b1" target="_top" xlink:title=" ">
<polygon fill="white" stroke="#666666" points="1384,-78 1136,-78 1136,-48 1384,-48 1384,-78"/>
<text text-anchor="start" x="1144" y="-66" font-family="Helvetica,sans-Serif" font-size="10.00">com.teragrep.pth_06.planner.walker.conditions.</text>
<text text-anchor="middle" x="1260" y="-55" font-family="Helvetica,sans-Serif" font-size="10.00">ValidElement.validate</text>
</a>
</g>
</g>
<!-- Node7&#45;&gt;Node8 -->
<g id="edge9_Node000007_Node000008" class="edge">
<title>Node7&#45;&gt;Node8</title>
<g id="a_edge9_Node000007_Node000008"><a xlink:title=" ">
<path fill="none" stroke="#63b8ff" d="M1065.45,-95.94C1095.77,-90.78 1129.87,-84.98 1160.9,-79.7"/>
<polygon fill="#63b8ff" stroke="#63b8ff" points="1161.59,-83.13 1170.86,-78 1160.42,-76.23 1161.59,-83.13"/>
</a>
</g>
</g>
<!-- Node9&#45;&gt;Node8 -->
<g id="edge11_Node000009_Node000008" class="edge">
<title>Node9&#45;&gt;Node8</title>
<g id="a_edge11_Node000009_Node000008"><a xlink:title=" ">
<path fill="none" stroke="#63b8ff" d="M1100.28,-63C1108.6,-63 1117.01,-63 1125.38,-63"/>
<polygon fill="#63b8ff" stroke="#63b8ff" points="1125.57,-66.5 1135.57,-63 1125.57,-59.5 1125.57,-66.5"/>
</a>
</g>
</g>
<!-- Node10&#45;&gt;Node8 -->
<g id="edge15_Node000010_Node000008" class="edge">
<title>Node10&#45;&gt;Node8</title>
<g id="a_edge15_Node000010_Node000008"><a xlink:title=" ">
<path fill="none" stroke="#63b8ff" d="M1065.45,-30.06C1095.77,-35.22 1129.87,-41.02 1160.9,-46.3"/>
<polygon fill="#63b8ff" stroke="#63b8ff" points="1160.42,-49.77 1170.86,-48 1161.59,-42.87 1160.42,-49.77"/>
</a>
</g>
</g>
</g>
</svg>
