<?xml version="1.0" encoding="UTF-8" standalone="no"?>
<!DOCTYPE svg PUBLIC "-//W3C//DTD SVG 1.1//EN"
 "http://www.w3.org/Graphics/SVG/1.1/DTD/svg11.dtd">
<!-- Generated by graphviz version 2.43.0 (0)
 -->
<!-- Title: com.teragrep.pth_06.TeragrepScan Pages: 1 -->
<svg width="281pt" height="160pt"
 viewBox="0.00 0.00 281.00 160.00" xmlns="http://www.w3.org/2000/svg" xmlns:xlink="http://www.w3.org/1999/xlink">
<g id="graph0" class="graph" transform="scale(1 1) rotate(0) translate(4 156)">
<title>com.teragrep.pth_06.TeragrepScan</title>
<!-- Node1 -->
<g id="Node000001" class="node">
<title>Node1</title>
<g id="a_Node000001"><a xlink:title=" ">
<polygon fill="#999999" stroke="#666666" points="186,-19 0,-19 0,0 186,0 186,-19"/>
<text text-anchor="middle" x="93" y="-7" font-family="Helvetica,sans-Serif" font-size="10.00">com.teragrep.pth_06.TeragrepScan</text>
</a>
</g>
</g>
<!-- Node2 -->
<g id="Node000002" class="node">
<title>Node2</title>
<g id="a_Node000002"><a xlink:title=" ">
<polygon fill="white" stroke="#666666" points="97,-90.5 57,-90.5 57,-71.5 97,-71.5 97,-90.5"/>
<text text-anchor="middle" x="77" y="-78.5" font-family="Helvetica,sans-Serif" font-size="10.00">Scan</text>
</a>
</g>
</g>
<!-- Node2&#45;&gt;Node1 -->
<g id="edge1_Node000001_Node000002" class="edge">
<title>Node2&#45;&gt;Node1</title>
<g id="a_edge1_Node000001_Node000002"><a xlink:title=" ">
<path fill="none" stroke="#63b8ff" d="M81.23,-61.62C84.4,-47.86 88.59,-29.65 91.02,-19.09"/>
<polygon fill="#63b8ff" stroke="#63b8ff" points="77.79,-60.95 78.96,-71.48 84.62,-62.52 77.79,-60.95"/>
</a>
</g>
</g>
<!-- Node3 -->
<g id="Node000003" class="node">
<title>Node3</title>
<g id="a_Node000003"><a xlink:href="classcom_1_1teragrep_1_1pth__06_1_1ArchiveMicroStreamReader.html" target="_top" xlink:title=" ">
<polygon fill="white" stroke="#666666" points="273,-96 115,-96 115,-66 273,-66 273,-96"/>
<text text-anchor="start" x="123" y="-84" font-family="Helvetica,sans-Serif" font-size="10.00">com.teragrep.pth_06.Archive</text>
<text text-anchor="middle" x="194" y="-73" font-family="Helvetica,sans-Serif" font-size="10.00">MicroStreamReader</text>
</a>
</g>
</g>
<!-- Node3&#45;&gt;Node1 -->
<g id="edge2_Node000001_Node000003" class="edge">
<title>Node3&#45;&gt;Node1</title>
<g id="a_edge2_Node000001_Node000003"><a xlink:title=" ">
<path fill="none" stroke="#9a32cd" stroke-dasharray="5,2" d="M165.21,-60.19C145.47,-46.6 120.26,-29.26 105.45,-19.07"/>
<polygon fill="#9a32cd" stroke="#9a32cd" points="163.34,-63.15 173.56,-65.94 167.31,-57.38 163.34,-63.15"/>
</a>
</g>
<text text-anchor="middle" x="165" y="-40" font-family="Helvetica,sans-Serif" font-size="10.00" fill="grey"> stream</text>
</g>
<!-- Node4 -->
<g id="Node000004" class="node">
<title>Node4</title>
<g id="a_Node000004"><a xlink:title=" ">
<polygon fill="white" stroke="#666666" points="247.5,-152 140.5,-152 140.5,-133 247.5,-133 247.5,-152"/>
<text text-anchor="middle" x="194" y="-140" font-family="Helvetica,sans-Serif" font-size="10.00">MicroBatchStream</text>
</a>
</g>
</g>
<!-- Node4&#45;&gt;Node3 -->
<g id="edge3_Node000003_Node000004" class="edge">
<title>Node4&#45;&gt;Node3</title>
<g id="a_edge3_Node000003_Node000004"><a xlink:title=" ">
<path fill="none" stroke="#63b8ff" d="M194,-122.73C194,-114.09 194,-104 194,-96.02"/>
<polygon fill="#63b8ff" stroke="#63b8ff" points="190.5,-122.98 194,-132.98 197.5,-122.98 190.5,-122.98"/>
</a>
</g>
</g>
</g>
</svg>
