<?xml version="1.0" encoding="UTF-8" standalone="no"?>
<!DOCTYPE svg PUBLIC "-//W3C//DTD SVG 1.1//EN"
 "http://www.w3.org/Graphics/SVG/1.1/DTD/svg11.dtd">
<!-- Generated by graphviz version 2.43.0 (0)
 -->
<!-- Title: com.teragrep.pth_06.planner.bloomfilter.TableFilters.asBatch Pages: 1 -->
<svg width="474pt" height="86pt"
 viewBox="0.00 0.00 474.00 86.00" xmlns="http://www.w3.org/2000/svg" xmlns:xlink="http://www.w3.org/1999/xlink">
<g id="graph0" class="graph" transform="scale(1 1) rotate(0) translate(4 82)">
<title>com.teragrep.pth_06.planner.bloomfilter.TableFilters.asBatch</title>
<!-- Node1 -->
<g id="Node000001" class="node">
<title>Node1</title>
<g id="a_Node000001"><a xlink:title=" ">
<polygon fill="#999999" stroke="#666666" points="215,-54 0,-54 0,-24 215,-24 215,-54"/>
<text text-anchor="start" x="8" y="-42" font-family="Helvetica,sans-Serif" font-size="10.00">com.teragrep.pth_06.planner.bloomfilter.</text>
<text text-anchor="middle" x="107.5" y="-31" font-family="Helvetica,sans-Serif" font-size="10.00">TableFilters.asBatch</text>
</a>
</g>
</g>
<!-- Node2 -->
<g id="Node000002" class="node">
<title>Node2</title>
<g id="a_Node000002"><a xlink:href="classcom_1_1teragrep_1_1pth__06_1_1planner_1_1bloomfilter_1_1SearchTermBloomFilter.html#acf2cdd0516e711dfc8bf0ced8fcaba0f" target="_top" xlink:title=" ">
<polygon fill="white" stroke="#666666" points="466,-78 251,-78 251,-48 466,-48 466,-78"/>
<text text-anchor="start" x="259" y="-66" font-family="Helvetica,sans-Serif" font-size="10.00">com.teragrep.pth_06.planner.bloomfilter.</text>
<text text-anchor="middle" x="358.5" y="-55" font-family="Helvetica,sans-Serif" font-size="10.00">SearchTermBloomFilter.bytes</text>
</a>
</g>
</g>
<!-- Node1&#45;&gt;Node2 -->
<g id="edge1_Node000001_Node000002" class="edge">
<title>Node1&#45;&gt;Node2</title>
<g id="a_edge1_Node000001_Node000002"><a xlink:title=" ">
<path fill="none" stroke="#63b8ff" d="M215.18,-49.28C223.63,-50.1 232.18,-50.92 240.69,-51.74"/>
<polygon fill="#63b8ff" stroke="#63b8ff" points="240.35,-55.22 250.64,-52.7 241.03,-48.26 240.35,-55.22"/>
</a>
</g>
</g>
<!-- Node3 -->
<g id="Node000003" class="node">
<title>Node3</title>
<g id="a_Node000003"><a xlink:href="interfacecom_1_1teragrep_1_1pth__06_1_1planner_1_1bloomfilter_1_1TableRecords.html#ad700fc4fcc82d62b6c69204f569aa974" target="_top" xlink:title=" ">
<polygon fill="white" stroke="#666666" points="466,-30 251,-30 251,0 466,0 466,-30"/>
<text text-anchor="start" x="259" y="-18" font-family="Helvetica,sans-Serif" font-size="10.00">com.teragrep.pth_06.planner.bloomfilter.</text>
<text text-anchor="middle" x="358.5" y="-7" font-family="Helvetica,sans-Serif" font-size="10.00">TableRecords.toResult</text>
</a>
</g>
</g>
<!-- Node1&#45;&gt;Node3 -->
<g id="edge2_Node000001_Node000003" class="edge">
<title>Node1&#45;&gt;Node3</title>
<g id="a_edge2_Node000001_Node000003"><a xlink:title=" ">
<path fill="none" stroke="#63b8ff" d="M215.18,-28.72C223.63,-27.9 232.18,-27.08 240.69,-26.26"/>
<polygon fill="#63b8ff" stroke="#63b8ff" points="241.03,-29.74 250.64,-25.3 240.35,-22.78 241.03,-29.74"/>
</a>
</g>
</g>
</g>
</svg>
