<?xml version="1.0" encoding="UTF-8" standalone="no"?>
<!DOCTYPE svg PUBLIC "-//W3C//DTD SVG 1.1//EN"
 "http://www.w3.org/Graphics/SVG/1.1/DTD/svg11.dtd">
<!-- Generated by graphviz version 2.43.0 (0)
 -->
<!-- Title: com.teragrep.pth_06.planner.ArchiveQueryProcessor.seekToResults Pages: 1 -->
<svg width="660pt" height="49pt"
 viewBox="0.00 0.00 660.00 49.00" xmlns="http://www.w3.org/2000/svg" xmlns:xlink="http://www.w3.org/1999/xlink">
<g id="graph0" class="graph" transform="scale(1 1) rotate(0) translate(4 45)">
<title>com.teragrep.pth_06.planner.ArchiveQueryProcessor.seekToResults</title>
<!-- Node1 -->
<g id="Node000001" class="node">
<title>Node1</title>
<g id="a_Node000001"><a xlink:title="Increment the rolling day and pull data for that day into the sliceTable.">
<polygon fill="#999999" stroke="#666666" points="202,-35.5 0,-35.5 0,-5.5 202,-5.5 202,-35.5"/>
<text text-anchor="start" x="8" y="-23.5" font-family="Helvetica,sans-Serif" font-size="10.00">com.teragrep.pth_06.planner.</text>
<text text-anchor="middle" x="101" y="-12.5" font-family="Helvetica,sans-Serif" font-size="10.00">ArchiveQueryProcessor.seekToResults</text>
</a>
</g>
</g>
<!-- Node2 -->
<g id="Node000002" class="node">
<title>Node2</title>
<g id="a_Node000002"><a xlink:href="classcom_1_1teragrep_1_1pth__06_1_1planner_1_1StreamDBClient.html#adbe4b13c48e67d8d82ae4ed9ee93f7df" target="_top" xlink:title=" ">
<polygon fill="white" stroke="#666666" points="413,-35.5 238,-35.5 238,-5.5 413,-5.5 413,-35.5"/>
<text text-anchor="start" x="246" y="-23.5" font-family="Helvetica,sans-Serif" font-size="10.00">com.teragrep.pth_06.planner.</text>
<text text-anchor="middle" x="325.5" y="-12.5" font-family="Helvetica,sans-Serif" font-size="10.00">StreamDBClient.pullToSliceTable</text>
</a>
</g>
</g>
<!-- Node1&#45;&gt;Node2 -->
<g id="edge1_Node000001_Node000002" class="edge">
<title>Node1&#45;&gt;Node2</title>
<g id="a_edge1_Node000001_Node000002"><a xlink:title=" ">
<path fill="none" stroke="#63b8ff" d="M202.18,-20.5C210.63,-20.5 219.16,-20.5 227.58,-20.5"/>
<polygon fill="#63b8ff" stroke="#63b8ff" points="227.79,-24 237.79,-20.5 227.79,-17 227.79,-24"/>
</a>
</g>
</g>
<!-- Node3 -->
<g id="Node000003" class="node">
<title>Node3</title>
<g id="a_Node000003"><a xlink:href="classcom_1_1teragrep_1_1pth__06_1_1planner_1_1StreamDBClient_1_1NestedTopNQuery.html#a075cb3c8ebd348fc7ed9ee9105cb778c" target="_top" xlink:title=" ">
<polygon fill="white" stroke="#666666" points="652,-41 449,-41 449,0 652,0 652,-41"/>
<text text-anchor="start" x="457" y="-29" font-family="Helvetica,sans-Serif" font-size="10.00">com.teragrep.pth_06.planner.</text>
<text text-anchor="start" x="457" y="-18" font-family="Helvetica,sans-Serif" font-size="10.00">StreamDBClient.NestedTopNQuery.get</text>
<text text-anchor="middle" x="550.5" y="-7" font-family="Helvetica,sans-Serif" font-size="10.00">TableStatement</text>
</a>
</g>
</g>
<!-- Node2&#45;&gt;Node3 -->
<g id="edge2_Node000002_Node000003" class="edge">
<title>Node2&#45;&gt;Node3</title>
<g id="a_edge2_Node000002_Node000003"><a xlink:title=" ">
<path fill="none" stroke="#63b8ff" d="M413.04,-20.5C421.48,-20.5 430.13,-20.5 438.78,-20.5"/>
<polygon fill="#63b8ff" stroke="#63b8ff" points="438.91,-24 448.91,-20.5 438.91,-17 438.91,-24"/>
</a>
</g>
</g>
</g>
</svg>
