<?xml version="1.0" encoding="UTF-8" standalone="no"?>
<!DOCTYPE svg PUBLIC "-//W3C//DTD SVG 1.1//EN"
 "http://www.w3.org/Graphics/SVG/1.1/DTD/svg11.dtd">
<!-- Generated by graphviz version 2.43.0 (0)
 -->
<!-- Title: Graphical Class Hierarchy Pages: 1 -->
<svg width="309pt" height="326pt"
 viewBox="0.00 0.00 309.00 326.00" xmlns="http://www.w3.org/2000/svg" xmlns:xlink="http://www.w3.org/1999/xlink">
<g id="graph0" class="graph" transform="scale(1 1) rotate(0) translate(4 322)">
<title>Graphical Class Hierarchy</title>
<!-- Node0 -->
<g id="Node000000" class="node">
<title>Node0</title>
<g id="a_Node000000"><a xlink:title=" ">
<polygon fill="#e0e0e0" stroke="#999999" points="60,-288.5 14,-288.5 14,-269.5 60,-269.5 60,-288.5"/>
<text text-anchor="middle" x="37" y="-276.5" font-family="Helvetica,sans-Serif" font-size="10.00">Offset</text>
</a>
</g>
</g>
<!-- Node1 -->
<g id="Node000001" class="node">
<title>Node1</title>
<g id="a_Node000001"><a xlink:href="classcom_1_1teragrep_1_1pth__06_1_1planner_1_1offset_1_1DatasourceOffset.html" target="_top" xlink:title=" ">
<polygon fill="white" stroke="#666666" points="301,-270 110,-270 110,-240 301,-240 301,-270"/>
<text text-anchor="start" x="118" y="-258" font-family="Helvetica,sans-Serif" font-size="10.00">com.teragrep.pth_06.planner.offset.</text>
<text text-anchor="middle" x="205.5" y="-247" font-family="Helvetica,sans-Serif" font-size="10.00">DatasourceOffset</text>
</a>
</g>
</g>
<!-- Node0&#45;&gt;Node1 -->
<g id="edge62_Node000000_Node000001" class="edge">
<title>Node0&#45;&gt;Node1</title>
<g id="a_edge62_Node000000_Node000001"><a xlink:title=" ">
<path fill="none" stroke="#63b8ff" d="M70.15,-274.37C81.81,-272.69 95.64,-270.69 109.93,-268.63"/>
<polygon fill="#63b8ff" stroke="#63b8ff" points="69.51,-270.92 60.11,-275.81 70.51,-277.85 69.51,-270.92"/>
</a>
</g>
</g>
<!-- Node5 -->
<g id="Node000005" class="node">
<title>Node5</title>
<g id="a_Node000005"><a xlink:href="classcom_1_1teragrep_1_1pth__06_1_1planner_1_1offset_1_1KafkaOffset.html" target="_top" xlink:title=" ">
<polygon fill="white" stroke="#666666" points="301,-318 110,-318 110,-288 301,-288 301,-318"/>
<text text-anchor="start" x="118" y="-306" font-family="Helvetica,sans-Serif" font-size="10.00">com.teragrep.pth_06.planner.offset.</text>
<text text-anchor="middle" x="205.5" y="-295" font-family="Helvetica,sans-Serif" font-size="10.00">KafkaOffset</text>
</a>
</g>
</g>
<!-- Node0&#45;&gt;Node5 -->
<g id="edge63_Node000000_Node000005" class="edge">
<title>Node0&#45;&gt;Node5</title>
<g id="a_edge63_Node000000_Node000005"><a xlink:title=" ">
<path fill="none" stroke="#63b8ff" d="M70.15,-283.63C81.81,-285.31 95.64,-287.31 109.93,-289.37"/>
<polygon fill="#63b8ff" stroke="#63b8ff" points="70.51,-280.15 60.11,-282.19 69.51,-287.08 70.51,-280.15"/>
</a>
</g>
</g>
<!-- Node2 -->
<g id="Node000002" class="node">
<title>Node2</title>
<g id="a_Node000002"><a xlink:title=" ">
<polygon fill="#e0e0e0" stroke="#999999" points="74,-168.5 0,-168.5 0,-149.5 74,-149.5 74,-168.5"/>
<text text-anchor="middle" x="37" y="-156.5" font-family="Helvetica,sans-Serif" font-size="10.00">Serializable</text>
</a>
</g>
</g>
<!-- Node2&#45;&gt;Node1 -->
<g id="edge66_Node000002_Node000001" class="edge">
<title>Node2&#45;&gt;Node1</title>
<g id="a_edge66_Node000002_Node000001"><a xlink:title=" ">
<path fill="none" stroke="#63b8ff" d="M51.17,-176.84C64.28,-193.33 85.88,-217.29 110,-231 116.03,-234.43 122.56,-237.38 129.26,-239.91"/>
<polygon fill="#63b8ff" stroke="#63b8ff" points="53.67,-174.35 44.79,-168.56 48.12,-178.62 53.67,-174.35"/>
</a>
</g>
</g>
<!-- Node2&#45;&gt;Node5 -->
<g id="edge67_Node000002_Node000005" class="edge">
<title>Node2&#45;&gt;Node5</title>
<g id="a_edge67_Node000002_Node000005"><a xlink:title=" ">
<path fill="none" stroke="#63b8ff" d="M44.25,-178.26C53.95,-205.03 75.22,-253.13 110,-279 114.62,-282.43 119.68,-285.38 124.98,-287.91"/>
<polygon fill="#63b8ff" stroke="#63b8ff" points="47.46,-176.83 40.89,-168.52 40.84,-179.11 47.46,-176.83"/>
</a>
</g>
</g>
<!-- Node3 -->
<g id="Node000003" class="node">
<title>Node3</title>
<g id="a_Node000003"><a xlink:href="classcom_1_1teragrep_1_1pth__06_1_1ArchiveS3ObjectMetadata.html" target="_top" xlink:title=" ">
<polygon fill="white" stroke="#666666" points="284.5,-174 126.5,-174 126.5,-144 284.5,-144 284.5,-174"/>
<text text-anchor="start" x="134.5" y="-162" font-family="Helvetica,sans-Serif" font-size="10.00">com.teragrep.pth_06.Archive</text>
<text text-anchor="middle" x="205.5" y="-151" font-family="Helvetica,sans-Serif" font-size="10.00">S3ObjectMetadata</text>
</a>
</g>
</g>
<!-- Node2&#45;&gt;Node3 -->
<g id="edge64_Node000002_Node000003" class="edge">
<title>Node2&#45;&gt;Node3</title>
<g id="a_edge64_Node000002_Node000003"><a xlink:title=" ">
<path fill="none" stroke="#63b8ff" d="M84.27,-159C97.36,-159 111.99,-159 126.41,-159"/>
<polygon fill="#63b8ff" stroke="#63b8ff" points="84.13,-155.5 74.13,-159 84.13,-162.5 84.13,-155.5"/>
</a>
</g>
</g>
<!-- Node4 -->
<g id="Node000004" class="node">
<title>Node4</title>
<g id="a_Node000004"><a xlink:href="classcom_1_1teragrep_1_1pth__06_1_1KafkaTopicPartitionOffsetMetadata.html" target="_top" xlink:title=" ">
<polygon fill="white" stroke="#666666" points="284.5,-126 126.5,-126 126.5,-96 284.5,-96 284.5,-126"/>
<text text-anchor="start" x="134.5" y="-114" font-family="Helvetica,sans-Serif" font-size="10.00">com.teragrep.pth_06.Kafka</text>
<text text-anchor="middle" x="205.5" y="-103" font-family="Helvetica,sans-Serif" font-size="10.00">TopicPartitionOffsetMetadata</text>
</a>
</g>
</g>
<!-- Node2&#45;&gt;Node4 -->
<g id="edge65_Node000002_Node000004" class="edge">
<title>Node2&#45;&gt;Node4</title>
<g id="a_edge65_Node000002_Node000004"><a xlink:title=" ">
<path fill="none" stroke="#63b8ff" d="M74.74,-146.18C86,-142.41 98.46,-138.38 110,-135 120.48,-131.93 131.67,-128.88 142.56,-126.04"/>
<polygon fill="#63b8ff" stroke="#63b8ff" points="73.55,-142.89 65.2,-149.41 75.8,-149.52 73.55,-142.89"/>
</a>
</g>
</g>
<!-- Node6 -->
<g id="Node000006" class="node">
<title>Node6</title>
<g id="a_Node000006"><a xlink:href="classcom_1_1teragrep_1_1pth__06_1_1planner_1_1offset_1_1SerializedDatasourceOffset.html" target="_top" xlink:title=" ">
<polygon fill="white" stroke="#666666" points="301,-78 110,-78 110,-48 301,-48 301,-78"/>
<text text-anchor="start" x="118" y="-66" font-family="Helvetica,sans-Serif" font-size="10.00">com.teragrep.pth_06.planner.offset.</text>
<text text-anchor="middle" x="205.5" y="-55" font-family="Helvetica,sans-Serif" font-size="10.00">SerializedDatasourceOffset</text>
</a>
</g>
</g>
<!-- Node2&#45;&gt;Node6 -->
<g id="edge68_Node000002_Node000006" class="edge">
<title>Node2&#45;&gt;Node6</title>
<g id="a_edge68_Node000002_Node000006"><a xlink:title=" ">
<path fill="none" stroke="#63b8ff" d="M51.17,-141.16C64.28,-124.67 85.88,-100.71 110,-87 116.03,-83.57 122.56,-80.62 129.26,-78.09"/>
<polygon fill="#63b8ff" stroke="#63b8ff" points="48.12,-139.38 44.79,-149.44 53.67,-143.65 48.12,-139.38"/>
</a>
</g>
</g>
<!-- Node7 -->
<g id="Node000007" class="node">
<title>Node7</title>
<g id="a_Node000007"><a xlink:href="classcom_1_1teragrep_1_1pth__06_1_1scheduler_1_1BatchSlice.html" target="_top" xlink:title=" ">
<polygon fill="white" stroke="#666666" points="290.5,-30 120.5,-30 120.5,0 290.5,0 290.5,-30"/>
<text text-anchor="start" x="128.5" y="-18" font-family="Helvetica,sans-Serif" font-size="10.00">com.teragrep.pth_06.scheduler.</text>
<text text-anchor="middle" x="205.5" y="-7" font-family="Helvetica,sans-Serif" font-size="10.00">BatchSlice</text>
</a>
</g>
</g>
<!-- Node2&#45;&gt;Node7 -->
<g id="edge69_Node000002_Node000007" class="edge">
<title>Node2&#45;&gt;Node7</title>
<g id="a_edge69_Node000002_Node000007"><a xlink:title=" ">
<path fill="none" stroke="#63b8ff" d="M44.25,-139.74C53.95,-112.97 75.22,-64.87 110,-39 114.62,-35.57 119.68,-32.62 124.98,-30.09"/>
<polygon fill="#63b8ff" stroke="#63b8ff" points="40.84,-138.89 40.89,-149.48 47.46,-141.17 40.84,-138.89"/>
</a>
</g>
</g>
<!-- Node8 -->
<g id="Node000008" class="node">
<title>Node8</title>
<g id="a_Node000008"><a xlink:href="classcom_1_1teragrep_1_1pth__06_1_1task_1_1Metadata.html" target="_top" xlink:title=" ">
<polygon fill="white" stroke="#666666" points="278,-222 133,-222 133,-192 278,-192 278,-222"/>
<text text-anchor="start" x="141" y="-210" font-family="Helvetica,sans-Serif" font-size="10.00">com.teragrep.pth_06.task.</text>
<text text-anchor="middle" x="205.5" y="-199" font-family="Helvetica,sans-Serif" font-size="10.00">Metadata</text>
</a>
</g>
</g>
<!-- Node2&#45;&gt;Node8 -->
<g id="edge70_Node000002_Node000008" class="edge">
<title>Node2&#45;&gt;Node8</title>
<g id="a_edge70_Node000002_Node000008"><a xlink:title=" ">
<path fill="none" stroke="#63b8ff" d="M74.74,-171.82C86,-175.59 98.46,-179.62 110,-183 120.48,-186.07 131.67,-189.12 142.56,-191.96"/>
<polygon fill="#63b8ff" stroke="#63b8ff" points="75.8,-168.48 65.2,-168.59 73.55,-175.11 75.8,-168.48"/>
</a>
</g>
</g>
</g>
</svg>
