<?xml version="1.0" encoding="UTF-8" standalone="no"?>
<!DOCTYPE svg PUBLIC "-//W3C//DTD SVG 1.1//EN"
 "http://www.w3.org/Graphics/SVG/1.1/DTD/svg11.dtd">
<!-- Generated by graphviz version 2.43.0 (0)
 -->
<!-- Title: com.teragrep.pth_06.planner.bloomfilter.Tokenizable.tokens Pages: 1 -->
<svg width="755pt" height="86pt"
 viewBox="0.00 0.00 755.00 86.00" xmlns="http://www.w3.org/2000/svg" xmlns:xlink="http://www.w3.org/1999/xlink">
<g id="graph0" class="graph" transform="scale(1 1) rotate(0) translate(4 82)">
<title>com.teragrep.pth_06.planner.bloomfilter.Tokenizable.tokens</title>
<!-- Node1 -->
<g id="Node000001" class="node">
<title>Node1</title>
<g id="a_Node000001"><a xlink:title=" ">
<polygon fill="#999999" stroke="#666666" points="747,-54 532,-54 532,-24 747,-24 747,-54"/>
<text text-anchor="start" x="540" y="-42" font-family="Helvetica,sans-Serif" font-size="10.00">com.teragrep.pth_06.planner.bloomfilter.</text>
<text text-anchor="middle" x="639.5" y="-31" font-family="Helvetica,sans-Serif" font-size="10.00">Tokenizable.tokens</text>
</a>
</g>
</g>
<!-- Node2 -->
<g id="Node000002" class="node">
<title>Node2</title>
<g id="a_Node000002"><a xlink:href="classcom_1_1teragrep_1_1pth__06_1_1planner_1_1bloomfilter_1_1TokensAsStringsTest.html#a70450bdc715e1397a4df71be6b894803" target="_top" xlink:title=" ">
<polygon fill="white" stroke="#666666" points="496,-78 281,-78 281,-48 496,-48 496,-78"/>
<text text-anchor="start" x="289" y="-66" font-family="Helvetica,sans-Serif" font-size="10.00">com.teragrep.pth_06.planner.bloomfilter.</text>
<text text-anchor="middle" x="388.5" y="-55" font-family="Helvetica,sans-Serif" font-size="10.00">TokensAsStringsTest.testTokensToStrings</text>
</a>
</g>
</g>
<!-- Node1&#45;&gt;Node2 -->
<g id="edge1_Node000001_Node000002" class="edge">
<title>Node1&#45;&gt;Node2</title>
<g id="a_edge1_Node000001_Node000002"><a xlink:title=" ">
<path fill="none" stroke="#63b8ff" d="M521.86,-50.24C513.36,-51.06 504.8,-51.89 496.36,-52.7"/>
<polygon fill="#63b8ff" stroke="#63b8ff" points="522.2,-53.73 531.82,-49.28 521.53,-46.76 522.2,-53.73"/>
</a>
</g>
</g>
<!-- Node3 -->
<g id="Node000003" class="node">
<title>Node3</title>
<g id="a_Node000003"><a xlink:href="classcom_1_1teragrep_1_1pth__06_1_1planner_1_1bloomfilter_1_1TokensAsStrings.html#a31bdcfdf061b4a83aa0c6bb0d2ee3923" target="_top" xlink:title=" ">
<polygon fill="white" stroke="#666666" points="496,-30 281,-30 281,0 496,0 496,-30"/>
<text text-anchor="start" x="289" y="-18" font-family="Helvetica,sans-Serif" font-size="10.00">com.teragrep.pth_06.planner.bloomfilter.</text>
<text text-anchor="middle" x="388.5" y="-7" font-family="Helvetica,sans-Serif" font-size="10.00">TokensAsStrings.tokens</text>
</a>
</g>
</g>
<!-- Node1&#45;&gt;Node3 -->
<g id="edge2_Node000001_Node000003" class="edge">
<title>Node1&#45;&gt;Node3</title>
<g id="a_edge2_Node000001_Node000003"><a xlink:title=" ">
<path fill="none" stroke="#63b8ff" d="M521.86,-27.76C513.36,-26.94 504.8,-26.11 496.36,-25.3"/>
<polygon fill="#63b8ff" stroke="#63b8ff" points="521.53,-31.24 531.82,-28.72 522.2,-24.27 521.53,-31.24"/>
</a>
</g>
</g>
<!-- Node4 -->
<g id="Node000004" class="node">
<title>Node4</title>
<g id="a_Node000004"><a xlink:href="classcom_1_1teragrep_1_1pth__06_1_1planner_1_1bloomfilter_1_1SearchTermBloomFilter.html#aa9952da5f61acf577c3d157dd4551593" target="_top" xlink:title=" ">
<polygon fill="white" stroke="#666666" points="245,-30 0,-30 0,0 245,0 245,-30"/>
<text text-anchor="start" x="8" y="-18" font-family="Helvetica,sans-Serif" font-size="10.00">com.teragrep.pth_06.planner.bloomfilter.</text>
<text text-anchor="middle" x="122.5" y="-7" font-family="Helvetica,sans-Serif" font-size="10.00">SearchTermBloomFilter.SearchTermBloomFilter</text>
</a>
</g>
</g>
<!-- Node3&#45;&gt;Node4 -->
<g id="edge3_Node000003_Node000004" class="edge">
<title>Node3&#45;&gt;Node4</title>
<g id="a_edge3_Node000003_Node000004"><a xlink:title=" ">
<path fill="none" stroke="#63b8ff" d="M270.65,-15C262.21,-15 253.69,-15 245.23,-15"/>
<polygon fill="#63b8ff" stroke="#63b8ff" points="270.88,-18.5 280.88,-15 270.88,-11.5 270.88,-18.5"/>
</a>
</g>
</g>
</g>
</svg>
