<?xml version="1.0" encoding="UTF-8" standalone="no"?>
<!DOCTYPE svg PUBLIC "-//W3C//DTD SVG 1.1//EN"
 "http://www.w3.org/Graphics/SVG/1.1/DTD/svg11.dtd">
<!-- Generated by graphviz version 2.43.0 (0)
 -->
<!-- Title: com.teragrep.pth_06.planner.walker.conditions.HostCondition.condition Pages: 1 -->
<svg width="542pt" height="326pt"
 viewBox="0.00 0.00 542.00 326.00" xmlns="http://www.w3.org/2000/svg" xmlns:xlink="http://www.w3.org/1999/xlink">
<g id="graph0" class="graph" transform="scale(1 1) rotate(0) translate(4 322)">
<title>com.teragrep.pth_06.planner.walker.conditions.HostCondition.condition</title>
<!-- Node1 -->
<g id="Node000001" class="node">
<title>Node1</title>
<g id="a_Node000001"><a xlink:title=" ">
<polygon fill="#999999" stroke="#666666" points="534,-174 286,-174 286,-144 534,-144 534,-174"/>
<text text-anchor="start" x="294" y="-162" font-family="Helvetica,sans-Serif" font-size="10.00">com.teragrep.pth_06.planner.walker.conditions.</text>
<text text-anchor="middle" x="410" y="-151" font-family="Helvetica,sans-Serif" font-size="10.00">HostCondition.condition</text>
</a>
</g>
</g>
<!-- Node2 -->
<g id="Node000002" class="node">
<title>Node2</title>
<g id="a_Node000002"><a xlink:href="classcom_1_1teragrep_1_1pth__06_1_1planner_1_1walker_1_1conditions_1_1HostConditionTest.html#ac5fb835f367a0f5fc3295da6e4550324" target="_top" xlink:title=" ">
<polygon fill="white" stroke="#666666" points="249,-318 1,-318 1,-288 249,-288 249,-318"/>
<text text-anchor="start" x="9" y="-306" font-family="Helvetica,sans-Serif" font-size="10.00">com.teragrep.pth_06.planner.walker.conditions.</text>
<text text-anchor="middle" x="125" y="-295" font-family="Helvetica,sans-Serif" font-size="10.00">HostConditionTest.conditionTest</text>
</a>
</g>
</g>
<!-- Node1&#45;&gt;Node2 -->
<g id="edge1_Node000001_Node000002" class="edge">
<title>Node1&#45;&gt;Node2</title>
<g id="a_edge1_Node000001_Node000002"><a xlink:title=" ">
<path fill="none" stroke="#63b8ff" d="M386.35,-181.54C357.34,-209.04 304.29,-254.83 250,-279 242.19,-282.48 233.88,-285.45 225.4,-288"/>
<polygon fill="#63b8ff" stroke="#63b8ff" points="389.09,-183.76 393.88,-174.31 384.24,-178.71 389.09,-183.76"/>
</a>
</g>
</g>
<!-- Node3 -->
<g id="Node000003" class="node">
<title>Node3</title>
<g id="a_Node000003"><a xlink:href="classcom_1_1teragrep_1_1pth__06_1_1planner_1_1walker_1_1conditions_1_1HostConditionTest.html#ae2adcfd60fd6418231755cbbdd3c14cc" target="_top" xlink:title=" ">
<polygon fill="white" stroke="#666666" points="249,-270 1,-270 1,-240 249,-240 249,-270"/>
<text text-anchor="start" x="9" y="-258" font-family="Helvetica,sans-Serif" font-size="10.00">com.teragrep.pth_06.planner.walker.conditions.</text>
<text text-anchor="middle" x="125" y="-247" font-family="Helvetica,sans-Serif" font-size="10.00">HostConditionTest.equalsTest</text>
</a>
</g>
</g>
<!-- Node1&#45;&gt;Node3 -->
<g id="edge2_Node000001_Node000003" class="edge">
<title>Node1&#45;&gt;Node3</title>
<g id="a_edge2_Node000001_Node000003"><a xlink:title=" ">
<path fill="none" stroke="#63b8ff" d="M372.18,-178.66C340.57,-194.81 293.36,-217.2 250,-231 239.45,-234.36 228.23,-237.33 217.03,-239.93"/>
<polygon fill="#63b8ff" stroke="#63b8ff" points="373.79,-181.77 381.07,-174.08 370.58,-175.55 373.79,-181.77"/>
</a>
</g>
</g>
<!-- Node4 -->
<g id="Node000004" class="node">
<title>Node4</title>
<g id="a_Node000004"><a xlink:href="classcom_1_1teragrep_1_1pth__06_1_1planner_1_1walker_1_1conditions_1_1HostConditionTest.html#a5cfa1efd300b2f70a6e669698e37ba83" target="_top" xlink:title=" ">
<polygon fill="white" stroke="#666666" points="249,-222 1,-222 1,-192 249,-192 249,-222"/>
<text text-anchor="start" x="9" y="-210" font-family="Helvetica,sans-Serif" font-size="10.00">com.teragrep.pth_06.planner.walker.conditions.</text>
<text text-anchor="middle" x="125" y="-199" font-family="Helvetica,sans-Serif" font-size="10.00">HostConditionTest.negationTest</text>
</a>
</g>
</g>
<!-- Node1&#45;&gt;Node4 -->
<g id="edge3_Node000001_Node000004" class="edge">
<title>Node1&#45;&gt;Node4</title>
<g id="a_edge3_Node000001_Node000004"><a xlink:title=" ">
<path fill="none" stroke="#63b8ff" d="M310.23,-175.75C279.07,-181.04 244.85,-186.84 214.45,-192"/>
<polygon fill="#63b8ff" stroke="#63b8ff" points="310.96,-179.18 320.23,-174.06 309.79,-172.28 310.96,-179.18"/>
</a>
</g>
</g>
<!-- Node5 -->
<g id="Node000005" class="node">
<title>Node5</title>
<g id="a_Node000005"><a xlink:href="classcom_1_1teragrep_1_1pth__06_1_1planner_1_1walker_1_1conditions_1_1HostConditionTest.html#a1bfa9d2d16ee9cff750080cd3e76e412" target="_top" xlink:title=" ">
<polygon fill="white" stroke="#666666" points="249,-174 1,-174 1,-144 249,-144 249,-174"/>
<text text-anchor="start" x="9" y="-162" font-family="Helvetica,sans-Serif" font-size="10.00">com.teragrep.pth_06.planner.walker.conditions.</text>
<text text-anchor="middle" x="125" y="-151" font-family="Helvetica,sans-Serif" font-size="10.00">HostConditionTest.testPartialWildcard</text>
</a>
</g>
</g>
<!-- Node1&#45;&gt;Node5 -->
<g id="edge4_Node000001_Node000005" class="edge">
<title>Node1&#45;&gt;Node5</title>
<g id="a_edge4_Node000001_Node000005"><a xlink:title=" ">
<path fill="none" stroke="#63b8ff" d="M275.48,-159C266.76,-159 257.99,-159 249.32,-159"/>
<polygon fill="#63b8ff" stroke="#63b8ff" points="275.7,-162.5 285.7,-159 275.7,-155.5 275.7,-162.5"/>
</a>
</g>
</g>
<!-- Node6 -->
<g id="Node000006" class="node">
<title>Node6</title>
<g id="a_Node000006"><a xlink:href="classcom_1_1teragrep_1_1pth__06_1_1planner_1_1walker_1_1conditions_1_1HostConditionTest.html#a4b66535f188bdd912a3b75ddc8378a24" target="_top" xlink:title=" ">
<polygon fill="white" stroke="#666666" points="249,-126 1,-126 1,-96 249,-96 249,-126"/>
<text text-anchor="start" x="9" y="-114" font-family="Helvetica,sans-Serif" font-size="10.00">com.teragrep.pth_06.planner.walker.conditions.</text>
<text text-anchor="middle" x="125" y="-103" font-family="Helvetica,sans-Serif" font-size="10.00">HostConditionTest.testPartialWildcardNegation</text>
</a>
</g>
</g>
<!-- Node1&#45;&gt;Node6 -->
<g id="edge5_Node000001_Node000006" class="edge">
<title>Node1&#45;&gt;Node6</title>
<g id="a_edge5_Node000001_Node000006"><a xlink:title=" ">
<path fill="none" stroke="#63b8ff" d="M310.23,-142.25C279.07,-136.96 244.85,-131.16 214.45,-126"/>
<polygon fill="#63b8ff" stroke="#63b8ff" points="309.79,-145.72 320.23,-143.94 310.96,-138.82 309.79,-145.72"/>
</a>
</g>
</g>
<!-- Node7 -->
<g id="Node000007" class="node">
<title>Node7</title>
<g id="a_Node000007"><a xlink:href="classcom_1_1teragrep_1_1pth__06_1_1planner_1_1walker_1_1conditions_1_1HostConditionTest.html#ac5b9e9dd993fb16cc758e1e190ee14be" target="_top" xlink:title=" ">
<polygon fill="white" stroke="#666666" points="249,-78 1,-78 1,-48 249,-48 249,-78"/>
<text text-anchor="start" x="9" y="-66" font-family="Helvetica,sans-Serif" font-size="10.00">com.teragrep.pth_06.planner.walker.conditions.</text>
<text text-anchor="middle" x="125" y="-55" font-family="Helvetica,sans-Serif" font-size="10.00">HostConditionTest.wildcardAsTrueTest</text>
</a>
</g>
</g>
<!-- Node1&#45;&gt;Node7 -->
<g id="edge6_Node000001_Node000007" class="edge">
<title>Node1&#45;&gt;Node7</title>
<g id="a_edge6_Node000001_Node000007"><a xlink:title=" ">
<path fill="none" stroke="#63b8ff" d="M372.18,-139.34C340.57,-123.19 293.36,-100.8 250,-87 239.45,-83.64 228.23,-80.67 217.03,-78.07"/>
<polygon fill="#63b8ff" stroke="#63b8ff" points="370.58,-142.45 381.07,-143.92 373.79,-136.23 370.58,-142.45"/>
</a>
</g>
</g>
<!-- Node8 -->
<g id="Node000008" class="node">
<title>Node8</title>
<g id="a_Node000008"><a xlink:href="classcom_1_1teragrep_1_1pth__06_1_1planner_1_1walker_1_1conditions_1_1HostConditionTest.html#a94fb6e3883e7e0187f3f744b05e4d72b" target="_top" xlink:title=" ">
<polygon fill="white" stroke="#666666" points="250,-30 0,-30 0,0 250,0 250,-30"/>
<text text-anchor="start" x="8" y="-18" font-family="Helvetica,sans-Serif" font-size="10.00">com.teragrep.pth_06.planner.walker.conditions.</text>
<text text-anchor="middle" x="125" y="-7" font-family="Helvetica,sans-Serif" font-size="10.00">HostConditionTest.wildcardNegationAsFalseTest</text>
</a>
</g>
</g>
<!-- Node1&#45;&gt;Node8 -->
<g id="edge7_Node000001_Node000008" class="edge">
<title>Node1&#45;&gt;Node8</title>
<g id="a_edge7_Node000001_Node000008"><a xlink:title=" ">
<path fill="none" stroke="#63b8ff" d="M386.35,-136.46C357.34,-108.96 304.29,-63.17 250,-39 242.19,-35.52 233.88,-32.55 225.4,-30"/>
<polygon fill="#63b8ff" stroke="#63b8ff" points="384.24,-139.29 393.88,-143.69 389.09,-134.24 384.24,-139.29"/>
</a>
</g>
</g>
</g>
</svg>
