<?xml version="1.0" encoding="UTF-8" standalone="no"?>
<!DOCTYPE svg PUBLIC "-//W3C//DTD SVG 1.1//EN"
 "http://www.w3.org/Graphics/SVG/1.1/DTD/svg11.dtd">
<!-- Generated by graphviz version 2.43.0 (0)
 -->
<!-- Title: com.teragrep.pth_06.planner.ArchiveQueryProcessor Pages: 1 -->
<svg width="959pt" height="257pt"
 viewBox="0.00 0.00 959.00 256.50" xmlns="http://www.w3.org/2000/svg" xmlns:xlink="http://www.w3.org/1999/xlink">
<g id="graph0" class="graph" transform="scale(1 1) rotate(0) translate(4 252.5)">
<title>com.teragrep.pth_06.planner.ArchiveQueryProcessor</title>
<!-- Node1 -->
<g id="Node000001" class="node">
<title>Node1</title>
<g id="a_Node000001"><a xlink:title=" ">
<polygon fill="#999999" stroke="#666666" points="951,-197 791,-197 791,-167 951,-167 951,-197"/>
<text text-anchor="start" x="799" y="-185" font-family="Helvetica,sans-Serif" font-size="10.00">com.teragrep.pth_06.planner.</text>
<text text-anchor="middle" x="871" y="-174" font-family="Helvetica,sans-Serif" font-size="10.00">ArchiveQueryProcessor</text>
</a>
</g>
</g>
<!-- Node2 -->
<g id="Node000002" class="node">
<title>Node2</title>
<g id="a_Node000002"><a xlink:href="interfacecom_1_1teragrep_1_1pth__06_1_1planner_1_1ArchiveQuery.html" target="_top" xlink:title=" ">
<polygon fill="white" stroke="#666666" points="665,-211 505,-211 505,-181 665,-181 665,-211"/>
<text text-anchor="start" x="513" y="-199" font-family="Helvetica,sans-Serif" font-size="10.00">com.teragrep.pth_06.planner.</text>
<text text-anchor="middle" x="585" y="-188" font-family="Helvetica,sans-Serif" font-size="10.00">ArchiveQuery</text>
</a>
</g>
</g>
<!-- Node2&#45;&gt;Node1 -->
<g id="edge1_Node000001_Node000002" class="edge">
<title>Node2&#45;&gt;Node1</title>
<g id="a_edge1_Node000001_Node000002"><a xlink:title=" ">
<path fill="none" stroke="#63b8ff" d="M675.39,-191.59C712.4,-189.77 754.96,-187.67 790.82,-185.9"/>
<polygon fill="#63b8ff" stroke="#63b8ff" points="674.93,-188.11 665.11,-192.1 675.27,-195.1 674.93,-188.11"/>
</a>
</g>
</g>
<!-- Node3 -->
<g id="Node000003" class="node">
<title>Node3</title>
<g id="a_Node000003"><a xlink:href="classcom_1_1teragrep_1_1pth__06_1_1planner_1_1StreamDBClient.html" target="_top" xlink:title=" ">
<polygon fill="white" stroke="#666666" points="665,-163 505,-163 505,-133 665,-133 665,-163"/>
<text text-anchor="start" x="513" y="-151" font-family="Helvetica,sans-Serif" font-size="10.00">com.teragrep.pth_06.planner.</text>
<text text-anchor="middle" x="585" y="-140" font-family="Helvetica,sans-Serif" font-size="10.00">StreamDBClient</text>
</a>
</g>
</g>
<!-- Node3&#45;&gt;Node1 -->
<g id="edge2_Node000001_Node000003" class="edge">
<title>Node3&#45;&gt;Node1</title>
<g id="a_edge2_Node000001_Node000003"><a xlink:title=" ">
<path fill="none" stroke="#9a32cd" stroke-dasharray="5,2" d="M675.39,-158.7C712.4,-163.13 754.96,-168.23 790.82,-172.52"/>
<polygon fill="#9a32cd" stroke="#9a32cd" points="675.46,-155.18 665.11,-157.47 674.62,-162.13 675.46,-155.18"/>
</a>
</g>
<text text-anchor="middle" x="728" y="-174" font-family="Helvetica,sans-Serif" font-size="10.00" fill="grey"> sdc</text>
</g>
<!-- Node7 -->
<g id="Node000007" class="node">
<title>Node7</title>
<g id="a_Node000007"><a xlink:href="classcom_1_1teragrep_1_1pth__06_1_1planner_1_1NestedTopNQuery.html" target="_top" xlink:title=" ">
<polygon fill="white" stroke="#666666" points="951,-96 791,-96 791,-66 951,-66 951,-96"/>
<text text-anchor="start" x="799" y="-84" font-family="Helvetica,sans-Serif" font-size="10.00">com.teragrep.pth_06.planner.</text>
<text text-anchor="middle" x="871" y="-73" font-family="Helvetica,sans-Serif" font-size="10.00">NestedTopNQuery</text>
</a>
</g>
</g>
<!-- Node3&#45;&gt;Node7 -->
<g id="edge9_Node000007_Node000003" class="edge">
<title>Node3&#45;&gt;Node7</title>
<g id="a_edge9_Node000007_Node000003"><a xlink:title=" ">
<path fill="none" stroke="#9a32cd" stroke-dasharray="5,2" d="M675.13,-133.08C706.27,-127.28 741.35,-120.07 773,-112 790.82,-107.46 810.17,-101.49 826.86,-96"/>
<polygon fill="#9a32cd" stroke="#9a32cd" points="674.37,-129.66 665.17,-134.92 675.63,-136.55 674.37,-129.66"/>
</a>
</g>
<text text-anchor="middle" x="728" y="-134" font-family="Helvetica,sans-Serif" font-size="10.00" fill="grey"> streamDBClient</text>
</g>
<!-- Node4 -->
<g id="Node000004" class="node">
<title>Node4</title>
<g id="a_Node000004"><a xlink:title=" ">
<polygon fill="white" stroke="#666666" points="378.5,-248.5 291.5,-248.5 291.5,-229.5 378.5,-229.5 378.5,-248.5"/>
<text text-anchor="middle" x="335" y="-236.5" font-family="Helvetica,sans-Serif" font-size="10.00">AutoCloseable</text>
</a>
</g>
</g>
<!-- Node4&#45;&gt;Node3 -->
<g id="edge3_Node000003_Node000004" class="edge">
<title>Node4&#45;&gt;Node3</title>
<g id="a_edge3_Node000003_Node000004"><a xlink:title=" ">
<path fill="none" stroke="#63b8ff" d="M389.13,-242.31C420.61,-241.54 459.57,-235.51 487,-214 502.98,-201.47 489.87,-185.55 505,-172 508.84,-168.56 513.17,-165.61 517.76,-163.08"/>
<polygon fill="#63b8ff" stroke="#63b8ff" points="388.74,-238.81 378.77,-242.38 388.79,-245.81 388.74,-238.81"/>
</a>
</g>
</g>
<!-- Node5 -->
<g id="Node000005" class="node">
<title>Node5</title>
<g id="a_Node000005"><a xlink:href="classcom_1_1teragrep_1_1pth__06_1_1ConfiguredLogger.html" target="_top" xlink:title=" ">
<polygon fill="white" stroke="#666666" points="173,-143 0,-143 0,-113 173,-113 173,-143"/>
<text text-anchor="start" x="8" y="-131" font-family="Helvetica,sans-Serif" font-size="10.00">com.teragrep.pth_06.Configured</text>
<text text-anchor="middle" x="86.5" y="-120" font-family="Helvetica,sans-Serif" font-size="10.00">Logger</text>
</a>
</g>
</g>
<!-- Node5&#45;&gt;Node3 -->
<g id="edge4_Node000003_Node000005" class="edge">
<title>Node5&#45;&gt;Node3</title>
<g id="a_edge4_Node000003_Node000005"><a xlink:title=" ">
<path fill="none" stroke="#9a32cd" stroke-dasharray="5,2" d="M140.06,-146.13C172.23,-156.26 214.48,-167.86 253,-173 339.11,-184.5 438.59,-173.79 505.82,-163.03"/>
<polygon fill="#9a32cd" stroke="#9a32cd" points="141,-142.76 130.41,-143.04 138.87,-149.43 141,-142.76"/>
</a>
</g>
<text text-anchor="middle" x="335" y="-181" font-family="Helvetica,sans-Serif" font-size="10.00" fill="grey"> LOGGER</text>
</g>
<!-- Node6 -->
<g id="Node000006" class="node">
<title>Node6</title>
<g id="a_Node000006"><a xlink:href="classcom_1_1teragrep_1_1pth__06_1_1planner_1_1GetArchivedObjectsFilterTable.html" target="_top" xlink:title=" ">
<polygon fill="white" stroke="#666666" points="417,-164 253,-164 253,-134 417,-134 417,-164"/>
<text text-anchor="start" x="261" y="-152" font-family="Helvetica,sans-Serif" font-size="10.00">com.teragrep.pth_06.planner.</text>
<text text-anchor="middle" x="335" y="-141" font-family="Helvetica,sans-Serif" font-size="10.00">GetArchivedObjectsFilterTable</text>
</a>
</g>
</g>
<!-- Node5&#45;&gt;Node6 -->
<g id="edge6_Node000006_Node000005" class="edge">
<title>Node5&#45;&gt;Node6</title>
<g id="a_edge6_Node000006_Node000005"><a xlink:title=" ">
<path fill="none" stroke="#9a32cd" stroke-dasharray="5,2" d="M183.14,-136.15C206.14,-138.11 230.5,-140.18 252.78,-142.08"/>
<polygon fill="#9a32cd" stroke="#9a32cd" points="183.28,-132.65 173.02,-135.29 182.69,-139.62 183.28,-132.65"/>
</a>
</g>
<text text-anchor="middle" x="213" y="-144" font-family="Helvetica,sans-Serif" font-size="10.00" fill="grey"> logger</text>
</g>
<!-- Node5&#45;&gt;Node7 -->
<g id="edge8_Node000007_Node000005" class="edge">
<title>Node5&#45;&gt;Node7</title>
<g id="a_edge8_Node000007_Node000005"><a xlink:title=" ">
<path fill="none" stroke="#9a32cd" stroke-dasharray="5,2" d="M134.6,-109.36C167.25,-97.46 212.05,-83.17 253,-77 444.2,-48.21 672.51,-62.01 790.55,-72.65"/>
<polygon fill="#9a32cd" stroke="#9a32cd" points="133.04,-106.2 124.87,-112.96 135.47,-112.77 133.04,-106.2"/>
</a>
</g>
<text text-anchor="middle" x="461" y="-65" font-family="Helvetica,sans-Serif" font-size="10.00" fill="grey"> logger</text>
</g>
<!-- Node9 -->
<g id="Node000009" class="node">
<title>Node9</title>
<g id="a_Node000009"><a xlink:href="classcom_1_1teragrep_1_1pth__06_1_1planner_1_1SliceTable.html" target="_top" xlink:title=" ">
<polygon fill="white" stroke="#666666" points="415,-116 255,-116 255,-86 415,-86 415,-116"/>
<text text-anchor="start" x="263" y="-104" font-family="Helvetica,sans-Serif" font-size="10.00">com.teragrep.pth_06.planner.</text>
<text text-anchor="middle" x="335" y="-93" font-family="Helvetica,sans-Serif" font-size="10.00">SliceTable</text>
</a>
</g>
</g>
<!-- Node5&#45;&gt;Node9 -->
<g id="edge12_Node000009_Node000005" class="edge">
<title>Node5&#45;&gt;Node9</title>
<g id="a_edge12_Node000009_Node000005"><a xlink:title=" ">
<path fill="none" stroke="#9a32cd" stroke-dasharray="5,2" d="M183.09,-117.53C206.82,-114.93 231.99,-112.17 254.83,-109.67"/>
<polygon fill="#9a32cd" stroke="#9a32cd" points="182.58,-114.06 173.02,-118.63 183.34,-121.02 182.58,-114.06"/>
</a>
</g>
<text text-anchor="middle" x="213" y="-120" font-family="Helvetica,sans-Serif" font-size="10.00" fill="grey"> LOGGER</text>
</g>
<!-- Node6&#45;&gt;Node3 -->
<g id="edge5_Node000003_Node000006" class="edge">
<title>Node6&#45;&gt;Node3</title>
<g id="a_edge5_Node000003_Node000006"><a xlink:title=" ">
<path fill="none" stroke="#9a32cd" stroke-dasharray="5,2" d="M427.21,-148.63C452.64,-148.53 480.05,-148.42 504.73,-148.32"/>
<polygon fill="#9a32cd" stroke="#9a32cd" points="427.19,-145.13 417.2,-148.67 427.22,-152.13 427.19,-145.13"/>
</a>
</g>
<text text-anchor="middle" x="461" y="-152" font-family="Helvetica,sans-Serif" font-size="10.00" fill="grey"> filterTable</text>
</g>
<!-- Node7&#45;&gt;Node3 -->
<g id="edge7_Node000003_Node000007" class="edge">
<title>Node7&#45;&gt;Node3</title>
<g id="a_edge7_Node000003_Node000007"><a xlink:title=" ">
<path fill="none" stroke="#9a32cd" stroke-dasharray="5,2" d="M780.58,-84.28C749.26,-87.07 714.16,-92.08 683,-101 657.27,-108.37 630.02,-122.17 610.98,-132.92"/>
<polygon fill="#9a32cd" stroke="#9a32cd" points="780.92,-87.76 790.6,-83.45 780.34,-80.79 780.92,-87.76"/>
</a>
</g>
<text text-anchor="middle" x="728" y="-104" font-family="Helvetica,sans-Serif" font-size="10.00" fill="grey"> nestedTopNQuery</text>
</g>
<!-- Node8 -->
<g id="Node000008" class="node">
<title>Node8</title>
<g id="a_Node000008"><a xlink:title=" ">
<polygon fill="white" stroke="#666666" points="665,-30 505,-30 505,0 665,0 665,-30"/>
<text text-anchor="start" x="513" y="-18" font-family="Helvetica,sans-Serif" font-size="10.00">com.teragrep.pth_06.planner.</text>
<text text-anchor="middle" x="585" y="-7" font-family="Helvetica,sans-Serif" font-size="10.00">SafeLogtimeFunction</text>
</a>
</g>
</g>
<!-- Node8&#45;&gt;Node7 -->
<g id="edge10_Node000007_Node000008" class="edge">
<title>Node8&#45;&gt;Node7</title>
<g id="a_edge10_Node000007_Node000008"><a xlink:title=" ">
<path fill="none" stroke="#9a32cd" stroke-dasharray="5,2" d="M675.45,-17C706.76,-19.42 741.87,-24.12 773,-33 799.2,-40.47 826.84,-54.88 845.88,-65.97"/>
<polygon fill="#9a32cd" stroke="#9a32cd" points="675.65,-13.5 665.43,-16.29 675.15,-20.49 675.65,-13.5"/>
</a>
</g>
<text text-anchor="middle" x="728" y="-36" font-family="Helvetica,sans-Serif" font-size="10.00" fill="grey"> logtimeFunction</text>
</g>
<!-- Node9&#45;&gt;Node3 -->
<g id="edge11_Node000003_Node000009" class="edge">
<title>Node9&#45;&gt;Node3</title>
<g id="a_edge11_Node000003_Node000009"><a xlink:title=" ">
<path fill="none" stroke="#9a32cd" stroke-dasharray="5,2" d="M425.01,-117.87C451.06,-122.81 479.35,-128.17 504.75,-132.98"/>
<polygon fill="#9a32cd" stroke="#9a32cd" points="425.63,-114.42 415.15,-116 424.32,-121.3 425.63,-114.42"/>
</a>
</g>
<text text-anchor="middle" x="461" y="-132" font-family="Helvetica,sans-Serif" font-size="10.00" fill="grey"> sliceTable</text>
</g>
</g>
</svg>
