<?xml version="1.0" encoding="UTF-8" standalone="no"?>
<!DOCTYPE svg PUBLIC "-//W3C//DTD SVG 1.1//EN"
 "http://www.w3.org/Graphics/SVG/1.1/DTD/svg11.dtd">
<!-- Generated by graphviz version 2.43.0 (0)
 -->
<!-- Title: com.teragrep.pth_06.planner.RecordableMockDBRow.asRecord Pages: 1 -->
<svg width="412pt" height="470pt"
 viewBox="0.00 0.00 412.00 470.00" xmlns="http://www.w3.org/2000/svg" xmlns:xlink="http://www.w3.org/1999/xlink">
<g id="graph0" class="graph" transform="scale(1 1) rotate(0) translate(4 466)">
<title>com.teragrep.pth_06.planner.RecordableMockDBRow.asRecord</title>
<!-- Node1 -->
<g id="Node000001" class="node">
<title>Node1</title>
<g id="a_Node000001"><a xlink:title=" ">
<polygon fill="#999999" stroke="#666666" points="180,-246 0,-246 0,-216 180,-216 180,-246"/>
<text text-anchor="start" x="8" y="-234" font-family="Helvetica,sans-Serif" font-size="10.00">com.teragrep.pth_06.planner.</text>
<text text-anchor="middle" x="90" y="-223" font-family="Helvetica,sans-Serif" font-size="10.00">RecordableMockDBRow.asRecord</text>
</a>
</g>
</g>
<!-- Node2 -->
<g id="Node000002" class="node">
<title>Node2</title>
<g id="a_Node000002"><a xlink:href="interfacecom_1_1teragrep_1_1pth__06_1_1planner_1_1MockDBRow.html#ad44471477954593511cbdb304a0ded76" target="_top" xlink:title=" ">
<polygon fill="white" stroke="#666666" points="390,-462 230,-462 230,-432 390,-432 390,-462"/>
<text text-anchor="start" x="238" y="-450" font-family="Helvetica,sans-Serif" font-size="10.00">com.teragrep.pth_06.planner.</text>
<text text-anchor="middle" x="310" y="-439" font-family="Helvetica,sans-Serif" font-size="10.00">MockDBRow.bucket</text>
</a>
</g>
</g>
<!-- Node1&#45;&gt;Node2 -->
<g id="edge1_Node000001_Node000002" class="edge">
<title>Node1&#45;&gt;Node2</title>
<g id="a_edge1_Node000001_Node000002"><a xlink:title=" ">
<path fill="none" stroke="#63b8ff" d="M96.42,-246.22C110.25,-282.76 150.43,-375.88 216,-423 218.07,-424.49 220.23,-425.89 222.46,-427.2"/>
<polygon fill="#63b8ff" stroke="#63b8ff" points="220.85,-430.31 231.34,-431.84 224.09,-424.1 220.85,-430.31"/>
</a>
</g>
</g>
<!-- Node3 -->
<g id="Node000003" class="node">
<title>Node3</title>
<g id="a_Node000003"><a xlink:href="interfacecom_1_1teragrep_1_1pth__06_1_1planner_1_1MockDBRow.html#a72b0def5bf253cb3babc246462187ead" target="_top" xlink:title=" ">
<polygon fill="white" stroke="#666666" points="390,-414 230,-414 230,-384 390,-384 390,-414"/>
<text text-anchor="start" x="238" y="-402" font-family="Helvetica,sans-Serif" font-size="10.00">com.teragrep.pth_06.planner.</text>
<text text-anchor="middle" x="310" y="-391" font-family="Helvetica,sans-Serif" font-size="10.00">MockDBRow.directory</text>
</a>
</g>
</g>
<!-- Node1&#45;&gt;Node3 -->
<g id="edge2_Node000001_Node000003" class="edge">
<title>Node1&#45;&gt;Node3</title>
<g id="a_edge2_Node000001_Node000003"><a xlink:title=" ">
<path fill="none" stroke="#63b8ff" d="M99.83,-246.3C117.76,-275.93 161.39,-341.2 216,-375 218.76,-376.71 221.65,-378.3 224.62,-379.78"/>
<polygon fill="#63b8ff" stroke="#63b8ff" points="223.18,-382.97 233.74,-383.88 226.05,-376.59 223.18,-382.97"/>
</a>
</g>
</g>
<!-- Node4 -->
<g id="Node000004" class="node">
<title>Node4</title>
<g id="a_Node000004"><a xlink:href="interfacecom_1_1teragrep_1_1pth__06_1_1planner_1_1MockDBRow.html#a74ca25ad9ccc26eca93b3a20d359bd4a" target="_top" xlink:title=" ">
<polygon fill="white" stroke="#666666" points="390,-366 230,-366 230,-336 390,-336 390,-366"/>
<text text-anchor="start" x="238" y="-354" font-family="Helvetica,sans-Serif" font-size="10.00">com.teragrep.pth_06.planner.</text>
<text text-anchor="middle" x="310" y="-343" font-family="Helvetica,sans-Serif" font-size="10.00">MockDBRow.filesize</text>
</a>
</g>
</g>
<!-- Node1&#45;&gt;Node4 -->
<g id="edge3_Node000001_Node000004" class="edge">
<title>Node1&#45;&gt;Node4</title>
<g id="a_edge3_Node000001_Node000004"><a xlink:title=" ">
<path fill="none" stroke="#63b8ff" d="M106.17,-246C128.4,-267.15 171.98,-305.53 216,-327 220.07,-328.99 224.33,-330.82 228.68,-332.51"/>
<polygon fill="#63b8ff" stroke="#63b8ff" points="227.74,-335.9 238.34,-336 230.12,-329.31 227.74,-335.9"/>
</a>
</g>
</g>
<!-- Node5 -->
<g id="Node000005" class="node">
<title>Node5</title>
<g id="a_Node000005"><a xlink:href="interfacecom_1_1teragrep_1_1pth__06_1_1planner_1_1MockDBRow.html#aa8ad21bb5a8f9b0594938f79c167ea8a" target="_top" xlink:title=" ">
<polygon fill="white" stroke="#666666" points="390,-318 230,-318 230,-288 390,-288 390,-318"/>
<text text-anchor="start" x="238" y="-306" font-family="Helvetica,sans-Serif" font-size="10.00">com.teragrep.pth_06.planner.</text>
<text text-anchor="middle" x="310" y="-295" font-family="Helvetica,sans-Serif" font-size="10.00">MockDBRow.host</text>
</a>
</g>
</g>
<!-- Node1&#45;&gt;Node5 -->
<g id="edge4_Node000001_Node000005" class="edge">
<title>Node1&#45;&gt;Node5</title>
<g id="a_edge4_Node000001_Node000005"><a xlink:title=" ">
<path fill="none" stroke="#63b8ff" d="M126.99,-246.07C151.75,-256.14 185.56,-269.26 216,-279 222.77,-281.17 229.86,-283.28 236.99,-285.29"/>
<polygon fill="#63b8ff" stroke="#63b8ff" points="236.12,-288.68 246.69,-287.97 237.98,-281.93 236.12,-288.68"/>
</a>
</g>
</g>
<!-- Node6 -->
<g id="Node000006" class="node">
<title>Node6</title>
<g id="a_Node000006"><a xlink:href="interfacecom_1_1teragrep_1_1pth__06_1_1planner_1_1MockDBRow.html#a0774864816bfa4ed24d7037daa10b3b2" target="_top" xlink:title=" ">
<polygon fill="white" stroke="#666666" points="390,-270 230,-270 230,-240 390,-240 390,-270"/>
<text text-anchor="start" x="238" y="-258" font-family="Helvetica,sans-Serif" font-size="10.00">com.teragrep.pth_06.planner.</text>
<text text-anchor="middle" x="310" y="-247" font-family="Helvetica,sans-Serif" font-size="10.00">MockDBRow.id</text>
</a>
</g>
</g>
<!-- Node1&#45;&gt;Node6 -->
<g id="edge5_Node000001_Node000006" class="edge">
<title>Node1&#45;&gt;Node6</title>
<g id="a_edge5_Node000001_Node000006"><a xlink:title=" ">
<path fill="none" stroke="#63b8ff" d="M180.3,-240.83C193.29,-242.26 206.66,-243.73 219.65,-245.16"/>
<polygon fill="#63b8ff" stroke="#63b8ff" points="219.65,-248.68 229.97,-246.3 220.42,-241.73 219.65,-248.68"/>
</a>
</g>
</g>
<!-- Node7 -->
<g id="Node000007" class="node">
<title>Node7</title>
<g id="a_Node000007"><a xlink:href="interfacecom_1_1teragrep_1_1pth__06_1_1planner_1_1MockDBRow.html#ad6525054bcae052f479a03b2e4ca3bf7" target="_top" xlink:title=" ">
<polygon fill="white" stroke="#666666" points="390,-222 230,-222 230,-192 390,-192 390,-222"/>
<text text-anchor="start" x="238" y="-210" font-family="Helvetica,sans-Serif" font-size="10.00">com.teragrep.pth_06.planner.</text>
<text text-anchor="middle" x="310" y="-199" font-family="Helvetica,sans-Serif" font-size="10.00">MockDBRow.logdate</text>
</a>
</g>
</g>
<!-- Node1&#45;&gt;Node7 -->
<g id="edge6_Node000001_Node000007" class="edge">
<title>Node1&#45;&gt;Node7</title>
<g id="a_edge6_Node000001_Node000007"><a xlink:title=" ">
<path fill="none" stroke="#63b8ff" d="M180.3,-221.17C193.29,-219.74 206.66,-218.27 219.65,-216.84"/>
<polygon fill="#63b8ff" stroke="#63b8ff" points="220.42,-220.27 229.97,-215.7 219.65,-213.32 220.42,-220.27"/>
</a>
</g>
</g>
<!-- Node8 -->
<g id="Node000008" class="node">
<title>Node8</title>
<g id="a_Node000008"><a xlink:href="interfacecom_1_1teragrep_1_1pth__06_1_1planner_1_1MockDBRow.html#abbdec5d031093faa980c5b0e86dbaa7e" target="_top" xlink:title=" ">
<polygon fill="white" stroke="#666666" points="390,-174 230,-174 230,-144 390,-144 390,-174"/>
<text text-anchor="start" x="238" y="-162" font-family="Helvetica,sans-Serif" font-size="10.00">com.teragrep.pth_06.planner.</text>
<text text-anchor="middle" x="310" y="-151" font-family="Helvetica,sans-Serif" font-size="10.00">MockDBRow.logtime</text>
</a>
</g>
</g>
<!-- Node1&#45;&gt;Node8 -->
<g id="edge7_Node000001_Node000008" class="edge">
<title>Node1&#45;&gt;Node8</title>
<g id="a_edge7_Node000001_Node000008"><a xlink:title=" ">
<path fill="none" stroke="#63b8ff" d="M126.99,-215.93C151.75,-205.86 185.56,-192.74 216,-183 222.77,-180.83 229.86,-178.72 236.99,-176.71"/>
<polygon fill="#63b8ff" stroke="#63b8ff" points="237.98,-180.07 246.69,-174.03 236.12,-173.32 237.98,-180.07"/>
</a>
</g>
</g>
<!-- Node9 -->
<g id="Node000009" class="node">
<title>Node9</title>
<g id="a_Node000009"><a xlink:href="interfacecom_1_1teragrep_1_1pth__06_1_1planner_1_1MockDBRow.html#ab614cd7a7083bbae02e6cb864d5aea64" target="_top" xlink:title=" ">
<polygon fill="white" stroke="#666666" points="390,-126 230,-126 230,-96 390,-96 390,-126"/>
<text text-anchor="start" x="238" y="-114" font-family="Helvetica,sans-Serif" font-size="10.00">com.teragrep.pth_06.planner.</text>
<text text-anchor="middle" x="310" y="-103" font-family="Helvetica,sans-Serif" font-size="10.00">MockDBRow.path</text>
</a>
</g>
</g>
<!-- Node1&#45;&gt;Node9 -->
<g id="edge8_Node000001_Node000009" class="edge">
<title>Node1&#45;&gt;Node9</title>
<g id="a_edge8_Node000001_Node000009"><a xlink:title=" ">
<path fill="none" stroke="#63b8ff" d="M106.17,-216C128.4,-194.85 171.98,-156.47 216,-135 220.07,-133.01 224.33,-131.18 228.68,-129.49"/>
<polygon fill="#63b8ff" stroke="#63b8ff" points="230.12,-132.69 238.34,-126 227.74,-126.1 230.12,-132.69"/>
</a>
</g>
</g>
<!-- Node10 -->
<g id="Node000010" class="node">
<title>Node10</title>
<g id="a_Node000010"><a xlink:href="interfacecom_1_1teragrep_1_1pth__06_1_1planner_1_1MockDBRow.html#a092b8e42025da6f3c6ad5ea92a1a273f" target="_top" xlink:title=" ">
<polygon fill="white" stroke="#666666" points="390,-78 230,-78 230,-48 390,-48 390,-78"/>
<text text-anchor="start" x="238" y="-66" font-family="Helvetica,sans-Serif" font-size="10.00">com.teragrep.pth_06.planner.</text>
<text text-anchor="middle" x="310" y="-55" font-family="Helvetica,sans-Serif" font-size="10.00">MockDBRow.stream</text>
</a>
</g>
</g>
<!-- Node1&#45;&gt;Node10 -->
<g id="edge9_Node000001_Node000010" class="edge">
<title>Node1&#45;&gt;Node10</title>
<g id="a_edge9_Node000001_Node000010"><a xlink:title=" ">
<path fill="none" stroke="#63b8ff" d="M99.83,-215.7C117.76,-186.07 161.39,-120.8 216,-87 218.76,-85.29 221.65,-83.7 224.62,-82.22"/>
<polygon fill="#63b8ff" stroke="#63b8ff" points="226.05,-85.41 233.74,-78.12 223.18,-79.03 226.05,-85.41"/>
</a>
</g>
</g>
<!-- Node11 -->
<g id="Node000011" class="node">
<title>Node11</title>
<g id="a_Node000011"><a xlink:href="interfacecom_1_1teragrep_1_1pth__06_1_1planner_1_1MockDBRow.html#a530a3c1472c332aacad872702a077e48" target="_top" xlink:title=" ">
<polygon fill="white" stroke="#666666" points="404,-30 216,-30 216,0 404,0 404,-30"/>
<text text-anchor="start" x="224" y="-18" font-family="Helvetica,sans-Serif" font-size="10.00">com.teragrep.pth_06.planner.</text>
<text text-anchor="middle" x="310" y="-7" font-family="Helvetica,sans-Serif" font-size="10.00">MockDBRow.uncompressedFilesize</text>
</a>
</g>
</g>
<!-- Node1&#45;&gt;Node11 -->
<g id="edge10_Node000001_Node000011" class="edge">
<title>Node1&#45;&gt;Node11</title>
<g id="a_edge10_Node000001_Node000011"><a xlink:title=" ">
<path fill="none" stroke="#63b8ff" d="M96.42,-215.78C110.25,-179.24 150.43,-86.12 216,-39 218.07,-37.51 220.23,-36.11 222.46,-34.8"/>
<polygon fill="#63b8ff" stroke="#63b8ff" points="224.09,-37.9 231.34,-30.16 220.85,-31.69 224.09,-37.9"/>
</a>
</g>
</g>
</g>
</svg>
