<?xml version="1.0" encoding="UTF-8" standalone="no"?>
<!DOCTYPE svg PUBLIC "-//W3C//DTD SVG 1.1//EN"
 "http://www.w3.org/Graphics/SVG/1.1/DTD/svg11.dtd">
<!-- Generated by graphviz version 2.43.0 (0)
 -->
<!-- Title: Graphical Class Hierarchy Pages: 1 -->
<svg width="485pt" height="470pt"
 viewBox="0.00 0.00 485.00 470.00" xmlns="http://www.w3.org/2000/svg" xmlns:xlink="http://www.w3.org/1999/xlink">
<g id="graph0" class="graph" transform="scale(1 1) rotate(0) translate(4 466)">
<title>Graphical Class Hierarchy</title>
<!-- Node0 -->
<g id="Node000000" class="node">
<title>Node0</title>
<g id="a_Node000000"><a xlink:title=" ">
<polygon fill="#e0e0e0" stroke="#999999" points="89,-456.5 33,-456.5 33,-437.5 89,-437.5 89,-456.5"/>
<text text-anchor="middle" x="61" y="-444.5" font-family="Helvetica,sans-Serif" font-size="10.00">Record1</text>
</a>
</g>
</g>
<!-- Node1 -->
<g id="Node000001" class="node">
<title>Node1</title>
<g id="a_Node000001"><a xlink:href="classcom_1_1teragrep_1_1pth__06_1_1jooq_1_1generated_1_1journaldb_1_1tables_1_1records_1_1CorruptedArchiveRecord.html" target="_top" xlink:title="Contains logfiles that are both archives and detected to be corrupted.">
<polygon fill="white" stroke="#666666" points="476.5,-462 158.5,-462 158.5,-432 476.5,-432 476.5,-462"/>
<text text-anchor="start" x="166.5" y="-450" font-family="Helvetica,sans-Serif" font-size="10.00">com.teragrep.pth_06.jooq.generated.journaldb.tables.records.</text>
<text text-anchor="middle" x="317.5" y="-439" font-family="Helvetica,sans-Serif" font-size="10.00">CorruptedArchiveRecord</text>
</a>
</g>
</g>
<!-- Node0&#45;&gt;Node1 -->
<g id="edge96_Node000000_Node000001" class="edge">
<title>Node0&#45;&gt;Node1</title>
<g id="a_edge96_Node000000_Node000001"><a xlink:title=" ">
<path fill="none" stroke="#63b8ff" d="M99.46,-447C115.96,-447 136.58,-447 158.48,-447"/>
<polygon fill="#63b8ff" stroke="#63b8ff" points="99.24,-443.5 89.24,-447 99.24,-450.5 99.24,-443.5"/>
</a>
</g>
</g>
<!-- Node6 -->
<g id="Node000006" class="node">
<title>Node6</title>
<g id="a_Node000006"><a xlink:title=" ">
<polygon fill="#e0e0e0" stroke="#999999" points="89,-312.5 33,-312.5 33,-293.5 89,-293.5 89,-312.5"/>
<text text-anchor="middle" x="61" y="-300.5" font-family="Helvetica,sans-Serif" font-size="10.00">Record2</text>
</a>
</g>
</g>
<!-- Node5 -->
<g id="Node000005" class="node">
<title>Node5</title>
<g id="a_Node000005"><a xlink:href="classcom_1_1teragrep_1_1pth__06_1_1jooq_1_1generated_1_1journaldb_1_1tables_1_1records_1_1BucketRecord.html" target="_top" xlink:title="Buckets in object storage.">
<polygon fill="white" stroke="#666666" points="476.5,-366 158.5,-366 158.5,-336 476.5,-336 476.5,-366"/>
<text text-anchor="start" x="166.5" y="-354" font-family="Helvetica,sans-Serif" font-size="10.00">com.teragrep.pth_06.jooq.generated.journaldb.tables.records.</text>
<text text-anchor="middle" x="317.5" y="-343" font-family="Helvetica,sans-Serif" font-size="10.00">BucketRecord</text>
</a>
</g>
</g>
<!-- Node6&#45;&gt;Node5 -->
<g id="edge97_Node000006_Node000005" class="edge">
<title>Node6&#45;&gt;Node5</title>
<g id="a_edge97_Node000006_Node000005"><a xlink:title=" ">
<path fill="none" stroke="#63b8ff" d="M99.11,-313.15C116.84,-317.77 138.43,-323.08 158,-327 174.1,-330.22 191.2,-333.24 207.98,-335.96"/>
<polygon fill="#63b8ff" stroke="#63b8ff" points="99.72,-309.69 89.16,-310.52 97.93,-316.46 99.72,-309.69"/>
</a>
</g>
</g>
<!-- Node7 -->
<g id="Node000007" class="node">
<title>Node7</title>
<g id="a_Node000007"><a xlink:href="classcom_1_1teragrep_1_1pth__06_1_1jooq_1_1generated_1_1journaldb_1_1tables_1_1records_1_1CiRecord.html" target="_top" xlink:title="Contains ci values that are identified using the ID.">
<polygon fill="white" stroke="#666666" points="476.5,-318 158.5,-318 158.5,-288 476.5,-288 476.5,-318"/>
<text text-anchor="start" x="166.5" y="-306" font-family="Helvetica,sans-Serif" font-size="10.00">com.teragrep.pth_06.jooq.generated.journaldb.tables.records.</text>
<text text-anchor="middle" x="317.5" y="-295" font-family="Helvetica,sans-Serif" font-size="10.00">CiRecord</text>
</a>
</g>
</g>
<!-- Node6&#45;&gt;Node7 -->
<g id="edge98_Node000006_Node000007" class="edge">
<title>Node6&#45;&gt;Node7</title>
<g id="a_edge98_Node000006_Node000007"><a xlink:title=" ">
<path fill="none" stroke="#63b8ff" d="M99.46,-303C115.96,-303 136.58,-303 158.48,-303"/>
<polygon fill="#63b8ff" stroke="#63b8ff" points="99.24,-299.5 89.24,-303 99.24,-306.5 99.24,-299.5"/>
</a>
</g>
</g>
<!-- Node8 -->
<g id="Node000008" class="node">
<title>Node8</title>
<g id="a_Node000008"><a xlink:href="classcom_1_1teragrep_1_1pth__06_1_1jooq_1_1generated_1_1journaldb_1_1tables_1_1records_1_1HostRecord.html" target="_top" xlink:title="Host names.">
<polygon fill="white" stroke="#666666" points="476.5,-270 158.5,-270 158.5,-240 476.5,-240 476.5,-270"/>
<text text-anchor="start" x="166.5" y="-258" font-family="Helvetica,sans-Serif" font-size="10.00">com.teragrep.pth_06.jooq.generated.journaldb.tables.records.</text>
<text text-anchor="middle" x="317.5" y="-247" font-family="Helvetica,sans-Serif" font-size="10.00">HostRecord</text>
</a>
</g>
</g>
<!-- Node6&#45;&gt;Node8 -->
<g id="edge99_Node000006_Node000008" class="edge">
<title>Node6&#45;&gt;Node8</title>
<g id="a_edge99_Node000006_Node000008"><a xlink:title=" ">
<path fill="none" stroke="#63b8ff" d="M99.11,-292.85C116.84,-288.23 138.43,-282.92 158,-279 174.1,-275.78 191.2,-272.76 207.98,-270.04"/>
<polygon fill="#63b8ff" stroke="#63b8ff" points="97.93,-289.54 89.16,-295.48 99.72,-296.31 97.93,-289.54"/>
</a>
</g>
</g>
<!-- Node9 -->
<g id="Node000009" class="node">
<title>Node9</title>
<g id="a_Node000009"><a xlink:href="classcom_1_1teragrep_1_1pth__06_1_1jooq_1_1generated_1_1journaldb_1_1tables_1_1records_1_1LogtagRecord.html" target="_top" xlink:title="Contains logtag values that are identified using the ID.">
<polygon fill="white" stroke="#666666" points="476.5,-222 158.5,-222 158.5,-192 476.5,-192 476.5,-222"/>
<text text-anchor="start" x="166.5" y="-210" font-family="Helvetica,sans-Serif" font-size="10.00">com.teragrep.pth_06.jooq.generated.journaldb.tables.records.</text>
<text text-anchor="middle" x="317.5" y="-199" font-family="Helvetica,sans-Serif" font-size="10.00">LogtagRecord</text>
</a>
</g>
</g>
<!-- Node6&#45;&gt;Node9 -->
<g id="edge100_Node000006_Node000009" class="edge">
<title>Node6&#45;&gt;Node9</title>
<g id="a_edge100_Node000006_Node000009"><a xlink:title=" ">
<path fill="none" stroke="#63b8ff" d="M78.68,-286.33C96.64,-269.46 126.84,-244.06 158,-231 166.21,-227.56 174.85,-224.6 183.68,-222.06"/>
<polygon fill="#63b8ff" stroke="#63b8ff" points="76.11,-283.95 71.33,-293.41 80.96,-288.99 76.11,-283.95"/>
</a>
</g>
</g>
<!-- Node10 -->
<g id="Node000010" class="node">
<title>Node10</title>
<g id="a_Node000010"><a xlink:href="classcom_1_1teragrep_1_1pth__06_1_1jooq_1_1generated_1_1streamdb_1_1tables_1_1records_1_1LogGroupRecord.html" target="_top" xlink:title="This class is generated by jOOQ.">
<polygon fill="white" stroke="#666666" points="477,-414 158,-414 158,-384 477,-384 477,-414"/>
<text text-anchor="start" x="166" y="-402" font-family="Helvetica,sans-Serif" font-size="10.00">com.teragrep.pth_06.jooq.generated.streamdb.tables.records.</text>
<text text-anchor="middle" x="317.5" y="-391" font-family="Helvetica,sans-Serif" font-size="10.00">LogGroupRecord</text>
</a>
</g>
</g>
<!-- Node6&#45;&gt;Node10 -->
<g id="edge101_Node000006_Node000010" class="edge">
<title>Node6&#45;&gt;Node10</title>
<g id="a_edge101_Node000006_Node000010"><a xlink:title=" ">
<path fill="none" stroke="#63b8ff" d="M78.68,-319.67C96.64,-336.54 126.84,-361.94 158,-375 166.21,-378.44 174.85,-381.4 183.68,-383.94"/>
<polygon fill="#63b8ff" stroke="#63b8ff" points="80.96,-317.01 71.33,-312.59 76.11,-322.05 80.96,-317.01"/>
</a>
</g>
</g>
<!-- Node12 -->
<g id="Node000012" class="node">
<title>Node12</title>
<g id="a_Node000012"><a xlink:title=" ">
<polygon fill="#e0e0e0" stroke="#999999" points="92,-168.5 30,-168.5 30,-149.5 92,-149.5 92,-168.5"/>
<text text-anchor="middle" x="61" y="-156.5" font-family="Helvetica,sans-Serif" font-size="10.00">Record21</text>
</a>
</g>
</g>
<!-- Node11 -->
<g id="Node000011" class="node">
<title>Node11</title>
<g id="a_Node000011"><a xlink:href="classcom_1_1teragrep_1_1pth__06_1_1jooq_1_1generated_1_1journaldb_1_1tables_1_1records_1_1LogfileRecord.html" target="_top" xlink:title="Contains information for log files that have been run through Log Archiver.">
<polygon fill="white" stroke="#666666" points="476.5,-174 158.5,-174 158.5,-144 476.5,-144 476.5,-174"/>
<text text-anchor="start" x="166.5" y="-162" font-family="Helvetica,sans-Serif" font-size="10.00">com.teragrep.pth_06.jooq.generated.journaldb.tables.records.</text>
<text text-anchor="middle" x="317.5" y="-151" font-family="Helvetica,sans-Serif" font-size="10.00">LogfileRecord</text>
</a>
</g>
</g>
<!-- Node12&#45;&gt;Node11 -->
<g id="edge102_Node000012_Node000011" class="edge">
<title>Node12&#45;&gt;Node11</title>
<g id="a_edge102_Node000012_Node000011"><a xlink:title=" ">
<path fill="none" stroke="#63b8ff" d="M102.61,-159C118.49,-159 137.8,-159 158.24,-159"/>
<polygon fill="#63b8ff" stroke="#63b8ff" points="102.19,-155.5 92.19,-159 102.19,-162.5 102.19,-155.5"/>
</a>
</g>
</g>
<!-- Node14 -->
<g id="Node000014" class="node">
<title>Node14</title>
<g id="a_Node000014"><a xlink:title=" ">
<polygon fill="#e0e0e0" stroke="#999999" points="89,-120.5 33,-120.5 33,-101.5 89,-101.5 89,-120.5"/>
<text text-anchor="middle" x="61" y="-108.5" font-family="Helvetica,sans-Serif" font-size="10.00">Record3</text>
</a>
</g>
</g>
<!-- Node13 -->
<g id="Node000013" class="node">
<title>Node13</title>
<g id="a_Node000013"><a xlink:href="classcom_1_1teragrep_1_1pth__06_1_1jooq_1_1generated_1_1streamdb_1_1tables_1_1records_1_1HostRecord.html" target="_top" xlink:title="This class is generated by jOOQ.">
<polygon fill="white" stroke="#666666" points="477,-126 158,-126 158,-96 477,-96 477,-126"/>
<text text-anchor="start" x="166" y="-114" font-family="Helvetica,sans-Serif" font-size="10.00">com.teragrep.pth_06.jooq.generated.streamdb.tables.records.</text>
<text text-anchor="middle" x="317.5" y="-103" font-family="Helvetica,sans-Serif" font-size="10.00">HostRecord</text>
</a>
</g>
</g>
<!-- Node14&#45;&gt;Node13 -->
<g id="edge103_Node000014_Node000013" class="edge">
<title>Node14&#45;&gt;Node13</title>
<g id="a_edge103_Node000014_Node000013"><a xlink:title=" ">
<path fill="none" stroke="#63b8ff" d="M99.38,-111C115.75,-111 136.18,-111 157.9,-111"/>
<polygon fill="#63b8ff" stroke="#63b8ff" points="99.24,-107.5 89.24,-111 99.24,-114.5 99.24,-107.5"/>
</a>
</g>
</g>
<!-- Node4 -->
<g id="Node000004" class="node">
<title>Node4</title>
<g id="a_Node000004"><a xlink:title=" ">
<polygon fill="#e0e0e0" stroke="#999999" points="89,-72.5 33,-72.5 33,-53.5 89,-53.5 89,-72.5"/>
<text text-anchor="middle" x="61" y="-60.5" font-family="Helvetica,sans-Serif" font-size="10.00">Record4</text>
</a>
</g>
</g>
<!-- Node3 -->
<g id="Node000003" class="node">
<title>Node3</title>
<g id="a_Node000003"><a xlink:href="classcom_1_1teragrep_1_1pth__06_1_1jooq_1_1generated_1_1bloomdb_1_1tables_1_1records_1_1FiltertypeRecord.html" target="_top" xlink:title="This class is generated by jOOQ.">
<polygon fill="white" stroke="#666666" points="475,-78 160,-78 160,-48 475,-48 475,-78"/>
<text text-anchor="start" x="168" y="-66" font-family="Helvetica,sans-Serif" font-size="10.00">com.teragrep.pth_06.jooq.generated.bloomdb.tables.records.</text>
<text text-anchor="middle" x="317.5" y="-55" font-family="Helvetica,sans-Serif" font-size="10.00">FiltertypeRecord</text>
</a>
</g>
</g>
<!-- Node4&#45;&gt;Node3 -->
<g id="edge104_Node000004_Node000003" class="edge">
<title>Node4&#45;&gt;Node3</title>
<g id="a_edge104_Node000004_Node000003"><a xlink:title=" ">
<path fill="none" stroke="#63b8ff" d="M99.66,-63C116.49,-63 137.57,-63 159.93,-63"/>
<polygon fill="#63b8ff" stroke="#63b8ff" points="99.24,-59.5 89.24,-63 99.24,-66.5 99.24,-59.5"/>
</a>
</g>
</g>
<!-- Node16 -->
<g id="Node000016" class="node">
<title>Node16</title>
<g id="a_Node000016"><a xlink:title=" ">
<polygon fill="#e0e0e0" stroke="#999999" points="89,-24.5 33,-24.5 33,-5.5 89,-5.5 89,-24.5"/>
<text text-anchor="middle" x="61" y="-12.5" font-family="Helvetica,sans-Serif" font-size="10.00">Record5</text>
</a>
</g>
</g>
<!-- Node15 -->
<g id="Node000015" class="node">
<title>Node15</title>
<g id="a_Node000015"><a xlink:href="classcom_1_1teragrep_1_1pth__06_1_1jooq_1_1generated_1_1streamdb_1_1tables_1_1records_1_1StreamRecord.html" target="_top" xlink:title="This class is generated by jOOQ.">
<polygon fill="white" stroke="#666666" points="477,-30 158,-30 158,0 477,0 477,-30"/>
<text text-anchor="start" x="166" y="-18" font-family="Helvetica,sans-Serif" font-size="10.00">com.teragrep.pth_06.jooq.generated.streamdb.tables.records.</text>
<text text-anchor="middle" x="317.5" y="-7" font-family="Helvetica,sans-Serif" font-size="10.00">StreamRecord</text>
</a>
</g>
</g>
<!-- Node16&#45;&gt;Node15 -->
<g id="edge105_Node000016_Node000015" class="edge">
<title>Node16&#45;&gt;Node15</title>
<g id="a_edge105_Node000016_Node000015"><a xlink:title=" ">
<path fill="none" stroke="#63b8ff" d="M99.38,-15C115.75,-15 136.18,-15 157.9,-15"/>
<polygon fill="#63b8ff" stroke="#63b8ff" points="99.24,-11.5 89.24,-15 99.24,-18.5 99.24,-11.5"/>
</a>
</g>
</g>
<!-- Node2 -->
<g id="Node000002" class="node">
<title>Node2</title>
<g id="a_Node000002"><a xlink:title=" ">
<polygon fill="#e0e0e0" stroke="#999999" points="122,-240.5 0,-240.5 0,-221.5 122,-221.5 122,-240.5"/>
<text text-anchor="middle" x="61" y="-228.5" font-family="Helvetica,sans-Serif" font-size="10.00">UpdatableRecordImpl</text>
</a>
</g>
</g>
<!-- Node2&#45;&gt;Node1 -->
<g id="edge109_Node000002_Node000001" class="edge">
<title>Node2&#45;&gt;Node1</title>
<g id="a_edge109_Node000002_Node000001"><a xlink:title=" ">
<path fill="none" stroke="#63b8ff" d="M85.14,-246.61C97.78,-256.27 112.71,-269.73 122,-285 154.95,-339.15 110.89,-380.59 158,-423 161.62,-426.26 165.49,-429.18 169.55,-431.81"/>
<polygon fill="#63b8ff" stroke="#63b8ff" points="86.99,-243.62 76.85,-240.55 82.86,-249.27 86.99,-243.62"/>
</a>
</g>
</g>
<!-- Node2&#45;&gt;Node5 -->
<g id="edge107_Node000002_Node000005" class="edge">
<title>Node2&#45;&gt;Node5</title>
<g id="a_edge107_Node000002_Node000005"><a xlink:title=" ">
<path fill="none" stroke="#63b8ff" d="M81.16,-247.12C93.24,-257.55 108.96,-271.64 122,-285 139.17,-302.59 136.5,-315.08 158,-327 164.09,-330.37 170.49,-333.32 177.1,-335.88"/>
<polygon fill="#63b8ff" stroke="#63b8ff" points="83.33,-244.38 73.46,-240.54 78.78,-249.7 83.33,-244.38"/>
</a>
</g>
</g>
<!-- Node2&#45;&gt;Node7 -->
<g id="edge108_Node000002_Node000007" class="edge">
<title>Node2&#45;&gt;Node7</title>
<g id="a_edge108_Node000002_Node000007"><a xlink:title=" ">
<path fill="none" stroke="#63b8ff" d="M86.13,-245.74C105.03,-256.6 132.32,-270.86 158,-279 168.88,-282.45 180.34,-285.41 191.91,-287.95"/>
<polygon fill="#63b8ff" stroke="#63b8ff" points="87.72,-242.61 77.33,-240.57 84.18,-248.65 87.72,-242.61"/>
</a>
</g>
</g>
<!-- Node2&#45;&gt;Node8 -->
<g id="edge110_Node000002_Node000008" class="edge">
<title>Node2&#45;&gt;Node8</title>
<g id="a_edge110_Node000002_Node000008"><a xlink:title=" ">
<path fill="none" stroke="#63b8ff" d="M132.5,-237.65C140.73,-238.42 149.35,-239.24 158.18,-240.07"/>
<polygon fill="#63b8ff" stroke="#63b8ff" points="132.6,-234.14 122.31,-236.69 131.94,-241.11 132.6,-234.14"/>
</a>
</g>
</g>
<!-- Node2&#45;&gt;Node9 -->
<g id="edge112_Node000002_Node000009" class="edge">
<title>Node2&#45;&gt;Node9</title>
<g id="a_edge112_Node000002_Node000009"><a xlink:title=" ">
<path fill="none" stroke="#63b8ff" d="M132.5,-224.35C140.73,-223.58 149.35,-222.76 158.18,-221.93"/>
<polygon fill="#63b8ff" stroke="#63b8ff" points="131.94,-220.89 122.31,-225.31 132.6,-227.86 131.94,-220.89"/>
</a>
</g>
</g>
<!-- Node2&#45;&gt;Node10 -->
<g id="edge114_Node000002_Node000010" class="edge">
<title>Node2&#45;&gt;Node10</title>
<g id="a_edge114_Node000002_Node000010"><a xlink:title=" ">
<path fill="none" stroke="#63b8ff" d="M83.96,-246.69C96.46,-256.54 111.64,-270.15 122,-285 146.65,-320.33 124.24,-348.24 158,-375 162.14,-378.28 166.55,-381.21 171.14,-383.82"/>
<polygon fill="#63b8ff" stroke="#63b8ff" points="85.9,-243.78 75.82,-240.51 81.67,-249.35 85.9,-243.78"/>
</a>
</g>
</g>
<!-- Node2&#45;&gt;Node11 -->
<g id="edge111_Node000002_Node000011" class="edge">
<title>Node2&#45;&gt;Node11</title>
<g id="a_edge111_Node000002_Node000011"><a xlink:title=" ">
<path fill="none" stroke="#63b8ff" d="M86.13,-216.26C105.03,-205.4 132.32,-191.14 158,-183 168.88,-179.55 180.34,-176.59 191.91,-174.05"/>
<polygon fill="#63b8ff" stroke="#63b8ff" points="84.18,-213.35 77.33,-221.43 87.72,-219.39 84.18,-213.35"/>
</a>
</g>
</g>
<!-- Node2&#45;&gt;Node13 -->
<g id="edge113_Node000002_Node000013" class="edge">
<title>Node2&#45;&gt;Node13</title>
<g id="a_edge113_Node000002_Node000013"><a xlink:title=" ">
<path fill="none" stroke="#63b8ff" d="M81.69,-214.91C93.74,-204.75 109.24,-191.11 122,-178 139.39,-160.14 136.27,-147.21 158,-135 164.07,-131.59 170.46,-128.62 177.06,-126.03"/>
<polygon fill="#63b8ff" stroke="#63b8ff" points="79.42,-212.24 73.97,-221.33 83.9,-217.62 79.42,-212.24"/>
</a>
</g>
</g>
<!-- Node2&#45;&gt;Node3 -->
<g id="edge106_Node000002_Node000003" class="edge">
<title>Node2&#45;&gt;Node3</title>
<g id="a_edge106_Node000002_Node000003"><a xlink:title=" ">
<path fill="none" stroke="#63b8ff" d="M84.46,-215.32C96.88,-205.72 111.81,-192.51 122,-178 146.99,-142.4 123.97,-114.08 158,-87 162.14,-83.71 166.53,-80.77 171.13,-78.16"/>
<polygon fill="#63b8ff" stroke="#63b8ff" points="82.28,-212.58 76.35,-221.36 86.46,-218.2 82.28,-212.58"/>
</a>
</g>
</g>
<!-- Node2&#45;&gt;Node15 -->
<g id="edge115_Node000002_Node000015" class="edge">
<title>Node2&#45;&gt;Node15</title>
<g id="a_edge115_Node000002_Node000015"><a xlink:title=" ">
<path fill="none" stroke="#63b8ff" d="M85.64,-215.41C98.18,-205.99 112.85,-192.92 122,-178 155.37,-123.61 110.61,-81.74 158,-39 161.62,-35.74 165.48,-32.81 169.54,-30.19"/>
<polygon fill="#63b8ff" stroke="#63b8ff" points="83.47,-212.66 77.39,-221.33 87.55,-218.35 83.47,-212.66"/>
</a>
</g>
</g>
</g>
</svg>
