<?xml version="1.0" encoding="UTF-8" standalone="no"?>
<!DOCTYPE svg PUBLIC "-//W3C//DTD SVG 1.1//EN"
 "http://www.w3.org/Graphics/SVG/1.1/DTD/svg11.dtd">
<!-- Generated by graphviz version 2.43.0 (0)
 -->
<!-- Title: Graphical Class Hierarchy Pages: 1 -->
<svg width="410pt" height="440pt"
 viewBox="0.00 0.00 410.00 440.00" xmlns="http://www.w3.org/2000/svg" xmlns:xlink="http://www.w3.org/1999/xlink">
<g id="graph0" class="graph" transform="scale(1 1) rotate(0) translate(4 436)">
<title>Graphical Class Hierarchy</title>
<!-- Node0 -->
<g id="Node000000" class="node">
<title>Node0</title>
<g id="a_Node000000"><a xlink:title=" ">
<polygon fill="#e0e0e0" stroke="#999999" points="64,-227.5 0,-227.5 0,-208.5 64,-208.5 64,-227.5"/>
<text text-anchor="middle" x="32" y="-215.5" font-family="Helvetica,sans-Serif" font-size="10.00">TableImpl</text>
</a>
</g>
</g>
<!-- Node1 -->
<g id="Node000001" class="node">
<title>Node1</title>
<g id="a_Node000001"><a xlink:href="classcom_1_1teragrep_1_1pth__06_1_1jooq_1_1generated_1_1bloomdb_1_1tables_1_1Filtertype.html" target="_top" xlink:title="This class is generated by jOOQ.">
<polygon fill="white" stroke="#666666" points="389,-432 113,-432 113,-402 389,-402 389,-432"/>
<text text-anchor="start" x="121" y="-420" font-family="Helvetica,sans-Serif" font-size="10.00">com.teragrep.pth_06.jooq.generated.bloomdb.tables.</text>
<text text-anchor="middle" x="251" y="-409" font-family="Helvetica,sans-Serif" font-size="10.00">Filtertype</text>
</a>
</g>
</g>
<!-- Node0&#45;&gt;Node1 -->
<g id="edge120_Node000000_Node000001" class="edge">
<title>Node0&#45;&gt;Node1</title>
<g id="a_edge120_Node000000_Node000001"><a xlink:title=" ">
<path fill="none" stroke="#63b8ff" d="M34.37,-237.89C38.05,-274.78 51.47,-353.61 100,-393 104.1,-396.32 108.47,-399.28 113.04,-401.89"/>
<polygon fill="#63b8ff" stroke="#63b8ff" points="37.85,-237.54 33.51,-227.88 30.88,-238.14 37.85,-237.54"/>
</a>
</g>
</g>
<!-- Node2 -->
<g id="Node000002" class="node">
<title>Node2</title>
<g id="a_Node000002"><a xlink:href="classcom_1_1teragrep_1_1pth__06_1_1jooq_1_1generated_1_1journaldb_1_1tables_1_1Bucket.html" target="_top" xlink:title="Buckets in object storage.">
<polygon fill="white" stroke="#666666" points="390.5,-384 111.5,-384 111.5,-354 390.5,-354 390.5,-384"/>
<text text-anchor="start" x="119.5" y="-372" font-family="Helvetica,sans-Serif" font-size="10.00">com.teragrep.pth_06.jooq.generated.journaldb.tables.</text>
<text text-anchor="middle" x="251" y="-361" font-family="Helvetica,sans-Serif" font-size="10.00">Bucket</text>
</a>
</g>
</g>
<!-- Node0&#45;&gt;Node2 -->
<g id="edge121_Node000000_Node000002" class="edge">
<title>Node0&#45;&gt;Node2</title>
<g id="a_edge121_Node000000_Node000002"><a xlink:title=" ">
<path fill="none" stroke="#63b8ff" d="M37.44,-237.56C45.03,-266.12 63.33,-318.71 100,-345 104.72,-348.38 109.73,-351.36 114.95,-353.97"/>
<polygon fill="#63b8ff" stroke="#63b8ff" points="40.77,-236.43 34.97,-227.57 33.98,-238.12 40.77,-236.43"/>
</a>
</g>
</g>
<!-- Node3 -->
<g id="Node000003" class="node">
<title>Node3</title>
<g id="a_Node000003"><a xlink:href="classcom_1_1teragrep_1_1pth__06_1_1jooq_1_1generated_1_1journaldb_1_1tables_1_1Ci.html" target="_top" xlink:title="Contains ci values that are identified using the ID.">
<polygon fill="white" stroke="#666666" points="395.5,-335.5 106.5,-335.5 106.5,-316.5 395.5,-316.5 395.5,-335.5"/>
<text text-anchor="middle" x="251" y="-323.5" font-family="Helvetica,sans-Serif" font-size="10.00">com.teragrep.pth_06.jooq.generated.journaldb.tables.Ci</text>
</a>
</g>
</g>
<!-- Node0&#45;&gt;Node3 -->
<g id="edge122_Node000000_Node000003" class="edge">
<title>Node0&#45;&gt;Node3</title>
<g id="a_edge122_Node000000_Node000003"><a xlink:title=" ">
<path fill="none" stroke="#63b8ff" d="M41.42,-236.7C51.93,-257.63 71.97,-290.73 100,-307 106.36,-310.69 113.12,-313.8 120.12,-316.41"/>
<polygon fill="#63b8ff" stroke="#63b8ff" points="44.51,-235.04 37.04,-227.53 38.2,-238.06 44.51,-235.04"/>
</a>
</g>
</g>
<!-- Node4 -->
<g id="Node000004" class="node">
<title>Node4</title>
<g id="a_Node000004"><a xlink:href="classcom_1_1teragrep_1_1pth__06_1_1jooq_1_1generated_1_1journaldb_1_1tables_1_1CorruptedArchive.html" target="_top" xlink:title="Contains logfiles that are both archives and detected to be corrupted.">
<polygon fill="white" stroke="#666666" points="390.5,-298 111.5,-298 111.5,-268 390.5,-268 390.5,-298"/>
<text text-anchor="start" x="119.5" y="-286" font-family="Helvetica,sans-Serif" font-size="10.00">com.teragrep.pth_06.jooq.generated.journaldb.tables.</text>
<text text-anchor="middle" x="251" y="-275" font-family="Helvetica,sans-Serif" font-size="10.00">CorruptedArchive</text>
</a>
</g>
</g>
<!-- Node0&#45;&gt;Node4 -->
<g id="edge123_Node000000_Node000004" class="edge">
<title>Node0&#45;&gt;Node4</title>
<g id="a_edge123_Node000000_Node000004"><a xlink:title=" ">
<path fill="none" stroke="#63b8ff" d="M54,-233.81C66.68,-242.58 83.53,-252.92 100,-259 109.4,-262.47 119.32,-265.44 129.38,-267.99"/>
<polygon fill="#63b8ff" stroke="#63b8ff" points="55.74,-230.75 45.56,-227.78 51.67,-236.44 55.74,-230.75"/>
</a>
</g>
</g>
<!-- Node5 -->
<g id="Node000005" class="node">
<title>Node5</title>
<g id="a_Node000005"><a xlink:href="classcom_1_1teragrep_1_1pth__06_1_1jooq_1_1generated_1_1journaldb_1_1tables_1_1Host.html" target="_top" xlink:title="Host names.">
<polygon fill="white" stroke="#666666" points="402,-249.5 100,-249.5 100,-230.5 402,-230.5 402,-249.5"/>
<text text-anchor="middle" x="251" y="-237.5" font-family="Helvetica,sans-Serif" font-size="10.00">com.teragrep.pth_06.jooq.generated.journaldb.tables.Host</text>
</a>
</g>
</g>
<!-- Node0&#45;&gt;Node5 -->
<g id="edge124_Node000000_Node000005" class="edge">
<title>Node0&#45;&gt;Node5</title>
<g id="a_edge124_Node000000_Node000005"><a xlink:title=" ">
<path fill="none" stroke="#63b8ff" d="M74.25,-222.18C97.45,-224.53 127.42,-227.57 156.03,-230.47"/>
<polygon fill="#63b8ff" stroke="#63b8ff" points="74.39,-218.68 64.09,-221.15 73.69,-225.64 74.39,-218.68"/>
</a>
</g>
</g>
<!-- Node6 -->
<g id="Node000006" class="node">
<title>Node6</title>
<g id="a_Node000006"><a xlink:href="classcom_1_1teragrep_1_1pth__06_1_1jooq_1_1generated_1_1journaldb_1_1tables_1_1Logfile.html" target="_top" xlink:title="Contains information for log files that have been run through Log Archiver.">
<polygon fill="white" stroke="#666666" points="390.5,-212 111.5,-212 111.5,-182 390.5,-182 390.5,-212"/>
<text text-anchor="start" x="119.5" y="-200" font-family="Helvetica,sans-Serif" font-size="10.00">com.teragrep.pth_06.jooq.generated.journaldb.tables.</text>
<text text-anchor="middle" x="251" y="-189" font-family="Helvetica,sans-Serif" font-size="10.00">Logfile</text>
</a>
</g>
</g>
<!-- Node0&#45;&gt;Node6 -->
<g id="edge125_Node000000_Node000006" class="edge">
<title>Node0&#45;&gt;Node6</title>
<g id="a_edge125_Node000000_Node000006"><a xlink:title=" ">
<path fill="none" stroke="#63b8ff" d="M74.25,-214.01C85.37,-212.93 98.05,-211.7 111.39,-210.41"/>
<polygon fill="#63b8ff" stroke="#63b8ff" points="73.71,-210.54 64.09,-214.99 74.38,-217.51 73.71,-210.54"/>
</a>
</g>
</g>
<!-- Node7 -->
<g id="Node000007" class="node">
<title>Node7</title>
<g id="a_Node000007"><a xlink:href="classcom_1_1teragrep_1_1pth__06_1_1jooq_1_1generated_1_1journaldb_1_1tables_1_1Logtag.html" target="_top" xlink:title="Contains logtag values that are identified using the ID.">
<polygon fill="white" stroke="#666666" points="390.5,-164 111.5,-164 111.5,-134 390.5,-134 390.5,-164"/>
<text text-anchor="start" x="119.5" y="-152" font-family="Helvetica,sans-Serif" font-size="10.00">com.teragrep.pth_06.jooq.generated.journaldb.tables.</text>
<text text-anchor="middle" x="251" y="-141" font-family="Helvetica,sans-Serif" font-size="10.00">Logtag</text>
</a>
</g>
</g>
<!-- Node0&#45;&gt;Node7 -->
<g id="edge126_Node000000_Node000007" class="edge">
<title>Node0&#45;&gt;Node7</title>
<g id="a_edge126_Node000000_Node000007"><a xlink:title=" ">
<path fill="none" stroke="#63b8ff" d="M51.99,-201.96C64.76,-192.04 82.41,-179.92 100,-173 108.83,-169.52 118.15,-166.55 127.64,-164"/>
<polygon fill="#63b8ff" stroke="#63b8ff" points="49.6,-199.39 44,-208.38 53.98,-204.85 49.6,-199.39"/>
</a>
</g>
</g>
<!-- Node8 -->
<g id="Node000008" class="node">
<title>Node8</title>
<g id="a_Node000008"><a xlink:href="classcom_1_1teragrep_1_1pth__06_1_1jooq_1_1generated_1_1streamdb_1_1tables_1_1Host.html" target="_top" xlink:title="This class is generated by jOOQ.">
<polygon fill="white" stroke="#666666" points="402,-115.5 100,-115.5 100,-96.5 402,-96.5 402,-115.5"/>
<text text-anchor="middle" x="251" y="-103.5" font-family="Helvetica,sans-Serif" font-size="10.00">com.teragrep.pth_06.jooq.generated.streamdb.tables.Host</text>
</a>
</g>
</g>
<!-- Node0&#45;&gt;Node8 -->
<g id="edge127_Node000000_Node000008" class="edge">
<title>Node0&#45;&gt;Node8</title>
<g id="a_edge127_Node000000_Node000008"><a xlink:title=" ">
<path fill="none" stroke="#63b8ff" d="M40.9,-199.11C51.1,-177.29 71.06,-142.2 100,-125 106.21,-121.31 112.81,-118.2 119.65,-115.57"/>
<polygon fill="#63b8ff" stroke="#63b8ff" points="37.66,-197.79 36.79,-208.35 44.05,-200.64 37.66,-197.79"/>
</a>
</g>
</g>
<!-- Node9 -->
<g id="Node000009" class="node">
<title>Node9</title>
<g id="a_Node000009"><a xlink:href="classcom_1_1teragrep_1_1pth__06_1_1jooq_1_1generated_1_1streamdb_1_1tables_1_1LogGroup.html" target="_top" xlink:title="This class is generated by jOOQ.">
<polygon fill="white" stroke="#666666" points="391,-78 111,-78 111,-48 391,-48 391,-78"/>
<text text-anchor="start" x="119" y="-66" font-family="Helvetica,sans-Serif" font-size="10.00">com.teragrep.pth_06.jooq.generated.streamdb.tables.</text>
<text text-anchor="middle" x="251" y="-55" font-family="Helvetica,sans-Serif" font-size="10.00">LogGroup</text>
</a>
</g>
</g>
<!-- Node0&#45;&gt;Node9 -->
<g id="edge128_Node000000_Node000009" class="edge">
<title>Node0&#45;&gt;Node9</title>
<g id="a_edge128_Node000000_Node000009"><a xlink:title=" ">
<path fill="none" stroke="#63b8ff" d="M37.23,-198.41C44.59,-169.31 62.71,-115.19 100,-88 105.23,-84.19 110.83,-80.88 116.68,-78.01"/>
<polygon fill="#63b8ff" stroke="#63b8ff" points="33.8,-197.69 34.91,-208.23 40.61,-199.3 33.8,-197.69"/>
</a>
</g>
</g>
<!-- Node10 -->
<g id="Node000010" class="node">
<title>Node10</title>
<g id="a_Node000010"><a xlink:href="classcom_1_1teragrep_1_1pth__06_1_1jooq_1_1generated_1_1streamdb_1_1tables_1_1Stream.html" target="_top" xlink:title="This class is generated by jOOQ.">
<polygon fill="white" stroke="#666666" points="391,-30 111,-30 111,0 391,0 391,-30"/>
<text text-anchor="start" x="119" y="-18" font-family="Helvetica,sans-Serif" font-size="10.00">com.teragrep.pth_06.jooq.generated.streamdb.tables.</text>
<text text-anchor="middle" x="251" y="-7" font-family="Helvetica,sans-Serif" font-size="10.00">Stream</text>
</a>
</g>
</g>
<!-- Node0&#45;&gt;Node10 -->
<g id="edge129_Node000000_Node000010" class="edge">
<title>Node0&#45;&gt;Node10</title>
<g id="a_edge129_Node000000_Node000010"><a xlink:title=" ">
<path fill="none" stroke="#63b8ff" d="M34.17,-198.2C37.52,-160.72 50.42,-79.56 100,-39 104.08,-35.66 108.44,-32.7 113.01,-30.07"/>
<polygon fill="#63b8ff" stroke="#63b8ff" points="30.67,-198.1 33.41,-208.33 37.65,-198.62 30.67,-198.1"/>
</a>
</g>
</g>
</g>
</svg>
