<?xml version="1.0" encoding="UTF-8" standalone="no"?>
<!DOCTYPE svg PUBLIC "-//W3C//DTD SVG 1.1//EN"
 "http://www.w3.org/Graphics/SVG/1.1/DTD/svg11.dtd">
<!-- Generated by graphviz version 2.43.0 (0)
 -->
<!-- Title: com.teragrep.pth_06.Stubable Pages: 1 -->
<svg width="566pt" height="86pt"
 viewBox="0.00 0.00 566.00 86.00" xmlns="http://www.w3.org/2000/svg" xmlns:xlink="http://www.w3.org/1999/xlink">
<g id="graph0" class="graph" transform="scale(1 1) rotate(0) translate(4 82)">
<title>com.teragrep.pth_06.Stubable</title>
<!-- Node1 -->
<g id="Node000001" class="node">
<title>Node1</title>
<g id="a_Node000001"><a xlink:title=" ">
<polygon fill="#999999" stroke="#666666" points="164,-48.5 0,-48.5 0,-29.5 164,-29.5 164,-48.5"/>
<text text-anchor="middle" x="82" y="-36.5" font-family="Helvetica,sans-Serif" font-size="10.00">com.teragrep.pth_06.Stubable</text>
</a>
</g>
</g>
<!-- Node2 -->
<g id="Node000002" class="node">
<title>Node2</title>
<g id="a_Node000002"><a xlink:href="interfacecom_1_1teragrep_1_1pth__06_1_1metrics_1_1MetricValue.html" target="_top" xlink:title=" ">
<polygon fill="white" stroke="#666666" points="361,-54 200,-54 200,-24 361,-24 361,-54"/>
<text text-anchor="start" x="208" y="-42" font-family="Helvetica,sans-Serif" font-size="10.00">com.teragrep.pth_06.metrics.</text>
<text text-anchor="middle" x="280.5" y="-31" font-family="Helvetica,sans-Serif" font-size="10.00">MetricValue&lt; T &gt;</text>
</a>
</g>
</g>
<!-- Node1&#45;&gt;Node2 -->
<g id="edge1_Node000001_Node000002" class="edge">
<title>Node1&#45;&gt;Node2</title>
<g id="a_edge1_Node000001_Node000002"><a xlink:title=" ">
<path fill="none" stroke="#63b8ff" d="M174.11,-39C182.72,-39 191.41,-39 199.89,-39"/>
<polygon fill="#63b8ff" stroke="#63b8ff" points="174.06,-35.5 164.06,-39 174.06,-42.5 174.06,-35.5"/>
</a>
</g>
</g>
<!-- Node3 -->
<g id="Node000003" class="node">
<title>Node3</title>
<g id="a_Node000003"><a xlink:href="classcom_1_1teragrep_1_1pth__06_1_1metrics_1_1MetricValueImpl.html" target="_top" xlink:title=" ">
<polygon fill="white" stroke="#666666" points="558,-78 397,-78 397,-48 558,-48 558,-78"/>
<text text-anchor="start" x="405" y="-66" font-family="Helvetica,sans-Serif" font-size="10.00">com.teragrep.pth_06.metrics.</text>
<text text-anchor="middle" x="477.5" y="-55" font-family="Helvetica,sans-Serif" font-size="10.00">MetricValueImpl&lt; T &gt;</text>
</a>
</g>
</g>
<!-- Node2&#45;&gt;Node3 -->
<g id="edge2_Node000002_Node000003" class="edge">
<title>Node2&#45;&gt;Node3</title>
<g id="a_edge2_Node000002_Node000003"><a xlink:title=" ">
<path fill="none" stroke="#63b8ff" d="M371.12,-50.03C379.7,-51.09 388.36,-52.15 396.84,-53.2"/>
<polygon fill="#63b8ff" stroke="#63b8ff" points="371.45,-46.54 361.1,-48.8 370.59,-53.49 371.45,-46.54"/>
</a>
</g>
</g>
<!-- Node4 -->
<g id="Node000004" class="node">
<title>Node4</title>
<g id="a_Node000004"><a xlink:href="classcom_1_1teragrep_1_1pth__06_1_1metrics_1_1MetricValueStub.html" target="_top" xlink:title=" ">
<polygon fill="white" stroke="#666666" points="558,-30 397,-30 397,0 558,0 558,-30"/>
<text text-anchor="start" x="405" y="-18" font-family="Helvetica,sans-Serif" font-size="10.00">com.teragrep.pth_06.metrics.</text>
<text text-anchor="middle" x="477.5" y="-7" font-family="Helvetica,sans-Serif" font-size="10.00">MetricValueStub&lt; T &gt;</text>
</a>
</g>
</g>
<!-- Node2&#45;&gt;Node4 -->
<g id="edge3_Node000002_Node000004" class="edge">
<title>Node2&#45;&gt;Node4</title>
<g id="a_edge3_Node000002_Node000004"><a xlink:title=" ">
<path fill="none" stroke="#63b8ff" d="M371.12,-27.97C379.7,-26.91 388.36,-25.85 396.84,-24.8"/>
<polygon fill="#63b8ff" stroke="#63b8ff" points="370.59,-24.51 361.1,-29.2 371.45,-31.46 370.59,-24.51"/>
</a>
</g>
</g>
</g>
</svg>
