<?xml version="1.0" encoding="UTF-8" standalone="no"?>
<!DOCTYPE svg PUBLIC "-//W3C//DTD SVG 1.1//EN"
 "http://www.w3.org/Graphics/SVG/1.1/DTD/svg11.dtd">
<!-- Generated by graphviz version 2.43.0 (0)
 -->
<!-- Title: com.teragrep.pth_06.planner.RecordableMockDBRow Pages: 1 -->
<svg width="346pt" height="159pt"
 viewBox="0.00 0.00 346.00 159.00" xmlns="http://www.w3.org/2000/svg" xmlns:xlink="http://www.w3.org/1999/xlink">
<g id="graph0" class="graph" transform="scale(1 1) rotate(0) translate(4 155)">
<title>com.teragrep.pth_06.planner.RecordableMockDBRow</title>
<!-- Node1 -->
<g id="Node000001" class="node">
<title>Node1</title>
<g id="a_Node000001"><a xlink:title=" ">
<polygon fill="#999999" stroke="#666666" points="249,-30 89,-30 89,0 249,0 249,-30"/>
<text text-anchor="start" x="97" y="-18" font-family="Helvetica,sans-Serif" font-size="10.00">com.teragrep.pth_06.planner.</text>
<text text-anchor="middle" x="169" y="-7" font-family="Helvetica,sans-Serif" font-size="10.00">RecordableMockDBRow</text>
</a>
</g>
</g>
<!-- Node2 -->
<g id="Node000002" class="node">
<title>Node2</title>
<g id="a_Node000002"><a xlink:href="interfacecom_1_1teragrep_1_1pth__06_1_1planner_1_1MockDBRow.html" target="_top" xlink:title=" ">
<polygon fill="white" stroke="#666666" points="160,-96 0,-96 0,-66 160,-66 160,-96"/>
<text text-anchor="start" x="8" y="-84" font-family="Helvetica,sans-Serif" font-size="10.00">com.teragrep.pth_06.planner.</text>
<text text-anchor="middle" x="80" y="-73" font-family="Helvetica,sans-Serif" font-size="10.00">MockDBRow</text>
</a>
</g>
</g>
<!-- Node2&#45;&gt;Node1 -->
<g id="edge1_Node000001_Node000002" class="edge">
<title>Node2&#45;&gt;Node1</title>
<g id="a_edge1_Node000001_Node000002"><a xlink:title=" ">
<path fill="none" stroke="#63b8ff" d="M108.16,-59.75C121.54,-50.13 137.22,-38.86 149.3,-30.16"/>
<polygon fill="#63b8ff" stroke="#63b8ff" points="105.83,-57.12 99.75,-65.8 109.91,-62.8 105.83,-57.12"/>
</a>
</g>
</g>
<!-- Node3 -->
<g id="Node000003" class="node">
<title>Node3</title>
<g id="a_Node000003"><a xlink:title=" ">
<polygon fill="white" stroke="#666666" points="160,-151 0,-151 0,-132 160,-132 160,-151"/>
<text text-anchor="middle" x="80" y="-139" font-family="Helvetica,sans-Serif" font-size="10.00">Comparable&lt; MockDBRow &gt;</text>
</a>
</g>
</g>
<!-- Node3&#45;&gt;Node2 -->
<g id="edge2_Node000002_Node000003" class="edge">
<title>Node3&#45;&gt;Node2</title>
<g id="a_edge2_Node000002_Node000003"><a xlink:title=" ">
<path fill="none" stroke="#63b8ff" d="M80,-121.65C80,-113.36 80,-103.78 80,-96.11"/>
<polygon fill="#63b8ff" stroke="#63b8ff" points="76.5,-121.87 80,-131.87 83.5,-121.87 76.5,-121.87"/>
</a>
</g>
</g>
<!-- Node4 -->
<g id="Node000004" class="node">
<title>Node4</title>
<g id="a_Node000004"><a xlink:href="interfacecom_1_1teragrep_1_1pth__06_1_1planner_1_1Recordable.html" target="_top" xlink:title=" ">
<polygon fill="white" stroke="#666666" points="338,-96 178,-96 178,-66 338,-66 338,-96"/>
<text text-anchor="start" x="186" y="-84" font-family="Helvetica,sans-Serif" font-size="10.00">com.teragrep.pth_06.planner.</text>
<text text-anchor="middle" x="258" y="-73" font-family="Helvetica,sans-Serif" font-size="10.00">Recordable</text>
</a>
</g>
</g>
<!-- Node4&#45;&gt;Node1 -->
<g id="edge3_Node000001_Node000004" class="edge">
<title>Node4&#45;&gt;Node1</title>
<g id="a_edge3_Node000001_Node000004"><a xlink:title=" ">
<path fill="none" stroke="#63b8ff" d="M229.84,-59.75C216.46,-50.13 200.78,-38.86 188.7,-30.16"/>
<polygon fill="#63b8ff" stroke="#63b8ff" points="228.09,-62.8 238.25,-65.8 232.17,-57.12 228.09,-62.8"/>
</a>
</g>
</g>
</g>
</svg>
