<?xml version="1.0" encoding="UTF-8" standalone="no"?>
<!DOCTYPE svg PUBLIC "-//W3C//DTD SVG 1.1//EN"
 "http://www.w3.org/Graphics/SVG/1.1/DTD/svg11.dtd">
<!-- Generated by graphviz version 2.43.0 (0)
 -->
<!-- Title: com.teragrep.pth_06.jooq.generated.journaldb.tables.Logtag Pages: 1 -->
<svg width="835pt" height="85pt"
 viewBox="0.00 0.00 835.00 85.00" xmlns="http://www.w3.org/2000/svg" xmlns:xlink="http://www.w3.org/1999/xlink">
<g id="graph0" class="graph" transform="scale(1 1) rotate(0) translate(4 81)">
<title>com.teragrep.pth_06.jooq.generated.journaldb.tables.Logtag</title>
<!-- Node1 -->
<g id="Node000001" class="node">
<title>Node1</title>
<g id="a_Node000001"><a xlink:title="Contains logtag values that are identified using the ID.">
<polygon fill="#999999" stroke="#666666" points="827,-77 548,-77 548,-47 827,-47 827,-77"/>
<text text-anchor="start" x="556" y="-65" font-family="Helvetica,sans-Serif" font-size="10.00">com.teragrep.pth_06.jooq.generated.journaldb.tables.</text>
<text text-anchor="middle" x="687.5" y="-54" font-family="Helvetica,sans-Serif" font-size="10.00">Logtag</text>
</a>
</g>
</g>
<!-- Node2 -->
<g id="Node000002" class="node">
<title>Node2</title>
<g id="a_Node000002"><a xlink:title=" ">
<polygon fill="white" stroke="#666666" points="153,-60.5 0,-60.5 0,-41.5 153,-41.5 153,-60.5"/>
<text text-anchor="middle" x="76.5" y="-48.5" font-family="Helvetica,sans-Serif" font-size="10.00">TableImpl&lt; LogtagRecord &gt;</text>
</a>
</g>
</g>
<!-- Node2&#45;&gt;Node1 -->
<g id="edge1_Node000001_Node000002" class="edge">
<title>Node2&#45;&gt;Node1</title>
<g id="a_edge1_Node000001_Node000002"><a xlink:title=" ">
<path fill="none" stroke="#63b8ff" d="M139.42,-62.06C155.81,-64.52 173.52,-66.76 190,-68 310.67,-77.07 448.29,-74.39 547.99,-70.11"/>
<polygon fill="#63b8ff" stroke="#63b8ff" points="139.82,-58.58 129.4,-60.51 138.75,-65.5 139.82,-58.58"/>
</a>
</g>
</g>
<!-- Node3 -->
<g id="Node000003" class="node">
<title>Node3</title>
<g id="a_Node000003"><a xlink:href="classcom_1_1teragrep_1_1pth__06_1_1jooq_1_1generated_1_1journaldb_1_1tables_1_1Logtag.html" target="_top" xlink:title="Contains logtag values that are identified using the ID.">
<polygon fill="white" stroke="#666666" points="469,-30 190,-30 190,0 469,0 469,-30"/>
<text text-anchor="start" x="198" y="-18" font-family="Helvetica,sans-Serif" font-size="10.00">com.teragrep.pth_06.jooq.generated.journaldb.tables.</text>
<text text-anchor="middle" x="329.5" y="-7" font-family="Helvetica,sans-Serif" font-size="10.00">Logtag</text>
</a>
</g>
</g>
<!-- Node2&#45;&gt;Node3 -->
<g id="edge3_Node000003_Node000002" class="edge">
<title>Node2&#45;&gt;Node3</title>
<g id="a_edge3_Node000003_Node000002"><a xlink:title=" ">
<path fill="none" stroke="#63b8ff" d="M153.75,-40.06C175.86,-36.89 200.39,-33.37 223.92,-30"/>
<polygon fill="#63b8ff" stroke="#63b8ff" points="153.18,-36.61 143.78,-41.49 154.17,-43.54 153.18,-36.61"/>
</a>
</g>
</g>
<!-- Node3&#45;&gt;Node1 -->
<g id="edge2_Node000001_Node000003" class="edge">
<title>Node3&#45;&gt;Node1</title>
<g id="a_edge2_Node000001_Node000003"><a xlink:title=" ">
<path fill="none" stroke="#9a32cd" stroke-dasharray="5,2" d="M454.34,-31.35C492.8,-36.43 535,-42 572.74,-46.98"/>
<polygon fill="#9a32cd" stroke="#9a32cd" points="454.49,-27.84 444.12,-30 453.58,-34.78 454.49,-27.84"/>
</a>
</g>
<text text-anchor="middle" x="508.5" y="-44" font-family="Helvetica,sans-Serif" font-size="10.00" fill="grey"> LOGTAG</text>
</g>
<!-- Node3&#45;&gt;Node3 -->
<g id="edge4_Node000003_Node000003" class="edge">
<title>Node3&#45;&gt;Node3</title>
<g id="a_edge4_Node000003_Node000003"><a xlink:title=" ">
<path fill="none" stroke="#9a32cd" stroke-dasharray="5,2" d="M301.84,-40.6C305.62,-44.97 314.84,-48 329.5,-48 354.19,-48 363.45,-39.41 357.27,-30.28"/>
<polygon fill="#9a32cd" stroke="#9a32cd" points="305.34,-40.23 301.73,-30.28 298.34,-40.31 305.34,-40.23"/>
</a>
</g>
<text text-anchor="middle" x="329.5" y="-51" font-family="Helvetica,sans-Serif" font-size="10.00" fill="grey"> LOGTAG</text>
</g>
</g>
</svg>
