<?xml version="1.0" encoding="UTF-8" standalone="no"?>
<!DOCTYPE svg PUBLIC "-//W3C//DTD SVG 1.1//EN"
 "http://www.w3.org/Graphics/SVG/1.1/DTD/svg11.dtd">
<!-- Generated by graphviz version 2.43.0 (0)
 -->
<!-- Title: Graphical Class Hierarchy Pages: 1 -->
<svg width="410pt" height="354pt"
 viewBox="0.00 0.00 410.00 354.00" xmlns="http://www.w3.org/2000/svg" xmlns:xlink="http://www.w3.org/1999/xlink">
<g id="graph0" class="graph" transform="scale(1 1) rotate(0) translate(4 350)">
<title>Graphical Class Hierarchy</title>
<!-- Node0 -->
<g id="Node000000" class="node">
<title>Node0</title>
<g id="a_Node000000"><a xlink:title=" ">
<polygon fill="#e0e0e0" stroke="#999999" points="64,-182.5 0,-182.5 0,-163.5 64,-163.5 64,-182.5"/>
<text text-anchor="middle" x="32" y="-170.5" font-family="Helvetica,sans-Serif" font-size="10.00">TableImpl</text>
</a>
</g>
</g>
<!-- Node1 -->
<g id="Node000001" class="node">
<title>Node1</title>
<g id="a_Node000001"><a xlink:href="classcom_1_1teragrep_1_1pth__06_1_1jooq_1_1generated_1_1bloomdb_1_1tables_1_1Filtertype.html" target="_top" xlink:title="This class is generated by jOOQ.">
<polygon fill="white" stroke="#666666" points="389,-346 113,-346 113,-316 389,-316 389,-346"/>
<text text-anchor="start" x="121" y="-334" font-family="Helvetica,sans-Serif" font-size="10.00">com.teragrep.pth_06.jooq.generated.bloomdb.tables.</text>
<text text-anchor="middle" x="251" y="-323" font-family="Helvetica,sans-Serif" font-size="10.00">Filtertype</text>
</a>
</g>
</g>
<!-- Node0&#45;&gt;Node1 -->
<g id="edge109_Node000000_Node000001" class="edge">
<title>Node0&#45;&gt;Node1</title>
<g id="a_edge109_Node000000_Node000001"><a xlink:title=" ">
<path fill="none" stroke="#63b8ff" d="M36.91,-192.77C43.94,-222.68 61.69,-278.9 100,-307 104.57,-310.35 109.43,-313.31 114.51,-315.92"/>
<polygon fill="#63b8ff" stroke="#63b8ff" points="40.27,-191.74 34.73,-182.71 33.43,-193.23 40.27,-191.74"/>
</a>
</g>
</g>
<!-- Node2 -->
<g id="Node000002" class="node">
<title>Node2</title>
<g id="a_Node000002"><a xlink:href="classcom_1_1teragrep_1_1pth__06_1_1jooq_1_1generated_1_1journaldb_1_1tables_1_1Bucket.html" target="_top" xlink:title="Buckets in object storage.">
<polygon fill="white" stroke="#666666" points="390.5,-298 111.5,-298 111.5,-268 390.5,-268 390.5,-298"/>
<text text-anchor="start" x="119.5" y="-286" font-family="Helvetica,sans-Serif" font-size="10.00">com.teragrep.pth_06.jooq.generated.journaldb.tables.</text>
<text text-anchor="middle" x="251" y="-275" font-family="Helvetica,sans-Serif" font-size="10.00">Bucket</text>
</a>
</g>
</g>
<!-- Node0&#45;&gt;Node2 -->
<g id="edge110_Node000000_Node000002" class="edge">
<title>Node0&#45;&gt;Node2</title>
<g id="a_edge110_Node000000_Node000002"><a xlink:title=" ">
<path fill="none" stroke="#63b8ff" d="M42.17,-191.81C53.03,-211.94 73.1,-243.1 100,-259 105.79,-262.42 111.91,-265.4 118.25,-267.99"/>
<polygon fill="#63b8ff" stroke="#63b8ff" points="45.15,-189.97 37.46,-182.68 38.93,-193.18 45.15,-189.97"/>
</a>
</g>
</g>
<!-- Node3 -->
<g id="Node000003" class="node">
<title>Node3</title>
<g id="a_Node000003"><a xlink:href="classcom_1_1teragrep_1_1pth__06_1_1jooq_1_1generated_1_1journaldb_1_1tables_1_1Host.html" target="_top" xlink:title="Host names.">
<polygon fill="white" stroke="#666666" points="402,-249.5 100,-249.5 100,-230.5 402,-230.5 402,-249.5"/>
<text text-anchor="middle" x="251" y="-237.5" font-family="Helvetica,sans-Serif" font-size="10.00">com.teragrep.pth_06.jooq.generated.journaldb.tables.Host</text>
</a>
</g>
</g>
<!-- Node0&#45;&gt;Node3 -->
<g id="edge111_Node000000_Node000003" class="edge">
<title>Node0&#45;&gt;Node3</title>
<g id="a_edge111_Node000000_Node000003"><a xlink:title=" ">
<path fill="none" stroke="#63b8ff" d="M50.47,-189.26C63.2,-200.12 81.42,-213.71 100,-221 109.77,-224.83 120.16,-227.93 130.72,-230.44"/>
<polygon fill="#63b8ff" stroke="#63b8ff" points="52.75,-186.6 42.94,-182.6 48.11,-191.85 52.75,-186.6"/>
</a>
</g>
</g>
<!-- Node4 -->
<g id="Node000004" class="node">
<title>Node4</title>
<g id="a_Node000004"><a xlink:href="classcom_1_1teragrep_1_1pth__06_1_1jooq_1_1generated_1_1journaldb_1_1tables_1_1Logfile.html" target="_top" xlink:title="Contains information for log files that have been run through Log Archiver.">
<polygon fill="white" stroke="#666666" points="390.5,-212 111.5,-212 111.5,-182 390.5,-182 390.5,-212"/>
<text text-anchor="start" x="119.5" y="-200" font-family="Helvetica,sans-Serif" font-size="10.00">com.teragrep.pth_06.jooq.generated.journaldb.tables.</text>
<text text-anchor="middle" x="251" y="-189" font-family="Helvetica,sans-Serif" font-size="10.00">Logfile</text>
</a>
</g>
</g>
<!-- Node0&#45;&gt;Node4 -->
<g id="edge112_Node000000_Node000004" class="edge">
<title>Node0&#45;&gt;Node4</title>
<g id="a_edge112_Node000000_Node000004"><a xlink:title=" ">
<path fill="none" stroke="#63b8ff" d="M74.09,-177.54C86.03,-178.86 99.77,-180.38 114.2,-181.98"/>
<polygon fill="#63b8ff" stroke="#63b8ff" points="74.41,-174.06 64.09,-176.44 73.65,-181.02 74.41,-174.06"/>
</a>
</g>
</g>
<!-- Node5 -->
<g id="Node000005" class="node">
<title>Node5</title>
<g id="a_Node000005"><a xlink:href="classcom_1_1teragrep_1_1pth__06_1_1jooq_1_1generated_1_1journaldb_1_1tables_1_1Logtag.html" target="_top" xlink:title="Contains logtag values that are identified using the ID.">
<polygon fill="white" stroke="#666666" points="390.5,-164 111.5,-164 111.5,-134 390.5,-134 390.5,-164"/>
<text text-anchor="start" x="119.5" y="-152" font-family="Helvetica,sans-Serif" font-size="10.00">com.teragrep.pth_06.jooq.generated.journaldb.tables.</text>
<text text-anchor="middle" x="251" y="-141" font-family="Helvetica,sans-Serif" font-size="10.00">Logtag</text>
</a>
</g>
</g>
<!-- Node0&#45;&gt;Node5 -->
<g id="edge113_Node000000_Node000005" class="edge">
<title>Node0&#45;&gt;Node5</title>
<g id="a_edge113_Node000000_Node000005"><a xlink:title=" ">
<path fill="none" stroke="#63b8ff" d="M74.09,-168.46C86.03,-167.14 99.77,-165.62 114.2,-164.02"/>
<polygon fill="#63b8ff" stroke="#63b8ff" points="73.65,-164.98 64.09,-169.56 74.41,-171.94 73.65,-164.98"/>
</a>
</g>
</g>
<!-- Node6 -->
<g id="Node000006" class="node">
<title>Node6</title>
<g id="a_Node000006"><a xlink:href="classcom_1_1teragrep_1_1pth__06_1_1jooq_1_1generated_1_1streamdb_1_1tables_1_1Host.html" target="_top" xlink:title="This class is generated by jOOQ.">
<polygon fill="white" stroke="#666666" points="402,-115.5 100,-115.5 100,-96.5 402,-96.5 402,-115.5"/>
<text text-anchor="middle" x="251" y="-103.5" font-family="Helvetica,sans-Serif" font-size="10.00">com.teragrep.pth_06.jooq.generated.streamdb.tables.Host</text>
</a>
</g>
</g>
<!-- Node0&#45;&gt;Node6 -->
<g id="edge114_Node000000_Node000006" class="edge">
<title>Node0&#45;&gt;Node6</title>
<g id="a_edge114_Node000000_Node000006"><a xlink:title=" ">
<path fill="none" stroke="#63b8ff" d="M50.47,-156.74C63.2,-145.88 81.42,-132.29 100,-125 109.77,-121.17 120.16,-118.07 130.72,-115.56"/>
<polygon fill="#63b8ff" stroke="#63b8ff" points="48.11,-154.15 42.94,-163.4 52.75,-159.4 48.11,-154.15"/>
</a>
</g>
</g>
<!-- Node7 -->
<g id="Node000007" class="node">
<title>Node7</title>
<g id="a_Node000007"><a xlink:href="classcom_1_1teragrep_1_1pth__06_1_1jooq_1_1generated_1_1streamdb_1_1tables_1_1LogGroup.html" target="_top" xlink:title="This class is generated by jOOQ.">
<polygon fill="white" stroke="#666666" points="391,-78 111,-78 111,-48 391,-48 391,-78"/>
<text text-anchor="start" x="119" y="-66" font-family="Helvetica,sans-Serif" font-size="10.00">com.teragrep.pth_06.jooq.generated.streamdb.tables.</text>
<text text-anchor="middle" x="251" y="-55" font-family="Helvetica,sans-Serif" font-size="10.00">LogGroup</text>
</a>
</g>
</g>
<!-- Node0&#45;&gt;Node7 -->
<g id="edge115_Node000000_Node000007" class="edge">
<title>Node0&#45;&gt;Node7</title>
<g id="a_edge115_Node000000_Node000007"><a xlink:title=" ">
<path fill="none" stroke="#63b8ff" d="M42.24,-154.44C53.17,-134.57 73.3,-103.8 100,-88 106.48,-84.17 113.37,-80.88 120.51,-78.06"/>
<polygon fill="#63b8ff" stroke="#63b8ff" points="39.06,-152.97 37.51,-163.45 45.26,-156.22 39.06,-152.97"/>
</a>
</g>
</g>
<!-- Node8 -->
<g id="Node000008" class="node">
<title>Node8</title>
<g id="a_Node000008"><a xlink:href="classcom_1_1teragrep_1_1pth__06_1_1jooq_1_1generated_1_1streamdb_1_1tables_1_1Stream.html" target="_top" xlink:title="This class is generated by jOOQ.">
<polygon fill="white" stroke="#666666" points="391,-30 111,-30 111,0 391,0 391,-30"/>
<text text-anchor="start" x="119" y="-18" font-family="Helvetica,sans-Serif" font-size="10.00">com.teragrep.pth_06.jooq.generated.streamdb.tables.</text>
<text text-anchor="middle" x="251" y="-7" font-family="Helvetica,sans-Serif" font-size="10.00">Stream</text>
</a>
</g>
</g>
<!-- Node0&#45;&gt;Node8 -->
<g id="edge116_Node000000_Node000008" class="edge">
<title>Node0&#45;&gt;Node8</title>
<g id="a_edge116_Node000000_Node000008"><a xlink:title=" ">
<path fill="none" stroke="#63b8ff" d="M36.91,-153.23C43.94,-123.32 61.69,-67.1 100,-39 104.57,-35.65 109.43,-32.69 114.51,-30.08"/>
<polygon fill="#63b8ff" stroke="#63b8ff" points="33.43,-152.77 34.73,-163.29 40.27,-154.26 33.43,-152.77"/>
</a>
</g>
</g>
</g>
</svg>
