<?xml version="1.0" encoding="UTF-8" standalone="no"?>
<!DOCTYPE svg PUBLIC "-//W3C//DTD SVG 1.1//EN"
 "http://www.w3.org/Graphics/SVG/1.1/DTD/svg11.dtd">
<!-- Generated by graphviz version 2.43.0 (0)
 -->
<!-- Title: com.teragrep.pth_06.planner.bloomfilter.CategoryTableImpl Pages: 1 -->
<svg width="878pt" height="86pt"
 viewBox="0.00 0.00 878.00 86.00" xmlns="http://www.w3.org/2000/svg" xmlns:xlink="http://www.w3.org/1999/xlink">
<g id="graph0" class="graph" transform="scale(1 1) rotate(0) translate(4 82)">
<title>com.teragrep.pth_06.planner.bloomfilter.CategoryTableImpl</title>
<!-- Node1 -->
<g id="Node000001" class="node">
<title>Node1</title>
<g id="a_Node000001"><a xlink:title="Class to create a temp table of current search term and origin filter size filter types.">
<polygon fill="#999999" stroke="#666666" points="870,-54 655,-54 655,-24 870,-24 870,-54"/>
<text text-anchor="start" x="663" y="-42" font-family="Helvetica,sans-Serif" font-size="10.00">com.teragrep.pth_06.planner.bloomfilter.</text>
<text text-anchor="middle" x="762.5" y="-31" font-family="Helvetica,sans-Serif" font-size="10.00">CategoryTableImpl</text>
</a>
</g>
</g>
<!-- Node2 -->
<g id="Node000002" class="node">
<title>Node2</title>
<g id="a_Node000002"><a xlink:href="interfacecom_1_1teragrep_1_1pth__06_1_1planner_1_1bloomfilter_1_1CategoryTable.html" target="_top" xlink:title=" ">
<polygon fill="white" stroke="#666666" points="561,-78 346,-78 346,-48 561,-48 561,-78"/>
<text text-anchor="start" x="354" y="-66" font-family="Helvetica,sans-Serif" font-size="10.00">com.teragrep.pth_06.planner.bloomfilter.</text>
<text text-anchor="middle" x="453.5" y="-55" font-family="Helvetica,sans-Serif" font-size="10.00">CategoryTable</text>
</a>
</g>
</g>
<!-- Node2&#45;&gt;Node1 -->
<g id="edge1_Node000001_Node000002" class="edge">
<title>Node2&#45;&gt;Node1</title>
<g id="a_edge1_Node000001_Node000002"><a xlink:title=" ">
<path fill="none" stroke="#63b8ff" d="M571.08,-53.89C598.62,-51.73 627.84,-49.45 654.92,-47.33"/>
<polygon fill="#63b8ff" stroke="#63b8ff" points="570.71,-50.4 561.01,-54.67 571.25,-57.38 570.71,-50.4"/>
</a>
</g>
</g>
<!-- Node3 -->
<g id="Node000003" class="node">
<title>Node3</title>
<g id="a_Node000003"><a xlink:href="classcom_1_1teragrep_1_1pth__06_1_1planner_1_1bloomfilter_1_1TableFilters.html" target="_top" xlink:title="Filter types of a table that can be inserted into the category table.">
<polygon fill="white" stroke="#666666" points="561,-30 346,-30 346,0 561,0 561,-30"/>
<text text-anchor="start" x="354" y="-18" font-family="Helvetica,sans-Serif" font-size="10.00">com.teragrep.pth_06.planner.bloomfilter.</text>
<text text-anchor="middle" x="453.5" y="-7" font-family="Helvetica,sans-Serif" font-size="10.00">TableFilters</text>
</a>
</g>
</g>
<!-- Node3&#45;&gt;Node1 -->
<g id="edge2_Node000001_Node000003" class="edge">
<title>Node3&#45;&gt;Node1</title>
<g id="a_edge2_Node000001_Node000003"><a xlink:title=" ">
<path fill="none" stroke="#9a32cd" stroke-dasharray="5,2" d="M571.08,-24.11C598.62,-26.27 627.84,-28.55 654.92,-30.67"/>
<polygon fill="#9a32cd" stroke="#9a32cd" points="571.25,-20.62 561.01,-23.33 570.71,-27.6 571.25,-20.62"/>
</a>
</g>
<text text-anchor="middle" x="608" y="-32" font-family="Helvetica,sans-Serif" font-size="10.00" fill="grey"> tableFilters</text>
</g>
<!-- Node4 -->
<g id="Node000004" class="node">
<title>Node4</title>
<g id="a_Node000004"><a xlink:href="interfacecom_1_1teragrep_1_1pth__06_1_1planner_1_1bloomfilter_1_1TableRecords.html" target="_top" xlink:title=" ">
<polygon fill="white" stroke="#666666" points="215,-30 0,-30 0,0 215,0 215,-30"/>
<text text-anchor="start" x="8" y="-18" font-family="Helvetica,sans-Serif" font-size="10.00">com.teragrep.pth_06.planner.bloomfilter.</text>
<text text-anchor="middle" x="107.5" y="-7" font-family="Helvetica,sans-Serif" font-size="10.00">TableRecords</text>
</a>
</g>
</g>
<!-- Node4&#45;&gt;Node3 -->
<g id="edge3_Node000003_Node000004" class="edge">
<title>Node4&#45;&gt;Node3</title>
<g id="a_edge3_Node000003_Node000004"><a xlink:title=" ">
<path fill="none" stroke="#9a32cd" stroke-dasharray="5,2" d="M225.79,-15C264.72,-15 307.82,-15 345.9,-15"/>
<polygon fill="#9a32cd" stroke="#9a32cd" points="225.46,-11.5 215.46,-15 225.46,-18.5 225.46,-11.5"/>
</a>
</g>
<text text-anchor="middle" x="280.5" y="-18" font-family="Helvetica,sans-Serif" font-size="10.00" fill="grey"> recordsInMetadata</text>
</g>
</g>
</svg>
