<?xml version="1.0" encoding="UTF-8" standalone="no"?>
<!DOCTYPE svg PUBLIC "-//W3C//DTD SVG 1.1//EN"
 "http://www.w3.org/Graphics/SVG/1.1/DTD/svg11.dtd">
<!-- Generated by graphviz version 2.43.0 (0)
 -->
<!-- Title: com.teragrep.pth_06.planner.bloomfilter.ConditionMatchBloomDBTablesTest.testSearchTermTokenizedMatch Pages: 1 -->
<svg width="503pt" height="62pt"
 viewBox="0.00 0.00 503.00 61.50" xmlns="http://www.w3.org/2000/svg" xmlns:xlink="http://www.w3.org/1999/xlink">
<g id="graph0" class="graph" transform="scale(1 1) rotate(0) translate(4 57.5)">
<title>com.teragrep.pth_06.planner.bloomfilter.ConditionMatchBloomDBTablesTest.testSearchTermTokenizedMatch</title>
<!-- Node1 -->
<g id="Node000001" class="node">
<title>Node1</title>
<g id="a_Node000001"><a xlink:title=" ">
<polygon fill="#999999" stroke="#666666" points="244,-41 0,-41 0,0 244,0 244,-41"/>
<text text-anchor="start" x="8" y="-29" font-family="Helvetica,sans-Serif" font-size="10.00">com.teragrep.pth_06.planner.bloomfilter.</text>
<text text-anchor="start" x="8" y="-18" font-family="Helvetica,sans-Serif" font-size="10.00">ConditionMatchBloomDBTablesTest.testSearch</text>
<text text-anchor="middle" x="122" y="-7" font-family="Helvetica,sans-Serif" font-size="10.00">TermTokenizedMatch</text>
</a>
</g>
</g>
<!-- Node2 -->
<g id="Node000002" class="node">
<title>Node2</title>
<g id="a_Node000002"><a xlink:href="classcom_1_1teragrep_1_1pth__06_1_1planner_1_1bloomfilter_1_1ConditionMatchBloomDBTables.html#ac229ed7784f0354aff39183a4c0ba638" target="_top" xlink:title="List of tables from bloomdb that match QueryCondition Note: Table records are not fetched fully.">
<polygon fill="white" stroke="#666666" points="495,-35.5 280,-35.5 280,-5.5 495,-5.5 495,-35.5"/>
<text text-anchor="start" x="288" y="-23.5" font-family="Helvetica,sans-Serif" font-size="10.00">com.teragrep.pth_06.planner.bloomfilter.</text>
<text text-anchor="middle" x="387.5" y="-12.5" font-family="Helvetica,sans-Serif" font-size="10.00">ConditionMatchBloomDBTables.tables</text>
</a>
</g>
</g>
<!-- Node1&#45;&gt;Node2 -->
<g id="edge1_Node000001_Node000002" class="edge">
<title>Node1&#45;&gt;Node2</title>
<g id="a_edge1_Node000001_Node000002"><a xlink:title=" ">
<path fill="none" stroke="#63b8ff" d="M244.34,-20.5C252.79,-20.5 261.3,-20.5 269.72,-20.5"/>
<polygon fill="#63b8ff" stroke="#63b8ff" points="269.95,-24 279.95,-20.5 269.95,-17 269.95,-24"/>
</a>
</g>
</g>
<!-- Node2&#45;&gt;Node2 -->
<g id="edge2_Node000002_Node000002" class="edge">
<title>Node2&#45;&gt;Node2</title>
<g id="a_edge2_Node000002_Node000002"><a xlink:title=" ">
<path fill="none" stroke="#63b8ff" d="M341.09,-35.78C330.78,-44.91 346.25,-53.5 387.5,-53.5 411.99,-53.5 427.4,-50.47 433.71,-46.1"/>
<polygon fill="#63b8ff" stroke="#63b8ff" points="437.22,-45.84 433.91,-35.78 430.22,-45.71 437.22,-45.84"/>
</a>
</g>
</g>
</g>
</svg>
