<?xml version="1.0" encoding="UTF-8" standalone="no"?>
<!DOCTYPE svg PUBLIC "-//W3C//DTD SVG 1.1//EN"
 "http://www.w3.org/Graphics/SVG/1.1/DTD/svg11.dtd">
<!-- Generated by graphviz version 2.43.0 (0)
 -->
<!-- Title: com.teragrep.pth_06.planner.StreamDBClient.pullToSliceTable Pages: 1 -->
<svg width="835pt" height="210pt"
 viewBox="0.00 0.00 835.00 210.00" xmlns="http://www.w3.org/2000/svg" xmlns:xlink="http://www.w3.org/1999/xlink">
<g id="graph0" class="graph" transform="scale(1 1) rotate(0) translate(4 206)">
<title>com.teragrep.pth_06.planner.StreamDBClient.pullToSliceTable</title>
<!-- Node1 -->
<g id="Node000001" class="node">
<title>Node1</title>
<g id="a_Node000001"><a xlink:title=" ">
<polygon fill="#999999" stroke="#666666" points="175,-116 0,-116 0,-86 175,-86 175,-116"/>
<text text-anchor="start" x="8" y="-104" font-family="Helvetica,sans-Serif" font-size="10.00">com.teragrep.pth_06.planner.</text>
<text text-anchor="middle" x="87.5" y="-93" font-family="Helvetica,sans-Serif" font-size="10.00">StreamDBClient.pullToSliceTable</text>
</a>
</g>
</g>
<!-- Node2 -->
<g id="Node000002" class="node">
<title>Node2</title>
<g id="a_Node000002"><a xlink:href="classcom_1_1teragrep_1_1pth__06_1_1ConfiguredLogger.html#a432bade7d6310bed1e1b9a405fb53d56" target="_top" xlink:title=" ">
<polygon fill="white" stroke="#666666" points="618,-202 445,-202 445,-172 618,-172 618,-202"/>
<text text-anchor="start" x="453" y="-190" font-family="Helvetica,sans-Serif" font-size="10.00">com.teragrep.pth_06.Configured</text>
<text text-anchor="middle" x="531.5" y="-179" font-family="Helvetica,sans-Serif" font-size="10.00">Logger.debug</text>
</a>
</g>
</g>
<!-- Node1&#45;&gt;Node2 -->
<g id="edge1_Node000001_Node000002" class="edge">
<title>Node1&#45;&gt;Node2</title>
<g id="a_edge1_Node000001_Node000002"><a xlink:title=" ">
<path fill="none" stroke="#63b8ff" d="M136.16,-116.06C158.69,-122.8 186.06,-130.47 211,-136 285.57,-152.54 371.06,-165.9 434.83,-174.79"/>
<polygon fill="#63b8ff" stroke="#63b8ff" points="434.49,-178.27 444.88,-176.18 435.45,-171.34 434.49,-178.27"/>
</a>
</g>
</g>
<!-- Node3 -->
<g id="Node000003" class="node">
<title>Node3</title>
<g id="a_Node000003"><a xlink:href="classcom_1_1teragrep_1_1pth__06_1_1ConfiguredLogger.html#adbd659cefc990abe9b2da58d3dae9970" target="_top" xlink:title=" ">
<polygon fill="white" stroke="#666666" points="827,-159 654,-159 654,-129 827,-129 827,-159"/>
<text text-anchor="start" x="662" y="-147" font-family="Helvetica,sans-Serif" font-size="10.00">com.teragrep.pth_06.Configured</text>
<text text-anchor="middle" x="740.5" y="-136" font-family="Helvetica,sans-Serif" font-size="10.00">Logger.info</text>
</a>
</g>
</g>
<!-- Node1&#45;&gt;Node3 -->
<g id="edge7_Node000001_Node000003" class="edge">
<title>Node1&#45;&gt;Node3</title>
<g id="a_edge7_Node000001_Node000003"><a xlink:title=" ">
<path fill="none" stroke="#63b8ff" d="M153.74,-85.93C254.96,-65.24 455.14,-35.07 618,-77 652.54,-85.89 687.78,-106.92 711.35,-123.06"/>
<polygon fill="#63b8ff" stroke="#63b8ff" points="709.58,-126.1 719.78,-128.97 713.6,-120.37 709.58,-126.1"/>
</a>
</g>
</g>
<!-- Node4 -->
<g id="Node000004" class="node">
<title>Node4</title>
<g id="a_Node000004"><a xlink:href="classcom_1_1teragrep_1_1pth__06_1_1planner_1_1NestedTopNQuery.html#ab9a75398ae4f26212f007ce95c24c26f" target="_top" xlink:title=" ">
<polygon fill="white" stroke="#666666" points="409,-127 211,-127 211,-97 409,-97 409,-127"/>
<text text-anchor="start" x="219" y="-115" font-family="Helvetica,sans-Serif" font-size="10.00">com.teragrep.pth_06.planner.</text>
<text text-anchor="middle" x="310" y="-104" font-family="Helvetica,sans-Serif" font-size="10.00">NestedTopNQuery.getTableStatement</text>
</a>
</g>
</g>
<!-- Node1&#45;&gt;Node4 -->
<g id="edge3_Node000001_Node000004" class="edge">
<title>Node1&#45;&gt;Node4</title>
<g id="a_edge3_Node000001_Node000004"><a xlink:title=" ">
<path fill="none" stroke="#63b8ff" d="M175.01,-105.32C183.43,-105.74 192.03,-106.16 200.62,-106.59"/>
<polygon fill="#63b8ff" stroke="#63b8ff" points="200.52,-110.09 210.69,-107.1 200.87,-103.1 200.52,-110.09"/>
</a>
</g>
</g>
<!-- Node6 -->
<g id="Node000006" class="node">
<title>Node6</title>
<g id="a_Node000006"><a xlink:href="classcom_1_1teragrep_1_1pth__06_1_1ConfiguredLogger.html#af42a0722b715d8fd28805092370257d2" target="_top" xlink:title=" ">
<polygon fill="white" stroke="#666666" points="396.5,-30 223.5,-30 223.5,0 396.5,0 396.5,-30"/>
<text text-anchor="start" x="231.5" y="-18" font-family="Helvetica,sans-Serif" font-size="10.00">com.teragrep.pth_06.Configured</text>
<text text-anchor="middle" x="310" y="-7" font-family="Helvetica,sans-Serif" font-size="10.00">Logger.trace</text>
</a>
</g>
</g>
<!-- Node1&#45;&gt;Node6 -->
<g id="edge8_Node000001_Node000006" class="edge">
<title>Node1&#45;&gt;Node6</title>
<g id="a_edge8_Node000001_Node000006"><a xlink:title=" ">
<path fill="none" stroke="#63b8ff" d="M117.68,-85.93C142.17,-73.65 178.31,-56.36 211,-44 221.23,-40.13 232.21,-36.44 242.99,-33.08"/>
<polygon fill="#63b8ff" stroke="#63b8ff" points="244.27,-36.35 252.81,-30.08 242.23,-29.65 244.27,-36.35"/>
</a>
</g>
</g>
<!-- Node2&#45;&gt;Node3 -->
<g id="edge2_Node000002_Node000003" class="edge">
<title>Node2&#45;&gt;Node3</title>
<g id="a_edge2_Node000002_Node000003"><a xlink:title=" ">
<path fill="none" stroke="#63b8ff" d="M604.9,-171.96C621.76,-168.46 639.83,-164.7 657.09,-161.12"/>
<polygon fill="#63b8ff" stroke="#63b8ff" points="658.06,-164.49 667.14,-159.03 656.64,-157.64 658.06,-164.49"/>
</a>
</g>
</g>
<!-- Node4&#45;&gt;Node2 -->
<g id="edge4_Node000004_Node000002" class="edge">
<title>Node4&#45;&gt;Node2</title>
<g id="a_edge4_Node000004_Node000002"><a xlink:title=" ">
<path fill="none" stroke="#63b8ff" d="M354.74,-127.06C380.92,-136.06 414.85,-147.71 445,-158 455.22,-161.49 466.14,-165.2 476.63,-168.76"/>
<polygon fill="#63b8ff" stroke="#63b8ff" points="475.52,-172.08 486.11,-171.98 477.77,-165.45 475.52,-172.08"/>
</a>
</g>
</g>
<!-- Node4&#45;&gt;Node3 -->
<g id="edge5_Node000004_Node000003" class="edge">
<title>Node4&#45;&gt;Node3</title>
<g id="a_edge5_Node000004_Node000003"><a xlink:title=" ">
<path fill="none" stroke="#63b8ff" d="M409.03,-121.88C421.14,-122.99 433.35,-124.06 445,-125 511.24,-130.35 585.96,-135.16 643.57,-138.6"/>
<polygon fill="#63b8ff" stroke="#63b8ff" points="643.56,-142.1 653.75,-139.2 643.98,-135.11 643.56,-142.1"/>
</a>
</g>
</g>
<!-- Node5 -->
<g id="Node000005" class="node">
<title>Node5</title>
<g id="a_Node000005"><a xlink:href="classcom_1_1teragrep_1_1pth__06_1_1ConfiguredLogger.html#a03c44f8bbcceea9ce885498f428247cd" target="_top" xlink:title=" ">
<polygon fill="white" stroke="#666666" points="618,-116 445,-116 445,-86 618,-86 618,-116"/>
<text text-anchor="start" x="453" y="-104" font-family="Helvetica,sans-Serif" font-size="10.00">com.teragrep.pth_06.Configured</text>
<text text-anchor="middle" x="531.5" y="-93" font-family="Helvetica,sans-Serif" font-size="10.00">Logger.isInfoEnabled</text>
</a>
</g>
</g>
<!-- Node4&#45;&gt;Node5 -->
<g id="edge6_Node000004_Node000005" class="edge">
<title>Node4&#45;&gt;Node5</title>
<g id="a_edge6_Node000004_Node000005"><a xlink:title=" ">
<path fill="none" stroke="#63b8ff" d="M409.19,-107.08C417.63,-106.66 426.17,-106.23 434.59,-105.81"/>
<polygon fill="#63b8ff" stroke="#63b8ff" points="434.98,-109.29 444.79,-105.3 434.63,-102.3 434.98,-109.29"/>
</a>
</g>
</g>
</g>
</svg>
