<?xml version="1.0" encoding="UTF-8" standalone="no"?>
<!DOCTYPE svg PUBLIC "-//W3C//DTD SVG 1.1//EN"
 "http://www.w3.org/Graphics/SVG/1.1/DTD/svg11.dtd">
<!-- Generated by graphviz version 2.43.0 (0)
 -->
<!-- Title: com.teragrep.pth_06.planner.ArchiveQueryProcessor.seekToResults Pages: 1 -->
<svg width="1073pt" height="123pt"
 viewBox="0.00 0.00 1073.00 122.51" xmlns="http://www.w3.org/2000/svg" xmlns:xlink="http://www.w3.org/1999/xlink">
<g id="graph0" class="graph" transform="scale(1 1) rotate(0) translate(4 118.51)">
<title>com.teragrep.pth_06.planner.ArchiveQueryProcessor.seekToResults</title>
<!-- Node1 -->
<g id="Node000001" class="node">
<title>Node1</title>
<g id="a_Node000001"><a xlink:title="Increment the rolling day and pull data for that day into the sliceTable.">
<polygon fill="#999999" stroke="#666666" points="202,-45.67 0,-45.67 0,-15.67 202,-15.67 202,-45.67"/>
<text text-anchor="start" x="8" y="-33.67" font-family="Helvetica,sans-Serif" font-size="10.00">com.teragrep.pth_06.planner.</text>
<text text-anchor="middle" x="101" y="-22.67" font-family="Helvetica,sans-Serif" font-size="10.00">ArchiveQueryProcessor.seekToResults</text>
</a>
</g>
</g>
<!-- Node2 -->
<g id="Node000002" class="node">
<title>Node2</title>
<g id="a_Node000002"><a xlink:href="classcom_1_1teragrep_1_1pth__06_1_1planner_1_1StreamDBClient.html#adbe4b13c48e67d8d82ae4ed9ee93f7df" target="_top" xlink:title=" ">
<polygon fill="white" stroke="#666666" points="413,-45.67 238,-45.67 238,-15.67 413,-15.67 413,-45.67"/>
<text text-anchor="start" x="246" y="-33.67" font-family="Helvetica,sans-Serif" font-size="10.00">com.teragrep.pth_06.planner.</text>
<text text-anchor="middle" x="325.5" y="-22.67" font-family="Helvetica,sans-Serif" font-size="10.00">StreamDBClient.pullToSliceTable</text>
</a>
</g>
</g>
<!-- Node1&#45;&gt;Node2 -->
<g id="edge1_Node000001_Node000002" class="edge">
<title>Node1&#45;&gt;Node2</title>
<g id="a_edge1_Node000001_Node000002"><a xlink:title=" ">
<path fill="none" stroke="#63b8ff" d="M202.18,-30.67C210.63,-30.67 219.16,-30.67 227.58,-30.67"/>
<polygon fill="#63b8ff" stroke="#63b8ff" points="227.79,-34.17 237.79,-30.67 227.79,-27.17 227.79,-34.17"/>
</a>
</g>
</g>
<!-- Node3 -->
<g id="Node000003" class="node">
<title>Node3</title>
<g id="a_Node000003"><a xlink:href="classcom_1_1teragrep_1_1pth__06_1_1ConfiguredLogger.html#a432bade7d6310bed1e1b9a405fb53d56" target="_top" xlink:title=" ">
<polygon fill="white" stroke="#666666" points="856,-45.67 683,-45.67 683,-15.67 856,-15.67 856,-45.67"/>
<text text-anchor="start" x="691" y="-33.67" font-family="Helvetica,sans-Serif" font-size="10.00">com.teragrep.pth_06.Configured</text>
<text text-anchor="middle" x="769.5" y="-22.67" font-family="Helvetica,sans-Serif" font-size="10.00">Logger.debug</text>
</a>
</g>
</g>
<!-- Node2&#45;&gt;Node3 -->
<g id="edge2_Node000002_Node000003" class="edge">
<title>Node2&#45;&gt;Node3</title>
<g id="a_edge2_Node000002_Node000003"><a xlink:title=" ">
<path fill="none" stroke="#63b8ff" d="M413.03,-30.67C487.72,-30.67 595.45,-30.67 672.71,-30.67"/>
<polygon fill="#63b8ff" stroke="#63b8ff" points="672.93,-34.17 682.93,-30.67 672.93,-27.17 672.93,-34.17"/>
</a>
</g>
</g>
<!-- Node4 -->
<g id="Node000004" class="node">
<title>Node4</title>
<g id="a_Node000004"><a xlink:href="classcom_1_1teragrep_1_1pth__06_1_1ConfiguredLogger.html#adbd659cefc990abe9b2da58d3dae9970" target="_top" xlink:title=" ">
<polygon fill="white" stroke="#666666" points="1065,-45.67 892,-45.67 892,-15.67 1065,-15.67 1065,-45.67"/>
<text text-anchor="start" x="900" y="-33.67" font-family="Helvetica,sans-Serif" font-size="10.00">com.teragrep.pth_06.Configured</text>
<text text-anchor="middle" x="978.5" y="-22.67" font-family="Helvetica,sans-Serif" font-size="10.00">Logger.info</text>
</a>
</g>
</g>
<!-- Node2&#45;&gt;Node4 -->
<g id="edge8_Node000002_Node000004" class="edge">
<title>Node2&#45;&gt;Node4</title>
<g id="a_edge8_Node000002_Node000004"><a xlink:title=" ">
<path fill="none" stroke="#63b8ff" d="M413.37,-19.16C518.43,-6.98 700.54,8.54 856,-6.67 871.45,-8.18 887.84,-10.75 903.43,-13.66"/>
<polygon fill="#63b8ff" stroke="#63b8ff" points="903.05,-17.15 913.53,-15.61 904.38,-10.28 903.05,-17.15"/>
</a>
</g>
</g>
<!-- Node5 -->
<g id="Node000005" class="node">
<title>Node5</title>
<g id="a_Node000005"><a xlink:href="classcom_1_1teragrep_1_1pth__06_1_1planner_1_1NestedTopNQuery.html#ab9a75398ae4f26212f007ce95c24c26f" target="_top" xlink:title=" ">
<polygon fill="white" stroke="#666666" points="647,-90.67 449,-90.67 449,-60.67 647,-60.67 647,-90.67"/>
<text text-anchor="start" x="457" y="-78.67" font-family="Helvetica,sans-Serif" font-size="10.00">com.teragrep.pth_06.planner.</text>
<text text-anchor="middle" x="548" y="-67.67" font-family="Helvetica,sans-Serif" font-size="10.00">NestedTopNQuery.getTableStatement</text>
</a>
</g>
</g>
<!-- Node2&#45;&gt;Node5 -->
<g id="edge4_Node000002_Node000005" class="edge">
<title>Node2&#45;&gt;Node5</title>
<g id="a_edge4_Node000002_Node000005"><a xlink:title=" ">
<path fill="none" stroke="#63b8ff" d="M400.23,-45.72C420.46,-49.85 442.53,-54.35 463.28,-58.59"/>
<polygon fill="#63b8ff" stroke="#63b8ff" points="462.84,-62.07 473.34,-60.64 464.24,-55.21 462.84,-62.07"/>
</a>
</g>
</g>
<!-- Node3&#45;&gt;Node4 -->
<g id="edge3_Node000003_Node000004" class="edge">
<title>Node3&#45;&gt;Node4</title>
<g id="a_edge3_Node000003_Node000004"><a xlink:title=" ">
<path fill="none" stroke="#63b8ff" d="M856.19,-30.67C864.66,-30.67 873.3,-30.67 881.87,-30.67"/>
<polygon fill="#63b8ff" stroke="#63b8ff" points="881.88,-34.17 891.88,-30.67 881.88,-27.17 881.88,-34.17"/>
</a>
</g>
</g>
<!-- Node5&#45;&gt;Node3 -->
<g id="edge5_Node000005_Node000003" class="edge">
<title>Node5&#45;&gt;Node3</title>
<g id="a_edge5_Node000005_Node000003"><a xlink:title=" ">
<path fill="none" stroke="#63b8ff" d="M622.4,-60.62C642.53,-56.5 664.51,-51.99 685.16,-47.76"/>
<polygon fill="#63b8ff" stroke="#63b8ff" points="686.08,-51.14 695.17,-45.7 684.67,-44.28 686.08,-51.14"/>
</a>
</g>
</g>
<!-- Node5&#45;&gt;Node4 -->
<g id="edge6_Node000005_Node000004" class="edge">
<title>Node5&#45;&gt;Node4</title>
<g id="a_edge6_Node000005_Node000004"><a xlink:title=" ">
<path fill="none" stroke="#63b8ff" d="M599.15,-90.69C660.74,-106.74 767.89,-126.82 856,-102.67 891.8,-92.86 927.76,-69.47 951.16,-51.99"/>
<polygon fill="#63b8ff" stroke="#63b8ff" points="953.37,-54.71 959.19,-45.86 949.12,-49.15 953.37,-54.71"/>
</a>
</g>
</g>
<!-- Node6 -->
<g id="Node000006" class="node">
<title>Node6</title>
<g id="a_Node000006"><a xlink:href="classcom_1_1teragrep_1_1pth__06_1_1ConfiguredLogger.html#a03c44f8bbcceea9ce885498f428247cd" target="_top" xlink:title=" ">
<polygon fill="white" stroke="#666666" points="856,-93.67 683,-93.67 683,-63.67 856,-63.67 856,-93.67"/>
<text text-anchor="start" x="691" y="-81.67" font-family="Helvetica,sans-Serif" font-size="10.00">com.teragrep.pth_06.Configured</text>
<text text-anchor="middle" x="769.5" y="-70.67" font-family="Helvetica,sans-Serif" font-size="10.00">Logger.isInfoEnabled</text>
</a>
</g>
</g>
<!-- Node5&#45;&gt;Node6 -->
<g id="edge7_Node000005_Node000006" class="edge">
<title>Node5&#45;&gt;Node6</title>
<g id="a_edge7_Node000005_Node000006"><a xlink:title=" ">
<path fill="none" stroke="#63b8ff" d="M647.19,-77.01C655.63,-77.13 664.17,-77.25 672.59,-77.36"/>
<polygon fill="#63b8ff" stroke="#63b8ff" points="672.74,-80.86 682.79,-77.5 672.84,-73.86 672.74,-80.86"/>
</a>
</g>
</g>
</g>
</svg>
