<?xml version="1.0" encoding="UTF-8" standalone="no"?>
<!DOCTYPE svg PUBLIC "-//W3C//DTD SVG 1.1//EN"
 "http://www.w3.org/Graphics/SVG/1.1/DTD/svg11.dtd">
<!-- Generated by graphviz version 2.43.0 (0)
 -->
<!-- Title: com.teragrep.pth_06.planner.ArchiveQueryProcessor.incrementAndGetLatestOffset Pages: 1 -->
<svg width="1291pt" height="135pt"
 viewBox="0.00 0.00 1291.00 135.17" xmlns="http://www.w3.org/2000/svg" xmlns:xlink="http://www.w3.org/1999/xlink">
<g id="graph0" class="graph" transform="scale(1 1) rotate(0) translate(4 131.17)">
<title>com.teragrep.pth_06.planner.ArchiveQueryProcessor.incrementAndGetLatestOffset</title>
<!-- Node1 -->
<g id="Node000001" class="node">
<title>Node1</title>
<g id="a_Node000001"><a xlink:title="Increments the latest offset value and returns that incremented offset.">
<polygon fill="#999999" stroke="#666666" points="182,-73.17 0,-73.17 0,-32.17 182,-32.17 182,-73.17"/>
<text text-anchor="start" x="8" y="-61.17" font-family="Helvetica,sans-Serif" font-size="10.00">com.teragrep.pth_06.planner.</text>
<text text-anchor="start" x="8" y="-50.17" font-family="Helvetica,sans-Serif" font-size="10.00">ArchiveQueryProcessor.increment</text>
<text text-anchor="middle" x="91" y="-39.17" font-family="Helvetica,sans-Serif" font-size="10.00">AndGetLatestOffset</text>
</a>
</g>
</g>
<!-- Node2 -->
<g id="Node000002" class="node">
<title>Node2</title>
<g id="a_Node000002"><a xlink:href="classcom_1_1teragrep_1_1pth__06_1_1planner_1_1ArchiveQueryProcessor.html#a1f1a7e795ca43c5d98c2fde28a3dd267" target="_top" xlink:title="Returns the earliest offset, which always remains the same within a query.">
<polygon fill="white" stroke="#666666" points="407,-127.17 231,-127.17 231,-86.17 407,-86.17 407,-127.17"/>
<text text-anchor="start" x="239" y="-115.17" font-family="Helvetica,sans-Serif" font-size="10.00">com.teragrep.pth_06.planner.</text>
<text text-anchor="start" x="239" y="-104.17" font-family="Helvetica,sans-Serif" font-size="10.00">ArchiveQueryProcessor.getInitial</text>
<text text-anchor="middle" x="319" y="-93.17" font-family="Helvetica,sans-Serif" font-size="10.00">Offset</text>
</a>
</g>
</g>
<!-- Node1&#45;&gt;Node2 -->
<g id="edge1_Node000001_Node000002" class="edge">
<title>Node1&#45;&gt;Node2</title>
<g id="a_edge1_Node000001_Node000002"><a xlink:title=" ">
<path fill="none" stroke="#63b8ff" d="M178.09,-73.24C192.48,-76.68 207.49,-80.27 222.11,-83.76"/>
<polygon fill="#63b8ff" stroke="#63b8ff" points="221.61,-87.24 232.15,-86.16 223.24,-80.43 221.61,-87.24"/>
</a>
</g>
</g>
<!-- Node3 -->
<g id="Node000003" class="node">
<title>Node3</title>
<g id="a_Node000003"><a xlink:href="classcom_1_1teragrep_1_1pth__06_1_1planner_1_1StreamDBClient.html#adbe4b13c48e67d8d82ae4ed9ee93f7df" target="_top" xlink:title=" ">
<polygon fill="white" stroke="#666666" points="631,-45.67 456,-45.67 456,-15.67 631,-15.67 631,-45.67"/>
<text text-anchor="start" x="464" y="-33.67" font-family="Helvetica,sans-Serif" font-size="10.00">com.teragrep.pth_06.planner.</text>
<text text-anchor="middle" x="543.5" y="-22.67" font-family="Helvetica,sans-Serif" font-size="10.00">StreamDBClient.pullToSliceTable</text>
</a>
</g>
</g>
<!-- Node1&#45;&gt;Node3 -->
<g id="edge2_Node000001_Node000003" class="edge">
<title>Node1&#45;&gt;Node3</title>
<g id="a_edge2_Node000001_Node000003"><a xlink:title=" ">
<path fill="none" stroke="#63b8ff" d="M182.21,-33.37C194.2,-31.43 206.36,-29.77 218,-28.67 294.27,-21.47 381.06,-22.49 445.69,-25.02"/>
<polygon fill="#63b8ff" stroke="#63b8ff" points="445.73,-28.52 455.87,-25.44 446.02,-21.53 445.73,-28.52"/>
</a>
</g>
</g>
<!-- Node8 -->
<g id="Node000008" class="node">
<title>Node8</title>
<g id="a_Node000008"><a xlink:href="classcom_1_1teragrep_1_1pth__06_1_1planner_1_1ArchiveQueryProcessor.html#a3e2e817526f72a254cd6358389a5b7f2" target="_top" xlink:title="Increment the rolling day and pull data for that day into the sliceTable.">
<polygon fill="white" stroke="#666666" points="420,-67.67 218,-67.67 218,-37.67 420,-37.67 420,-67.67"/>
<text text-anchor="start" x="226" y="-55.67" font-family="Helvetica,sans-Serif" font-size="10.00">com.teragrep.pth_06.planner.</text>
<text text-anchor="middle" x="319" y="-44.67" font-family="Helvetica,sans-Serif" font-size="10.00">ArchiveQueryProcessor.seekToResults</text>
</a>
</g>
</g>
<!-- Node1&#45;&gt;Node8 -->
<g id="edge10_Node000001_Node000008" class="edge">
<title>Node1&#45;&gt;Node8</title>
<g id="a_edge10_Node000001_Node000008"><a xlink:title=" ">
<path fill="none" stroke="#63b8ff" d="M182.3,-52.67C190.69,-52.67 199.26,-52.67 207.81,-52.67"/>
<polygon fill="#63b8ff" stroke="#63b8ff" points="207.82,-56.17 217.82,-52.67 207.82,-49.17 207.82,-56.17"/>
</a>
</g>
</g>
<!-- Node4 -->
<g id="Node000004" class="node">
<title>Node4</title>
<g id="a_Node000004"><a xlink:href="classcom_1_1teragrep_1_1pth__06_1_1ConfiguredLogger.html#a432bade7d6310bed1e1b9a405fb53d56" target="_top" xlink:title=" ">
<polygon fill="white" stroke="#666666" points="1074,-45.67 901,-45.67 901,-15.67 1074,-15.67 1074,-45.67"/>
<text text-anchor="start" x="909" y="-33.67" font-family="Helvetica,sans-Serif" font-size="10.00">com.teragrep.pth_06.Configured</text>
<text text-anchor="middle" x="987.5" y="-22.67" font-family="Helvetica,sans-Serif" font-size="10.00">Logger.debug</text>
</a>
</g>
</g>
<!-- Node3&#45;&gt;Node4 -->
<g id="edge3_Node000003_Node000004" class="edge">
<title>Node3&#45;&gt;Node4</title>
<g id="a_edge3_Node000003_Node000004"><a xlink:title=" ">
<path fill="none" stroke="#63b8ff" d="M631.03,-30.67C705.72,-30.67 813.45,-30.67 890.71,-30.67"/>
<polygon fill="#63b8ff" stroke="#63b8ff" points="890.93,-34.17 900.93,-30.67 890.93,-27.17 890.93,-34.17"/>
</a>
</g>
</g>
<!-- Node5 -->
<g id="Node000005" class="node">
<title>Node5</title>
<g id="a_Node000005"><a xlink:href="classcom_1_1teragrep_1_1pth__06_1_1ConfiguredLogger.html#adbd659cefc990abe9b2da58d3dae9970" target="_top" xlink:title=" ">
<polygon fill="white" stroke="#666666" points="1283,-45.67 1110,-45.67 1110,-15.67 1283,-15.67 1283,-45.67"/>
<text text-anchor="start" x="1118" y="-33.67" font-family="Helvetica,sans-Serif" font-size="10.00">com.teragrep.pth_06.Configured</text>
<text text-anchor="middle" x="1196.5" y="-22.67" font-family="Helvetica,sans-Serif" font-size="10.00">Logger.info</text>
</a>
</g>
</g>
<!-- Node3&#45;&gt;Node5 -->
<g id="edge9_Node000003_Node000005" class="edge">
<title>Node3&#45;&gt;Node5</title>
<g id="a_edge9_Node000003_Node000005"><a xlink:title=" ">
<path fill="none" stroke="#63b8ff" d="M631.37,-19.16C736.43,-6.98 918.54,8.54 1074,-6.67 1089.45,-8.18 1105.84,-10.75 1121.43,-13.66"/>
<polygon fill="#63b8ff" stroke="#63b8ff" points="1121.05,-17.15 1131.53,-15.61 1122.38,-10.28 1121.05,-17.15"/>
</a>
</g>
</g>
<!-- Node6 -->
<g id="Node000006" class="node">
<title>Node6</title>
<g id="a_Node000006"><a xlink:href="classcom_1_1teragrep_1_1pth__06_1_1planner_1_1NestedTopNQuery.html#ab9a75398ae4f26212f007ce95c24c26f" target="_top" xlink:title=" ">
<polygon fill="white" stroke="#666666" points="865,-90.67 667,-90.67 667,-60.67 865,-60.67 865,-90.67"/>
<text text-anchor="start" x="675" y="-78.67" font-family="Helvetica,sans-Serif" font-size="10.00">com.teragrep.pth_06.planner.</text>
<text text-anchor="middle" x="766" y="-67.67" font-family="Helvetica,sans-Serif" font-size="10.00">NestedTopNQuery.getTableStatement</text>
</a>
</g>
</g>
<!-- Node3&#45;&gt;Node6 -->
<g id="edge5_Node000003_Node000006" class="edge">
<title>Node3&#45;&gt;Node6</title>
<g id="a_edge5_Node000003_Node000006"><a xlink:title=" ">
<path fill="none" stroke="#63b8ff" d="M618.23,-45.72C638.46,-49.85 660.53,-54.35 681.28,-58.59"/>
<polygon fill="#63b8ff" stroke="#63b8ff" points="680.84,-62.07 691.34,-60.64 682.24,-55.21 680.84,-62.07"/>
</a>
</g>
</g>
<!-- Node4&#45;&gt;Node5 -->
<g id="edge4_Node000004_Node000005" class="edge">
<title>Node4&#45;&gt;Node5</title>
<g id="a_edge4_Node000004_Node000005"><a xlink:title=" ">
<path fill="none" stroke="#63b8ff" d="M1074.19,-30.67C1082.66,-30.67 1091.3,-30.67 1099.87,-30.67"/>
<polygon fill="#63b8ff" stroke="#63b8ff" points="1099.88,-34.17 1109.88,-30.67 1099.88,-27.17 1099.88,-34.17"/>
</a>
</g>
</g>
<!-- Node6&#45;&gt;Node4 -->
<g id="edge6_Node000006_Node000004" class="edge">
<title>Node6&#45;&gt;Node4</title>
<g id="a_edge6_Node000006_Node000004"><a xlink:title=" ">
<path fill="none" stroke="#63b8ff" d="M840.4,-60.62C860.53,-56.5 882.51,-51.99 903.16,-47.76"/>
<polygon fill="#63b8ff" stroke="#63b8ff" points="904.08,-51.14 913.17,-45.7 902.67,-44.28 904.08,-51.14"/>
</a>
</g>
</g>
<!-- Node6&#45;&gt;Node5 -->
<g id="edge7_Node000006_Node000005" class="edge">
<title>Node6&#45;&gt;Node5</title>
<g id="a_edge7_Node000006_Node000005"><a xlink:title=" ">
<path fill="none" stroke="#63b8ff" d="M817.15,-90.69C878.74,-106.74 985.89,-126.82 1074,-102.67 1109.8,-92.86 1145.76,-69.47 1169.16,-51.99"/>
<polygon fill="#63b8ff" stroke="#63b8ff" points="1171.37,-54.71 1177.19,-45.86 1167.12,-49.15 1171.37,-54.71"/>
</a>
</g>
</g>
<!-- Node7 -->
<g id="Node000007" class="node">
<title>Node7</title>
<g id="a_Node000007"><a xlink:href="classcom_1_1teragrep_1_1pth__06_1_1ConfiguredLogger.html#a03c44f8bbcceea9ce885498f428247cd" target="_top" xlink:title=" ">
<polygon fill="white" stroke="#666666" points="1074,-93.67 901,-93.67 901,-63.67 1074,-63.67 1074,-93.67"/>
<text text-anchor="start" x="909" y="-81.67" font-family="Helvetica,sans-Serif" font-size="10.00">com.teragrep.pth_06.Configured</text>
<text text-anchor="middle" x="987.5" y="-70.67" font-family="Helvetica,sans-Serif" font-size="10.00">Logger.isInfoEnabled</text>
</a>
</g>
</g>
<!-- Node6&#45;&gt;Node7 -->
<g id="edge8_Node000006_Node000007" class="edge">
<title>Node6&#45;&gt;Node7</title>
<g id="a_edge8_Node000006_Node000007"><a xlink:title=" ">
<path fill="none" stroke="#63b8ff" d="M865.19,-77.01C873.63,-77.13 882.17,-77.25 890.59,-77.36"/>
<polygon fill="#63b8ff" stroke="#63b8ff" points="890.74,-80.86 900.79,-77.5 890.84,-73.86 890.74,-80.86"/>
</a>
</g>
</g>
<!-- Node8&#45;&gt;Node3 -->
<g id="edge11_Node000008_Node000003" class="edge">
<title>Node8&#45;&gt;Node3</title>
<g id="a_edge11_Node000008_Node000003"><a xlink:title=" ">
<path fill="none" stroke="#63b8ff" d="M420.18,-42.77C428.63,-41.93 437.16,-41.09 445.58,-40.25"/>
<polygon fill="#63b8ff" stroke="#63b8ff" points="446.18,-43.71 455.79,-39.25 445.49,-36.75 446.18,-43.71"/>
</a>
</g>
</g>
</g>
</svg>
