<?xml version="1.0" encoding="UTF-8" standalone="no"?>
<!DOCTYPE svg PUBLIC "-//W3C//DTD SVG 1.1//EN"
 "http://www.w3.org/Graphics/SVG/1.1/DTD/svg11.dtd">
<!-- Generated by graphviz version 2.43.0 (0)
 -->
<!-- Title: com.teragrep.pth_06.config.KafkaConfig.parseKafkaCommonOpts Pages: 1 -->
<svg width="630pt" height="86pt"
 viewBox="0.00 0.00 630.00 86.00" xmlns="http://www.w3.org/2000/svg" xmlns:xlink="http://www.w3.org/1999/xlink">
<g id="graph0" class="graph" transform="scale(1 1) rotate(0) translate(4 82)">
<title>com.teragrep.pth_06.config.KafkaConfig.parseKafkaCommonOpts</title>
<!-- Node1 -->
<g id="Node000001" class="node">
<title>Node1</title>
<g id="a_Node000001"><a xlink:title=" ">
<polygon fill="#999999" stroke="#666666" points="622,-54 422,-54 422,-24 622,-24 622,-54"/>
<text text-anchor="start" x="430" y="-42" font-family="Helvetica,sans-Serif" font-size="10.00">com.teragrep.pth_06.config.</text>
<text text-anchor="middle" x="522" y="-31" font-family="Helvetica,sans-Serif" font-size="10.00">KafkaConfig.parseKafkaCommonOpts</text>
</a>
</g>
</g>
<!-- Node2 -->
<g id="Node000002" class="node">
<title>Node2</title>
<g id="a_Node000002"><a xlink:href="classcom_1_1teragrep_1_1pth__06_1_1config_1_1KafkaConfig.html#a4961c944616f7989d44348376e11dbf2" target="_top" xlink:title=" ">
<polygon fill="white" stroke="#666666" points="380,-78 195,-78 195,-48 380,-48 380,-78"/>
<text text-anchor="start" x="203" y="-66" font-family="Helvetica,sans-Serif" font-size="10.00">com.teragrep.pth_06.config.</text>
<text text-anchor="middle" x="287.5" y="-55" font-family="Helvetica,sans-Serif" font-size="10.00">KafkaConfig.parseKafkaDriverOpts</text>
</a>
</g>
</g>
<!-- Node1&#45;&gt;Node2 -->
<g id="edge1_Node000001_Node000002" class="edge">
<title>Node1&#45;&gt;Node2</title>
<g id="a_edge1_Node000001_Node000002"><a xlink:title=" ">
<path fill="none" stroke="#63b8ff" d="M411.63,-50.29C401.08,-51.38 390.44,-52.48 380.08,-53.55"/>
<polygon fill="#63b8ff" stroke="#63b8ff" points="412.14,-53.76 421.72,-49.25 411.42,-46.79 412.14,-53.76"/>
</a>
</g>
</g>
<!-- Node4 -->
<g id="Node000004" class="node">
<title>Node4</title>
<g id="a_Node000004"><a xlink:href="classcom_1_1teragrep_1_1pth__06_1_1config_1_1KafkaConfig.html#a896be41594d46b5e1abe2f7916f068a5" target="_top" xlink:title=" ">
<polygon fill="white" stroke="#666666" points="386,-30 189,-30 189,0 386,0 386,-30"/>
<text text-anchor="start" x="197" y="-18" font-family="Helvetica,sans-Serif" font-size="10.00">com.teragrep.pth_06.config.</text>
<text text-anchor="middle" x="287.5" y="-7" font-family="Helvetica,sans-Serif" font-size="10.00">KafkaConfig.parseKafkaExecutorOpts</text>
</a>
</g>
</g>
<!-- Node1&#45;&gt;Node4 -->
<g id="edge3_Node000001_Node000004" class="edge">
<title>Node1&#45;&gt;Node4</title>
<g id="a_edge3_Node000001_Node000004"><a xlink:title=" ">
<path fill="none" stroke="#63b8ff" d="M411.51,-27.7C403.11,-26.83 394.66,-25.96 386.33,-25.1"/>
<polygon fill="#63b8ff" stroke="#63b8ff" points="411.42,-31.21 421.72,-28.75 412.14,-24.24 411.42,-31.21"/>
</a>
</g>
</g>
<!-- Node3 -->
<g id="Node000003" class="node">
<title>Node3</title>
<g id="a_Node000003"><a xlink:href="classcom_1_1teragrep_1_1pth__06_1_1config_1_1KafkaConfig.html#ae64e9ee31c78bf23d333113deb9769e1" target="_top" xlink:title=" ">
<polygon fill="white" stroke="#666666" points="153,-54 0,-54 0,-24 153,-24 153,-54"/>
<text text-anchor="start" x="8" y="-42" font-family="Helvetica,sans-Serif" font-size="10.00">com.teragrep.pth_06.config.</text>
<text text-anchor="middle" x="76.5" y="-31" font-family="Helvetica,sans-Serif" font-size="10.00">KafkaConfig.KafkaConfig</text>
</a>
</g>
</g>
<!-- Node2&#45;&gt;Node3 -->
<g id="edge2_Node000002_Node000003" class="edge">
<title>Node2&#45;&gt;Node3</title>
<g id="a_edge2_Node000002_Node000003"><a xlink:title=" ">
<path fill="none" stroke="#63b8ff" d="M184.67,-51.31C174.04,-50.09 163.38,-48.86 153.13,-47.68"/>
<polygon fill="#63b8ff" stroke="#63b8ff" points="184.5,-54.81 194.83,-52.47 185.29,-47.86 184.5,-54.81"/>
</a>
</g>
</g>
<!-- Node4&#45;&gt;Node3 -->
<g id="edge4_Node000004_Node000003" class="edge">
<title>Node4&#45;&gt;Node3</title>
<g id="a_edge4_Node000004_Node000003"><a xlink:title=" ">
<path fill="none" stroke="#63b8ff" d="M178.68,-27.38C170.11,-28.36 161.58,-29.34 153.3,-30.3"/>
<polygon fill="#63b8ff" stroke="#63b8ff" points="179.2,-30.85 188.73,-26.23 178.4,-23.89 179.2,-30.85"/>
</a>
</g>
</g>
</g>
</svg>
