<?xml version="1.0" encoding="UTF-8" standalone="no"?>
<!DOCTYPE svg PUBLIC "-//W3C//DTD SVG 1.1//EN"
 "http://www.w3.org/Graphics/SVG/1.1/DTD/svg11.dtd">
<!-- Generated by graphviz version 2.43.0 (0)
 -->
<!-- Title: com.teragrep.pth_06.planner.bloomfilter.TokenizedValue.tokens Pages: 1 -->
<svg width="474pt" height="86pt"
 viewBox="0.00 0.00 474.00 86.00" xmlns="http://www.w3.org/2000/svg" xmlns:xlink="http://www.w3.org/1999/xlink">
<g id="graph0" class="graph" transform="scale(1 1) rotate(0) translate(4 82)">
<title>com.teragrep.pth_06.planner.bloomfilter.TokenizedValue.tokens</title>
<!-- Node1 -->
<g id="Node000001" class="node">
<title>Node1</title>
<g id="a_Node000001"><a xlink:title=" ">
<polygon fill="#999999" stroke="#666666" points="466,-54 251,-54 251,-24 466,-24 466,-54"/>
<text text-anchor="start" x="259" y="-42" font-family="Helvetica,sans-Serif" font-size="10.00">com.teragrep.pth_06.planner.bloomfilter.</text>
<text text-anchor="middle" x="358.5" y="-31" font-family="Helvetica,sans-Serif" font-size="10.00">TokenizedValue.tokens</text>
</a>
</g>
</g>
<!-- Node2 -->
<g id="Node000002" class="node">
<title>Node2</title>
<g id="a_Node000002"><a xlink:href="classcom_1_1teragrep_1_1pth__06_1_1planner_1_1bloomfilter_1_1TokenizedValueTest.html#a5f1d1b3b3c39d6ace6c48694b492b625" target="_top" xlink:title=" ">
<polygon fill="white" stroke="#666666" points="215,-78 0,-78 0,-48 215,-48 215,-78"/>
<text text-anchor="start" x="8" y="-66" font-family="Helvetica,sans-Serif" font-size="10.00">com.teragrep.pth_06.planner.bloomfilter.</text>
<text text-anchor="middle" x="107.5" y="-55" font-family="Helvetica,sans-Serif" font-size="10.00">TokenizedValueTest.testEquality</text>
</a>
</g>
</g>
<!-- Node1&#45;&gt;Node2 -->
<g id="edge1_Node000001_Node000002" class="edge">
<title>Node1&#45;&gt;Node2</title>
<g id="a_edge1_Node000001_Node000002"><a xlink:title=" ">
<path fill="none" stroke="#63b8ff" d="M240.86,-50.24C232.36,-51.06 223.8,-51.89 215.36,-52.7"/>
<polygon fill="#63b8ff" stroke="#63b8ff" points="241.2,-53.73 250.82,-49.28 240.53,-46.76 241.2,-53.73"/>
</a>
</g>
</g>
<!-- Node3 -->
<g id="Node000003" class="node">
<title>Node3</title>
<g id="a_Node000003"><a xlink:href="classcom_1_1teragrep_1_1pth__06_1_1planner_1_1bloomfilter_1_1TokenizedValueTest.html#a60459cc4870a9b586aa873b7e049f819" target="_top" xlink:title=" ">
<polygon fill="white" stroke="#666666" points="215,-30 0,-30 0,0 215,0 215,-30"/>
<text text-anchor="start" x="8" y="-18" font-family="Helvetica,sans-Serif" font-size="10.00">com.teragrep.pth_06.planner.bloomfilter.</text>
<text text-anchor="middle" x="107.5" y="-7" font-family="Helvetica,sans-Serif" font-size="10.00">TokenizedValueTest.testTokenization</text>
</a>
</g>
</g>
<!-- Node1&#45;&gt;Node3 -->
<g id="edge2_Node000001_Node000003" class="edge">
<title>Node1&#45;&gt;Node3</title>
<g id="a_edge2_Node000001_Node000003"><a xlink:title=" ">
<path fill="none" stroke="#63b8ff" d="M240.86,-27.76C232.36,-26.94 223.8,-26.11 215.36,-25.3"/>
<polygon fill="#63b8ff" stroke="#63b8ff" points="240.53,-31.24 250.82,-28.72 241.2,-24.27 240.53,-31.24"/>
</a>
</g>
</g>
</g>
</svg>
