<?xml version="1.0" encoding="UTF-8" standalone="no"?>
<!DOCTYPE svg PUBLIC "-//W3C//DTD SVG 1.1//EN"
 "http://www.w3.org/Graphics/SVG/1.1/DTD/svg11.dtd">
<!-- Generated by graphviz version 2.43.0 (0)
 -->
<!-- Title: com.teragrep.pth_06.planner.StreamDBClient.StreamDBClient Pages: 1 -->
<svg width="835pt" height="210pt"
 viewBox="0.00 0.00 835.00 210.00" xmlns="http://www.w3.org/2000/svg" xmlns:xlink="http://www.w3.org/1999/xlink">
<g id="graph0" class="graph" transform="scale(1 1) rotate(0) translate(4 206)">
<title>com.teragrep.pth_06.planner.StreamDBClient.StreamDBClient</title>
<!-- Node1 -->
<g id="Node000001" class="node">
<title>Node1</title>
<g id="a_Node000001"><a xlink:title=" ">
<polygon fill="#999999" stroke="#666666" points="176,-116 0,-116 0,-86 176,-86 176,-116"/>
<text text-anchor="start" x="8" y="-104" font-family="Helvetica,sans-Serif" font-size="10.00">com.teragrep.pth_06.planner.</text>
<text text-anchor="middle" x="88" y="-93" font-family="Helvetica,sans-Serif" font-size="10.00">StreamDBClient.StreamDBClient</text>
</a>
</g>
</g>
<!-- Node2 -->
<g id="Node000002" class="node">
<title>Node2</title>
<g id="a_Node000002"><a xlink:href="classcom_1_1teragrep_1_1pth__06_1_1planner_1_1SliceTable.html#a744def0dd9aab42426ac96e2cf62ca41" target="_top" xlink:title=" ">
<polygon fill="white" stroke="#666666" points="390.5,-202 230.5,-202 230.5,-172 390.5,-172 390.5,-202"/>
<text text-anchor="start" x="238.5" y="-190" font-family="Helvetica,sans-Serif" font-size="10.00">com.teragrep.pth_06.planner.</text>
<text text-anchor="middle" x="310.5" y="-179" font-family="Helvetica,sans-Serif" font-size="10.00">SliceTable.create</text>
</a>
</g>
</g>
<!-- Node1&#45;&gt;Node2 -->
<g id="edge1_Node000001_Node000002" class="edge">
<title>Node1&#45;&gt;Node2</title>
<g id="a_edge1_Node000001_Node000002"><a xlink:title=" ">
<path fill="none" stroke="#63b8ff" d="M118.31,-116.05C142.91,-128.32 179.2,-145.6 212,-158 222.24,-161.87 233.25,-165.57 244.04,-168.95"/>
<polygon fill="#63b8ff" stroke="#63b8ff" points="243.28,-172.38 253.86,-171.97 245.33,-165.69 243.28,-172.38"/>
</a>
</g>
</g>
<!-- Node3 -->
<g id="Node000003" class="node">
<title>Node3</title>
<g id="a_Node000003"><a xlink:href="classcom_1_1teragrep_1_1pth__06_1_1ConfiguredLogger.html#a432bade7d6310bed1e1b9a405fb53d56" target="_top" xlink:title=" ">
<polygon fill="white" stroke="#666666" points="618,-159 445,-159 445,-129 618,-129 618,-159"/>
<text text-anchor="start" x="453" y="-147" font-family="Helvetica,sans-Serif" font-size="10.00">com.teragrep.pth_06.Configured</text>
<text text-anchor="middle" x="531.5" y="-136" font-family="Helvetica,sans-Serif" font-size="10.00">Logger.debug</text>
</a>
</g>
</g>
<!-- Node1&#45;&gt;Node3 -->
<g id="edge8_Node000001_Node000003" class="edge">
<title>Node1&#45;&gt;Node3</title>
<g id="a_edge8_Node000001_Node000003"><a xlink:title=" ">
<path fill="none" stroke="#63b8ff" d="M157.37,-116.02C175.09,-119.45 194.19,-122.74 212,-125 286.31,-134.42 370.98,-139.19 434.33,-141.6"/>
<polygon fill="#63b8ff" stroke="#63b8ff" points="434.59,-145.11 444.71,-141.98 434.85,-138.11 434.59,-145.11"/>
</a>
</g>
</g>
<!-- Node4 -->
<g id="Node000004" class="node">
<title>Node4</title>
<g id="a_Node000004"><a xlink:href="classcom_1_1teragrep_1_1pth__06_1_1ConfiguredLogger.html#adbd659cefc990abe9b2da58d3dae9970" target="_top" xlink:title=" ">
<polygon fill="white" stroke="#666666" points="827,-137 654,-137 654,-107 827,-107 827,-137"/>
<text text-anchor="start" x="662" y="-125" font-family="Helvetica,sans-Serif" font-size="10.00">com.teragrep.pth_06.Configured</text>
<text text-anchor="middle" x="740.5" y="-114" font-family="Helvetica,sans-Serif" font-size="10.00">Logger.info</text>
</a>
</g>
</g>
<!-- Node1&#45;&gt;Node4 -->
<g id="edge9_Node000001_Node000004" class="edge">
<title>Node1&#45;&gt;Node4</title>
<g id="a_edge9_Node000001_Node000004"><a xlink:title=" ">
<path fill="none" stroke="#63b8ff" d="M153.77,-85.94C172.45,-82.25 192.94,-78.84 212,-77 367.76,-61.95 549.66,-86.82 654.04,-105.17"/>
<polygon fill="#63b8ff" stroke="#63b8ff" points="653.43,-108.62 663.89,-106.93 654.66,-101.73 653.43,-108.62"/>
</a>
</g>
</g>
<!-- Node5 -->
<g id="Node000005" class="node">
<title>Node5</title>
<g id="a_Node000005"><a xlink:href="classcom_1_1teragrep_1_1pth__06_1_1planner_1_1GetArchivedObjectsFilterTable.html#ac4c8643436fd6d8bdd98f772e17843d4" target="_top" xlink:title=" ">
<polygon fill="white" stroke="#666666" points="409,-116 212,-116 212,-86 409,-86 409,-116"/>
<text text-anchor="start" x="220" y="-104" font-family="Helvetica,sans-Serif" font-size="10.00">com.teragrep.pth_06.planner.</text>
<text text-anchor="middle" x="310.5" y="-93" font-family="Helvetica,sans-Serif" font-size="10.00">GetArchivedObjectsFilterTable.create</text>
</a>
</g>
</g>
<!-- Node1&#45;&gt;Node5 -->
<g id="edge5_Node000001_Node000005" class="edge">
<title>Node1&#45;&gt;Node5</title>
<g id="a_edge5_Node000001_Node000005"><a xlink:title=" ">
<path fill="none" stroke="#63b8ff" d="M176.15,-101C184.54,-101 193.12,-101 201.68,-101"/>
<polygon fill="#63b8ff" stroke="#63b8ff" points="201.71,-104.5 211.71,-101 201.71,-97.5 201.71,-104.5"/>
</a>
</g>
</g>
<!-- Node6 -->
<g id="Node000006" class="node">
<title>Node6</title>
<g id="a_Node000006"><a xlink:href="classcom_1_1teragrep_1_1pth__06_1_1ConfiguredLogger.html#ad52486032735bfcfefd8234ee71af7ed" target="_top" xlink:title=" ">
<polygon fill="white" stroke="#666666" points="397,-30 224,-30 224,0 397,0 397,-30"/>
<text text-anchor="start" x="232" y="-18" font-family="Helvetica,sans-Serif" font-size="10.00">com.teragrep.pth_06.Configured</text>
<text text-anchor="middle" x="310.5" y="-7" font-family="Helvetica,sans-Serif" font-size="10.00">Logger.warn</text>
</a>
</g>
</g>
<!-- Node1&#45;&gt;Node6 -->
<g id="edge10_Node000001_Node000006" class="edge">
<title>Node1&#45;&gt;Node6</title>
<g id="a_edge10_Node000001_Node000006"><a xlink:title=" ">
<path fill="none" stroke="#63b8ff" d="M118.31,-85.95C142.91,-73.68 179.2,-56.4 212,-44 222.24,-40.13 233.25,-36.43 244.04,-33.05"/>
<polygon fill="#63b8ff" stroke="#63b8ff" points="245.33,-36.31 253.86,-30.03 243.28,-29.62 245.33,-36.31"/>
</a>
</g>
</g>
<!-- Node2&#45;&gt;Node3 -->
<g id="edge2_Node000002_Node000003" class="edge">
<title>Node2&#45;&gt;Node3</title>
<g id="a_edge2_Node000002_Node000003"><a xlink:title=" ">
<path fill="none" stroke="#63b8ff" d="M388.1,-171.96C406.18,-168.41 425.59,-164.6 444.08,-160.97"/>
<polygon fill="#63b8ff" stroke="#63b8ff" points="444.81,-164.39 453.95,-159.03 443.46,-157.52 444.81,-164.39"/>
</a>
</g>
</g>
<!-- Node2&#45;&gt;Node4 -->
<g id="edge4_Node000002_Node000004" class="edge">
<title>Node2&#45;&gt;Node4</title>
<g id="a_edge4_Node000002_Node000004"><a xlink:title=" ">
<path fill="none" stroke="#63b8ff" d="M390.81,-188.56C453.22,-188.24 542.03,-184.34 618,-168 645.59,-162.06 675.24,-150.94 698.34,-141.12"/>
<polygon fill="#63b8ff" stroke="#63b8ff" points="700.03,-144.2 707.81,-137.01 697.24,-137.78 700.03,-144.2"/>
</a>
</g>
</g>
<!-- Node3&#45;&gt;Node4 -->
<g id="edge3_Node000003_Node000004" class="edge">
<title>Node3&#45;&gt;Node4</title>
<g id="a_edge3_Node000003_Node000004"><a xlink:title=" ">
<path fill="none" stroke="#63b8ff" d="M618.19,-134.89C626.66,-133.99 635.3,-133.07 643.87,-132.16"/>
<polygon fill="#63b8ff" stroke="#63b8ff" points="644.3,-135.64 653.88,-131.1 643.56,-128.68 644.3,-135.64"/>
</a>
</g>
</g>
<!-- Node5&#45;&gt;Node3 -->
<g id="edge6_Node000005_Node000003" class="edge">
<title>Node5&#45;&gt;Node3</title>
<g id="a_edge6_Node000005_Node000003"><a xlink:title=" ">
<path fill="none" stroke="#63b8ff" d="M388.1,-116.04C406.18,-119.59 425.59,-123.4 444.08,-127.03"/>
<polygon fill="#63b8ff" stroke="#63b8ff" points="443.46,-130.48 453.95,-128.97 444.81,-123.61 443.46,-130.48"/>
</a>
</g>
</g>
<!-- Node5&#45;&gt;Node4 -->
<g id="edge7_Node000005_Node000004" class="edge">
<title>Node5&#45;&gt;Node4</title>
<g id="a_edge7_Node000005_Node000004"><a xlink:title=" ">
<path fill="none" stroke="#63b8ff" d="M409.16,-105.79C479.47,-109.24 573.85,-113.87 643.73,-117.3"/>
<polygon fill="#63b8ff" stroke="#63b8ff" points="643.69,-120.8 653.85,-117.8 644.04,-113.81 643.69,-120.8"/>
</a>
</g>
</g>
</g>
</svg>
