<?xml version="1.0" encoding="UTF-8" standalone="no"?>
<!DOCTYPE svg PUBLIC "-//W3C//DTD SVG 1.1//EN"
 "http://www.w3.org/Graphics/SVG/1.1/DTD/svg11.dtd">
<!-- Generated by graphviz version 2.43.0 (0)
 -->
<!-- Title: com.teragrep.pth_06.planner.StreamDBClient.pullToSliceTable Pages: 1 -->
<svg width="835pt" height="123pt"
 viewBox="0.00 0.00 835.00 122.51" xmlns="http://www.w3.org/2000/svg" xmlns:xlink="http://www.w3.org/1999/xlink">
<g id="graph0" class="graph" transform="scale(1 1) rotate(0) translate(4 118.51)">
<title>com.teragrep.pth_06.planner.StreamDBClient.pullToSliceTable</title>
<!-- Node1 -->
<g id="Node000001" class="node">
<title>Node1</title>
<g id="a_Node000001"><a xlink:title=" ">
<polygon fill="#999999" stroke="#666666" points="175,-45.67 0,-45.67 0,-15.67 175,-15.67 175,-45.67"/>
<text text-anchor="start" x="8" y="-33.67" font-family="Helvetica,sans-Serif" font-size="10.00">com.teragrep.pth_06.planner.</text>
<text text-anchor="middle" x="87.5" y="-22.67" font-family="Helvetica,sans-Serif" font-size="10.00">StreamDBClient.pullToSliceTable</text>
</a>
</g>
</g>
<!-- Node2 -->
<g id="Node000002" class="node">
<title>Node2</title>
<g id="a_Node000002"><a xlink:href="classcom_1_1teragrep_1_1pth__06_1_1ConfiguredLogger.html#a432bade7d6310bed1e1b9a405fb53d56" target="_top" xlink:title=" ">
<polygon fill="white" stroke="#666666" points="618,-45.67 445,-45.67 445,-15.67 618,-15.67 618,-45.67"/>
<text text-anchor="start" x="453" y="-33.67" font-family="Helvetica,sans-Serif" font-size="10.00">com.teragrep.pth_06.Configured</text>
<text text-anchor="middle" x="531.5" y="-22.67" font-family="Helvetica,sans-Serif" font-size="10.00">Logger.debug</text>
</a>
</g>
</g>
<!-- Node1&#45;&gt;Node2 -->
<g id="edge1_Node000001_Node000002" class="edge">
<title>Node1&#45;&gt;Node2</title>
<g id="a_edge1_Node000001_Node000002"><a xlink:title=" ">
<path fill="none" stroke="#63b8ff" d="M175.03,-30.67C249.72,-30.67 357.45,-30.67 434.71,-30.67"/>
<polygon fill="#63b8ff" stroke="#63b8ff" points="434.93,-34.17 444.93,-30.67 434.93,-27.17 434.93,-34.17"/>
</a>
</g>
</g>
<!-- Node3 -->
<g id="Node000003" class="node">
<title>Node3</title>
<g id="a_Node000003"><a xlink:href="classcom_1_1teragrep_1_1pth__06_1_1ConfiguredLogger.html#adbd659cefc990abe9b2da58d3dae9970" target="_top" xlink:title=" ">
<polygon fill="white" stroke="#666666" points="827,-45.67 654,-45.67 654,-15.67 827,-15.67 827,-45.67"/>
<text text-anchor="start" x="662" y="-33.67" font-family="Helvetica,sans-Serif" font-size="10.00">com.teragrep.pth_06.Configured</text>
<text text-anchor="middle" x="740.5" y="-22.67" font-family="Helvetica,sans-Serif" font-size="10.00">Logger.info</text>
</a>
</g>
</g>
<!-- Node1&#45;&gt;Node3 -->
<g id="edge7_Node000001_Node000003" class="edge">
<title>Node1&#45;&gt;Node3</title>
<g id="a_edge7_Node000001_Node000003"><a xlink:title=" ">
<path fill="none" stroke="#63b8ff" d="M175.37,-19.16C280.43,-6.98 462.54,8.54 618,-6.67 633.45,-8.18 649.84,-10.75 665.43,-13.66"/>
<polygon fill="#63b8ff" stroke="#63b8ff" points="665.05,-17.15 675.53,-15.61 666.38,-10.28 665.05,-17.15"/>
</a>
</g>
</g>
<!-- Node4 -->
<g id="Node000004" class="node">
<title>Node4</title>
<g id="a_Node000004"><a xlink:href="classcom_1_1teragrep_1_1pth__06_1_1planner_1_1NestedTopNQuery.html#ab9a75398ae4f26212f007ce95c24c26f" target="_top" xlink:title=" ">
<polygon fill="white" stroke="#666666" points="409,-90.67 211,-90.67 211,-60.67 409,-60.67 409,-90.67"/>
<text text-anchor="start" x="219" y="-78.67" font-family="Helvetica,sans-Serif" font-size="10.00">com.teragrep.pth_06.planner.</text>
<text text-anchor="middle" x="310" y="-67.67" font-family="Helvetica,sans-Serif" font-size="10.00">NestedTopNQuery.getTableStatement</text>
</a>
</g>
</g>
<!-- Node1&#45;&gt;Node4 -->
<g id="edge3_Node000001_Node000004" class="edge">
<title>Node1&#45;&gt;Node4</title>
<g id="a_edge3_Node000001_Node000004"><a xlink:title=" ">
<path fill="none" stroke="#63b8ff" d="M162.23,-45.72C182.46,-49.85 204.53,-54.35 225.28,-58.59"/>
<polygon fill="#63b8ff" stroke="#63b8ff" points="224.84,-62.07 235.34,-60.64 226.24,-55.21 224.84,-62.07"/>
</a>
</g>
</g>
<!-- Node2&#45;&gt;Node3 -->
<g id="edge2_Node000002_Node000003" class="edge">
<title>Node2&#45;&gt;Node3</title>
<g id="a_edge2_Node000002_Node000003"><a xlink:title=" ">
<path fill="none" stroke="#63b8ff" d="M618.19,-30.67C626.66,-30.67 635.3,-30.67 643.87,-30.67"/>
<polygon fill="#63b8ff" stroke="#63b8ff" points="643.88,-34.17 653.88,-30.67 643.88,-27.17 643.88,-34.17"/>
</a>
</g>
</g>
<!-- Node4&#45;&gt;Node2 -->
<g id="edge4_Node000004_Node000002" class="edge">
<title>Node4&#45;&gt;Node2</title>
<g id="a_edge4_Node000004_Node000002"><a xlink:title=" ">
<path fill="none" stroke="#63b8ff" d="M384.4,-60.62C404.53,-56.5 426.51,-51.99 447.16,-47.76"/>
<polygon fill="#63b8ff" stroke="#63b8ff" points="448.08,-51.14 457.17,-45.7 446.67,-44.28 448.08,-51.14"/>
</a>
</g>
</g>
<!-- Node4&#45;&gt;Node3 -->
<g id="edge5_Node000004_Node000003" class="edge">
<title>Node4&#45;&gt;Node3</title>
<g id="a_edge5_Node000004_Node000003"><a xlink:title=" ">
<path fill="none" stroke="#63b8ff" d="M361.15,-90.69C422.74,-106.74 529.89,-126.82 618,-102.67 653.8,-92.86 689.76,-69.47 713.16,-51.99"/>
<polygon fill="#63b8ff" stroke="#63b8ff" points="715.37,-54.71 721.19,-45.86 711.12,-49.15 715.37,-54.71"/>
</a>
</g>
</g>
<!-- Node5 -->
<g id="Node000005" class="node">
<title>Node5</title>
<g id="a_Node000005"><a xlink:href="classcom_1_1teragrep_1_1pth__06_1_1ConfiguredLogger.html#a03c44f8bbcceea9ce885498f428247cd" target="_top" xlink:title=" ">
<polygon fill="white" stroke="#666666" points="618,-93.67 445,-93.67 445,-63.67 618,-63.67 618,-93.67"/>
<text text-anchor="start" x="453" y="-81.67" font-family="Helvetica,sans-Serif" font-size="10.00">com.teragrep.pth_06.Configured</text>
<text text-anchor="middle" x="531.5" y="-70.67" font-family="Helvetica,sans-Serif" font-size="10.00">Logger.isInfoEnabled</text>
</a>
</g>
</g>
<!-- Node4&#45;&gt;Node5 -->
<g id="edge6_Node000004_Node000005" class="edge">
<title>Node4&#45;&gt;Node5</title>
<g id="a_edge6_Node000004_Node000005"><a xlink:title=" ">
<path fill="none" stroke="#63b8ff" d="M409.19,-77.01C417.63,-77.13 426.17,-77.25 434.59,-77.36"/>
<polygon fill="#63b8ff" stroke="#63b8ff" points="434.74,-80.86 444.79,-77.5 434.84,-73.86 434.74,-80.86"/>
</a>
</g>
</g>
</g>
</svg>
