<?xml version="1.0" encoding="UTF-8" standalone="no"?>
<!DOCTYPE svg PUBLIC "-//W3C//DTD SVG 1.1//EN"
 "http://www.w3.org/Graphics/SVG/1.1/DTD/svg11.dtd">
<!-- Generated by graphviz version 2.43.0 (0)
 -->
<!-- Title: com.teragrep.pth_06.planner.bloomfilter.ConditionMatchBloomDBTablesTest.testMultipleMatch Pages: 1 -->
<svg width="540pt" height="56pt"
 viewBox="0.00 0.00 540.00 56.00" xmlns="http://www.w3.org/2000/svg" xmlns:xlink="http://www.w3.org/1999/xlink">
<g id="graph0" class="graph" transform="scale(1 1) rotate(0) translate(4 52)">
<title>com.teragrep.pth_06.planner.bloomfilter.ConditionMatchBloomDBTablesTest.testMultipleMatch</title>
<!-- Node1 -->
<g id="Node000001" class="node">
<title>Node1</title>
<g id="a_Node000001"><a xlink:title=" ">
<polygon fill="#999999" stroke="#666666" points="281,-30 0,-30 0,0 281,0 281,-30"/>
<text text-anchor="start" x="8" y="-18" font-family="Helvetica,sans-Serif" font-size="10.00">com.teragrep.pth_06.planner.bloomfilter.</text>
<text text-anchor="middle" x="140.5" y="-7" font-family="Helvetica,sans-Serif" font-size="10.00">ConditionMatchBloomDBTablesTest.testMultipleMatch</text>
</a>
</g>
</g>
<!-- Node2 -->
<g id="Node000002" class="node">
<title>Node2</title>
<g id="a_Node000002"><a xlink:href="classcom_1_1teragrep_1_1pth__06_1_1planner_1_1bloomfilter_1_1ConditionMatchBloomDBTables.html#ac229ed7784f0354aff39183a4c0ba638" target="_top" xlink:title="List of tables from bloomdb that match QueryCondition Note: Table records are not fetched fully.">
<polygon fill="white" stroke="#666666" points="532,-30 317,-30 317,0 532,0 532,-30"/>
<text text-anchor="start" x="325" y="-18" font-family="Helvetica,sans-Serif" font-size="10.00">com.teragrep.pth_06.planner.bloomfilter.</text>
<text text-anchor="middle" x="424.5" y="-7" font-family="Helvetica,sans-Serif" font-size="10.00">ConditionMatchBloomDBTables.tables</text>
</a>
</g>
</g>
<!-- Node1&#45;&gt;Node2 -->
<g id="edge1_Node000001_Node000002" class="edge">
<title>Node1&#45;&gt;Node2</title>
<g id="a_edge1_Node000001_Node000002"><a xlink:title=" ">
<path fill="none" stroke="#63b8ff" d="M281.26,-15C289.73,-15 298.2,-15 306.56,-15"/>
<polygon fill="#63b8ff" stroke="#63b8ff" points="306.69,-18.5 316.69,-15 306.69,-11.5 306.69,-18.5"/>
</a>
</g>
</g>
<!-- Node2&#45;&gt;Node2 -->
<g id="edge2_Node000002_Node000002" class="edge">
<title>Node2&#45;&gt;Node2</title>
<g id="a_edge2_Node000002_Node000002"><a xlink:title=" ">
<path fill="none" stroke="#63b8ff" d="M374.58,-30.28C363.48,-39.41 380.12,-48 424.5,-48 451.19,-48 467.85,-44.89 474.47,-40.42"/>
<polygon fill="#63b8ff" stroke="#63b8ff" points="477.97,-40.26 474.42,-30.28 470.97,-40.29 477.97,-40.26"/>
</a>
</g>
</g>
</g>
</svg>
