<?xml version="1.0" encoding="UTF-8" standalone="no"?>
<!DOCTYPE svg PUBLIC "-//W3C//DTD SVG 1.1//EN"
 "http://www.w3.org/Graphics/SVG/1.1/DTD/svg11.dtd">
<!-- Generated by graphviz version 2.43.0 (0)
 -->
<!-- Title: com.teragrep.pth_06.config.Config Pages: 1 -->
<svg width="420pt" height="278pt"
 viewBox="0.00 0.00 420.00 278.00" xmlns="http://www.w3.org/2000/svg" xmlns:xlink="http://www.w3.org/1999/xlink">
<g id="graph0" class="graph" transform="scale(1 1) rotate(0) translate(4 274)">
<title>com.teragrep.pth_06.config.Config</title>
<!-- Node1 -->
<g id="Node000001" class="node">
<title>Node1</title>
<g id="a_Node000001"><a xlink:title=" ">
<polygon fill="#999999" stroke="#666666" points="412,-150 259,-150 259,-120 412,-120 412,-150"/>
<text text-anchor="start" x="267" y="-138" font-family="Helvetica,sans-Serif" font-size="10.00">com.teragrep.pth_06.config.</text>
<text text-anchor="middle" x="335.5" y="-127" font-family="Helvetica,sans-Serif" font-size="10.00">Config</text>
</a>
</g>
</g>
<!-- Node2 -->
<g id="Node000002" class="node">
<title>Node2</title>
<g id="a_Node000002"><a xlink:href="classcom_1_1teragrep_1_1pth__06_1_1config_1_1ArchiveConfig.html" target="_top" xlink:title=" ">
<polygon fill="white" stroke="#666666" points="153,-270 0,-270 0,-240 153,-240 153,-270"/>
<text text-anchor="start" x="8" y="-258" font-family="Helvetica,sans-Serif" font-size="10.00">com.teragrep.pth_06.config.</text>
<text text-anchor="middle" x="76.5" y="-247" font-family="Helvetica,sans-Serif" font-size="10.00">ArchiveConfig</text>
</a>
</g>
</g>
<!-- Node2&#45;&gt;Node1 -->
<g id="edge1_Node000001_Node000002" class="edge">
<title>Node2&#45;&gt;Node1</title>
<g id="a_edge1_Node000001_Node000002"><a xlink:title=" ">
<path fill="none" stroke="#9a32cd" stroke-dasharray="5,2" d="M136.03,-236.78C141.78,-234.88 147.51,-232.93 153,-231 192.55,-217.09 203.75,-216.25 241,-197 267.65,-183.23 296.07,-163.59 314.49,-150.12"/>
<polygon fill="#9a32cd" stroke="#9a32cd" points="134.8,-233.5 126.38,-239.94 136.97,-240.16 134.8,-233.5"/>
</a>
</g>
<text text-anchor="middle" x="206" y="-227" font-family="Helvetica,sans-Serif" font-size="10.00" fill="grey"> archiveConfig</text>
</g>
<!-- Node3 -->
<g id="Node000003" class="node">
<title>Node3</title>
<g id="a_Node000003"><a xlink:href="classcom_1_1teragrep_1_1pth__06_1_1config_1_1KafkaConfig.html" target="_top" xlink:title=" ">
<polygon fill="white" stroke="#666666" points="153,-222 0,-222 0,-192 153,-192 153,-222"/>
<text text-anchor="start" x="8" y="-210" font-family="Helvetica,sans-Serif" font-size="10.00">com.teragrep.pth_06.config.</text>
<text text-anchor="middle" x="76.5" y="-199" font-family="Helvetica,sans-Serif" font-size="10.00">KafkaConfig</text>
</a>
</g>
</g>
<!-- Node3&#45;&gt;Node1 -->
<g id="edge2_Node000001_Node000003" class="edge">
<title>Node3&#45;&gt;Node1</title>
<g id="a_edge2_Node000001_Node000003"><a xlink:title=" ">
<path fill="none" stroke="#9a32cd" stroke-dasharray="5,2" d="M146.77,-189.5C175.94,-181.94 210.2,-172.82 241,-164 256.19,-159.65 272.69,-154.63 287.53,-150.01"/>
<polygon fill="#9a32cd" stroke="#9a32cd" points="145.89,-186.11 137.08,-192 147.64,-192.88 145.89,-186.11"/>
</a>
</g>
<text text-anchor="middle" x="206" y="-185" font-family="Helvetica,sans-Serif" font-size="10.00" fill="grey"> kafkaConfig</text>
</g>
<!-- Node4 -->
<g id="Node000004" class="node">
<title>Node4</title>
<g id="a_Node000004"><a xlink:href="classcom_1_1teragrep_1_1pth__06_1_1config_1_1BatchConfig.html" target="_top" xlink:title=" ">
<polygon fill="white" stroke="#666666" points="153,-174 0,-174 0,-144 153,-144 153,-174"/>
<text text-anchor="start" x="8" y="-162" font-family="Helvetica,sans-Serif" font-size="10.00">com.teragrep.pth_06.config.</text>
<text text-anchor="middle" x="76.5" y="-151" font-family="Helvetica,sans-Serif" font-size="10.00">BatchConfig</text>
</a>
</g>
</g>
<!-- Node4&#45;&gt;Node1 -->
<g id="edge3_Node000001_Node000004" class="edge">
<title>Node4&#45;&gt;Node1</title>
<g id="a_edge3_Node000001_Node000004"><a xlink:title=" ">
<path fill="none" stroke="#9a32cd" stroke-dasharray="5,2" d="M163.53,-150.97C194.4,-148.08 228.96,-144.86 258.88,-142.06"/>
<polygon fill="#9a32cd" stroke="#9a32cd" points="162.85,-147.51 153.22,-151.93 163.5,-154.48 162.85,-147.51"/>
</a>
</g>
<text text-anchor="middle" x="206" y="-152" font-family="Helvetica,sans-Serif" font-size="10.00" fill="grey"> batchConfig</text>
</g>
<!-- Node5 -->
<g id="Node000005" class="node">
<title>Node5</title>
<g id="a_Node000005"><a xlink:href="classcom_1_1teragrep_1_1pth__06_1_1config_1_1AuditConfig.html" target="_top" xlink:title=" ">
<polygon fill="white" stroke="#666666" points="153,-126 0,-126 0,-96 153,-96 153,-126"/>
<text text-anchor="start" x="8" y="-114" font-family="Helvetica,sans-Serif" font-size="10.00">com.teragrep.pth_06.config.</text>
<text text-anchor="middle" x="76.5" y="-103" font-family="Helvetica,sans-Serif" font-size="10.00">AuditConfig</text>
</a>
</g>
</g>
<!-- Node5&#45;&gt;Node1 -->
<g id="edge4_Node000001_Node000005" class="edge">
<title>Node5&#45;&gt;Node1</title>
<g id="a_edge4_Node000001_Node000005"><a xlink:title=" ">
<path fill="none" stroke="#9a32cd" stroke-dasharray="5,2" d="M163.53,-119.03C194.4,-121.92 228.96,-125.14 258.88,-127.94"/>
<polygon fill="#9a32cd" stroke="#9a32cd" points="163.5,-115.52 153.22,-118.07 162.85,-122.49 163.5,-115.52"/>
</a>
</g>
<text text-anchor="middle" x="206" y="-128" font-family="Helvetica,sans-Serif" font-size="10.00" fill="grey"> auditConfig</text>
</g>
<!-- Node6 -->
<g id="Node000006" class="node">
<title>Node6</title>
<g id="a_Node000006"><a xlink:href="interfacecom_1_1teragrep_1_1pth__06_1_1config_1_1LoggingConfig.html" target="_top" xlink:title=" ">
<polygon fill="white" stroke="#666666" points="153,-78 0,-78 0,-48 153,-48 153,-78"/>
<text text-anchor="start" x="8" y="-66" font-family="Helvetica,sans-Serif" font-size="10.00">com.teragrep.pth_06.config.</text>
<text text-anchor="middle" x="76.5" y="-55" font-family="Helvetica,sans-Serif" font-size="10.00">LoggingConfig</text>
</a>
</g>
</g>
<!-- Node6&#45;&gt;Node1 -->
<g id="edge5_Node000001_Node000006" class="edge">
<title>Node6&#45;&gt;Node1</title>
<g id="a_edge5_Node000001_Node000006"><a xlink:title=" ">
<path fill="none" stroke="#9a32cd" stroke-dasharray="5,2" d="M149.74,-80.58C178.27,-87.78 211.28,-96.42 241,-105 256.89,-109.59 274.16,-115 289.49,-119.96"/>
<polygon fill="#9a32cd" stroke="#9a32cd" points="150.4,-77.14 139.85,-78.1 148.69,-83.93 150.4,-77.14"/>
</a>
</g>
<text text-anchor="middle" x="206" y="-108" font-family="Helvetica,sans-Serif" font-size="10.00" fill="grey"> loggingConfig</text>
</g>
<!-- Node7 -->
<g id="Node000007" class="node">
<title>Node7</title>
<g id="a_Node000007"><a xlink:href="interfacecom_1_1teragrep_1_1pth__06_1_1config_1_1SQLConfig.html" target="_top" xlink:title=" ">
<polygon fill="white" stroke="#666666" points="153,-30 0,-30 0,0 153,0 153,-30"/>
<text text-anchor="start" x="8" y="-18" font-family="Helvetica,sans-Serif" font-size="10.00">com.teragrep.pth_06.config.</text>
<text text-anchor="middle" x="76.5" y="-7" font-family="Helvetica,sans-Serif" font-size="10.00">SQLConfig</text>
</a>
</g>
</g>
<!-- Node7&#45;&gt;Node1 -->
<g id="edge6_Node000001_Node000007" class="edge">
<title>Node7&#45;&gt;Node1</title>
<g id="a_edge6_Node000001_Node000007"><a xlink:title=" ">
<path fill="none" stroke="#9a32cd" stroke-dasharray="5,2" d="M135.73,-33.25C141.58,-35.16 147.41,-37.1 153,-39 192.39,-52.42 203.98,-51.99 241,-71 268.3,-85.02 297.05,-105.72 315.34,-119.75"/>
<polygon fill="#9a32cd" stroke="#9a32cd" points="136.52,-29.82 125.93,-30.07 134.36,-36.48 136.52,-29.82"/>
</a>
</g>
<text text-anchor="middle" x="206" y="-74" font-family="Helvetica,sans-Serif" font-size="10.00" fill="grey"> sqlConfig</text>
</g>
</g>
</svg>
