<?xml version="1.0" encoding="UTF-8" standalone="no"?>
<!DOCTYPE svg PUBLIC "-//W3C//DTD SVG 1.1//EN"
 "http://www.w3.org/Graphics/SVG/1.1/DTD/svg11.dtd">
<!-- Generated by graphviz version 2.43.0 (0)
 -->
<!-- Title: com.teragrep.pth_06.jooq.generated.journaldb.Journaldb Pages: 1 -->
<svg width="469pt" height="171pt"
 viewBox="0.00 0.00 469.00 171.00" xmlns="http://www.w3.org/2000/svg" xmlns:xlink="http://www.w3.org/1999/xlink">
<g id="graph0" class="graph" transform="scale(1 1) rotate(0) translate(4 167)">
<title>com.teragrep.pth_06.jooq.generated.journaldb.Journaldb</title>
<!-- Node1 -->
<g id="Node000001" class="node">
<title>Node1</title>
<g id="a_Node000001"><a xlink:title="This class is generated by jOOQ.">
<polygon fill="#999999" stroke="#666666" points="246,-30 0,-30 0,0 246,0 246,-30"/>
<text text-anchor="start" x="8" y="-18" font-family="Helvetica,sans-Serif" font-size="10.00">com.teragrep.pth_06.jooq.generated.journaldb.</text>
<text text-anchor="middle" x="123" y="-7" font-family="Helvetica,sans-Serif" font-size="10.00">Journaldb</text>
</a>
</g>
</g>
<!-- Node2 -->
<g id="Node000002" class="node">
<title>Node2</title>
<g id="a_Node000002"><a xlink:title=" ">
<polygon fill="white" stroke="#666666" points="157.5,-163 80.5,-163 80.5,-144 157.5,-144 157.5,-163"/>
<text text-anchor="middle" x="119" y="-151" font-family="Helvetica,sans-Serif" font-size="10.00">SchemaImpl</text>
</a>
</g>
</g>
<!-- Node2&#45;&gt;Node1 -->
<g id="edge1_Node000001_Node000002" class="edge">
<title>Node2&#45;&gt;Node1</title>
<g id="a_edge1_Node000001_Node000002"><a xlink:title=" ">
<path fill="none" stroke="#63b8ff" d="M119.55,-133.65C120.37,-105.91 121.87,-54.7 122.59,-30.02"/>
<polygon fill="#63b8ff" stroke="#63b8ff" points="116.04,-133.86 119.25,-143.96 123.04,-134.07 116.04,-133.86"/>
</a>
</g>
</g>
<!-- Node3 -->
<g id="Node000003" class="node">
<title>Node3</title>
<g id="a_Node000003"><a xlink:href="classcom_1_1teragrep_1_1pth__06_1_1jooq_1_1generated_1_1journaldb_1_1Journaldb.html" target="_top" xlink:title="This class is generated by jOOQ.">
<polygon fill="white" stroke="#666666" points="381,-107 135,-107 135,-77 381,-77 381,-107"/>
<text text-anchor="start" x="143" y="-95" font-family="Helvetica,sans-Serif" font-size="10.00">com.teragrep.pth_06.jooq.generated.journaldb.</text>
<text text-anchor="middle" x="258" y="-84" font-family="Helvetica,sans-Serif" font-size="10.00">Journaldb</text>
</a>
</g>
</g>
<!-- Node2&#45;&gt;Node3 -->
<g id="edge3_Node000003_Node000002" class="edge">
<title>Node2&#45;&gt;Node3</title>
<g id="a_edge3_Node000003_Node000002"><a xlink:title=" ">
<path fill="none" stroke="#63b8ff" d="M148.29,-139.96C170.81,-130.32 201.9,-117.01 225.24,-107.02"/>
<polygon fill="#63b8ff" stroke="#63b8ff" points="146.73,-136.82 138.92,-143.98 149.49,-143.26 146.73,-136.82"/>
</a>
</g>
</g>
<!-- Node3&#45;&gt;Node1 -->
<g id="edge2_Node000001_Node000003" class="edge">
<title>Node3&#45;&gt;Node1</title>
<g id="a_edge2_Node000001_Node000003"><a xlink:title=" ">
<path fill="none" stroke="#9a32cd" stroke-dasharray="5,2" d="M223.67,-71.93C200.18,-58.88 169.55,-41.86 148.28,-30.04"/>
<polygon fill="#9a32cd" stroke="#9a32cd" points="222.17,-75.1 232.61,-76.89 225.57,-68.98 222.17,-75.1"/>
</a>
</g>
<text text-anchor="middle" x="229" y="-51" font-family="Helvetica,sans-Serif" font-size="10.00" fill="grey"> JOURNALDB</text>
</g>
<!-- Node3&#45;&gt;Node3 -->
<g id="edge4_Node000003_Node000003" class="edge">
<title>Node3&#45;&gt;Node3</title>
<g id="a_edge4_Node000003_Node000003"><a xlink:title=" ">
<path fill="none" stroke="#9a32cd" stroke-dasharray="5,2" d="M391.32,-95.43C396.2,-94.52 399,-93.38 399,-92 399,-89.84 392.17,-88.27 381.27,-87.27"/>
<polygon fill="#9a32cd" stroke="#9a32cd" points="390.74,-91.97 381.27,-96.73 391.64,-98.92 390.74,-91.97"/>
</a>
</g>
<text text-anchor="middle" x="430" y="-89.5" font-family="Helvetica,sans-Serif" font-size="10.00" fill="grey"> JOURNALDB</text>
</g>
</g>
</svg>
