<?xml version="1.0" encoding="UTF-8" standalone="no"?>
<!DOCTYPE svg PUBLIC "-//W3C//DTD SVG 1.1//EN"
 "http://www.w3.org/Graphics/SVG/1.1/DTD/svg11.dtd">
<!-- Generated by graphviz version 2.43.0 (0)
 -->
<!-- Title: com.teragrep.pth_06.task.KafkaMicroBatchInputPartitionReader.convertToRow Pages: 1 -->
<svg width="771pt" height="49pt"
 viewBox="0.00 0.00 771.00 49.00" xmlns="http://www.w3.org/2000/svg" xmlns:xlink="http://www.w3.org/1999/xlink">
<g id="graph0" class="graph" transform="scale(1 1) rotate(0) translate(4 45)">
<title>com.teragrep.pth_06.task.KafkaMicroBatchInputPartitionReader.convertToRow</title>
<!-- Node1 -->
<g id="Node000001" class="node">
<title>Node1</title>
<g id="a_Node000001"><a xlink:title=" ">
<polygon fill="#999999" stroke="#666666" points="763,-35.5 494,-35.5 494,-5.5 763,-5.5 763,-35.5"/>
<text text-anchor="start" x="502" y="-23.5" font-family="Helvetica,sans-Serif" font-size="10.00">com.teragrep.pth_06.task.</text>
<text text-anchor="middle" x="628.5" y="-12.5" font-family="Helvetica,sans-Serif" font-size="10.00">KafkaMicroBatchInputPartitionReader.convertToRow</text>
</a>
</g>
</g>
<!-- Node2 -->
<g id="Node000002" class="node">
<title>Node2</title>
<g id="a_Node000002"><a xlink:href="classcom_1_1teragrep_1_1pth__06_1_1task_1_1KafkaMicroBatchInputPartitionReader.html#a78a1bd06ba511aa8001d46786cac39e3" target="_top" xlink:title=" ">
<polygon fill="white" stroke="#666666" points="458,-35.5 235,-35.5 235,-5.5 458,-5.5 458,-35.5"/>
<text text-anchor="start" x="243" y="-23.5" font-family="Helvetica,sans-Serif" font-size="10.00">com.teragrep.pth_06.task.</text>
<text text-anchor="middle" x="346.5" y="-12.5" font-family="Helvetica,sans-Serif" font-size="10.00">KafkaMicroBatchInputPartitionReader.next</text>
</a>
</g>
</g>
<!-- Node1&#45;&gt;Node2 -->
<g id="edge1_Node000001_Node000002" class="edge">
<title>Node1&#45;&gt;Node2</title>
<g id="a_edge1_Node000001_Node000002"><a xlink:title=" ">
<path fill="none" stroke="#63b8ff" d="M483.4,-20.5C475,-20.5 466.62,-20.5 458.38,-20.5"/>
<polygon fill="#63b8ff" stroke="#63b8ff" points="483.65,-24 493.65,-20.5 483.65,-17 483.65,-24"/>
</a>
</g>
</g>
<!-- Node3 -->
<g id="Node000003" class="node">
<title>Node3</title>
<g id="a_Node000003"><a xlink:href="classcom_1_1teragrep_1_1pth__06_1_1task_1_1KafkaMicroBatchInputPartitionReaderTest.html#ad47007b403a623230d964eb018a209d2" target="_top" xlink:title=" ">
<polygon fill="white" stroke="#666666" points="199,-41 0,-41 0,0 199,0 199,-41"/>
<text text-anchor="start" x="8" y="-29" font-family="Helvetica,sans-Serif" font-size="10.00">com.teragrep.pth_06.task.</text>
<text text-anchor="start" x="8" y="-18" font-family="Helvetica,sans-Serif" font-size="10.00">KafkaMicroBatchInputPartitionReader</text>
<text text-anchor="middle" x="99.5" y="-7" font-family="Helvetica,sans-Serif" font-size="10.00">Test.testConsumer</text>
</a>
</g>
</g>
<!-- Node2&#45;&gt;Node3 -->
<g id="edge2_Node000002_Node000003" class="edge">
<title>Node2&#45;&gt;Node3</title>
<g id="a_edge2_Node000002_Node000003"><a xlink:title=" ">
<path fill="none" stroke="#63b8ff" d="M224.74,-20.5C216.14,-20.5 207.53,-20.5 199.07,-20.5"/>
<polygon fill="#63b8ff" stroke="#63b8ff" points="224.83,-24 234.83,-20.5 224.83,-17 224.83,-24"/>
</a>
</g>
</g>
</g>
</svg>
