<?xml version="1.0" encoding="UTF-8" standalone="no"?>
<!DOCTYPE svg PUBLIC "-//W3C//DTD SVG 1.1//EN"
 "http://www.w3.org/Graphics/SVG/1.1/DTD/svg11.dtd">
<!-- Generated by graphviz version 2.43.0 (0)
 -->
<!-- Title: com.teragrep.pth_06.config.KafkaConfig.KafkaConfig Pages: 1 -->
<svg width="639pt" height="134pt"
 viewBox="0.00 0.00 639.00 134.00" xmlns="http://www.w3.org/2000/svg" xmlns:xlink="http://www.w3.org/1999/xlink">
<g id="graph0" class="graph" transform="scale(1 1) rotate(0) translate(4 130)">
<title>com.teragrep.pth_06.config.KafkaConfig.KafkaConfig</title>
<!-- Node1 -->
<g id="Node000001" class="node">
<title>Node1</title>
<g id="a_Node000001"><a xlink:title=" ">
<polygon fill="#999999" stroke="#666666" points="153,-78 0,-78 0,-48 153,-48 153,-78"/>
<text text-anchor="start" x="8" y="-66" font-family="Helvetica,sans-Serif" font-size="10.00">com.teragrep.pth_06.config.</text>
<text text-anchor="middle" x="76.5" y="-55" font-family="Helvetica,sans-Serif" font-size="10.00">KafkaConfig.KafkaConfig</text>
</a>
</g>
</g>
<!-- Node2 -->
<g id="Node000002" class="node">
<title>Node2</title>
<g id="a_Node000002"><a xlink:href="classcom_1_1teragrep_1_1pth__06_1_1config_1_1KafkaConfig.html#a4961c944616f7989d44348376e11dbf2" target="_top" xlink:title=" ">
<polygon fill="white" stroke="#666666" points="384.5,-126 199.5,-126 199.5,-96 384.5,-96 384.5,-126"/>
<text text-anchor="start" x="207.5" y="-114" font-family="Helvetica,sans-Serif" font-size="10.00">com.teragrep.pth_06.config.</text>
<text text-anchor="middle" x="292" y="-103" font-family="Helvetica,sans-Serif" font-size="10.00">KafkaConfig.parseKafkaDriverOpts</text>
</a>
</g>
</g>
<!-- Node1&#45;&gt;Node2 -->
<g id="edge1_Node000001_Node000002" class="edge">
<title>Node1&#45;&gt;Node2</title>
<g id="a_edge1_Node000001_Node000002"><a xlink:title=" ">
<path fill="none" stroke="#63b8ff" d="M144.47,-78.06C166.62,-83.04 191.45,-88.62 214.28,-93.75"/>
<polygon fill="#63b8ff" stroke="#63b8ff" points="213.75,-97.22 224.27,-96 215.28,-90.39 213.75,-97.22"/>
</a>
</g>
</g>
<!-- Node4 -->
<g id="Node000004" class="node">
<title>Node4</title>
<g id="a_Node000004"><a xlink:href="classcom_1_1teragrep_1_1pth__06_1_1config_1_1KafkaConfig.html#a6f3a528bf6843cfe2f3fc6a45e710b06" target="_top" xlink:title=" ">
<polygon fill="white" stroke="#666666" points="395,-78 189,-78 189,-48 395,-48 395,-78"/>
<text text-anchor="start" x="197" y="-66" font-family="Helvetica,sans-Serif" font-size="10.00">com.teragrep.pth_06.config.</text>
<text text-anchor="middle" x="292" y="-55" font-family="Helvetica,sans-Serif" font-size="10.00">KafkaConfig.parseKafkaExecutorConfig</text>
</a>
</g>
</g>
<!-- Node1&#45;&gt;Node4 -->
<g id="edge3_Node000001_Node000004" class="edge">
<title>Node1&#45;&gt;Node4</title>
<g id="a_edge3_Node000001_Node000004"><a xlink:title=" ">
<path fill="none" stroke="#63b8ff" d="M153.07,-63C161.44,-63 170.08,-63 178.77,-63"/>
<polygon fill="#63b8ff" stroke="#63b8ff" points="178.98,-66.5 188.98,-63 178.98,-59.5 178.98,-66.5"/>
</a>
</g>
</g>
<!-- Node5 -->
<g id="Node000005" class="node">
<title>Node5</title>
<g id="a_Node000005"><a xlink:href="classcom_1_1teragrep_1_1pth__06_1_1config_1_1KafkaConfig.html#a896be41594d46b5e1abe2f7916f068a5" target="_top" xlink:title=" ">
<polygon fill="white" stroke="#666666" points="390.5,-30 193.5,-30 193.5,0 390.5,0 390.5,-30"/>
<text text-anchor="start" x="201.5" y="-18" font-family="Helvetica,sans-Serif" font-size="10.00">com.teragrep.pth_06.config.</text>
<text text-anchor="middle" x="292" y="-7" font-family="Helvetica,sans-Serif" font-size="10.00">KafkaConfig.parseKafkaExecutorOpts</text>
</a>
</g>
</g>
<!-- Node1&#45;&gt;Node5 -->
<g id="edge4_Node000001_Node000005" class="edge">
<title>Node1&#45;&gt;Node5</title>
<g id="a_edge4_Node000001_Node000005"><a xlink:title=" ">
<path fill="none" stroke="#63b8ff" d="M144.47,-47.94C166.62,-42.96 191.45,-37.38 214.28,-32.25"/>
<polygon fill="#63b8ff" stroke="#63b8ff" points="215.28,-35.61 224.27,-30 213.75,-28.78 215.28,-35.61"/>
</a>
</g>
</g>
<!-- Node3 -->
<g id="Node000003" class="node">
<title>Node3</title>
<g id="a_Node000003"><a xlink:href="classcom_1_1teragrep_1_1pth__06_1_1config_1_1KafkaConfig.html#a30babefe00256c15cbbd925c577af6c8" target="_top" xlink:title=" ">
<polygon fill="white" stroke="#666666" points="631,-78 431,-78 431,-48 631,-48 631,-78"/>
<text text-anchor="start" x="439" y="-66" font-family="Helvetica,sans-Serif" font-size="10.00">com.teragrep.pth_06.config.</text>
<text text-anchor="middle" x="531" y="-55" font-family="Helvetica,sans-Serif" font-size="10.00">KafkaConfig.parseKafkaCommonOpts</text>
</a>
</g>
</g>
<!-- Node2&#45;&gt;Node3 -->
<g id="edge2_Node000002_Node000003" class="edge">
<title>Node2&#45;&gt;Node3</title>
<g id="a_edge2_Node000002_Node000003"><a xlink:title=" ">
<path fill="none" stroke="#63b8ff" d="M367.34,-95.94C392.27,-90.9 420.23,-85.23 445.86,-80.04"/>
<polygon fill="#63b8ff" stroke="#63b8ff" points="446.82,-83.42 455.93,-78 445.43,-76.56 446.82,-83.42"/>
</a>
</g>
</g>
<!-- Node5&#45;&gt;Node3 -->
<g id="edge5_Node000005_Node000003" class="edge">
<title>Node5&#45;&gt;Node3</title>
<g id="a_edge5_Node000005_Node000003"><a xlink:title=" ">
<path fill="none" stroke="#63b8ff" d="M367.34,-30.06C392.27,-35.1 420.23,-40.77 445.86,-45.96"/>
<polygon fill="#63b8ff" stroke="#63b8ff" points="445.43,-49.44 455.93,-48 446.82,-42.58 445.43,-49.44"/>
</a>
</g>
</g>
</g>
</svg>
