<?xml version="1.0" encoding="UTF-8" standalone="no"?>
<!DOCTYPE svg PUBLIC "-//W3C//DTD SVG 1.1//EN"
 "http://www.w3.org/Graphics/SVG/1.1/DTD/svg11.dtd">
<!-- Generated by graphviz version 2.43.0 (0)
 -->
<!-- Title: com.teragrep.pth_06.planner.walker.conditions.IndexStatementCondition.requiredTables Pages: 1 -->
<svg width="848pt" height="201pt"
 viewBox="0.00 0.00 848.00 201.00" xmlns="http://www.w3.org/2000/svg" xmlns:xlink="http://www.w3.org/1999/xlink">
<g id="graph0" class="graph" transform="scale(1 1) rotate(0) translate(4 197)">
<title>com.teragrep.pth_06.planner.walker.conditions.IndexStatementCondition.requiredTables</title>
<!-- Node1 -->
<g id="Node000001" class="node">
<title>Node1</title>
<g id="a_Node000001"><a xlink:title=" ">
<polygon fill="#999999" stroke="#666666" points="840,-116 592,-116 592,-86 840,-86 840,-116"/>
<text text-anchor="start" x="600" y="-104" font-family="Helvetica,sans-Serif" font-size="10.00">com.teragrep.pth_06.planner.walker.conditions.</text>
<text text-anchor="middle" x="716" y="-93" font-family="Helvetica,sans-Serif" font-size="10.00">IndexStatementCondition.requiredTables</text>
</a>
</g>
</g>
<!-- Node2 -->
<g id="Node000002" class="node">
<title>Node2</title>
<g id="a_Node000002"><a xlink:href="classcom_1_1teragrep_1_1pth__06_1_1planner_1_1walker_1_1conditions_1_1IndexStatementCondition.html#ad8a40368c02dae91ddc55b86e2ab7e10" target="_top" xlink:title=" ">
<polygon fill="white" stroke="#666666" points="556,-116 308,-116 308,-86 556,-86 556,-116"/>
<text text-anchor="start" x="316" y="-104" font-family="Helvetica,sans-Serif" font-size="10.00">com.teragrep.pth_06.planner.walker.conditions.</text>
<text text-anchor="middle" x="432" y="-93" font-family="Helvetica,sans-Serif" font-size="10.00">IndexStatementCondition.condition</text>
</a>
</g>
</g>
<!-- Node1&#45;&gt;Node2 -->
<g id="edge1_Node000001_Node000002" class="edge">
<title>Node1&#45;&gt;Node2</title>
<g id="a_edge1_Node000001_Node000002"><a xlink:title=" ">
<path fill="none" stroke="#63b8ff" d="M581.53,-101C573.16,-101 564.75,-101 556.43,-101"/>
<polygon fill="#63b8ff" stroke="#63b8ff" points="581.72,-104.5 591.72,-101 581.72,-97.5 581.72,-104.5"/>
</a>
</g>
</g>
<!-- Node3 -->
<g id="Node000003" class="node">
<title>Node3</title>
<g id="a_Node000003"><a xlink:href="classcom_1_1teragrep_1_1pth__06_1_1planner_1_1walker_1_1conditions_1_1IndexStatementConditionTest.html#aee8f642495a3c26dce06361c3e44056b" target="_top" xlink:title=" ">
<polygon fill="white" stroke="#666666" points="260,-193 12,-193 12,-163 260,-163 260,-193"/>
<text text-anchor="start" x="20" y="-181" font-family="Helvetica,sans-Serif" font-size="10.00">com.teragrep.pth_06.planner.walker.conditions.</text>
<text text-anchor="middle" x="136" y="-170" font-family="Helvetica,sans-Serif" font-size="10.00">IndexStatementConditionTest.noMatchesTest</text>
</a>
</g>
</g>
<!-- Node1&#45;&gt;Node3 -->
<g id="edge5_Node000001_Node000003" class="edge">
<title>Node1&#45;&gt;Node3</title>
<g id="a_edge5_Node000001_Node000003"><a xlink:title=" ">
<path fill="none" stroke="#63b8ff" d="M655.56,-118.84C625.9,-127.1 589.33,-136.31 556,-142 457.22,-158.86 343.92,-167.99 260.07,-172.83"/>
<polygon fill="#63b8ff" stroke="#63b8ff" points="656.66,-122.17 665.33,-116.08 654.76,-115.43 656.66,-122.17"/>
</a>
</g>
</g>
<!-- Node4 -->
<g id="Node000004" class="node">
<title>Node4</title>
<g id="a_Node000004"><a xlink:href="classcom_1_1teragrep_1_1pth__06_1_1planner_1_1walker_1_1conditions_1_1IndexStatementConditionTest.html#a69de61f785b7a9fafee36855f7394932" target="_top" xlink:title=" ">
<polygon fill="white" stroke="#666666" points="272,-142 0,-142 0,-112 272,-112 272,-142"/>
<text text-anchor="start" x="8" y="-130" font-family="Helvetica,sans-Serif" font-size="10.00">com.teragrep.pth_06.planner.walker.conditions.</text>
<text text-anchor="middle" x="136" y="-119" font-family="Helvetica,sans-Serif" font-size="10.00">IndexStatementConditionTest.oneMatchingTableTest</text>
</a>
</g>
</g>
<!-- Node1&#45;&gt;Node4 -->
<g id="edge6_Node000001_Node000004" class="edge">
<title>Node1&#45;&gt;Node4</title>
<g id="a_edge6_Node000001_Node000004"><a xlink:title=" ">
<path fill="none" stroke="#63b8ff" d="M620.7,-117.54C599.49,-120.61 577.02,-123.37 556,-125 461.35,-132.33 354.32,-132.71 272.12,-131.31"/>
<polygon fill="#63b8ff" stroke="#63b8ff" points="621.3,-120.99 630.68,-116.05 620.27,-114.06 621.3,-120.99"/>
</a>
</g>
</g>
<!-- Node5 -->
<g id="Node000005" class="node">
<title>Node5</title>
<g id="a_Node000005"><a xlink:href="classcom_1_1teragrep_1_1pth__06_1_1planner_1_1walker_1_1conditions_1_1IndexStatementConditionTest.html#affd12bbea6998863dc96bc4bdd7ab74f" target="_top" xlink:title=" ">
<polygon fill="white" stroke="#666666" points="272,-87 0,-87 0,-57 272,-57 272,-87"/>
<text text-anchor="start" x="8" y="-75" font-family="Helvetica,sans-Serif" font-size="10.00">com.teragrep.pth_06.planner.walker.conditions.</text>
<text text-anchor="middle" x="136" y="-64" font-family="Helvetica,sans-Serif" font-size="10.00">IndexStatementConditionTest.twoMatchingTableTest</text>
</a>
</g>
</g>
<!-- Node1&#45;&gt;Node5 -->
<g id="edge8_Node000001_Node000005" class="edge">
<title>Node1&#45;&gt;Node5</title>
<g id="a_edge8_Node000001_Node000005"><a xlink:title=" ">
<path fill="none" stroke="#63b8ff" d="M620.33,-84.52C599.22,-81.46 576.9,-78.69 556,-77 461.37,-69.33 354.34,-68.18 272.14,-68.9"/>
<polygon fill="#63b8ff" stroke="#63b8ff" points="619.85,-87.99 630.26,-86 620.88,-81.07 619.85,-87.99"/>
</a>
</g>
</g>
<!-- Node6 -->
<g id="Node000006" class="node">
<title>Node6</title>
<g id="a_Node000006"><a xlink:href="classcom_1_1teragrep_1_1pth__06_1_1planner_1_1walker_1_1conditions_1_1ElementCondition.html#a39e39896a78174cc458ec2266e6f1ddc" target="_top" xlink:title="A set of tables needed to be joined to the query to use this condition.">
<polygon fill="white" stroke="#666666" points="556,-30 308,-30 308,0 556,0 556,-30"/>
<text text-anchor="start" x="316" y="-18" font-family="Helvetica,sans-Serif" font-size="10.00">com.teragrep.pth_06.planner.walker.conditions.</text>
<text text-anchor="middle" x="432" y="-7" font-family="Helvetica,sans-Serif" font-size="10.00">ElementCondition.requiredTables</text>
</a>
</g>
</g>
<!-- Node1&#45;&gt;Node6 -->
<g id="edge7_Node000001_Node000006" class="edge">
<title>Node1&#45;&gt;Node6</title>
<g id="a_edge7_Node000001_Node000006"><a xlink:title=" ">
<path fill="none" stroke="#63b8ff" d="M667.48,-82.38C636.12,-70.48 593.97,-55.24 556,-44 538.96,-38.95 520.39,-34.2 502.96,-30.05"/>
<polygon fill="#63b8ff" stroke="#63b8ff" points="666.26,-85.66 676.85,-85.95 668.75,-79.12 666.26,-85.66"/>
</a>
</g>
</g>
<!-- Node2&#45;&gt;Node3 -->
<g id="edge2_Node000002_Node000003" class="edge">
<title>Node2&#45;&gt;Node3</title>
<g id="a_edge2_Node000002_Node000003"><a xlink:title=" ">
<path fill="none" stroke="#63b8ff" d="M377.85,-119.28C347.15,-129.45 307.66,-141.85 272,-151 255.1,-155.33 236.86,-159.39 219.42,-162.98"/>
<polygon fill="#63b8ff" stroke="#63b8ff" points="379.12,-122.55 387.5,-116.07 376.9,-115.91 379.12,-122.55"/>
</a>
</g>
</g>
<!-- Node2&#45;&gt;Node4 -->
<g id="edge3_Node000002_Node000004" class="edge">
<title>Node2&#45;&gt;Node4</title>
<g id="a_edge3_Node000002_Node000004"><a xlink:title=" ">
<path fill="none" stroke="#63b8ff" d="M297.47,-112.81C289.14,-113.55 280.75,-114.29 272.4,-115.03"/>
<polygon fill="#63b8ff" stroke="#63b8ff" points="297.94,-116.28 307.6,-111.91 297.33,-109.31 297.94,-116.28"/>
</a>
</g>
</g>
<!-- Node2&#45;&gt;Node5 -->
<g id="edge4_Node000002_Node000005" class="edge">
<title>Node2&#45;&gt;Node5</title>
<g id="a_edge4_Node000002_Node000005"><a xlink:title=" ">
<path fill="none" stroke="#63b8ff" d="M297.47,-87.83C289.14,-87.01 280.75,-86.18 272.4,-85.36"/>
<polygon fill="#63b8ff" stroke="#63b8ff" points="297.3,-91.33 307.6,-88.83 297.99,-84.36 297.3,-91.33"/>
</a>
</g>
</g>
</g>
</svg>
