<?xml version="1.0" encoding="UTF-8" standalone="no"?>
<!DOCTYPE svg PUBLIC "-//W3C//DTD SVG 1.1//EN"
 "http://www.w3.org/Graphics/SVG/1.1/DTD/svg11.dtd">
<!-- Generated by graphviz version 2.43.0 (0)
 -->
<!-- Title: com.teragrep.pth_06.planner.NestedTopNQuery Pages: 1 -->
<svg width="959pt" height="173pt"
 viewBox="0.00 0.00 959.00 173.42" xmlns="http://www.w3.org/2000/svg" xmlns:xlink="http://www.w3.org/1999/xlink">
<g id="graph0" class="graph" transform="scale(1 1) rotate(0) translate(4 169.42)">
<title>com.teragrep.pth_06.planner.NestedTopNQuery</title>
<!-- Node1 -->
<g id="Node000001" class="node">
<title>Node1</title>
<g id="a_Node000001"><a xlink:title=" ">
<polygon fill="#999999" stroke="#666666" points="951,-148.42 791,-148.42 791,-118.42 951,-118.42 951,-148.42"/>
<text text-anchor="start" x="799" y="-136.42" font-family="Helvetica,sans-Serif" font-size="10.00">com.teragrep.pth_06.planner.</text>
<text text-anchor="middle" x="871" y="-125.42" font-family="Helvetica,sans-Serif" font-size="10.00">NestedTopNQuery</text>
</a>
</g>
</g>
<!-- Node2 -->
<g id="Node000002" class="node">
<title>Node2</title>
<g id="a_Node000002"><a xlink:href="classcom_1_1teragrep_1_1pth__06_1_1ConfiguredLogger.html" target="_top" xlink:title=" ">
<polygon fill="white" stroke="#666666" points="173,-72.42 0,-72.42 0,-42.42 173,-42.42 173,-72.42"/>
<text text-anchor="start" x="8" y="-60.42" font-family="Helvetica,sans-Serif" font-size="10.00">com.teragrep.pth_06.Configured</text>
<text text-anchor="middle" x="86.5" y="-49.42" font-family="Helvetica,sans-Serif" font-size="10.00">Logger</text>
</a>
</g>
</g>
<!-- Node2&#45;&gt;Node1 -->
<g id="edge1_Node000001_Node000002" class="edge">
<title>Node2&#45;&gt;Node1</title>
<g id="a_edge1_Node000001_Node000002"><a xlink:title=" ">
<path fill="none" stroke="#9a32cd" stroke-dasharray="5,2" d="M122.15,-77.45C154.72,-95.04 205.43,-119.36 253,-129.42 442.43,-169.48 671.95,-154.97 790.51,-142.97"/>
<polygon fill="#9a32cd" stroke="#9a32cd" points="123.51,-74.2 113.06,-72.45 120.14,-80.33 123.51,-74.2"/>
</a>
</g>
<text text-anchor="middle" x="461" y="-157.42" font-family="Helvetica,sans-Serif" font-size="10.00" fill="grey"> logger</text>
</g>
<!-- Node3 -->
<g id="Node000003" class="node">
<title>Node3</title>
<g id="a_Node000003"><a xlink:href="classcom_1_1teragrep_1_1pth__06_1_1planner_1_1StreamDBClient.html" target="_top" xlink:title=" ">
<polygon fill="white" stroke="#666666" points="665,-72.42 505,-72.42 505,-42.42 665,-42.42 665,-72.42"/>
<text text-anchor="start" x="513" y="-60.42" font-family="Helvetica,sans-Serif" font-size="10.00">com.teragrep.pth_06.planner.</text>
<text text-anchor="middle" x="585" y="-49.42" font-family="Helvetica,sans-Serif" font-size="10.00">StreamDBClient</text>
</a>
</g>
</g>
<!-- Node2&#45;&gt;Node3 -->
<g id="edge3_Node000003_Node000002" class="edge">
<title>Node2&#45;&gt;Node3</title>
<g id="a_edge3_Node000003_Node000002"><a xlink:title=" ">
<path fill="none" stroke="#9a32cd" stroke-dasharray="5,2" d="M154.03,-40.04C184.04,-33.07 220.07,-25.87 253,-22.42 325.49,-14.84 344.5,-14.91 417,-22.42 453.98,-26.25 494.84,-34.74 526.88,-42.4"/>
<polygon fill="#9a32cd" stroke="#9a32cd" points="153.02,-36.69 144.1,-42.4 154.63,-43.5 153.02,-36.69"/>
</a>
</g>
<text text-anchor="middle" x="335" y="-25.42" font-family="Helvetica,sans-Serif" font-size="10.00" fill="grey"> LOGGER</text>
</g>
<!-- Node4 -->
<g id="Node000004" class="node">
<title>Node4</title>
<g id="a_Node000004"><a xlink:href="classcom_1_1teragrep_1_1pth__06_1_1planner_1_1GetArchivedObjectsFilterTable.html" target="_top" xlink:title=" ">
<polygon fill="white" stroke="#666666" points="417,-120.42 253,-120.42 253,-90.42 417,-90.42 417,-120.42"/>
<text text-anchor="start" x="261" y="-108.42" font-family="Helvetica,sans-Serif" font-size="10.00">com.teragrep.pth_06.planner.</text>
<text text-anchor="middle" x="335" y="-97.42" font-family="Helvetica,sans-Serif" font-size="10.00">GetArchivedObjectsFilterTable</text>
</a>
</g>
</g>
<!-- Node2&#45;&gt;Node4 -->
<g id="edge5_Node000004_Node000002" class="edge">
<title>Node2&#45;&gt;Node4</title>
<g id="a_edge5_Node000004_Node000002"><a xlink:title=" ">
<path fill="none" stroke="#9a32cd" stroke-dasharray="5,2" d="M174.94,-74.45C201.71,-79.66 230.94,-85.35 256.96,-90.42"/>
<polygon fill="#9a32cd" stroke="#9a32cd" points="175.3,-70.95 164.82,-72.48 173.96,-77.82 175.3,-70.95"/>
</a>
</g>
<text text-anchor="middle" x="213" y="-88.42" font-family="Helvetica,sans-Serif" font-size="10.00" fill="grey"> logger</text>
</g>
<!-- Node5 -->
<g id="Node000005" class="node">
<title>Node5</title>
<g id="a_Node000005"><a xlink:href="classcom_1_1teragrep_1_1pth__06_1_1planner_1_1NestedTopNQuery.html" target="_top" xlink:title=" ">
<polygon fill="white" stroke="#666666" points="951,-38.42 791,-38.42 791,-8.42 951,-8.42 951,-38.42"/>
<text text-anchor="start" x="799" y="-26.42" font-family="Helvetica,sans-Serif" font-size="10.00">com.teragrep.pth_06.planner.</text>
<text text-anchor="middle" x="871" y="-15.42" font-family="Helvetica,sans-Serif" font-size="10.00">NestedTopNQuery</text>
</a>
</g>
</g>
<!-- Node2&#45;&gt;Node5 -->
<g id="edge7_Node000005_Node000002" class="edge">
<title>Node2&#45;&gt;Node5</title>
<g id="a_edge7_Node000005_Node000002"><a xlink:title=" ">
<path fill="none" stroke="#9a32cd" stroke-dasharray="5,2" d="M133.34,-38.64C151.09,-32 171.74,-25.05 191,-20.42 218.01,-13.93 225.29,-14.43 253,-12.42 483.51,4.3 542.38,3.6 773,-11.42 778.84,-11.8 784.87,-12.3 790.93,-12.87"/>
<polygon fill="#9a32cd" stroke="#9a32cd" points="131.9,-35.44 123.8,-42.28 134.39,-41.99 131.9,-35.44"/>
</a>
</g>
<text text-anchor="middle" x="461" y="-4.42" font-family="Helvetica,sans-Serif" font-size="10.00" fill="grey"> logger</text>
</g>
<!-- Node6 -->
<g id="Node000006" class="node">
<title>Node6</title>
<g id="a_Node000006"><a xlink:href="classcom_1_1teragrep_1_1pth__06_1_1planner_1_1SliceTable.html" target="_top" xlink:title=" ">
<polygon fill="white" stroke="#666666" points="415,-72.42 255,-72.42 255,-42.42 415,-42.42 415,-72.42"/>
<text text-anchor="start" x="263" y="-60.42" font-family="Helvetica,sans-Serif" font-size="10.00">com.teragrep.pth_06.planner.</text>
<text text-anchor="middle" x="335" y="-49.42" font-family="Helvetica,sans-Serif" font-size="10.00">SliceTable</text>
</a>
</g>
</g>
<!-- Node2&#45;&gt;Node6 -->
<g id="edge10_Node000006_Node000002" class="edge">
<title>Node2&#45;&gt;Node6</title>
<g id="a_edge10_Node000006_Node000002"><a xlink:title=" ">
<path fill="none" stroke="#9a32cd" stroke-dasharray="5,2" d="M183.09,-57.42C206.82,-57.42 231.99,-57.42 254.83,-57.42"/>
<polygon fill="#9a32cd" stroke="#9a32cd" points="183.02,-53.92 173.02,-57.42 183.02,-60.92 183.02,-53.92"/>
</a>
</g>
<text text-anchor="middle" x="213" y="-60.42" font-family="Helvetica,sans-Serif" font-size="10.00" fill="grey"> LOGGER</text>
</g>
<!-- Node3&#45;&gt;Node1 -->
<g id="edge2_Node000001_Node000003" class="edge">
<title>Node3&#45;&gt;Node1</title>
<g id="a_edge2_Node000001_Node000003"><a xlink:title=" ">
<path fill="none" stroke="#9a32cd" stroke-dasharray="5,2" d="M651.97,-75.08C700.93,-88.18 766.99,-105.85 813.52,-118.31"/>
<polygon fill="#9a32cd" stroke="#9a32cd" points="652.67,-71.64 642.11,-72.44 650.86,-78.4 652.67,-71.64"/>
</a>
</g>
<text text-anchor="middle" x="728" y="-109.42" font-family="Helvetica,sans-Serif" font-size="10.00" fill="grey"> streamDBClient</text>
</g>
<!-- Node3&#45;&gt;Node5 -->
<g id="edge8_Node000005_Node000003" class="edge">
<title>Node3&#45;&gt;Node5</title>
<g id="a_edge8_Node000005_Node000003"><a xlink:title=" ">
<path fill="none" stroke="#9a32cd" stroke-dasharray="5,2" d="M628.35,-38.54C645.03,-32.07 664.57,-25.64 683,-22.42 718.02,-16.3 757.29,-15.59 790.77,-16.8"/>
<polygon fill="#9a32cd" stroke="#9a32cd" points="626.87,-35.36 618.89,-42.33 629.47,-41.86 626.87,-35.36"/>
</a>
</g>
<text text-anchor="middle" x="728" y="-25.42" font-family="Helvetica,sans-Serif" font-size="10.00" fill="grey"> streamDBClient</text>
</g>
<!-- Node4&#45;&gt;Node3 -->
<g id="edge4_Node000003_Node000004" class="edge">
<title>Node4&#45;&gt;Node3</title>
<g id="a_edge4_Node000003_Node000004"><a xlink:title=" ">
<path fill="none" stroke="#9a32cd" stroke-dasharray="5,2" d="M423.62,-88.46C450.64,-83.23 480.2,-77.51 506.49,-72.42"/>
<polygon fill="#9a32cd" stroke="#9a32cd" points="422.94,-85.03 413.79,-90.37 424.27,-91.9 422.94,-85.03"/>
</a>
</g>
<text text-anchor="middle" x="461" y="-88.42" font-family="Helvetica,sans-Serif" font-size="10.00" fill="grey"> filterTable</text>
</g>
<!-- Node5&#45;&gt;Node3 -->
<g id="edge6_Node000003_Node000005" class="edge">
<title>Node5&#45;&gt;Node3</title>
<g id="a_edge6_Node000003_Node000005"><a xlink:title=" ">
<path fill="none" stroke="#9a32cd" stroke-dasharray="5,2" d="M780.73,-34.49C778.12,-34.8 775.54,-35.11 773,-35.42 737.63,-39.69 698.47,-44.31 665.17,-48.21"/>
<polygon fill="#9a32cd" stroke="#9a32cd" points="781.36,-37.93 790.86,-33.25 780.51,-30.99 781.36,-37.93"/>
</a>
</g>
<text text-anchor="middle" x="728" y="-48.42" font-family="Helvetica,sans-Serif" font-size="10.00" fill="grey"> nestedTopNQuery</text>
</g>
<!-- Node6&#45;&gt;Node3 -->
<g id="edge9_Node000003_Node000006" class="edge">
<title>Node6&#45;&gt;Node3</title>
<g id="a_edge9_Node000003_Node000006"><a xlink:title=" ">
<path fill="none" stroke="#9a32cd" stroke-dasharray="5,2" d="M425.36,-57.42C451.31,-57.42 479.46,-57.42 504.75,-57.42"/>
<polygon fill="#9a32cd" stroke="#9a32cd" points="425.15,-53.92 415.15,-57.42 425.15,-60.92 425.15,-53.92"/>
</a>
</g>
<text text-anchor="middle" x="461" y="-60.42" font-family="Helvetica,sans-Serif" font-size="10.00" fill="grey"> sliceTable</text>
</g>
</g>
</svg>
