<?xml version="1.0" encoding="UTF-8" standalone="no"?>
<!DOCTYPE svg PUBLIC "-//W3C//DTD SVG 1.1//EN"
 "http://www.w3.org/Graphics/SVG/1.1/DTD/svg11.dtd">
<!-- Generated by graphviz version 2.43.0 (0)
 -->
<!-- Title: com.teragrep.pth_06.jooq.generated.bloomdb.tables.records.FiltertypeRecord Pages: 1 -->
<svg width="323pt" height="104pt"
 viewBox="0.00 0.00 323.00 104.00" xmlns="http://www.w3.org/2000/svg" xmlns:xlink="http://www.w3.org/1999/xlink">
<g id="graph0" class="graph" transform="scale(1 1) rotate(0) translate(4 100)">
<title>com.teragrep.pth_06.jooq.generated.bloomdb.tables.records.FiltertypeRecord</title>
<!-- Node1 -->
<g id="Node000001" class="node">
<title>Node1</title>
<g id="a_Node000001"><a xlink:title="This class is generated by jOOQ.">
<polygon fill="#999999" stroke="#666666" points="315,-30 0,-30 0,0 315,0 315,-30"/>
<text text-anchor="start" x="8" y="-18" font-family="Helvetica,sans-Serif" font-size="10.00">com.teragrep.pth_06.jooq.generated.bloomdb.tables.records.</text>
<text text-anchor="middle" x="157.5" y="-7" font-family="Helvetica,sans-Serif" font-size="10.00">FiltertypeRecord</text>
</a>
</g>
</g>
<!-- Node2 -->
<g id="Node000002" class="node">
<title>Node2</title>
<g id="a_Node000002"><a xlink:title=" ">
<polygon fill="white" stroke="#666666" points="144.5,-96 22.5,-96 22.5,-66 144.5,-66 144.5,-96"/>
<text text-anchor="start" x="30.5" y="-84" font-family="Helvetica,sans-Serif" font-size="10.00">UpdatableRecordImpl</text>
<text text-anchor="middle" x="83.5" y="-73" font-family="Helvetica,sans-Serif" font-size="10.00">&lt; FiltertypeRecord &gt;</text>
</a>
</g>
</g>
<!-- Node2&#45;&gt;Node1 -->
<g id="edge1_Node000001_Node000002" class="edge">
<title>Node2&#45;&gt;Node1</title>
<g id="a_edge1_Node000001_Node000002"><a xlink:title=" ">
<path fill="none" stroke="#63b8ff" d="M107.55,-59.2C118.53,-49.7 131.26,-38.69 141.12,-30.16"/>
<polygon fill="#63b8ff" stroke="#63b8ff" points="105.2,-56.61 99.92,-65.8 109.78,-61.9 105.2,-56.61"/>
</a>
</g>
</g>
<!-- Node3 -->
<g id="Node000003" class="node">
<title>Node3</title>
<g id="a_Node000003"><a xlink:title=" ">
<polygon fill="white" stroke="#666666" points="300.5,-96 162.5,-96 162.5,-66 300.5,-66 300.5,-96"/>
<text text-anchor="start" x="170.5" y="-84" font-family="Helvetica,sans-Serif" font-size="10.00">Record4&lt; ULong, ULong,</text>
<text text-anchor="middle" x="231.5" y="-73" font-family="Helvetica,sans-Serif" font-size="10.00"> Double, String &gt;</text>
</a>
</g>
</g>
<!-- Node3&#45;&gt;Node1 -->
<g id="edge2_Node000001_Node000003" class="edge">
<title>Node3&#45;&gt;Node1</title>
<g id="a_edge2_Node000001_Node000003"><a xlink:title=" ">
<path fill="none" stroke="#63b8ff" d="M207.45,-59.2C196.47,-49.7 183.74,-38.69 173.88,-30.16"/>
<polygon fill="#63b8ff" stroke="#63b8ff" points="205.22,-61.9 215.08,-65.8 209.8,-56.61 205.22,-61.9"/>
</a>
</g>
</g>
</g>
</svg>
