<?xml version="1.0" encoding="UTF-8" standalone="no"?>
<!DOCTYPE svg PUBLIC "-//W3C//DTD SVG 1.1//EN"
 "http://www.w3.org/Graphics/SVG/1.1/DTD/svg11.dtd">
<!-- Generated by graphviz version 2.43.0 (0)
 -->
<!-- Title: com.teragrep.pth_06.planner.StreamDBClient Pages: 1 -->
<svg width="1245pt" height="199pt"
 viewBox="0.00 0.00 1245.00 198.91" xmlns="http://www.w3.org/2000/svg" xmlns:xlink="http://www.w3.org/1999/xlink">
<g id="graph0" class="graph" transform="scale(1 1) rotate(0) translate(4 194.91)">
<title>com.teragrep.pth_06.planner.StreamDBClient</title>
<!-- Node1 -->
<g id="Node000001" class="node">
<title>Node1</title>
<g id="a_Node000001"><a xlink:title=" ">
<polygon fill="#999999" stroke="#666666" points="1237,-118.91 1077,-118.91 1077,-88.91 1237,-88.91 1237,-118.91"/>
<text text-anchor="start" x="1085" y="-106.91" font-family="Helvetica,sans-Serif" font-size="10.00">com.teragrep.pth_06.planner.</text>
<text text-anchor="middle" x="1157" y="-95.91" font-family="Helvetica,sans-Serif" font-size="10.00">StreamDBClient</text>
</a>
</g>
</g>
<!-- Node2 -->
<g id="Node000002" class="node">
<title>Node2</title>
<g id="a_Node000002"><a xlink:href="classcom_1_1teragrep_1_1pth__06_1_1ConfiguredLogger.html" target="_top" xlink:title=" ">
<polygon fill="white" stroke="#666666" points="173,-74.91 0,-74.91 0,-44.91 173,-44.91 173,-74.91"/>
<text text-anchor="start" x="8" y="-62.91" font-family="Helvetica,sans-Serif" font-size="10.00">com.teragrep.pth_06.Configured</text>
<text text-anchor="middle" x="86.5" y="-51.91" font-family="Helvetica,sans-Serif" font-size="10.00">Logger</text>
</a>
</g>
</g>
<!-- Node2&#45;&gt;Node1 -->
<g id="edge1_Node000001_Node000002" class="edge">
<title>Node2&#45;&gt;Node1</title>
<g id="a_edge1_Node000001_Node000002"><a xlink:title=" ">
<path fill="none" stroke="#9a32cd" stroke-dasharray="5,2" d="M112.47,-81.61C154.92,-116.18 245.2,-179.91 334,-179.91 334,-179.91 334,-179.91 872,-179.91 965.4,-179.91 1070.39,-141.08 1122.68,-118.93"/>
<polygon fill="#9a32cd" stroke="#9a32cd" points="114.56,-78.8 104.63,-75.11 110.1,-84.19 114.56,-78.8"/>
</a>
</g>
<text text-anchor="middle" x="585" y="-182.91" font-family="Helvetica,sans-Serif" font-size="10.00" fill="grey"> LOGGER</text>
</g>
<!-- Node3 -->
<g id="Node000003" class="node">
<title>Node3</title>
<g id="a_Node000003"><a xlink:href="classcom_1_1teragrep_1_1pth__06_1_1planner_1_1GetArchivedObjectsFilterTable.html" target="_top" xlink:title=" ">
<polygon fill="white" stroke="#666666" points="417,-122.91 253,-122.91 253,-92.91 417,-92.91 417,-122.91"/>
<text text-anchor="start" x="261" y="-110.91" font-family="Helvetica,sans-Serif" font-size="10.00">com.teragrep.pth_06.planner.</text>
<text text-anchor="middle" x="335" y="-99.91" font-family="Helvetica,sans-Serif" font-size="10.00">GetArchivedObjectsFilterTable</text>
</a>
</g>
</g>
<!-- Node2&#45;&gt;Node3 -->
<g id="edge3_Node000003_Node000002" class="edge">
<title>Node2&#45;&gt;Node3</title>
<g id="a_edge3_Node000003_Node000002"><a xlink:title=" ">
<path fill="none" stroke="#9a32cd" stroke-dasharray="5,2" d="M174.94,-76.94C201.71,-82.15 230.94,-87.84 256.96,-92.91"/>
<polygon fill="#9a32cd" stroke="#9a32cd" points="175.3,-73.44 164.82,-74.97 173.96,-80.32 175.3,-73.44"/>
</a>
</g>
<text text-anchor="middle" x="213" y="-90.91" font-family="Helvetica,sans-Serif" font-size="10.00" fill="grey"> logger</text>
</g>
<!-- Node4 -->
<g id="Node000004" class="node">
<title>Node4</title>
<g id="a_Node000004"><a xlink:href="classcom_1_1teragrep_1_1pth__06_1_1planner_1_1NestedTopNQuery.html" target="_top" xlink:title=" ">
<polygon fill="white" stroke="#666666" points="951,-34.91 791,-34.91 791,-4.91 951,-4.91 951,-34.91"/>
<text text-anchor="start" x="799" y="-22.91" font-family="Helvetica,sans-Serif" font-size="10.00">com.teragrep.pth_06.planner.</text>
<text text-anchor="middle" x="871" y="-11.91" font-family="Helvetica,sans-Serif" font-size="10.00">NestedTopNQuery</text>
</a>
</g>
</g>
<!-- Node2&#45;&gt;Node4 -->
<g id="edge5_Node000004_Node000002" class="edge">
<title>Node2&#45;&gt;Node4</title>
<g id="a_edge5_Node000004_Node000002"><a xlink:title=" ">
<path fill="none" stroke="#9a32cd" stroke-dasharray="5,2" d="M133.34,-41.13C151.09,-34.5 171.74,-27.54 191,-22.91 218.01,-16.42 225.33,-17.38 253,-14.91 443.44,2.06 491.81,-3.45 683,-1.91 723,-1.59 733.17,1.75 773,-1.91 780.85,-2.63 789,-3.68 797.11,-4.9"/>
<polygon fill="#9a32cd" stroke="#9a32cd" points="131.9,-37.94 123.8,-44.77 134.39,-44.48 131.9,-37.94"/>
</a>
</g>
<text text-anchor="middle" x="461" y="-5.91" font-family="Helvetica,sans-Serif" font-size="10.00" fill="grey"> logger</text>
</g>
<!-- Node5 -->
<g id="Node000005" class="node">
<title>Node5</title>
<g id="a_Node000005"><a xlink:href="classcom_1_1teragrep_1_1pth__06_1_1planner_1_1StreamDBClient.html" target="_top" xlink:title=" ">
<polygon fill="white" stroke="#666666" points="665,-46.91 505,-46.91 505,-16.91 665,-16.91 665,-46.91"/>
<text text-anchor="start" x="513" y="-34.91" font-family="Helvetica,sans-Serif" font-size="10.00">com.teragrep.pth_06.planner.</text>
<text text-anchor="middle" x="585" y="-23.91" font-family="Helvetica,sans-Serif" font-size="10.00">StreamDBClient</text>
</a>
</g>
</g>
<!-- Node2&#45;&gt;Node5 -->
<g id="edge7_Node000005_Node000002" class="edge">
<title>Node2&#45;&gt;Node5</title>
<g id="a_edge7_Node000005_Node000002"><a xlink:title=" ">
<path fill="none" stroke="#9a32cd" stroke-dasharray="5,2" d="M154.03,-42.54C184.04,-35.56 220.07,-28.36 253,-24.91 338.75,-15.94 437.65,-19.89 504.85,-24.69"/>
<polygon fill="#9a32cd" stroke="#9a32cd" points="153.02,-39.18 144.1,-44.89 154.63,-45.99 153.02,-39.18"/>
</a>
</g>
<text text-anchor="middle" x="335" y="-27.91" font-family="Helvetica,sans-Serif" font-size="10.00" fill="grey"> LOGGER</text>
</g>
<!-- Node6 -->
<g id="Node000006" class="node">
<title>Node6</title>
<g id="a_Node000006"><a xlink:href="classcom_1_1teragrep_1_1pth__06_1_1planner_1_1SliceTable.html" target="_top" xlink:title=" ">
<polygon fill="white" stroke="#666666" points="415,-74.91 255,-74.91 255,-44.91 415,-44.91 415,-74.91"/>
<text text-anchor="start" x="263" y="-62.91" font-family="Helvetica,sans-Serif" font-size="10.00">com.teragrep.pth_06.planner.</text>
<text text-anchor="middle" x="335" y="-51.91" font-family="Helvetica,sans-Serif" font-size="10.00">SliceTable</text>
</a>
</g>
</g>
<!-- Node2&#45;&gt;Node6 -->
<g id="edge11_Node000006_Node000002" class="edge">
<title>Node2&#45;&gt;Node6</title>
<g id="a_edge11_Node000006_Node000002"><a xlink:title=" ">
<path fill="none" stroke="#9a32cd" stroke-dasharray="5,2" d="M183.09,-59.91C206.82,-59.91 231.99,-59.91 254.83,-59.91"/>
<polygon fill="#9a32cd" stroke="#9a32cd" points="183.02,-56.41 173.02,-59.91 183.02,-63.41 183.02,-56.41"/>
</a>
</g>
<text text-anchor="middle" x="213" y="-62.91" font-family="Helvetica,sans-Serif" font-size="10.00" fill="grey"> LOGGER</text>
</g>
<!-- Node3&#45;&gt;Node1 -->
<g id="edge2_Node000001_Node000003" class="edge">
<title>Node3&#45;&gt;Node1</title>
<g id="a_edge2_Node000001_Node000003"><a xlink:title=" ">
<path fill="none" stroke="#9a32cd" stroke-dasharray="5,2" d="M427.67,-107.47C589.7,-106.68 923.99,-105.04 1076.73,-104.3"/>
<polygon fill="#9a32cd" stroke="#9a32cd" points="427.23,-103.97 417.25,-107.52 427.26,-110.97 427.23,-103.97"/>
</a>
</g>
<text text-anchor="middle" x="728" y="-108.91" font-family="Helvetica,sans-Serif" font-size="10.00" fill="grey"> filterTable</text>
</g>
<!-- Node3&#45;&gt;Node5 -->
<g id="edge8_Node000005_Node000003" class="edge">
<title>Node3&#45;&gt;Node5</title>
<g id="a_edge8_Node000005_Node000003"><a xlink:title=" ">
<path fill="none" stroke="#9a32cd" stroke-dasharray="5,2" d="M396.88,-89.9C403.67,-87.88 410.48,-85.86 417,-83.91 448.13,-74.63 455.97,-72.52 487,-62.91 503.38,-57.84 521.27,-52.16 537.18,-47.06"/>
<polygon fill="#9a32cd" stroke="#9a32cd" points="395.59,-86.63 386.99,-92.83 397.58,-93.34 395.59,-86.63"/>
</a>
</g>
<text text-anchor="middle" x="461" y="-80.91" font-family="Helvetica,sans-Serif" font-size="10.00" fill="grey"> filterTable</text>
</g>
<!-- Node4&#45;&gt;Node1 -->
<g id="edge4_Node000001_Node000004" class="edge">
<title>Node4&#45;&gt;Node1</title>
<g id="a_edge4_Node000001_Node000004"><a xlink:title=" ">
<path fill="none" stroke="#9a32cd" stroke-dasharray="5,2" d="M961.35,-27.8C992.81,-32.26 1028.02,-39.18 1059,-49.91 1086.32,-59.38 1114.92,-76.29 1133.93,-88.67"/>
<polygon fill="#9a32cd" stroke="#9a32cd" points="961.66,-24.31 951.29,-26.44 960.73,-31.25 961.66,-24.31"/>
</a>
</g>
<text text-anchor="middle" x="1014" y="-52.91" font-family="Helvetica,sans-Serif" font-size="10.00" fill="grey"> nestedTopNQuery</text>
</g>
<!-- Node4&#45;&gt;Node5 -->
<g id="edge9_Node000005_Node000004" class="edge">
<title>Node4&#45;&gt;Node5</title>
<g id="a_edge9_Node000005_Node000004"><a xlink:title=" ">
<path fill="none" stroke="#9a32cd" stroke-dasharray="5,2" d="M780.34,-8.28C749.43,-5.95 714.63,-5.21 683,-8.91 668.73,-10.58 653.52,-13.59 639.48,-16.88"/>
<polygon fill="#9a32cd" stroke="#9a32cd" points="780.41,-11.8 790.66,-9.12 780.98,-4.82 780.41,-11.8"/>
</a>
</g>
<text text-anchor="middle" x="728" y="-11.91" font-family="Helvetica,sans-Serif" font-size="10.00" fill="grey"> nestedTopNQuery</text>
</g>
<!-- Node5&#45;&gt;Node4 -->
<g id="edge6_Node000004_Node000005" class="edge">
<title>Node5&#45;&gt;Node4</title>
<g id="a_edge6_Node000004_Node000005"><a xlink:title=" ">
<path fill="none" stroke="#9a32cd" stroke-dasharray="5,2" d="M675.39,-28.14C712.4,-26.57 754.96,-24.77 790.82,-23.26"/>
<polygon fill="#9a32cd" stroke="#9a32cd" points="674.95,-24.65 665.11,-28.57 675.25,-31.64 674.95,-24.65"/>
</a>
</g>
<text text-anchor="middle" x="728" y="-29.91" font-family="Helvetica,sans-Serif" font-size="10.00" fill="grey"> streamDBClient</text>
</g>
<!-- Node6&#45;&gt;Node1 -->
<g id="edge12_Node000001_Node000006" class="edge">
<title>Node6&#45;&gt;Node1</title>
<g id="a_edge12_Node000001_Node000006"><a xlink:title=" ">
<path fill="none" stroke="#9a32cd" stroke-dasharray="5,2" d="M425.74,-64.73C587.09,-73.39 923.61,-91.44 1076.89,-99.67"/>
<polygon fill="#9a32cd" stroke="#9a32cd" points="425.54,-61.21 415.37,-64.17 425.17,-68.2 425.54,-61.21"/>
</a>
</g>
<text text-anchor="middle" x="728" y="-85.91" font-family="Helvetica,sans-Serif" font-size="10.00" fill="grey"> sliceTable</text>
</g>
<!-- Node6&#45;&gt;Node5 -->
<g id="edge10_Node000005_Node000006" class="edge">
<title>Node6&#45;&gt;Node5</title>
<g id="a_edge10_Node000005_Node000006"><a xlink:title=" ">
<path fill="none" stroke="#9a32cd" stroke-dasharray="5,2" d="M425.36,-49.82C451.31,-46.89 479.46,-43.72 504.75,-40.86"/>
<polygon fill="#9a32cd" stroke="#9a32cd" points="424.69,-46.38 415.15,-50.98 425.48,-53.33 424.69,-46.38"/>
</a>
</g>
<text text-anchor="middle" x="461" y="-50.91" font-family="Helvetica,sans-Serif" font-size="10.00" fill="grey"> sliceTable</text>
</g>
</g>
</svg>
