<?xml version="1.0" encoding="UTF-8" standalone="no"?>
<!DOCTYPE svg PUBLIC "-//W3C//DTD SVG 1.1//EN"
 "http://www.w3.org/Graphics/SVG/1.1/DTD/svg11.dtd">
<!-- Generated by graphviz version 2.43.0 (0)
 -->
<!-- Title: com.teragrep.pth_06.jooq.generated.streamdb.tables.records.LogGroupRecord Pages: 1 -->
<svg width="327pt" height="104pt"
 viewBox="0.00 0.00 327.00 104.00" xmlns="http://www.w3.org/2000/svg" xmlns:xlink="http://www.w3.org/1999/xlink">
<g id="graph0" class="graph" transform="scale(1 1) rotate(0) translate(4 100)">
<title>com.teragrep.pth_06.jooq.generated.streamdb.tables.records.LogGroupRecord</title>
<!-- Node1 -->
<g id="Node000001" class="node">
<title>Node1</title>
<g id="a_Node000001"><a xlink:title="This class is generated by jOOQ.">
<polygon fill="#999999" stroke="#666666" points="319,-30 0,-30 0,0 319,0 319,-30"/>
<text text-anchor="start" x="8" y="-18" font-family="Helvetica,sans-Serif" font-size="10.00">com.teragrep.pth_06.jooq.generated.streamdb.tables.records.</text>
<text text-anchor="middle" x="159.5" y="-7" font-family="Helvetica,sans-Serif" font-size="10.00">LogGroupRecord</text>
</a>
</g>
</g>
<!-- Node2 -->
<g id="Node000002" class="node">
<title>Node2</title>
<g id="a_Node000002"><a xlink:title=" ">
<polygon fill="white" stroke="#666666" points="152.5,-96 30.5,-96 30.5,-66 152.5,-66 152.5,-96"/>
<text text-anchor="start" x="38.5" y="-84" font-family="Helvetica,sans-Serif" font-size="10.00">UpdatableRecordImpl</text>
<text text-anchor="middle" x="91.5" y="-73" font-family="Helvetica,sans-Serif" font-size="10.00">&lt; LogGroupRecord &gt;</text>
</a>
</g>
</g>
<!-- Node2&#45;&gt;Node1 -->
<g id="edge1_Node000001_Node000002" class="edge">
<title>Node2&#45;&gt;Node1</title>
<g id="a_edge1_Node000001_Node000002"><a xlink:title=" ">
<path fill="none" stroke="#63b8ff" d="M113.89,-58.92C123.92,-49.49 135.48,-38.61 144.45,-30.16"/>
<polygon fill="#63b8ff" stroke="#63b8ff" points="111.47,-56.39 106.59,-65.8 116.27,-61.49 111.47,-56.39"/>
</a>
</g>
</g>
<!-- Node3 -->
<g id="Node000003" class="node">
<title>Node3</title>
<g id="a_Node000003"><a xlink:title=" ">
<polygon fill="white" stroke="#666666" points="284,-96 171,-96 171,-66 284,-66 284,-96"/>
<text text-anchor="start" x="179" y="-84" font-family="Helvetica,sans-Serif" font-size="10.00">Record2&lt; UInteger,</text>
<text text-anchor="middle" x="227.5" y="-73" font-family="Helvetica,sans-Serif" font-size="10.00"> String &gt;</text>
</a>
</g>
</g>
<!-- Node3&#45;&gt;Node1 -->
<g id="edge2_Node000001_Node000003" class="edge">
<title>Node3&#45;&gt;Node1</title>
<g id="a_edge2_Node000001_Node000003"><a xlink:title=" ">
<path fill="none" stroke="#63b8ff" d="M205.11,-58.92C195.08,-49.49 183.52,-38.61 174.55,-30.16"/>
<polygon fill="#63b8ff" stroke="#63b8ff" points="202.73,-61.49 212.41,-65.8 207.53,-56.39 202.73,-61.49"/>
</a>
</g>
</g>
</g>
</svg>
