<?xml version="1.0" encoding="UTF-8" standalone="no"?>
<!DOCTYPE svg PUBLIC "-//W3C//DTD SVG 1.1//EN"
 "http://www.w3.org/Graphics/SVG/1.1/DTD/svg11.dtd">
<!-- Generated by graphviz version 2.43.0 (0)
 -->
<!-- Title: com.teragrep.pth_06.planner.walker.conditions.ElementCondition.condition Pages: 1 -->
<svg width="1108pt" height="253pt"
 viewBox="0.00 0.00 1108.00 253.00" xmlns="http://www.w3.org/2000/svg" xmlns:xlink="http://www.w3.org/1999/xlink">
<g id="graph0" class="graph" transform="scale(1 1) rotate(0) translate(4 249)">
<title>com.teragrep.pth_06.planner.walker.conditions.ElementCondition.condition</title>
<!-- Node1 -->
<g id="Node000001" class="node">
<title>Node1</title>
<g id="a_Node000001"><a xlink:title=" ">
<polygon fill="#999999" stroke="#666666" points="248,-132 0,-132 0,-102 248,-102 248,-132"/>
<text text-anchor="start" x="8" y="-120" font-family="Helvetica,sans-Serif" font-size="10.00">com.teragrep.pth_06.planner.walker.conditions.</text>
<text text-anchor="middle" x="124" y="-109" font-family="Helvetica,sans-Serif" font-size="10.00">ElementCondition.condition</text>
</a>
</g>
</g>
<!-- Node1&#45;&gt;Node1 -->
<g id="edge1_Node000001_Node000001" class="edge">
<title>Node1&#45;&gt;Node1</title>
<g id="a_edge1_Node000001_Node000001"><a xlink:title=" ">
<path fill="none" stroke="#63b8ff" d="M74.08,-132.28C62.98,-141.41 79.62,-150 124,-150 150.69,-150 167.35,-146.89 173.97,-142.42"/>
<polygon fill="#63b8ff" stroke="#63b8ff" points="177.47,-142.26 173.92,-132.28 170.47,-142.29 177.47,-142.26"/>
</a>
</g>
</g>
<!-- Node2 -->
<g id="Node000002" class="node">
<title>Node2</title>
<g id="a_Node000002"><a xlink:href="interfacecom_1_1teragrep_1_1pth__06_1_1planner_1_1walker_1_1conditions_1_1QueryCondition.html#aac40ccff3997039d273d50bd5ca122c0" target="_top" xlink:title=" ">
<polygon fill="white" stroke="#666666" points="532,-245 284,-245 284,-215 532,-215 532,-245"/>
<text text-anchor="start" x="292" y="-233" font-family="Helvetica,sans-Serif" font-size="10.00">com.teragrep.pth_06.planner.walker.conditions.</text>
<text text-anchor="middle" x="408" y="-222" font-family="Helvetica,sans-Serif" font-size="10.00">QueryCondition.condition</text>
</a>
</g>
</g>
<!-- Node1&#45;&gt;Node2 -->
<g id="edge2_Node000001_Node000002" class="edge">
<title>Node1&#45;&gt;Node2</title>
<g id="a_edge2_Node000001_Node000002"><a xlink:title=" ">
<path fill="none" stroke="#63b8ff" d="M146.56,-132.03C176.18,-151.95 231.73,-186.83 284,-206 290.24,-208.29 296.75,-210.38 303.37,-212.27"/>
<polygon fill="#63b8ff" stroke="#63b8ff" points="302.56,-215.68 313.13,-214.92 304.39,-208.92 302.56,-215.68"/>
</a>
</g>
</g>
<!-- Node3 -->
<g id="Node000003" class="node">
<title>Node3</title>
<g id="a_Node000003"><a xlink:href="classcom_1_1teragrep_1_1pth__06_1_1planner_1_1walker_1_1conditions_1_1ElementCondition.html#af0985b4b7e16956dfcb2fed869fbd0b9" target="_top" xlink:title=" ">
<polygon fill="white" stroke="#666666" points="532,-197 284,-197 284,-167 532,-167 532,-197"/>
<text text-anchor="start" x="292" y="-185" font-family="Helvetica,sans-Serif" font-size="10.00">com.teragrep.pth_06.planner.walker.conditions.</text>
<text text-anchor="middle" x="408" y="-174" font-family="Helvetica,sans-Serif" font-size="10.00">ElementCondition.equals</text>
</a>
</g>
</g>
<!-- Node1&#45;&gt;Node3 -->
<g id="edge3_Node000001_Node000003" class="edge">
<title>Node1&#45;&gt;Node3</title>
<g id="a_edge3_Node000001_Node000003"><a xlink:title=" ">
<path fill="none" stroke="#63b8ff" d="M190.41,-132.08C232.61,-141.8 287.64,-154.49 331.67,-164.64"/>
<polygon fill="#63b8ff" stroke="#63b8ff" points="330.93,-168.06 341.46,-166.89 332.5,-161.24 330.93,-168.06"/>
</a>
</g>
</g>
<!-- Node5 -->
<g id="Node000005" class="node">
<title>Node5</title>
<g id="a_Node000005"><a xlink:href="classcom_1_1teragrep_1_1pth__06_1_1planner_1_1walker_1_1conditions_1_1ElementCondition.html#af340b59529954bf83536432d3512af34" target="_top" xlink:title=" ">
<polygon fill="white" stroke="#666666" points="532,-111 284,-111 284,-81 532,-81 532,-111"/>
<text text-anchor="start" x="292" y="-99" font-family="Helvetica,sans-Serif" font-size="10.00">com.teragrep.pth_06.planner.walker.conditions.</text>
<text text-anchor="middle" x="408" y="-88" font-family="Helvetica,sans-Serif" font-size="10.00">ElementCondition.isBloomSearchCondition</text>
</a>
</g>
</g>
<!-- Node1&#45;&gt;Node5 -->
<g id="edge6_Node000001_Node000005" class="edge">
<title>Node1&#45;&gt;Node5</title>
<g id="a_edge6_Node000001_Node000005"><a xlink:title=" ">
<path fill="none" stroke="#63b8ff" d="M248.28,-107.82C256.6,-107.2 265.01,-106.57 273.38,-105.95"/>
<polygon fill="#63b8ff" stroke="#63b8ff" points="273.86,-109.42 283.57,-105.19 273.34,-102.44 273.86,-109.42"/>
</a>
</g>
</g>
<!-- Node6 -->
<g id="Node000006" class="node">
<title>Node6</title>
<g id="a_Node000006"><a xlink:href="classcom_1_1teragrep_1_1pth__06_1_1planner_1_1walker_1_1conditions_1_1ValidElement.html#a7a4670f256d613e6433c461cf275ae5c" target="_top" xlink:title=" ">
<polygon fill="white" stroke="#666666" points="816,-126 568,-126 568,-96 816,-96 816,-126"/>
<text text-anchor="start" x="576" y="-114" font-family="Helvetica,sans-Serif" font-size="10.00">com.teragrep.pth_06.planner.walker.conditions.</text>
<text text-anchor="middle" x="692" y="-103" font-family="Helvetica,sans-Serif" font-size="10.00">ValidElement.operation</text>
</a>
</g>
</g>
<!-- Node1&#45;&gt;Node6 -->
<g id="edge11_Node000001_Node000006" class="edge">
<title>Node1&#45;&gt;Node6</title>
<g id="a_edge11_Node000001_Node000006"><a xlink:title=" ">
<path fill="none" stroke="#63b8ff" d="M248.36,-120.19C329.08,-121.72 436.82,-122.69 532,-120 540.34,-119.76 548.93,-119.46 557.59,-119.1"/>
<polygon fill="#63b8ff" stroke="#63b8ff" points="557.93,-122.59 567.77,-118.66 557.63,-115.6 557.93,-122.59"/>
</a>
</g>
</g>
<!-- Node8 -->
<g id="Node000008" class="node">
<title>Node8</title>
<g id="a_Node000008"><a xlink:href="classcom_1_1teragrep_1_1pth__06_1_1planner_1_1walker_1_1conditions_1_1ValidElement.html#a5f5d7e1e5a7d4596f0df0c86657fa310" target="_top" xlink:title=" ">
<polygon fill="white" stroke="#666666" points="816,-78 568,-78 568,-48 816,-48 816,-78"/>
<text text-anchor="start" x="576" y="-66" font-family="Helvetica,sans-Serif" font-size="10.00">com.teragrep.pth_06.planner.walker.conditions.</text>
<text text-anchor="middle" x="692" y="-55" font-family="Helvetica,sans-Serif" font-size="10.00">ValidElement.tag</text>
</a>
</g>
</g>
<!-- Node1&#45;&gt;Node8 -->
<g id="edge12_Node000001_Node000008" class="edge">
<title>Node1&#45;&gt;Node8</title>
<g id="a_edge12_Node000001_Node000008"><a xlink:title=" ">
<path fill="none" stroke="#63b8ff" d="M166.88,-102C198.57,-91.42 243.43,-78.09 284,-72 374.65,-58.4 477.92,-56.27 557.75,-57.48"/>
<polygon fill="#63b8ff" stroke="#63b8ff" points="557.81,-60.98 567.87,-57.65 557.93,-53.98 557.81,-60.98"/>
</a>
</g>
</g>
<!-- Node9 -->
<g id="Node000009" class="node">
<title>Node9</title>
<g id="a_Node000009"><a xlink:href="classcom_1_1teragrep_1_1pth__06_1_1planner_1_1walker_1_1conditions_1_1ValidElement.html#ac0ea2df270c90db9d9cc284d8f56222d" target="_top" xlink:title=" ">
<polygon fill="white" stroke="#666666" points="816,-30 568,-30 568,0 816,0 816,-30"/>
<text text-anchor="start" x="576" y="-18" font-family="Helvetica,sans-Serif" font-size="10.00">com.teragrep.pth_06.planner.walker.conditions.</text>
<text text-anchor="middle" x="692" y="-7" font-family="Helvetica,sans-Serif" font-size="10.00">ValidElement.value</text>
</a>
</g>
</g>
<!-- Node1&#45;&gt;Node9 -->
<g id="edge13_Node000001_Node000009" class="edge">
<title>Node1&#45;&gt;Node9</title>
<g id="a_edge13_Node000001_Node000009"><a xlink:title=" ">
<path fill="none" stroke="#63b8ff" d="M154.91,-101.91C186.24,-86.83 237.3,-64.32 284,-53 373.78,-31.23 477.5,-21.77 557.77,-17.74"/>
<polygon fill="#63b8ff" stroke="#63b8ff" points="558.11,-21.23 567.93,-17.25 557.78,-14.23 558.11,-21.23"/>
</a>
</g>
</g>
<!-- Node4 -->
<g id="Node000004" class="node">
<title>Node4</title>
<g id="a_Node000004"><a xlink:href="classcom_1_1teragrep_1_1pth__06_1_1planner_1_1walker_1_1conditions_1_1ValidElement.html#a0e51edc7515990155bc9a915cd687eff" target="_top" xlink:title=" ">
<polygon fill="white" stroke="#666666" points="816,-197 568,-197 568,-167 816,-167 816,-197"/>
<text text-anchor="start" x="576" y="-185" font-family="Helvetica,sans-Serif" font-size="10.00">com.teragrep.pth_06.planner.walker.conditions.</text>
<text text-anchor="middle" x="692" y="-174" font-family="Helvetica,sans-Serif" font-size="10.00">ValidElement.equals</text>
</a>
</g>
</g>
<!-- Node3&#45;&gt;Node4 -->
<g id="edge4_Node000003_Node000004" class="edge">
<title>Node3&#45;&gt;Node4</title>
<g id="a_edge4_Node000003_Node000004"><a xlink:title=" ">
<path fill="none" stroke="#63b8ff" d="M532.28,-182C540.6,-182 549.01,-182 557.38,-182"/>
<polygon fill="#63b8ff" stroke="#63b8ff" points="557.57,-185.5 567.57,-182 557.57,-178.5 557.57,-185.5"/>
</a>
</g>
</g>
<!-- Node4&#45;&gt;Node4 -->
<g id="edge5_Node000004_Node000004" class="edge">
<title>Node4&#45;&gt;Node4</title>
<g id="a_edge5_Node000004_Node000004"><a xlink:title=" ">
<path fill="none" stroke="#63b8ff" d="M642.08,-197.28C630.98,-206.41 647.62,-215 692,-215 718.69,-215 735.35,-211.89 741.97,-207.42"/>
<polygon fill="#63b8ff" stroke="#63b8ff" points="745.47,-207.26 741.92,-197.28 738.47,-207.29 745.47,-207.26"/>
</a>
</g>
</g>
<!-- Node5&#45;&gt;Node6 -->
<g id="edge7_Node000005_Node000006" class="edge">
<title>Node5&#45;&gt;Node6</title>
<g id="a_edge7_Node000005_Node000006"><a xlink:title=" ">
<path fill="none" stroke="#63b8ff" d="M532.28,-102.56C540.6,-103 549.01,-103.45 557.38,-103.89"/>
<polygon fill="#63b8ff" stroke="#63b8ff" points="557.4,-107.4 567.57,-104.43 557.77,-100.41 557.4,-107.4"/>
</a>
</g>
</g>
<!-- Node5&#45;&gt;Node8 -->
<g id="edge9_Node000005_Node000008" class="edge">
<title>Node5&#45;&gt;Node8</title>
<g id="a_edge9_Node000005_Node000008"><a xlink:title=" ">
<path fill="none" stroke="#63b8ff" d="M532.28,-81.57C540.6,-80.6 549.01,-79.62 557.38,-78.64"/>
<polygon fill="#63b8ff" stroke="#63b8ff" points="558.05,-82.08 567.57,-77.44 557.23,-75.13 558.05,-82.08"/>
</a>
</g>
</g>
<!-- Node7 -->
<g id="Node000007" class="node">
<title>Node7</title>
<g id="a_Node000007"><a xlink:href="classcom_1_1teragrep_1_1pth__06_1_1planner_1_1walker_1_1conditions_1_1ValidElement.html#a5b8694849043fd75636eea63a160b5b1" target="_top" xlink:title=" ">
<polygon fill="white" stroke="#666666" points="1100,-78 852,-78 852,-48 1100,-48 1100,-78"/>
<text text-anchor="start" x="860" y="-66" font-family="Helvetica,sans-Serif" font-size="10.00">com.teragrep.pth_06.planner.walker.conditions.</text>
<text text-anchor="middle" x="976" y="-55" font-family="Helvetica,sans-Serif" font-size="10.00">ValidElement.validate</text>
</a>
</g>
</g>
<!-- Node6&#45;&gt;Node7 -->
<g id="edge8_Node000006_Node000007" class="edge">
<title>Node6&#45;&gt;Node7</title>
<g id="a_edge8_Node000006_Node000007"><a xlink:title=" ">
<path fill="none" stroke="#63b8ff" d="M781.45,-95.94C811.77,-90.78 845.87,-84.98 876.9,-79.7"/>
<polygon fill="#63b8ff" stroke="#63b8ff" points="877.59,-83.13 886.86,-78 876.42,-76.23 877.59,-83.13"/>
</a>
</g>
</g>
<!-- Node8&#45;&gt;Node7 -->
<g id="edge10_Node000008_Node000007" class="edge">
<title>Node8&#45;&gt;Node7</title>
<g id="a_edge10_Node000008_Node000007"><a xlink:title=" ">
<path fill="none" stroke="#63b8ff" d="M816.28,-63C824.6,-63 833.01,-63 841.38,-63"/>
<polygon fill="#63b8ff" stroke="#63b8ff" points="841.57,-66.5 851.57,-63 841.57,-59.5 841.57,-66.5"/>
</a>
</g>
</g>
<!-- Node9&#45;&gt;Node7 -->
<g id="edge14_Node000009_Node000007" class="edge">
<title>Node9&#45;&gt;Node7</title>
<g id="a_edge14_Node000009_Node000007"><a xlink:title=" ">
<path fill="none" stroke="#63b8ff" d="M781.45,-30.06C811.77,-35.22 845.87,-41.02 876.9,-46.3"/>
<polygon fill="#63b8ff" stroke="#63b8ff" points="876.42,-49.77 886.86,-48 877.59,-42.87 876.42,-49.77"/>
</a>
</g>
</g>
</g>
</svg>
