<?xml version="1.0" encoding="UTF-8" standalone="no"?>
<!DOCTYPE svg PUBLIC "-//W3C//DTD SVG 1.1//EN"
 "http://www.w3.org/Graphics/SVG/1.1/DTD/svg11.dtd">
<!-- Generated by graphviz version 2.43.0 (0)
 -->
<!-- Title: com.teragrep.pth_06.jooq.generated.streamdb.Streamdb Pages: 1 -->
<svg width="467pt" height="171pt"
 viewBox="0.00 0.00 467.00 171.00" xmlns="http://www.w3.org/2000/svg" xmlns:xlink="http://www.w3.org/1999/xlink">
<g id="graph0" class="graph" transform="scale(1 1) rotate(0) translate(4 167)">
<title>com.teragrep.pth_06.jooq.generated.streamdb.Streamdb</title>
<!-- Node1 -->
<g id="Node000001" class="node">
<title>Node1</title>
<g id="a_Node000001"><a xlink:title="This class is generated by jOOQ.">
<polygon fill="#999999" stroke="#666666" points="247,-30 0,-30 0,0 247,0 247,-30"/>
<text text-anchor="start" x="8" y="-18" font-family="Helvetica,sans-Serif" font-size="10.00">com.teragrep.pth_06.jooq.generated.streamdb.</text>
<text text-anchor="middle" x="123.5" y="-7" font-family="Helvetica,sans-Serif" font-size="10.00">Streamdb</text>
</a>
</g>
</g>
<!-- Node2 -->
<g id="Node000002" class="node">
<title>Node2</title>
<g id="a_Node000002"><a xlink:title=" ">
<polygon fill="white" stroke="#666666" points="158,-163 81,-163 81,-144 158,-144 158,-163"/>
<text text-anchor="middle" x="119.5" y="-151" font-family="Helvetica,sans-Serif" font-size="10.00">SchemaImpl</text>
</a>
</g>
</g>
<!-- Node2&#45;&gt;Node1 -->
<g id="edge1_Node000001_Node000002" class="edge">
<title>Node2&#45;&gt;Node1</title>
<g id="a_edge1_Node000001_Node000002"><a xlink:title=" ">
<path fill="none" stroke="#63b8ff" d="M120.05,-133.65C120.87,-105.91 122.37,-54.7 123.09,-30.02"/>
<polygon fill="#63b8ff" stroke="#63b8ff" points="116.54,-133.86 119.75,-143.96 123.54,-134.07 116.54,-133.86"/>
</a>
</g>
</g>
<!-- Node3 -->
<g id="Node000003" class="node">
<title>Node3</title>
<g id="a_Node000003"><a xlink:href="classcom_1_1teragrep_1_1pth__06_1_1jooq_1_1generated_1_1streamdb_1_1Streamdb.html" target="_top" xlink:title="This class is generated by jOOQ.">
<polygon fill="white" stroke="#666666" points="383,-107 136,-107 136,-77 383,-77 383,-107"/>
<text text-anchor="start" x="144" y="-95" font-family="Helvetica,sans-Serif" font-size="10.00">com.teragrep.pth_06.jooq.generated.streamdb.</text>
<text text-anchor="middle" x="259.5" y="-84" font-family="Helvetica,sans-Serif" font-size="10.00">Streamdb</text>
</a>
</g>
</g>
<!-- Node2&#45;&gt;Node3 -->
<g id="edge3_Node000003_Node000002" class="edge">
<title>Node2&#45;&gt;Node3</title>
<g id="a_edge3_Node000003_Node000002"><a xlink:title=" ">
<path fill="none" stroke="#63b8ff" d="M149,-139.96C171.68,-130.32 203,-117.01 226.5,-107.02"/>
<polygon fill="#63b8ff" stroke="#63b8ff" points="147.39,-136.84 139.56,-143.98 150.13,-143.28 147.39,-136.84"/>
</a>
</g>
</g>
<!-- Node3&#45;&gt;Node1 -->
<g id="edge2_Node000001_Node000003" class="edge">
<title>Node3&#45;&gt;Node1</title>
<g id="a_edge2_Node000001_Node000003"><a xlink:title=" ">
<path fill="none" stroke="#9a32cd" stroke-dasharray="5,2" d="M224.91,-71.93C201.25,-58.88 170.4,-41.86 148.97,-30.04"/>
<polygon fill="#9a32cd" stroke="#9a32cd" points="223.47,-75.13 233.92,-76.89 226.85,-69 223.47,-75.13"/>
</a>
</g>
<text text-anchor="middle" x="228.5" y="-51" font-family="Helvetica,sans-Serif" font-size="10.00" fill="grey"> STREAMDB</text>
</g>
<!-- Node3&#45;&gt;Node3 -->
<g id="edge4_Node000003_Node000003" class="edge">
<title>Node3&#45;&gt;Node3</title>
<g id="a_edge4_Node000003_Node000003"><a xlink:title=" ">
<path fill="none" stroke="#9a32cd" stroke-dasharray="5,2" d="M393.29,-95.43C398.19,-94.52 401,-93.38 401,-92 401,-89.84 394.15,-88.27 383.21,-87.27"/>
<polygon fill="#9a32cd" stroke="#9a32cd" points="392.68,-91.98 383.21,-96.73 393.58,-98.92 392.68,-91.98"/>
</a>
</g>
<text text-anchor="middle" x="430" y="-89.5" font-family="Helvetica,sans-Serif" font-size="10.00" fill="grey"> STREAMDB</text>
</g>
</g>
</svg>
