<?xml version="1.0" encoding="UTF-8" standalone="no"?>
<!DOCTYPE svg PUBLIC "-//W3C//DTD SVG 1.1//EN"
 "http://www.w3.org/Graphics/SVG/1.1/DTD/svg11.dtd">
<!-- Generated by graphviz version 2.43.0 (0)
 -->
<!-- Title: com.teragrep.pth_06.jooq.generated.journaldb.tables.Ci Pages: 1 -->
<svg width="484pt" height="149pt"
 viewBox="0.00 0.00 484.00 149.00" xmlns="http://www.w3.org/2000/svg" xmlns:xlink="http://www.w3.org/1999/xlink">
<g id="graph0" class="graph" transform="scale(1 1) rotate(0) translate(4 145)">
<title>com.teragrep.pth_06.jooq.generated.journaldb.tables.Ci</title>
<!-- Node1 -->
<g id="Node000001" class="node">
<title>Node1</title>
<g id="a_Node000001"><a xlink:title="Contains ci values that are identified using the ID.">
<polygon fill="#999999" stroke="#666666" points="289,-19 0,-19 0,0 289,0 289,-19"/>
<text text-anchor="middle" x="144.5" y="-7" font-family="Helvetica,sans-Serif" font-size="10.00">com.teragrep.pth_06.jooq.generated.journaldb.tables.Ci</text>
</a>
</g>
</g>
<!-- Node2 -->
<g id="Node000002" class="node">
<title>Node2</title>
<g id="a_Node000002"><a xlink:title=" ">
<polygon fill="white" stroke="#666666" points="205.5,-141 75.5,-141 75.5,-122 205.5,-122 205.5,-141"/>
<text text-anchor="middle" x="140.5" y="-129" font-family="Helvetica,sans-Serif" font-size="10.00">TableImpl&lt; CiRecord &gt;</text>
</a>
</g>
</g>
<!-- Node2&#45;&gt;Node1 -->
<g id="edge1_Node000001_Node000002" class="edge">
<title>Node2&#45;&gt;Node1</title>
<g id="a_edge1_Node000001_Node000002"><a xlink:title=" ">
<path fill="none" stroke="#63b8ff" d="M141.13,-111.65C142.01,-85.22 143.57,-38.26 144.21,-19.05"/>
<polygon fill="#63b8ff" stroke="#63b8ff" points="137.62,-111.76 140.79,-121.87 144.62,-111.99 137.62,-111.76"/>
</a>
</g>
</g>
<!-- Node3 -->
<g id="Node000003" class="node">
<title>Node3</title>
<g id="a_Node000003"><a xlink:href="classcom_1_1teragrep_1_1pth__06_1_1jooq_1_1generated_1_1journaldb_1_1tables_1_1Ci.html" target="_top" xlink:title="Contains ci values that are identified using the ID.">
<polygon fill="white" stroke="#666666" points="445,-85 156,-85 156,-66 445,-66 445,-85"/>
<text text-anchor="middle" x="300.5" y="-73" font-family="Helvetica,sans-Serif" font-size="10.00">com.teragrep.pth_06.jooq.generated.journaldb.tables.Ci</text>
</a>
</g>
</g>
<!-- Node2&#45;&gt;Node3 -->
<g id="edge3_Node000003_Node000002" class="edge">
<title>Node2&#45;&gt;Node3</title>
<g id="a_edge3_Node000003_Node000002"><a xlink:title=" ">
<path fill="none" stroke="#63b8ff" d="M175.55,-118.67C205.67,-108.5 248.4,-94.09 275.27,-85.02"/>
<polygon fill="#63b8ff" stroke="#63b8ff" points="174.21,-115.43 165.85,-121.94 176.45,-122.06 174.21,-115.43"/>
</a>
</g>
</g>
<!-- Node3&#45;&gt;Node1 -->
<g id="edge2_Node000001_Node000003" class="edge">
<title>Node3&#45;&gt;Node1</title>
<g id="a_edge2_Node000001_Node000003"><a xlink:title=" ">
<path fill="none" stroke="#9a32cd" stroke-dasharray="5,2" d="M270.06,-62.01C239.22,-49.36 192.35,-30.13 165.45,-19.1"/>
<polygon fill="#9a32cd" stroke="#9a32cd" points="268.88,-65.31 279.46,-65.87 271.54,-58.83 268.88,-65.31"/>
</a>
</g>
<text text-anchor="middle" x="238" y="-40" font-family="Helvetica,sans-Serif" font-size="10.00" fill="grey"> CI</text>
</g>
<!-- Node3&#45;&gt;Node3 -->
<g id="edge4_Node000003_Node000003" class="edge">
<title>Node3&#45;&gt;Node3</title>
<g id="a_edge4_Node000003_Node000003"><a xlink:title=" ">
<path fill="none" stroke="#9a32cd" stroke-dasharray="5,2" d="M455.33,-78.32C460.22,-77.56 463,-76.62 463,-75.5 463,-73.75 456.23,-72.44 445.23,-71.56"/>
<polygon fill="#9a32cd" stroke="#9a32cd" points="454.78,-74.86 445.23,-79.44 455.55,-81.82 454.78,-74.86"/>
</a>
</g>
<text text-anchor="middle" x="469.5" y="-73" font-family="Helvetica,sans-Serif" font-size="10.00" fill="grey"> CI</text>
</g>
</g>
</svg>
