<?xml version="1.0" encoding="UTF-8" standalone="no"?>
<!DOCTYPE svg PUBLIC "-//W3C//DTD SVG 1.1//EN"
 "http://www.w3.org/Graphics/SVG/1.1/DTD/svg11.dtd">
<!-- Generated by graphviz version 2.43.0 (0)
 -->
<!-- Title: com.teragrep.pth_06.planner.walker.conditions.WithoutFiltersCondition.condition Pages: 1 -->
<svg width="824pt" height="161pt"
 viewBox="0.00 0.00 824.00 160.50" xmlns="http://www.w3.org/2000/svg" xmlns:xlink="http://www.w3.org/1999/xlink">
<g id="graph0" class="graph" transform="scale(1 1) rotate(0) translate(4 156.5)">
<title>com.teragrep.pth_06.planner.walker.conditions.WithoutFiltersCondition.condition</title>
<!-- Node1 -->
<g id="Node000001" class="node">
<title>Node1</title>
<g id="a_Node000001"><a xlink:title=" ">
<polygon fill="#999999" stroke="#666666" points="816,-89.5 568,-89.5 568,-59.5 816,-59.5 816,-89.5"/>
<text text-anchor="start" x="576" y="-77.5" font-family="Helvetica,sans-Serif" font-size="10.00">com.teragrep.pth_06.planner.walker.conditions.</text>
<text text-anchor="middle" x="692" y="-66.5" font-family="Helvetica,sans-Serif" font-size="10.00">WithoutFiltersCondition.condition</text>
</a>
</g>
</g>
<!-- Node2 -->
<g id="Node000002" class="node">
<title>Node2</title>
<g id="a_Node000002"><a xlink:href="classcom_1_1teragrep_1_1pth__06_1_1planner_1_1walker_1_1conditions_1_1WithoutFiltersCondition.html#aef71776f1f38e98ef31ea07379338a53" target="_top" xlink:title=" ">
<polygon fill="white" stroke="#666666" points="532,-111.5 284,-111.5 284,-81.5 532,-81.5 532,-111.5"/>
<text text-anchor="start" x="292" y="-99.5" font-family="Helvetica,sans-Serif" font-size="10.00">com.teragrep.pth_06.planner.walker.conditions.</text>
<text text-anchor="middle" x="408" y="-88.5" font-family="Helvetica,sans-Serif" font-size="10.00">WithoutFiltersCondition.requiredTables</text>
</a>
</g>
</g>
<!-- Node1&#45;&gt;Node2 -->
<g id="edge1_Node000001_Node000002" class="edge">
<title>Node1&#45;&gt;Node2</title>
<g id="a_edge1_Node000001_Node000002"><a xlink:title=" ">
<path fill="none" stroke="#63b8ff" d="M557.53,-84.91C549.16,-85.57 540.75,-86.22 532.43,-86.87"/>
<polygon fill="#63b8ff" stroke="#63b8ff" points="558.02,-88.38 567.72,-84.12 557.48,-81.41 558.02,-88.38"/>
</a>
</g>
</g>
<!-- Node3 -->
<g id="Node000003" class="node">
<title>Node3</title>
<g id="a_Node000003"><a xlink:href="classcom_1_1teragrep_1_1pth__06_1_1planner_1_1walker_1_1conditions_1_1WithoutFiltersConditionTest.html#a6ec5831aa0aa3a9056daaab8781fb960" target="_top" xlink:title=" ">
<polygon fill="white" stroke="#666666" points="248,-152.5 0,-152.5 0,-122.5 248,-122.5 248,-152.5"/>
<text text-anchor="start" x="8" y="-140.5" font-family="Helvetica,sans-Serif" font-size="10.00">com.teragrep.pth_06.planner.walker.conditions.</text>
<text text-anchor="middle" x="124" y="-129.5" font-family="Helvetica,sans-Serif" font-size="10.00">WithoutFiltersConditionTest.testNoMatch</text>
</a>
</g>
</g>
<!-- Node1&#45;&gt;Node3 -->
<g id="edge5_Node000001_Node000003" class="edge">
<title>Node1&#45;&gt;Node3</title>
<g id="a_edge5_Node000001_Node000003"><a xlink:title=" ">
<path fill="none" stroke="#63b8ff" d="M639.47,-92.82C608.7,-102.89 568.6,-114.53 532,-120.5 437.6,-135.9 329.34,-139.77 248.22,-140"/>
<polygon fill="#63b8ff" stroke="#63b8ff" points="640.73,-96.09 649.12,-89.61 638.52,-89.44 640.73,-96.09"/>
</a>
</g>
</g>
<!-- Node4 -->
<g id="Node000004" class="node">
<title>Node4</title>
<g id="a_Node000004"><a xlink:href="classcom_1_1teragrep_1_1pth__06_1_1planner_1_1walker_1_1conditions_1_1WithoutFiltersConditionTest.html#acfd3c6a411b5bd5b993b99f7259da677" target="_top" xlink:title=" ">
<polygon fill="white" stroke="#666666" points="248,-103 0,-103 0,-62 248,-62 248,-103"/>
<text text-anchor="start" x="8" y="-91" font-family="Helvetica,sans-Serif" font-size="10.00">com.teragrep.pth_06.planner.walker.conditions.</text>
<text text-anchor="start" x="8" y="-80" font-family="Helvetica,sans-Serif" font-size="10.00">WithoutFiltersConditionTest.testSingleFilter</text>
<text text-anchor="middle" x="124" y="-69" font-family="Helvetica,sans-Serif" font-size="10.00">TypeMatchesWithoutFiltersPattern</text>
</a>
</g>
</g>
<!-- Node1&#45;&gt;Node4 -->
<g id="edge6_Node000001_Node000004" class="edge">
<title>Node1&#45;&gt;Node4</title>
<g id="a_edge6_Node000001_Node000004"><a xlink:title=" ">
<path fill="none" stroke="#63b8ff" d="M557.56,-71.4C478.1,-70.17 375.26,-69.63 284,-72.5 272.39,-72.86 260.31,-73.38 248.22,-73.98"/>
<polygon fill="#63b8ff" stroke="#63b8ff" points="557.57,-74.91 567.63,-71.57 557.69,-67.91 557.57,-74.91"/>
</a>
</g>
</g>
<!-- Node5 -->
<g id="Node000005" class="node">
<title>Node5</title>
<g id="a_Node000005"><a xlink:href="classcom_1_1teragrep_1_1pth__06_1_1planner_1_1walker_1_1conditions_1_1WithoutFiltersConditionTest.html#af49ae5c40509602f4d483399d0336abd" target="_top" xlink:title=" ">
<polygon fill="white" stroke="#666666" points="248,-41 0,-41 0,0 248,0 248,-41"/>
<text text-anchor="start" x="8" y="-29" font-family="Helvetica,sans-Serif" font-size="10.00">com.teragrep.pth_06.planner.walker.conditions.</text>
<text text-anchor="start" x="8" y="-18" font-family="Helvetica,sans-Serif" font-size="10.00">WithoutFiltersConditionTest.testTwoFilterTypes</text>
<text text-anchor="middle" x="124" y="-7" font-family="Helvetica,sans-Serif" font-size="10.00">MatchWithoutFiltersPattern</text>
</a>
</g>
</g>
<!-- Node1&#45;&gt;Node5 -->
<g id="edge7_Node000001_Node000005" class="edge">
<title>Node1&#45;&gt;Node5</title>
<g id="a_edge7_Node000001_Node000005"><a xlink:title=" ">
<path fill="none" stroke="#63b8ff" d="M557.73,-61.79C464.1,-52.85 339.76,-40.99 248.4,-32.27"/>
<polygon fill="#63b8ff" stroke="#63b8ff" points="557.55,-65.28 567.84,-62.75 558.22,-58.32 557.55,-65.28"/>
</a>
</g>
</g>
<!-- Node2&#45;&gt;Node3 -->
<g id="edge2_Node000002_Node000003" class="edge">
<title>Node2&#45;&gt;Node3</title>
<g id="a_edge2_Node000002_Node000003"><a xlink:title=" ">
<path fill="none" stroke="#63b8ff" d="M293.45,-113.01C271.95,-116.13 249.56,-119.39 228.39,-122.47"/>
<polygon fill="#63b8ff" stroke="#63b8ff" points="294.2,-116.44 303.59,-111.53 293.2,-109.51 294.2,-116.44"/>
</a>
</g>
</g>
<!-- Node2&#45;&gt;Node4 -->
<g id="edge3_Node000002_Node000004" class="edge">
<title>Node2&#45;&gt;Node4</title>
<g id="a_edge3_Node000002_Node000004"><a xlink:title=" ">
<path fill="none" stroke="#63b8ff" d="M273.53,-89.87C265.16,-89.46 256.75,-89.04 248.43,-88.63"/>
<polygon fill="#63b8ff" stroke="#63b8ff" points="273.56,-93.38 283.72,-90.38 273.91,-86.39 273.56,-93.38"/>
</a>
</g>
</g>
<!-- Node2&#45;&gt;Node5 -->
<g id="edge4_Node000002_Node000005" class="edge">
<title>Node2&#45;&gt;Node5</title>
<g id="a_edge4_Node000002_Node000005"><a xlink:title=" ">
<path fill="none" stroke="#63b8ff" d="M341.54,-78.77C312.84,-71 278.75,-61.78 248,-53.5 233.06,-49.47 217.09,-45.18 201.77,-41.07"/>
<polygon fill="#63b8ff" stroke="#63b8ff" points="340.88,-82.21 351.45,-81.45 342.71,-75.46 340.88,-82.21"/>
</a>
</g>
</g>
</g>
</svg>
