<?xml version="1.0" encoding="UTF-8" standalone="no"?>
<!DOCTYPE svg PUBLIC "-//W3C//DTD SVG 1.1//EN"
 "http://www.w3.org/Graphics/SVG/1.1/DTD/svg11.dtd">
<!-- Generated by graphviz version 2.43.0 (0)
 -->
<!-- Title: com.teragrep.pth_06.jooq.generated.bloomdb.tables.Filtertype Pages: 1 -->
<svg width="859pt" height="85pt"
 viewBox="0.00 0.00 859.00 85.00" xmlns="http://www.w3.org/2000/svg" xmlns:xlink="http://www.w3.org/1999/xlink">
<g id="graph0" class="graph" transform="scale(1 1) rotate(0) translate(4 81)">
<title>com.teragrep.pth_06.jooq.generated.bloomdb.tables.Filtertype</title>
<!-- Node1 -->
<g id="Node000001" class="node">
<title>Node1</title>
<g id="a_Node000001"><a xlink:title="This class is generated by jOOQ.">
<polygon fill="#999999" stroke="#666666" points="851,-77 575,-77 575,-47 851,-47 851,-77"/>
<text text-anchor="start" x="583" y="-65" font-family="Helvetica,sans-Serif" font-size="10.00">com.teragrep.pth_06.jooq.generated.bloomdb.tables.</text>
<text text-anchor="middle" x="713" y="-54" font-family="Helvetica,sans-Serif" font-size="10.00">Filtertype</text>
</a>
</g>
</g>
<!-- Node2 -->
<g id="Node000002" class="node">
<title>Node2</title>
<g id="a_Node000002"><a xlink:title=" ">
<polygon fill="white" stroke="#666666" points="167,-60.5 0,-60.5 0,-41.5 167,-41.5 167,-60.5"/>
<text text-anchor="middle" x="83.5" y="-48.5" font-family="Helvetica,sans-Serif" font-size="10.00">TableImpl&lt; FiltertypeRecord &gt;</text>
</a>
</g>
</g>
<!-- Node2&#45;&gt;Node1 -->
<g id="edge1_Node000001_Node000002" class="edge">
<title>Node2&#45;&gt;Node1</title>
<g id="a_edge1_Node000001_Node000002"><a xlink:title=" ">
<path fill="none" stroke="#63b8ff" d="M149.8,-61.99C167.35,-64.48 186.35,-66.75 204,-68 329.37,-76.87 472.57,-74.01 574.91,-69.72"/>
<polygon fill="#63b8ff" stroke="#63b8ff" points="150.06,-58.49 139.66,-60.51 149.04,-65.42 150.06,-58.49"/>
</a>
</g>
</g>
<!-- Node3 -->
<g id="Node000003" class="node">
<title>Node3</title>
<g id="a_Node000003"><a xlink:href="classcom_1_1teragrep_1_1pth__06_1_1jooq_1_1generated_1_1bloomdb_1_1tables_1_1Filtertype.html" target="_top" xlink:title="This class is generated by jOOQ.">
<polygon fill="white" stroke="#666666" points="480,-30 204,-30 204,0 480,0 480,-30"/>
<text text-anchor="start" x="212" y="-18" font-family="Helvetica,sans-Serif" font-size="10.00">com.teragrep.pth_06.jooq.generated.bloomdb.tables.</text>
<text text-anchor="middle" x="342" y="-7" font-family="Helvetica,sans-Serif" font-size="10.00">Filtertype</text>
</a>
</g>
</g>
<!-- Node2&#45;&gt;Node3 -->
<g id="edge3_Node000003_Node000002" class="edge">
<title>Node2&#45;&gt;Node3</title>
<g id="a_edge3_Node000003_Node000002"><a xlink:title=" ">
<path fill="none" stroke="#63b8ff" d="M162.42,-40.06C185.01,-36.89 210.08,-33.37 234.12,-30"/>
<polygon fill="#63b8ff" stroke="#63b8ff" points="161.64,-36.64 152.23,-41.49 162.62,-43.57 161.64,-36.64"/>
</a>
</g>
</g>
<!-- Node3&#45;&gt;Node1 -->
<g id="edge2_Node000001_Node000003" class="edge">
<title>Node3&#45;&gt;Node1</title>
<g id="a_edge2_Node000001_Node000003"><a xlink:title=" ">
<path fill="none" stroke="#9a32cd" stroke-dasharray="5,2" d="M470.85,-31.28C510.86,-36.38 554.8,-41.98 594.08,-46.98"/>
<polygon fill="#9a32cd" stroke="#9a32cd" points="471.13,-27.79 460.77,-30 470.25,-34.74 471.13,-27.79"/>
</a>
</g>
<text text-anchor="middle" x="527.5" y="-44" font-family="Helvetica,sans-Serif" font-size="10.00" fill="grey"> FILTERTYPE</text>
</g>
<!-- Node3&#45;&gt;Node3 -->
<g id="edge4_Node000003_Node000003" class="edge">
<title>Node3&#45;&gt;Node3</title>
<g id="a_edge4_Node000003_Node000003"><a xlink:title=" ">
<path fill="none" stroke="#9a32cd" stroke-dasharray="5,2" d="M314.69,-40.6C318.43,-44.97 327.53,-48 342,-48 366.38,-48 375.52,-39.41 369.42,-30.28"/>
<polygon fill="#9a32cd" stroke="#9a32cd" points="318.19,-40.24 314.58,-30.28 311.19,-40.31 318.19,-40.24"/>
</a>
</g>
<text text-anchor="middle" x="342" y="-51" font-family="Helvetica,sans-Serif" font-size="10.00" fill="grey"> FILTERTYPE</text>
</g>
</g>
</svg>
