<?xml version="1.0" encoding="UTF-8" standalone="no"?>
<!DOCTYPE svg PUBLIC "-//W3C//DTD SVG 1.1//EN"
 "http://www.w3.org/Graphics/SVG/1.1/DTD/svg11.dtd">
<!-- Generated by graphviz version 2.43.0 (0)
 -->
<!-- Title: com.teragrep.pth_06.jooq.generated.journaldb.tables.CorruptedArchive Pages: 1 -->
<svg width="912pt" height="85pt"
 viewBox="0.00 0.00 912.00 85.00" xmlns="http://www.w3.org/2000/svg" xmlns:xlink="http://www.w3.org/1999/xlink">
<g id="graph0" class="graph" transform="scale(1 1) rotate(0) translate(4 81)">
<title>com.teragrep.pth_06.jooq.generated.journaldb.tables.CorruptedArchive</title>
<!-- Node1 -->
<g id="Node000001" class="node">
<title>Node1</title>
<g id="a_Node000001"><a xlink:title="Contains logfiles that are both archives and detected to be corrupted.">
<polygon fill="#999999" stroke="#666666" points="904,-77 625,-77 625,-47 904,-47 904,-77"/>
<text text-anchor="start" x="633" y="-65" font-family="Helvetica,sans-Serif" font-size="10.00">com.teragrep.pth_06.jooq.generated.journaldb.tables.</text>
<text text-anchor="middle" x="764.5" y="-54" font-family="Helvetica,sans-Serif" font-size="10.00">CorruptedArchive</text>
</a>
</g>
</g>
<!-- Node2 -->
<g id="Node000002" class="node">
<title>Node2</title>
<g id="a_Node000002"><a xlink:title=" ">
<polygon fill="white" stroke="#666666" points="160,-66 0,-66 0,-36 160,-36 160,-66"/>
<text text-anchor="start" x="8" y="-54" font-family="Helvetica,sans-Serif" font-size="10.00">TableImpl&lt; CorruptedArchive</text>
<text text-anchor="middle" x="80" y="-43" font-family="Helvetica,sans-Serif" font-size="10.00">Record &gt;</text>
</a>
</g>
</g>
<!-- Node2&#45;&gt;Node1 -->
<g id="edge1_Node000001_Node000002" class="edge">
<title>Node2&#45;&gt;Node1</title>
<g id="a_edge1_Node000001_Node000002"><a xlink:title=" ">
<path fill="none" stroke="#63b8ff" d="M170.24,-65.41C179.26,-66.47 188.3,-67.37 197,-68 342.67,-78.62 509.96,-74.9 624.78,-69.9"/>
<polygon fill="#63b8ff" stroke="#63b8ff" points="170.43,-61.91 160.08,-64.16 169.57,-68.86 170.43,-61.91"/>
</a>
</g>
</g>
<!-- Node3 -->
<g id="Node000003" class="node">
<title>Node3</title>
<g id="a_Node000003"><a xlink:href="classcom_1_1teragrep_1_1pth__06_1_1jooq_1_1generated_1_1journaldb_1_1tables_1_1CorruptedArchive.html" target="_top" xlink:title="Contains logfiles that are both archives and detected to be corrupted.">
<polygon fill="white" stroke="#666666" points="476,-30 197,-30 197,0 476,0 476,-30"/>
<text text-anchor="start" x="205" y="-18" font-family="Helvetica,sans-Serif" font-size="10.00">com.teragrep.pth_06.jooq.generated.journaldb.tables.</text>
<text text-anchor="middle" x="336.5" y="-7" font-family="Helvetica,sans-Serif" font-size="10.00">CorruptedArchive</text>
</a>
</g>
</g>
<!-- Node2&#45;&gt;Node3 -->
<g id="edge3_Node000003_Node000002" class="edge">
<title>Node2&#45;&gt;Node3</title>
<g id="a_edge3_Node000003_Node000002"><a xlink:title=" ">
<path fill="none" stroke="#63b8ff" d="M170.28,-38.37C189.34,-35.67 209.66,-32.8 229.29,-30.02"/>
<polygon fill="#63b8ff" stroke="#63b8ff" points="169.54,-34.94 160.13,-39.81 170.52,-41.87 169.54,-34.94"/>
</a>
</g>
</g>
<!-- Node3&#45;&gt;Node1 -->
<g id="edge2_Node000001_Node000003" class="edge">
<title>Node3&#45;&gt;Node1</title>
<g id="a_edge2_Node000001_Node000003"><a xlink:title=" ">
<path fill="none" stroke="#9a32cd" stroke-dasharray="5,2" d="M483.63,-31.12C530.21,-36.26 581.53,-41.92 627.37,-46.98"/>
<polygon fill="#9a32cd" stroke="#9a32cd" points="483.78,-27.62 473.46,-30 483.02,-34.58 483.78,-27.62"/>
</a>
</g>
<text text-anchor="middle" x="550.5" y="-47" font-family="Helvetica,sans-Serif" font-size="10.00" fill="grey"> CORRUPTED_ARCHIVE</text>
</g>
<!-- Node3&#45;&gt;Node3 -->
<g id="edge4_Node000003_Node000003" class="edge">
<title>Node3&#45;&gt;Node3</title>
<g id="a_edge4_Node000003_Node000003"><a xlink:title=" ">
<path fill="none" stroke="#9a32cd" stroke-dasharray="5,2" d="M308.84,-40.6C312.62,-44.97 321.84,-48 336.5,-48 361.19,-48 370.45,-39.41 364.27,-30.28"/>
<polygon fill="#9a32cd" stroke="#9a32cd" points="312.34,-40.23 308.73,-30.28 305.34,-40.31 312.34,-40.23"/>
</a>
</g>
<text text-anchor="middle" x="336.5" y="-51" font-family="Helvetica,sans-Serif" font-size="10.00" fill="grey"> CORRUPTED_ARCHIVE</text>
</g>
</g>
</svg>
