<?xml version="1.0" encoding="UTF-8" standalone="no"?>
<!DOCTYPE svg PUBLIC "-//W3C//DTD SVG 1.1//EN"
 "http://www.w3.org/Graphics/SVG/1.1/DTD/svg11.dtd">
<!-- Generated by graphviz version 2.43.0 (0)
 -->
<!-- Title: com.teragrep.pth_06.task.s3.RowConverterImpl.get Pages: 1 -->
<svg width="385pt" height="86pt"
 viewBox="0.00 0.00 385.00 86.00" xmlns="http://www.w3.org/2000/svg" xmlns:xlink="http://www.w3.org/1999/xlink">
<g id="graph0" class="graph" transform="scale(1 1) rotate(0) translate(4 82)">
<title>com.teragrep.pth_06.task.s3.RowConverterImpl.get</title>
<!-- Node1 -->
<g id="Node000001" class="node">
<title>Node1</title>
<g id="a_Node000001"><a xlink:title=" ">
<polygon fill="#999999" stroke="#666666" points="159,-54 0,-54 0,-24 159,-24 159,-54"/>
<text text-anchor="start" x="8" y="-42" font-family="Helvetica,sans-Serif" font-size="10.00">com.teragrep.pth_06.task.s3.</text>
<text text-anchor="middle" x="79.5" y="-31" font-family="Helvetica,sans-Serif" font-size="10.00">RowConverterImpl.get</text>
</a>
</g>
</g>
<!-- Node2 -->
<g id="Node000002" class="node">
<title>Node2</title>
<g id="a_Node000002"><a xlink:href="classcom_1_1teragrep_1_1pth__06_1_1task_1_1s3_1_1RowConverterImpl.html#ae90453e62c4edfbe2894648d8d3b8ec2" target="_top" xlink:title=" ">
<polygon fill="white" stroke="#666666" points="375,-78 197,-78 197,-48 375,-48 375,-78"/>
<text text-anchor="start" x="205" y="-66" font-family="Helvetica,sans-Serif" font-size="10.00">com.teragrep.pth_06.task.s3.</text>
<text text-anchor="middle" x="286" y="-55" font-family="Helvetica,sans-Serif" font-size="10.00">RowConverterImpl.eventToOrigin</text>
</a>
</g>
</g>
<!-- Node1&#45;&gt;Node2 -->
<g id="edge1_Node000001_Node000002" class="edge">
<title>Node1&#45;&gt;Node2</title>
<g id="a_edge1_Node000001_Node000002"><a xlink:title=" ">
<path fill="none" stroke="#63b8ff" d="M159.27,-48.24C168.28,-49.3 177.54,-50.39 186.76,-51.47"/>
<polygon fill="#63b8ff" stroke="#63b8ff" points="186.4,-54.95 196.74,-52.64 187.21,-48 186.4,-54.95"/>
</a>
</g>
</g>
<!-- Node3 -->
<g id="Node000003" class="node">
<title>Node3</title>
<g id="a_Node000003"><a xlink:href="classcom_1_1teragrep_1_1pth__06_1_1task_1_1s3_1_1RowConverterImpl.html#a807b00de86838c2d4e9c0258bc9e98ef" target="_top" xlink:title=" ">
<polygon fill="white" stroke="#666666" points="377,-30 195,-30 195,0 377,0 377,-30"/>
<text text-anchor="start" x="203" y="-18" font-family="Helvetica,sans-Serif" font-size="10.00">com.teragrep.pth_06.task.s3.</text>
<text text-anchor="middle" x="286" y="-7" font-family="Helvetica,sans-Serif" font-size="10.00">RowConverterImpl.eventToSource</text>
</a>
</g>
</g>
<!-- Node1&#45;&gt;Node3 -->
<g id="edge2_Node000001_Node000003" class="edge">
<title>Node1&#45;&gt;Node3</title>
<g id="a_edge2_Node000001_Node000003"><a xlink:title=" ">
<path fill="none" stroke="#63b8ff" d="M159.27,-29.76C167.6,-28.78 176.15,-27.77 184.68,-26.77"/>
<polygon fill="#63b8ff" stroke="#63b8ff" points="185.15,-30.24 194.68,-25.6 184.34,-23.29 185.15,-30.24"/>
</a>
</g>
</g>
</g>
</svg>
