<?xml version="1.0" encoding="UTF-8" standalone="no"?>
<!DOCTYPE svg PUBLIC "-//W3C//DTD SVG 1.1//EN"
 "http://www.w3.org/Graphics/SVG/1.1/DTD/svg11.dtd">
<!-- Generated by graphviz version 2.43.0 (0)
 -->
<!-- Title: com.teragrep.pth_06.planner.walker.ConditionWalker.conditionRequiredTables Pages: 1 -->
<svg width="456pt" height="56pt"
 viewBox="0.00 0.00 456.00 56.00" xmlns="http://www.w3.org/2000/svg" xmlns:xlink="http://www.w3.org/1999/xlink">
<g id="graph0" class="graph" transform="scale(1 1) rotate(0) translate(4 52)">
<title>com.teragrep.pth_06.planner.walker.ConditionWalker.conditionRequiredTables</title>
<!-- Node1 -->
<g id="Node000001" class="node">
<title>Node1</title>
<g id="a_Node000001"><a xlink:title="Set of all tables needed to be joined to the query using the condition generated by this walker.">
<polygon fill="#999999" stroke="#666666" points="448,-30 230,-30 230,0 448,0 448,-30"/>
<text text-anchor="start" x="238" y="-18" font-family="Helvetica,sans-Serif" font-size="10.00">com.teragrep.pth_06.planner.walker.</text>
<text text-anchor="middle" x="339" y="-7" font-family="Helvetica,sans-Serif" font-size="10.00">ConditionWalker.conditionRequiredTables</text>
</a>
</g>
</g>
<!-- Node2 -->
<g id="Node000002" class="node">
<title>Node2</title>
<g id="a_Node000002"><a xlink:href="classcom_1_1teragrep_1_1pth__06_1_1planner_1_1walker_1_1ConditionWalker.html#aa6fc8084e12ef1dd4de77559316f46a5" target="_top" xlink:title=" ">
<polygon fill="white" stroke="#666666" points="194,-30 0,-30 0,0 194,0 194,-30"/>
<text text-anchor="start" x="8" y="-18" font-family="Helvetica,sans-Serif" font-size="10.00">com.teragrep.pth_06.planner.walker.</text>
<text text-anchor="middle" x="97" y="-7" font-family="Helvetica,sans-Serif" font-size="10.00">ConditionWalker.fromString</text>
</a>
</g>
</g>
<!-- Node1&#45;&gt;Node2 -->
<g id="edge1_Node000001_Node000002" class="edge">
<title>Node1&#45;&gt;Node2</title>
<g id="a_edge1_Node000001_Node000002"><a xlink:title=" ">
<path fill="none" stroke="#63b8ff" d="M219.83,-15C211.21,-15 202.57,-15 194.1,-15"/>
<polygon fill="#63b8ff" stroke="#63b8ff" points="219.94,-18.5 229.94,-15 219.94,-11.5 219.94,-18.5"/>
</a>
</g>
</g>
<!-- Node2&#45;&gt;Node2 -->
<g id="edge2_Node000002_Node000002" class="edge">
<title>Node2&#45;&gt;Node2</title>
<g id="a_edge2_Node000002_Node000002"><a xlink:title=" ">
<path fill="none" stroke="#63b8ff" d="M139.36,-40.6C133.57,-44.97 119.45,-48 97,-48 59.19,-48 45.01,-39.41 54.46,-30.28"/>
<polygon fill="#63b8ff" stroke="#63b8ff" points="142.86,-40.33 139.54,-30.28 135.87,-40.21 142.86,-40.33"/>
</a>
</g>
</g>
</g>
</svg>
