<?xml version="1.0" encoding="UTF-8" standalone="no"?>
<!DOCTYPE svg PUBLIC "-//W3C//DTD SVG 1.1//EN"
 "http://www.w3.org/Graphics/SVG/1.1/DTD/svg11.dtd">
<!-- Generated by graphviz version 2.43.0 (0)
 -->
<!-- Title: com.teragrep.pth_06.ConfiguredLogger.info Pages: 1 -->
<svg width="1347pt" height="805pt"
 viewBox="0.00 0.00 1347.00 805.45" xmlns="http://www.w3.org/2000/svg" xmlns:xlink="http://www.w3.org/1999/xlink">
<g id="graph0" class="graph" transform="scale(1 1) rotate(0) translate(4 801.45)">
<title>com.teragrep.pth_06.ConfiguredLogger.info</title>
<!-- Node1 -->
<g id="Node000001" class="node">
<title>Node1</title>
<g id="a_Node000001"><a xlink:title=" ">
<polygon fill="#999999" stroke="#666666" points="1339,-589.02 1166,-589.02 1166,-559.02 1339,-559.02 1339,-589.02"/>
<text text-anchor="start" x="1174" y="-577.02" font-family="Helvetica,sans-Serif" font-size="10.00">com.teragrep.pth_06.Configured</text>
<text text-anchor="middle" x="1252.5" y="-566.02" font-family="Helvetica,sans-Serif" font-size="10.00">Logger.info</text>
</a>
</g>
</g>
<!-- Node2 -->
<g id="Node000002" class="node">
<title>Node2</title>
<g id="a_Node000002"><a xlink:href="classcom_1_1teragrep_1_1pth__06_1_1planner_1_1SliceTable.html#a744def0dd9aab42426ac96e2cf62ca41" target="_top" xlink:title=" ">
<polygon fill="white" stroke="#666666" points="893,-728.02 733,-728.02 733,-698.02 893,-698.02 893,-728.02"/>
<text text-anchor="start" x="741" y="-716.02" font-family="Helvetica,sans-Serif" font-size="10.00">com.teragrep.pth_06.planner.</text>
<text text-anchor="middle" x="813" y="-705.02" font-family="Helvetica,sans-Serif" font-size="10.00">SliceTable.create</text>
</a>
</g>
</g>
<!-- Node1&#45;&gt;Node2 -->
<g id="edge1_Node000001_Node000002" class="edge">
<title>Node1&#45;&gt;Node2</title>
<g id="a_edge1_Node000001_Node000002"><a xlink:title=" ">
<path fill="none" stroke="#63b8ff" d="M1199.37,-592.38C1134.49,-615.01 1020.12,-654.11 921,-684.02 905.15,-688.8 887.88,-693.64 871.92,-697.96"/>
<polygon fill="#63b8ff" stroke="#63b8ff" points="1200.68,-595.63 1208.96,-589.03 1198.37,-589.02 1200.68,-595.63"/>
</a>
</g>
</g>
<!-- Node3 -->
<g id="Node000003" class="node">
<title>Node3</title>
<g id="a_Node000003"><a xlink:href="classcom_1_1teragrep_1_1pth__06_1_1planner_1_1StreamDBClient.html#a8adc39a87d9dc4ab7c69817e8852d955" target="_top" xlink:title=" ">
<polygon fill="white" stroke="#666666" points="650.5,-752.02 474.5,-752.02 474.5,-722.02 650.5,-722.02 650.5,-752.02"/>
<text text-anchor="start" x="482.5" y="-740.02" font-family="Helvetica,sans-Serif" font-size="10.00">com.teragrep.pth_06.planner.</text>
<text text-anchor="middle" x="562.5" y="-729.02" font-family="Helvetica,sans-Serif" font-size="10.00">StreamDBClient.StreamDBClient</text>
</a>
</g>
</g>
<!-- Node1&#45;&gt;Node3 -->
<g id="edge31_Node000001_Node000003" class="edge">
<title>Node1&#45;&gt;Node3</title>
<g id="a_edge31_Node000001_Node000003"><a xlink:title=" ">
<path fill="none" stroke="#63b8ff" d="M1235.25,-597.54C1214.07,-626.64 1174.44,-676 1130,-706.02 1047.71,-761.6 1018.69,-767.17 921,-785.02 826.56,-802.27 799.72,-800.64 705,-785.02 667.12,-778.77 625.75,-763.7 597.58,-752.1"/>
<polygon fill="#63b8ff" stroke="#63b8ff" points="1238.24,-599.38 1241.22,-589.21 1232.55,-595.3 1238.24,-599.38"/>
</a>
</g>
</g>
<!-- Node4 -->
<g id="Node000004" class="node">
<title>Node4</title>
<g id="a_Node000004"><a xlink:href="classcom_1_1teragrep_1_1pth__06_1_1planner_1_1GetArchivedObjectsFilterTable.html#ac4c8643436fd6d8bdd98f772e17843d4" target="_top" xlink:title=" ">
<polygon fill="white" stroke="#666666" points="911.5,-776.02 714.5,-776.02 714.5,-746.02 911.5,-746.02 911.5,-776.02"/>
<text text-anchor="start" x="722.5" y="-764.02" font-family="Helvetica,sans-Serif" font-size="10.00">com.teragrep.pth_06.planner.</text>
<text text-anchor="middle" x="813" y="-753.02" font-family="Helvetica,sans-Serif" font-size="10.00">GetArchivedObjectsFilterTable.create</text>
</a>
</g>
</g>
<!-- Node1&#45;&gt;Node4 -->
<g id="edge3_Node000001_Node000004" class="edge">
<title>Node1&#45;&gt;Node4</title>
<g id="a_edge3_Node000001_Node000004"><a xlink:title=" ">
<path fill="none" stroke="#63b8ff" d="M1225.24,-595.34C1201.44,-613.92 1164.86,-640.7 1130,-659.02 1042.23,-705.14 1016.04,-708.77 921,-737.02 910.14,-740.24 898.55,-743.27 887.15,-746.01"/>
<polygon fill="#63b8ff" stroke="#63b8ff" points="1227.42,-598.08 1233.1,-589.13 1223.08,-592.58 1227.42,-598.08"/>
</a>
</g>
</g>
<!-- Node5 -->
<g id="Node000005" class="node">
<title>Node5</title>
<g id="a_Node000005"><a xlink:href="classcom_1_1teragrep_1_1pth__06_1_1ConfiguredLogger.html#a432bade7d6310bed1e1b9a405fb53d56" target="_top" xlink:title=" ">
<polygon fill="white" stroke="#666666" points="1130,-450.02 957,-450.02 957,-420.02 1130,-420.02 1130,-450.02"/>
<text text-anchor="start" x="965" y="-438.02" font-family="Helvetica,sans-Serif" font-size="10.00">com.teragrep.pth_06.Configured</text>
<text text-anchor="middle" x="1043.5" y="-427.02" font-family="Helvetica,sans-Serif" font-size="10.00">Logger.debug</text>
</a>
</g>
</g>
<!-- Node1&#45;&gt;Node5 -->
<g id="edge5_Node000001_Node000005" class="edge">
<title>Node1&#45;&gt;Node5</title>
<g id="a_edge5_Node000001_Node000005"><a xlink:title=" ">
<path fill="none" stroke="#63b8ff" d="M1220.48,-553.19C1178.39,-524.92 1104.17,-475.09 1067.02,-450.14"/>
<polygon fill="#63b8ff" stroke="#63b8ff" points="1218.7,-556.21 1228.95,-558.88 1222.6,-550.39 1218.7,-556.21"/>
</a>
</g>
</g>
<!-- Node14 -->
<g id="Node000014" class="node">
<title>Node14</title>
<g id="a_Node000014"><a xlink:href="classcom_1_1teragrep_1_1pth__06_1_1planner_1_1NestedTopNQuery.html#ab9a75398ae4f26212f007ce95c24c26f" target="_top" xlink:title=" ">
<polygon fill="white" stroke="#666666" points="912,-64.02 714,-64.02 714,-34.02 912,-34.02 912,-64.02"/>
<text text-anchor="start" x="722" y="-52.02" font-family="Helvetica,sans-Serif" font-size="10.00">com.teragrep.pth_06.planner.</text>
<text text-anchor="middle" x="813" y="-41.02" font-family="Helvetica,sans-Serif" font-size="10.00">NestedTopNQuery.getTableStatement</text>
</a>
</g>
</g>
<!-- Node1&#45;&gt;Node14 -->
<g id="edge29_Node000001_Node000014" class="edge">
<title>Node1&#45;&gt;Node14</title>
<g id="a_edge29_Node000001_Node000014"><a xlink:title=" ">
<path fill="none" stroke="#63b8ff" d="M1242.89,-549.16C1212.98,-466.69 1105.21,-200.17 921,-73.02 915.99,-69.55 910.55,-66.58 904.89,-64.04"/>
<polygon fill="#63b8ff" stroke="#63b8ff" points="1239.64,-550.46 1246.3,-558.7 1246.23,-548.11 1239.64,-550.46"/>
</a>
</g>
</g>
<!-- Node15 -->
<g id="Node000015" class="node">
<title>Node15</title>
<g id="a_Node000015"><a xlink:href="classcom_1_1teragrep_1_1pth__06_1_1planner_1_1StreamDBClient.html#adbe4b13c48e67d8d82ae4ed9ee93f7df" target="_top" xlink:title=" ">
<polygon fill="white" stroke="#666666" points="650,-64.02 475,-64.02 475,-34.02 650,-34.02 650,-64.02"/>
<text text-anchor="start" x="483" y="-52.02" font-family="Helvetica,sans-Serif" font-size="10.00">com.teragrep.pth_06.planner.</text>
<text text-anchor="middle" x="562.5" y="-41.02" font-family="Helvetica,sans-Serif" font-size="10.00">StreamDBClient.pullToSliceTable</text>
</a>
</g>
</g>
<!-- Node1&#45;&gt;Node15 -->
<g id="edge30_Node000001_Node000015" class="edge">
<title>Node1&#45;&gt;Node15</title>
<g id="a_edge30_Node000001_Node000015"><a xlink:title=" ">
<path fill="none" stroke="#63b8ff" d="M1248.25,-548.93C1236.34,-460.68 1192.54,-166.19 1130,-98.02 996.86,47.11 727.2,-4.2 614.65,-33.92"/>
<polygon fill="#63b8ff" stroke="#63b8ff" points="1244.78,-549.41 1249.57,-558.86 1251.72,-548.49 1244.78,-549.41"/>
</a>
</g>
</g>
<!-- Node2&#45;&gt;Node3 -->
<g id="edge2_Node000002_Node000003" class="edge">
<title>Node2&#45;&gt;Node3</title>
<g id="a_edge2_Node000002_Node000003"><a xlink:title=" ">
<path fill="none" stroke="#63b8ff" d="M722.44,-721.66C699.07,-723.92 673.91,-726.35 650.66,-728.6"/>
<polygon fill="#63b8ff" stroke="#63b8ff" points="723.07,-725.12 732.69,-720.68 722.4,-718.15 723.07,-725.12"/>
</a>
</g>
</g>
<!-- Node4&#45;&gt;Node3 -->
<g id="edge4_Node000004_Node000003" class="edge">
<title>Node4&#45;&gt;Node3</title>
<g id="a_edge4_Node000004_Node000003"><a xlink:title=" ">
<path fill="none" stroke="#63b8ff" d="M704.3,-750.61C686.37,-748.88 667.96,-747.1 650.62,-745.43"/>
<polygon fill="#63b8ff" stroke="#63b8ff" points="704.21,-754.12 714.5,-751.6 704.88,-747.15 704.21,-754.12"/>
</a>
</g>
</g>
<!-- Node5&#45;&gt;Node2 -->
<g id="edge8_Node000005_Node000002" class="edge">
<title>Node5&#45;&gt;Node2</title>
<g id="a_edge8_Node000005_Node000002"><a xlink:title=" ">
<path fill="none" stroke="#63b8ff" d="M1031.91,-459.56C1005.96,-519.27 939.93,-668.37 921,-684.02 912.84,-690.76 903.25,-695.94 893.22,-699.93"/>
<polygon fill="#63b8ff" stroke="#63b8ff" points="1035.23,-460.71 1035.99,-450.14 1028.81,-457.92 1035.23,-460.71"/>
</a>
</g>
</g>
<!-- Node5&#45;&gt;Node3 -->
<g id="edge28_Node000005_Node000003" class="edge">
<title>Node5&#45;&gt;Node3</title>
<g id="a_edge28_Node000005_Node000003"><a xlink:title=" ">
<path fill="none" stroke="#63b8ff" d="M1031.9,-459.61C1009.33,-510.87 955.73,-626.42 921,-651.02 841.46,-707.36 799.43,-664.84 705,-689.02 669.82,-698.02 630.8,-711.53 602.66,-721.93"/>
<polygon fill="#63b8ff" stroke="#63b8ff" points="1035.19,-460.82 1035.99,-450.26 1028.78,-458.02 1035.19,-460.82"/>
</a>
</g>
</g>
<!-- Node5&#45;&gt;Node4 -->
<g id="edge9_Node000005_Node000004" class="edge">
<title>Node5&#45;&gt;Node4</title>
<g id="a_edge9_Node000005_Node000004"><a xlink:title=" ">
<path fill="none" stroke="#63b8ff" d="M1040.12,-460.21C1033.22,-518.49 1007.77,-663.26 921,-737.02 917.01,-740.41 912.64,-743.35 908.03,-745.89"/>
<polygon fill="#63b8ff" stroke="#63b8ff" points="1043.63,-460.38 1041.24,-450.06 1036.67,-459.62 1043.63,-460.38"/>
</a>
</g>
</g>
<!-- Node6 -->
<g id="Node000006" class="node">
<title>Node6</title>
<g id="a_Node000006"><a xlink:href="classcom_1_1teragrep_1_1pth__06_1_1planner_1_1StreamDBClient.html#af7f3f116b02dd6c60f7afad4ea26f746" target="_top" xlink:title=" ">
<polygon fill="white" stroke="#666666" points="893,-546.02 733,-546.02 733,-516.02 893,-516.02 893,-546.02"/>
<text text-anchor="start" x="741" y="-534.02" font-family="Helvetica,sans-Serif" font-size="10.00">com.teragrep.pth_06.planner.</text>
<text text-anchor="middle" x="813" y="-523.02" font-family="Helvetica,sans-Serif" font-size="10.00">StreamDBClient.close</text>
</a>
</g>
</g>
<!-- Node5&#45;&gt;Node6 -->
<g id="edge6_Node000005_Node000006" class="edge">
<title>Node5&#45;&gt;Node6</title>
<g id="a_edge6_Node000005_Node000006"><a xlink:title=" ">
<path fill="none" stroke="#63b8ff" d="M1013.06,-456.06C989.26,-472.16 954.34,-493.78 921,-507.02 912.15,-510.53 902.68,-513.58 893.16,-516.23"/>
<polygon fill="#63b8ff" stroke="#63b8ff" points="1015.35,-458.73 1021.61,-450.18 1011.39,-452.96 1015.35,-458.73"/>
</a>
</g>
</g>
<!-- Node7 -->
<g id="Node000007" class="node">
<title>Node7</title>
<g id="a_Node000007"><a xlink:href="classcom_1_1teragrep_1_1pth__06_1_1ArchiveMicroStreamReader.html#a0ba49415b3c82882789a4c9e9f58f472" target="_top" xlink:title=" ">
<polygon fill="white" stroke="#666666" points="892,-498.02 734,-498.02 734,-468.02 892,-468.02 892,-498.02"/>
<text text-anchor="start" x="742" y="-486.02" font-family="Helvetica,sans-Serif" font-size="10.00">com.teragrep.pth_06.Archive</text>
<text text-anchor="middle" x="813" y="-475.02" font-family="Helvetica,sans-Serif" font-size="10.00">MicroStreamReader.commit</text>
</a>
</g>
</g>
<!-- Node5&#45;&gt;Node7 -->
<g id="edge7_Node000005_Node000007" class="edge">
<title>Node5&#45;&gt;Node7</title>
<g id="a_edge7_Node000005_Node000007"><a xlink:title=" ">
<path fill="none" stroke="#63b8ff" d="M960.79,-452.18C936.16,-457.35 909.32,-462.99 885.42,-468.01"/>
<polygon fill="#63b8ff" stroke="#63b8ff" points="961.76,-455.55 970.83,-450.07 960.32,-448.7 961.76,-455.55"/>
</a>
</g>
</g>
<!-- Node8 -->
<g id="Node000008" class="node">
<title>Node8</title>
<g id="a_Node000008"><a xlink:href="classcom_1_1teragrep_1_1pth__06_1_1ArchiveMicroStreamReader.html#a62416fc430035444b01b4608b40546ac" target="_top" xlink:title=" ">
<polygon fill="white" stroke="#666666" points="921,-402.02 705,-402.02 705,-372.02 921,-372.02 921,-402.02"/>
<text text-anchor="start" x="713" y="-390.02" font-family="Helvetica,sans-Serif" font-size="10.00">com.teragrep.pth_06.Archive</text>
<text text-anchor="middle" x="813" y="-379.02" font-family="Helvetica,sans-Serif" font-size="10.00">MicroStreamReader.createReaderFactory</text>
</a>
</g>
</g>
<!-- Node5&#45;&gt;Node8 -->
<g id="edge10_Node000005_Node000008" class="edge">
<title>Node5&#45;&gt;Node8</title>
<g id="a_edge10_Node000005_Node000008"><a xlink:title=" ">
<path fill="none" stroke="#63b8ff" d="M960.79,-417.85C936.16,-412.68 909.32,-407.04 885.42,-402.02"/>
<polygon fill="#63b8ff" stroke="#63b8ff" points="960.32,-421.33 970.83,-419.96 961.76,-414.48 960.32,-421.33"/>
</a>
</g>
</g>
<!-- Node9 -->
<g id="Node000009" class="node">
<title>Node9</title>
<g id="a_Node000009"><a xlink:href="classcom_1_1teragrep_1_1pth__06_1_1ArchiveMicroStreamReader.html#a411ca28ffc87898fce4bc8e77cdc0ee3" target="_top" xlink:title=" ">
<polygon fill="white" stroke="#666666" points="911.5,-353.52 714.5,-353.52 714.5,-312.52 911.5,-312.52 911.5,-353.52"/>
<text text-anchor="start" x="722.5" y="-341.52" font-family="Helvetica,sans-Serif" font-size="10.00">com.teragrep.pth_06.Archive</text>
<text text-anchor="start" x="722.5" y="-330.52" font-family="Helvetica,sans-Serif" font-size="10.00">MicroStreamReader.currentDatabase</text>
<text text-anchor="middle" x="813" y="-319.52" font-family="Helvetica,sans-Serif" font-size="10.00">Metrics</text>
</a>
</g>
</g>
<!-- Node5&#45;&gt;Node9 -->
<g id="edge11_Node000005_Node000009" class="edge">
<title>Node5&#45;&gt;Node9</title>
<g id="a_edge11_Node000005_Node000009"><a xlink:title=" ">
<path fill="none" stroke="#63b8ff" d="M1012.43,-414.17C988.53,-398.36 953.78,-377.04 921,-363.02 913.02,-359.6 904.54,-356.46 895.98,-353.6"/>
<polygon fill="#63b8ff" stroke="#63b8ff" points="1010.77,-417.27 1021.03,-419.93 1014.67,-411.46 1010.77,-417.27"/>
</a>
</g>
</g>
<!-- Node11 -->
<g id="Node000011" class="node">
<title>Node11</title>
<g id="a_Node000011"><a xlink:href="classcom_1_1teragrep_1_1pth__06_1_1planner_1_1StreamDBClient.html#a94bfcc395eb96d3c4ed2363f7cea991d" target="_top" xlink:title=" ">
<polygon fill="white" stroke="#666666" points="920.5,-450.02 705.5,-450.02 705.5,-420.02 920.5,-420.02 920.5,-450.02"/>
<text text-anchor="start" x="713.5" y="-438.02" font-family="Helvetica,sans-Serif" font-size="10.00">com.teragrep.pth_06.planner.</text>
<text text-anchor="middle" x="813" y="-427.02" font-family="Helvetica,sans-Serif" font-size="10.00">StreamDBClient.currentDatabaseMetrics</text>
</a>
</g>
</g>
<!-- Node5&#45;&gt;Node11 -->
<g id="edge13_Node000005_Node000011" class="edge">
<title>Node5&#45;&gt;Node11</title>
<g id="a_edge13_Node000005_Node000011"><a xlink:title=" ">
<path fill="none" stroke="#63b8ff" d="M946.74,-435.02C938.13,-435.02 929.38,-435.02 920.68,-435.02"/>
<polygon fill="#63b8ff" stroke="#63b8ff" points="946.76,-438.52 956.76,-435.02 946.76,-431.52 946.76,-438.52"/>
</a>
</g>
</g>
<!-- Node13 -->
<g id="Node000013" class="node">
<title>Node13</title>
<g id="a_Node000013"><a xlink:href="classcom_1_1teragrep_1_1pth__06_1_1ArchiveMicroStreamReader.html#a642bbe56ee51994eb354fbf6b058aa07" target="_top" xlink:title=" ">
<polygon fill="white" stroke="#666666" points="912,-294.02 714,-294.02 714,-264.02 912,-264.02 912,-294.02"/>
<text text-anchor="start" x="722" y="-282.02" font-family="Helvetica,sans-Serif" font-size="10.00">com.teragrep.pth_06.Archive</text>
<text text-anchor="middle" x="813" y="-271.02" font-family="Helvetica,sans-Serif" font-size="10.00">MicroStreamReader.deserializeOffset</text>
</a>
</g>
</g>
<!-- Node5&#45;&gt;Node13 -->
<g id="edge15_Node000005_Node000013" class="edge">
<title>Node5&#45;&gt;Node13</title>
<g id="a_edge15_Node000005_Node000013"><a xlink:title=" ">
<path fill="none" stroke="#63b8ff" d="M1027.13,-411.18C1006.62,-381.37 967.43,-330.99 921,-304.02 914.32,-300.13 907.07,-296.86 899.61,-294.09"/>
<polygon fill="#63b8ff" stroke="#63b8ff" points="1024.4,-413.39 1032.89,-419.72 1030.2,-409.47 1024.4,-413.39"/>
</a>
</g>
</g>
<!-- Node5&#45;&gt;Node14 -->
<g id="edge16_Node000005_Node000014" class="edge">
<title>Node5&#45;&gt;Node14</title>
<g id="a_edge16_Node000005_Node000014"><a xlink:title=" ">
<path fill="none" stroke="#63b8ff" d="M1030.42,-410.66C1012.34,-373.4 978.1,-299.63 957,-234.02 934.56,-164.21 972.83,-124.88 921,-73.02 917.64,-69.65 913.91,-66.71 909.92,-64.15"/>
<polygon fill="#63b8ff" stroke="#63b8ff" points="1027.33,-412.3 1034.86,-419.75 1033.61,-409.22 1027.33,-412.3"/>
</a>
</g>
</g>
<!-- Node5&#45;&gt;Node15 -->
<g id="edge26_Node000005_Node000015" class="edge">
<title>Node5&#45;&gt;Node15</title>
<g id="a_edge26_Node000005_Node000015"><a xlink:title=" ">
<path fill="none" stroke="#63b8ff" d="M1036.85,-409.9C1024.67,-362.03 991.2,-257.95 921,-207.02 842.1,-149.77 793.24,-210.42 705,-169.02 649.89,-143.15 599.03,-90.07 576.18,-64.06"/>
<polygon fill="#63b8ff" stroke="#63b8ff" points="1033.48,-410.87 1039.25,-419.75 1040.28,-409.21 1033.48,-410.87"/>
</a>
</g>
</g>
<!-- Node18 -->
<g id="Node000018" class="node">
<title>Node18</title>
<g id="a_Node000018"><a xlink:href="classcom_1_1teragrep_1_1pth__06_1_1ArchiveMicroStreamReader.html#ac732dee6220acab0c21d55c0ea40255b" target="_top" xlink:title="Used when Spark requests the initial offset when starting a new query.">
<polygon fill="white" stroke="#666666" points="899.5,-160.02 726.5,-160.02 726.5,-130.02 899.5,-130.02 899.5,-160.02"/>
<text text-anchor="start" x="734.5" y="-148.02" font-family="Helvetica,sans-Serif" font-size="10.00">com.teragrep.pth_06.Archive</text>
<text text-anchor="middle" x="813" y="-137.02" font-family="Helvetica,sans-Serif" font-size="10.00">MicroStreamReader.initialOffset</text>
</a>
</g>
</g>
<!-- Node5&#45;&gt;Node18 -->
<g id="edge21_Node000005_Node000018" class="edge">
<title>Node5&#45;&gt;Node18</title>
<g id="a_edge21_Node000005_Node000018"><a xlink:title=" ">
<path fill="none" stroke="#63b8ff" d="M1032.5,-410.53C1007.08,-348.81 940.65,-190.56 921,-174.02 914.23,-168.31 906.43,-163.72 898.21,-160.03"/>
<polygon fill="#63b8ff" stroke="#63b8ff" points="1029.31,-411.98 1036.34,-419.9 1035.78,-409.32 1029.31,-411.98"/>
</a>
</g>
</g>
<!-- Node19 -->
<g id="Node000019" class="node">
<title>Node19</title>
<g id="a_Node000019"><a xlink:href="classcom_1_1teragrep_1_1pth__06_1_1ArchiveMicroStreamReader.html#ae820a68e1ec38574202423e1b649e9cc" target="_top" xlink:title="Used when Spark progresses the query further to fetch more data.">
<polygon fill="white" stroke="#666666" points="899.5,-112.02 726.5,-112.02 726.5,-82.02 899.5,-82.02 899.5,-112.02"/>
<text text-anchor="start" x="734.5" y="-100.02" font-family="Helvetica,sans-Serif" font-size="10.00">com.teragrep.pth_06.Archive</text>
<text text-anchor="middle" x="813" y="-89.02" font-family="Helvetica,sans-Serif" font-size="10.00">MicroStreamReader.latestOffset</text>
</a>
</g>
</g>
<!-- Node5&#45;&gt;Node19 -->
<g id="edge22_Node000005_Node000019" class="edge">
<title>Node5&#45;&gt;Node19</title>
<g id="a_edge22_Node000005_Node000019"><a xlink:title=" ">
<path fill="none" stroke="#63b8ff" d="M1031.28,-410.69C1014.17,-373.19 981.04,-298.8 957,-234.02 938.66,-184.6 959.87,-156.62 921,-121.02 914.75,-115.29 907.44,-110.84 899.63,-107.38"/>
<polygon fill="#63b8ff" stroke="#63b8ff" points="1028.12,-412.2 1035.46,-419.83 1034.48,-409.28 1028.12,-412.2"/>
</a>
</g>
</g>
<!-- Node20 -->
<g id="Node000020" class="node">
<title>Node20</title>
<g id="a_Node000020"><a xlink:href="classcom_1_1teragrep_1_1pth__06_1_1ArchiveMicroStreamReader.html#a36e4e32119c7727123f0afffcbb27780" target="_top" xlink:title=" ">
<polygon fill="white" stroke="#666666" points="914.5,-246.02 711.5,-246.02 711.5,-216.02 914.5,-216.02 914.5,-246.02"/>
<text text-anchor="start" x="719.5" y="-234.02" font-family="Helvetica,sans-Serif" font-size="10.00">com.teragrep.pth_06.Archive</text>
<text text-anchor="middle" x="813" y="-223.02" font-family="Helvetica,sans-Serif" font-size="10.00">MicroStreamReader.mostRecentOffset</text>
</a>
</g>
</g>
<!-- Node5&#45;&gt;Node20 -->
<g id="edge23_Node000005_Node000020" class="edge">
<title>Node5&#45;&gt;Node20</title>
<g id="a_edge23_Node000005_Node000020"><a xlink:title=" ">
<path fill="none" stroke="#63b8ff" d="M1033.04,-410.46C1016.56,-371.13 978.73,-294.41 921,-255.02 915.97,-251.58 910.52,-248.63 904.84,-246.1"/>
<polygon fill="#63b8ff" stroke="#63b8ff" points="1029.84,-411.9 1036.86,-419.84 1036.33,-409.26 1029.84,-411.9"/>
</a>
</g>
</g>
<!-- Node21 -->
<g id="Node000021" class="node">
<title>Node21</title>
<g id="a_Node000021"><a xlink:href="classcom_1_1teragrep_1_1pth__06_1_1ArchiveMicroStreamReader.html#a38ac5d363a8989ca4a38286eed2d5a1d" target="_top" xlink:title="Forms the batch between start and end offsets and forms the input partitions from that batch.">
<polygon fill="white" stroke="#666666" points="916.5,-642.02 709.5,-642.02 709.5,-612.02 916.5,-612.02 916.5,-642.02"/>
<text text-anchor="start" x="717.5" y="-630.02" font-family="Helvetica,sans-Serif" font-size="10.00">com.teragrep.pth_06.Archive</text>
<text text-anchor="middle" x="813" y="-619.02" font-family="Helvetica,sans-Serif" font-size="10.00">MicroStreamReader.planInputPartitions</text>
</a>
</g>
</g>
<!-- Node5&#45;&gt;Node21 -->
<g id="edge25_Node000005_Node000021" class="edge">
<title>Node5&#45;&gt;Node21</title>
<g id="a_edge25_Node000005_Node000021"><a xlink:title=" ">
<path fill="none" stroke="#63b8ff" d="M1031.95,-459.28C1014.51,-496.39 976.04,-566.74 921,-603.02 915.75,-606.47 910.08,-609.44 904.18,-611.98"/>
<polygon fill="#63b8ff" stroke="#63b8ff" points="1035.14,-460.73 1036.12,-450.18 1028.77,-457.81 1035.14,-460.73"/>
</a>
</g>
</g>
<!-- Node22 -->
<g id="Node000022" class="node">
<title>Node22</title>
<g id="a_Node000022"><a xlink:href="classcom_1_1teragrep_1_1pth__06_1_1ArchiveMicroStreamReader.html#ae37054d435fbdccc794afc19cd1a95da" target="_top" xlink:title=" ">
<polygon fill="white" stroke="#666666" points="892,-594.02 734,-594.02 734,-564.02 892,-564.02 892,-594.02"/>
<text text-anchor="start" x="742" y="-582.02" font-family="Helvetica,sans-Serif" font-size="10.00">com.teragrep.pth_06.Archive</text>
<text text-anchor="middle" x="813" y="-571.02" font-family="Helvetica,sans-Serif" font-size="10.00">MicroStreamReader.stop</text>
</a>
</g>
</g>
<!-- Node5&#45;&gt;Node22 -->
<g id="edge27_Node000005_Node000022" class="edge">
<title>Node5&#45;&gt;Node22</title>
<g id="a_edge27_Node000005_Node000022"><a xlink:title=" ">
<path fill="none" stroke="#63b8ff" d="M1025.42,-458.54C1004.13,-486.06 965.14,-530.91 921,-555.02 912.06,-559.9 902.19,-563.79 892.15,-566.89"/>
<polygon fill="#63b8ff" stroke="#63b8ff" points="1028.44,-460.35 1031.69,-450.26 1022.86,-456.12 1028.44,-460.35"/>
</a>
</g>
</g>
<!-- Node10 -->
<g id="Node000010" class="node">
<title>Node10</title>
<g id="a_Node000010"><a xlink:href="classcom_1_1teragrep_1_1pth__06_1_1TeragrepScan.html#a602d40fbaa787d342efce68249ab6ea1" target="_top" xlink:title=" ">
<polygon fill="white" stroke="#666666" points="644,-297.02 481,-297.02 481,-267.02 644,-267.02 644,-297.02"/>
<text text-anchor="start" x="489" y="-285.02" font-family="Helvetica,sans-Serif" font-size="10.00">com.teragrep.pth_06.Teragrep</text>
<text text-anchor="middle" x="562.5" y="-274.02" font-family="Helvetica,sans-Serif" font-size="10.00">Scan.reportDriverMetrics</text>
</a>
</g>
</g>
<!-- Node9&#45;&gt;Node10 -->
<g id="edge12_Node000009_Node000010" class="edge">
<title>Node9&#45;&gt;Node10</title>
<g id="a_edge12_Node000009_Node000010"><a xlink:title=" ">
<path fill="none" stroke="#63b8ff" d="M704.44,-310.94C681.64,-306.26 658.08,-301.43 636.89,-297.08"/>
<polygon fill="#63b8ff" stroke="#63b8ff" points="704,-314.42 714.5,-313.01 705.41,-307.57 704,-314.42"/>
</a>
</g>
</g>
<!-- Node12 -->
<g id="Node000012" class="node">
<title>Node12</title>
<g id="a_Node000012"><a xlink:href="classcom_1_1teragrep_1_1pth__06_1_1planner_1_1ArchiveQueryProcessor.html#aa8d90622d53c4fd90e5dadb0e6dec340" target="_top" xlink:title=" ">
<polygon fill="white" stroke="#666666" points="669,-455.52 456,-455.52 456,-414.52 669,-414.52 669,-455.52"/>
<text text-anchor="start" x="464" y="-443.52" font-family="Helvetica,sans-Serif" font-size="10.00">com.teragrep.pth_06.planner.</text>
<text text-anchor="start" x="464" y="-432.52" font-family="Helvetica,sans-Serif" font-size="10.00">ArchiveQueryProcessor.currentDatabase</text>
<text text-anchor="middle" x="562.5" y="-421.52" font-family="Helvetica,sans-Serif" font-size="10.00">Metrics</text>
</a>
</g>
</g>
<!-- Node11&#45;&gt;Node12 -->
<g id="edge14_Node000011_Node000012" class="edge">
<title>Node11&#45;&gt;Node12</title>
<g id="a_edge14_Node000011_Node000012"><a xlink:title=" ">
<path fill="none" stroke="#63b8ff" d="M695.03,-435.02C686.36,-435.02 677.65,-435.02 669.06,-435.02"/>
<polygon fill="#63b8ff" stroke="#63b8ff" points="695.17,-438.52 705.17,-435.02 695.17,-431.52 695.17,-438.52"/>
</a>
</g>
</g>
<!-- Node14&#45;&gt;Node15 -->
<g id="edge17_Node000014_Node000015" class="edge">
<title>Node14&#45;&gt;Node15</title>
<g id="a_edge17_Node000014_Node000015"><a xlink:title=" ">
<path fill="none" stroke="#63b8ff" d="M703.36,-49.02C685.56,-49.02 667.32,-49.02 650.14,-49.02"/>
<polygon fill="#63b8ff" stroke="#63b8ff" points="703.79,-52.52 713.79,-49.02 703.79,-45.52 703.79,-52.52"/>
</a>
</g>
</g>
<!-- Node16 -->
<g id="Node000016" class="node">
<title>Node16</title>
<g id="a_Node000016"><a xlink:href="classcom_1_1teragrep_1_1pth__06_1_1planner_1_1ArchiveQueryProcessor.html#a646c09c6ba9331c48df86960f4fa8bcb" target="_top" xlink:title="Increments the latest offset value and returns that incremented offset.">
<polygon fill="white" stroke="#666666" points="182,-69.52 0,-69.52 0,-28.52 182,-28.52 182,-69.52"/>
<text text-anchor="start" x="8" y="-57.52" font-family="Helvetica,sans-Serif" font-size="10.00">com.teragrep.pth_06.planner.</text>
<text text-anchor="start" x="8" y="-46.52" font-family="Helvetica,sans-Serif" font-size="10.00">ArchiveQueryProcessor.increment</text>
<text text-anchor="middle" x="91" y="-35.52" font-family="Helvetica,sans-Serif" font-size="10.00">AndGetLatestOffset</text>
</a>
</g>
</g>
<!-- Node15&#45;&gt;Node16 -->
<g id="edge18_Node000015_Node000016" class="edge">
<title>Node15&#45;&gt;Node16</title>
<g id="a_edge18_Node000015_Node000016"><a xlink:title=" ">
<path fill="none" stroke="#63b8ff" d="M464.45,-51.34C449.57,-51.62 434.37,-51.86 420,-52.02 330.23,-52.97 307.77,-53.08 218,-52.02 206.4,-51.88 194.21,-51.67 182.16,-51.42"/>
<polygon fill="#63b8ff" stroke="#63b8ff" points="464.77,-54.84 474.7,-51.15 464.63,-47.84 464.77,-54.84"/>
</a>
</g>
</g>
<!-- Node17 -->
<g id="Node000017" class="node">
<title>Node17</title>
<g id="a_Node000017"><a xlink:href="classcom_1_1teragrep_1_1pth__06_1_1planner_1_1ArchiveQueryProcessor.html#a3e2e817526f72a254cd6358389a5b7f2" target="_top" xlink:title="Increment the rolling day and pull data for that day into the sliceTable.">
<polygon fill="white" stroke="#666666" points="420,-43.02 218,-43.02 218,-13.02 420,-13.02 420,-43.02"/>
<text text-anchor="start" x="226" y="-31.02" font-family="Helvetica,sans-Serif" font-size="10.00">com.teragrep.pth_06.planner.</text>
<text text-anchor="middle" x="319" y="-20.02" font-family="Helvetica,sans-Serif" font-size="10.00">ArchiveQueryProcessor.seekToResults</text>
</a>
</g>
</g>
<!-- Node15&#45;&gt;Node17 -->
<g id="edge19_Node000015_Node000017" class="edge">
<title>Node15&#45;&gt;Node17</title>
<g id="a_edge19_Node000015_Node000017"><a xlink:title=" ">
<path fill="none" stroke="#63b8ff" d="M464.92,-40.62C450.24,-39.34 435.05,-38.02 420.29,-36.74"/>
<polygon fill="#63b8ff" stroke="#63b8ff" points="464.73,-44.11 475,-41.49 465.34,-37.14 464.73,-44.11"/>
</a>
</g>
</g>
<!-- Node17&#45;&gt;Node16 -->
<g id="edge20_Node000017_Node000016" class="edge">
<title>Node17&#45;&gt;Node16</title>
<g id="a_edge20_Node000017_Node000016"><a xlink:title=" ">
<path fill="none" stroke="#63b8ff" d="M207.79,-38.26C199.17,-39.06 190.53,-39.86 182.07,-40.65"/>
<polygon fill="#63b8ff" stroke="#63b8ff" points="208.25,-41.73 217.89,-37.32 207.61,-34.76 208.25,-41.73"/>
</a>
</g>
</g>
<!-- Node20&#45;&gt;Node10 -->
<g id="edge24_Node000020_Node000010" class="edge">
<title>Node20&#45;&gt;Node10</title>
<g id="a_edge24_Node000020_Node000010"><a xlink:title=" ">
<path fill="none" stroke="#63b8ff" d="M728.81,-248.09C698.96,-254.21 665.55,-261.07 636.62,-267.01"/>
<polygon fill="#63b8ff" stroke="#63b8ff" points="729.69,-251.48 738.79,-246.04 728.29,-244.62 729.69,-251.48"/>
</a>
</g>
</g>
</g>
</svg>
