<?xml version="1.0" encoding="UTF-8" standalone="no"?>
<!DOCTYPE svg PUBLIC "-//W3C//DTD SVG 1.1//EN"
 "http://www.w3.org/Graphics/SVG/1.1/DTD/svg11.dtd">
<!-- Generated by graphviz version 2.43.0 (0)
 -->
<!-- Title: com.teragrep.pth_06.planner.walker.ConditionWalker Pages: 1 -->
<svg width="511pt" height="86pt"
 viewBox="0.00 0.00 511.00 86.00" xmlns="http://www.w3.org/2000/svg" xmlns:xlink="http://www.w3.org/1999/xlink">
<g id="graph0" class="graph" transform="scale(1 1) rotate(0) translate(4 82)">
<title>com.teragrep.pth_06.planner.walker.ConditionWalker</title>
<!-- Node1 -->
<g id="Node000001" class="node">
<title>Node1</title>
<g id="a_Node000001"><a xlink:title=" ">
<polygon fill="#999999" stroke="#666666" points="503,-54 309,-54 309,-24 503,-24 503,-54"/>
<text text-anchor="start" x="317" y="-42" font-family="Helvetica,sans-Serif" font-size="10.00">com.teragrep.pth_06.planner.walker.</text>
<text text-anchor="middle" x="406" y="-31" font-family="Helvetica,sans-Serif" font-size="10.00">ConditionWalker</text>
</a>
</g>
</g>
<!-- Node2 -->
<g id="Node000002" class="node">
<title>Node2</title>
<g id="a_Node000002"><a xlink:href="classcom_1_1teragrep_1_1pth__06_1_1planner_1_1walker_1_1XmlWalker.html" target="_top" xlink:title=" ">
<polygon fill="white" stroke="#666666" points="194,-78 0,-78 0,-48 194,-48 194,-78"/>
<text text-anchor="start" x="8" y="-66" font-family="Helvetica,sans-Serif" font-size="10.00">com.teragrep.pth_06.planner.walker.</text>
<text text-anchor="middle" x="97" y="-55" font-family="Helvetica,sans-Serif" font-size="10.00">XmlWalker&lt; Condition &gt;</text>
</a>
</g>
</g>
<!-- Node2&#45;&gt;Node1 -->
<g id="edge1_Node000001_Node000002" class="edge">
<title>Node2&#45;&gt;Node1</title>
<g id="a_edge1_Node000001_Node000002"><a xlink:title=" ">
<path fill="none" stroke="#63b8ff" d="M204.68,-54.66C238.52,-52.01 275.72,-49.11 308.78,-46.52"/>
<polygon fill="#63b8ff" stroke="#63b8ff" points="203.99,-51.2 194.29,-55.47 204.54,-58.18 203.99,-51.2"/>
</a>
</g>
</g>
<!-- Node3 -->
<g id="Node000003" class="node">
<title>Node3</title>
<g id="a_Node000003"><a xlink:href="interfacecom_1_1teragrep_1_1pth__06_1_1planner_1_1walker_1_1FilterlessSearch.html" target="_top" xlink:title=" ">
<polygon fill="white" stroke="#666666" points="194,-30 0,-30 0,0 194,0 194,-30"/>
<text text-anchor="start" x="8" y="-18" font-family="Helvetica,sans-Serif" font-size="10.00">com.teragrep.pth_06.planner.walker.</text>
<text text-anchor="middle" x="97" y="-7" font-family="Helvetica,sans-Serif" font-size="10.00">FilterlessSearch</text>
</a>
</g>
</g>
<!-- Node3&#45;&gt;Node1 -->
<g id="edge2_Node000001_Node000003" class="edge">
<title>Node3&#45;&gt;Node1</title>
<g id="a_edge2_Node000001_Node000003"><a xlink:title=" ">
<path fill="none" stroke="#9a32cd" stroke-dasharray="5,2" d="M204.68,-23.34C238.52,-25.99 275.72,-28.89 308.78,-31.48"/>
<polygon fill="#9a32cd" stroke="#9a32cd" points="204.54,-19.82 194.29,-22.53 203.99,-26.8 204.54,-19.82"/>
</a>
</g>
<text text-anchor="middle" x="251.5" y="-32" font-family="Helvetica,sans-Serif" font-size="10.00" fill="grey"> filterlessSearch</text>
</g>
</g>
</svg>
