<?xml version="1.0" encoding="UTF-8" standalone="no"?>
<!DOCTYPE svg PUBLIC "-//W3C//DTD SVG 1.1//EN"
 "http://www.w3.org/Graphics/SVG/1.1/DTD/svg11.dtd">
<!-- Generated by graphviz version 2.43.0 (0)
 -->
<!-- Title: com.teragrep.pth_06.planner.bloomfilter.ConditionMatchBloomDBTablesTest.testSingleMatch Pages: 1 -->
<svg width="530pt" height="56pt"
 viewBox="0.00 0.00 530.00 56.00" xmlns="http://www.w3.org/2000/svg" xmlns:xlink="http://www.w3.org/1999/xlink">
<g id="graph0" class="graph" transform="scale(1 1) rotate(0) translate(4 52)">
<title>com.teragrep.pth_06.planner.bloomfilter.ConditionMatchBloomDBTablesTest.testSingleMatch</title>
<!-- Node1 -->
<g id="Node000001" class="node">
<title>Node1</title>
<g id="a_Node000001"><a xlink:title=" ">
<polygon fill="#999999" stroke="#666666" points="271,-30 0,-30 0,0 271,0 271,-30"/>
<text text-anchor="start" x="8" y="-18" font-family="Helvetica,sans-Serif" font-size="10.00">com.teragrep.pth_06.planner.bloomfilter.</text>
<text text-anchor="middle" x="135.5" y="-7" font-family="Helvetica,sans-Serif" font-size="10.00">ConditionMatchBloomDBTablesTest.testSingleMatch</text>
</a>
</g>
</g>
<!-- Node2 -->
<g id="Node000002" class="node">
<title>Node2</title>
<g id="a_Node000002"><a xlink:href="classcom_1_1teragrep_1_1pth__06_1_1planner_1_1bloomfilter_1_1ConditionMatchBloomDBTables.html#ac229ed7784f0354aff39183a4c0ba638" target="_top" xlink:title="List of tables from bloomdb that match QueryCondition Note: Table records are not fetched fully.">
<polygon fill="white" stroke="#666666" points="522,-30 307,-30 307,0 522,0 522,-30"/>
<text text-anchor="start" x="315" y="-18" font-family="Helvetica,sans-Serif" font-size="10.00">com.teragrep.pth_06.planner.bloomfilter.</text>
<text text-anchor="middle" x="414.5" y="-7" font-family="Helvetica,sans-Serif" font-size="10.00">ConditionMatchBloomDBTables.tables</text>
</a>
</g>
</g>
<!-- Node1&#45;&gt;Node2 -->
<g id="edge1_Node000001_Node000002" class="edge">
<title>Node1&#45;&gt;Node2</title>
<g id="a_edge1_Node000001_Node000002"><a xlink:title=" ">
<path fill="none" stroke="#63b8ff" d="M271.35,-15C279.76,-15 288.19,-15 296.52,-15"/>
<polygon fill="#63b8ff" stroke="#63b8ff" points="296.61,-18.5 306.61,-15 296.61,-11.5 296.61,-18.5"/>
</a>
</g>
</g>
<!-- Node2&#45;&gt;Node2 -->
<g id="edge2_Node000002_Node000002" class="edge">
<title>Node2&#45;&gt;Node2</title>
<g id="a_edge2_Node000002_Node000002"><a xlink:title=" ">
<path fill="none" stroke="#63b8ff" d="M365.63,-30.28C354.77,-39.41 371.06,-48 414.5,-48 440.63,-48 456.94,-44.89 463.42,-40.42"/>
<polygon fill="#63b8ff" stroke="#63b8ff" points="466.92,-40.26 463.37,-30.28 459.92,-40.29 466.92,-40.26"/>
</a>
</g>
</g>
</g>
</svg>
