<?xml version="1.0" encoding="UTF-8" standalone="no"?>
<!DOCTYPE svg PUBLIC "-//W3C//DTD SVG 1.1//EN"
 "http://www.w3.org/Graphics/SVG/1.1/DTD/svg11.dtd">
<!-- Generated by graphviz version 2.43.0 (0)
 -->
<!-- Title: com.teragrep.pth_06.planner.StreamDBClient Pages: 1 -->
<svg width="1245pt" height="273pt"
 viewBox="0.00 0.00 1245.00 273.00" xmlns="http://www.w3.org/2000/svg" xmlns:xlink="http://www.w3.org/1999/xlink">
<g id="graph0" class="graph" transform="scale(1 1) rotate(0) translate(4 269)">
<title>com.teragrep.pth_06.planner.StreamDBClient</title>
<!-- Node1 -->
<g id="Node000001" class="node">
<title>Node1</title>
<g id="a_Node000001"><a xlink:title=" ">
<polygon fill="#999999" stroke="#666666" points="1237,-147 1077,-147 1077,-117 1237,-117 1237,-147"/>
<text text-anchor="start" x="1085" y="-135" font-family="Helvetica,sans-Serif" font-size="10.00">com.teragrep.pth_06.planner.</text>
<text text-anchor="middle" x="1157" y="-124" font-family="Helvetica,sans-Serif" font-size="10.00">StreamDBClient</text>
</a>
</g>
</g>
<!-- Node2 -->
<g id="Node000002" class="node">
<title>Node2</title>
<g id="a_Node000002"><a xlink:title=" ">
<polygon fill="white" stroke="#666666" points="378.5,-174.5 291.5,-174.5 291.5,-155.5 378.5,-155.5 378.5,-174.5"/>
<text text-anchor="middle" x="335" y="-162.5" font-family="Helvetica,sans-Serif" font-size="10.00">AutoCloseable</text>
</a>
</g>
</g>
<!-- Node2&#45;&gt;Node1 -->
<g id="edge1_Node000001_Node000002" class="edge">
<title>Node2&#45;&gt;Node1</title>
<g id="a_edge1_Node000001_Node000002"><a xlink:title=" ">
<path fill="none" stroke="#63b8ff" d="M389.19,-164.88C508.95,-164.29 808.83,-160.96 1059,-143 1064.83,-142.58 1070.85,-142.08 1076.91,-141.51"/>
<polygon fill="#63b8ff" stroke="#63b8ff" points="388.83,-161.38 378.85,-164.93 388.86,-168.38 388.83,-161.38"/>
</a>
</g>
</g>
<!-- Node6 -->
<g id="Node000006" class="node">
<title>Node6</title>
<g id="a_Node000006"><a xlink:href="classcom_1_1teragrep_1_1pth__06_1_1planner_1_1StreamDBClient.html" target="_top" xlink:title=" ">
<polygon fill="white" stroke="#666666" points="665,-103 505,-103 505,-73 665,-73 665,-103"/>
<text text-anchor="start" x="513" y="-91" font-family="Helvetica,sans-Serif" font-size="10.00">com.teragrep.pth_06.planner.</text>
<text text-anchor="middle" x="585" y="-80" font-family="Helvetica,sans-Serif" font-size="10.00">StreamDBClient</text>
</a>
</g>
</g>
<!-- Node2&#45;&gt;Node6 -->
<g id="edge8_Node000006_Node000002" class="edge">
<title>Node2&#45;&gt;Node6</title>
<g id="a_edge8_Node000006_Node000002"><a xlink:title=" ">
<path fill="none" stroke="#63b8ff" d="M378.44,-152.59C390.88,-148.91 404.5,-144.84 417,-141 457.71,-128.51 503.84,-113.83 537.29,-103.09"/>
<polygon fill="#63b8ff" stroke="#63b8ff" points="377.36,-149.26 368.75,-155.45 379.34,-155.98 377.36,-149.26"/>
</a>
</g>
</g>
<!-- Node3 -->
<g id="Node000003" class="node">
<title>Node3</title>
<g id="a_Node000003"><a xlink:href="classcom_1_1teragrep_1_1pth__06_1_1ConfiguredLogger.html" target="_top" xlink:title=" ">
<polygon fill="white" stroke="#666666" points="173,-132 0,-132 0,-102 173,-102 173,-132"/>
<text text-anchor="start" x="8" y="-120" font-family="Helvetica,sans-Serif" font-size="10.00">com.teragrep.pth_06.Configured</text>
<text text-anchor="middle" x="86.5" y="-109" font-family="Helvetica,sans-Serif" font-size="10.00">Logger</text>
</a>
</g>
</g>
<!-- Node3&#45;&gt;Node1 -->
<g id="edge2_Node000001_Node000003" class="edge">
<title>Node3&#45;&gt;Node1</title>
<g id="a_edge2_Node000001_Node000003"><a xlink:title=" ">
<path fill="none" stroke="#9a32cd" stroke-dasharray="5,2" d="M109.46,-139.43C149.95,-178.29 240.82,-254 334,-254 334,-254 334,-254 872,-254 979.06,-254 1091.73,-179.91 1136.25,-147.2"/>
<polygon fill="#9a32cd" stroke="#9a32cd" points="111.64,-136.67 102.04,-132.18 106.75,-141.68 111.64,-136.67"/>
</a>
</g>
<text text-anchor="middle" x="585" y="-257" font-family="Helvetica,sans-Serif" font-size="10.00" fill="grey"> LOGGER</text>
</g>
<!-- Node4 -->
<g id="Node000004" class="node">
<title>Node4</title>
<g id="a_Node000004"><a xlink:href="classcom_1_1teragrep_1_1pth__06_1_1planner_1_1GetArchivedObjectsFilterTable.html" target="_top" xlink:title=" ">
<polygon fill="white" stroke="#666666" points="417,-132 253,-132 253,-102 417,-102 417,-132"/>
<text text-anchor="start" x="261" y="-120" font-family="Helvetica,sans-Serif" font-size="10.00">com.teragrep.pth_06.planner.</text>
<text text-anchor="middle" x="335" y="-109" font-family="Helvetica,sans-Serif" font-size="10.00">GetArchivedObjectsFilterTable</text>
</a>
</g>
</g>
<!-- Node3&#45;&gt;Node4 -->
<g id="edge4_Node000004_Node000003" class="edge">
<title>Node3&#45;&gt;Node4</title>
<g id="a_edge4_Node000004_Node000003"><a xlink:title=" ">
<path fill="none" stroke="#9a32cd" stroke-dasharray="5,2" d="M183.14,-117C206.14,-117 230.5,-117 252.78,-117"/>
<polygon fill="#9a32cd" stroke="#9a32cd" points="183.02,-113.5 173.02,-117 183.02,-120.5 183.02,-113.5"/>
</a>
</g>
<text text-anchor="middle" x="213" y="-120" font-family="Helvetica,sans-Serif" font-size="10.00" fill="grey"> logger</text>
</g>
<!-- Node5 -->
<g id="Node000005" class="node">
<title>Node5</title>
<g id="a_Node000005"><a xlink:href="classcom_1_1teragrep_1_1pth__06_1_1planner_1_1NestedTopNQuery.html" target="_top" xlink:title=" ">
<polygon fill="white" stroke="#666666" points="951,-104 791,-104 791,-74 951,-74 951,-104"/>
<text text-anchor="start" x="799" y="-92" font-family="Helvetica,sans-Serif" font-size="10.00">com.teragrep.pth_06.planner.</text>
<text text-anchor="middle" x="871" y="-81" font-family="Helvetica,sans-Serif" font-size="10.00">NestedTopNQuery</text>
</a>
</g>
</g>
<!-- Node3&#45;&gt;Node5 -->
<g id="edge6_Node000005_Node000003" class="edge">
<title>Node3&#45;&gt;Node5</title>
<g id="a_edge6_Node000005_Node000003"><a xlink:title=" ">
<path fill="none" stroke="#9a32cd" stroke-dasharray="5,2" d="M124.67,-136.75C157.42,-152.99 206.94,-174.77 253,-184 480.45,-229.59 552.76,-211.84 773,-139 799.08,-130.37 826.74,-115.48 845.82,-104.18"/>
<polygon fill="#9a32cd" stroke="#9a32cd" points="125.99,-133.5 115.49,-132.12 122.84,-139.75 125.99,-133.5"/>
</a>
</g>
<text text-anchor="middle" x="461" y="-212" font-family="Helvetica,sans-Serif" font-size="10.00" fill="grey"> logger</text>
</g>
<!-- Node3&#45;&gt;Node6 -->
<g id="edge9_Node000006_Node000003" class="edge">
<title>Node3&#45;&gt;Node6</title>
<g id="a_edge9_Node000006_Node000003"><a xlink:title=" ">
<path fill="none" stroke="#9a32cd" stroke-dasharray="5,2" d="M154.03,-99.62C184.04,-92.64 220.07,-85.44 253,-82 338.74,-73.03 437.65,-76.63 504.85,-81.15"/>
<polygon fill="#9a32cd" stroke="#9a32cd" points="153.02,-96.27 144.1,-101.98 154.63,-103.08 153.02,-96.27"/>
</a>
</g>
<text text-anchor="middle" x="335" y="-85" font-family="Helvetica,sans-Serif" font-size="10.00" fill="grey"> LOGGER</text>
</g>
<!-- Node7 -->
<g id="Node000007" class="node">
<title>Node7</title>
<g id="a_Node000007"><a xlink:href="classcom_1_1teragrep_1_1pth__06_1_1planner_1_1SliceTable.html" target="_top" xlink:title=" ">
<polygon fill="white" stroke="#666666" points="415,-30 255,-30 255,0 415,0 415,-30"/>
<text text-anchor="start" x="263" y="-18" font-family="Helvetica,sans-Serif" font-size="10.00">com.teragrep.pth_06.planner.</text>
<text text-anchor="middle" x="335" y="-7" font-family="Helvetica,sans-Serif" font-size="10.00">SliceTable</text>
</a>
</g>
</g>
<!-- Node3&#45;&gt;Node7 -->
<g id="edge13_Node000007_Node000003" class="edge">
<title>Node3&#45;&gt;Node7</title>
<g id="a_edge13_Node000007_Node000003"><a xlink:title=" ">
<path fill="none" stroke="#9a32cd" stroke-dasharray="5,2" d="M110.83,-94.99C130.62,-77.58 160.59,-54.1 191,-41 210.93,-32.42 233.61,-26.67 254.94,-22.81"/>
<polygon fill="#9a32cd" stroke="#9a32cd" points="108.35,-92.51 103.25,-101.8 113.03,-97.72 108.35,-92.51"/>
</a>
</g>
<text text-anchor="middle" x="213" y="-44" font-family="Helvetica,sans-Serif" font-size="10.00" fill="grey"> LOGGER</text>
</g>
<!-- Node4&#45;&gt;Node1 -->
<g id="edge3_Node000001_Node000004" class="edge">
<title>Node4&#45;&gt;Node1</title>
<g id="a_edge3_Node000001_Node000004"><a xlink:title=" ">
<path fill="none" stroke="#9a32cd" stroke-dasharray="5,2" d="M427.67,-118.68C589.7,-121.64 923.99,-127.76 1076.73,-130.55"/>
<polygon fill="#9a32cd" stroke="#9a32cd" points="427.31,-115.17 417.25,-118.49 427.18,-122.17 427.31,-115.17"/>
</a>
</g>
<text text-anchor="middle" x="728" y="-127" font-family="Helvetica,sans-Serif" font-size="10.00" fill="grey"> filterTable</text>
</g>
<!-- Node4&#45;&gt;Node6 -->
<g id="edge10_Node000006_Node000004" class="edge">
<title>Node4&#45;&gt;Node6</title>
<g id="a_edge10_Node000006_Node000004"><a xlink:title=" ">
<path fill="none" stroke="#9a32cd" stroke-dasharray="5,2" d="M427.3,-101.01C429.89,-100.66 432.46,-100.32 435,-100 457.66,-97.15 482.35,-94.84 504.99,-93.04"/>
<polygon fill="#9a32cd" stroke="#9a32cd" points="426.63,-97.57 417.22,-102.45 427.62,-104.5 426.63,-97.57"/>
</a>
</g>
<text text-anchor="middle" x="461" y="-103" font-family="Helvetica,sans-Serif" font-size="10.00" fill="grey"> filterTable</text>
</g>
<!-- Node5&#45;&gt;Node1 -->
<g id="edge5_Node000001_Node000005" class="edge">
<title>Node5&#45;&gt;Node1</title>
<g id="a_edge5_Node000001_Node000005"><a xlink:title=" ">
<path fill="none" stroke="#9a32cd" stroke-dasharray="5,2" d="M961.44,-94.75C992.47,-97.5 1027.4,-101.44 1059,-107 1073.73,-109.59 1089.51,-113.26 1103.97,-117"/>
<polygon fill="#9a32cd" stroke="#9a32cd" points="961.33,-91.23 951.07,-93.86 960.74,-98.2 961.33,-91.23"/>
</a>
</g>
<text text-anchor="middle" x="1014" y="-110" font-family="Helvetica,sans-Serif" font-size="10.00" fill="grey"> nestedTopNQuery</text>
</g>
<!-- Node5&#45;&gt;Node6 -->
<g id="edge11_Node000006_Node000005" class="edge">
<title>Node5&#45;&gt;Node6</title>
<g id="a_edge11_Node000006_Node000005"><a xlink:title=" ">
<path fill="none" stroke="#9a32cd" stroke-dasharray="5,2" d="M780.79,-73.72C778.17,-73.45 775.57,-73.21 773,-73 733.13,-69.73 722.88,-69.93 683,-73 677.14,-73.45 671.09,-74.05 665.03,-74.76"/>
<polygon fill="#9a32cd" stroke="#9a32cd" points="780.66,-77.23 790.99,-74.87 781.45,-70.27 780.66,-77.23"/>
</a>
</g>
<text text-anchor="middle" x="728" y="-76" font-family="Helvetica,sans-Serif" font-size="10.00" fill="grey"> nestedTopNQuery</text>
</g>
<!-- Node6&#45;&gt;Node5 -->
<g id="edge7_Node000005_Node000006" class="edge">
<title>Node6&#45;&gt;Node5</title>
<g id="a_edge7_Node000005_Node000006"><a xlink:title=" ">
<path fill="none" stroke="#9a32cd" stroke-dasharray="5,2" d="M675.39,-88.31C712.4,-88.45 754.96,-88.59 790.82,-88.72"/>
<polygon fill="#9a32cd" stroke="#9a32cd" points="675.12,-84.81 665.11,-88.28 675.1,-91.81 675.12,-84.81"/>
</a>
</g>
<text text-anchor="middle" x="728" y="-91" font-family="Helvetica,sans-Serif" font-size="10.00" fill="grey"> streamDBClient</text>
</g>
<!-- Node7&#45;&gt;Node1 -->
<g id="edge15_Node000001_Node000007" class="edge">
<title>Node7&#45;&gt;Node1</title>
<g id="a_edge15_Node000001_Node000007"><a xlink:title=" ">
<path fill="none" stroke="#9a32cd" stroke-dasharray="5,2" d="M425.21,-12.49C450.96,-11.88 479.09,-11.31 505,-11 576.11,-10.16 594.06,-6.1 665,-11 794.05,-19.92 824.93,-36.02 951,-65 999.12,-76.06 1012.11,-75.56 1059,-91 1081.23,-98.32 1105.48,-108.57 1124.17,-116.99"/>
<polygon fill="#9a32cd" stroke="#9a32cd" points="425,-9 415.09,-12.74 425.17,-16 425,-9"/>
</a>
</g>
<text text-anchor="middle" x="728" y="-27" font-family="Helvetica,sans-Serif" font-size="10.00" fill="grey"> sliceTable</text>
</g>
<!-- Node7&#45;&gt;Node6 -->
<g id="edge12_Node000006_Node000007" class="edge">
<title>Node7&#45;&gt;Node6</title>
<g id="a_edge12_Node000006_Node000007"><a xlink:title=" ">
<path fill="none" stroke="#9a32cd" stroke-dasharray="5,2" d="M425.3,-21.11C446.35,-25.02 468.14,-31.23 487,-41 497.05,-46.2 495.47,-52.91 505,-59 513.49,-64.43 523.15,-69.04 532.72,-72.87"/>
<polygon fill="#9a32cd" stroke="#9a32cd" points="425.81,-17.65 415.37,-19.42 424.64,-24.55 425.81,-17.65"/>
</a>
</g>
<text text-anchor="middle" x="461" y="-44" font-family="Helvetica,sans-Serif" font-size="10.00" fill="grey"> sliceTable</text>
</g>
<!-- Node8 -->
<g id="Node000008" class="node">
<title>Node8</title>
<g id="a_Node000008"><a xlink:title=" ">
<polygon fill="white" stroke="#666666" points="665,-50 505,-50 505,-20 665,-20 665,-50"/>
<text text-anchor="start" x="513" y="-38" font-family="Helvetica,sans-Serif" font-size="10.00">com.teragrep.pth_06.planner.</text>
<text text-anchor="middle" x="585" y="-27" font-family="Helvetica,sans-Serif" font-size="10.00">SafeLogtimeFunction</text>
</a>
</g>
</g>
<!-- Node8&#45;&gt;Node5 -->
<g id="edge14_Node000005_Node000008" class="edge">
<title>Node8&#45;&gt;Node5</title>
<g id="a_edge14_Node000005_Node000008"><a xlink:title=" ">
<path fill="none" stroke="#9a32cd" stroke-dasharray="5,2" d="M675.34,-40.33C706.5,-43.3 741.53,-47.9 773,-55 793.37,-59.59 815.38,-67.09 833.28,-73.88"/>
<polygon fill="#9a32cd" stroke="#9a32cd" points="675.64,-36.85 665.36,-39.42 675.01,-43.82 675.64,-36.85"/>
</a>
</g>
<text text-anchor="middle" x="728" y="-58" font-family="Helvetica,sans-Serif" font-size="10.00" fill="grey"> logtimeFunction</text>
</g>
</g>
</svg>
