<?xml version="1.0" encoding="UTF-8" standalone="no"?>
<!DOCTYPE svg PUBLIC "-//W3C//DTD SVG 1.1//EN"
 "http://www.w3.org/Graphics/SVG/1.1/DTD/svg11.dtd">
<!-- Generated by graphviz version 2.43.0 (0)
 -->
<!-- Title: com.teragrep.pth_06.planner.walker.conditions.ElementCondition.requiredTables Pages: 1 -->
<svg width="824pt" height="86pt"
 viewBox="0.00 0.00 824.00 86.00" xmlns="http://www.w3.org/2000/svg" xmlns:xlink="http://www.w3.org/1999/xlink">
<g id="graph0" class="graph" transform="scale(1 1) rotate(0) translate(4 82)">
<title>com.teragrep.pth_06.planner.walker.conditions.ElementCondition.requiredTables</title>
<!-- Node1 -->
<g id="Node000001" class="node">
<title>Node1</title>
<g id="a_Node000001"><a xlink:title="A set of tables needed to be joined to the query to use this condition.">
<polygon fill="#999999" stroke="#666666" points="248,-54 0,-54 0,-24 248,-24 248,-54"/>
<text text-anchor="start" x="8" y="-42" font-family="Helvetica,sans-Serif" font-size="10.00">com.teragrep.pth_06.planner.walker.conditions.</text>
<text text-anchor="middle" x="124" y="-31" font-family="Helvetica,sans-Serif" font-size="10.00">ElementCondition.requiredTables</text>
</a>
</g>
</g>
<!-- Node2 -->
<g id="Node000002" class="node">
<title>Node2</title>
<g id="a_Node000002"><a xlink:href="classcom_1_1teragrep_1_1pth__06_1_1planner_1_1walker_1_1conditions_1_1IndexStatementCondition.html#a9e6273506853ee6766c3649611404828" target="_top" xlink:title=" ">
<polygon fill="white" stroke="#666666" points="532,-78 284,-78 284,-48 532,-48 532,-78"/>
<text text-anchor="start" x="292" y="-66" font-family="Helvetica,sans-Serif" font-size="10.00">com.teragrep.pth_06.planner.walker.conditions.</text>
<text text-anchor="middle" x="408" y="-55" font-family="Helvetica,sans-Serif" font-size="10.00">IndexStatementCondition.requiredTables</text>
</a>
</g>
</g>
<!-- Node1&#45;&gt;Node2 -->
<g id="edge1_Node000001_Node000002" class="edge">
<title>Node1&#45;&gt;Node2</title>
<g id="a_edge1_Node000001_Node000002"><a xlink:title=" ">
<path fill="none" stroke="#63b8ff" d="M248.28,-49.49C256.6,-50.2 265.01,-50.92 273.38,-51.63"/>
<polygon fill="#63b8ff" stroke="#63b8ff" points="273.31,-55.13 283.57,-52.5 273.9,-48.16 273.31,-55.13"/>
</a>
</g>
</g>
<!-- Node3 -->
<g id="Node000003" class="node">
<title>Node3</title>
<g id="a_Node000003"><a xlink:href="classcom_1_1teragrep_1_1pth__06_1_1planner_1_1walker_1_1conditions_1_1ValidElement.html#ac0ea2df270c90db9d9cc284d8f56222d" target="_top" xlink:title=" ">
<polygon fill="white" stroke="#666666" points="532,-30 284,-30 284,0 532,0 532,-30"/>
<text text-anchor="start" x="292" y="-18" font-family="Helvetica,sans-Serif" font-size="10.00">com.teragrep.pth_06.planner.walker.conditions.</text>
<text text-anchor="middle" x="408" y="-7" font-family="Helvetica,sans-Serif" font-size="10.00">ValidElement.value</text>
</a>
</g>
</g>
<!-- Node1&#45;&gt;Node3 -->
<g id="edge2_Node000001_Node000003" class="edge">
<title>Node1&#45;&gt;Node3</title>
<g id="a_edge2_Node000001_Node000003"><a xlink:title=" ">
<path fill="none" stroke="#63b8ff" d="M248.28,-28.51C256.6,-27.8 265.01,-27.08 273.38,-26.37"/>
<polygon fill="#63b8ff" stroke="#63b8ff" points="273.9,-29.84 283.57,-25.5 273.31,-22.87 273.9,-29.84"/>
</a>
</g>
</g>
<!-- Node4 -->
<g id="Node000004" class="node">
<title>Node4</title>
<g id="a_Node000004"><a xlink:href="classcom_1_1teragrep_1_1pth__06_1_1planner_1_1walker_1_1conditions_1_1ValidElement.html#a5b8694849043fd75636eea63a160b5b1" target="_top" xlink:title=" ">
<polygon fill="white" stroke="#666666" points="816,-30 568,-30 568,0 816,0 816,-30"/>
<text text-anchor="start" x="576" y="-18" font-family="Helvetica,sans-Serif" font-size="10.00">com.teragrep.pth_06.planner.walker.conditions.</text>
<text text-anchor="middle" x="692" y="-7" font-family="Helvetica,sans-Serif" font-size="10.00">ValidElement.validate</text>
</a>
</g>
</g>
<!-- Node3&#45;&gt;Node4 -->
<g id="edge3_Node000003_Node000004" class="edge">
<title>Node3&#45;&gt;Node4</title>
<g id="a_edge3_Node000003_Node000004"><a xlink:title=" ">
<path fill="none" stroke="#63b8ff" d="M532.28,-15C540.6,-15 549.01,-15 557.38,-15"/>
<polygon fill="#63b8ff" stroke="#63b8ff" points="557.57,-18.5 567.57,-15 557.57,-11.5 557.57,-18.5"/>
</a>
</g>
</g>
</g>
</svg>
