<?xml version="1.0" encoding="UTF-8" standalone="no"?>
<!DOCTYPE svg PUBLIC "-//W3C//DTD SVG 1.1//EN"
 "http://www.w3.org/Graphics/SVG/1.1/DTD/svg11.dtd">
<!-- Generated by graphviz version 2.43.0 (0)
 -->
<!-- Title: com.teragrep.pth_06.planner.bloomfilter.TokensAsStrings Pages: 1 -->
<svg width="505pt" height="86pt"
 viewBox="0.00 0.00 505.00 86.00" xmlns="http://www.w3.org/2000/svg" xmlns:xlink="http://www.w3.org/1999/xlink">
<g id="graph0" class="graph" transform="scale(1 1) rotate(0) translate(4 82)">
<title>com.teragrep.pth_06.planner.bloomfilter.TokensAsStrings</title>
<!-- Node1 -->
<g id="Node000001" class="node">
<title>Node1</title>
<g id="a_Node000001"><a xlink:title=" ">
<polygon fill="#999999" stroke="#666666" points="497,-54 282,-54 282,-24 497,-24 497,-54"/>
<text text-anchor="start" x="290" y="-42" font-family="Helvetica,sans-Serif" font-size="10.00">com.teragrep.pth_06.planner.bloomfilter.</text>
<text text-anchor="middle" x="389.5" y="-31" font-family="Helvetica,sans-Serif" font-size="10.00">TokensAsStrings</text>
</a>
</g>
</g>
<!-- Node2 -->
<g id="Node000002" class="node">
<title>Node2</title>
<g id="a_Node000002"><a xlink:href="interfacecom_1_1teragrep_1_1pth__06_1_1planner_1_1bloomfilter_1_1Tokenizable.html" target="_top" xlink:title=" ">
<polygon fill="white" stroke="#666666" points="215,-78 0,-78 0,-48 215,-48 215,-78"/>
<text text-anchor="start" x="8" y="-66" font-family="Helvetica,sans-Serif" font-size="10.00">com.teragrep.pth_06.planner.bloomfilter.</text>
<text text-anchor="middle" x="107.5" y="-55" font-family="Helvetica,sans-Serif" font-size="10.00">Tokenizable&lt; String &gt;</text>
</a>
</g>
</g>
<!-- Node2&#45;&gt;Node1 -->
<g id="edge1_Node000001_Node000002" class="edge">
<title>Node2&#45;&gt;Node1</title>
<g id="a_edge1_Node000001_Node000002"><a xlink:title=" ">
<path fill="none" stroke="#63b8ff" d="M225.19,-53C243.91,-51.39 263.2,-49.74 281.68,-48.16"/>
<polygon fill="#63b8ff" stroke="#63b8ff" points="224.82,-49.52 215.15,-53.86 225.42,-56.49 224.82,-49.52"/>
</a>
</g>
</g>
<!-- Node3 -->
<g id="Node000003" class="node">
<title>Node3</title>
<g id="a_Node000003"><a xlink:href="interfacecom_1_1teragrep_1_1pth__06_1_1planner_1_1bloomfilter_1_1Tokenizable.html" target="_top" xlink:title=" ">
<polygon fill="white" stroke="#666666" points="215,-30 0,-30 0,0 215,0 215,-30"/>
<text text-anchor="start" x="8" y="-18" font-family="Helvetica,sans-Serif" font-size="10.00">com.teragrep.pth_06.planner.bloomfilter.</text>
<text text-anchor="middle" x="107.5" y="-7" font-family="Helvetica,sans-Serif" font-size="10.00">Tokenizable&lt; Token &gt;</text>
</a>
</g>
</g>
<!-- Node3&#45;&gt;Node1 -->
<g id="edge2_Node000001_Node000003" class="edge">
<title>Node3&#45;&gt;Node1</title>
<g id="a_edge2_Node000001_Node000003"><a xlink:title=" ">
<path fill="none" stroke="#9a32cd" stroke-dasharray="5,2" d="M225.19,-25C243.91,-26.61 263.2,-28.26 281.68,-29.84"/>
<polygon fill="#9a32cd" stroke="#9a32cd" points="225.42,-21.51 215.15,-24.14 224.82,-28.48 225.42,-21.51"/>
</a>
</g>
<text text-anchor="middle" x="248.5" y="-30" font-family="Helvetica,sans-Serif" font-size="10.00" fill="grey"> origin</text>
</g>
</g>
</svg>
