<?xml version="1.0" encoding="UTF-8" standalone="no"?>
<!DOCTYPE svg PUBLIC "-//W3C//DTD SVG 1.1//EN"
 "http://www.w3.org/Graphics/SVG/1.1/DTD/svg11.dtd">
<!-- Generated by graphviz version 2.43.0 (0)
 -->
<!-- Title: com.teragrep.pth_06.planner.ArchiveQueryProcessor.seekToResults Pages: 1 -->
<svg width="1073pt" height="210pt"
 viewBox="0.00 0.00 1073.00 210.00" xmlns="http://www.w3.org/2000/svg" xmlns:xlink="http://www.w3.org/1999/xlink">
<g id="graph0" class="graph" transform="scale(1 1) rotate(0) translate(4 206)">
<title>com.teragrep.pth_06.planner.ArchiveQueryProcessor.seekToResults</title>
<!-- Node1 -->
<g id="Node000001" class="node">
<title>Node1</title>
<g id="a_Node000001"><a xlink:title="Increment the rolling day and pull data for that day into the sliceTable.">
<polygon fill="#999999" stroke="#666666" points="202,-116 0,-116 0,-86 202,-86 202,-116"/>
<text text-anchor="start" x="8" y="-104" font-family="Helvetica,sans-Serif" font-size="10.00">com.teragrep.pth_06.planner.</text>
<text text-anchor="middle" x="101" y="-93" font-family="Helvetica,sans-Serif" font-size="10.00">ArchiveQueryProcessor.seekToResults</text>
</a>
</g>
</g>
<!-- Node2 -->
<g id="Node000002" class="node">
<title>Node2</title>
<g id="a_Node000002"><a xlink:href="classcom_1_1teragrep_1_1pth__06_1_1planner_1_1StreamDBClient.html#adbe4b13c48e67d8d82ae4ed9ee93f7df" target="_top" xlink:title=" ">
<polygon fill="white" stroke="#666666" points="413,-116 238,-116 238,-86 413,-86 413,-116"/>
<text text-anchor="start" x="246" y="-104" font-family="Helvetica,sans-Serif" font-size="10.00">com.teragrep.pth_06.planner.</text>
<text text-anchor="middle" x="325.5" y="-93" font-family="Helvetica,sans-Serif" font-size="10.00">StreamDBClient.pullToSliceTable</text>
</a>
</g>
</g>
<!-- Node1&#45;&gt;Node2 -->
<g id="edge1_Node000001_Node000002" class="edge">
<title>Node1&#45;&gt;Node2</title>
<g id="a_edge1_Node000001_Node000002"><a xlink:title=" ">
<path fill="none" stroke="#63b8ff" d="M202.18,-101C210.63,-101 219.16,-101 227.58,-101"/>
<polygon fill="#63b8ff" stroke="#63b8ff" points="227.79,-104.5 237.79,-101 227.79,-97.5 227.79,-104.5"/>
</a>
</g>
</g>
<!-- Node3 -->
<g id="Node000003" class="node">
<title>Node3</title>
<g id="a_Node000003"><a xlink:href="classcom_1_1teragrep_1_1pth__06_1_1ConfiguredLogger.html#a432bade7d6310bed1e1b9a405fb53d56" target="_top" xlink:title=" ">
<polygon fill="white" stroke="#666666" points="856,-202 683,-202 683,-172 856,-172 856,-202"/>
<text text-anchor="start" x="691" y="-190" font-family="Helvetica,sans-Serif" font-size="10.00">com.teragrep.pth_06.Configured</text>
<text text-anchor="middle" x="769.5" y="-179" font-family="Helvetica,sans-Serif" font-size="10.00">Logger.debug</text>
</a>
</g>
</g>
<!-- Node2&#45;&gt;Node3 -->
<g id="edge2_Node000002_Node000003" class="edge">
<title>Node2&#45;&gt;Node3</title>
<g id="a_edge2_Node000002_Node000003"><a xlink:title=" ">
<path fill="none" stroke="#63b8ff" d="M374.16,-116.06C396.69,-122.8 424.06,-130.47 449,-136 523.57,-152.54 609.06,-165.9 672.83,-174.79"/>
<polygon fill="#63b8ff" stroke="#63b8ff" points="672.49,-178.27 682.88,-176.18 673.45,-171.34 672.49,-178.27"/>
</a>
</g>
</g>
<!-- Node4 -->
<g id="Node000004" class="node">
<title>Node4</title>
<g id="a_Node000004"><a xlink:href="classcom_1_1teragrep_1_1pth__06_1_1ConfiguredLogger.html#adbd659cefc990abe9b2da58d3dae9970" target="_top" xlink:title=" ">
<polygon fill="white" stroke="#666666" points="1065,-159 892,-159 892,-129 1065,-129 1065,-159"/>
<text text-anchor="start" x="900" y="-147" font-family="Helvetica,sans-Serif" font-size="10.00">com.teragrep.pth_06.Configured</text>
<text text-anchor="middle" x="978.5" y="-136" font-family="Helvetica,sans-Serif" font-size="10.00">Logger.info</text>
</a>
</g>
</g>
<!-- Node2&#45;&gt;Node4 -->
<g id="edge8_Node000002_Node000004" class="edge">
<title>Node2&#45;&gt;Node4</title>
<g id="a_edge8_Node000002_Node000004"><a xlink:title=" ">
<path fill="none" stroke="#63b8ff" d="M391.74,-85.93C492.96,-65.24 693.14,-35.07 856,-77 890.54,-85.89 925.78,-106.92 949.35,-123.06"/>
<polygon fill="#63b8ff" stroke="#63b8ff" points="947.58,-126.1 957.78,-128.97 951.6,-120.37 947.58,-126.1"/>
</a>
</g>
</g>
<!-- Node5 -->
<g id="Node000005" class="node">
<title>Node5</title>
<g id="a_Node000005"><a xlink:href="classcom_1_1teragrep_1_1pth__06_1_1planner_1_1NestedTopNQuery.html#ab9a75398ae4f26212f007ce95c24c26f" target="_top" xlink:title=" ">
<polygon fill="white" stroke="#666666" points="647,-127 449,-127 449,-97 647,-97 647,-127"/>
<text text-anchor="start" x="457" y="-115" font-family="Helvetica,sans-Serif" font-size="10.00">com.teragrep.pth_06.planner.</text>
<text text-anchor="middle" x="548" y="-104" font-family="Helvetica,sans-Serif" font-size="10.00">NestedTopNQuery.getTableStatement</text>
</a>
</g>
</g>
<!-- Node2&#45;&gt;Node5 -->
<g id="edge4_Node000002_Node000005" class="edge">
<title>Node2&#45;&gt;Node5</title>
<g id="a_edge4_Node000002_Node000005"><a xlink:title=" ">
<path fill="none" stroke="#63b8ff" d="M413.01,-105.32C421.43,-105.74 430.03,-106.16 438.62,-106.59"/>
<polygon fill="#63b8ff" stroke="#63b8ff" points="438.52,-110.09 448.69,-107.1 438.87,-103.1 438.52,-110.09"/>
</a>
</g>
</g>
<!-- Node7 -->
<g id="Node000007" class="node">
<title>Node7</title>
<g id="a_Node000007"><a xlink:href="classcom_1_1teragrep_1_1pth__06_1_1ConfiguredLogger.html#af42a0722b715d8fd28805092370257d2" target="_top" xlink:title=" ">
<polygon fill="white" stroke="#666666" points="634.5,-30 461.5,-30 461.5,0 634.5,0 634.5,-30"/>
<text text-anchor="start" x="469.5" y="-18" font-family="Helvetica,sans-Serif" font-size="10.00">com.teragrep.pth_06.Configured</text>
<text text-anchor="middle" x="548" y="-7" font-family="Helvetica,sans-Serif" font-size="10.00">Logger.trace</text>
</a>
</g>
</g>
<!-- Node2&#45;&gt;Node7 -->
<g id="edge9_Node000002_Node000007" class="edge">
<title>Node2&#45;&gt;Node7</title>
<g id="a_edge9_Node000002_Node000007"><a xlink:title=" ">
<path fill="none" stroke="#63b8ff" d="M355.68,-85.93C380.17,-73.65 416.31,-56.36 449,-44 459.23,-40.13 470.21,-36.44 480.99,-33.08"/>
<polygon fill="#63b8ff" stroke="#63b8ff" points="482.27,-36.35 490.81,-30.08 480.23,-29.65 482.27,-36.35"/>
</a>
</g>
</g>
<!-- Node3&#45;&gt;Node4 -->
<g id="edge3_Node000003_Node000004" class="edge">
<title>Node3&#45;&gt;Node4</title>
<g id="a_edge3_Node000003_Node000004"><a xlink:title=" ">
<path fill="none" stroke="#63b8ff" d="M842.9,-171.96C859.76,-168.46 877.83,-164.7 895.09,-161.12"/>
<polygon fill="#63b8ff" stroke="#63b8ff" points="896.06,-164.49 905.14,-159.03 894.64,-157.64 896.06,-164.49"/>
</a>
</g>
</g>
<!-- Node5&#45;&gt;Node3 -->
<g id="edge5_Node000005_Node000003" class="edge">
<title>Node5&#45;&gt;Node3</title>
<g id="a_edge5_Node000005_Node000003"><a xlink:title=" ">
<path fill="none" stroke="#63b8ff" d="M592.74,-127.06C618.92,-136.06 652.85,-147.71 683,-158 693.22,-161.49 704.14,-165.2 714.63,-168.76"/>
<polygon fill="#63b8ff" stroke="#63b8ff" points="713.52,-172.08 724.11,-171.98 715.77,-165.45 713.52,-172.08"/>
</a>
</g>
</g>
<!-- Node5&#45;&gt;Node4 -->
<g id="edge6_Node000005_Node000004" class="edge">
<title>Node5&#45;&gt;Node4</title>
<g id="a_edge6_Node000005_Node000004"><a xlink:title=" ">
<path fill="none" stroke="#63b8ff" d="M647.03,-121.88C659.14,-122.99 671.35,-124.06 683,-125 749.24,-130.35 823.96,-135.16 881.57,-138.6"/>
<polygon fill="#63b8ff" stroke="#63b8ff" points="881.56,-142.1 891.75,-139.2 881.98,-135.11 881.56,-142.1"/>
</a>
</g>
</g>
<!-- Node6 -->
<g id="Node000006" class="node">
<title>Node6</title>
<g id="a_Node000006"><a xlink:href="classcom_1_1teragrep_1_1pth__06_1_1ConfiguredLogger.html#a03c44f8bbcceea9ce885498f428247cd" target="_top" xlink:title=" ">
<polygon fill="white" stroke="#666666" points="856,-116 683,-116 683,-86 856,-86 856,-116"/>
<text text-anchor="start" x="691" y="-104" font-family="Helvetica,sans-Serif" font-size="10.00">com.teragrep.pth_06.Configured</text>
<text text-anchor="middle" x="769.5" y="-93" font-family="Helvetica,sans-Serif" font-size="10.00">Logger.isInfoEnabled</text>
</a>
</g>
</g>
<!-- Node5&#45;&gt;Node6 -->
<g id="edge7_Node000005_Node000006" class="edge">
<title>Node5&#45;&gt;Node6</title>
<g id="a_edge7_Node000005_Node000006"><a xlink:title=" ">
<path fill="none" stroke="#63b8ff" d="M647.19,-107.08C655.63,-106.66 664.17,-106.23 672.59,-105.81"/>
<polygon fill="#63b8ff" stroke="#63b8ff" points="672.98,-109.29 682.79,-105.3 672.63,-102.3 672.98,-109.29"/>
</a>
</g>
</g>
</g>
</svg>
