<?xml version="1.0" encoding="UTF-8" standalone="no"?>
<!DOCTYPE svg PUBLIC "-//W3C//DTD SVG 1.1//EN"
 "http://www.w3.org/Graphics/SVG/1.1/DTD/svg11.dtd">
<!-- Generated by graphviz version 2.43.0 (0)
 -->
<!-- Title: com.teragrep.pth_06.scheduler.BatchSliceCollection Pages: 1 -->
<svg width="559pt" height="86pt"
 viewBox="0.00 0.00 559.00 86.00" xmlns="http://www.w3.org/2000/svg" xmlns:xlink="http://www.w3.org/1999/xlink">
<g id="graph0" class="graph" transform="scale(1 1) rotate(0) translate(4 82)">
<title>com.teragrep.pth_06.scheduler.BatchSliceCollection</title>
<!-- Node1 -->
<g id="Node000001" class="node">
<title>Node1</title>
<g id="a_Node000001"><a xlink:title=" ">
<polygon fill="#999999" stroke="#666666" points="345,-54 175,-54 175,-24 345,-24 345,-54"/>
<text text-anchor="start" x="183" y="-42" font-family="Helvetica,sans-Serif" font-size="10.00">com.teragrep.pth_06.scheduler.</text>
<text text-anchor="middle" x="260" y="-31" font-family="Helvetica,sans-Serif" font-size="10.00">BatchSliceCollection</text>
</a>
</g>
</g>
<!-- Node3 -->
<g id="Node000003" class="node">
<title>Node3</title>
<g id="a_Node000003"><a xlink:href="classcom_1_1teragrep_1_1pth__06_1_1scheduler_1_1ArchiveBatchSliceCollection.html" target="_top" xlink:title=" ">
<polygon fill="white" stroke="#666666" points="551,-78 381,-78 381,-48 551,-48 551,-78"/>
<text text-anchor="start" x="389" y="-66" font-family="Helvetica,sans-Serif" font-size="10.00">com.teragrep.pth_06.scheduler.</text>
<text text-anchor="middle" x="466" y="-55" font-family="Helvetica,sans-Serif" font-size="10.00">ArchiveBatchSliceCollection</text>
</a>
</g>
</g>
<!-- Node1&#45;&gt;Node3 -->
<g id="edge2_Node000001_Node000003" class="edge">
<title>Node1&#45;&gt;Node3</title>
<g id="a_edge2_Node000001_Node000003"><a xlink:title=" ">
<path fill="none" stroke="#63b8ff" d="M355.12,-50.07C363.66,-51.08 372.27,-52.09 380.71,-53.08"/>
<polygon fill="#63b8ff" stroke="#63b8ff" points="355.49,-46.59 345.15,-48.9 354.67,-53.54 355.49,-46.59"/>
</a>
</g>
</g>
<!-- Node4 -->
<g id="Node000004" class="node">
<title>Node4</title>
<g id="a_Node000004"><a xlink:href="classcom_1_1teragrep_1_1pth__06_1_1scheduler_1_1KafkaBatchSliceCollection.html" target="_top" xlink:title=" ">
<polygon fill="white" stroke="#666666" points="551,-30 381,-30 381,0 551,0 551,-30"/>
<text text-anchor="start" x="389" y="-18" font-family="Helvetica,sans-Serif" font-size="10.00">com.teragrep.pth_06.scheduler.</text>
<text text-anchor="middle" x="466" y="-7" font-family="Helvetica,sans-Serif" font-size="10.00">KafkaBatchSliceCollection</text>
</a>
</g>
</g>
<!-- Node1&#45;&gt;Node4 -->
<g id="edge3_Node000001_Node000004" class="edge">
<title>Node1&#45;&gt;Node4</title>
<g id="a_edge3_Node000001_Node000004"><a xlink:title=" ">
<path fill="none" stroke="#63b8ff" d="M355.12,-27.93C363.66,-26.92 372.27,-25.91 380.71,-24.92"/>
<polygon fill="#63b8ff" stroke="#63b8ff" points="354.67,-24.46 345.15,-29.1 355.49,-31.41 354.67,-24.46"/>
</a>
</g>
</g>
<!-- Node2 -->
<g id="Node000002" class="node">
<title>Node2</title>
<g id="a_Node000002"><a xlink:title=" ">
<polygon fill="white" stroke="#666666" points="139,-48.5 0,-48.5 0,-29.5 139,-29.5 139,-48.5"/>
<text text-anchor="middle" x="69.5" y="-36.5" font-family="Helvetica,sans-Serif" font-size="10.00">LinkedList&lt; BatchSlice &gt;</text>
</a>
</g>
</g>
<!-- Node2&#45;&gt;Node1 -->
<g id="edge1_Node000001_Node000002" class="edge">
<title>Node2&#45;&gt;Node1</title>
<g id="a_edge1_Node000001_Node000002"><a xlink:title=" ">
<path fill="none" stroke="#63b8ff" d="M149.25,-39C157.67,-39 166.25,-39 174.73,-39"/>
<polygon fill="#63b8ff" stroke="#63b8ff" points="149.09,-35.5 139.09,-39 149.09,-42.5 149.09,-35.5"/>
</a>
</g>
</g>
</g>
</svg>
