<?xml version="1.0" encoding="UTF-8" standalone="no"?>
<!DOCTYPE svg PUBLIC "-//W3C//DTD SVG 1.1//EN"
 "http://www.w3.org/Graphics/SVG/1.1/DTD/svg11.dtd">
<!-- Generated by graphviz version 2.43.0 (0)
 -->
<!-- Title: Graphical Class Hierarchy Pages: 1 -->
<svg width="394pt" height="626pt"
 viewBox="0.00 0.00 394.00 625.50" xmlns="http://www.w3.org/2000/svg" xmlns:xlink="http://www.w3.org/1999/xlink">
<g id="graph0" class="graph" transform="scale(1 1) rotate(0) translate(4 621.5)">
<title>Graphical Class Hierarchy</title>
<!-- Node0 -->
<g id="Node000000" class="node">
<title>Node0</title>
<g id="a_Node000000"><a xlink:title=" ">
<polygon fill="#e0e0e0" stroke="#999999" points="85,-312.5 0,-312.5 0,-293.5 85,-293.5 85,-312.5"/>
<text text-anchor="middle" x="42.5" y="-300.5" font-family="Helvetica,sans-Serif" font-size="10.00">CustomMetric</text>
</a>
</g>
</g>
<!-- Node1 -->
<g id="Node000001" class="node">
<title>Node1</title>
<g id="a_Node000001"><a xlink:href="classcom_1_1teragrep_1_1pth__06_1_1metrics_1_1bytes_1_1ArchiveCompressedBytesProcessedMetricAggregator.html" target="_top" xlink:title=" ">
<polygon fill="white" stroke="#666666" points="364.5,-617.5 142.5,-617.5 142.5,-576.5 364.5,-576.5 364.5,-617.5"/>
<text text-anchor="start" x="150.5" y="-605.5" font-family="Helvetica,sans-Serif" font-size="10.00">com.teragrep.pth_06.metrics.bytes.</text>
<text text-anchor="start" x="150.5" y="-594.5" font-family="Helvetica,sans-Serif" font-size="10.00">ArchiveCompressedBytesProcessedMetric</text>
<text text-anchor="middle" x="253.5" y="-583.5" font-family="Helvetica,sans-Serif" font-size="10.00">Aggregator</text>
</a>
</g>
</g>
<!-- Node0&#45;&gt;Node1 -->
<g id="edge46_Node000000_Node000001" class="edge">
<title>Node0&#45;&gt;Node1</title>
<g id="a_edge46_Node000000_Node000001"><a xlink:title=" ">
<path fill="none" stroke="#63b8ff" d="M43.01,-322.89C42.94,-372.07 49.97,-500.19 121,-567 127.31,-572.94 134.54,-577.78 142.3,-581.73"/>
<polygon fill="#63b8ff" stroke="#63b8ff" points="46.51,-322.7 43.13,-312.66 39.51,-322.62 46.51,-322.7"/>
</a>
</g>
</g>
<!-- Node2 -->
<g id="Node000002" class="node">
<title>Node2</title>
<g id="a_Node000002"><a xlink:href="classcom_1_1teragrep_1_1pth__06_1_1metrics_1_1bytes_1_1BytesPerSecondMetricAggregator.html" target="_top" xlink:title=" ">
<polygon fill="white" stroke="#666666" points="349,-558 158,-558 158,-528 349,-528 349,-558"/>
<text text-anchor="start" x="166" y="-546" font-family="Helvetica,sans-Serif" font-size="10.00">com.teragrep.pth_06.metrics.bytes.</text>
<text text-anchor="middle" x="253.5" y="-535" font-family="Helvetica,sans-Serif" font-size="10.00">BytesPerSecondMetricAggregator</text>
</a>
</g>
</g>
<!-- Node0&#45;&gt;Node2 -->
<g id="edge47_Node000000_Node000002" class="edge">
<title>Node0&#45;&gt;Node2</title>
<g id="a_edge47_Node000000_Node000002"><a xlink:title=" ">
<path fill="none" stroke="#63b8ff" d="M44.33,-322.87C47.27,-365.87 60.6,-467.78 121,-519 131.62,-528.01 144.48,-534.11 157.96,-538.18"/>
<polygon fill="#63b8ff" stroke="#63b8ff" points="47.81,-322.41 43.76,-312.62 40.82,-322.8 47.81,-322.41"/>
</a>
</g>
</g>
<!-- Node3 -->
<g id="Node000003" class="node">
<title>Node3</title>
<g id="a_Node000003"><a xlink:href="classcom_1_1teragrep_1_1pth__06_1_1metrics_1_1bytes_1_1BytesProcessedMetricAggregator.html" target="_top" xlink:title=" ">
<polygon fill="white" stroke="#666666" points="349,-510 158,-510 158,-480 349,-480 349,-510"/>
<text text-anchor="start" x="166" y="-498" font-family="Helvetica,sans-Serif" font-size="10.00">com.teragrep.pth_06.metrics.bytes.</text>
<text text-anchor="middle" x="253.5" y="-487" font-family="Helvetica,sans-Serif" font-size="10.00">BytesProcessedMetricAggregator</text>
</a>
</g>
</g>
<!-- Node0&#45;&gt;Node3 -->
<g id="edge48_Node000000_Node000003" class="edge">
<title>Node0&#45;&gt;Node3</title>
<g id="a_edge48_Node000000_Node000003"><a xlink:title=" ">
<path fill="none" stroke="#63b8ff" d="M46.64,-323.06C53.36,-358.87 72.67,-433.53 121,-471 131.82,-479.39 144.64,-485.19 157.96,-489.14"/>
<polygon fill="#63b8ff" stroke="#63b8ff" points="50.03,-322.15 44.88,-312.9 43.14,-323.35 50.03,-322.15"/>
</a>
</g>
</g>
<!-- Node4 -->
<g id="Node000004" class="node">
<title>Node4</title>
<g id="a_Node000004"><a xlink:href="classcom_1_1teragrep_1_1pth__06_1_1metrics_1_1database_1_1ArchiveDatabaseRowAvgLatencyMetricAggregator.html" target="_top" xlink:title=" ">
<polygon fill="white" stroke="#666666" points="384.5,-462 122.5,-462 122.5,-432 384.5,-432 384.5,-462"/>
<text text-anchor="start" x="130.5" y="-450" font-family="Helvetica,sans-Serif" font-size="10.00">com.teragrep.pth_06.metrics.database.</text>
<text text-anchor="middle" x="253.5" y="-439" font-family="Helvetica,sans-Serif" font-size="10.00">ArchiveDatabaseRowAvgLatencyMetricAggregator</text>
</a>
</g>
</g>
<!-- Node0&#45;&gt;Node4 -->
<g id="edge49_Node000000_Node000004" class="edge">
<title>Node0&#45;&gt;Node4</title>
<g id="a_edge49_Node000000_Node000004"><a xlink:title=" ">
<path fill="none" stroke="#63b8ff" d="M50.26,-322.25C60.85,-349.38 84.04,-398.31 121,-423 126.11,-426.42 131.58,-429.38 137.27,-431.95"/>
<polygon fill="#63b8ff" stroke="#63b8ff" points="53.48,-320.86 46.71,-312.7 46.92,-323.3 53.48,-320.86"/>
</a>
</g>
</g>
<!-- Node5 -->
<g id="Node000005" class="node">
<title>Node5</title>
<g id="a_Node000005"><a xlink:href="classcom_1_1teragrep_1_1pth__06_1_1metrics_1_1database_1_1ArchiveDatabaseRowCountMetricAggregator.html" target="_top" xlink:title=" ">
<polygon fill="white" stroke="#666666" points="370.5,-414 136.5,-414 136.5,-384 370.5,-384 370.5,-414"/>
<text text-anchor="start" x="144.5" y="-402" font-family="Helvetica,sans-Serif" font-size="10.00">com.teragrep.pth_06.metrics.database.</text>
<text text-anchor="middle" x="253.5" y="-391" font-family="Helvetica,sans-Serif" font-size="10.00">ArchiveDatabaseRowCountMetricAggregator</text>
</a>
</g>
</g>
<!-- Node0&#45;&gt;Node5 -->
<g id="edge50_Node000000_Node000005" class="edge">
<title>Node0&#45;&gt;Node5</title>
<g id="a_edge50_Node000000_Node000005"><a xlink:title=" ">
<path fill="none" stroke="#63b8ff" d="M57.14,-320.47C71.25,-337.24 94.85,-361.9 121,-375 127.85,-378.43 135.11,-381.38 142.58,-383.9"/>
<polygon fill="#63b8ff" stroke="#63b8ff" points="59.69,-318.06 50.66,-312.52 54.27,-322.48 59.69,-318.06"/>
</a>
</g>
</g>
<!-- Node6 -->
<g id="Node000006" class="node">
<title>Node6</title>
<g id="a_Node000006"><a xlink:href="classcom_1_1teragrep_1_1pth__06_1_1metrics_1_1database_1_1ArchiveDatabaseRowMaxLatencyMetricAggregator.html" target="_top" xlink:title=" ">
<polygon fill="white" stroke="#666666" points="386,-366 121,-366 121,-336 386,-336 386,-366"/>
<text text-anchor="start" x="129" y="-354" font-family="Helvetica,sans-Serif" font-size="10.00">com.teragrep.pth_06.metrics.database.</text>
<text text-anchor="middle" x="253.5" y="-343" font-family="Helvetica,sans-Serif" font-size="10.00">ArchiveDatabaseRowMaxLatencyMetricAggregator</text>
</a>
</g>
</g>
<!-- Node0&#45;&gt;Node6 -->
<g id="edge51_Node000000_Node000006" class="edge">
<title>Node0&#45;&gt;Node6</title>
<g id="a_edge51_Node000000_Node000006"><a xlink:title=" ">
<path fill="none" stroke="#63b8ff" d="M81.29,-315.7C93.84,-319.65 107.94,-323.8 121,-327 134.19,-330.23 148.21,-333.24 162.01,-335.96"/>
<polygon fill="#63b8ff" stroke="#63b8ff" points="82.21,-312.32 71.62,-312.6 80.07,-318.98 82.21,-312.32"/>
</a>
</g>
</g>
<!-- Node7 -->
<g id="Node000007" class="node">
<title>Node7</title>
<g id="a_Node000007"><a xlink:href="classcom_1_1teragrep_1_1pth__06_1_1metrics_1_1database_1_1ArchiveDatabaseRowMinLatencyMetricAggregator.html" target="_top" xlink:title=" ">
<polygon fill="white" stroke="#666666" points="384.5,-318 122.5,-318 122.5,-288 384.5,-288 384.5,-318"/>
<text text-anchor="start" x="130.5" y="-306" font-family="Helvetica,sans-Serif" font-size="10.00">com.teragrep.pth_06.metrics.database.</text>
<text text-anchor="middle" x="253.5" y="-295" font-family="Helvetica,sans-Serif" font-size="10.00">ArchiveDatabaseRowMinLatencyMetricAggregator</text>
</a>
</g>
</g>
<!-- Node0&#45;&gt;Node7 -->
<g id="edge52_Node000000_Node000007" class="edge">
<title>Node0&#45;&gt;Node7</title>
<g id="a_edge52_Node000000_Node000007"><a xlink:title=" ">
<path fill="none" stroke="#63b8ff" d="M95.11,-303C103.64,-303 112.81,-303 122.28,-303"/>
<polygon fill="#63b8ff" stroke="#63b8ff" points="95.04,-299.5 85.04,-303 95.04,-306.5 95.04,-299.5"/>
</a>
</g>
</g>
<!-- Node8 -->
<g id="Node000008" class="node">
<title>Node8</title>
<g id="a_Node000008"><a xlink:href="classcom_1_1teragrep_1_1pth__06_1_1metrics_1_1objects_1_1ArchiveObjectsProcessedMetricAggregator.html" target="_top" xlink:title=" ">
<polygon fill="white" stroke="#666666" points="365.5,-270 141.5,-270 141.5,-240 365.5,-240 365.5,-270"/>
<text text-anchor="start" x="149.5" y="-258" font-family="Helvetica,sans-Serif" font-size="10.00">com.teragrep.pth_06.metrics.objects.</text>
<text text-anchor="middle" x="253.5" y="-247" font-family="Helvetica,sans-Serif" font-size="10.00">ArchiveObjectsProcessedMetricAggregator</text>
</a>
</g>
</g>
<!-- Node0&#45;&gt;Node8 -->
<g id="edge53_Node000000_Node000008" class="edge">
<title>Node0&#45;&gt;Node8</title>
<g id="a_edge53_Node000000_Node000008"><a xlink:title=" ">
<path fill="none" stroke="#63b8ff" d="M81.29,-290.3C93.84,-286.35 107.94,-282.2 121,-279 134.19,-275.77 148.21,-272.76 162.01,-270.04"/>
<polygon fill="#63b8ff" stroke="#63b8ff" points="80.07,-287.02 71.62,-293.4 82.21,-293.68 80.07,-287.02"/>
</a>
</g>
</g>
<!-- Node9 -->
<g id="Node000009" class="node">
<title>Node9</title>
<g id="a_Node000009"><a xlink:href="classcom_1_1teragrep_1_1pth__06_1_1metrics_1_1offsets_1_1ArchiveOffsetMetricAggregator.html" target="_top" xlink:title=" ">
<polygon fill="white" stroke="#666666" points="352,-222 155,-222 155,-192 352,-192 352,-222"/>
<text text-anchor="start" x="163" y="-210" font-family="Helvetica,sans-Serif" font-size="10.00">com.teragrep.pth_06.metrics.offsets.</text>
<text text-anchor="middle" x="253.5" y="-199" font-family="Helvetica,sans-Serif" font-size="10.00">ArchiveOffsetMetricAggregator</text>
</a>
</g>
</g>
<!-- Node0&#45;&gt;Node9 -->
<g id="edge54_Node000000_Node000009" class="edge">
<title>Node0&#45;&gt;Node9</title>
<g id="a_edge54_Node000000_Node000009"><a xlink:title=" ">
<path fill="none" stroke="#63b8ff" d="M57.14,-285.53C71.25,-268.76 94.85,-244.1 121,-231 131.58,-225.7 143.17,-221.55 154.93,-218.32"/>
<polygon fill="#63b8ff" stroke="#63b8ff" points="54.27,-283.52 50.66,-293.48 59.69,-287.94 54.27,-283.52"/>
</a>
</g>
</g>
<!-- Node10 -->
<g id="Node000010" class="node">
<title>Node10</title>
<g id="a_Node000010"><a xlink:href="classcom_1_1teragrep_1_1pth__06_1_1metrics_1_1offsets_1_1KafkaOffsetMetricAggregator.html" target="_top" xlink:title=" ">
<polygon fill="white" stroke="#666666" points="352,-174 155,-174 155,-144 352,-144 352,-174"/>
<text text-anchor="start" x="163" y="-162" font-family="Helvetica,sans-Serif" font-size="10.00">com.teragrep.pth_06.metrics.offsets.</text>
<text text-anchor="middle" x="253.5" y="-151" font-family="Helvetica,sans-Serif" font-size="10.00">KafkaOffsetMetricAggregator</text>
</a>
</g>
</g>
<!-- Node0&#45;&gt;Node10 -->
<g id="edge55_Node000000_Node000010" class="edge">
<title>Node0&#45;&gt;Node10</title>
<g id="a_edge55_Node000000_Node000010"><a xlink:title=" ">
<path fill="none" stroke="#63b8ff" d="M50.26,-283.75C60.85,-256.62 84.04,-207.69 121,-183 131.23,-176.17 142.86,-171.14 154.87,-167.45"/>
<polygon fill="#63b8ff" stroke="#63b8ff" points="46.92,-282.7 46.71,-293.3 53.48,-285.14 46.92,-282.7"/>
</a>
</g>
</g>
<!-- Node11 -->
<g id="Node000011" class="node">
<title>Node11</title>
<g id="a_Node000011"><a xlink:href="classcom_1_1teragrep_1_1pth__06_1_1metrics_1_1records_1_1LatestKafkaTimestampMetricAggregator.html" target="_top" xlink:title=" ">
<polygon fill="white" stroke="#666666" points="361,-126 146,-126 146,-96 361,-96 361,-126"/>
<text text-anchor="start" x="154" y="-114" font-family="Helvetica,sans-Serif" font-size="10.00">com.teragrep.pth_06.metrics.records.</text>
<text text-anchor="middle" x="253.5" y="-103" font-family="Helvetica,sans-Serif" font-size="10.00">LatestKafkaTimestampMetricAggregator</text>
</a>
</g>
</g>
<!-- Node0&#45;&gt;Node11 -->
<g id="edge56_Node000000_Node000011" class="edge">
<title>Node0&#45;&gt;Node11</title>
<g id="a_edge56_Node000000_Node000011"><a xlink:title=" ">
<path fill="none" stroke="#63b8ff" d="M46.64,-282.94C53.36,-247.13 72.67,-172.47 121,-135 128.52,-129.17 137,-124.59 145.95,-121.01"/>
<polygon fill="#63b8ff" stroke="#63b8ff" points="43.14,-282.65 44.88,-293.1 50.03,-283.85 43.14,-282.65"/>
</a>
</g>
</g>
<!-- Node12 -->
<g id="Node000012" class="node">
<title>Node12</title>
<g id="a_Node000012"><a xlink:href="classcom_1_1teragrep_1_1pth__06_1_1metrics_1_1records_1_1RecordsPerSecondMetricAggregator.html" target="_top" xlink:title=" ">
<polygon fill="white" stroke="#666666" points="353.5,-78 153.5,-78 153.5,-48 353.5,-48 353.5,-78"/>
<text text-anchor="start" x="161.5" y="-66" font-family="Helvetica,sans-Serif" font-size="10.00">com.teragrep.pth_06.metrics.records.</text>
<text text-anchor="middle" x="253.5" y="-55" font-family="Helvetica,sans-Serif" font-size="10.00">RecordsPerSecondMetricAggregator</text>
</a>
</g>
</g>
<!-- Node0&#45;&gt;Node12 -->
<g id="edge57_Node000000_Node000012" class="edge">
<title>Node0&#45;&gt;Node12</title>
<g id="a_edge57_Node000000_Node000012"><a xlink:title=" ">
<path fill="none" stroke="#63b8ff" d="M44.33,-283.13C47.27,-240.13 60.6,-138.22 121,-87 130.38,-79.04 141.51,-73.35 153.27,-69.33"/>
<polygon fill="#63b8ff" stroke="#63b8ff" points="40.82,-283.2 43.76,-293.38 47.81,-283.59 40.82,-283.2"/>
</a>
</g>
</g>
<!-- Node13 -->
<g id="Node000013" class="node">
<title>Node13</title>
<g id="a_Node000013"><a xlink:href="classcom_1_1teragrep_1_1pth__06_1_1metrics_1_1records_1_1RecordsProcessedMetricAggregator.html" target="_top" xlink:title=" ">
<polygon fill="white" stroke="#666666" points="353.5,-30 153.5,-30 153.5,0 353.5,0 353.5,-30"/>
<text text-anchor="start" x="161.5" y="-18" font-family="Helvetica,sans-Serif" font-size="10.00">com.teragrep.pth_06.metrics.records.</text>
<text text-anchor="middle" x="253.5" y="-7" font-family="Helvetica,sans-Serif" font-size="10.00">RecordsProcessedMetricAggregator</text>
</a>
</g>
</g>
<!-- Node0&#45;&gt;Node13 -->
<g id="edge58_Node000000_Node000013" class="edge">
<title>Node0&#45;&gt;Node13</title>
<g id="a_edge58_Node000000_Node000013"><a xlink:title=" ">
<path fill="none" stroke="#63b8ff" d="M42.83,-283.23C42.33,-233.84 48.37,-104.37 121,-39 130.31,-30.62 141.55,-24.7 153.48,-20.59"/>
<polygon fill="#63b8ff" stroke="#63b8ff" points="39.33,-283.32 43.04,-293.24 46.33,-283.17 39.33,-283.32"/>
</a>
</g>
</g>
</g>
</svg>
