<?xml version="1.0" encoding="UTF-8" standalone="no"?>
<!DOCTYPE svg PUBLIC "-//W3C//DTD SVG 1.1//EN"
 "http://www.w3.org/Graphics/SVG/1.1/DTD/svg11.dtd">
<!-- Generated by graphviz version 2.43.0 (0)
 -->
<!-- Title: com.teragrep.pth_06.jooq.generated.journaldb.tables.Logfile Pages: 1 -->
<svg width="835pt" height="85pt"
 viewBox="0.00 0.00 835.00 85.00" xmlns="http://www.w3.org/2000/svg" xmlns:xlink="http://www.w3.org/1999/xlink">
<g id="graph0" class="graph" transform="scale(1 1) rotate(0) translate(4 81)">
<title>com.teragrep.pth_06.jooq.generated.journaldb.tables.Logfile</title>
<!-- Node1 -->
<g id="Node000001" class="node">
<title>Node1</title>
<g id="a_Node000001"><a xlink:title="Contains information for log files that have been run through Log Archiver.">
<polygon fill="#999999" stroke="#666666" points="827,-77 548,-77 548,-47 827,-47 827,-77"/>
<text text-anchor="start" x="556" y="-65" font-family="Helvetica,sans-Serif" font-size="10.00">com.teragrep.pth_06.jooq.generated.journaldb.tables.</text>
<text text-anchor="middle" x="687.5" y="-54" font-family="Helvetica,sans-Serif" font-size="10.00">Logfile</text>
</a>
</g>
</g>
<!-- Node2 -->
<g id="Node000002" class="node">
<title>Node2</title>
<g id="a_Node000002"><a xlink:title=" ">
<polygon fill="white" stroke="#666666" points="152,-60.5 0,-60.5 0,-41.5 152,-41.5 152,-60.5"/>
<text text-anchor="middle" x="76" y="-48.5" font-family="Helvetica,sans-Serif" font-size="10.00">TableImpl&lt; LogfileRecord &gt;</text>
</a>
</g>
</g>
<!-- Node2&#45;&gt;Node1 -->
<g id="edge1_Node000001_Node000002" class="edge">
<title>Node2&#45;&gt;Node1</title>
<g id="a_edge1_Node000001_Node000002"><a xlink:title=" ">
<path fill="none" stroke="#63b8ff" d="M138.64,-62.06C154.96,-64.52 172.6,-66.76 189,-68 310.02,-77.13 448.05,-74.43 547.97,-70.14"/>
<polygon fill="#63b8ff" stroke="#63b8ff" points="139.09,-58.59 128.67,-60.51 138.01,-65.5 139.09,-58.59"/>
</a>
</g>
</g>
<!-- Node3 -->
<g id="Node000003" class="node">
<title>Node3</title>
<g id="a_Node000003"><a xlink:href="classcom_1_1teragrep_1_1pth__06_1_1jooq_1_1generated_1_1journaldb_1_1tables_1_1Logfile.html" target="_top" xlink:title="Contains information for log files that have been run through Log Archiver.">
<polygon fill="white" stroke="#666666" points="468,-30 189,-30 189,0 468,0 468,-30"/>
<text text-anchor="start" x="197" y="-18" font-family="Helvetica,sans-Serif" font-size="10.00">com.teragrep.pth_06.jooq.generated.journaldb.tables.</text>
<text text-anchor="middle" x="328.5" y="-7" font-family="Helvetica,sans-Serif" font-size="10.00">Logfile</text>
</a>
</g>
</g>
<!-- Node2&#45;&gt;Node3 -->
<g id="edge3_Node000003_Node000002" class="edge">
<title>Node2&#45;&gt;Node3</title>
<g id="a_edge3_Node000003_Node000002"><a xlink:title=" ">
<path fill="none" stroke="#63b8ff" d="M153.1,-40.06C175.16,-36.89 199.65,-33.37 223.12,-30"/>
<polygon fill="#63b8ff" stroke="#63b8ff" points="152.54,-36.61 143.14,-41.49 153.54,-43.54 152.54,-36.61"/>
</a>
</g>
</g>
<!-- Node3&#45;&gt;Node1 -->
<g id="edge2_Node000001_Node000003" class="edge">
<title>Node3&#45;&gt;Node1</title>
<g id="a_edge2_Node000001_Node000003"><a xlink:title=" ">
<path fill="none" stroke="#9a32cd" stroke-dasharray="5,2" d="M453.68,-31.35C492.26,-36.43 534.57,-42 572.42,-46.98"/>
<polygon fill="#9a32cd" stroke="#9a32cd" points="453.81,-27.84 443.44,-30 452.9,-34.78 453.81,-27.84"/>
</a>
</g>
<text text-anchor="middle" x="508" y="-44" font-family="Helvetica,sans-Serif" font-size="10.00" fill="grey"> LOGFILE</text>
</g>
<!-- Node3&#45;&gt;Node3 -->
<g id="edge4_Node000003_Node000003" class="edge">
<title>Node3&#45;&gt;Node3</title>
<g id="a_edge4_Node000003_Node000003"><a xlink:title=" ">
<path fill="none" stroke="#9a32cd" stroke-dasharray="5,2" d="M300.84,-40.6C304.62,-44.97 313.84,-48 328.5,-48 353.19,-48 362.45,-39.41 356.27,-30.28"/>
<polygon fill="#9a32cd" stroke="#9a32cd" points="304.34,-40.23 300.73,-30.28 297.34,-40.31 304.34,-40.23"/>
</a>
</g>
<text text-anchor="middle" x="328.5" y="-51" font-family="Helvetica,sans-Serif" font-size="10.00" fill="grey"> LOGFILE</text>
</g>
</g>
</svg>
