<?xml version="1.0" encoding="UTF-8" standalone="no"?>
<!DOCTYPE svg PUBLIC "-//W3C//DTD SVG 1.1//EN"
 "http://www.w3.org/Graphics/SVG/1.1/DTD/svg11.dtd">
<!-- Generated by graphviz version 2.43.0 (0)
 -->
<!-- Title: com.teragrep.pth_06.jooq.generated.streamdb.tables.records.StreamRecord Pages: 1 -->
<svg width="497pt" height="98pt"
 viewBox="0.00 0.00 497.00 97.50" xmlns="http://www.w3.org/2000/svg" xmlns:xlink="http://www.w3.org/1999/xlink">
<g id="graph0" class="graph" transform="scale(1 1) rotate(0) translate(4 93.5)">
<title>com.teragrep.pth_06.jooq.generated.streamdb.tables.records.StreamRecord</title>
<!-- Node1 -->
<g id="Node000001" class="node">
<title>Node1</title>
<g id="a_Node000001"><a xlink:title="This class is generated by jOOQ.">
<polygon fill="#999999" stroke="#666666" points="489,-62.5 170,-62.5 170,-32.5 489,-32.5 489,-62.5"/>
<text text-anchor="start" x="178" y="-50.5" font-family="Helvetica,sans-Serif" font-size="10.00">com.teragrep.pth_06.jooq.generated.streamdb.tables.records.</text>
<text text-anchor="middle" x="329.5" y="-39.5" font-family="Helvetica,sans-Serif" font-size="10.00">StreamRecord</text>
</a>
</g>
</g>
<!-- Node2 -->
<g id="Node000002" class="node">
<title>Node2</title>
<g id="a_Node000002"><a xlink:title=" ">
<polygon fill="white" stroke="#666666" points="128,-89.5 6,-89.5 6,-59.5 128,-59.5 128,-89.5"/>
<text text-anchor="start" x="14" y="-77.5" font-family="Helvetica,sans-Serif" font-size="10.00">UpdatableRecordImpl</text>
<text text-anchor="middle" x="67" y="-66.5" font-family="Helvetica,sans-Serif" font-size="10.00">&lt; StreamRecord &gt;</text>
</a>
</g>
</g>
<!-- Node2&#45;&gt;Node1 -->
<g id="edge1_Node000001_Node000002" class="edge">
<title>Node2&#45;&gt;Node1</title>
<g id="a_edge1_Node000001_Node000002"><a xlink:title=" ">
<path fill="none" stroke="#63b8ff" d="M138.24,-67.22C152.49,-65.74 167.97,-64.14 183.74,-62.5"/>
<polygon fill="#63b8ff" stroke="#63b8ff" points="137.68,-63.76 128.09,-68.27 138.4,-70.72 137.68,-63.76"/>
</a>
</g>
</g>
<!-- Node3 -->
<g id="Node000003" class="node">
<title>Node3</title>
<g id="a_Node000003"><a xlink:title=" ">
<polygon fill="white" stroke="#666666" points="134,-41 0,-41 0,0 134,0 134,-41"/>
<text text-anchor="start" x="8" y="-29" font-family="Helvetica,sans-Serif" font-size="10.00">Record5&lt; UInteger,</text>
<text text-anchor="start" x="8" y="-18" font-family="Helvetica,sans-Serif" font-size="10.00"> UInteger, String, String,</text>
<text text-anchor="middle" x="67" y="-7" font-family="Helvetica,sans-Serif" font-size="10.00"> String &gt;</text>
</a>
</g>
</g>
<!-- Node3&#45;&gt;Node1 -->
<g id="edge2_Node000001_Node000003" class="edge">
<title>Node3&#45;&gt;Node1</title>
<g id="a_edge2_Node000001_Node000003"><a xlink:title=" ">
<path fill="none" stroke="#63b8ff" d="M144.38,-28.42C156.89,-29.71 170.2,-31.09 183.72,-32.49"/>
<polygon fill="#63b8ff" stroke="#63b8ff" points="144.38,-24.9 134.07,-27.35 143.66,-31.86 144.38,-24.9"/>
</a>
</g>
</g>
</g>
</svg>
