<?xml version="1.0" encoding="UTF-8" standalone="no"?>
<!DOCTYPE svg PUBLIC "-//W3C//DTD SVG 1.1//EN"
 "http://www.w3.org/Graphics/SVG/1.1/DTD/svg11.dtd">
<!-- Generated by graphviz version 2.43.0 (0)
 -->
<!-- Title: com.teragrep.pth_06.jooq.generated.streamdb.tables.Host Pages: 1 -->
<svg width="522pt" height="149pt"
 viewBox="0.00 0.00 522.00 149.00" xmlns="http://www.w3.org/2000/svg" xmlns:xlink="http://www.w3.org/1999/xlink">
<g id="graph0" class="graph" transform="scale(1 1) rotate(0) translate(4 145)">
<title>com.teragrep.pth_06.jooq.generated.streamdb.tables.Host</title>
<!-- Node1 -->
<g id="Node000001" class="node">
<title>Node1</title>
<g id="a_Node000001"><a xlink:title="This class is generated by jOOQ.">
<polygon fill="#999999" stroke="#666666" points="302,-19 0,-19 0,0 302,0 302,-19"/>
<text text-anchor="middle" x="151" y="-7" font-family="Helvetica,sans-Serif" font-size="10.00">com.teragrep.pth_06.jooq.generated.streamdb.tables.Host</text>
</a>
</g>
</g>
<!-- Node2 -->
<g id="Node000002" class="node">
<title>Node2</title>
<g id="a_Node000002"><a xlink:title=" ">
<polygon fill="white" stroke="#666666" points="218.5,-141 75.5,-141 75.5,-122 218.5,-122 218.5,-141"/>
<text text-anchor="middle" x="147" y="-129" font-family="Helvetica,sans-Serif" font-size="10.00">TableImpl&lt; HostRecord &gt;</text>
</a>
</g>
</g>
<!-- Node2&#45;&gt;Node1 -->
<g id="edge1_Node000001_Node000002" class="edge">
<title>Node2&#45;&gt;Node1</title>
<g id="a_edge1_Node000001_Node000002"><a xlink:title=" ">
<path fill="none" stroke="#63b8ff" d="M147.63,-111.65C148.51,-85.22 150.07,-38.26 150.71,-19.05"/>
<polygon fill="#63b8ff" stroke="#63b8ff" points="144.12,-111.76 147.29,-121.87 151.12,-111.99 144.12,-111.76"/>
</a>
</g>
</g>
<!-- Node3 -->
<g id="Node000003" class="node">
<title>Node3</title>
<g id="a_Node000003"><a xlink:href="classcom_1_1teragrep_1_1pth__06_1_1jooq_1_1generated_1_1streamdb_1_1tables_1_1Host.html" target="_top" xlink:title="This class is generated by jOOQ.">
<polygon fill="white" stroke="#666666" points="465,-85 163,-85 163,-66 465,-66 465,-85"/>
<text text-anchor="middle" x="314" y="-73" font-family="Helvetica,sans-Serif" font-size="10.00">com.teragrep.pth_06.jooq.generated.streamdb.tables.Host</text>
</a>
</g>
</g>
<!-- Node2&#45;&gt;Node3 -->
<g id="edge3_Node000003_Node000002" class="edge">
<title>Node2&#45;&gt;Node3</title>
<g id="a_edge3_Node000003_Node000002"><a xlink:title=" ">
<path fill="none" stroke="#63b8ff" d="M183.17,-118.8C214.64,-108.63 259.49,-94.12 287.66,-85.02"/>
<polygon fill="#63b8ff" stroke="#63b8ff" points="181.9,-115.54 173.46,-121.94 184.05,-122.2 181.9,-115.54"/>
</a>
</g>
</g>
<!-- Node3&#45;&gt;Node1 -->
<g id="edge2_Node000001_Node000003" class="edge">
<title>Node3&#45;&gt;Node1</title>
<g id="a_edge2_Node000001_Node000003"><a xlink:title=" ">
<path fill="none" stroke="#9a32cd" stroke-dasharray="5,2" d="M282.61,-62.18C250.4,-49.53 201.12,-30.18 172.89,-19.1"/>
<polygon fill="#9a32cd" stroke="#9a32cd" points="281.43,-65.47 292.02,-65.87 283.99,-58.96 281.43,-65.47"/>
</a>
</g>
<text text-anchor="middle" x="257.5" y="-40" font-family="Helvetica,sans-Serif" font-size="10.00" fill="grey"> HOST</text>
</g>
<!-- Node3&#45;&gt;Node3 -->
<g id="edge4_Node000003_Node000003" class="edge">
<title>Node3&#45;&gt;Node3</title>
<g id="a_edge4_Node000003_Node000003"><a xlink:title=" ">
<path fill="none" stroke="#9a32cd" stroke-dasharray="5,2" d="M475.26,-78.29C480.2,-77.53 483,-76.6 483,-75.5 483,-73.78 476.18,-72.48 465.05,-71.6"/>
<polygon fill="#9a32cd" stroke="#9a32cd" points="474.61,-74.84 465.05,-79.4 475.37,-81.8 474.61,-74.84"/>
</a>
</g>
<text text-anchor="middle" x="498.5" y="-73" font-family="Helvetica,sans-Serif" font-size="10.00" fill="grey"> HOST</text>
</g>
</g>
</svg>
