<?xml version="1.0" encoding="UTF-8" standalone="no"?>
<!DOCTYPE svg PUBLIC "-//W3C//DTD SVG 1.1//EN"
 "http://www.w3.org/Graphics/SVG/1.1/DTD/svg11.dtd">
<!-- Generated by graphviz version 2.43.0 (0)
 -->
<!-- Title: com.teragrep.pth_06.scheduler.BatchUnit Pages: 1 -->
<svg width="625pt" height="198pt"
 viewBox="0.00 0.00 625.00 197.68" xmlns="http://www.w3.org/2000/svg" xmlns:xlink="http://www.w3.org/1999/xlink">
<g id="graph0" class="graph" transform="scale(1 1) rotate(0) translate(4 193.68)">
<title>com.teragrep.pth_06.scheduler.BatchUnit</title>
<!-- Node1 -->
<g id="Node000001" class="node">
<title>Node1</title>
<g id="a_Node000001"><a xlink:title=" ">
<polygon fill="#999999" stroke="#666666" points="617,-116 447,-116 447,-86 617,-86 617,-116"/>
<text text-anchor="start" x="455" y="-104" font-family="Helvetica,sans-Serif" font-size="10.00">com.teragrep.pth_06.scheduler.</text>
<text text-anchor="middle" x="532" y="-93" font-family="Helvetica,sans-Serif" font-size="10.00">BatchUnit</text>
</a>
</g>
</g>
<!-- Node2 -->
<g id="Node000002" class="node">
<title>Node2</title>
<g id="a_Node000002"><a xlink:title=" ">
<polygon fill="white" stroke="#666666" points="74,-158.5 0,-158.5 0,-139.5 74,-139.5 74,-158.5"/>
<text text-anchor="middle" x="37" y="-146.5" font-family="Helvetica,sans-Serif" font-size="10.00">Serializable</text>
</a>
</g>
</g>
<!-- Node2&#45;&gt;Node1 -->
<g id="edge1_Node000001_Node000002" class="edge">
<title>Node2&#45;&gt;Node1</title>
<g id="a_edge1_Node000001_Node000002"><a xlink:title=" ">
<path fill="none" stroke="#63b8ff" d="M70.38,-162.1C82.86,-166.49 97.38,-170.82 111,-173 250.75,-195.38 293.97,-198.43 429,-156 458.37,-146.77 489.06,-128.93 509.01,-116.06"/>
<polygon fill="#63b8ff" stroke="#63b8ff" points="71.47,-158.76 60.87,-158.6 69.05,-165.34 71.47,-158.76"/>
</a>
</g>
</g>
<!-- Node5 -->
<g id="Node000005" class="node">
<title>Node5</title>
<g id="a_Node000005"><a xlink:href="classcom_1_1teragrep_1_1pth__06_1_1ArchiveS3ObjectMetadata.html" target="_top" xlink:title=" ">
<polygon fill="white" stroke="#666666" points="275,-164 117,-164 117,-134 275,-134 275,-164"/>
<text text-anchor="start" x="125" y="-152" font-family="Helvetica,sans-Serif" font-size="10.00">com.teragrep.pth_06.Archive</text>
<text text-anchor="middle" x="196" y="-141" font-family="Helvetica,sans-Serif" font-size="10.00">S3ObjectMetadata</text>
</a>
</g>
</g>
<!-- Node2&#45;&gt;Node5 -->
<g id="edge5_Node000005_Node000002" class="edge">
<title>Node2&#45;&gt;Node5</title>
<g id="a_edge5_Node000005_Node000002"><a xlink:title=" ">
<path fill="none" stroke="#63b8ff" d="M84.03,-149C94.39,-149 105.66,-149 116.92,-149"/>
<polygon fill="#63b8ff" stroke="#63b8ff" points="84.02,-145.5 74.02,-149 84.02,-152.5 84.02,-145.5"/>
</a>
</g>
</g>
<!-- Node6 -->
<g id="Node000006" class="node">
<title>Node6</title>
<g id="a_Node000006"><a xlink:href="classcom_1_1teragrep_1_1pth__06_1_1KafkaTopicPartitionOffsetMetadata.html" target="_top" xlink:title=" ">
<polygon fill="white" stroke="#666666" points="275,-116 117,-116 117,-86 275,-86 275,-116"/>
<text text-anchor="start" x="125" y="-104" font-family="Helvetica,sans-Serif" font-size="10.00">com.teragrep.pth_06.Kafka</text>
<text text-anchor="middle" x="196" y="-93" font-family="Helvetica,sans-Serif" font-size="10.00">TopicPartitionOffsetMetadata</text>
</a>
</g>
</g>
<!-- Node2&#45;&gt;Node6 -->
<g id="edge7_Node000006_Node000002" class="edge">
<title>Node2&#45;&gt;Node6</title>
<g id="a_edge7_Node000006_Node000002"><a xlink:title=" ">
<path fill="none" stroke="#63b8ff" d="M75.9,-136.22C87.17,-132.51 99.56,-128.51 111,-125 120.71,-122.02 131.1,-118.95 141.13,-116.05"/>
<polygon fill="#63b8ff" stroke="#63b8ff" points="74.74,-132.92 66.34,-139.39 76.94,-139.57 74.74,-132.92"/>
</a>
</g>
</g>
<!-- Node3 -->
<g id="Node000003" class="node">
<title>Node3</title>
<g id="a_Node000003"><a xlink:title=" ">
<polygon fill="white" stroke="#666666" points="269,-67.5 123,-67.5 123,-48.5 269,-48.5 269,-67.5"/>
<text text-anchor="middle" x="196" y="-55.5" font-family="Helvetica,sans-Serif" font-size="10.00">Comparable&lt; BatchUnit &gt;</text>
</a>
</g>
</g>
<!-- Node3&#45;&gt;Node1 -->
<g id="edge2_Node000001_Node000003" class="edge">
<title>Node3&#45;&gt;Node1</title>
<g id="a_edge2_Node000001_Node000003"><a xlink:title=" ">
<path fill="none" stroke="#63b8ff" d="M279.07,-68.57C330.11,-75.14 395.58,-83.57 446.98,-90.18"/>
<polygon fill="#63b8ff" stroke="#63b8ff" points="279.43,-65.08 269.06,-67.28 278.53,-72.03 279.43,-65.08"/>
</a>
</g>
</g>
<!-- Node4 -->
<g id="Node000004" class="node">
<title>Node4</title>
<g id="a_Node000004"><a xlink:href="enumcom_1_1teragrep_1_1pth__06_1_1scheduler_1_1BatchUnit_1_1Type.html" target="_top" xlink:title=" ">
<polygon fill="white" stroke="#666666" points="281,-30 111,-30 111,0 281,0 281,-30"/>
<text text-anchor="start" x="119" y="-18" font-family="Helvetica,sans-Serif" font-size="10.00">com.teragrep.pth_06.scheduler.</text>
<text text-anchor="middle" x="196" y="-7" font-family="Helvetica,sans-Serif" font-size="10.00">BatchUnit.Type</text>
</a>
</g>
</g>
<!-- Node4&#45;&gt;Node1 -->
<g id="edge3_Node000001_Node000004" class="edge">
<title>Node4&#45;&gt;Node1</title>
<g id="a_edge3_Node000001_Node000004"><a xlink:title=" ">
<path fill="none" stroke="#9a32cd" stroke-dasharray="5,2" d="M291.13,-27.05C333.76,-33.77 384.47,-43.56 429,-57 453.92,-64.52 480.93,-76.35 500.88,-85.85"/>
<polygon fill="#9a32cd" stroke="#9a32cd" points="291.45,-23.56 281.04,-25.49 290.39,-30.48 291.45,-23.56"/>
</a>
</g>
<text text-anchor="middle" x="364" y="-60" font-family="Helvetica,sans-Serif" font-size="10.00" fill="grey"> type</text>
</g>
<!-- Node5&#45;&gt;Node1 -->
<g id="edge4_Node000001_Node000005" class="edge">
<title>Node5&#45;&gt;Node1</title>
<g id="a_edge4_Node000001_Node000005"><a xlink:title=" ">
<path fill="none" stroke="#9a32cd" stroke-dasharray="5,2" d="M285.21,-143.21C328.7,-139.6 381.81,-134.08 429,-126 444.28,-123.38 460.65,-119.75 475.71,-116.06"/>
<polygon fill="#9a32cd" stroke="#9a32cd" points="284.92,-139.72 275.23,-144.02 285.48,-146.7 284.92,-139.72"/>
</a>
</g>
<text text-anchor="middle" x="364" y="-144" font-family="Helvetica,sans-Serif" font-size="10.00" fill="grey"> archiveS3ObjectMetadata</text>
</g>
<!-- Node6&#45;&gt;Node1 -->
<g id="edge6_Node000001_Node000006" class="edge">
<title>Node6&#45;&gt;Node1</title>
<g id="a_edge6_Node000001_Node000006"><a xlink:title=" ">
<path fill="none" stroke="#9a32cd" stroke-dasharray="5,2" d="M285.45,-101C335.41,-101 397.5,-101 446.75,-101"/>
<polygon fill="#9a32cd" stroke="#9a32cd" points="285.31,-97.5 275.31,-101 285.31,-104.5 285.31,-97.5"/>
</a>
</g>
<text text-anchor="start" x="302" y="-115" font-family="Helvetica,sans-Serif" font-size="10.00" fill="grey"> kafkaTopicPartitionOffset</text>
<text text-anchor="middle" x="364" y="-104" font-family="Helvetica,sans-Serif" font-size="10.00" fill="grey">Metadata</text>
</g>
</g>
</svg>
