<?xml version="1.0" encoding="UTF-8" standalone="no"?>
<!DOCTYPE svg PUBLIC "-//W3C//DTD SVG 1.1//EN"
 "http://www.w3.org/Graphics/SVG/1.1/DTD/svg11.dtd">
<!-- Generated by graphviz version 2.43.0 (0)
 -->
<!-- Title: com.teragrep.pth_06.jooq.generated.bloomdb.Bloomdb Pages: 1 -->
<svg width="457pt" height="171pt"
 viewBox="0.00 0.00 457.00 171.00" xmlns="http://www.w3.org/2000/svg" xmlns:xlink="http://www.w3.org/1999/xlink">
<g id="graph0" class="graph" transform="scale(1 1) rotate(0) translate(4 167)">
<title>com.teragrep.pth_06.jooq.generated.bloomdb.Bloomdb</title>
<!-- Node1 -->
<g id="Node000001" class="node">
<title>Node1</title>
<g id="a_Node000001"><a xlink:title="This class is generated by jOOQ.">
<polygon fill="#999999" stroke="#666666" points="243,-30 0,-30 0,0 243,0 243,-30"/>
<text text-anchor="start" x="8" y="-18" font-family="Helvetica,sans-Serif" font-size="10.00">com.teragrep.pth_06.jooq.generated.bloomdb.</text>
<text text-anchor="middle" x="121.5" y="-7" font-family="Helvetica,sans-Serif" font-size="10.00">Bloomdb</text>
</a>
</g>
</g>
<!-- Node2 -->
<g id="Node000002" class="node">
<title>Node2</title>
<g id="a_Node000002"><a xlink:title=" ">
<polygon fill="white" stroke="#666666" points="156,-163 79,-163 79,-144 156,-144 156,-163"/>
<text text-anchor="middle" x="117.5" y="-151" font-family="Helvetica,sans-Serif" font-size="10.00">SchemaImpl</text>
</a>
</g>
</g>
<!-- Node2&#45;&gt;Node1 -->
<g id="edge1_Node000001_Node000002" class="edge">
<title>Node2&#45;&gt;Node1</title>
<g id="a_edge1_Node000001_Node000002"><a xlink:title=" ">
<path fill="none" stroke="#63b8ff" d="M118.05,-133.65C118.87,-105.91 120.37,-54.7 121.09,-30.02"/>
<polygon fill="#63b8ff" stroke="#63b8ff" points="114.54,-133.86 117.75,-143.96 121.54,-134.07 114.54,-133.86"/>
</a>
</g>
</g>
<!-- Node3 -->
<g id="Node000003" class="node">
<title>Node3</title>
<g id="a_Node000003"><a xlink:href="classcom_1_1teragrep_1_1pth__06_1_1jooq_1_1generated_1_1bloomdb_1_1Bloomdb.html" target="_top" xlink:title="This class is generated by jOOQ.">
<polygon fill="white" stroke="#666666" points="377,-107 134,-107 134,-77 377,-77 377,-107"/>
<text text-anchor="start" x="142" y="-95" font-family="Helvetica,sans-Serif" font-size="10.00">com.teragrep.pth_06.jooq.generated.bloomdb.</text>
<text text-anchor="middle" x="255.5" y="-84" font-family="Helvetica,sans-Serif" font-size="10.00">Bloomdb</text>
</a>
</g>
</g>
<!-- Node2&#45;&gt;Node3 -->
<g id="edge3_Node000003_Node000002" class="edge">
<title>Node2&#45;&gt;Node3</title>
<g id="a_edge3_Node000003_Node000002"><a xlink:title=" ">
<path fill="none" stroke="#63b8ff" d="M146.58,-139.96C168.94,-130.32 199.81,-117.01 222.98,-107.02"/>
<polygon fill="#63b8ff" stroke="#63b8ff" points="145.07,-136.8 137.27,-143.98 147.84,-143.23 145.07,-136.8"/>
</a>
</g>
</g>
<!-- Node3&#45;&gt;Node1 -->
<g id="edge2_Node000001_Node000003" class="edge">
<title>Node3&#45;&gt;Node1</title>
<g id="a_edge2_Node000001_Node000003"><a xlink:title=" ">
<path fill="none" stroke="#9a32cd" stroke-dasharray="5,2" d="M221.42,-71.93C198.1,-58.88 167.71,-41.86 146.59,-30.04"/>
<polygon fill="#9a32cd" stroke="#9a32cd" points="219.86,-75.06 230.3,-76.89 223.28,-68.95 219.86,-75.06"/>
</a>
</g>
<text text-anchor="middle" x="223.5" y="-51" font-family="Helvetica,sans-Serif" font-size="10.00" fill="grey"> BLOOMDB</text>
</g>
<!-- Node3&#45;&gt;Node3 -->
<g id="edge4_Node000003_Node000003" class="edge">
<title>Node3&#45;&gt;Node3</title>
<g id="a_edge4_Node000003_Node000003"><a xlink:title=" ">
<path fill="none" stroke="#9a32cd" stroke-dasharray="5,2" d="M387.4,-95.43C392.23,-94.52 395,-93.38 395,-92 395,-89.84 388.24,-88.27 377.46,-87.27"/>
<polygon fill="#9a32cd" stroke="#9a32cd" points="386.93,-91.96 377.46,-96.73 387.83,-98.9 386.93,-91.96"/>
</a>
</g>
<text text-anchor="middle" x="422" y="-89.5" font-family="Helvetica,sans-Serif" font-size="10.00" fill="grey"> BLOOMDB</text>
</g>
</g>
</svg>
