<?xml version="1.0" encoding="UTF-8" standalone="no"?>
<!DOCTYPE svg PUBLIC "-//W3C//DTD SVG 1.1//EN"
 "http://www.w3.org/Graphics/SVG/1.1/DTD/svg11.dtd">
<!-- Generated by graphviz version 2.43.0 (0)
 -->
<!-- Title: com.teragrep.pth_06.planner.MockArchiveQueryProcessor.incrementAndGetLatestOffset Pages: 1 -->
<svg width="425pt" height="86pt"
 viewBox="0.00 0.00 425.00 86.00" xmlns="http://www.w3.org/2000/svg" xmlns:xlink="http://www.w3.org/1999/xlink">
<g id="graph0" class="graph" transform="scale(1 1) rotate(0) translate(4 82)">
<title>com.teragrep.pth_06.planner.MockArchiveQueryProcessor.incrementAndGetLatestOffset</title>
<!-- Node1 -->
<g id="Node000001" class="node">
<title>Node1</title>
<g id="a_Node000001"><a xlink:title=" ">
<polygon fill="#999999" stroke="#666666" points="208,-59.5 0,-59.5 0,-18.5 208,-18.5 208,-59.5"/>
<text text-anchor="start" x="8" y="-47.5" font-family="Helvetica,sans-Serif" font-size="10.00">com.teragrep.pth_06.planner.</text>
<text text-anchor="start" x="8" y="-36.5" font-family="Helvetica,sans-Serif" font-size="10.00">MockArchiveQueryProcessor.increment</text>
<text text-anchor="middle" x="104" y="-25.5" font-family="Helvetica,sans-Serif" font-size="10.00">AndGetLatestOffset</text>
</a>
</g>
</g>
<!-- Node2 -->
<g id="Node000002" class="node">
<title>Node2</title>
<g id="a_Node000002"><a xlink:href="interfacecom_1_1teragrep_1_1pth__06_1_1planner_1_1TestDataSource.html#a0451af2e47a9ebb3bc3de168cc710e02" target="_top" xlink:title=" ">
<polygon fill="white" stroke="#666666" points="417,-78 244,-78 244,-48 417,-48 417,-78"/>
<text text-anchor="start" x="252" y="-66" font-family="Helvetica,sans-Serif" font-size="10.00">com.teragrep.pth_06.planner.</text>
<text text-anchor="middle" x="330.5" y="-55" font-family="Helvetica,sans-Serif" font-size="10.00">TestDataSource.asPriorityQueue</text>
</a>
</g>
</g>
<!-- Node1&#45;&gt;Node2 -->
<g id="edge1_Node000001_Node000002" class="edge">
<title>Node1&#45;&gt;Node2</title>
<g id="a_edge1_Node000001_Node000002"><a xlink:title=" ">
<path fill="none" stroke="#63b8ff" d="M208.05,-50.02C216.67,-50.94 225.36,-51.87 233.91,-52.78"/>
<polygon fill="#63b8ff" stroke="#63b8ff" points="233.57,-56.26 243.89,-53.85 234.31,-49.3 233.57,-56.26"/>
</a>
</g>
</g>
<!-- Node3 -->
<g id="Node000003" class="node">
<title>Node3</title>
<g id="a_Node000003"><a xlink:href="interfacecom_1_1teragrep_1_1pth__06_1_1planner_1_1MockDBRow.html#abbdec5d031093faa980c5b0e86dbaa7e" target="_top" xlink:title=" ">
<polygon fill="white" stroke="#666666" points="410.5,-30 250.5,-30 250.5,0 410.5,0 410.5,-30"/>
<text text-anchor="start" x="258.5" y="-18" font-family="Helvetica,sans-Serif" font-size="10.00">com.teragrep.pth_06.planner.</text>
<text text-anchor="middle" x="330.5" y="-7" font-family="Helvetica,sans-Serif" font-size="10.00">MockDBRow.logtime</text>
</a>
</g>
</g>
<!-- Node1&#45;&gt;Node3 -->
<g id="edge2_Node000001_Node000003" class="edge">
<title>Node1&#45;&gt;Node3</title>
<g id="a_edge2_Node000001_Node000003"><a xlink:title=" ">
<path fill="none" stroke="#63b8ff" d="M208.05,-27.98C218.8,-26.83 229.65,-25.67 240.23,-24.54"/>
<polygon fill="#63b8ff" stroke="#63b8ff" points="240.69,-28.01 250.26,-23.47 239.95,-21.05 240.69,-28.01"/>
</a>
</g>
</g>
</g>
</svg>
