<?xml version="1.0" encoding="UTF-8" standalone="no"?>
<!DOCTYPE svg PUBLIC "-//W3C//DTD SVG 1.1//EN"
 "http://www.w3.org/Graphics/SVG/1.1/DTD/svg11.dtd">
<!-- Generated by graphviz version 2.43.0 (0)
 -->
<!-- Title: com.teragrep.pth_06.EpochMigrationTest Pages: 1 -->
<svg width="351pt" height="203pt"
 viewBox="0.00 0.00 351.00 203.00" xmlns="http://www.w3.org/2000/svg" xmlns:xlink="http://www.w3.org/1999/xlink">
<g id="graph0" class="graph" transform="scale(1 1) rotate(0) translate(4 199)">
<title>com.teragrep.pth_06.EpochMigrationTest</title>
<!-- Node1 -->
<g id="Node000001" class="node">
<title>Node1</title>
<g id="a_Node000001"><a xlink:title=" ">
<polygon fill="#999999" stroke="#666666" points="150,-30 0,-30 0,0 150,0 150,-30"/>
<text text-anchor="start" x="8" y="-18" font-family="Helvetica,sans-Serif" font-size="10.00">com.teragrep.pth_06.Epoch</text>
<text text-anchor="middle" x="75" y="-7" font-family="Helvetica,sans-Serif" font-size="10.00">MigrationTest</text>
</a>
</g>
</g>
<!-- Node2 -->
<g id="Node000002" class="node">
<title>Node2</title>
<g id="a_Node000002"><a xlink:href="classcom_1_1teragrep_1_1pth__06_1_1MockS3Configuration.html" target="_top" xlink:title=" ">
<polygon fill="white" stroke="#666666" points="148.5,-195 1.5,-195 1.5,-165 148.5,-165 148.5,-195"/>
<text text-anchor="start" x="9.5" y="-183" font-family="Helvetica,sans-Serif" font-size="10.00">com.teragrep.pth_06.Mock</text>
<text text-anchor="middle" x="75" y="-172" font-family="Helvetica,sans-Serif" font-size="10.00">S3Configuration</text>
</a>
</g>
</g>
<!-- Node2&#45;&gt;Node1 -->
<g id="edge1_Node000001_Node000002" class="edge">
<title>Node2&#45;&gt;Node1</title>
<g id="a_edge1_Node000001_Node000002"><a xlink:title=" ">
<path fill="none" stroke="#9a32cd" stroke-dasharray="5,2" d="M72.06,-154.7C70.85,-143.54 69.59,-130.12 69,-118 67.46,-86.64 70.92,-49.88 73.2,-30.19"/>
<polygon fill="#9a32cd" stroke="#9a32cd" points="68.62,-155.44 73.23,-164.98 75.57,-154.65 68.62,-155.44"/>
</a>
</g>
<text text-anchor="middle" x="123" y="-100.5" font-family="Helvetica,sans-Serif" font-size="10.00" fill="grey"> mockS3Configuration</text>
</g>
<!-- Node3 -->
<g id="Node000003" class="node">
<title>Node3</title>
<g id="a_Node000003"><a xlink:href="classcom_1_1teragrep_1_1pth__06_1_1MockS3DataProvider.html" target="_top" xlink:title=" ">
<polygon fill="white" stroke="#666666" points="332.5,-118 185.5,-118 185.5,-88 332.5,-88 332.5,-118"/>
<text text-anchor="start" x="193.5" y="-106" font-family="Helvetica,sans-Serif" font-size="10.00">com.teragrep.pth_06.Mock</text>
<text text-anchor="middle" x="259" y="-95" font-family="Helvetica,sans-Serif" font-size="10.00">S3DataProvider</text>
</a>
</g>
</g>
<!-- Node2&#45;&gt;Node3 -->
<g id="edge3_Node000003_Node000002" class="edge">
<title>Node2&#45;&gt;Node3</title>
<g id="a_edge3_Node000003_Node000002"><a xlink:title=" ">
<path fill="none" stroke="#9a32cd" stroke-dasharray="5,2" d="M119.26,-160.96C151.59,-147.78 194.78,-130.18 224.55,-118.04"/>
<polygon fill="#9a32cd" stroke="#9a32cd" points="117.55,-157.88 109.61,-164.89 120.19,-164.36 117.55,-157.88"/>
</a>
</g>
<text text-anchor="middle" x="232" y="-139" font-family="Helvetica,sans-Serif" font-size="10.00" fill="grey"> mockS3Configuration</text>
</g>
<!-- Node3&#45;&gt;Node1 -->
<g id="edge2_Node000001_Node000003" class="edge">
<title>Node3&#45;&gt;Node1</title>
<g id="a_edge2_Node000001_Node000003"><a xlink:title=" ">
<path fill="none" stroke="#9a32cd" stroke-dasharray="5,2" d="M219.76,-83.66C185.41,-67.6 136.23,-44.62 104.96,-30"/>
<polygon fill="#9a32cd" stroke="#9a32cd" points="218.49,-86.93 229.03,-87.99 221.45,-80.59 218.49,-86.93"/>
</a>
</g>
<text text-anchor="middle" x="265.5" y="-62" font-family="Helvetica,sans-Serif" font-size="10.00" fill="grey"> mockS3DataProvider</text>
<text text-anchor="middle" x="265.5" y="-51" font-family="Helvetica,sans-Serif" font-size="10.00" fill="grey">mockS3NonSyslogDataProvider</text>
</g>
</g>
</svg>
