<?xml version="1.0" encoding="UTF-8" standalone="no"?>
<!DOCTYPE svg PUBLIC "-//W3C//DTD SVG 1.1//EN"
 "http://www.w3.org/Graphics/SVG/1.1/DTD/svg11.dtd">
<!-- Generated by graphviz version 2.43.0 (0)
 -->
<!-- Title: com.teragrep.pth_06.planner.MockDBNonSyslogRowImpl Pages: 1 -->
<svg width="168pt" height="171pt"
 viewBox="0.00 0.00 168.00 171.00" xmlns="http://www.w3.org/2000/svg" xmlns:xlink="http://www.w3.org/1999/xlink">
<g id="graph0" class="graph" transform="scale(1 1) rotate(0) translate(4 167)">
<title>com.teragrep.pth_06.planner.MockDBNonSyslogRowImpl</title>
<!-- Node1 -->
<g id="Node000001" class="node">
<title>Node1</title>
<g id="a_Node000001"><a xlink:title="Wrapper around MockDBRow where isSyslog() returns false.">
<polygon fill="#999999" stroke="#666666" points="160,-30 0,-30 0,0 160,0 160,-30"/>
<text text-anchor="start" x="8" y="-18" font-family="Helvetica,sans-Serif" font-size="10.00">com.teragrep.pth_06.planner.</text>
<text text-anchor="middle" x="80" y="-7" font-family="Helvetica,sans-Serif" font-size="10.00">MockDBNonSyslogRowImpl</text>
</a>
</g>
</g>
<!-- Node2 -->
<g id="Node000002" class="node">
<title>Node2</title>
<g id="a_Node000002"><a xlink:href="interfacecom_1_1teragrep_1_1pth__06_1_1planner_1_1MockDBRow.html" target="_top" xlink:title=" ">
<polygon fill="white" stroke="#666666" points="160,-107 0,-107 0,-77 160,-77 160,-107"/>
<text text-anchor="start" x="8" y="-95" font-family="Helvetica,sans-Serif" font-size="10.00">com.teragrep.pth_06.planner.</text>
<text text-anchor="middle" x="80" y="-84" font-family="Helvetica,sans-Serif" font-size="10.00">MockDBRow</text>
</a>
</g>
</g>
<!-- Node2&#45;&gt;Node1 -->
<g id="edge1_Node000001_Node000002" class="edge">
<title>Node2&#45;&gt;Node1</title>
<g id="a_edge1_Node000001_Node000002"><a xlink:title=" ">
<path fill="none" stroke="#63b8ff" d="M78.2,-66.45C77.94,-60.42 77.81,-53.98 78,-48 78.18,-42.1 78.56,-35.6 78.93,-30.01"/>
<polygon fill="#63b8ff" stroke="#63b8ff" points="74.72,-66.88 78.78,-76.67 81.71,-66.49 74.72,-66.88"/>
</a>
</g>
</g>
<!-- Node2&#45;&gt;Node1 -->
<g id="edge3_Node000001_Node000002" class="edge">
<title>Node2&#45;&gt;Node1</title>
<g id="a_edge3_Node000001_Node000002"><a xlink:title=" ">
<path fill="none" stroke="#9a32cd" stroke-dasharray="5,2" d="M80,-66.54C80,-54.45 80,-40.29 80,-30.04"/>
<polygon fill="#9a32cd" stroke="#9a32cd" points="76.5,-66.89 80,-76.89 83.5,-66.89 76.5,-66.89"/>
</a>
</g>
<text text-anchor="middle" x="95.5" y="-51" font-family="Helvetica,sans-Serif" font-size="10.00" fill="grey"> origin</text>
</g>
<!-- Node3 -->
<g id="Node000003" class="node">
<title>Node3</title>
<g id="a_Node000003"><a xlink:title=" ">
<polygon fill="white" stroke="#666666" points="160,-163 0,-163 0,-144 160,-144 160,-163"/>
<text text-anchor="middle" x="80" y="-151" font-family="Helvetica,sans-Serif" font-size="10.00">Comparable&lt; MockDBRow &gt;</text>
</a>
</g>
</g>
<!-- Node3&#45;&gt;Node2 -->
<g id="edge2_Node000002_Node000003" class="edge">
<title>Node3&#45;&gt;Node2</title>
<g id="a_edge2_Node000002_Node000003"><a xlink:title=" ">
<path fill="none" stroke="#63b8ff" d="M80,-133.73C80,-125.09 80,-115 80,-107.02"/>
<polygon fill="#63b8ff" stroke="#63b8ff" points="76.5,-133.98 80,-143.98 83.5,-133.98 76.5,-133.98"/>
</a>
</g>
</g>
</g>
</svg>
