<?xml version="1.0" encoding="UTF-8" standalone="no"?>
<!DOCTYPE svg PUBLIC "-//W3C//DTD SVG 1.1//EN"
 "http://www.w3.org/Graphics/SVG/1.1/DTD/svg11.dtd">
<!-- Generated by graphviz version 2.43.0 (0)
 -->
<!-- Title: com.teragrep.pth_06.planner.MockArchiveQueryProcessor Pages: 1 -->
<svg width="684pt" height="110pt"
 viewBox="0.00 0.00 684.00 110.00" xmlns="http://www.w3.org/2000/svg" xmlns:xlink="http://www.w3.org/1999/xlink">
<g id="graph0" class="graph" transform="scale(1 1) rotate(0) translate(4 106)">
<title>com.teragrep.pth_06.planner.MockArchiveQueryProcessor</title>
<!-- Node1 -->
<g id="Node000001" class="node">
<title>Node1</title>
<g id="a_Node000001"><a xlink:title=" ">
<polygon fill="#999999" stroke="#666666" points="676,-78 516,-78 516,-48 676,-48 676,-78"/>
<text text-anchor="start" x="524" y="-66" font-family="Helvetica,sans-Serif" font-size="10.00">com.teragrep.pth_06.planner.</text>
<text text-anchor="middle" x="596" y="-55" font-family="Helvetica,sans-Serif" font-size="10.00">MockArchiveQueryProcessor</text>
</a>
</g>
</g>
<!-- Node2 -->
<g id="Node000002" class="node">
<title>Node2</title>
<g id="a_Node000002"><a xlink:href="interfacecom_1_1teragrep_1_1pth__06_1_1planner_1_1ArchiveQuery.html" target="_top" xlink:title=" ">
<polygon fill="white" stroke="#666666" points="357,-102 197,-102 197,-72 357,-72 357,-102"/>
<text text-anchor="start" x="205" y="-90" font-family="Helvetica,sans-Serif" font-size="10.00">com.teragrep.pth_06.planner.</text>
<text text-anchor="middle" x="277" y="-79" font-family="Helvetica,sans-Serif" font-size="10.00">ArchiveQuery</text>
</a>
</g>
</g>
<!-- Node2&#45;&gt;Node1 -->
<g id="edge1_Node000001_Node000002" class="edge">
<title>Node2&#45;&gt;Node1</title>
<g id="a_edge1_Node000001_Node000002"><a xlink:title=" ">
<path fill="none" stroke="#63b8ff" d="M367.28,-80.24C413.96,-76.71 470.62,-72.42 515.74,-69"/>
<polygon fill="#63b8ff" stroke="#63b8ff" points="366.88,-76.76 357.17,-81.01 367.41,-83.74 366.88,-76.76"/>
</a>
</g>
</g>
<!-- Node3 -->
<g id="Node000003" class="node">
<title>Node3</title>
<g id="a_Node000003"><a xlink:href="interfacecom_1_1teragrep_1_1pth__06_1_1planner_1_1SliceableTestDataSource.html" target="_top" xlink:title=" ">
<polygon fill="white" stroke="#666666" points="357,-54 197,-54 197,-24 357,-24 357,-54"/>
<text text-anchor="start" x="205" y="-42" font-family="Helvetica,sans-Serif" font-size="10.00">com.teragrep.pth_06.planner.</text>
<text text-anchor="middle" x="277" y="-31" font-family="Helvetica,sans-Serif" font-size="10.00">SliceableTestDataSource</text>
</a>
</g>
</g>
<!-- Node3&#45;&gt;Node1 -->
<g id="edge2_Node000001_Node000003" class="edge">
<title>Node3&#45;&gt;Node1</title>
<g id="a_edge2_Node000001_Node000003"><a xlink:title=" ">
<path fill="none" stroke="#9a32cd" stroke-dasharray="5,2" d="M367.18,-45.29C407.19,-48.16 454.97,-51.66 498,-55 503.81,-55.45 509.82,-55.93 515.86,-56.41"/>
<polygon fill="#9a32cd" stroke="#9a32cd" points="367.41,-41.8 357.18,-44.57 366.91,-48.78 367.41,-41.8"/>
</a>
</g>
<text text-anchor="middle" x="436.5" y="-58" font-family="Helvetica,sans-Serif" font-size="10.00" fill="grey"> sliceableTestDataSource</text>
</g>
<!-- Node4 -->
<g id="Node000004" class="node">
<title>Node4</title>
<g id="a_Node000004"><a xlink:href="interfacecom_1_1teragrep_1_1pth__06_1_1planner_1_1TestDataSource.html" target="_top" xlink:title=" ">
<polygon fill="white" stroke="#666666" points="160,-78 0,-78 0,-48 160,-48 160,-78"/>
<text text-anchor="start" x="8" y="-66" font-family="Helvetica,sans-Serif" font-size="10.00">com.teragrep.pth_06.planner.</text>
<text text-anchor="middle" x="80" y="-55" font-family="Helvetica,sans-Serif" font-size="10.00">TestDataSource</text>
</a>
</g>
</g>
<!-- Node4&#45;&gt;Node3 -->
<g id="edge3_Node000003_Node000004" class="edge">
<title>Node4&#45;&gt;Node3</title>
<g id="a_edge3_Node000003_Node000004"><a xlink:title=" ">
<path fill="none" stroke="#63b8ff" d="M170.06,-52.04C179,-50.94 188.03,-49.83 196.85,-48.74"/>
<polygon fill="#63b8ff" stroke="#63b8ff" points="169.53,-48.58 160.03,-53.27 170.39,-55.53 169.53,-48.58"/>
</a>
</g>
</g>
<!-- Node5 -->
<g id="Node000005" class="node">
<title>Node5</title>
<g id="a_Node000005"><a xlink:href="interfacecom_1_1teragrep_1_1pth__06_1_1planner_1_1Sliceable.html" target="_top" xlink:title=" ">
<polygon fill="white" stroke="#666666" points="160,-30 0,-30 0,0 160,0 160,-30"/>
<text text-anchor="start" x="8" y="-18" font-family="Helvetica,sans-Serif" font-size="10.00">com.teragrep.pth_06.planner.</text>
<text text-anchor="middle" x="80" y="-7" font-family="Helvetica,sans-Serif" font-size="10.00">Sliceable&lt; MockDBRow &gt;</text>
</a>
</g>
</g>
<!-- Node5&#45;&gt;Node3 -->
<g id="edge4_Node000003_Node000005" class="edge">
<title>Node5&#45;&gt;Node3</title>
<g id="a_edge4_Node000003_Node000005"><a xlink:title=" ">
<path fill="none" stroke="#63b8ff" d="M170.06,-25.96C179,-27.06 188.03,-28.17 196.85,-29.26"/>
<polygon fill="#63b8ff" stroke="#63b8ff" points="170.39,-22.47 160.03,-24.73 169.53,-29.42 170.39,-22.47"/>
</a>
</g>
</g>
</g>
</svg>
