<?xml version="1.0" encoding="UTF-8" standalone="no"?>
<!DOCTYPE svg PUBLIC "-//W3C//DTD SVG 1.1//EN"
 "http://www.w3.org/Graphics/SVG/1.1/DTD/svg11.dtd">
<!-- Generated by graphviz version 2.43.0 (0)
 -->
<!-- Title: com.teragrep.pth_06.jooq.generated.streamdb.tables.Stream Pages: 1 -->
<svg width="840pt" height="85pt"
 viewBox="0.00 0.00 840.00 85.00" xmlns="http://www.w3.org/2000/svg" xmlns:xlink="http://www.w3.org/1999/xlink">
<g id="graph0" class="graph" transform="scale(1 1) rotate(0) translate(4 81)">
<title>com.teragrep.pth_06.jooq.generated.streamdb.tables.Stream</title>
<!-- Node1 -->
<g id="Node000001" class="node">
<title>Node1</title>
<g id="a_Node000001"><a xlink:title="This class is generated by jOOQ.">
<polygon fill="#999999" stroke="#666666" points="832,-77 552,-77 552,-47 832,-47 832,-77"/>
<text text-anchor="start" x="560" y="-65" font-family="Helvetica,sans-Serif" font-size="10.00">com.teragrep.pth_06.jooq.generated.streamdb.tables.</text>
<text text-anchor="middle" x="692" y="-54" font-family="Helvetica,sans-Serif" font-size="10.00">Stream</text>
</a>
</g>
</g>
<!-- Node2 -->
<g id="Node000002" class="node">
<title>Node2</title>
<g id="a_Node000002"><a xlink:title=" ">
<polygon fill="white" stroke="#666666" points="155,-60.5 0,-60.5 0,-41.5 155,-41.5 155,-60.5"/>
<text text-anchor="middle" x="77.5" y="-48.5" font-family="Helvetica,sans-Serif" font-size="10.00">TableImpl&lt; StreamRecord &gt;</text>
</a>
</g>
</g>
<!-- Node2&#45;&gt;Node1 -->
<g id="edge1_Node000001_Node000002" class="edge">
<title>Node2&#45;&gt;Node1</title>
<g id="a_edge1_Node000001_Node000002"><a xlink:title=" ">
<path fill="none" stroke="#63b8ff" d="M140.97,-62.06C157.51,-64.52 175.38,-66.76 192,-68 313.28,-77.03 451.59,-74.36 551.79,-70.09"/>
<polygon fill="#63b8ff" stroke="#63b8ff" points="141.28,-58.57 130.87,-60.51 140.22,-65.48 141.28,-58.57"/>
</a>
</g>
</g>
<!-- Node3 -->
<g id="Node000003" class="node">
<title>Node3</title>
<g id="a_Node000003"><a xlink:href="classcom_1_1teragrep_1_1pth__06_1_1jooq_1_1generated_1_1streamdb_1_1tables_1_1Stream.html" target="_top" xlink:title="This class is generated by jOOQ.">
<polygon fill="white" stroke="#666666" points="472,-30 192,-30 192,0 472,0 472,-30"/>
<text text-anchor="start" x="200" y="-18" font-family="Helvetica,sans-Serif" font-size="10.00">com.teragrep.pth_06.jooq.generated.streamdb.tables.</text>
<text text-anchor="middle" x="332" y="-7" font-family="Helvetica,sans-Serif" font-size="10.00">Stream</text>
</a>
</g>
</g>
<!-- Node2&#45;&gt;Node3 -->
<g id="edge3_Node000003_Node000002" class="edge">
<title>Node2&#45;&gt;Node3</title>
<g id="a_edge3_Node000003_Node000002"><a xlink:title=" ">
<path fill="none" stroke="#63b8ff" d="M155.21,-40.06C177.45,-36.89 202.13,-33.37 225.79,-30"/>
<polygon fill="#63b8ff" stroke="#63b8ff" points="154.58,-36.62 145.17,-41.49 155.57,-43.55 154.58,-36.62"/>
</a>
</g>
</g>
<!-- Node3&#45;&gt;Node1 -->
<g id="edge2_Node000001_Node000003" class="edge">
<title>Node3&#45;&gt;Node1</title>
<g id="a_edge2_Node000001_Node000003"><a xlink:title=" ">
<path fill="none" stroke="#9a32cd" stroke-dasharray="5,2" d="M457.53,-31.35C496.21,-36.43 538.64,-42 576.6,-46.98"/>
<polygon fill="#9a32cd" stroke="#9a32cd" points="457.63,-27.83 447.26,-30 456.72,-34.77 457.63,-27.83"/>
</a>
</g>
<text text-anchor="middle" x="512" y="-44" font-family="Helvetica,sans-Serif" font-size="10.00" fill="grey"> STREAM</text>
</g>
<!-- Node3&#45;&gt;Node3 -->
<g id="edge4_Node000003_Node000003" class="edge">
<title>Node3&#45;&gt;Node3</title>
<g id="a_edge4_Node000003_Node000003"><a xlink:title=" ">
<path fill="none" stroke="#9a32cd" stroke-dasharray="5,2" d="M304.34,-40.6C308.12,-44.97 317.34,-48 332,-48 356.69,-48 365.95,-39.41 359.77,-30.28"/>
<polygon fill="#9a32cd" stroke="#9a32cd" points="307.84,-40.23 304.23,-30.28 300.84,-40.31 307.84,-40.23"/>
</a>
</g>
<text text-anchor="middle" x="332" y="-51" font-family="Helvetica,sans-Serif" font-size="10.00" fill="grey"> STREAM</text>
</g>
</g>
</svg>
