<?xml version="1.0" encoding="UTF-8" standalone="no"?>
<!DOCTYPE svg PUBLIC "-//W3C//DTD SVG 1.1//EN"
 "http://www.w3.org/Graphics/SVG/1.1/DTD/svg11.dtd">
<!-- Generated by graphviz version 2.43.0 (0)
 -->
<!-- Title: com.teragrep.pth_06.planner.MockArchiveQueryProcessor.processBetweenUnixEpochHours Pages: 1 -->
<svg width="644pt" height="470pt"
 viewBox="0.00 0.00 644.00 470.00" xmlns="http://www.w3.org/2000/svg" xmlns:xlink="http://www.w3.org/1999/xlink">
<g id="graph0" class="graph" transform="scale(1 1) rotate(0) translate(4 466)">
<title>com.teragrep.pth_06.planner.MockArchiveQueryProcessor.processBetweenUnixEpochHours</title>
<!-- Node1 -->
<g id="Node000001" class="node">
<title>Node1</title>
<g id="a_Node000001"><a xlink:title=" ">
<polygon fill="#999999" stroke="#666666" points="196,-227.5 0,-227.5 0,-186.5 196,-186.5 196,-227.5"/>
<text text-anchor="start" x="8" y="-215.5" font-family="Helvetica,sans-Serif" font-size="10.00">com.teragrep.pth_06.planner.</text>
<text text-anchor="start" x="8" y="-204.5" font-family="Helvetica,sans-Serif" font-size="10.00">MockArchiveQueryProcessor.process</text>
<text text-anchor="middle" x="98" y="-193.5" font-family="Helvetica,sans-Serif" font-size="10.00">BetweenUnixEpochHours</text>
</a>
</g>
</g>
<!-- Node2 -->
<g id="Node000002" class="node">
<title>Node2</title>
<g id="a_Node000002"><a xlink:href="classcom_1_1teragrep_1_1pth__06_1_1planner_1_1RecordableMockDBRow.html#ac1964e4b4c2aa6126e03560b5f3d9224" target="_top" xlink:title=" ">
<polygon fill="white" stroke="#666666" points="412,-246 232,-246 232,-216 412,-216 412,-246"/>
<text text-anchor="start" x="240" y="-234" font-family="Helvetica,sans-Serif" font-size="10.00">com.teragrep.pth_06.planner.</text>
<text text-anchor="middle" x="322" y="-223" font-family="Helvetica,sans-Serif" font-size="10.00">RecordableMockDBRow.asRecord</text>
</a>
</g>
</g>
<!-- Node1&#45;&gt;Node2 -->
<g id="edge1_Node000001_Node000002" class="edge">
<title>Node1&#45;&gt;Node2</title>
<g id="a_edge1_Node000001_Node000002"><a xlink:title=" ">
<path fill="none" stroke="#63b8ff" d="M196.05,-217.49C204.6,-218.42 213.27,-219.35 221.84,-220.28"/>
<polygon fill="#63b8ff" stroke="#63b8ff" points="221.53,-223.77 231.84,-221.36 222.28,-216.81 221.53,-223.77"/>
</a>
</g>
</g>
<!-- Node13 -->
<g id="Node000013" class="node">
<title>Node13</title>
<g id="a_Node000013"><a xlink:href="interfacecom_1_1teragrep_1_1pth__06_1_1planner_1_1Sliceable.html#abd05bccf06880977e9be05d2b830d2fe" target="_top" xlink:title=" ">
<polygon fill="white" stroke="#666666" points="402,-198 242,-198 242,-168 402,-168 402,-198"/>
<text text-anchor="start" x="250" y="-186" font-family="Helvetica,sans-Serif" font-size="10.00">com.teragrep.pth_06.planner.</text>
<text text-anchor="middle" x="322" y="-175" font-family="Helvetica,sans-Serif" font-size="10.00">Sliceable.slice</text>
</a>
</g>
</g>
<!-- Node1&#45;&gt;Node13 -->
<g id="edge12_Node000001_Node000013" class="edge">
<title>Node1&#45;&gt;Node13</title>
<g id="a_edge12_Node000001_Node000013"><a xlink:title=" ">
<path fill="none" stroke="#63b8ff" d="M196.05,-196.51C207.87,-195.23 219.91,-193.93 231.61,-192.66"/>
<polygon fill="#63b8ff" stroke="#63b8ff" points="232.23,-196.12 241.79,-191.56 231.48,-189.16 232.23,-196.12"/>
</a>
</g>
</g>
<!-- Node3 -->
<g id="Node000003" class="node">
<title>Node3</title>
<g id="a_Node000003"><a xlink:href="interfacecom_1_1teragrep_1_1pth__06_1_1planner_1_1MockDBRow.html#ad44471477954593511cbdb304a0ded76" target="_top" xlink:title=" ">
<polygon fill="white" stroke="#666666" points="622,-462 462,-462 462,-432 622,-432 622,-462"/>
<text text-anchor="start" x="470" y="-450" font-family="Helvetica,sans-Serif" font-size="10.00">com.teragrep.pth_06.planner.</text>
<text text-anchor="middle" x="542" y="-439" font-family="Helvetica,sans-Serif" font-size="10.00">MockDBRow.bucket</text>
</a>
</g>
</g>
<!-- Node2&#45;&gt;Node3 -->
<g id="edge2_Node000002_Node000003" class="edge">
<title>Node2&#45;&gt;Node3</title>
<g id="a_edge2_Node000002_Node000003"><a xlink:title=" ">
<path fill="none" stroke="#63b8ff" d="M328.42,-246.22C342.25,-282.76 382.43,-375.88 448,-423 450.07,-424.49 452.23,-425.89 454.46,-427.2"/>
<polygon fill="#63b8ff" stroke="#63b8ff" points="452.85,-430.31 463.34,-431.84 456.09,-424.1 452.85,-430.31"/>
</a>
</g>
</g>
<!-- Node4 -->
<g id="Node000004" class="node">
<title>Node4</title>
<g id="a_Node000004"><a xlink:href="interfacecom_1_1teragrep_1_1pth__06_1_1planner_1_1MockDBRow.html#a72b0def5bf253cb3babc246462187ead" target="_top" xlink:title=" ">
<polygon fill="white" stroke="#666666" points="622,-414 462,-414 462,-384 622,-384 622,-414"/>
<text text-anchor="start" x="470" y="-402" font-family="Helvetica,sans-Serif" font-size="10.00">com.teragrep.pth_06.planner.</text>
<text text-anchor="middle" x="542" y="-391" font-family="Helvetica,sans-Serif" font-size="10.00">MockDBRow.directory</text>
</a>
</g>
</g>
<!-- Node2&#45;&gt;Node4 -->
<g id="edge3_Node000002_Node000004" class="edge">
<title>Node2&#45;&gt;Node4</title>
<g id="a_edge3_Node000002_Node000004"><a xlink:title=" ">
<path fill="none" stroke="#63b8ff" d="M331.83,-246.3C349.76,-275.93 393.39,-341.2 448,-375 450.76,-376.71 453.65,-378.3 456.62,-379.78"/>
<polygon fill="#63b8ff" stroke="#63b8ff" points="455.18,-382.97 465.74,-383.88 458.05,-376.59 455.18,-382.97"/>
</a>
</g>
</g>
<!-- Node5 -->
<g id="Node000005" class="node">
<title>Node5</title>
<g id="a_Node000005"><a xlink:href="interfacecom_1_1teragrep_1_1pth__06_1_1planner_1_1MockDBRow.html#a74ca25ad9ccc26eca93b3a20d359bd4a" target="_top" xlink:title=" ">
<polygon fill="white" stroke="#666666" points="622,-366 462,-366 462,-336 622,-336 622,-366"/>
<text text-anchor="start" x="470" y="-354" font-family="Helvetica,sans-Serif" font-size="10.00">com.teragrep.pth_06.planner.</text>
<text text-anchor="middle" x="542" y="-343" font-family="Helvetica,sans-Serif" font-size="10.00">MockDBRow.filesize</text>
</a>
</g>
</g>
<!-- Node2&#45;&gt;Node5 -->
<g id="edge4_Node000002_Node000005" class="edge">
<title>Node2&#45;&gt;Node5</title>
<g id="a_edge4_Node000002_Node000005"><a xlink:title=" ">
<path fill="none" stroke="#63b8ff" d="M338.17,-246C360.4,-267.15 403.98,-305.53 448,-327 452.07,-328.99 456.33,-330.82 460.68,-332.51"/>
<polygon fill="#63b8ff" stroke="#63b8ff" points="459.74,-335.9 470.34,-336 462.12,-329.31 459.74,-335.9"/>
</a>
</g>
</g>
<!-- Node6 -->
<g id="Node000006" class="node">
<title>Node6</title>
<g id="a_Node000006"><a xlink:href="interfacecom_1_1teragrep_1_1pth__06_1_1planner_1_1MockDBRow.html#aa8ad21bb5a8f9b0594938f79c167ea8a" target="_top" xlink:title=" ">
<polygon fill="white" stroke="#666666" points="622,-318 462,-318 462,-288 622,-288 622,-318"/>
<text text-anchor="start" x="470" y="-306" font-family="Helvetica,sans-Serif" font-size="10.00">com.teragrep.pth_06.planner.</text>
<text text-anchor="middle" x="542" y="-295" font-family="Helvetica,sans-Serif" font-size="10.00">MockDBRow.host</text>
</a>
</g>
</g>
<!-- Node2&#45;&gt;Node6 -->
<g id="edge5_Node000002_Node000006" class="edge">
<title>Node2&#45;&gt;Node6</title>
<g id="a_edge5_Node000002_Node000006"><a xlink:title=" ">
<path fill="none" stroke="#63b8ff" d="M358.99,-246.07C383.75,-256.14 417.56,-269.26 448,-279 454.77,-281.17 461.86,-283.28 468.99,-285.29"/>
<polygon fill="#63b8ff" stroke="#63b8ff" points="468.12,-288.68 478.69,-287.97 469.98,-281.93 468.12,-288.68"/>
</a>
</g>
</g>
<!-- Node7 -->
<g id="Node000007" class="node">
<title>Node7</title>
<g id="a_Node000007"><a xlink:href="interfacecom_1_1teragrep_1_1pth__06_1_1planner_1_1MockDBRow.html#a0774864816bfa4ed24d7037daa10b3b2" target="_top" xlink:title=" ">
<polygon fill="white" stroke="#666666" points="622,-270 462,-270 462,-240 622,-240 622,-270"/>
<text text-anchor="start" x="470" y="-258" font-family="Helvetica,sans-Serif" font-size="10.00">com.teragrep.pth_06.planner.</text>
<text text-anchor="middle" x="542" y="-247" font-family="Helvetica,sans-Serif" font-size="10.00">MockDBRow.id</text>
</a>
</g>
</g>
<!-- Node2&#45;&gt;Node7 -->
<g id="edge6_Node000002_Node000007" class="edge">
<title>Node2&#45;&gt;Node7</title>
<g id="a_edge6_Node000002_Node000007"><a xlink:title=" ">
<path fill="none" stroke="#63b8ff" d="M412.3,-240.83C425.29,-242.26 438.66,-243.73 451.65,-245.16"/>
<polygon fill="#63b8ff" stroke="#63b8ff" points="451.65,-248.68 461.97,-246.3 452.42,-241.73 451.65,-248.68"/>
</a>
</g>
</g>
<!-- Node8 -->
<g id="Node000008" class="node">
<title>Node8</title>
<g id="a_Node000008"><a xlink:href="interfacecom_1_1teragrep_1_1pth__06_1_1planner_1_1MockDBRow.html#ad6525054bcae052f479a03b2e4ca3bf7" target="_top" xlink:title=" ">
<polygon fill="white" stroke="#666666" points="622,-222 462,-222 462,-192 622,-192 622,-222"/>
<text text-anchor="start" x="470" y="-210" font-family="Helvetica,sans-Serif" font-size="10.00">com.teragrep.pth_06.planner.</text>
<text text-anchor="middle" x="542" y="-199" font-family="Helvetica,sans-Serif" font-size="10.00">MockDBRow.logdate</text>
</a>
</g>
</g>
<!-- Node2&#45;&gt;Node8 -->
<g id="edge7_Node000002_Node000008" class="edge">
<title>Node2&#45;&gt;Node8</title>
<g id="a_edge7_Node000002_Node000008"><a xlink:title=" ">
<path fill="none" stroke="#63b8ff" d="M412.3,-221.17C425.29,-219.74 438.66,-218.27 451.65,-216.84"/>
<polygon fill="#63b8ff" stroke="#63b8ff" points="452.42,-220.27 461.97,-215.7 451.65,-213.32 452.42,-220.27"/>
</a>
</g>
</g>
<!-- Node9 -->
<g id="Node000009" class="node">
<title>Node9</title>
<g id="a_Node000009"><a xlink:href="interfacecom_1_1teragrep_1_1pth__06_1_1planner_1_1MockDBRow.html#abbdec5d031093faa980c5b0e86dbaa7e" target="_top" xlink:title=" ">
<polygon fill="white" stroke="#666666" points="622,-174 462,-174 462,-144 622,-144 622,-174"/>
<text text-anchor="start" x="470" y="-162" font-family="Helvetica,sans-Serif" font-size="10.00">com.teragrep.pth_06.planner.</text>
<text text-anchor="middle" x="542" y="-151" font-family="Helvetica,sans-Serif" font-size="10.00">MockDBRow.logtime</text>
</a>
</g>
</g>
<!-- Node2&#45;&gt;Node9 -->
<g id="edge8_Node000002_Node000009" class="edge">
<title>Node2&#45;&gt;Node9</title>
<g id="a_edge8_Node000002_Node000009"><a xlink:title=" ">
<path fill="none" stroke="#63b8ff" d="M388.51,-215.96C396.56,-213.35 404.57,-210.37 412,-207 429.51,-199.06 430.44,-190.85 448,-183 452.64,-180.93 457.49,-179.01 462.44,-177.23"/>
<polygon fill="#63b8ff" stroke="#63b8ff" points="463.68,-180.51 472.04,-174 461.45,-173.87 463.68,-180.51"/>
</a>
</g>
</g>
<!-- Node10 -->
<g id="Node000010" class="node">
<title>Node10</title>
<g id="a_Node000010"><a xlink:href="interfacecom_1_1teragrep_1_1pth__06_1_1planner_1_1MockDBRow.html#ab614cd7a7083bbae02e6cb864d5aea64" target="_top" xlink:title=" ">
<polygon fill="white" stroke="#666666" points="622,-126 462,-126 462,-96 622,-96 622,-126"/>
<text text-anchor="start" x="470" y="-114" font-family="Helvetica,sans-Serif" font-size="10.00">com.teragrep.pth_06.planner.</text>
<text text-anchor="middle" x="542" y="-103" font-family="Helvetica,sans-Serif" font-size="10.00">MockDBRow.path</text>
</a>
</g>
</g>
<!-- Node2&#45;&gt;Node10 -->
<g id="edge9_Node000002_Node000010" class="edge">
<title>Node2&#45;&gt;Node10</title>
<g id="a_edge9_Node000002_Node000010"><a xlink:title=" ">
<path fill="none" stroke="#63b8ff" d="M398.2,-215.93C403.12,-213.4 407.79,-210.44 412,-207 439.7,-184.36 420.18,-157.49 448,-135 449.6,-133.7 451.27,-132.47 452.99,-131.31"/>
<polygon fill="#63b8ff" stroke="#63b8ff" points="455.13,-134.11 461.98,-126.03 451.58,-128.08 455.13,-134.11"/>
</a>
</g>
</g>
<!-- Node11 -->
<g id="Node000011" class="node">
<title>Node11</title>
<g id="a_Node000011"><a xlink:href="interfacecom_1_1teragrep_1_1pth__06_1_1planner_1_1MockDBRow.html#a092b8e42025da6f3c6ad5ea92a1a273f" target="_top" xlink:title=" ">
<polygon fill="white" stroke="#666666" points="622,-78 462,-78 462,-48 622,-48 622,-78"/>
<text text-anchor="start" x="470" y="-66" font-family="Helvetica,sans-Serif" font-size="10.00">com.teragrep.pth_06.planner.</text>
<text text-anchor="middle" x="542" y="-55" font-family="Helvetica,sans-Serif" font-size="10.00">MockDBRow.stream</text>
</a>
</g>
</g>
<!-- Node2&#45;&gt;Node11 -->
<g id="edge10_Node000002_Node000011" class="edge">
<title>Node2&#45;&gt;Node11</title>
<g id="a_edge10_Node000002_Node000011"><a xlink:title=" ">
<path fill="none" stroke="#63b8ff" d="M400.16,-215.99C404.44,-213.43 408.44,-210.46 412,-207 451.92,-168.18 407.87,-125.6 448,-87 449.66,-85.4 451.41,-83.91 453.24,-82.51"/>
<polygon fill="#63b8ff" stroke="#63b8ff" points="455.25,-85.38 461.7,-76.98 451.42,-79.52 455.25,-85.38"/>
</a>
</g>
</g>
<!-- Node12 -->
<g id="Node000012" class="node">
<title>Node12</title>
<g id="a_Node000012"><a xlink:href="interfacecom_1_1teragrep_1_1pth__06_1_1planner_1_1MockDBRow.html#a530a3c1472c332aacad872702a077e48" target="_top" xlink:title=" ">
<polygon fill="white" stroke="#666666" points="636,-30 448,-30 448,0 636,0 636,-30"/>
<text text-anchor="start" x="456" y="-18" font-family="Helvetica,sans-Serif" font-size="10.00">com.teragrep.pth_06.planner.</text>
<text text-anchor="middle" x="542" y="-7" font-family="Helvetica,sans-Serif" font-size="10.00">MockDBRow.uncompressedFilesize</text>
</a>
</g>
</g>
<!-- Node2&#45;&gt;Node12 -->
<g id="edge11_Node000002_Node000012" class="edge">
<title>Node2&#45;&gt;Node12</title>
<g id="a_edge11_Node000002_Node000012"><a xlink:title=" ">
<path fill="none" stroke="#63b8ff" d="M401.3,-215.79C405.19,-213.28 408.81,-210.37 412,-207 464.57,-151.61 395.13,-94.1 448,-39 448.91,-38.05 449.85,-37.14 450.82,-36.26"/>
<polygon fill="#63b8ff" stroke="#63b8ff" points="452.96,-39.03 458.79,-30.18 448.71,-33.47 452.96,-39.03"/>
</a>
</g>
</g>
</g>
</svg>
