<?xml version="1.0" encoding="UTF-8" standalone="no"?>
<!DOCTYPE svg PUBLIC "-//W3C//DTD SVG 1.1//EN"
 "http://www.w3.org/Graphics/SVG/1.1/DTD/svg11.dtd">
<!-- Generated by graphviz version 2.43.0 (0)
 -->
<!-- Title: com.teragrep.pth_06.scheduler.BatchUnit.getSize Pages: 1 -->
<svg width="1002pt" height="86pt"
 viewBox="0.00 0.00 1002.00 86.00" xmlns="http://www.w3.org/2000/svg" xmlns:xlink="http://www.w3.org/1999/xlink">
<g id="graph0" class="graph" transform="scale(1 1) rotate(0) translate(4 82)">
<title>com.teragrep.pth_06.scheduler.BatchUnit.getSize</title>
<!-- Node1 -->
<g id="Node000001" class="node">
<title>Node1</title>
<g id="a_Node000001"><a xlink:title=" ">
<polygon fill="#999999" stroke="#666666" points="994,-54 824,-54 824,-24 994,-24 994,-54"/>
<text text-anchor="start" x="832" y="-42" font-family="Helvetica,sans-Serif" font-size="10.00">com.teragrep.pth_06.scheduler.</text>
<text text-anchor="middle" x="909" y="-31" font-family="Helvetica,sans-Serif" font-size="10.00">BatchUnit.getSize</text>
</a>
</g>
</g>
<!-- Node2 -->
<g id="Node000002" class="node">
<title>Node2</title>
<g id="a_Node000002"><a xlink:href="classcom_1_1teragrep_1_1pth__06_1_1scheduler_1_1BatchUnit.html#af5302f190f108585db3ade5eaefca306" target="_top" xlink:title=" ">
<polygon fill="white" stroke="#666666" points="788,-78 618,-78 618,-48 788,-48 788,-78"/>
<text text-anchor="start" x="626" y="-66" font-family="Helvetica,sans-Serif" font-size="10.00">com.teragrep.pth_06.scheduler.</text>
<text text-anchor="middle" x="703" y="-55" font-family="Helvetica,sans-Serif" font-size="10.00">BatchUnit.compareTo</text>
</a>
</g>
</g>
<!-- Node1&#45;&gt;Node2 -->
<g id="edge1_Node000001_Node000002" class="edge">
<title>Node1&#45;&gt;Node2</title>
<g id="a_edge1_Node000001_Node000002"><a xlink:title=" ">
<path fill="none" stroke="#63b8ff" d="M813.88,-50.07C805.34,-51.08 796.73,-52.09 788.29,-53.08"/>
<polygon fill="#63b8ff" stroke="#63b8ff" points="814.33,-53.54 823.85,-48.9 813.51,-46.59 814.33,-53.54"/>
</a>
</g>
</g>
<!-- Node3 -->
<g id="Node000003" class="node">
<title>Node3</title>
<g id="a_Node000003"><a xlink:href="classcom_1_1teragrep_1_1pth__06_1_1scheduler_1_1BatchTaskQueue.html#a8bbebebaa1d1a99732e76b990c03afd2" target="_top" xlink:title=" ">
<polygon fill="white" stroke="#666666" points="788,-30 618,-30 618,0 788,0 788,-30"/>
<text text-anchor="start" x="626" y="-18" font-family="Helvetica,sans-Serif" font-size="10.00">com.teragrep.pth_06.scheduler.</text>
<text text-anchor="middle" x="703" y="-7" font-family="Helvetica,sans-Serif" font-size="10.00">BatchTaskQueue.estimate</text>
</a>
</g>
</g>
<!-- Node1&#45;&gt;Node3 -->
<g id="edge2_Node000001_Node000003" class="edge">
<title>Node1&#45;&gt;Node3</title>
<g id="a_edge2_Node000001_Node000003"><a xlink:title=" ">
<path fill="none" stroke="#63b8ff" d="M813.88,-27.93C805.34,-26.92 796.73,-25.91 788.29,-24.92"/>
<polygon fill="#63b8ff" stroke="#63b8ff" points="813.51,-31.41 823.85,-29.1 814.33,-24.46 813.51,-31.41"/>
</a>
</g>
</g>
<!-- Node4 -->
<g id="Node000004" class="node">
<title>Node4</title>
<g id="a_Node000004"><a xlink:href="classcom_1_1teragrep_1_1pth__06_1_1scheduler_1_1BatchTaskQueue.html#a5a12217f55e121452b9c064187d81ac9" target="_top" xlink:title=" ">
<polygon fill="white" stroke="#666666" points="582,-30 412,-30 412,0 582,0 582,-30"/>
<text text-anchor="start" x="420" y="-18" font-family="Helvetica,sans-Serif" font-size="10.00">com.teragrep.pth_06.scheduler.</text>
<text text-anchor="middle" x="497" y="-7" font-family="Helvetica,sans-Serif" font-size="10.00">BatchTaskQueue.add</text>
</a>
</g>
</g>
<!-- Node3&#45;&gt;Node4 -->
<g id="edge3_Node000003_Node000004" class="edge">
<title>Node3&#45;&gt;Node4</title>
<g id="a_edge3_Node000003_Node000004"><a xlink:title=" ">
<path fill="none" stroke="#63b8ff" d="M607.6,-15C599.15,-15 590.64,-15 582.29,-15"/>
<polygon fill="#63b8ff" stroke="#63b8ff" points="607.85,-18.5 617.85,-15 607.85,-11.5 607.85,-18.5"/>
</a>
</g>
</g>
<!-- Node5 -->
<g id="Node000005" class="node">
<title>Node5</title>
<g id="a_Node000005"><a xlink:href="classcom_1_1teragrep_1_1pth__06_1_1scheduler_1_1BatchCalculator.html#a13b488dfb781039d9d93f06b55e73e6c" target="_top" xlink:title=" ">
<polygon fill="white" stroke="#666666" points="376,-30 206,-30 206,0 376,0 376,-30"/>
<text text-anchor="start" x="214" y="-18" font-family="Helvetica,sans-Serif" font-size="10.00">com.teragrep.pth_06.scheduler.</text>
<text text-anchor="middle" x="291" y="-7" font-family="Helvetica,sans-Serif" font-size="10.00">BatchCalculator.buildBatch</text>
</a>
</g>
</g>
<!-- Node4&#45;&gt;Node5 -->
<g id="edge4_Node000004_Node000005" class="edge">
<title>Node4&#45;&gt;Node5</title>
<g id="a_edge4_Node000004_Node000005"><a xlink:title=" ">
<path fill="none" stroke="#63b8ff" d="M401.6,-15C393.15,-15 384.64,-15 376.29,-15"/>
<polygon fill="#63b8ff" stroke="#63b8ff" points="401.85,-18.5 411.85,-15 401.85,-11.5 401.85,-18.5"/>
</a>
</g>
</g>
<!-- Node6 -->
<g id="Node000006" class="node">
<title>Node6</title>
<g id="a_Node000006"><a xlink:href="classcom_1_1teragrep_1_1pth__06_1_1scheduler_1_1BatchCalculator.html#ab8f7a8e729b431c50099dbea20b24f12" target="_top" xlink:title=" ">
<polygon fill="white" stroke="#666666" points="170,-30 0,-30 0,0 170,0 170,-30"/>
<text text-anchor="start" x="8" y="-18" font-family="Helvetica,sans-Serif" font-size="10.00">com.teragrep.pth_06.scheduler.</text>
<text text-anchor="middle" x="85" y="-7" font-family="Helvetica,sans-Serif" font-size="10.00">BatchCalculator.processRange</text>
</a>
</g>
</g>
<!-- Node5&#45;&gt;Node6 -->
<g id="edge5_Node000005_Node000006" class="edge">
<title>Node5&#45;&gt;Node6</title>
<g id="a_edge5_Node000005_Node000006"><a xlink:title=" ">
<path fill="none" stroke="#63b8ff" d="M195.6,-15C187.15,-15 178.64,-15 170.29,-15"/>
<polygon fill="#63b8ff" stroke="#63b8ff" points="195.85,-18.5 205.85,-15 195.85,-11.5 195.85,-18.5"/>
</a>
</g>
</g>
<!-- Node6&#45;&gt;Node6 -->
<g id="edge6_Node000006_Node000006" class="edge">
<title>Node6&#45;&gt;Node6</title>
<g id="a_edge6_Node000006_Node000006"><a xlink:title=" ">
<path fill="none" stroke="#63b8ff" d="M121.06,-40.6C116.13,-44.97 104.11,-48 85,-48 52.81,-48 40.74,-39.41 48.79,-30.28"/>
<polygon fill="#63b8ff" stroke="#63b8ff" points="124.56,-40.33 121.21,-30.28 117.56,-40.22 124.56,-40.33"/>
</a>
</g>
</g>
</g>
</svg>
