<?xml version="1.0" encoding="UTF-8" standalone="no"?>
<!DOCTYPE svg PUBLIC "-//W3C//DTD SVG 1.1//EN"
 "http://www.w3.org/Graphics/SVG/1.1/DTD/svg11.dtd">
<!-- Generated by graphviz version 2.43.0 (0)
 -->
<!-- Title: com.teragrep.pth_06.planner.NestedTopNQuery Pages: 1 -->
<svg width="959pt" height="315pt"
 viewBox="0.00 0.00 959.00 315.00" xmlns="http://www.w3.org/2000/svg" xmlns:xlink="http://www.w3.org/1999/xlink">
<g id="graph0" class="graph" transform="scale(1 1) rotate(0) translate(4 311)">
<title>com.teragrep.pth_06.planner.NestedTopNQuery</title>
<!-- Node1 -->
<g id="Node000001" class="node">
<title>Node1</title>
<g id="a_Node000001"><a xlink:title=" ">
<polygon fill="#999999" stroke="#666666" points="951,-307 791,-307 791,-277 951,-277 951,-307"/>
<text text-anchor="start" x="799" y="-295" font-family="Helvetica,sans-Serif" font-size="10.00">com.teragrep.pth_06.planner.</text>
<text text-anchor="middle" x="871" y="-284" font-family="Helvetica,sans-Serif" font-size="10.00">NestedTopNQuery</text>
</a>
</g>
</g>
<!-- Node2 -->
<g id="Node000002" class="node">
<title>Node2</title>
<g id="a_Node000002"><a xlink:href="classcom_1_1teragrep_1_1pth__06_1_1ConfiguredLogger.html" target="_top" xlink:title=" ">
<polygon fill="white" stroke="#666666" points="173,-167 0,-167 0,-137 173,-137 173,-167"/>
<text text-anchor="start" x="8" y="-155" font-family="Helvetica,sans-Serif" font-size="10.00">com.teragrep.pth_06.Configured</text>
<text text-anchor="middle" x="86.5" y="-144" font-family="Helvetica,sans-Serif" font-size="10.00">Logger</text>
</a>
</g>
</g>
<!-- Node2&#45;&gt;Node1 -->
<g id="edge1_Node000001_Node000002" class="edge">
<title>Node2&#45;&gt;Node1</title>
<g id="a_edge1_Node000001_Node000002"><a xlink:title=" ">
<path fill="none" stroke="#9a32cd" stroke-dasharray="5,2" d="M131.41,-171.07C206.34,-202.58 364.46,-264.53 505,-290 582.9,-304.12 603.84,-295.44 683,-297 722.99,-297.79 733.01,-298.03 773,-297 778.82,-296.85 784.83,-296.65 790.87,-296.42"/>
<polygon fill="#9a32cd" stroke="#9a32cd" points="132.4,-167.69 121.83,-167.02 129.67,-174.14 132.4,-167.69"/>
</a>
</g>
<text text-anchor="middle" x="461" y="-288" font-family="Helvetica,sans-Serif" font-size="10.00" fill="grey"> logger</text>
</g>
<!-- Node3 -->
<g id="Node000003" class="node">
<title>Node3</title>
<g id="a_Node000003"><a xlink:href="classcom_1_1teragrep_1_1pth__06_1_1planner_1_1StreamDBClient.html" target="_top" xlink:title=" ">
<polygon fill="white" stroke="#666666" points="665,-146 505,-146 505,-116 665,-116 665,-146"/>
<text text-anchor="start" x="513" y="-134" font-family="Helvetica,sans-Serif" font-size="10.00">com.teragrep.pth_06.planner.</text>
<text text-anchor="middle" x="585" y="-123" font-family="Helvetica,sans-Serif" font-size="10.00">StreamDBClient</text>
</a>
</g>
</g>
<!-- Node2&#45;&gt;Node3 -->
<g id="edge4_Node000003_Node000002" class="edge">
<title>Node2&#45;&gt;Node3</title>
<g id="a_edge4_Node000003_Node000002"><a xlink:title=" ">
<path fill="none" stroke="#9a32cd" stroke-dasharray="5,2" d="M183.16,-147.95C276.66,-144 417.35,-138.05 504.77,-134.35"/>
<polygon fill="#9a32cd" stroke="#9a32cd" points="182.98,-144.46 173.13,-148.38 183.27,-151.45 182.98,-144.46"/>
</a>
</g>
<text text-anchor="middle" x="335" y="-147" font-family="Helvetica,sans-Serif" font-size="10.00" fill="grey"> LOGGER</text>
</g>
<!-- Node5 -->
<g id="Node000005" class="node">
<title>Node5</title>
<g id="a_Node000005"><a xlink:href="classcom_1_1teragrep_1_1pth__06_1_1planner_1_1GetArchivedObjectsFilterTable.html" target="_top" xlink:title=" ">
<polygon fill="white" stroke="#666666" points="417,-78 253,-78 253,-48 417,-48 417,-78"/>
<text text-anchor="start" x="261" y="-66" font-family="Helvetica,sans-Serif" font-size="10.00">com.teragrep.pth_06.planner.</text>
<text text-anchor="middle" x="335" y="-55" font-family="Helvetica,sans-Serif" font-size="10.00">GetArchivedObjectsFilterTable</text>
</a>
</g>
</g>
<!-- Node2&#45;&gt;Node5 -->
<g id="edge6_Node000005_Node000002" class="edge">
<title>Node2&#45;&gt;Node5</title>
<g id="a_edge6_Node000005_Node000002"><a xlink:title=" ">
<path fill="none" stroke="#9a32cd" stroke-dasharray="5,2" d="M133.76,-133.12C166.77,-119.89 212.34,-102.12 253,-88 262.73,-84.62 273.2,-81.22 283.27,-78.06"/>
<polygon fill="#9a32cd" stroke="#9a32cd" points="132.34,-129.92 124.36,-136.9 134.95,-136.41 132.34,-129.92"/>
</a>
</g>
<text text-anchor="middle" x="213" y="-112" font-family="Helvetica,sans-Serif" font-size="10.00" fill="grey"> logger</text>
</g>
<!-- Node6 -->
<g id="Node000006" class="node">
<title>Node6</title>
<g id="a_Node000006"><a xlink:href="classcom_1_1teragrep_1_1pth__06_1_1planner_1_1NestedTopNQuery.html" target="_top" xlink:title=" ">
<polygon fill="white" stroke="#666666" points="951,-193 791,-193 791,-163 951,-163 951,-193"/>
<text text-anchor="start" x="799" y="-181" font-family="Helvetica,sans-Serif" font-size="10.00">com.teragrep.pth_06.planner.</text>
<text text-anchor="middle" x="871" y="-170" font-family="Helvetica,sans-Serif" font-size="10.00">NestedTopNQuery</text>
</a>
</g>
</g>
<!-- Node2&#45;&gt;Node6 -->
<g id="edge8_Node000006_Node000002" class="edge">
<title>Node2&#45;&gt;Node6</title>
<g id="a_edge8_Node000006_Node000002"><a xlink:title=" ">
<path fill="none" stroke="#9a32cd" stroke-dasharray="5,2" d="M183.23,-159.55C185.85,-159.71 188.44,-159.86 191,-160 409.45,-171.99 464.27,-171.27 683,-176 718.38,-176.76 757.53,-177.24 790.83,-177.54"/>
<polygon fill="#9a32cd" stroke="#9a32cd" points="183.25,-156.05 173.05,-158.91 182.81,-163.03 183.25,-156.05"/>
</a>
</g>
<text text-anchor="middle" x="461" y="-174" font-family="Helvetica,sans-Serif" font-size="10.00" fill="grey"> logger</text>
</g>
<!-- Node8 -->
<g id="Node000008" class="node">
<title>Node8</title>
<g id="a_Node000008"><a xlink:href="classcom_1_1teragrep_1_1pth__06_1_1planner_1_1SliceTable.html" target="_top" xlink:title=" ">
<polygon fill="white" stroke="#666666" points="415,-30 255,-30 255,0 415,0 415,-30"/>
<text text-anchor="start" x="263" y="-18" font-family="Helvetica,sans-Serif" font-size="10.00">com.teragrep.pth_06.planner.</text>
<text text-anchor="middle" x="335" y="-7" font-family="Helvetica,sans-Serif" font-size="10.00">SliceTable</text>
</a>
</g>
</g>
<!-- Node2&#45;&gt;Node8 -->
<g id="edge12_Node000008_Node000002" class="edge">
<title>Node2&#45;&gt;Node8</title>
<g id="a_edge12_Node000008_Node000002"><a xlink:title=" ">
<path fill="none" stroke="#9a32cd" stroke-dasharray="5,2" d="M112.88,-130.59C144.02,-105.33 199.31,-63.66 253,-39 260.2,-35.69 267.96,-32.72 275.74,-30.07"/>
<polygon fill="#9a32cd" stroke="#9a32cd" points="110.65,-127.9 105.13,-136.94 115.08,-133.31 110.65,-127.9"/>
</a>
</g>
<text text-anchor="middle" x="213" y="-73" font-family="Helvetica,sans-Serif" font-size="10.00" fill="grey"> LOGGER</text>
</g>
<!-- Node3&#45;&gt;Node1 -->
<g id="edge2_Node000001_Node000003" class="edge">
<title>Node3&#45;&gt;Node1</title>
<g id="a_edge2_Node000001_Node000003"><a xlink:title=" ">
<path fill="none" stroke="#9a32cd" stroke-dasharray="5,2" d="M627.51,-150.46C674.18,-172.51 746.84,-207.4 773,-223 801.04,-239.72 831.42,-262.09 850.57,-276.76"/>
<polygon fill="#9a32cd" stroke="#9a32cd" points="628.8,-147.2 618.26,-146.1 625.81,-153.53 628.8,-147.2"/>
</a>
</g>
<text text-anchor="middle" x="728" y="-226" font-family="Helvetica,sans-Serif" font-size="10.00" fill="grey"> streamDBClient</text>
</g>
<!-- Node3&#45;&gt;Node6 -->
<g id="edge9_Node000006_Node000003" class="edge">
<title>Node3&#45;&gt;Node6</title>
<g id="a_edge9_Node000006_Node000003"><a xlink:title=" ">
<path fill="none" stroke="#9a32cd" stroke-dasharray="5,2" d="M675.39,-145.79C712.4,-151.92 754.96,-158.96 790.82,-164.9"/>
<polygon fill="#9a32cd" stroke="#9a32cd" points="675.55,-142.27 665.11,-144.09 674.4,-149.18 675.55,-142.27"/>
</a>
</g>
<text text-anchor="middle" x="728" y="-164" font-family="Helvetica,sans-Serif" font-size="10.00" fill="grey"> streamDBClient</text>
</g>
<!-- Node4 -->
<g id="Node000004" class="node">
<title>Node4</title>
<g id="a_Node000004"><a xlink:title=" ">
<polygon fill="white" stroke="#666666" points="378.5,-115.5 291.5,-115.5 291.5,-96.5 378.5,-96.5 378.5,-115.5"/>
<text text-anchor="middle" x="335" y="-103.5" font-family="Helvetica,sans-Serif" font-size="10.00">AutoCloseable</text>
</a>
</g>
</g>
<!-- Node4&#45;&gt;Node3 -->
<g id="edge3_Node000003_Node000004" class="edge">
<title>Node4&#45;&gt;Node3</title>
<g id="a_edge3_Node000003_Node000004"><a xlink:title=" ">
<path fill="none" stroke="#63b8ff" d="M388.75,-111.32C422.52,-114.72 466.96,-119.2 504.91,-123.03"/>
<polygon fill="#63b8ff" stroke="#63b8ff" points="388.93,-107.82 378.63,-110.3 388.23,-114.78 388.93,-107.82"/>
</a>
</g>
</g>
<!-- Node5&#45;&gt;Node3 -->
<g id="edge5_Node000003_Node000005" class="edge">
<title>Node5&#45;&gt;Node3</title>
<g id="a_edge5_Node000003_Node000005"><a xlink:title=" ">
<path fill="none" stroke="#9a32cd" stroke-dasharray="5,2" d="M408.75,-80.47C433.64,-86.67 461.61,-93.88 487,-101 503.46,-105.61 521.38,-111.04 537.28,-116"/>
<polygon fill="#9a32cd" stroke="#9a32cd" points="409.56,-77.07 399.01,-78.06 407.88,-83.86 409.56,-77.07"/>
</a>
</g>
<text text-anchor="middle" x="461" y="-104" font-family="Helvetica,sans-Serif" font-size="10.00" fill="grey"> filterTable</text>
</g>
<!-- Node6&#45;&gt;Node3 -->
<g id="edge7_Node000003_Node000006" class="edge">
<title>Node6&#45;&gt;Node3</title>
<g id="a_edge7_Node000003_Node000006"><a xlink:title=" ">
<path fill="none" stroke="#9a32cd" stroke-dasharray="5,2" d="M836.97,-157.89C818.8,-148 795.44,-137.11 773,-132 738.18,-124.06 698.76,-122.76 665.12,-123.86"/>
<polygon fill="#9a32cd" stroke="#9a32cd" points="835.53,-161.1 845.97,-162.94 838.96,-155 835.53,-161.1"/>
</a>
</g>
<text text-anchor="middle" x="728" y="-135" font-family="Helvetica,sans-Serif" font-size="10.00" fill="grey"> nestedTopNQuery</text>
</g>
<!-- Node7 -->
<g id="Node000007" class="node">
<title>Node7</title>
<g id="a_Node000007"><a xlink:title=" ">
<polygon fill="white" stroke="#666666" points="665,-281 505,-281 505,-251 665,-251 665,-281"/>
<text text-anchor="start" x="513" y="-269" font-family="Helvetica,sans-Serif" font-size="10.00">com.teragrep.pth_06.planner.</text>
<text text-anchor="middle" x="585" y="-258" font-family="Helvetica,sans-Serif" font-size="10.00">SafeLogtimeFunction</text>
</a>
</g>
</g>
<!-- Node7&#45;&gt;Node1 -->
<g id="edge13_Node000001_Node000007" class="edge">
<title>Node7&#45;&gt;Node1</title>
<g id="a_edge13_Node000001_Node000007"><a xlink:title=" ">
<path fill="none" stroke="#9a32cd" stroke-dasharray="5,2" d="M675.39,-274.18C712.4,-277.57 754.96,-281.47 790.82,-284.75"/>
<polygon fill="#9a32cd" stroke="#9a32cd" points="675.39,-270.67 665.11,-273.24 674.75,-277.64 675.39,-270.67"/>
</a>
</g>
<text text-anchor="middle" x="728" y="-285" font-family="Helvetica,sans-Serif" font-size="10.00" fill="grey"> logtimeFunction</text>
</g>
<!-- Node7&#45;&gt;Node6 -->
<g id="edge10_Node000006_Node000007" class="edge">
<title>Node7&#45;&gt;Node6</title>
<g id="a_edge10_Node000006_Node000007"><a xlink:title=" ">
<path fill="none" stroke="#9a32cd" stroke-dasharray="5,2" d="M675.12,-258.7C706.7,-254.3 742.05,-247.26 773,-236 801.58,-225.6 831.11,-206.53 849.96,-193.1"/>
<polygon fill="#9a32cd" stroke="#9a32cd" points="674.46,-255.26 665.01,-260.04 675.38,-262.2 674.46,-255.26"/>
</a>
</g>
<text text-anchor="middle" x="728" y="-259" font-family="Helvetica,sans-Serif" font-size="10.00" fill="grey"> logtimeFunction</text>
</g>
<!-- Node8&#45;&gt;Node3 -->
<g id="edge11_Node000003_Node000008" class="edge">
<title>Node8&#45;&gt;Node3</title>
<g id="a_edge11_Node000003_Node000008"><a xlink:title=" ">
<path fill="none" stroke="#9a32cd" stroke-dasharray="5,2" d="M400.38,-33.09C406.04,-34.98 411.64,-36.96 417,-39 471.59,-59.82 530.29,-95.66 561.48,-115.92"/>
<polygon fill="#9a32cd" stroke="#9a32cd" points="401.44,-29.76 390.84,-30.01 399.28,-36.42 401.44,-29.76"/>
</a>
</g>
<text text-anchor="middle" x="461" y="-72" font-family="Helvetica,sans-Serif" font-size="10.00" fill="grey"> sliceTable</text>
</g>
</g>
</svg>
