<?xml version="1.0" encoding="UTF-8" standalone="no"?>
<!DOCTYPE svg PUBLIC "-//W3C//DTD SVG 1.1//EN"
 "http://www.w3.org/Graphics/SVG/1.1/DTD/svg11.dtd">
<!-- Generated by graphviz version 2.43.0 (0)
 -->
<!-- Title: com.teragrep.pth_06.planner.walker.conditions.QueryCondition.condition Pages: 1 -->
<svg width="1143pt" height="1384pt"
 viewBox="0.00 0.00 1143.00 1384.00" xmlns="http://www.w3.org/2000/svg" xmlns:xlink="http://www.w3.org/1999/xlink">
<g id="graph0" class="graph" transform="scale(1 1) rotate(0) translate(4 1380)">
<title>com.teragrep.pth_06.planner.walker.conditions.QueryCondition.condition</title>
<!-- Node1 -->
<g id="Node000001" class="node">
<title>Node1</title>
<g id="a_Node000001"><a xlink:title=" ">
<polygon fill="#999999" stroke="#666666" points="1135,-416 887,-416 887,-386 1135,-386 1135,-416"/>
<text text-anchor="start" x="895" y="-404" font-family="Helvetica,sans-Serif" font-size="10.00">com.teragrep.pth_06.planner.walker.conditions.</text>
<text text-anchor="middle" x="1011" y="-393" font-family="Helvetica,sans-Serif" font-size="10.00">QueryCondition.condition</text>
</a>
</g>
</g>
<!-- Node2 -->
<g id="Node000002" class="node">
<title>Node2</title>
<g id="a_Node000002"><a xlink:href="classcom_1_1teragrep_1_1pth__06_1_1planner_1_1walker_1_1conditions_1_1HostCondition.html#a5e1a6cbe0677ad979097ecc9ca2893b1" target="_top" xlink:title=" ">
<polygon fill="white" stroke="#666666" points="851,-1208 603,-1208 603,-1178 851,-1178 851,-1208"/>
<text text-anchor="start" x="611" y="-1196" font-family="Helvetica,sans-Serif" font-size="10.00">com.teragrep.pth_06.planner.walker.conditions.</text>
<text text-anchor="middle" x="727" y="-1185" font-family="Helvetica,sans-Serif" font-size="10.00">HostCondition.condition</text>
</a>
</g>
</g>
<!-- Node1&#45;&gt;Node2 -->
<g id="edge1_Node000001_Node000002" class="edge">
<title>Node1&#45;&gt;Node2</title>
<g id="a_edge1_Node000001_Node000002"><a xlink:title=" ">
<path fill="none" stroke="#63b8ff" d="M1002.29,-425.89C980.1,-497.21 913.59,-708.29 851,-881 809.24,-996.23 752.99,-1132.91 734.32,-1177.86"/>
<polygon fill="#63b8ff" stroke="#63b8ff" points="1005.73,-426.62 1005.36,-416.03 999.05,-424.55 1005.73,-426.62"/>
</a>
</g>
</g>
<!-- Node10 -->
<g id="Node000010" class="node">
<title>Node10</title>
<g id="a_Node000010"><a xlink:href="classcom_1_1teragrep_1_1pth__06_1_1planner_1_1walker_1_1conditions_1_1IndexCondition.html#a657fd2ee2d33ed734ca426cc64990be8" target="_top" xlink:title=" ">
<polygon fill="white" stroke="#666666" points="851,-872 603,-872 603,-842 851,-842 851,-872"/>
<text text-anchor="start" x="611" y="-860" font-family="Helvetica,sans-Serif" font-size="10.00">com.teragrep.pth_06.planner.walker.conditions.</text>
<text text-anchor="middle" x="727" y="-849" font-family="Helvetica,sans-Serif" font-size="10.00">IndexCondition.condition</text>
</a>
</g>
</g>
<!-- Node1&#45;&gt;Node10 -->
<g id="edge9_Node000001_Node000010" class="edge">
<title>Node1&#45;&gt;Node10</title>
<g id="a_edge9_Node000001_Node000010"><a xlink:title=" ">
<path fill="none" stroke="#63b8ff" d="M995.3,-424.77C944.73,-506.54 778.81,-774.84 737.42,-841.77"/>
<polygon fill="#63b8ff" stroke="#63b8ff" points="998.33,-426.52 1000.62,-416.17 992.38,-422.84 998.33,-426.52"/>
</a>
</g>
</g>
<!-- Node18 -->
<g id="Node000018" class="node">
<title>Node18</title>
<g id="a_Node000018"><a xlink:href="classcom_1_1teragrep_1_1pth__06_1_1planner_1_1walker_1_1conditions_1_1IndexStatementCondition.html#ad8a40368c02dae91ddc55b86e2ab7e10" target="_top" xlink:title=" ">
<polygon fill="white" stroke="#666666" points="851,-632 603,-632 603,-602 851,-602 851,-632"/>
<text text-anchor="start" x="611" y="-620" font-family="Helvetica,sans-Serif" font-size="10.00">com.teragrep.pth_06.planner.walker.conditions.</text>
<text text-anchor="middle" x="727" y="-609" font-family="Helvetica,sans-Serif" font-size="10.00">IndexStatementCondition.condition</text>
</a>
</g>
</g>
<!-- Node1&#45;&gt;Node18 -->
<g id="edge17_Node000001_Node000018" class="edge">
<title>Node1&#45;&gt;Node18</title>
<g id="a_edge17_Node000001_Node000018"><a xlink:title=" ">
<path fill="none" stroke="#63b8ff" d="M981.98,-422.46C925.04,-466.07 797.03,-564.12 747.81,-601.83"/>
<polygon fill="#63b8ff" stroke="#63b8ff" points="984.36,-425.05 990.17,-416.19 980.1,-419.49 984.36,-425.05"/>
</a>
</g>
</g>
<!-- Node22 -->
<g id="Node000022" class="node">
<title>Node22</title>
<g id="a_Node000022"><a xlink:href="classcom_1_1teragrep_1_1pth__06_1_1planner_1_1walker_1_1conditions_1_1SourceTypeCondition.html#ae7125daefbefb1c254059081c5eb53ae" target="_top" xlink:title=" ">
<polygon fill="white" stroke="#666666" points="851,-416 603,-416 603,-386 851,-386 851,-416"/>
<text text-anchor="start" x="611" y="-404" font-family="Helvetica,sans-Serif" font-size="10.00">com.teragrep.pth_06.planner.walker.conditions.</text>
<text text-anchor="middle" x="727" y="-393" font-family="Helvetica,sans-Serif" font-size="10.00">SourceTypeCondition.condition</text>
</a>
</g>
</g>
<!-- Node1&#45;&gt;Node22 -->
<g id="edge21_Node000001_Node000022" class="edge">
<title>Node1&#45;&gt;Node22</title>
<g id="a_edge21_Node000001_Node000022"><a xlink:title=" ">
<path fill="none" stroke="#63b8ff" d="M876.53,-401C868.16,-401 859.75,-401 851.43,-401"/>
<polygon fill="#63b8ff" stroke="#63b8ff" points="876.72,-404.5 886.72,-401 876.72,-397.5 876.72,-404.5"/>
</a>
</g>
</g>
<!-- Node30 -->
<g id="Node000030" class="node">
<title>Node30</title>
<g id="a_Node000030"><a xlink:href="classcom_1_1teragrep_1_1pth__06_1_1planner_1_1walker_1_1conditions_1_1ElementCondition.html#ad598b3368f8fca059dfc07a49d352f31" target="_top" xlink:title=" ">
<polygon fill="white" stroke="#666666" points="851,-174 603,-174 603,-144 851,-144 851,-174"/>
<text text-anchor="start" x="611" y="-162" font-family="Helvetica,sans-Serif" font-size="10.00">com.teragrep.pth_06.planner.walker.conditions.</text>
<text text-anchor="middle" x="727" y="-151" font-family="Helvetica,sans-Serif" font-size="10.00">ElementCondition.conditionForJournalDBQuery</text>
</a>
</g>
</g>
<!-- Node1&#45;&gt;Node30 -->
<g id="edge29_Node000001_Node000030" class="edge">
<title>Node1&#45;&gt;Node30</title>
<g id="a_edge29_Node000001_Node000030"><a xlink:title=" ">
<path fill="none" stroke="#63b8ff" d="M998.88,-376.49C977.22,-331.63 924.9,-236.47 851,-188 842.29,-182.28 832.57,-177.69 822.53,-174"/>
<polygon fill="#63b8ff" stroke="#63b8ff" points="995.83,-378.22 1003.27,-385.76 1002.16,-375.23 995.83,-378.22"/>
</a>
</g>
</g>
<!-- Node32 -->
<g id="Node000032" class="node">
<title>Node32</title>
<g id="a_Node000032"><a xlink:href="classcom_1_1teragrep_1_1pth__06_1_1planner_1_1walker_1_1conditions_1_1ElementCondition.html#ad1faef74318cb350165bbeafd562ecde" target="_top" xlink:title=" ">
<polygon fill="white" stroke="#666666" points="248,-222 0,-222 0,-192 248,-192 248,-222"/>
<text text-anchor="start" x="8" y="-210" font-family="Helvetica,sans-Serif" font-size="10.00">com.teragrep.pth_06.planner.walker.conditions.</text>
<text text-anchor="middle" x="124" y="-199" font-family="Helvetica,sans-Serif" font-size="10.00">ElementCondition.conditionForStreamDBQuery</text>
</a>
</g>
</g>
<!-- Node1&#45;&gt;Node32 -->
<g id="edge38_Node000001_Node000032" class="edge">
<title>Node1&#45;&gt;Node32</title>
<g id="a_edge38_Node000001_Node000032"><a xlink:title=" ">
<path fill="none" stroke="#63b8ff" d="M973.95,-381.16C900.21,-341.78 725.68,-254.62 567,-221 461.1,-198.56 337.77,-196.59 248.34,-199.35"/>
<polygon fill="#63b8ff" stroke="#63b8ff" points="972.38,-384.3 982.85,-385.95 975.7,-378.13 972.38,-384.3"/>
</a>
</g>
</g>
<!-- Node37 -->
<g id="Node000037" class="node">
<title>Node37</title>
<g id="a_Node000037"><a xlink:href="classcom_1_1teragrep_1_1pth__06_1_1planner_1_1walker_1_1conditions_1_1NegatedCondition.html#a39e7e338fc6a0364e26cc14c124f176f" target="_top" xlink:title=" ">
<polygon fill="white" stroke="#666666" points="851,-126 603,-126 603,-96 851,-96 851,-126"/>
<text text-anchor="start" x="611" y="-114" font-family="Helvetica,sans-Serif" font-size="10.00">com.teragrep.pth_06.planner.walker.conditions.</text>
<text text-anchor="middle" x="727" y="-103" font-family="Helvetica,sans-Serif" font-size="10.00">NegatedCondition.NegatedCondition</text>
</a>
</g>
</g>
<!-- Node1&#45;&gt;Node37 -->
<g id="edge39_Node000001_Node000037" class="edge">
<title>Node1&#45;&gt;Node37</title>
<g id="a_edge39_Node000001_Node000037"><a xlink:title=" ">
<path fill="none" stroke="#63b8ff" d="M1002.83,-376.26C985.97,-322.82 938.5,-196.46 851,-135 846.1,-131.56 840.84,-128.58 835.35,-126.01"/>
<polygon fill="#63b8ff" stroke="#63b8ff" points="999.52,-377.4 1005.8,-385.94 1006.21,-375.35 999.52,-377.4"/>
</a>
</g>
</g>
<!-- Node3 -->
<g id="Node000003" class="node">
<title>Node3</title>
<g id="a_Node000003"><a xlink:href="classcom_1_1teragrep_1_1pth__06_1_1planner_1_1walker_1_1conditions_1_1HostConditionTest.html#ac5fb835f367a0f5fc3295da6e4550324" target="_top" xlink:title=" ">
<polygon fill="white" stroke="#666666" points="549.5,-1376 301.5,-1376 301.5,-1346 549.5,-1346 549.5,-1376"/>
<text text-anchor="start" x="309.5" y="-1364" font-family="Helvetica,sans-Serif" font-size="10.00">com.teragrep.pth_06.planner.walker.conditions.</text>
<text text-anchor="middle" x="425.5" y="-1353" font-family="Helvetica,sans-Serif" font-size="10.00">HostConditionTest.conditionTest</text>
</a>
</g>
</g>
<!-- Node2&#45;&gt;Node3 -->
<g id="edge2_Node000002_Node000003" class="edge">
<title>Node2&#45;&gt;Node3</title>
<g id="a_edge2_Node000002_Node000003"><a xlink:title=" ">
<path fill="none" stroke="#63b8ff" d="M707.77,-1216.33C680.8,-1249.06 626.95,-1307.85 567,-1337 559.88,-1340.46 552.34,-1343.43 544.61,-1345.98"/>
<polygon fill="#63b8ff" stroke="#63b8ff" points="710.77,-1218.2 714.34,-1208.22 705.33,-1213.79 710.77,-1218.2"/>
</a>
</g>
</g>
<!-- Node4 -->
<g id="Node000004" class="node">
<title>Node4</title>
<g id="a_Node000004"><a xlink:href="classcom_1_1teragrep_1_1pth__06_1_1planner_1_1walker_1_1conditions_1_1HostConditionTest.html#ae2adcfd60fd6418231755cbbdd3c14cc" target="_top" xlink:title=" ">
<polygon fill="white" stroke="#666666" points="549.5,-1328 301.5,-1328 301.5,-1298 549.5,-1298 549.5,-1328"/>
<text text-anchor="start" x="309.5" y="-1316" font-family="Helvetica,sans-Serif" font-size="10.00">com.teragrep.pth_06.planner.walker.conditions.</text>
<text text-anchor="middle" x="425.5" y="-1305" font-family="Helvetica,sans-Serif" font-size="10.00">HostConditionTest.equalsTest</text>
</a>
</g>
</g>
<!-- Node2&#45;&gt;Node4 -->
<g id="edge3_Node000002_Node000004" class="edge">
<title>Node2&#45;&gt;Node4</title>
<g id="a_edge3_Node000002_Node000004"><a xlink:title=" ">
<path fill="none" stroke="#63b8ff" d="M698.26,-1214.21C667.77,-1236.42 616.51,-1270.58 567,-1289 557.72,-1292.45 547.91,-1295.41 537.97,-1297.95"/>
<polygon fill="#63b8ff" stroke="#63b8ff" points="700.7,-1216.76 706.66,-1208.01 696.54,-1211.13 700.7,-1216.76"/>
</a>
</g>
</g>
<!-- Node5 -->
<g id="Node000005" class="node">
<title>Node5</title>
<g id="a_Node000005"><a xlink:href="classcom_1_1teragrep_1_1pth__06_1_1planner_1_1walker_1_1conditions_1_1HostConditionTest.html#a5cfa1efd300b2f70a6e669698e37ba83" target="_top" xlink:title=" ">
<polygon fill="white" stroke="#666666" points="549.5,-1280 301.5,-1280 301.5,-1250 549.5,-1250 549.5,-1280"/>
<text text-anchor="start" x="309.5" y="-1268" font-family="Helvetica,sans-Serif" font-size="10.00">com.teragrep.pth_06.planner.walker.conditions.</text>
<text text-anchor="middle" x="425.5" y="-1257" font-family="Helvetica,sans-Serif" font-size="10.00">HostConditionTest.negationTest</text>
</a>
</g>
</g>
<!-- Node2&#45;&gt;Node5 -->
<g id="edge4_Node000002_Node000005" class="edge">
<title>Node2&#45;&gt;Node5</title>
<g id="a_edge4_Node000002_Node000005"><a xlink:title=" ">
<path fill="none" stroke="#63b8ff" d="M671.91,-1211.15C641.36,-1220.94 602.33,-1232.68 567,-1241 553.15,-1244.26 538.43,-1247.27 523.94,-1249.97"/>
<polygon fill="#63b8ff" stroke="#63b8ff" points="673.07,-1214.45 681.51,-1208.05 670.92,-1207.79 673.07,-1214.45"/>
</a>
</g>
</g>
<!-- Node6 -->
<g id="Node000006" class="node">
<title>Node6</title>
<g id="a_Node000006"><a xlink:href="classcom_1_1teragrep_1_1pth__06_1_1planner_1_1walker_1_1conditions_1_1HostConditionTest.html#a1bfa9d2d16ee9cff750080cd3e76e412" target="_top" xlink:title=" ">
<polygon fill="white" stroke="#666666" points="549.5,-1232 301.5,-1232 301.5,-1202 549.5,-1202 549.5,-1232"/>
<text text-anchor="start" x="309.5" y="-1220" font-family="Helvetica,sans-Serif" font-size="10.00">com.teragrep.pth_06.planner.walker.conditions.</text>
<text text-anchor="middle" x="425.5" y="-1209" font-family="Helvetica,sans-Serif" font-size="10.00">HostConditionTest.testPartialWildcard</text>
</a>
</g>
</g>
<!-- Node2&#45;&gt;Node6 -->
<g id="edge5_Node000002_Node000006" class="edge">
<title>Node2&#45;&gt;Node6</title>
<g id="a_edge5_Node000002_Node000006"><a xlink:title=" ">
<path fill="none" stroke="#63b8ff" d="M592.53,-1203.7C578.25,-1204.84 563.77,-1206 549.62,-1207.13"/>
<polygon fill="#63b8ff" stroke="#63b8ff" points="593.2,-1207.15 602.89,-1202.87 592.64,-1200.18 593.2,-1207.15"/>
</a>
</g>
</g>
<!-- Node7 -->
<g id="Node000007" class="node">
<title>Node7</title>
<g id="a_Node000007"><a xlink:href="classcom_1_1teragrep_1_1pth__06_1_1planner_1_1walker_1_1conditions_1_1HostConditionTest.html#a4b66535f188bdd912a3b75ddc8378a24" target="_top" xlink:title=" ">
<polygon fill="white" stroke="#666666" points="549.5,-1184 301.5,-1184 301.5,-1154 549.5,-1154 549.5,-1184"/>
<text text-anchor="start" x="309.5" y="-1172" font-family="Helvetica,sans-Serif" font-size="10.00">com.teragrep.pth_06.planner.walker.conditions.</text>
<text text-anchor="middle" x="425.5" y="-1161" font-family="Helvetica,sans-Serif" font-size="10.00">HostConditionTest.testPartialWildcardNegation</text>
</a>
</g>
</g>
<!-- Node2&#45;&gt;Node7 -->
<g id="edge6_Node000002_Node000007" class="edge">
<title>Node2&#45;&gt;Node7</title>
<g id="a_edge6_Node000002_Node000007"><a xlink:title=" ">
<path fill="none" stroke="#63b8ff" d="M592.53,-1182.3C578.25,-1181.16 563.77,-1180 549.62,-1178.87"/>
<polygon fill="#63b8ff" stroke="#63b8ff" points="592.64,-1185.82 602.89,-1183.13 593.2,-1178.85 592.64,-1185.82"/>
</a>
</g>
</g>
<!-- Node8 -->
<g id="Node000008" class="node">
<title>Node8</title>
<g id="a_Node000008"><a xlink:href="classcom_1_1teragrep_1_1pth__06_1_1planner_1_1walker_1_1conditions_1_1HostConditionTest.html#ac5b9e9dd993fb16cc758e1e190ee14be" target="_top" xlink:title=" ">
<polygon fill="white" stroke="#666666" points="549.5,-1136 301.5,-1136 301.5,-1106 549.5,-1106 549.5,-1136"/>
<text text-anchor="start" x="309.5" y="-1124" font-family="Helvetica,sans-Serif" font-size="10.00">com.teragrep.pth_06.planner.walker.conditions.</text>
<text text-anchor="middle" x="425.5" y="-1113" font-family="Helvetica,sans-Serif" font-size="10.00">HostConditionTest.wildcardAsTrueTest</text>
</a>
</g>
</g>
<!-- Node2&#45;&gt;Node8 -->
<g id="edge7_Node000002_Node000008" class="edge">
<title>Node2&#45;&gt;Node8</title>
<g id="a_edge7_Node000002_Node000008"><a xlink:title=" ">
<path fill="none" stroke="#63b8ff" d="M671.91,-1174.85C641.36,-1165.06 602.33,-1153.32 567,-1145 553.15,-1141.74 538.43,-1138.73 523.94,-1136.03"/>
<polygon fill="#63b8ff" stroke="#63b8ff" points="670.92,-1178.21 681.51,-1177.95 673.07,-1171.55 670.92,-1178.21"/>
</a>
</g>
</g>
<!-- Node9 -->
<g id="Node000009" class="node">
<title>Node9</title>
<g id="a_Node000009"><a xlink:href="classcom_1_1teragrep_1_1pth__06_1_1planner_1_1walker_1_1conditions_1_1HostConditionTest.html#a94fb6e3883e7e0187f3f744b05e4d72b" target="_top" xlink:title=" ">
<polygon fill="white" stroke="#666666" points="550.5,-1088 300.5,-1088 300.5,-1058 550.5,-1058 550.5,-1088"/>
<text text-anchor="start" x="308.5" y="-1076" font-family="Helvetica,sans-Serif" font-size="10.00">com.teragrep.pth_06.planner.walker.conditions.</text>
<text text-anchor="middle" x="425.5" y="-1065" font-family="Helvetica,sans-Serif" font-size="10.00">HostConditionTest.wildcardNegationAsFalseTest</text>
</a>
</g>
</g>
<!-- Node2&#45;&gt;Node9 -->
<g id="edge8_Node000002_Node000009" class="edge">
<title>Node2&#45;&gt;Node9</title>
<g id="a_edge8_Node000002_Node000009"><a xlink:title=" ">
<path fill="none" stroke="#63b8ff" d="M698.26,-1171.79C667.77,-1149.58 616.51,-1115.42 567,-1097 557.72,-1093.55 547.91,-1090.59 537.97,-1088.05"/>
<polygon fill="#63b8ff" stroke="#63b8ff" points="696.54,-1174.87 706.66,-1177.99 700.7,-1169.24 696.54,-1174.87"/>
</a>
</g>
</g>
<!-- Node11 -->
<g id="Node000011" class="node">
<title>Node11</title>
<g id="a_Node000011"><a xlink:href="classcom_1_1teragrep_1_1pth__06_1_1planner_1_1walker_1_1conditions_1_1IndexConditionTest.html#a0634fb1173f568590e68a4797948452f" target="_top" xlink:title=" ">
<polygon fill="white" stroke="#666666" points="549.5,-1040 301.5,-1040 301.5,-1010 549.5,-1010 549.5,-1040"/>
<text text-anchor="start" x="309.5" y="-1028" font-family="Helvetica,sans-Serif" font-size="10.00">com.teragrep.pth_06.planner.walker.conditions.</text>
<text text-anchor="middle" x="425.5" y="-1017" font-family="Helvetica,sans-Serif" font-size="10.00">IndexConditionTest.conditionTest</text>
</a>
</g>
</g>
<!-- Node10&#45;&gt;Node11 -->
<g id="edge10_Node000010_Node000011" class="edge">
<title>Node10&#45;&gt;Node11</title>
<g id="a_edge10_Node000010_Node000011"><a xlink:title=" ">
<path fill="none" stroke="#63b8ff" d="M707.77,-880.33C680.8,-913.06 626.95,-971.85 567,-1001 559.88,-1004.46 552.34,-1007.43 544.61,-1009.98"/>
<polygon fill="#63b8ff" stroke="#63b8ff" points="710.77,-882.2 714.34,-872.22 705.33,-877.79 710.77,-882.2"/>
</a>
</g>
</g>
<!-- Node12 -->
<g id="Node000012" class="node">
<title>Node12</title>
<g id="a_Node000012"><a xlink:href="classcom_1_1teragrep_1_1pth__06_1_1planner_1_1walker_1_1conditions_1_1IndexConditionTest.html#a88d86d8a4d7b500a187f10a1141e5fc8" target="_top" xlink:title=" ">
<polygon fill="white" stroke="#666666" points="549.5,-992 301.5,-992 301.5,-962 549.5,-962 549.5,-992"/>
<text text-anchor="start" x="309.5" y="-980" font-family="Helvetica,sans-Serif" font-size="10.00">com.teragrep.pth_06.planner.walker.conditions.</text>
<text text-anchor="middle" x="425.5" y="-969" font-family="Helvetica,sans-Serif" font-size="10.00">IndexConditionTest.equalsTest</text>
</a>
</g>
</g>
<!-- Node10&#45;&gt;Node12 -->
<g id="edge11_Node000010_Node000012" class="edge">
<title>Node10&#45;&gt;Node12</title>
<g id="a_edge11_Node000010_Node000012"><a xlink:title=" ">
<path fill="none" stroke="#63b8ff" d="M698.26,-878.21C667.77,-900.42 616.51,-934.58 567,-953 557.72,-956.45 547.91,-959.41 537.97,-961.95"/>
<polygon fill="#63b8ff" stroke="#63b8ff" points="700.7,-880.76 706.66,-872.01 696.54,-875.13 700.7,-880.76"/>
</a>
</g>
</g>
<!-- Node13 -->
<g id="Node000013" class="node">
<title>Node13</title>
<g id="a_Node000013"><a xlink:href="classcom_1_1teragrep_1_1pth__06_1_1planner_1_1walker_1_1conditions_1_1IndexConditionTest.html#a074a653d417c279a1d728dd333084a71" target="_top" xlink:title=" ">
<polygon fill="white" stroke="#666666" points="549.5,-944 301.5,-944 301.5,-914 549.5,-914 549.5,-944"/>
<text text-anchor="start" x="309.5" y="-932" font-family="Helvetica,sans-Serif" font-size="10.00">com.teragrep.pth_06.planner.walker.conditions.</text>
<text text-anchor="middle" x="425.5" y="-921" font-family="Helvetica,sans-Serif" font-size="10.00">IndexConditionTest.negationTest</text>
</a>
</g>
</g>
<!-- Node10&#45;&gt;Node13 -->
<g id="edge12_Node000010_Node000013" class="edge">
<title>Node10&#45;&gt;Node13</title>
<g id="a_edge12_Node000010_Node000013"><a xlink:title=" ">
<path fill="none" stroke="#63b8ff" d="M671.91,-875.15C641.36,-884.94 602.33,-896.68 567,-905 553.15,-908.26 538.43,-911.27 523.94,-913.97"/>
<polygon fill="#63b8ff" stroke="#63b8ff" points="673.07,-878.45 681.51,-872.05 670.92,-871.79 673.07,-878.45"/>
</a>
</g>
</g>
<!-- Node14 -->
<g id="Node000014" class="node">
<title>Node14</title>
<g id="a_Node000014"><a xlink:href="classcom_1_1teragrep_1_1pth__06_1_1planner_1_1walker_1_1conditions_1_1IndexConditionTest.html#aecac864eb019369aef22927fba31960b" target="_top" xlink:title=" ">
<polygon fill="white" stroke="#666666" points="549.5,-896 301.5,-896 301.5,-866 549.5,-866 549.5,-896"/>
<text text-anchor="start" x="309.5" y="-884" font-family="Helvetica,sans-Serif" font-size="10.00">com.teragrep.pth_06.planner.walker.conditions.</text>
<text text-anchor="middle" x="425.5" y="-873" font-family="Helvetica,sans-Serif" font-size="10.00">IndexConditionTest.testPartialWildcard</text>
</a>
</g>
</g>
<!-- Node10&#45;&gt;Node14 -->
<g id="edge13_Node000010_Node000014" class="edge">
<title>Node10&#45;&gt;Node14</title>
<g id="a_edge13_Node000010_Node000014"><a xlink:title=" ">
<path fill="none" stroke="#63b8ff" d="M592.53,-867.7C578.25,-868.84 563.77,-870 549.62,-871.13"/>
<polygon fill="#63b8ff" stroke="#63b8ff" points="593.2,-871.15 602.89,-866.87 592.64,-864.18 593.2,-871.15"/>
</a>
</g>
</g>
<!-- Node15 -->
<g id="Node000015" class="node">
<title>Node15</title>
<g id="a_Node000015"><a xlink:href="classcom_1_1teragrep_1_1pth__06_1_1planner_1_1walker_1_1conditions_1_1IndexConditionTest.html#abde474b71464e4cf751663d4ade3a66d" target="_top" xlink:title=" ">
<polygon fill="white" stroke="#666666" points="550,-848 301,-848 301,-818 550,-818 550,-848"/>
<text text-anchor="start" x="309" y="-836" font-family="Helvetica,sans-Serif" font-size="10.00">com.teragrep.pth_06.planner.walker.conditions.</text>
<text text-anchor="middle" x="425.5" y="-825" font-family="Helvetica,sans-Serif" font-size="10.00">IndexConditionTest.testPartialWildcardNegation</text>
</a>
</g>
</g>
<!-- Node10&#45;&gt;Node15 -->
<g id="edge14_Node000010_Node000015" class="edge">
<title>Node10&#45;&gt;Node15</title>
<g id="a_edge14_Node000010_Node000015"><a xlink:title=" ">
<path fill="none" stroke="#63b8ff" d="M592.63,-846.31C578.48,-845.18 564.13,-844.03 550.1,-842.9"/>
<polygon fill="#63b8ff" stroke="#63b8ff" points="592.64,-849.82 602.89,-847.13 593.2,-842.85 592.64,-849.82"/>
</a>
</g>
</g>
<!-- Node16 -->
<g id="Node000016" class="node">
<title>Node16</title>
<g id="a_Node000016"><a xlink:href="classcom_1_1teragrep_1_1pth__06_1_1planner_1_1walker_1_1conditions_1_1IndexConditionTest.html#a573db62e7987faf80014d6c28b6e88a4" target="_top" xlink:title=" ">
<polygon fill="white" stroke="#666666" points="549.5,-800 301.5,-800 301.5,-770 549.5,-770 549.5,-800"/>
<text text-anchor="start" x="309.5" y="-788" font-family="Helvetica,sans-Serif" font-size="10.00">com.teragrep.pth_06.planner.walker.conditions.</text>
<text text-anchor="middle" x="425.5" y="-777" font-family="Helvetica,sans-Serif" font-size="10.00">IndexConditionTest.wildcardAsTrueTest</text>
</a>
</g>
</g>
<!-- Node10&#45;&gt;Node16 -->
<g id="edge15_Node000010_Node000016" class="edge">
<title>Node10&#45;&gt;Node16</title>
<g id="a_edge15_Node000010_Node000016"><a xlink:title=" ">
<path fill="none" stroke="#63b8ff" d="M671.91,-838.85C641.36,-829.06 602.33,-817.32 567,-809 553.15,-805.74 538.43,-802.73 523.94,-800.03"/>
<polygon fill="#63b8ff" stroke="#63b8ff" points="670.92,-842.21 681.51,-841.95 673.07,-835.55 670.92,-842.21"/>
</a>
</g>
</g>
<!-- Node17 -->
<g id="Node000017" class="node">
<title>Node17</title>
<g id="a_Node000017"><a xlink:href="classcom_1_1teragrep_1_1pth__06_1_1planner_1_1walker_1_1conditions_1_1IndexConditionTest.html#a4004c2bc04159576e79677a9b34f7cb8" target="_top" xlink:title=" ">
<polygon fill="white" stroke="#666666" points="552.5,-752 298.5,-752 298.5,-722 552.5,-722 552.5,-752"/>
<text text-anchor="start" x="306.5" y="-740" font-family="Helvetica,sans-Serif" font-size="10.00">com.teragrep.pth_06.planner.walker.conditions.</text>
<text text-anchor="middle" x="425.5" y="-729" font-family="Helvetica,sans-Serif" font-size="10.00">IndexConditionTest.wildcardNegationAsFalseTest</text>
</a>
</g>
</g>
<!-- Node10&#45;&gt;Node17 -->
<g id="edge16_Node000010_Node000017" class="edge">
<title>Node10&#45;&gt;Node17</title>
<g id="a_edge16_Node000010_Node000017"><a xlink:title=" ">
<path fill="none" stroke="#63b8ff" d="M698.26,-835.79C667.77,-813.58 616.51,-779.42 567,-761 557.72,-757.55 547.91,-754.59 537.97,-752.05"/>
<polygon fill="#63b8ff" stroke="#63b8ff" points="696.54,-838.87 706.66,-841.99 700.7,-833.24 696.54,-838.87"/>
</a>
</g>
</g>
<!-- Node19 -->
<g id="Node000019" class="node">
<title>Node19</title>
<g id="a_Node000019"><a xlink:href="classcom_1_1teragrep_1_1pth__06_1_1planner_1_1walker_1_1conditions_1_1IndexStatementConditionTest.html#aee8f642495a3c26dce06361c3e44056b" target="_top" xlink:title=" ">
<polygon fill="white" stroke="#666666" points="549.5,-704 301.5,-704 301.5,-674 549.5,-674 549.5,-704"/>
<text text-anchor="start" x="309.5" y="-692" font-family="Helvetica,sans-Serif" font-size="10.00">com.teragrep.pth_06.planner.walker.conditions.</text>
<text text-anchor="middle" x="425.5" y="-681" font-family="Helvetica,sans-Serif" font-size="10.00">IndexStatementConditionTest.noMatchesTest</text>
</a>
</g>
</g>
<!-- Node18&#45;&gt;Node19 -->
<g id="edge18_Node000018_Node000019" class="edge">
<title>Node18&#45;&gt;Node19</title>
<g id="a_edge18_Node000018_Node000019"><a xlink:title=" ">
<path fill="none" stroke="#63b8ff" d="M671.91,-635.15C641.36,-644.94 602.33,-656.68 567,-665 553.15,-668.26 538.43,-671.27 523.94,-673.97"/>
<polygon fill="#63b8ff" stroke="#63b8ff" points="673.07,-638.45 681.51,-632.05 670.92,-631.79 673.07,-638.45"/>
</a>
</g>
</g>
<!-- Node20 -->
<g id="Node000020" class="node">
<title>Node20</title>
<g id="a_Node000020"><a xlink:href="classcom_1_1teragrep_1_1pth__06_1_1planner_1_1walker_1_1conditions_1_1IndexStatementConditionTest.html#a69de61f785b7a9fafee36855f7394932" target="_top" xlink:title=" ">
<polygon fill="white" stroke="#666666" points="561.5,-656 289.5,-656 289.5,-626 561.5,-626 561.5,-656"/>
<text text-anchor="start" x="297.5" y="-644" font-family="Helvetica,sans-Serif" font-size="10.00">com.teragrep.pth_06.planner.walker.conditions.</text>
<text text-anchor="middle" x="425.5" y="-633" font-family="Helvetica,sans-Serif" font-size="10.00">IndexStatementConditionTest.oneMatchingTableTest</text>
</a>
</g>
</g>
<!-- Node18&#45;&gt;Node20 -->
<g id="edge19_Node000018_Node000020" class="edge">
<title>Node18&#45;&gt;Node20</title>
<g id="a_edge19_Node000018_Node000020"><a xlink:title=" ">
<path fill="none" stroke="#63b8ff" d="M592.67,-627.68C582.42,-628.51 572.06,-629.34 561.79,-630.16"/>
<polygon fill="#63b8ff" stroke="#63b8ff" points="593.2,-631.15 602.89,-626.87 592.64,-624.18 593.2,-631.15"/>
</a>
</g>
</g>
<!-- Node21 -->
<g id="Node000021" class="node">
<title>Node21</title>
<g id="a_Node000021"><a xlink:href="classcom_1_1teragrep_1_1pth__06_1_1planner_1_1walker_1_1conditions_1_1IndexStatementConditionTest.html#affd12bbea6998863dc96bc4bdd7ab74f" target="_top" xlink:title=" ">
<polygon fill="white" stroke="#666666" points="561.5,-608 289.5,-608 289.5,-578 561.5,-578 561.5,-608"/>
<text text-anchor="start" x="297.5" y="-596" font-family="Helvetica,sans-Serif" font-size="10.00">com.teragrep.pth_06.planner.walker.conditions.</text>
<text text-anchor="middle" x="425.5" y="-585" font-family="Helvetica,sans-Serif" font-size="10.00">IndexStatementConditionTest.twoMatchingTableTest</text>
</a>
</g>
</g>
<!-- Node18&#45;&gt;Node21 -->
<g id="edge20_Node000018_Node000021" class="edge">
<title>Node18&#45;&gt;Node21</title>
<g id="a_edge20_Node000018_Node000021"><a xlink:title=" ">
<path fill="none" stroke="#63b8ff" d="M592.67,-606.32C582.42,-605.49 572.06,-604.66 561.79,-603.84"/>
<polygon fill="#63b8ff" stroke="#63b8ff" points="592.64,-609.82 602.89,-607.13 593.2,-602.85 592.64,-609.82"/>
</a>
</g>
</g>
<!-- Node23 -->
<g id="Node000023" class="node">
<title>Node23</title>
<g id="a_Node000023"><a xlink:href="classcom_1_1teragrep_1_1pth__06_1_1planner_1_1walker_1_1conditions_1_1SourceTypeConditionTest.html#ad61c6c368d81f41a20c821b7df11ee5e" target="_top" xlink:title=" ">
<polygon fill="white" stroke="#666666" points="549.5,-560 301.5,-560 301.5,-530 549.5,-530 549.5,-560"/>
<text text-anchor="start" x="309.5" y="-548" font-family="Helvetica,sans-Serif" font-size="10.00">com.teragrep.pth_06.planner.walker.conditions.</text>
<text text-anchor="middle" x="425.5" y="-537" font-family="Helvetica,sans-Serif" font-size="10.00">SourceTypeConditionTest.conditionTest</text>
</a>
</g>
</g>
<!-- Node22&#45;&gt;Node23 -->
<g id="edge22_Node000022_Node000023" class="edge">
<title>Node22&#45;&gt;Node23</title>
<g id="a_edge22_Node000022_Node000023"><a xlink:title=" ">
<path fill="none" stroke="#63b8ff" d="M703.9,-423.3C675.08,-450.94 621.85,-497.3 567,-521 559.05,-524.44 550.65,-527.38 542.06,-529.9"/>
<polygon fill="#63b8ff" stroke="#63b8ff" points="706.64,-425.51 711.36,-416.03 701.75,-420.5 706.64,-425.51"/>
</a>
</g>
</g>
<!-- Node24 -->
<g id="Node000024" class="node">
<title>Node24</title>
<g id="a_Node000024"><a xlink:href="classcom_1_1teragrep_1_1pth__06_1_1planner_1_1walker_1_1conditions_1_1SourceTypeConditionTest.html#a76f49325228f45cf50bf3de5d96ef616" target="_top" xlink:title=" ">
<polygon fill="white" stroke="#666666" points="549.5,-512 301.5,-512 301.5,-482 549.5,-482 549.5,-512"/>
<text text-anchor="start" x="309.5" y="-500" font-family="Helvetica,sans-Serif" font-size="10.00">com.teragrep.pth_06.planner.walker.conditions.</text>
<text text-anchor="middle" x="425.5" y="-489" font-family="Helvetica,sans-Serif" font-size="10.00">SourceTypeConditionTest.equalsTest</text>
</a>
</g>
</g>
<!-- Node22&#45;&gt;Node24 -->
<g id="edge23_Node000022_Node000024" class="edge">
<title>Node22&#45;&gt;Node24</title>
<g id="a_edge23_Node000022_Node000024"><a xlink:title=" ">
<path fill="none" stroke="#63b8ff" d="M689.55,-420.76C657.98,-437.07 610.64,-459.63 567,-473 555.88,-476.41 544.11,-479.37 532.3,-481.94"/>
<polygon fill="#63b8ff" stroke="#63b8ff" points="691.17,-423.86 698.42,-416.13 687.93,-417.65 691.17,-423.86"/>
</a>
</g>
</g>
<!-- Node25 -->
<g id="Node000025" class="node">
<title>Node25</title>
<g id="a_Node000025"><a xlink:href="classcom_1_1teragrep_1_1pth__06_1_1planner_1_1walker_1_1conditions_1_1SourceTypeConditionTest.html#a3236482704d05e3a1466e1c56ad4f3b8" target="_top" xlink:title=" ">
<polygon fill="white" stroke="#666666" points="549.5,-464 301.5,-464 301.5,-434 549.5,-434 549.5,-464"/>
<text text-anchor="start" x="309.5" y="-452" font-family="Helvetica,sans-Serif" font-size="10.00">com.teragrep.pth_06.planner.walker.conditions.</text>
<text text-anchor="middle" x="425.5" y="-441" font-family="Helvetica,sans-Serif" font-size="10.00">SourceTypeConditionTest.negationTest</text>
</a>
</g>
</g>
<!-- Node22&#45;&gt;Node25 -->
<g id="edge24_Node000022_Node000025" class="edge">
<title>Node22&#45;&gt;Node25</title>
<g id="a_edge24_Node000022_Node000025"><a xlink:title=" ">
<path fill="none" stroke="#63b8ff" d="M621.9,-417.68C588.8,-422.99 552.42,-428.82 520.11,-434"/>
<polygon fill="#63b8ff" stroke="#63b8ff" points="622.74,-421.09 632.06,-416.06 621.63,-414.18 622.74,-421.09"/>
</a>
</g>
</g>
<!-- Node26 -->
<g id="Node000026" class="node">
<title>Node26</title>
<g id="a_Node000026"><a xlink:href="classcom_1_1teragrep_1_1pth__06_1_1planner_1_1walker_1_1conditions_1_1SourceTypeConditionTest.html#a9f2dc0472ec9279fdf91456dc29cd983" target="_top" xlink:title=" ">
<polygon fill="white" stroke="#666666" points="549.5,-416 301.5,-416 301.5,-386 549.5,-386 549.5,-416"/>
<text text-anchor="start" x="309.5" y="-404" font-family="Helvetica,sans-Serif" font-size="10.00">com.teragrep.pth_06.planner.walker.conditions.</text>
<text text-anchor="middle" x="425.5" y="-393" font-family="Helvetica,sans-Serif" font-size="10.00">SourceTypeConditionTest.testPartialWildcard</text>
</a>
</g>
</g>
<!-- Node22&#45;&gt;Node26 -->
<g id="edge25_Node000022_Node000026" class="edge">
<title>Node22&#45;&gt;Node26</title>
<g id="a_edge25_Node000022_Node000026"><a xlink:title=" ">
<path fill="none" stroke="#63b8ff" d="M592.53,-401C578.25,-401 563.77,-401 549.62,-401"/>
<polygon fill="#63b8ff" stroke="#63b8ff" points="592.89,-404.5 602.89,-401 592.89,-397.5 592.89,-404.5"/>
</a>
</g>
</g>
<!-- Node27 -->
<g id="Node000027" class="node">
<title>Node27</title>
<g id="a_Node000027"><a xlink:href="classcom_1_1teragrep_1_1pth__06_1_1planner_1_1walker_1_1conditions_1_1SourceTypeConditionTest.html#a087d6af1eb68621d0218ff09d7112615" target="_top" xlink:title=" ">
<polygon fill="white" stroke="#666666" points="549.5,-367.5 301.5,-367.5 301.5,-326.5 549.5,-326.5 549.5,-367.5"/>
<text text-anchor="start" x="309.5" y="-355.5" font-family="Helvetica,sans-Serif" font-size="10.00">com.teragrep.pth_06.planner.walker.conditions.</text>
<text text-anchor="start" x="309.5" y="-344.5" font-family="Helvetica,sans-Serif" font-size="10.00">SourceTypeConditionTest.testPartialWildcard</text>
<text text-anchor="middle" x="425.5" y="-333.5" font-family="Helvetica,sans-Serif" font-size="10.00">Negation</text>
</a>
</g>
</g>
<!-- Node22&#45;&gt;Node27 -->
<g id="edge26_Node000022_Node000027" class="edge">
<title>Node22&#45;&gt;Node27</title>
<g id="a_edge26_Node000022_Node000027"><a xlink:title=" ">
<path fill="none" stroke="#63b8ff" d="M632.39,-384.12C603.2,-378.86 570.68,-373 540.26,-367.51"/>
<polygon fill="#63b8ff" stroke="#63b8ff" points="632.11,-387.63 642.57,-385.96 633.35,-380.74 632.11,-387.63"/>
</a>
</g>
</g>
<!-- Node28 -->
<g id="Node000028" class="node">
<title>Node28</title>
<g id="a_Node000028"><a xlink:href="classcom_1_1teragrep_1_1pth__06_1_1planner_1_1walker_1_1conditions_1_1SourceTypeConditionTest.html#a130b0848f18b3c8c976cc421a14b030d" target="_top" xlink:title=" ">
<polygon fill="white" stroke="#666666" points="549.5,-308 301.5,-308 301.5,-278 549.5,-278 549.5,-308"/>
<text text-anchor="start" x="309.5" y="-296" font-family="Helvetica,sans-Serif" font-size="10.00">com.teragrep.pth_06.planner.walker.conditions.</text>
<text text-anchor="middle" x="425.5" y="-285" font-family="Helvetica,sans-Serif" font-size="10.00">SourceTypeConditionTest.wildcardAsTrueTest</text>
</a>
</g>
</g>
<!-- Node22&#45;&gt;Node28 -->
<g id="edge27_Node000022_Node000028" class="edge">
<title>Node22&#45;&gt;Node28</title>
<g id="a_edge27_Node000022_Node000028"><a xlink:title=" ">
<path fill="none" stroke="#63b8ff" d="M694.09,-380.61C662.88,-361.58 613.41,-333.82 567,-318 555.63,-314.12 543.52,-310.82 531.37,-308.01"/>
<polygon fill="#63b8ff" stroke="#63b8ff" points="692.43,-383.69 702.78,-385.97 696.1,-377.74 692.43,-383.69"/>
</a>
</g>
</g>
<!-- Node29 -->
<g id="Node000029" class="node">
<title>Node29</title>
<g id="a_Node000029"><a xlink:href="classcom_1_1teragrep_1_1pth__06_1_1planner_1_1walker_1_1conditions_1_1SourceTypeConditionTest.html#a74139121d37e0ac4f0d63ddc3d36e2de" target="_top" xlink:title=" ">
<polygon fill="white" stroke="#666666" points="567,-260 284,-260 284,-230 567,-230 567,-260"/>
<text text-anchor="start" x="292" y="-248" font-family="Helvetica,sans-Serif" font-size="10.00">com.teragrep.pth_06.planner.walker.conditions.</text>
<text text-anchor="middle" x="425.5" y="-237" font-family="Helvetica,sans-Serif" font-size="10.00">SourceTypeConditionTest.wildcardNegationAsFalseTest</text>
</a>
</g>
</g>
<!-- Node22&#45;&gt;Node29 -->
<g id="edge28_Node000022_Node000029" class="edge">
<title>Node22&#45;&gt;Node29</title>
<g id="a_edge28_Node000022_Node000029"><a xlink:title=" ">
<path fill="none" stroke="#63b8ff" d="M706.05,-378.24C678.16,-348.03 624.45,-295.42 567,-269 559.47,-265.54 551.5,-262.57 543.34,-260.03"/>
<polygon fill="#63b8ff" stroke="#63b8ff" points="703.57,-380.72 712.89,-385.77 708.76,-376.02 703.57,-380.72"/>
</a>
</g>
</g>
<!-- Node31 -->
<g id="Node000031" class="node">
<title>Node31</title>
<g id="a_Node000031"><a xlink:href="classcom_1_1teragrep_1_1pth__06_1_1planner_1_1walker_1_1conditions_1_1ElementCondition.html#a77e4bd928b9d9dd1e2ef3380f65e3ab7" target="_top" xlink:title=" ">
<polygon fill="white" stroke="#666666" points="549.5,-174 301.5,-174 301.5,-144 549.5,-144 549.5,-174"/>
<text text-anchor="start" x="309.5" y="-162" font-family="Helvetica,sans-Serif" font-size="10.00">com.teragrep.pth_06.planner.walker.conditions.</text>
<text text-anchor="middle" x="425.5" y="-151" font-family="Helvetica,sans-Serif" font-size="10.00">ElementCondition.condition</text>
</a>
</g>
</g>
<!-- Node30&#45;&gt;Node31 -->
<g id="edge30_Node000030_Node000031" class="edge">
<title>Node30&#45;&gt;Node31</title>
<g id="a_edge30_Node000030_Node000031"><a xlink:title=" ">
<path fill="none" stroke="#63b8ff" d="M592.53,-152.29C578.25,-152.22 563.77,-152.24 549.62,-152.35"/>
<polygon fill="#63b8ff" stroke="#63b8ff" points="592.87,-155.79 602.89,-152.35 592.91,-148.79 592.87,-155.79"/>
</a>
</g>
</g>
<!-- Node31&#45;&gt;Node30 -->
<g id="edge31_Node000031_Node000030" class="edge">
<title>Node31&#45;&gt;Node30</title>
<g id="a_edge31_Node000031_Node000030"><a xlink:title=" ">
<path fill="none" stroke="#63b8ff" d="M559.98,-165.71C574.25,-165.78 588.73,-165.76 602.89,-165.65"/>
<polygon fill="#63b8ff" stroke="#63b8ff" points="559.64,-162.21 549.62,-165.65 559.6,-169.21 559.64,-162.21"/>
</a>
</g>
</g>
<!-- Node31&#45;&gt;Node32 -->
<g id="edge32_Node000031_Node000032" class="edge">
<title>Node31&#45;&gt;Node32</title>
<g id="a_edge32_Node000031_Node000032"><a xlink:title=" ">
<path fill="none" stroke="#63b8ff" d="M291.41,-173.62C254.06,-179.44 215.31,-186.04 184.61,-191.93"/>
<polygon fill="#63b8ff" stroke="#63b8ff" points="292.04,-177.06 301.39,-172.08 290.97,-170.14 292.04,-177.06"/>
</a>
</g>
</g>
<!-- Node33 -->
<g id="Node000033" class="node">
<title>Node33</title>
<g id="a_Node000033"><a xlink:href="classcom_1_1teragrep_1_1pth__06_1_1planner_1_1walker_1_1conditions_1_1ElementConditionTest.html#aa7b824b2c1a077cb408c7e0532131e67" target="_top" xlink:title=" ">
<polygon fill="white" stroke="#666666" points="248,-174 0,-174 0,-144 248,-144 248,-174"/>
<text text-anchor="start" x="8" y="-162" font-family="Helvetica,sans-Serif" font-size="10.00">com.teragrep.pth_06.planner.walker.conditions.</text>
<text text-anchor="middle" x="124" y="-151" font-family="Helvetica,sans-Serif" font-size="10.00">ElementConditionTest.equalsTest</text>
</a>
</g>
</g>
<!-- Node31&#45;&gt;Node33 -->
<g id="edge34_Node000031_Node000033" class="edge">
<title>Node31&#45;&gt;Node33</title>
<g id="a_edge34_Node000031_Node000033"><a xlink:title=" ">
<path fill="none" stroke="#63b8ff" d="M291.03,-159C276.75,-159 262.27,-159 248.12,-159"/>
<polygon fill="#63b8ff" stroke="#63b8ff" points="291.39,-162.5 301.39,-159 291.39,-155.5 291.39,-162.5"/>
</a>
</g>
</g>
<!-- Node34 -->
<g id="Node000034" class="node">
<title>Node34</title>
<g id="a_Node000034"><a xlink:href="classcom_1_1teragrep_1_1pth__06_1_1planner_1_1walker_1_1conditions_1_1ElementConditionTest.html#afc3b6a3b2fe594a7c6df49f7ad3cb88a" target="_top" xlink:title=" ">
<polygon fill="white" stroke="#666666" points="248,-126 0,-126 0,-96 248,-96 248,-126"/>
<text text-anchor="start" x="8" y="-114" font-family="Helvetica,sans-Serif" font-size="10.00">com.teragrep.pth_06.planner.walker.conditions.</text>
<text text-anchor="middle" x="124" y="-103" font-family="Helvetica,sans-Serif" font-size="10.00">ElementConditionTest.testInvalidStreamTags</text>
</a>
</g>
</g>
<!-- Node31&#45;&gt;Node34 -->
<g id="edge35_Node000031_Node000034" class="edge">
<title>Node31&#45;&gt;Node34</title>
<g id="a_edge35_Node000031_Node000034"><a xlink:title=" ">
<path fill="none" stroke="#63b8ff" d="M320.4,-142.32C287.3,-137.01 250.92,-131.18 218.61,-126"/>
<polygon fill="#63b8ff" stroke="#63b8ff" points="320.13,-145.82 330.56,-143.94 321.24,-138.91 320.13,-145.82"/>
</a>
</g>
</g>
<!-- Node35 -->
<g id="Node000035" class="node">
<title>Node35</title>
<g id="a_Node000035"><a xlink:href="classcom_1_1teragrep_1_1pth__06_1_1planner_1_1walker_1_1conditions_1_1ElementConditionTest.html#a8128d1d936c645c93ebfc6f5fe4cdbe6" target="_top" xlink:title=" ">
<polygon fill="white" stroke="#666666" points="248,-78 0,-78 0,-48 248,-48 248,-78"/>
<text text-anchor="start" x="8" y="-66" font-family="Helvetica,sans-Serif" font-size="10.00">com.teragrep.pth_06.planner.walker.conditions.</text>
<text text-anchor="middle" x="124" y="-55" font-family="Helvetica,sans-Serif" font-size="10.00">ElementConditionTest.testStreamTags</text>
</a>
</g>
</g>
<!-- Node31&#45;&gt;Node35 -->
<g id="edge36_Node000031_Node000035" class="edge">
<title>Node31&#45;&gt;Node35</title>
<g id="a_edge36_Node000031_Node000035"><a xlink:title=" ">
<path fill="none" stroke="#63b8ff" d="M383.5,-139.61C348.24,-123.58 295.68,-101.23 248,-87 236.85,-83.67 224.98,-80.69 213.19,-78.05"/>
<polygon fill="#63b8ff" stroke="#63b8ff" points="382.42,-142.96 392.97,-143.95 385.34,-136.6 382.42,-142.96"/>
</a>
</g>
</g>
<!-- Node36 -->
<g id="Node000036" class="node">
<title>Node36</title>
<g id="a_Node000036"><a xlink:href="classcom_1_1teragrep_1_1pth__06_1_1planner_1_1walker_1_1conditions_1_1ElementConditionTest.html#aed3578cbc9f7e4f77695db0f1f45b40a" target="_top" xlink:title=" ">
<polygon fill="white" stroke="#666666" points="248,-30 0,-30 0,0 248,0 248,-30"/>
<text text-anchor="start" x="8" y="-18" font-family="Helvetica,sans-Serif" font-size="10.00">com.teragrep.pth_06.planner.walker.conditions.</text>
<text text-anchor="middle" x="124" y="-7" font-family="Helvetica,sans-Serif" font-size="10.00">ElementConditionTest.testTimeQualifiers</text>
</a>
</g>
</g>
<!-- Node31&#45;&gt;Node36 -->
<g id="edge37_Node000031_Node000036" class="edge">
<title>Node31&#45;&gt;Node36</title>
<g id="a_edge37_Node000031_Node000036"><a xlink:title=" ">
<path fill="none" stroke="#63b8ff" d="M399.71,-137.26C367.19,-109.96 307.28,-63.71 248,-39 239.77,-35.57 231.01,-32.62 222.12,-30.09"/>
<polygon fill="#63b8ff" stroke="#63b8ff" points="397.48,-139.96 407.37,-143.77 402.01,-134.63 397.48,-139.96"/>
</a>
</g>
</g>
<!-- Node32&#45;&gt;Node31 -->
<g id="edge33_Node000032_Node000031" class="edge">
<title>Node32&#45;&gt;Node31</title>
<g id="a_edge33_Node000032_Node000031"><a xlink:title=" ">
<path fill="none" stroke="#63b8ff" d="M258.16,-192.37C295.52,-186.55 334.28,-179.94 364.97,-174.06"/>
<polygon fill="#63b8ff" stroke="#63b8ff" points="257.53,-188.93 248.19,-193.91 258.6,-195.84 257.53,-188.93"/>
</a>
</g>
</g>
</g>
</svg>
