<?xml version="1.0" encoding="UTF-8" standalone="no"?>
<!DOCTYPE svg PUBLIC "-//W3C//DTD SVG 1.1//EN"
 "http://www.w3.org/Graphics/SVG/1.1/DTD/svg11.dtd">
<!-- Generated by graphviz version 2.43.0 (0)
 -->
<!-- Title: com.teragrep.pth_06.planner.offset.SerializedDatasourceOffset Pages: 1 -->
<svg width="307pt" height="171pt"
 viewBox="0.00 0.00 307.00 171.00" xmlns="http://www.w3.org/2000/svg" xmlns:xlink="http://www.w3.org/1999/xlink">
<g id="graph0" class="graph" transform="scale(1 1) rotate(0) translate(4 167)">
<title>com.teragrep.pth_06.planner.offset.SerializedDatasourceOffset</title>
<!-- Node1 -->
<g id="Node000001" class="node">
<title>Node1</title>
<g id="a_Node000001"><a xlink:title=" ">
<polygon fill="#999999" stroke="#666666" points="191,-30 0,-30 0,0 191,0 191,-30"/>
<text text-anchor="start" x="8" y="-18" font-family="Helvetica,sans-Serif" font-size="10.00">com.teragrep.pth_06.planner.offset.</text>
<text text-anchor="middle" x="95.5" y="-7" font-family="Helvetica,sans-Serif" font-size="10.00">SerializedDatasourceOffset</text>
</a>
</g>
</g>
<!-- Node2 -->
<g id="Node000002" class="node">
<title>Node2</title>
<g id="a_Node000002"><a xlink:title=" ">
<polygon fill="white" stroke="#666666" points="139.5,-163 65.5,-163 65.5,-144 139.5,-144 139.5,-163"/>
<text text-anchor="middle" x="102.5" y="-151" font-family="Helvetica,sans-Serif" font-size="10.00">Serializable</text>
</a>
</g>
</g>
<!-- Node2&#45;&gt;Node1 -->
<g id="edge1_Node000001_Node000002" class="edge">
<title>Node2&#45;&gt;Node1</title>
<g id="a_edge1_Node000001_Node000002"><a xlink:title=" ">
<path fill="none" stroke="#63b8ff" d="M100.62,-133.78C99.86,-125.57 99.03,-115.82 98.5,-107 96.86,-79.86 96.07,-48.11 95.73,-30.2"/>
<polygon fill="#63b8ff" stroke="#63b8ff" points="97.14,-134.17 101.59,-143.79 104.11,-133.5 97.14,-134.17"/>
</a>
</g>
</g>
<!-- Node3 -->
<g id="Node000003" class="node">
<title>Node3</title>
<g id="a_Node000003"><a xlink:href="classcom_1_1teragrep_1_1pth__06_1_1planner_1_1offset_1_1KafkaOffset.html" target="_top" xlink:title=" ">
<polygon fill="white" stroke="#666666" points="299,-107 108,-107 108,-77 299,-77 299,-107"/>
<text text-anchor="start" x="116" y="-95" font-family="Helvetica,sans-Serif" font-size="10.00">com.teragrep.pth_06.planner.offset.</text>
<text text-anchor="middle" x="203.5" y="-84" font-family="Helvetica,sans-Serif" font-size="10.00">KafkaOffset</text>
</a>
</g>
</g>
<!-- Node2&#45;&gt;Node3 -->
<g id="edge4_Node000003_Node000002" class="edge">
<title>Node2&#45;&gt;Node3</title>
<g id="a_edge4_Node000003_Node000002"><a xlink:title=" ">
<path fill="none" stroke="#63b8ff" d="M125.8,-138.78C141.96,-129.25 163.42,-116.61 179.7,-107.02"/>
<polygon fill="#63b8ff" stroke="#63b8ff" points="123.81,-135.88 116.97,-143.98 127.36,-141.91 123.81,-135.88"/>
</a>
</g>
</g>
<!-- Node3&#45;&gt;Node1 -->
<g id="edge2_Node000001_Node000003" class="edge">
<title>Node3&#45;&gt;Node1</title>
<g id="a_edge2_Node000001_Node000003"><a xlink:title=" ">
<path fill="none" stroke="#9a32cd" stroke-dasharray="5,2" d="M174.78,-71.05C156.16,-58.13 132.37,-41.6 115.72,-30.04"/>
<polygon fill="#9a32cd" stroke="#9a32cd" points="172.98,-74.06 183.19,-76.89 176.97,-68.31 172.98,-74.06"/>
</a>
</g>
<text text-anchor="middle" x="186" y="-51" font-family="Helvetica,sans-Serif" font-size="10.00" fill="grey"> kafkaOffset</text>
</g>
<!-- Node4 -->
<g id="Node000004" class="node">
<title>Node4</title>
<g id="a_Node000004"><a xlink:title=" ">
<polygon fill="white" stroke="#666666" points="226.5,-163 180.5,-163 180.5,-144 226.5,-144 226.5,-163"/>
<text text-anchor="middle" x="203.5" y="-151" font-family="Helvetica,sans-Serif" font-size="10.00">Offset</text>
</a>
</g>
</g>
<!-- Node4&#45;&gt;Node3 -->
<g id="edge3_Node000003_Node000004" class="edge">
<title>Node4&#45;&gt;Node3</title>
<g id="a_edge3_Node000003_Node000004"><a xlink:title=" ">
<path fill="none" stroke="#63b8ff" d="M203.5,-133.73C203.5,-125.09 203.5,-115 203.5,-107.02"/>
<polygon fill="#63b8ff" stroke="#63b8ff" points="200,-133.98 203.5,-143.98 207,-133.98 200,-133.98"/>
</a>
</g>
</g>
</g>
</svg>
