<?xml version="1.0" encoding="UTF-8" standalone="no"?>
<!DOCTYPE svg PUBLIC "-//W3C//DTD SVG 1.1//EN"
 "http://www.w3.org/Graphics/SVG/1.1/DTD/svg11.dtd">
<!-- Generated by graphviz version 2.43.0 (0)
 -->
<!-- Title: com.teragrep.pth_06.planner.offset.DatasourceOffset Pages: 1 -->
<svg width="199pt" height="93pt"
 viewBox="0.00 0.00 199.00 93.00" xmlns="http://www.w3.org/2000/svg" xmlns:xlink="http://www.w3.org/1999/xlink">
<g id="graph0" class="graph" transform="scale(1 1) rotate(0) translate(4 89)">
<title>com.teragrep.pth_06.planner.offset.DatasourceOffset</title>
<!-- Node1 -->
<g id="Node000001" class="node">
<title>Node1</title>
<g id="a_Node000001"><a xlink:title=" ">
<polygon fill="#999999" stroke="#666666" points="191,-30 0,-30 0,0 191,0 191,-30"/>
<text text-anchor="start" x="8" y="-18" font-family="Helvetica,sans-Serif" font-size="10.00">com.teragrep.pth_06.planner.offset.</text>
<text text-anchor="middle" x="95.5" y="-7" font-family="Helvetica,sans-Serif" font-size="10.00">DatasourceOffset</text>
</a>
</g>
</g>
<!-- Node2 -->
<g id="Node000002" class="node">
<title>Node2</title>
<g id="a_Node000002"><a xlink:title=" ">
<polygon fill="white" stroke="#666666" points="79.5,-85 33.5,-85 33.5,-66 79.5,-66 79.5,-85"/>
<text text-anchor="middle" x="56.5" y="-73" font-family="Helvetica,sans-Serif" font-size="10.00">Offset</text>
</a>
</g>
</g>
<!-- Node2&#45;&gt;Node1 -->
<g id="edge1_Node000001_Node000002" class="edge">
<title>Node2&#45;&gt;Node1</title>
<g id="a_edge1_Node000001_Node000002"><a xlink:title=" ">
<path fill="none" stroke="#63b8ff" d="M67.95,-57.33C73.72,-48.67 80.63,-38.3 86.09,-30.11"/>
<polygon fill="#63b8ff" stroke="#63b8ff" points="64.89,-55.61 62.25,-65.87 70.71,-59.49 64.89,-55.61"/>
</a>
</g>
</g>
<!-- Node3 -->
<g id="Node000003" class="node">
<title>Node3</title>
<g id="a_Node000003"><a xlink:title=" ">
<polygon fill="white" stroke="#666666" points="171.5,-85 97.5,-85 97.5,-66 171.5,-66 171.5,-85"/>
<text text-anchor="middle" x="134.5" y="-73" font-family="Helvetica,sans-Serif" font-size="10.00">Serializable</text>
</a>
</g>
</g>
<!-- Node3&#45;&gt;Node1 -->
<g id="edge2_Node000001_Node000003" class="edge">
<title>Node3&#45;&gt;Node1</title>
<g id="a_edge2_Node000001_Node000003"><a xlink:title=" ">
<path fill="none" stroke="#63b8ff" d="M123.05,-57.33C117.28,-48.67 110.37,-38.3 104.91,-30.11"/>
<polygon fill="#63b8ff" stroke="#63b8ff" points="120.29,-59.49 128.75,-65.87 126.11,-55.61 120.29,-59.49"/>
</a>
</g>
</g>
</g>
</svg>
