<?xml version="1.0" encoding="UTF-8" standalone="no"?>
<!DOCTYPE svg PUBLIC "-//W3C//DTD SVG 1.1//EN"
 "http://www.w3.org/Graphics/SVG/1.1/DTD/svg11.dtd">
<!-- Generated by graphviz version 2.43.0 (0)
 -->
<!-- Title: com.teragrep.pth_06.planner.walker.conditions.ValidElement.validate Pages: 1 -->
<svg width="1392pt" height="344pt"
 viewBox="0.00 0.00 1392.00 344.00" xmlns="http://www.w3.org/2000/svg" xmlns:xlink="http://www.w3.org/1999/xlink">
<g id="graph0" class="graph" transform="scale(1 1) rotate(0) translate(4 340)">
<title>com.teragrep.pth_06.planner.walker.conditions.ValidElement.validate</title>
<!-- Node1 -->
<g id="Node000001" class="node">
<title>Node1</title>
<g id="a_Node000001"><a xlink:title=" ">
<polygon fill="#999999" stroke="#666666" points="1384,-154 1136,-154 1136,-124 1384,-124 1384,-154"/>
<text text-anchor="start" x="1144" y="-142" font-family="Helvetica,sans-Serif" font-size="10.00">com.teragrep.pth_06.planner.walker.conditions.</text>
<text text-anchor="middle" x="1260" y="-131" font-family="Helvetica,sans-Serif" font-size="10.00">ValidElement.validate</text>
</a>
</g>
</g>
<!-- Node2 -->
<g id="Node000002" class="node">
<title>Node2</title>
<g id="a_Node000002"><a xlink:href="classcom_1_1teragrep_1_1pth__06_1_1planner_1_1walker_1_1conditions_1_1ValidElement.html#a7a4670f256d613e6433c461cf275ae5c" target="_top" xlink:title=" ">
<polygon fill="white" stroke="#666666" points="1100,-154 852,-154 852,-124 1100,-124 1100,-154"/>
<text text-anchor="start" x="860" y="-142" font-family="Helvetica,sans-Serif" font-size="10.00">com.teragrep.pth_06.planner.walker.conditions.</text>
<text text-anchor="middle" x="976" y="-131" font-family="Helvetica,sans-Serif" font-size="10.00">ValidElement.operation</text>
</a>
</g>
</g>
<!-- Node1&#45;&gt;Node2 -->
<g id="edge1_Node000001_Node000002" class="edge">
<title>Node1&#45;&gt;Node2</title>
<g id="a_edge1_Node000001_Node000002"><a xlink:title=" ">
<path fill="none" stroke="#63b8ff" d="M1125.53,-139C1117.16,-139 1108.75,-139 1100.43,-139"/>
<polygon fill="#63b8ff" stroke="#63b8ff" points="1125.72,-142.5 1135.72,-139 1125.72,-135.5 1125.72,-142.5"/>
</a>
</g>
</g>
<!-- Node12 -->
<g id="Node000012" class="node">
<title>Node12</title>
<g id="a_Node000012"><a xlink:href="classcom_1_1teragrep_1_1pth__06_1_1planner_1_1walker_1_1conditions_1_1ValidElement.html#a5f5d7e1e5a7d4596f0df0c86657fa310" target="_top" xlink:title=" ">
<polygon fill="white" stroke="#666666" points="1100,-221 852,-221 852,-191 1100,-191 1100,-221"/>
<text text-anchor="start" x="860" y="-209" font-family="Helvetica,sans-Serif" font-size="10.00">com.teragrep.pth_06.planner.walker.conditions.</text>
<text text-anchor="middle" x="976" y="-198" font-family="Helvetica,sans-Serif" font-size="10.00">ValidElement.tag</text>
</a>
</g>
</g>
<!-- Node1&#45;&gt;Node12 -->
<g id="edge13_Node000001_Node000012" class="edge">
<title>Node1&#45;&gt;Node12</title>
<g id="a_edge13_Node000001_Node000012"><a xlink:title=" ">
<path fill="none" stroke="#63b8ff" d="M1185.72,-156.41C1140.72,-167.1 1083.65,-180.66 1040.56,-190.9"/>
<polygon fill="#63b8ff" stroke="#63b8ff" points="1186.79,-159.75 1195.71,-154.04 1185.18,-152.94 1186.79,-159.75"/>
</a>
</g>
</g>
<!-- Node15 -->
<g id="Node000015" class="node">
<title>Node15</title>
<g id="a_Node000015"><a xlink:href="classcom_1_1teragrep_1_1pth__06_1_1planner_1_1walker_1_1conditions_1_1ValidElement.html#ac0ea2df270c90db9d9cc284d8f56222d" target="_top" xlink:title=" ">
<polygon fill="white" stroke="#666666" points="1100,-90 852,-90 852,-60 1100,-60 1100,-90"/>
<text text-anchor="start" x="860" y="-78" font-family="Helvetica,sans-Serif" font-size="10.00">com.teragrep.pth_06.planner.walker.conditions.</text>
<text text-anchor="middle" x="976" y="-67" font-family="Helvetica,sans-Serif" font-size="10.00">ValidElement.value</text>
</a>
</g>
</g>
<!-- Node1&#45;&gt;Node15 -->
<g id="edge19_Node000001_Node000015" class="edge">
<title>Node1&#45;&gt;Node15</title>
<g id="a_edge19_Node000001_Node000015"><a xlink:title=" ">
<path fill="none" stroke="#63b8ff" d="M1182.89,-121.73C1139.27,-111.83 1085.04,-99.52 1043.19,-90.02"/>
<polygon fill="#63b8ff" stroke="#63b8ff" points="1182.36,-125.19 1192.88,-123.99 1183.91,-118.37 1182.36,-125.19"/>
</a>
</g>
</g>
<!-- Node3 -->
<g id="Node000003" class="node">
<title>Node3</title>
<g id="a_Node000003"><a xlink:href="classcom_1_1teragrep_1_1pth__06_1_1planner_1_1walker_1_1conditions_1_1ElementCondition.html#a77e4bd928b9d9dd1e2ef3380f65e3ab7" target="_top" xlink:title=" ">
<polygon fill="white" stroke="#666666" points="532,-140 284,-140 284,-110 532,-110 532,-140"/>
<text text-anchor="start" x="292" y="-128" font-family="Helvetica,sans-Serif" font-size="10.00">com.teragrep.pth_06.planner.walker.conditions.</text>
<text text-anchor="middle" x="408" y="-117" font-family="Helvetica,sans-Serif" font-size="10.00">ElementCondition.condition</text>
</a>
</g>
</g>
<!-- Node2&#45;&gt;Node3 -->
<g id="edge2_Node000002_Node000003" class="edge">
<title>Node2&#45;&gt;Node3</title>
<g id="a_edge2_Node000002_Node000003"><a xlink:title=" ">
<path fill="none" stroke="#63b8ff" d="M881.44,-122.49C860,-119.38 837.27,-116.6 816,-115 720.85,-107.86 612.87,-111.03 532.05,-115.62"/>
<polygon fill="#63b8ff" stroke="#63b8ff" points="881.1,-125.98 891.51,-124 882.14,-119.06 881.1,-125.98"/>
</a>
</g>
</g>
<!-- Node8 -->
<g id="Node000008" class="node">
<title>Node8</title>
<g id="a_Node000008"><a xlink:href="classcom_1_1teragrep_1_1pth__06_1_1planner_1_1walker_1_1conditions_1_1ElementCondition.html#af340b59529954bf83536432d3512af34" target="_top" xlink:title=" ">
<polygon fill="white" stroke="#666666" points="816,-240 568,-240 568,-210 816,-210 816,-240"/>
<text text-anchor="start" x="576" y="-228" font-family="Helvetica,sans-Serif" font-size="10.00">com.teragrep.pth_06.planner.walker.conditions.</text>
<text text-anchor="middle" x="692" y="-217" font-family="Helvetica,sans-Serif" font-size="10.00">ElementCondition.isBloomSearchCondition</text>
</a>
</g>
</g>
<!-- Node2&#45;&gt;Node8 -->
<g id="edge8_Node000002_Node000008" class="edge">
<title>Node2&#45;&gt;Node8</title>
<g id="a_edge8_Node000002_Node000008"><a xlink:title=" ">
<path fill="none" stroke="#63b8ff" d="M915.9,-157.02C864.45,-172.71 790.74,-195.19 742.39,-209.94"/>
<polygon fill="#63b8ff" stroke="#63b8ff" points="917.01,-160.34 925.56,-154.08 914.97,-153.65 917.01,-160.34"/>
</a>
</g>
</g>
<!-- Node11 -->
<g id="Node000011" class="node">
<title>Node11</title>
<g id="a_Node000011"><a xlink:href="classcom_1_1teragrep_1_1pth__06_1_1planner_1_1walker_1_1conditions_1_1ValidElementTest.html#aebd4924948cd0e533806857b2ba0ba83" target="_top" xlink:title=" ">
<polygon fill="white" stroke="#666666" points="816,-154 568,-154 568,-124 816,-124 816,-154"/>
<text text-anchor="start" x="576" y="-142" font-family="Helvetica,sans-Serif" font-size="10.00">com.teragrep.pth_06.planner.walker.conditions.</text>
<text text-anchor="middle" x="692" y="-131" font-family="Helvetica,sans-Serif" font-size="10.00">ValidElementTest.validTest</text>
</a>
</g>
</g>
<!-- Node2&#45;&gt;Node11 -->
<g id="edge12_Node000002_Node000011" class="edge">
<title>Node2&#45;&gt;Node11</title>
<g id="a_edge12_Node000002_Node000011"><a xlink:title=" ">
<path fill="none" stroke="#63b8ff" d="M841.53,-139C833.16,-139 824.75,-139 816.43,-139"/>
<polygon fill="#63b8ff" stroke="#63b8ff" points="841.72,-142.5 851.72,-139 841.72,-135.5 841.72,-142.5"/>
</a>
</g>
</g>
<!-- Node3&#45;&gt;Node3 -->
<g id="edge3_Node000003_Node000003" class="edge">
<title>Node3&#45;&gt;Node3</title>
<g id="a_edge3_Node000003_Node000003"><a xlink:title=" ">
<path fill="none" stroke="#63b8ff" d="M457.97,-150.42C451.35,-154.89 434.69,-158 408,-158 363.62,-158 346.98,-149.41 358.08,-140.28"/>
<polygon fill="#63b8ff" stroke="#63b8ff" points="461.47,-150.26 457.92,-140.28 454.47,-150.29 461.47,-150.26"/>
</a>
</g>
</g>
<!-- Node4 -->
<g id="Node000004" class="node">
<title>Node4</title>
<g id="a_Node000004"><a xlink:href="classcom_1_1teragrep_1_1pth__06_1_1planner_1_1walker_1_1conditions_1_1ElementConditionTest.html#aa7b824b2c1a077cb408c7e0532131e67" target="_top" xlink:title=" ">
<polygon fill="white" stroke="#666666" points="248,-212 0,-212 0,-182 248,-182 248,-212"/>
<text text-anchor="start" x="8" y="-200" font-family="Helvetica,sans-Serif" font-size="10.00">com.teragrep.pth_06.planner.walker.conditions.</text>
<text text-anchor="middle" x="124" y="-189" font-family="Helvetica,sans-Serif" font-size="10.00">ElementConditionTest.equalsTest</text>
</a>
</g>
</g>
<!-- Node3&#45;&gt;Node4 -->
<g id="edge4_Node000003_Node000004" class="edge">
<title>Node3&#45;&gt;Node4</title>
<g id="a_edge4_Node000003_Node000004"><a xlink:title=" ">
<path fill="none" stroke="#63b8ff" d="M351.84,-143.14C321.42,-152.77 282.85,-164.36 248,-173 235.12,-176.19 221.39,-179.23 207.95,-182"/>
<polygon fill="#63b8ff" stroke="#63b8ff" points="352.95,-146.46 361.42,-140.09 350.82,-139.79 352.95,-146.46"/>
</a>
</g>
</g>
<!-- Node5 -->
<g id="Node000005" class="node">
<title>Node5</title>
<g id="a_Node000005"><a xlink:href="classcom_1_1teragrep_1_1pth__06_1_1planner_1_1walker_1_1conditions_1_1ElementConditionTest.html#afc3b6a3b2fe594a7c6df49f7ad3cb88a" target="_top" xlink:title=" ">
<polygon fill="white" stroke="#666666" points="248,-164 0,-164 0,-134 248,-134 248,-164"/>
<text text-anchor="start" x="8" y="-152" font-family="Helvetica,sans-Serif" font-size="10.00">com.teragrep.pth_06.planner.walker.conditions.</text>
<text text-anchor="middle" x="124" y="-141" font-family="Helvetica,sans-Serif" font-size="10.00">ElementConditionTest.testInvalidStreamTags</text>
</a>
</g>
</g>
<!-- Node3&#45;&gt;Node5 -->
<g id="edge5_Node000003_Node000005" class="edge">
<title>Node3&#45;&gt;Node5</title>
<g id="a_edge5_Node000003_Node000005"><a xlink:title=" ">
<path fill="none" stroke="#63b8ff" d="M273.53,-136.36C265.16,-137.07 256.75,-137.79 248.43,-138.5"/>
<polygon fill="#63b8ff" stroke="#63b8ff" points="274.05,-139.83 283.72,-135.49 273.46,-132.85 274.05,-139.83"/>
</a>
</g>
</g>
<!-- Node6 -->
<g id="Node000006" class="node">
<title>Node6</title>
<g id="a_Node000006"><a xlink:href="classcom_1_1teragrep_1_1pth__06_1_1planner_1_1walker_1_1conditions_1_1ElementConditionTest.html#a8128d1d936c645c93ebfc6f5fe4cdbe6" target="_top" xlink:title=" ">
<polygon fill="white" stroke="#666666" points="248,-116 0,-116 0,-86 248,-86 248,-116"/>
<text text-anchor="start" x="8" y="-104" font-family="Helvetica,sans-Serif" font-size="10.00">com.teragrep.pth_06.planner.walker.conditions.</text>
<text text-anchor="middle" x="124" y="-93" font-family="Helvetica,sans-Serif" font-size="10.00">ElementConditionTest.testStreamTags</text>
</a>
</g>
</g>
<!-- Node3&#45;&gt;Node6 -->
<g id="edge6_Node000003_Node000006" class="edge">
<title>Node3&#45;&gt;Node6</title>
<g id="a_edge6_Node000003_Node000006"><a xlink:title=" ">
<path fill="none" stroke="#63b8ff" d="M273.53,-113.64C265.16,-112.93 256.75,-112.21 248.43,-111.5"/>
<polygon fill="#63b8ff" stroke="#63b8ff" points="273.46,-117.15 283.72,-114.51 274.05,-110.17 273.46,-117.15"/>
</a>
</g>
</g>
<!-- Node7 -->
<g id="Node000007" class="node">
<title>Node7</title>
<g id="a_Node000007"><a xlink:href="classcom_1_1teragrep_1_1pth__06_1_1planner_1_1walker_1_1conditions_1_1ElementConditionTest.html#aed3578cbc9f7e4f77695db0f1f45b40a" target="_top" xlink:title=" ">
<polygon fill="white" stroke="#666666" points="248,-68 0,-68 0,-38 248,-38 248,-68"/>
<text text-anchor="start" x="8" y="-56" font-family="Helvetica,sans-Serif" font-size="10.00">com.teragrep.pth_06.planner.walker.conditions.</text>
<text text-anchor="middle" x="124" y="-45" font-family="Helvetica,sans-Serif" font-size="10.00">ElementConditionTest.testTimeQualifiers</text>
</a>
</g>
</g>
<!-- Node3&#45;&gt;Node7 -->
<g id="edge7_Node000003_Node000007" class="edge">
<title>Node3&#45;&gt;Node7</title>
<g id="a_edge7_Node000003_Node000007"><a xlink:title=" ">
<path fill="none" stroke="#63b8ff" d="M351.84,-106.86C321.42,-97.23 282.85,-85.64 248,-77 235.12,-73.81 221.39,-70.77 207.95,-68"/>
<polygon fill="#63b8ff" stroke="#63b8ff" points="350.82,-110.21 361.42,-109.91 352.95,-103.54 350.82,-110.21"/>
</a>
</g>
</g>
<!-- Node8&#45;&gt;Node3 -->
<g id="edge9_Node000008_Node000003" class="edge">
<title>Node8&#45;&gt;Node3</title>
<g id="a_edge9_Node000008_Node000003"><a xlink:title=" ">
<path fill="none" stroke="#63b8ff" d="M596.54,-206.98C586.7,-203.85 577.02,-200.22 568,-196 549.88,-187.53 549.61,-178.47 532,-169 510.03,-157.18 484.23,-147.4 461.95,-140.08"/>
<polygon fill="#63b8ff" stroke="#63b8ff" points="595.81,-210.41 606.4,-209.93 597.82,-203.71 595.81,-210.41"/>
</a>
</g>
</g>
<!-- Node9 -->
<g id="Node000009" class="node">
<title>Node9</title>
<g id="a_Node000009"><a xlink:href="classcom_1_1teragrep_1_1pth__06_1_1planner_1_1walker_1_1conditions_1_1ElementConditionTest.html#ac00569686f11d16cb1b703c1823cb467" target="_top" xlink:title=" ">
<polygon fill="white" stroke="#666666" points="532,-218.5 284,-218.5 284,-177.5 532,-177.5 532,-218.5"/>
<text text-anchor="start" x="292" y="-206.5" font-family="Helvetica,sans-Serif" font-size="10.00">com.teragrep.pth_06.planner.walker.conditions.</text>
<text text-anchor="start" x="292" y="-195.5" font-family="Helvetica,sans-Serif" font-size="10.00">ElementConditionTest.testIndexStatementWith</text>
<text text-anchor="middle" x="408" y="-184.5" font-family="Helvetica,sans-Serif" font-size="10.00">BadConnection</text>
</a>
</g>
</g>
<!-- Node8&#45;&gt;Node9 -->
<g id="edge10_Node000008_Node000009" class="edge">
<title>Node8&#45;&gt;Node9</title>
<g id="a_edge10_Node000008_Node000009"><a xlink:title=" ">
<path fill="none" stroke="#63b8ff" d="M557.53,-212.22C549.16,-211.42 540.75,-210.61 532.43,-209.82"/>
<polygon fill="#63b8ff" stroke="#63b8ff" points="557.43,-215.73 567.72,-213.2 558.1,-208.76 557.43,-215.73"/>
</a>
</g>
</g>
<!-- Node10 -->
<g id="Node000010" class="node">
<title>Node10</title>
<g id="a_Node000010"><a xlink:href="classcom_1_1teragrep_1_1pth__06_1_1planner_1_1walker_1_1conditions_1_1ElementConditionTest.html#a6a7f290b7a91e0b6218d4e4f01887ac2" target="_top" xlink:title=" ">
<polygon fill="white" stroke="#666666" points="532,-267 284,-267 284,-237 532,-237 532,-267"/>
<text text-anchor="start" x="292" y="-255" font-family="Helvetica,sans-Serif" font-size="10.00">com.teragrep.pth_06.planner.walker.conditions.</text>
<text text-anchor="middle" x="408" y="-244" font-family="Helvetica,sans-Serif" font-size="10.00">ElementConditionTest.testIsIndexStatement</text>
</a>
</g>
</g>
<!-- Node8&#45;&gt;Node10 -->
<g id="edge11_Node000008_Node000010" class="edge">
<title>Node8&#45;&gt;Node10</title>
<g id="a_edge11_Node000008_Node000010"><a xlink:title=" ">
<path fill="none" stroke="#63b8ff" d="M557.53,-237.78C549.16,-238.58 540.75,-239.39 532.43,-240.18"/>
<polygon fill="#63b8ff" stroke="#63b8ff" points="558.1,-241.24 567.72,-236.8 557.43,-234.27 558.1,-241.24"/>
</a>
</g>
</g>
<!-- Node12&#45;&gt;Node3 -->
<g id="edge14_Node000012_Node000003" class="edge">
<title>Node12&#45;&gt;Node3</title>
<g id="a_edge14_Node000012_Node000003"><a xlink:title=" ">
<path fill="none" stroke="#63b8ff" d="M841.88,-196.31C762.1,-189.42 658.83,-178.58 568,-163 533.17,-157.02 494.62,-147.87 464.19,-140.05"/>
<polygon fill="#63b8ff" stroke="#63b8ff" points="841.73,-199.81 851.99,-197.17 842.32,-192.83 841.73,-199.81"/>
</a>
</g>
</g>
<!-- Node12&#45;&gt;Node8 -->
<g id="edge15_Node000012_Node000008" class="edge">
<title>Node12&#45;&gt;Node8</title>
<g id="a_edge15_Node000012_Node000008"><a xlink:title=" ">
<path fill="none" stroke="#63b8ff" d="M841.53,-214.99C833.16,-215.56 824.75,-216.12 816.43,-216.68"/>
<polygon fill="#63b8ff" stroke="#63b8ff" points="841.98,-218.47 851.72,-214.31 841.51,-211.49 841.98,-218.47"/>
</a>
</g>
</g>
<!-- Node12&#45;&gt;Node11 -->
<g id="edge18_Node000012_Node000011" class="edge">
<title>Node12&#45;&gt;Node11</title>
<g id="a_edge18_Node000012_Node000011"><a xlink:title=" ">
<path fill="none" stroke="#63b8ff" d="M902.52,-188.63C875.39,-182.14 844.28,-174.71 816,-168 796.79,-163.44 775.88,-158.5 756.85,-154.01"/>
<polygon fill="#63b8ff" stroke="#63b8ff" points="901.79,-192.05 912.33,-190.98 903.42,-185.25 901.79,-192.05"/>
</a>
</g>
</g>
<!-- Node13 -->
<g id="Node000013" class="node">
<title>Node13</title>
<g id="a_Node000013"><a xlink:href="classcom_1_1teragrep_1_1pth__06_1_1planner_1_1walker_1_1conditions_1_1ValidElementTest.html#a67d8cf6b8fd53006859128966b2287d7" target="_top" xlink:title=" ">
<polygon fill="white" stroke="#666666" points="816,-288 568,-288 568,-258 816,-258 816,-288"/>
<text text-anchor="start" x="576" y="-276" font-family="Helvetica,sans-Serif" font-size="10.00">com.teragrep.pth_06.planner.walker.conditions.</text>
<text text-anchor="middle" x="692" y="-265" font-family="Helvetica,sans-Serif" font-size="10.00">ValidElementTest.missingOperationTest</text>
</a>
</g>
</g>
<!-- Node12&#45;&gt;Node13 -->
<g id="edge16_Node000012_Node000013" class="edge">
<title>Node12&#45;&gt;Node13</title>
<g id="a_edge16_Node000012_Node000013"><a xlink:title=" ">
<path fill="none" stroke="#63b8ff" d="M913.26,-223.8C883.92,-231.97 848.28,-241.5 816,-249 802.65,-252.1 788.42,-255.13 774.55,-257.94"/>
<polygon fill="#63b8ff" stroke="#63b8ff" points="914.27,-227.15 922.96,-221.08 912.39,-220.41 914.27,-227.15"/>
</a>
</g>
</g>
<!-- Node14 -->
<g id="Node000014" class="node">
<title>Node14</title>
<g id="a_Node000014"><a xlink:href="classcom_1_1teragrep_1_1pth__06_1_1planner_1_1walker_1_1conditions_1_1ValidElementTest.html#ac832b513f4dce1d1de9214c9d54ddfdd" target="_top" xlink:title=" ">
<polygon fill="white" stroke="#666666" points="816,-336 568,-336 568,-306 816,-306 816,-336"/>
<text text-anchor="start" x="576" y="-324" font-family="Helvetica,sans-Serif" font-size="10.00">com.teragrep.pth_06.planner.walker.conditions.</text>
<text text-anchor="middle" x="692" y="-313" font-family="Helvetica,sans-Serif" font-size="10.00">ValidElementTest.missingValueTest</text>
</a>
</g>
</g>
<!-- Node12&#45;&gt;Node14 -->
<g id="edge17_Node000012_Node000014" class="edge">
<title>Node12&#45;&gt;Node14</title>
<g id="a_edge17_Node000012_Node000014"><a xlink:title=" ">
<path fill="none" stroke="#63b8ff" d="M945.45,-226.88C914.57,-247.71 864.02,-279.13 816,-297 806.82,-300.41 797.07,-303.37 787.23,-305.92"/>
<polygon fill="#63b8ff" stroke="#63b8ff" points="947.71,-229.57 953.99,-221.04 943.76,-223.79 947.71,-229.57"/>
</a>
</g>
</g>
<!-- Node15&#45;&gt;Node3 -->
<g id="edge20_Node000015_Node000003" class="edge">
<title>Node15&#45;&gt;Node3</title>
<g id="a_edge20_Node000015_Node000003"><a xlink:title=" ">
<path fill="none" stroke="#63b8ff" d="M841.91,-83.69C762.35,-89.25 659.31,-97.07 568,-106 555.69,-107.2 542.85,-108.56 530.05,-109.99"/>
<polygon fill="#63b8ff" stroke="#63b8ff" points="842.26,-87.17 851.99,-82.99 841.77,-80.19 842.26,-87.17"/>
</a>
</g>
</g>
<!-- Node15&#45;&gt;Node11 -->
<g id="edge22_Node000015_Node000011" class="edge">
<title>Node15&#45;&gt;Node11</title>
<g id="a_edge22_Node000015_Node000011"><a xlink:title=" ">
<path fill="none" stroke="#63b8ff" d="M898.89,-92.27C855.27,-102.17 801.04,-114.48 759.19,-123.98"/>
<polygon fill="#63b8ff" stroke="#63b8ff" points="899.91,-95.63 908.88,-90.01 898.36,-88.81 899.91,-95.63"/>
</a>
</g>
</g>
<!-- Node16 -->
<g id="Node000016" class="node">
<title>Node16</title>
<g id="a_Node000016"><a xlink:href="classcom_1_1teragrep_1_1pth__06_1_1planner_1_1walker_1_1conditions_1_1ElementCondition.html#a39e39896a78174cc458ec2266e6f1ddc" target="_top" xlink:title="A set of tables needed to be joined to the query to use this condition.">
<polygon fill="white" stroke="#666666" points="816,-30 568,-30 568,0 816,0 816,-30"/>
<text text-anchor="start" x="576" y="-18" font-family="Helvetica,sans-Serif" font-size="10.00">com.teragrep.pth_06.planner.walker.conditions.</text>
<text text-anchor="middle" x="692" y="-7" font-family="Helvetica,sans-Serif" font-size="10.00">ElementCondition.requiredTables</text>
</a>
</g>
</g>
<!-- Node15&#45;&gt;Node16 -->
<g id="edge21_Node000015_Node000016" class="edge">
<title>Node15&#45;&gt;Node16</title>
<g id="a_edge21_Node000015_Node000016"><a xlink:title=" ">
<path fill="none" stroke="#63b8ff" d="M894.21,-57.81C853.05,-49.05 803.47,-38.5 763.83,-30.07"/>
<polygon fill="#63b8ff" stroke="#63b8ff" points="893.69,-61.28 904.2,-59.94 895.15,-54.43 893.69,-61.28"/>
</a>
</g>
</g>
</g>
</svg>
