<?xml version="1.0" encoding="UTF-8" standalone="no"?>
<!DOCTYPE svg PUBLIC "-//W3C//DTD SVG 1.1//EN"
 "http://www.w3.org/Graphics/SVG/1.1/DTD/svg11.dtd">
<!-- Generated by graphviz version 2.43.0 (0)
 -->
<!-- Title: com.teragrep.pth_06.TeragrepDatasource Pages: 1 -->
<svg width="385pt" height="93pt"
 viewBox="0.00 0.00 384.50 93.00" xmlns="http://www.w3.org/2000/svg" xmlns:xlink="http://www.w3.org/1999/xlink">
<g id="graph0" class="graph" transform="scale(1 1) rotate(0) translate(4 89)">
<title>com.teragrep.pth_06.TeragrepDatasource</title>
<!-- Node1 -->
<g id="Node000001" class="node">
<title>Node1</title>
<g id="a_Node000001"><a xlink:title=" ">
<polygon fill="#999999" stroke="#666666" points="294,-30 131,-30 131,0 294,0 294,-30"/>
<text text-anchor="start" x="139" y="-18" font-family="Helvetica,sans-Serif" font-size="10.00">com.teragrep.pth_06.Teragrep</text>
<text text-anchor="middle" x="212.5" y="-7" font-family="Helvetica,sans-Serif" font-size="10.00">Datasource</text>
</a>
</g>
</g>
<!-- Node2 -->
<g id="Node000002" class="node">
<title>Node2</title>
<g id="a_Node000002"><a xlink:title=" ">
<polygon fill="white" stroke="#666666" points="113,-85 0,-85 0,-66 113,-66 113,-85"/>
<text text-anchor="middle" x="56.5" y="-73" font-family="Helvetica,sans-Serif" font-size="10.00">DataSourceRegister</text>
</a>
</g>
</g>
<!-- Node2&#45;&gt;Node1 -->
<g id="edge1_Node000001_Node000002" class="edge">
<title>Node2&#45;&gt;Node1</title>
<g id="a_edge1_Node000001_Node000002"><a xlink:title=" ">
<path fill="none" stroke="#63b8ff" d="M88.61,-62.46C113.7,-53.05 148.62,-39.95 175,-30.06"/>
<polygon fill="#63b8ff" stroke="#63b8ff" points="87.32,-59.21 79.18,-65.99 89.78,-65.76 87.32,-59.21"/>
</a>
</g>
</g>
<!-- Node3 -->
<g id="Node000003" class="node">
<title>Node3</title>
<g id="a_Node000003"><a xlink:title=" ">
<polygon fill="white" stroke="#666666" points="214,-85 131,-85 131,-66 214,-66 214,-85"/>
<text text-anchor="middle" x="172.5" y="-73" font-family="Helvetica,sans-Serif" font-size="10.00">TableProvider</text>
</a>
</g>
</g>
<!-- Node3&#45;&gt;Node1 -->
<g id="edge2_Node000001_Node000003" class="edge">
<title>Node3&#45;&gt;Node1</title>
<g id="a_edge2_Node000001_Node000003"><a xlink:title=" ">
<path fill="none" stroke="#63b8ff" d="M184.05,-57.61C190.01,-48.89 197.19,-38.39 202.85,-30.11"/>
<polygon fill="#63b8ff" stroke="#63b8ff" points="181.16,-55.64 178.4,-65.87 186.94,-59.59 181.16,-55.64"/>
</a>
</g>
</g>
<!-- Node4 -->
<g id="Node000004" class="node">
<title>Node4</title>
<g id="a_Node000004"><a xlink:title=" ">
<polygon fill="white" stroke="#666666" points="274.5,-85 232.5,-85 232.5,-66 274.5,-66 274.5,-85"/>
<text text-anchor="middle" x="253.5" y="-73" font-family="Helvetica,sans-Serif" font-size="10.00">Table</text>
</a>
</g>
</g>
<!-- Node4&#45;&gt;Node1 -->
<g id="edge3_Node000001_Node000004" class="edge">
<title>Node4&#45;&gt;Node1</title>
<g id="a_edge3_Node000001_Node000004"><a xlink:title=" ">
<path fill="none" stroke="#63b8ff" d="M241.66,-57.61C235.55,-48.89 228.19,-38.39 222.39,-30.11"/>
<polygon fill="#63b8ff" stroke="#63b8ff" points="238.84,-59.69 247.45,-65.87 244.58,-55.67 238.84,-59.69"/>
</a>
</g>
</g>
<!-- Node5 -->
<g id="Node000005" class="node">
<title>Node5</title>
<g id="a_Node000005"><a xlink:title=" ">
<polygon fill="white" stroke="#666666" points="376.5,-85 292.5,-85 292.5,-66 376.5,-66 376.5,-85"/>
<text text-anchor="middle" x="334.5" y="-73" font-family="Helvetica,sans-Serif" font-size="10.00">SupportsRead</text>
</a>
</g>
</g>
<!-- Node5&#45;&gt;Node1 -->
<g id="edge4_Node000001_Node000005" class="edge">
<title>Node5&#45;&gt;Node1</title>
<g id="a_edge4_Node000001_Node000005"><a xlink:title=" ">
<path fill="none" stroke="#63b8ff" d="M307.57,-61.59C288.19,-52.29 262.03,-39.75 242.07,-30.18"/>
<polygon fill="#63b8ff" stroke="#63b8ff" points="306.23,-64.83 316.76,-65.99 309.26,-58.51 306.23,-64.83"/>
</a>
</g>
</g>
</g>
</svg>
