<?xml version="1.0" encoding="UTF-8" standalone="no"?>
<!DOCTYPE svg PUBLIC "-//W3C//DTD SVG 1.1//EN"
 "http://www.w3.org/Graphics/SVG/1.1/DTD/svg11.dtd">
<!-- Generated by graphviz version 2.43.0 (0)
 -->
<!-- Title: com.teragrep.pth_06.planner.NestedTopNQuery.getTableStatement Pages: 1 -->
<svg width="624pt" height="124pt"
 viewBox="0.00 0.00 624.00 124.00" xmlns="http://www.w3.org/2000/svg" xmlns:xlink="http://www.w3.org/1999/xlink">
<g id="graph0" class="graph" transform="scale(1 1) rotate(0) translate(4 120)">
<title>com.teragrep.pth_06.planner.NestedTopNQuery.getTableStatement</title>
<!-- Node1 -->
<g id="Node000001" class="node">
<title>Node1</title>
<g id="a_Node000001"><a xlink:title=" ">
<polygon fill="#999999" stroke="#666666" points="198,-73 0,-73 0,-43 198,-43 198,-73"/>
<text text-anchor="start" x="8" y="-61" font-family="Helvetica,sans-Serif" font-size="10.00">com.teragrep.pth_06.planner.</text>
<text text-anchor="middle" x="99" y="-50" font-family="Helvetica,sans-Serif" font-size="10.00">NestedTopNQuery.getTableStatement</text>
</a>
</g>
</g>
<!-- Node2 -->
<g id="Node000002" class="node">
<title>Node2</title>
<g id="a_Node000002"><a xlink:href="classcom_1_1teragrep_1_1pth__06_1_1ConfiguredLogger.html#a432bade7d6310bed1e1b9a405fb53d56" target="_top" xlink:title=" ">
<polygon fill="white" stroke="#666666" points="407,-116 234,-116 234,-86 407,-86 407,-116"/>
<text text-anchor="start" x="242" y="-104" font-family="Helvetica,sans-Serif" font-size="10.00">com.teragrep.pth_06.Configured</text>
<text text-anchor="middle" x="320.5" y="-93" font-family="Helvetica,sans-Serif" font-size="10.00">Logger.debug</text>
</a>
</g>
</g>
<!-- Node1&#45;&gt;Node2 -->
<g id="edge1_Node000001_Node000002" class="edge">
<title>Node1&#45;&gt;Node2</title>
<g id="a_edge1_Node000001_Node000002"><a xlink:title=" ">
<path fill="none" stroke="#63b8ff" d="M176.77,-73.04C194.9,-76.59 214.35,-80.4 232.88,-84.03"/>
<polygon fill="#63b8ff" stroke="#63b8ff" points="232.29,-87.48 242.77,-85.97 233.63,-80.61 232.29,-87.48"/>
</a>
</g>
</g>
<!-- Node3 -->
<g id="Node000003" class="node">
<title>Node3</title>
<g id="a_Node000003"><a xlink:href="classcom_1_1teragrep_1_1pth__06_1_1ConfiguredLogger.html#adbd659cefc990abe9b2da58d3dae9970" target="_top" xlink:title=" ">
<polygon fill="white" stroke="#666666" points="616,-94 443,-94 443,-64 616,-64 616,-94"/>
<text text-anchor="start" x="451" y="-82" font-family="Helvetica,sans-Serif" font-size="10.00">com.teragrep.pth_06.Configured</text>
<text text-anchor="middle" x="529.5" y="-71" font-family="Helvetica,sans-Serif" font-size="10.00">Logger.info</text>
</a>
</g>
</g>
<!-- Node1&#45;&gt;Node3 -->
<g id="edge3_Node000001_Node000003" class="edge">
<title>Node1&#45;&gt;Node3</title>
<g id="a_edge3_Node000001_Node000003"><a xlink:title=" ">
<path fill="none" stroke="#63b8ff" d="M198.04,-62.8C268.44,-66.26 362.85,-70.88 432.73,-74.31"/>
<polygon fill="#63b8ff" stroke="#63b8ff" points="432.7,-77.81 442.86,-74.8 433.04,-70.82 432.7,-77.81"/>
</a>
</g>
</g>
<!-- Node4 -->
<g id="Node000004" class="node">
<title>Node4</title>
<g id="a_Node000004"><a xlink:href="classcom_1_1teragrep_1_1pth__06_1_1ConfiguredLogger.html#a03c44f8bbcceea9ce885498f428247cd" target="_top" xlink:title=" ">
<polygon fill="white" stroke="#666666" points="407,-30 234,-30 234,0 407,0 407,-30"/>
<text text-anchor="start" x="242" y="-18" font-family="Helvetica,sans-Serif" font-size="10.00">com.teragrep.pth_06.Configured</text>
<text text-anchor="middle" x="320.5" y="-7" font-family="Helvetica,sans-Serif" font-size="10.00">Logger.isInfoEnabled</text>
</a>
</g>
</g>
<!-- Node1&#45;&gt;Node4 -->
<g id="edge4_Node000001_Node000004" class="edge">
<title>Node1&#45;&gt;Node4</title>
<g id="a_edge4_Node000001_Node000004"><a xlink:title=" ">
<path fill="none" stroke="#63b8ff" d="M176.77,-42.96C194.9,-39.41 214.35,-35.6 232.88,-31.97"/>
<polygon fill="#63b8ff" stroke="#63b8ff" points="233.63,-35.39 242.77,-30.03 232.29,-28.52 233.63,-35.39"/>
</a>
</g>
</g>
<!-- Node2&#45;&gt;Node3 -->
<g id="edge2_Node000002_Node000003" class="edge">
<title>Node2&#45;&gt;Node3</title>
<g id="a_edge2_Node000002_Node000003"><a xlink:title=" ">
<path fill="none" stroke="#63b8ff" d="M407.19,-91.89C415.66,-90.99 424.3,-90.07 432.87,-89.16"/>
<polygon fill="#63b8ff" stroke="#63b8ff" points="433.3,-92.64 442.88,-88.1 432.56,-85.68 433.3,-92.64"/>
</a>
</g>
</g>
</g>
</svg>
