<?xml version="1.0" encoding="UTF-8" standalone="no"?>
<!DOCTYPE svg PUBLIC "-//W3C//DTD SVG 1.1//EN"
 "http://www.w3.org/Graphics/SVG/1.1/DTD/svg11.dtd">
<!-- Generated by graphviz version 2.43.0 (0)
 -->
<!-- Title: Graphical Class Hierarchy Pages: 1 -->
<svg width="540pt" height="518pt"
 viewBox="0.00 0.00 540.00 518.00" xmlns="http://www.w3.org/2000/svg" xmlns:xlink="http://www.w3.org/1999/xlink">
<g id="graph0" class="graph" transform="scale(1 1) rotate(0) translate(4 514)">
<title>Graphical Class Hierarchy</title>
<!-- Node0 -->
<g id="Node000000" class="node">
<title>Node0</title>
<g id="a_Node000000"><a xlink:href="interfacecom_1_1teragrep_1_1pth__06_1_1planner_1_1walker_1_1conditions_1_1BloomQueryCondition.html" target="_top" xlink:title=" ">
<polygon fill="white" stroke="#666666" points="248,-462 0,-462 0,-432 248,-432 248,-462"/>
<text text-anchor="start" x="8" y="-450" font-family="Helvetica,sans-Serif" font-size="10.00">com.teragrep.pth_06.planner.walker.conditions.</text>
<text text-anchor="middle" x="124" y="-439" font-family="Helvetica,sans-Serif" font-size="10.00">BloomQueryCondition</text>
</a>
</g>
</g>
<!-- Node1 -->
<g id="Node000001" class="node">
<title>Node1</title>
<g id="a_Node000001"><a xlink:href="classcom_1_1teragrep_1_1pth__06_1_1planner_1_1walker_1_1conditions_1_1ElementCondition.html" target="_top" xlink:title="Creates a query condition from provided dom element.">
<polygon fill="white" stroke="#666666" points="532,-510 284,-510 284,-480 532,-480 532,-510"/>
<text text-anchor="start" x="292" y="-498" font-family="Helvetica,sans-Serif" font-size="10.00">com.teragrep.pth_06.planner.walker.conditions.</text>
<text text-anchor="middle" x="408" y="-487" font-family="Helvetica,sans-Serif" font-size="10.00">ElementCondition</text>
</a>
</g>
</g>
<!-- Node0&#45;&gt;Node1 -->
<g id="edge14_Node000000_Node000001" class="edge">
<title>Node0&#45;&gt;Node1</title>
<g id="a_edge14_Node000000_Node000001"><a xlink:title=" ">
<path fill="none" stroke="#63b8ff" d="M223.42,-463.75C254.47,-469.04 288.57,-474.84 318.86,-480"/>
<polygon fill="#63b8ff" stroke="#63b8ff" points="223.9,-460.28 213.45,-462.06 222.72,-467.18 223.9,-460.28"/>
</a>
</g>
</g>
<!-- Node7 -->
<g id="Node000007" class="node">
<title>Node7</title>
<g id="a_Node000007"><a xlink:href="classcom_1_1teragrep_1_1pth__06_1_1planner_1_1walker_1_1conditions_1_1IndexStatementCondition.html" target="_top" xlink:title=" ">
<polygon fill="white" stroke="#666666" points="532,-462 284,-462 284,-432 532,-432 532,-462"/>
<text text-anchor="start" x="292" y="-450" font-family="Helvetica,sans-Serif" font-size="10.00">com.teragrep.pth_06.planner.walker.conditions.</text>
<text text-anchor="middle" x="408" y="-439" font-family="Helvetica,sans-Serif" font-size="10.00">IndexStatementCondition</text>
</a>
</g>
</g>
<!-- Node0&#45;&gt;Node7 -->
<g id="edge15_Node000000_Node000007" class="edge">
<title>Node0&#45;&gt;Node7</title>
<g id="a_edge15_Node000000_Node000007"><a xlink:title=" ">
<path fill="none" stroke="#63b8ff" d="M258.47,-447C266.84,-447 275.25,-447 283.57,-447"/>
<polygon fill="#63b8ff" stroke="#63b8ff" points="258.28,-443.5 248.28,-447 258.28,-450.5 258.28,-443.5"/>
</a>
</g>
</g>
<!-- Node12 -->
<g id="Node000012" class="node">
<title>Node12</title>
<g id="a_Node000012"><a xlink:href="classcom_1_1teragrep_1_1pth__06_1_1planner_1_1walker_1_1conditions_1_1WithoutFiltersCondition.html" target="_top" xlink:title=" ">
<polygon fill="white" stroke="#666666" points="532,-414 284,-414 284,-384 532,-384 532,-414"/>
<text text-anchor="start" x="292" y="-402" font-family="Helvetica,sans-Serif" font-size="10.00">com.teragrep.pth_06.planner.walker.conditions.</text>
<text text-anchor="middle" x="408" y="-391" font-family="Helvetica,sans-Serif" font-size="10.00">WithoutFiltersCondition</text>
</a>
</g>
</g>
<!-- Node0&#45;&gt;Node12 -->
<g id="edge16_Node000000_Node000012" class="edge">
<title>Node0&#45;&gt;Node12</title>
<g id="a_edge16_Node000000_Node000012"><a xlink:title=" ">
<path fill="none" stroke="#63b8ff" d="M223.42,-430.25C254.47,-424.96 288.57,-419.16 318.86,-414"/>
<polygon fill="#63b8ff" stroke="#63b8ff" points="222.72,-426.82 213.45,-431.94 223.9,-433.72 222.72,-426.82"/>
</a>
</g>
</g>
<!-- Node2 -->
<g id="Node000002" class="node">
<title>Node2</title>
<g id="a_Node000002"><a xlink:href="interfacecom_1_1teragrep_1_1pth__06_1_1planner_1_1walker_1_1conditions_1_1QueryCondition.html" target="_top" xlink:title=" ">
<polygon fill="white" stroke="#666666" points="248,-270 0,-270 0,-240 248,-240 248,-270"/>
<text text-anchor="start" x="8" y="-258" font-family="Helvetica,sans-Serif" font-size="10.00">com.teragrep.pth_06.planner.walker.conditions.</text>
<text text-anchor="middle" x="124" y="-247" font-family="Helvetica,sans-Serif" font-size="10.00">QueryCondition</text>
</a>
</g>
</g>
<!-- Node2&#45;&gt;Node1 -->
<g id="edge19_Node000002_Node000001" class="edge">
<title>Node2&#45;&gt;Node1</title>
<g id="a_edge19_Node000002_Node000001"><a xlink:title=" ">
<path fill="none" stroke="#63b8ff" d="M142.1,-278.34C182.91,-334.04 282.75,-470.21 284,-471 289.42,-474.43 295.23,-477.39 301.26,-479.95"/>
<polygon fill="#63b8ff" stroke="#63b8ff" points="144.81,-276.12 136.08,-270.12 139.16,-280.26 144.81,-276.12"/>
</a>
</g>
</g>
<!-- Node2&#45;&gt;Node7 -->
<g id="edge22_Node000002_Node000007" class="edge">
<title>Node2&#45;&gt;Node7</title>
<g id="a_edge22_Node000002_Node000007"><a xlink:title=" ">
<path fill="none" stroke="#63b8ff" d="M140.14,-278.72C165.22,-315.89 219.12,-387.32 284,-423 290.29,-426.46 297,-429.43 303.93,-431.97"/>
<polygon fill="#63b8ff" stroke="#63b8ff" points="142.83,-276.45 134.39,-270.04 137,-280.31 142.83,-276.45"/>
</a>
</g>
</g>
<!-- Node2&#45;&gt;Node12 -->
<g id="edge27_Node000002_Node000012" class="edge">
<title>Node2&#45;&gt;Node12</title>
<g id="a_edge27_Node000002_Node000012"><a xlink:title=" ">
<path fill="none" stroke="#63b8ff" d="M147.66,-277.53C176.67,-305.01 229.73,-350.79 284,-375 291.75,-378.46 299.99,-381.42 308.4,-383.95"/>
<polygon fill="#63b8ff" stroke="#63b8ff" points="149.76,-274.7 140.13,-270.3 144.91,-279.75 149.76,-274.7"/>
</a>
</g>
</g>
<!-- Node3 -->
<g id="Node000003" class="node">
<title>Node3</title>
<g id="a_Node000003"><a xlink:href="classcom_1_1teragrep_1_1pth__06_1_1planner_1_1walker_1_1conditions_1_1CategoryTableCondition.html" target="_top" xlink:title="Row condition that compares the compareTo tables bloom filter bytes against category table.">
<polygon fill="white" stroke="#666666" points="532,-318 284,-318 284,-288 532,-288 532,-318"/>
<text text-anchor="start" x="292" y="-306" font-family="Helvetica,sans-Serif" font-size="10.00">com.teragrep.pth_06.planner.walker.conditions.</text>
<text text-anchor="middle" x="408" y="-295" font-family="Helvetica,sans-Serif" font-size="10.00">CategoryTableCondition</text>
</a>
</g>
</g>
<!-- Node2&#45;&gt;Node3 -->
<g id="edge17_Node000002_Node000003" class="edge">
<title>Node2&#45;&gt;Node3</title>
<g id="a_edge17_Node000002_Node000003"><a xlink:title=" ">
<path fill="none" stroke="#63b8ff" d="M223.42,-271.75C254.47,-277.04 288.57,-282.84 318.86,-288"/>
<polygon fill="#63b8ff" stroke="#63b8ff" points="223.9,-268.28 213.45,-270.06 222.72,-275.18 223.9,-268.28"/>
</a>
</g>
</g>
<!-- Node4 -->
<g id="Node000004" class="node">
<title>Node4</title>
<g id="a_Node000004"><a xlink:href="classcom_1_1teragrep_1_1pth__06_1_1planner_1_1walker_1_1conditions_1_1EarliestCondition.html" target="_top" xlink:title=" ">
<polygon fill="white" stroke="#666666" points="532,-270 284,-270 284,-240 532,-240 532,-270"/>
<text text-anchor="start" x="292" y="-258" font-family="Helvetica,sans-Serif" font-size="10.00">com.teragrep.pth_06.planner.walker.conditions.</text>
<text text-anchor="middle" x="408" y="-247" font-family="Helvetica,sans-Serif" font-size="10.00">EarliestCondition</text>
</a>
</g>
</g>
<!-- Node2&#45;&gt;Node4 -->
<g id="edge18_Node000002_Node000004" class="edge">
<title>Node2&#45;&gt;Node4</title>
<g id="a_edge18_Node000002_Node000004"><a xlink:title=" ">
<path fill="none" stroke="#63b8ff" d="M258.47,-255C266.84,-255 275.25,-255 283.57,-255"/>
<polygon fill="#63b8ff" stroke="#63b8ff" points="258.28,-251.5 248.28,-255 258.28,-258.5 258.28,-251.5"/>
</a>
</g>
</g>
<!-- Node5 -->
<g id="Node000005" class="node">
<title>Node5</title>
<g id="a_Node000005"><a xlink:href="classcom_1_1teragrep_1_1pth__06_1_1planner_1_1walker_1_1conditions_1_1HostCondition.html" target="_top" xlink:title=" ">
<polygon fill="white" stroke="#666666" points="532,-222 284,-222 284,-192 532,-192 532,-222"/>
<text text-anchor="start" x="292" y="-210" font-family="Helvetica,sans-Serif" font-size="10.00">com.teragrep.pth_06.planner.walker.conditions.</text>
<text text-anchor="middle" x="408" y="-199" font-family="Helvetica,sans-Serif" font-size="10.00">HostCondition</text>
</a>
</g>
</g>
<!-- Node2&#45;&gt;Node5 -->
<g id="edge20_Node000002_Node000005" class="edge">
<title>Node2&#45;&gt;Node5</title>
<g id="a_edge20_Node000002_Node000005"><a xlink:title=" ">
<path fill="none" stroke="#63b8ff" d="M223.42,-238.25C254.47,-232.96 288.57,-227.16 318.86,-222"/>
<polygon fill="#63b8ff" stroke="#63b8ff" points="222.72,-234.82 213.45,-239.94 223.9,-241.72 222.72,-234.82"/>
</a>
</g>
</g>
<!-- Node6 -->
<g id="Node000006" class="node">
<title>Node6</title>
<g id="a_Node000006"><a xlink:href="classcom_1_1teragrep_1_1pth__06_1_1planner_1_1walker_1_1conditions_1_1IndexCondition.html" target="_top" xlink:title=" ">
<polygon fill="white" stroke="#666666" points="532,-174 284,-174 284,-144 532,-144 532,-174"/>
<text text-anchor="start" x="292" y="-162" font-family="Helvetica,sans-Serif" font-size="10.00">com.teragrep.pth_06.planner.walker.conditions.</text>
<text text-anchor="middle" x="408" y="-151" font-family="Helvetica,sans-Serif" font-size="10.00">IndexCondition</text>
</a>
</g>
</g>
<!-- Node2&#45;&gt;Node6 -->
<g id="edge21_Node000002_Node000006" class="edge">
<title>Node2&#45;&gt;Node6</title>
<g id="a_edge21_Node000002_Node000006"><a xlink:title=" ">
<path fill="none" stroke="#63b8ff" d="M161.82,-235.36C193.44,-219.22 240.65,-196.84 284,-183 294.57,-179.63 305.81,-176.64 317.04,-174.03"/>
<polygon fill="#63b8ff" stroke="#63b8ff" points="160.22,-232.24 152.93,-239.94 163.43,-238.47 160.22,-232.24"/>
</a>
</g>
</g>
<!-- Node8 -->
<g id="Node000008" class="node">
<title>Node8</title>
<g id="a_Node000008"><a xlink:href="classcom_1_1teragrep_1_1pth__06_1_1planner_1_1walker_1_1conditions_1_1LatestCondition.html" target="_top" xlink:title=" ">
<polygon fill="white" stroke="#666666" points="532,-126 284,-126 284,-96 532,-96 532,-126"/>
<text text-anchor="start" x="292" y="-114" font-family="Helvetica,sans-Serif" font-size="10.00">com.teragrep.pth_06.planner.walker.conditions.</text>
<text text-anchor="middle" x="408" y="-103" font-family="Helvetica,sans-Serif" font-size="10.00">LatestCondition</text>
</a>
</g>
</g>
<!-- Node2&#45;&gt;Node8 -->
<g id="edge23_Node000002_Node000008" class="edge">
<title>Node2&#45;&gt;Node8</title>
<g id="a_edge23_Node000002_Node000008"><a xlink:title=" ">
<path fill="none" stroke="#63b8ff" d="M147.66,-232.47C176.67,-204.99 229.73,-159.21 284,-135 291.75,-131.54 299.99,-128.58 308.4,-126.05"/>
<polygon fill="#63b8ff" stroke="#63b8ff" points="144.91,-230.25 140.13,-239.7 149.76,-235.3 144.91,-230.25"/>
</a>
</g>
</g>
<!-- Node9 -->
<g id="Node000009" class="node">
<title>Node9</title>
<g id="a_Node000009"><a xlink:href="classcom_1_1teragrep_1_1pth__06_1_1planner_1_1walker_1_1conditions_1_1RegexLikeCondition.html" target="_top" xlink:title="true if input value regex like comparedTo value, compared against BLOOMDB.FILTERTYPE....">
<polygon fill="white" stroke="#666666" points="532,-78 284,-78 284,-48 532,-48 532,-78"/>
<text text-anchor="start" x="292" y="-66" font-family="Helvetica,sans-Serif" font-size="10.00">com.teragrep.pth_06.planner.walker.conditions.</text>
<text text-anchor="middle" x="408" y="-55" font-family="Helvetica,sans-Serif" font-size="10.00">RegexLikeCondition</text>
</a>
</g>
</g>
<!-- Node2&#45;&gt;Node9 -->
<g id="edge24_Node000002_Node000009" class="edge">
<title>Node2&#45;&gt;Node9</title>
<g id="a_edge24_Node000002_Node000009"><a xlink:title=" ">
<path fill="none" stroke="#63b8ff" d="M140.14,-231.28C165.22,-194.11 219.12,-122.68 284,-87 290.29,-83.54 297,-80.57 303.93,-78.03"/>
<polygon fill="#63b8ff" stroke="#63b8ff" points="137,-229.69 134.39,-239.96 142.83,-233.55 137,-229.69"/>
</a>
</g>
</g>
<!-- Node10 -->
<g id="Node000010" class="node">
<title>Node10</title>
<g id="a_Node000010"><a xlink:href="classcom_1_1teragrep_1_1pth__06_1_1planner_1_1walker_1_1conditions_1_1SourceTypeCondition.html" target="_top" xlink:title=" ">
<polygon fill="white" stroke="#666666" points="532,-30 284,-30 284,0 532,0 532,-30"/>
<text text-anchor="start" x="292" y="-18" font-family="Helvetica,sans-Serif" font-size="10.00">com.teragrep.pth_06.planner.walker.conditions.</text>
<text text-anchor="middle" x="408" y="-7" font-family="Helvetica,sans-Serif" font-size="10.00">SourceTypeCondition</text>
</a>
</g>
</g>
<!-- Node2&#45;&gt;Node10 -->
<g id="edge25_Node000002_Node000010" class="edge">
<title>Node2&#45;&gt;Node10</title>
<g id="a_edge25_Node000002_Node000010"><a xlink:title=" ">
<path fill="none" stroke="#63b8ff" d="M135.4,-230.82C156.34,-185.28 208.13,-87.04 284,-39 289.42,-35.57 295.23,-32.61 301.26,-30.05"/>
<polygon fill="#63b8ff" stroke="#63b8ff" points="132.2,-229.4 131.3,-239.96 138.59,-232.27 132.2,-229.4"/>
</a>
</g>
</g>
<!-- Node11 -->
<g id="Node000011" class="node">
<title>Node11</title>
<g id="a_Node000011"><a xlink:href="classcom_1_1teragrep_1_1pth__06_1_1planner_1_1walker_1_1conditions_1_1StringEqualsCondition.html" target="_top" xlink:title="Condition to check if two fields are equal.">
<polygon fill="white" stroke="#666666" points="532,-366 284,-366 284,-336 532,-336 532,-366"/>
<text text-anchor="start" x="292" y="-354" font-family="Helvetica,sans-Serif" font-size="10.00">com.teragrep.pth_06.planner.walker.conditions.</text>
<text text-anchor="middle" x="408" y="-343" font-family="Helvetica,sans-Serif" font-size="10.00">StringEqualsCondition</text>
</a>
</g>
</g>
<!-- Node2&#45;&gt;Node11 -->
<g id="edge26_Node000002_Node000011" class="edge">
<title>Node2&#45;&gt;Node11</title>
<g id="a_edge26_Node000002_Node000011"><a xlink:title=" ">
<path fill="none" stroke="#63b8ff" d="M161.82,-274.64C193.44,-290.78 240.65,-313.16 284,-327 294.57,-330.37 305.81,-333.36 317.04,-335.97"/>
<polygon fill="#63b8ff" stroke="#63b8ff" points="163.43,-271.53 152.93,-270.06 160.22,-277.76 163.43,-271.53"/>
</a>
</g>
</g>
</g>
</svg>
