<?xml version="1.0" encoding="UTF-8" standalone="no"?>
<!DOCTYPE svg PUBLIC "-//W3C//DTD SVG 1.1//EN"
 "http://www.w3.org/Graphics/SVG/1.1/DTD/svg11.dtd">
<!-- Generated by graphviz version 2.43.0 (0)
 -->
<!-- Title: com.teragrep.pth_06.planner.bloomfilter.RegexExtractedValueTest.testRegexExtraction Pages: 1 -->
<svg width="501pt" height="56pt"
 viewBox="0.00 0.00 501.00 56.00" xmlns="http://www.w3.org/2000/svg" xmlns:xlink="http://www.w3.org/1999/xlink">
<g id="graph0" class="graph" transform="scale(1 1) rotate(0) translate(4 52)">
<title>com.teragrep.pth_06.planner.bloomfilter.RegexExtractedValueTest.testRegexExtraction</title>
<!-- Node1 -->
<g id="Node000001" class="node">
<title>Node1</title>
<g id="a_Node000001"><a xlink:title=" ">
<polygon fill="#999999" stroke="#666666" points="242,-30 0,-30 0,0 242,0 242,-30"/>
<text text-anchor="start" x="8" y="-18" font-family="Helvetica,sans-Serif" font-size="10.00">com.teragrep.pth_06.planner.bloomfilter.</text>
<text text-anchor="middle" x="121" y="-7" font-family="Helvetica,sans-Serif" font-size="10.00">RegexExtractedValueTest.testRegexExtraction</text>
</a>
</g>
</g>
<!-- Node2 -->
<g id="Node000002" class="node">
<title>Node2</title>
<g id="a_Node000002"><a xlink:href="classcom_1_1teragrep_1_1pth__06_1_1planner_1_1bloomfilter_1_1RegexExtractedValue.html#a65ee79e9e68930a9a809f3d6a86dd500" target="_top" xlink:title=" ">
<polygon fill="white" stroke="#666666" points="493,-30 278,-30 278,0 493,0 493,-30"/>
<text text-anchor="start" x="286" y="-18" font-family="Helvetica,sans-Serif" font-size="10.00">com.teragrep.pth_06.planner.bloomfilter.</text>
<text text-anchor="middle" x="385.5" y="-7" font-family="Helvetica,sans-Serif" font-size="10.00">RegexExtractedValue.tokens</text>
</a>
</g>
</g>
<!-- Node1&#45;&gt;Node2 -->
<g id="edge1_Node000001_Node000002" class="edge">
<title>Node1&#45;&gt;Node2</title>
<g id="a_edge1_Node000001_Node000002"><a xlink:title=" ">
<path fill="none" stroke="#63b8ff" d="M242.11,-15C250.56,-15 259.06,-15 267.49,-15"/>
<polygon fill="#63b8ff" stroke="#63b8ff" points="267.73,-18.5 277.73,-15 267.73,-11.5 267.73,-18.5"/>
</a>
</g>
</g>
<!-- Node2&#45;&gt;Node2 -->
<g id="edge2_Node000002_Node000002" class="edge">
<title>Node2&#45;&gt;Node2</title>
<g id="a_edge2_Node000002_Node000002"><a xlink:title=" ">
<path fill="none" stroke="#63b8ff" d="M339.09,-30.28C328.78,-39.41 344.25,-48 385.5,-48 409.99,-48 425.4,-44.97 431.71,-40.6"/>
<polygon fill="#63b8ff" stroke="#63b8ff" points="435.22,-40.34 431.91,-30.28 428.22,-40.21 435.22,-40.34"/>
</a>
</g>
</g>
</g>
</svg>
