<?xml version="1.0" encoding="UTF-8" standalone="no"?>
<!DOCTYPE svg PUBLIC "-//W3C//DTD SVG 1.1//EN"
 "http://www.w3.org/Graphics/SVG/1.1/DTD/svg11.dtd">
<!-- Generated by graphviz version 2.43.0 (0)
 -->
<!-- Title: com.teragrep.pth_06.ArchiveMicroStreamReader.mostRecentOffset Pages: 1 -->
<svg width="629pt" height="38pt"
 viewBox="0.00 0.00 629.00 38.00" xmlns="http://www.w3.org/2000/svg" xmlns:xlink="http://www.w3.org/1999/xlink">
<g id="graph0" class="graph" transform="scale(1 1) rotate(0) translate(4 34)">
<title>com.teragrep.pth_06.ArchiveMicroStreamReader.mostRecentOffset</title>
<!-- Node1 -->
<g id="Node000001" class="node">
<title>Node1</title>
<g id="a_Node000001"><a xlink:title=" ">
<polygon fill="#999999" stroke="#666666" points="203,-30 0,-30 0,0 203,0 203,-30"/>
<text text-anchor="start" x="8" y="-18" font-family="Helvetica,sans-Serif" font-size="10.00">com.teragrep.pth_06.Archive</text>
<text text-anchor="middle" x="101.5" y="-7" font-family="Helvetica,sans-Serif" font-size="10.00">MicroStreamReader.mostRecentOffset</text>
</a>
</g>
</g>
<!-- Node2 -->
<g id="Node000002" class="node">
<title>Node2</title>
<g id="a_Node000002"><a xlink:href="classcom_1_1teragrep_1_1pth__06_1_1ConfiguredLogger.html#a432bade7d6310bed1e1b9a405fb53d56" target="_top" xlink:title=" ">
<polygon fill="white" stroke="#666666" points="412,-30 239,-30 239,0 412,0 412,-30"/>
<text text-anchor="start" x="247" y="-18" font-family="Helvetica,sans-Serif" font-size="10.00">com.teragrep.pth_06.Configured</text>
<text text-anchor="middle" x="325.5" y="-7" font-family="Helvetica,sans-Serif" font-size="10.00">Logger.debug</text>
</a>
</g>
</g>
<!-- Node1&#45;&gt;Node2 -->
<g id="edge1_Node000001_Node000002" class="edge">
<title>Node1&#45;&gt;Node2</title>
<g id="a_edge1_Node000001_Node000002"><a xlink:title=" ">
<path fill="none" stroke="#63b8ff" d="M203.11,-15C211.59,-15 220.15,-15 228.6,-15"/>
<polygon fill="#63b8ff" stroke="#63b8ff" points="228.83,-18.5 238.83,-15 228.83,-11.5 228.83,-18.5"/>
</a>
</g>
</g>
<!-- Node3 -->
<g id="Node000003" class="node">
<title>Node3</title>
<g id="a_Node000003"><a xlink:href="classcom_1_1teragrep_1_1pth__06_1_1ConfiguredLogger.html#adbd659cefc990abe9b2da58d3dae9970" target="_top" xlink:title=" ">
<polygon fill="white" stroke="#666666" points="621,-30 448,-30 448,0 621,0 621,-30"/>
<text text-anchor="start" x="456" y="-18" font-family="Helvetica,sans-Serif" font-size="10.00">com.teragrep.pth_06.Configured</text>
<text text-anchor="middle" x="534.5" y="-7" font-family="Helvetica,sans-Serif" font-size="10.00">Logger.info</text>
</a>
</g>
</g>
<!-- Node2&#45;&gt;Node3 -->
<g id="edge2_Node000002_Node000003" class="edge">
<title>Node2&#45;&gt;Node3</title>
<g id="a_edge2_Node000002_Node000003"><a xlink:title=" ">
<path fill="none" stroke="#63b8ff" d="M412.19,-15C420.66,-15 429.3,-15 437.87,-15"/>
<polygon fill="#63b8ff" stroke="#63b8ff" points="437.88,-18.5 447.88,-15 437.88,-11.5 437.88,-18.5"/>
</a>
</g>
</g>
</g>
</svg>
